G75*
%MOIN*%
%OFA0B0*%
%FSLAX25Y25*%
%IPPOS*%
%LPD*%
%AMOC8*
5,1,8,0,0,1.08239X$1,22.5*
%
%ADD10R,0.04331X0.03937*%
%ADD11C,0.01181*%
%ADD12R,0.07874X0.04724*%
%ADD13R,0.05315X0.02362*%
%ADD14R,0.03346X0.08661*%
%ADD15R,0.03937X0.04134*%
%ADD16R,0.03937X0.04331*%
%ADD17R,0.06299X0.09055*%
%ADD18R,0.05000X0.02200*%
%ADD19R,0.02200X0.05000*%
%ADD20C,0.01772*%
D10*
X0050404Y0053750D03*
X0057096Y0053750D03*
X0075404Y0053750D03*
X0082096Y0053750D03*
X0100404Y0058750D03*
X0107096Y0058750D03*
X0152404Y0053750D03*
X0159096Y0053750D03*
X0177404Y0053750D03*
X0184096Y0053750D03*
X0202404Y0058750D03*
X0209096Y0058750D03*
X0254404Y0053750D03*
X0261096Y0053750D03*
X0279404Y0053750D03*
X0286096Y0053750D03*
X0304404Y0058750D03*
X0311096Y0058750D03*
X0311096Y0103750D03*
X0304404Y0103750D03*
X0304404Y0108750D03*
X0311096Y0108750D03*
X0286096Y0155750D03*
X0279404Y0155750D03*
X0261096Y0155750D03*
X0254404Y0155750D03*
X0209096Y0160750D03*
X0202404Y0160750D03*
X0184096Y0155750D03*
X0177404Y0155750D03*
X0159096Y0155750D03*
X0152404Y0155750D03*
X0107096Y0160750D03*
X0100404Y0160750D03*
X0082096Y0155750D03*
X0075404Y0155750D03*
X0057096Y0155750D03*
X0050404Y0155750D03*
X0100404Y0108750D03*
X0100404Y0103750D03*
X0107096Y0103750D03*
X0107096Y0108750D03*
X0202404Y0108750D03*
X0202404Y0103750D03*
X0209096Y0103750D03*
X0209096Y0108750D03*
X0304404Y0160750D03*
X0311096Y0160750D03*
X0311096Y0205750D03*
X0311096Y0210750D03*
X0304404Y0210750D03*
X0304404Y0205750D03*
X0286096Y0257750D03*
X0279404Y0257750D03*
X0261096Y0257750D03*
X0254404Y0257750D03*
X0209096Y0262750D03*
X0202404Y0262750D03*
X0184096Y0257750D03*
X0177404Y0257750D03*
X0159096Y0257750D03*
X0152404Y0257750D03*
X0107096Y0262750D03*
X0100404Y0262750D03*
X0082096Y0257750D03*
X0075404Y0257750D03*
X0057096Y0257750D03*
X0050404Y0257750D03*
X0100404Y0210750D03*
X0100404Y0205750D03*
X0107096Y0205750D03*
X0107096Y0210750D03*
X0202404Y0210750D03*
X0202404Y0205750D03*
X0209096Y0205750D03*
X0209096Y0210750D03*
X0304404Y0262750D03*
X0311096Y0262750D03*
X0311096Y0307750D03*
X0304404Y0307750D03*
X0304404Y0312750D03*
X0311096Y0312750D03*
X0209096Y0312750D03*
X0209096Y0307750D03*
X0202404Y0307750D03*
X0202404Y0312750D03*
X0107096Y0312750D03*
X0107096Y0307750D03*
X0100404Y0307750D03*
X0100404Y0312750D03*
D11*
X0140872Y0310081D02*
X0143628Y0310081D01*
X0143628Y0307325D01*
X0140872Y0307325D01*
X0140872Y0310081D01*
X0140872Y0308505D02*
X0143628Y0308505D01*
X0143628Y0309685D02*
X0140872Y0309685D01*
X0140872Y0303175D02*
X0143628Y0303175D01*
X0143628Y0300419D01*
X0140872Y0300419D01*
X0140872Y0303175D01*
X0140872Y0301599D02*
X0143628Y0301599D01*
X0143628Y0302779D02*
X0140872Y0302779D01*
X0108581Y0259128D02*
X0108581Y0256372D01*
X0105825Y0256372D01*
X0105825Y0259128D01*
X0108581Y0259128D01*
X0108581Y0257552D02*
X0105825Y0257552D01*
X0105825Y0258732D02*
X0108581Y0258732D01*
X0101675Y0259128D02*
X0101675Y0256372D01*
X0098919Y0256372D01*
X0098919Y0259128D01*
X0101675Y0259128D01*
X0101675Y0257552D02*
X0098919Y0257552D01*
X0098919Y0258732D02*
X0101675Y0258732D01*
X0140872Y0208081D02*
X0143628Y0208081D01*
X0143628Y0205325D01*
X0140872Y0205325D01*
X0140872Y0208081D01*
X0140872Y0206505D02*
X0143628Y0206505D01*
X0143628Y0207685D02*
X0140872Y0207685D01*
X0140872Y0201175D02*
X0143628Y0201175D01*
X0143628Y0198419D01*
X0140872Y0198419D01*
X0140872Y0201175D01*
X0140872Y0199599D02*
X0143628Y0199599D01*
X0143628Y0200779D02*
X0140872Y0200779D01*
X0108581Y0157128D02*
X0108581Y0154372D01*
X0105825Y0154372D01*
X0105825Y0157128D01*
X0108581Y0157128D01*
X0108581Y0155552D02*
X0105825Y0155552D01*
X0105825Y0156732D02*
X0108581Y0156732D01*
X0101675Y0157128D02*
X0101675Y0154372D01*
X0098919Y0154372D01*
X0098919Y0157128D01*
X0101675Y0157128D01*
X0101675Y0155552D02*
X0098919Y0155552D01*
X0098919Y0156732D02*
X0101675Y0156732D01*
X0140872Y0106081D02*
X0143628Y0106081D01*
X0143628Y0103325D01*
X0140872Y0103325D01*
X0140872Y0106081D01*
X0140872Y0104505D02*
X0143628Y0104505D01*
X0143628Y0105685D02*
X0140872Y0105685D01*
X0140872Y0099175D02*
X0143628Y0099175D01*
X0143628Y0096419D01*
X0140872Y0096419D01*
X0140872Y0099175D01*
X0140872Y0097599D02*
X0143628Y0097599D01*
X0143628Y0098779D02*
X0140872Y0098779D01*
X0108581Y0055128D02*
X0108581Y0052372D01*
X0105825Y0052372D01*
X0105825Y0055128D01*
X0108581Y0055128D01*
X0108581Y0053552D02*
X0105825Y0053552D01*
X0105825Y0054732D02*
X0108581Y0054732D01*
X0101675Y0055128D02*
X0101675Y0052372D01*
X0098919Y0052372D01*
X0098919Y0055128D01*
X0101675Y0055128D01*
X0101675Y0053552D02*
X0098919Y0053552D01*
X0098919Y0054732D02*
X0101675Y0054732D01*
X0041628Y0099175D02*
X0038872Y0099175D01*
X0041628Y0099175D02*
X0041628Y0096419D01*
X0038872Y0096419D01*
X0038872Y0099175D01*
X0038872Y0097599D02*
X0041628Y0097599D01*
X0041628Y0098779D02*
X0038872Y0098779D01*
X0038872Y0106081D02*
X0041628Y0106081D01*
X0041628Y0103325D01*
X0038872Y0103325D01*
X0038872Y0106081D01*
X0038872Y0104505D02*
X0041628Y0104505D01*
X0041628Y0105685D02*
X0038872Y0105685D01*
X0038872Y0201175D02*
X0041628Y0201175D01*
X0041628Y0198419D01*
X0038872Y0198419D01*
X0038872Y0201175D01*
X0038872Y0199599D02*
X0041628Y0199599D01*
X0041628Y0200779D02*
X0038872Y0200779D01*
X0038872Y0208081D02*
X0041628Y0208081D01*
X0041628Y0205325D01*
X0038872Y0205325D01*
X0038872Y0208081D01*
X0038872Y0206505D02*
X0041628Y0206505D01*
X0041628Y0207685D02*
X0038872Y0207685D01*
X0038872Y0303175D02*
X0041628Y0303175D01*
X0041628Y0300419D01*
X0038872Y0300419D01*
X0038872Y0303175D01*
X0038872Y0301599D02*
X0041628Y0301599D01*
X0041628Y0302779D02*
X0038872Y0302779D01*
X0038872Y0310081D02*
X0041628Y0310081D01*
X0041628Y0307325D01*
X0038872Y0307325D01*
X0038872Y0310081D01*
X0038872Y0308505D02*
X0041628Y0308505D01*
X0041628Y0309685D02*
X0038872Y0309685D01*
X0203675Y0259128D02*
X0203675Y0256372D01*
X0200919Y0256372D01*
X0200919Y0259128D01*
X0203675Y0259128D01*
X0203675Y0257552D02*
X0200919Y0257552D01*
X0200919Y0258732D02*
X0203675Y0258732D01*
X0210581Y0259128D02*
X0210581Y0256372D01*
X0207825Y0256372D01*
X0207825Y0259128D01*
X0210581Y0259128D01*
X0210581Y0257552D02*
X0207825Y0257552D01*
X0207825Y0258732D02*
X0210581Y0258732D01*
X0242872Y0303175D02*
X0245628Y0303175D01*
X0245628Y0300419D01*
X0242872Y0300419D01*
X0242872Y0303175D01*
X0242872Y0301599D02*
X0245628Y0301599D01*
X0245628Y0302779D02*
X0242872Y0302779D01*
X0242872Y0310081D02*
X0245628Y0310081D01*
X0245628Y0307325D01*
X0242872Y0307325D01*
X0242872Y0310081D01*
X0242872Y0308505D02*
X0245628Y0308505D01*
X0245628Y0309685D02*
X0242872Y0309685D01*
X0305675Y0259128D02*
X0305675Y0256372D01*
X0302919Y0256372D01*
X0302919Y0259128D01*
X0305675Y0259128D01*
X0305675Y0257552D02*
X0302919Y0257552D01*
X0302919Y0258732D02*
X0305675Y0258732D01*
X0312581Y0259128D02*
X0312581Y0256372D01*
X0309825Y0256372D01*
X0309825Y0259128D01*
X0312581Y0259128D01*
X0312581Y0257552D02*
X0309825Y0257552D01*
X0309825Y0258732D02*
X0312581Y0258732D01*
X0245628Y0208081D02*
X0242872Y0208081D01*
X0245628Y0208081D02*
X0245628Y0205325D01*
X0242872Y0205325D01*
X0242872Y0208081D01*
X0242872Y0206505D02*
X0245628Y0206505D01*
X0245628Y0207685D02*
X0242872Y0207685D01*
X0242872Y0201175D02*
X0245628Y0201175D01*
X0245628Y0198419D01*
X0242872Y0198419D01*
X0242872Y0201175D01*
X0242872Y0199599D02*
X0245628Y0199599D01*
X0245628Y0200779D02*
X0242872Y0200779D01*
X0210581Y0157128D02*
X0210581Y0154372D01*
X0207825Y0154372D01*
X0207825Y0157128D01*
X0210581Y0157128D01*
X0210581Y0155552D02*
X0207825Y0155552D01*
X0207825Y0156732D02*
X0210581Y0156732D01*
X0203675Y0157128D02*
X0203675Y0154372D01*
X0200919Y0154372D01*
X0200919Y0157128D01*
X0203675Y0157128D01*
X0203675Y0155552D02*
X0200919Y0155552D01*
X0200919Y0156732D02*
X0203675Y0156732D01*
X0242872Y0106081D02*
X0245628Y0106081D01*
X0245628Y0103325D01*
X0242872Y0103325D01*
X0242872Y0106081D01*
X0242872Y0104505D02*
X0245628Y0104505D01*
X0245628Y0105685D02*
X0242872Y0105685D01*
X0242872Y0099175D02*
X0245628Y0099175D01*
X0245628Y0096419D01*
X0242872Y0096419D01*
X0242872Y0099175D01*
X0242872Y0097599D02*
X0245628Y0097599D01*
X0245628Y0098779D02*
X0242872Y0098779D01*
X0210581Y0055128D02*
X0210581Y0052372D01*
X0207825Y0052372D01*
X0207825Y0055128D01*
X0210581Y0055128D01*
X0210581Y0053552D02*
X0207825Y0053552D01*
X0207825Y0054732D02*
X0210581Y0054732D01*
X0203675Y0055128D02*
X0203675Y0052372D01*
X0200919Y0052372D01*
X0200919Y0055128D01*
X0203675Y0055128D01*
X0203675Y0053552D02*
X0200919Y0053552D01*
X0200919Y0054732D02*
X0203675Y0054732D01*
X0305675Y0055128D02*
X0305675Y0052372D01*
X0302919Y0052372D01*
X0302919Y0055128D01*
X0305675Y0055128D01*
X0305675Y0053552D02*
X0302919Y0053552D01*
X0302919Y0054732D02*
X0305675Y0054732D01*
X0312581Y0055128D02*
X0312581Y0052372D01*
X0309825Y0052372D01*
X0309825Y0055128D01*
X0312581Y0055128D01*
X0312581Y0053552D02*
X0309825Y0053552D01*
X0309825Y0054732D02*
X0312581Y0054732D01*
X0312581Y0154372D02*
X0312581Y0157128D01*
X0312581Y0154372D02*
X0309825Y0154372D01*
X0309825Y0157128D01*
X0312581Y0157128D01*
X0312581Y0155552D02*
X0309825Y0155552D01*
X0309825Y0156732D02*
X0312581Y0156732D01*
X0305675Y0157128D02*
X0305675Y0154372D01*
X0302919Y0154372D01*
X0302919Y0157128D01*
X0305675Y0157128D01*
X0305675Y0155552D02*
X0302919Y0155552D01*
X0302919Y0156732D02*
X0305675Y0156732D01*
D12*
X0327219Y0169726D03*
X0327219Y0191774D03*
X0327219Y0271726D03*
X0327219Y0293774D03*
X0238281Y0293774D03*
X0225219Y0293774D03*
X0225219Y0271726D03*
X0238281Y0271726D03*
X0238281Y0191774D03*
X0225219Y0191774D03*
X0225219Y0169726D03*
X0238281Y0169726D03*
X0238281Y0089774D03*
X0225219Y0089774D03*
X0225219Y0067726D03*
X0238281Y0067726D03*
X0327219Y0067726D03*
X0327219Y0089774D03*
X0136281Y0089774D03*
X0123219Y0089774D03*
X0123219Y0067726D03*
X0136281Y0067726D03*
X0034281Y0067726D03*
X0034281Y0089774D03*
X0034281Y0169726D03*
X0034281Y0191774D03*
X0034281Y0271726D03*
X0034281Y0293774D03*
X0123219Y0293774D03*
X0136281Y0293774D03*
X0136281Y0271726D03*
X0123219Y0271726D03*
X0123219Y0191774D03*
X0136281Y0191774D03*
X0136281Y0169726D03*
X0123219Y0169726D03*
D13*
X0108750Y0174844D03*
X0108750Y0178781D03*
X0108750Y0182719D03*
X0108750Y0186656D03*
X0150750Y0186656D03*
X0150750Y0182719D03*
X0150750Y0178781D03*
X0150750Y0174844D03*
X0210750Y0174844D03*
X0210750Y0178781D03*
X0210750Y0182719D03*
X0210750Y0186656D03*
X0252750Y0186656D03*
X0252750Y0182719D03*
X0252750Y0178781D03*
X0252750Y0174844D03*
X0312750Y0174844D03*
X0312750Y0178781D03*
X0312750Y0182719D03*
X0312750Y0186656D03*
X0312750Y0276844D03*
X0312750Y0280781D03*
X0312750Y0284719D03*
X0312750Y0288656D03*
X0252750Y0288656D03*
X0252750Y0284719D03*
X0252750Y0280781D03*
X0252750Y0276844D03*
X0210750Y0276844D03*
X0210750Y0280781D03*
X0210750Y0284719D03*
X0210750Y0288656D03*
X0150750Y0288656D03*
X0150750Y0284719D03*
X0150750Y0280781D03*
X0150750Y0276844D03*
X0108750Y0276844D03*
X0108750Y0280781D03*
X0108750Y0284719D03*
X0108750Y0288656D03*
X0048750Y0288656D03*
X0048750Y0284719D03*
X0048750Y0280781D03*
X0048750Y0276844D03*
X0048750Y0186656D03*
X0048750Y0182719D03*
X0048750Y0178781D03*
X0048750Y0174844D03*
X0048750Y0084656D03*
X0048750Y0080719D03*
X0048750Y0076781D03*
X0048750Y0072844D03*
X0108750Y0072844D03*
X0108750Y0076781D03*
X0108750Y0080719D03*
X0108750Y0084656D03*
X0150750Y0084656D03*
X0150750Y0080719D03*
X0150750Y0076781D03*
X0150750Y0072844D03*
X0210750Y0072844D03*
X0210750Y0076781D03*
X0210750Y0080719D03*
X0210750Y0084656D03*
X0252750Y0084656D03*
X0252750Y0080719D03*
X0252750Y0076781D03*
X0252750Y0072844D03*
X0312750Y0072844D03*
X0312750Y0076781D03*
X0312750Y0080719D03*
X0312750Y0084656D03*
D14*
X0248163Y0038750D03*
X0237337Y0038750D03*
X0146163Y0038750D03*
X0135337Y0038750D03*
X0044163Y0038750D03*
X0033337Y0038750D03*
X0033337Y0140750D03*
X0044163Y0140750D03*
X0135337Y0140750D03*
X0146163Y0140750D03*
X0237337Y0140750D03*
X0248163Y0140750D03*
X0248163Y0242750D03*
X0237337Y0242750D03*
X0146163Y0242750D03*
X0135337Y0242750D03*
X0044163Y0242750D03*
X0033337Y0242750D03*
D15*
X0038750Y0032746D03*
X0038750Y0044754D03*
X0038750Y0134746D03*
X0038750Y0146754D03*
X0038750Y0236746D03*
X0038750Y0248754D03*
X0140750Y0248754D03*
X0140750Y0236746D03*
X0140750Y0146754D03*
X0140750Y0134746D03*
X0140750Y0044754D03*
X0140750Y0032746D03*
X0242750Y0032746D03*
X0242750Y0044754D03*
X0242750Y0134746D03*
X0242750Y0146754D03*
X0242750Y0236746D03*
X0242750Y0248754D03*
D16*
X0249750Y0206596D03*
X0249750Y0199904D03*
X0249750Y0104596D03*
X0249750Y0097904D03*
X0147750Y0097904D03*
X0147750Y0104596D03*
X0147750Y0199904D03*
X0147750Y0206596D03*
X0045750Y0206596D03*
X0045750Y0199904D03*
X0045750Y0104596D03*
X0045750Y0097904D03*
X0045750Y0301904D03*
X0045750Y0308596D03*
X0147750Y0308596D03*
X0147750Y0301904D03*
X0249750Y0301904D03*
X0249750Y0308596D03*
D17*
X0220750Y0263152D03*
X0220750Y0238348D03*
X0220750Y0161152D03*
X0220750Y0136348D03*
X0220750Y0059152D03*
X0220750Y0034348D03*
X0322750Y0034348D03*
X0322750Y0059152D03*
X0322750Y0136348D03*
X0322750Y0161152D03*
X0322750Y0238348D03*
X0322750Y0263152D03*
X0118750Y0263152D03*
X0118750Y0238348D03*
X0118750Y0161152D03*
X0118750Y0136348D03*
X0118750Y0059152D03*
X0118750Y0034348D03*
D18*
G36*
X0077140Y0069994D02*
X0073606Y0066460D01*
X0072050Y0068016D01*
X0075584Y0071550D01*
X0077140Y0069994D01*
G37*
G36*
X0074913Y0072221D02*
X0071379Y0068687D01*
X0069823Y0070243D01*
X0073357Y0073777D01*
X0074913Y0072221D01*
G37*
G36*
X0072686Y0074448D02*
X0069152Y0070914D01*
X0067596Y0072470D01*
X0071130Y0076004D01*
X0072686Y0074448D01*
G37*
G36*
X0070458Y0076675D02*
X0066924Y0073141D01*
X0065368Y0074697D01*
X0068902Y0078231D01*
X0070458Y0076675D01*
G37*
G36*
X0068231Y0078902D02*
X0064697Y0075368D01*
X0063141Y0076924D01*
X0066675Y0080458D01*
X0068231Y0078902D01*
G37*
G36*
X0066004Y0081130D02*
X0062470Y0077596D01*
X0060914Y0079152D01*
X0064448Y0082686D01*
X0066004Y0081130D01*
G37*
G36*
X0063777Y0083357D02*
X0060243Y0079823D01*
X0058687Y0081379D01*
X0062221Y0084913D01*
X0063777Y0083357D01*
G37*
G36*
X0061550Y0085584D02*
X0058016Y0082050D01*
X0056460Y0083606D01*
X0059994Y0087140D01*
X0061550Y0085584D01*
G37*
G36*
X0085450Y0109484D02*
X0081916Y0105950D01*
X0080360Y0107506D01*
X0083894Y0111040D01*
X0085450Y0109484D01*
G37*
G36*
X0087677Y0107257D02*
X0084143Y0103723D01*
X0082587Y0105279D01*
X0086121Y0108813D01*
X0087677Y0107257D01*
G37*
G36*
X0089904Y0105030D02*
X0086370Y0101496D01*
X0084814Y0103052D01*
X0088348Y0106586D01*
X0089904Y0105030D01*
G37*
G36*
X0092132Y0102803D02*
X0088598Y0099269D01*
X0087042Y0100825D01*
X0090576Y0104359D01*
X0092132Y0102803D01*
G37*
G36*
X0094359Y0100576D02*
X0090825Y0097042D01*
X0089269Y0098598D01*
X0092803Y0102132D01*
X0094359Y0100576D01*
G37*
G36*
X0096586Y0098348D02*
X0093052Y0094814D01*
X0091496Y0096370D01*
X0095030Y0099904D01*
X0096586Y0098348D01*
G37*
G36*
X0098813Y0096121D02*
X0095279Y0092587D01*
X0093723Y0094143D01*
X0097257Y0097677D01*
X0098813Y0096121D01*
G37*
G36*
X0101040Y0093894D02*
X0097506Y0090360D01*
X0095950Y0091916D01*
X0099484Y0095450D01*
X0101040Y0093894D01*
G37*
G36*
X0163550Y0085584D02*
X0160016Y0082050D01*
X0158460Y0083606D01*
X0161994Y0087140D01*
X0163550Y0085584D01*
G37*
G36*
X0165777Y0083357D02*
X0162243Y0079823D01*
X0160687Y0081379D01*
X0164221Y0084913D01*
X0165777Y0083357D01*
G37*
G36*
X0168004Y0081130D02*
X0164470Y0077596D01*
X0162914Y0079152D01*
X0166448Y0082686D01*
X0168004Y0081130D01*
G37*
G36*
X0170231Y0078902D02*
X0166697Y0075368D01*
X0165141Y0076924D01*
X0168675Y0080458D01*
X0170231Y0078902D01*
G37*
G36*
X0172458Y0076675D02*
X0168924Y0073141D01*
X0167368Y0074697D01*
X0170902Y0078231D01*
X0172458Y0076675D01*
G37*
G36*
X0174686Y0074448D02*
X0171152Y0070914D01*
X0169596Y0072470D01*
X0173130Y0076004D01*
X0174686Y0074448D01*
G37*
G36*
X0176913Y0072221D02*
X0173379Y0068687D01*
X0171823Y0070243D01*
X0175357Y0073777D01*
X0176913Y0072221D01*
G37*
G36*
X0179140Y0069994D02*
X0175606Y0066460D01*
X0174050Y0068016D01*
X0177584Y0071550D01*
X0179140Y0069994D01*
G37*
G36*
X0203040Y0093894D02*
X0199506Y0090360D01*
X0197950Y0091916D01*
X0201484Y0095450D01*
X0203040Y0093894D01*
G37*
G36*
X0200813Y0096121D02*
X0197279Y0092587D01*
X0195723Y0094143D01*
X0199257Y0097677D01*
X0200813Y0096121D01*
G37*
G36*
X0198586Y0098348D02*
X0195052Y0094814D01*
X0193496Y0096370D01*
X0197030Y0099904D01*
X0198586Y0098348D01*
G37*
G36*
X0196359Y0100576D02*
X0192825Y0097042D01*
X0191269Y0098598D01*
X0194803Y0102132D01*
X0196359Y0100576D01*
G37*
G36*
X0194132Y0102803D02*
X0190598Y0099269D01*
X0189042Y0100825D01*
X0192576Y0104359D01*
X0194132Y0102803D01*
G37*
G36*
X0191904Y0105030D02*
X0188370Y0101496D01*
X0186814Y0103052D01*
X0190348Y0106586D01*
X0191904Y0105030D01*
G37*
G36*
X0189677Y0107257D02*
X0186143Y0103723D01*
X0184587Y0105279D01*
X0188121Y0108813D01*
X0189677Y0107257D01*
G37*
G36*
X0187450Y0109484D02*
X0183916Y0105950D01*
X0182360Y0107506D01*
X0185894Y0111040D01*
X0187450Y0109484D01*
G37*
G36*
X0179140Y0171994D02*
X0175606Y0168460D01*
X0174050Y0170016D01*
X0177584Y0173550D01*
X0179140Y0171994D01*
G37*
G36*
X0176913Y0174221D02*
X0173379Y0170687D01*
X0171823Y0172243D01*
X0175357Y0175777D01*
X0176913Y0174221D01*
G37*
G36*
X0174686Y0176448D02*
X0171152Y0172914D01*
X0169596Y0174470D01*
X0173130Y0178004D01*
X0174686Y0176448D01*
G37*
G36*
X0172458Y0178675D02*
X0168924Y0175141D01*
X0167368Y0176697D01*
X0170902Y0180231D01*
X0172458Y0178675D01*
G37*
G36*
X0170231Y0180902D02*
X0166697Y0177368D01*
X0165141Y0178924D01*
X0168675Y0182458D01*
X0170231Y0180902D01*
G37*
G36*
X0168004Y0183130D02*
X0164470Y0179596D01*
X0162914Y0181152D01*
X0166448Y0184686D01*
X0168004Y0183130D01*
G37*
G36*
X0165777Y0185357D02*
X0162243Y0181823D01*
X0160687Y0183379D01*
X0164221Y0186913D01*
X0165777Y0185357D01*
G37*
G36*
X0163550Y0187584D02*
X0160016Y0184050D01*
X0158460Y0185606D01*
X0161994Y0189140D01*
X0163550Y0187584D01*
G37*
G36*
X0189677Y0209257D02*
X0186143Y0205723D01*
X0184587Y0207279D01*
X0188121Y0210813D01*
X0189677Y0209257D01*
G37*
G36*
X0191904Y0207030D02*
X0188370Y0203496D01*
X0186814Y0205052D01*
X0190348Y0208586D01*
X0191904Y0207030D01*
G37*
G36*
X0194132Y0204803D02*
X0190598Y0201269D01*
X0189042Y0202825D01*
X0192576Y0206359D01*
X0194132Y0204803D01*
G37*
G36*
X0196359Y0202576D02*
X0192825Y0199042D01*
X0191269Y0200598D01*
X0194803Y0204132D01*
X0196359Y0202576D01*
G37*
G36*
X0198586Y0200348D02*
X0195052Y0196814D01*
X0193496Y0198370D01*
X0197030Y0201904D01*
X0198586Y0200348D01*
G37*
G36*
X0200813Y0198121D02*
X0197279Y0194587D01*
X0195723Y0196143D01*
X0199257Y0199677D01*
X0200813Y0198121D01*
G37*
G36*
X0203040Y0195894D02*
X0199506Y0192360D01*
X0197950Y0193916D01*
X0201484Y0197450D01*
X0203040Y0195894D01*
G37*
G36*
X0187450Y0211484D02*
X0183916Y0207950D01*
X0182360Y0209506D01*
X0185894Y0213040D01*
X0187450Y0211484D01*
G37*
G36*
X0179140Y0273994D02*
X0175606Y0270460D01*
X0174050Y0272016D01*
X0177584Y0275550D01*
X0179140Y0273994D01*
G37*
G36*
X0176913Y0276221D02*
X0173379Y0272687D01*
X0171823Y0274243D01*
X0175357Y0277777D01*
X0176913Y0276221D01*
G37*
G36*
X0174686Y0278448D02*
X0171152Y0274914D01*
X0169596Y0276470D01*
X0173130Y0280004D01*
X0174686Y0278448D01*
G37*
G36*
X0172458Y0280675D02*
X0168924Y0277141D01*
X0167368Y0278697D01*
X0170902Y0282231D01*
X0172458Y0280675D01*
G37*
G36*
X0170231Y0282902D02*
X0166697Y0279368D01*
X0165141Y0280924D01*
X0168675Y0284458D01*
X0170231Y0282902D01*
G37*
G36*
X0168004Y0285130D02*
X0164470Y0281596D01*
X0162914Y0283152D01*
X0166448Y0286686D01*
X0168004Y0285130D01*
G37*
G36*
X0165777Y0287357D02*
X0162243Y0283823D01*
X0160687Y0285379D01*
X0164221Y0288913D01*
X0165777Y0287357D01*
G37*
G36*
X0163550Y0289584D02*
X0160016Y0286050D01*
X0158460Y0287606D01*
X0161994Y0291140D01*
X0163550Y0289584D01*
G37*
G36*
X0189677Y0311257D02*
X0186143Y0307723D01*
X0184587Y0309279D01*
X0188121Y0312813D01*
X0189677Y0311257D01*
G37*
G36*
X0191904Y0309030D02*
X0188370Y0305496D01*
X0186814Y0307052D01*
X0190348Y0310586D01*
X0191904Y0309030D01*
G37*
G36*
X0194132Y0306803D02*
X0190598Y0303269D01*
X0189042Y0304825D01*
X0192576Y0308359D01*
X0194132Y0306803D01*
G37*
G36*
X0196359Y0304576D02*
X0192825Y0301042D01*
X0191269Y0302598D01*
X0194803Y0306132D01*
X0196359Y0304576D01*
G37*
G36*
X0198586Y0302348D02*
X0195052Y0298814D01*
X0193496Y0300370D01*
X0197030Y0303904D01*
X0198586Y0302348D01*
G37*
G36*
X0200813Y0300121D02*
X0197279Y0296587D01*
X0195723Y0298143D01*
X0199257Y0301677D01*
X0200813Y0300121D01*
G37*
G36*
X0203040Y0297894D02*
X0199506Y0294360D01*
X0197950Y0295916D01*
X0201484Y0299450D01*
X0203040Y0297894D01*
G37*
G36*
X0187450Y0313484D02*
X0183916Y0309950D01*
X0182360Y0311506D01*
X0185894Y0315040D01*
X0187450Y0313484D01*
G37*
G36*
X0265550Y0289584D02*
X0262016Y0286050D01*
X0260460Y0287606D01*
X0263994Y0291140D01*
X0265550Y0289584D01*
G37*
G36*
X0267777Y0287357D02*
X0264243Y0283823D01*
X0262687Y0285379D01*
X0266221Y0288913D01*
X0267777Y0287357D01*
G37*
G36*
X0270004Y0285130D02*
X0266470Y0281596D01*
X0264914Y0283152D01*
X0268448Y0286686D01*
X0270004Y0285130D01*
G37*
G36*
X0272231Y0282902D02*
X0268697Y0279368D01*
X0267141Y0280924D01*
X0270675Y0284458D01*
X0272231Y0282902D01*
G37*
G36*
X0274458Y0280675D02*
X0270924Y0277141D01*
X0269368Y0278697D01*
X0272902Y0282231D01*
X0274458Y0280675D01*
G37*
G36*
X0276686Y0278448D02*
X0273152Y0274914D01*
X0271596Y0276470D01*
X0275130Y0280004D01*
X0276686Y0278448D01*
G37*
G36*
X0278913Y0276221D02*
X0275379Y0272687D01*
X0273823Y0274243D01*
X0277357Y0277777D01*
X0278913Y0276221D01*
G37*
G36*
X0281140Y0273994D02*
X0277606Y0270460D01*
X0276050Y0272016D01*
X0279584Y0275550D01*
X0281140Y0273994D01*
G37*
G36*
X0305040Y0297894D02*
X0301506Y0294360D01*
X0299950Y0295916D01*
X0303484Y0299450D01*
X0305040Y0297894D01*
G37*
G36*
X0302813Y0300121D02*
X0299279Y0296587D01*
X0297723Y0298143D01*
X0301257Y0301677D01*
X0302813Y0300121D01*
G37*
G36*
X0300586Y0302348D02*
X0297052Y0298814D01*
X0295496Y0300370D01*
X0299030Y0303904D01*
X0300586Y0302348D01*
G37*
G36*
X0298359Y0304576D02*
X0294825Y0301042D01*
X0293269Y0302598D01*
X0296803Y0306132D01*
X0298359Y0304576D01*
G37*
G36*
X0296132Y0306803D02*
X0292598Y0303269D01*
X0291042Y0304825D01*
X0294576Y0308359D01*
X0296132Y0306803D01*
G37*
G36*
X0293904Y0309030D02*
X0290370Y0305496D01*
X0288814Y0307052D01*
X0292348Y0310586D01*
X0293904Y0309030D01*
G37*
G36*
X0291677Y0311257D02*
X0288143Y0307723D01*
X0286587Y0309279D01*
X0290121Y0312813D01*
X0291677Y0311257D01*
G37*
G36*
X0289450Y0313484D02*
X0285916Y0309950D01*
X0284360Y0311506D01*
X0287894Y0315040D01*
X0289450Y0313484D01*
G37*
G36*
X0289450Y0211484D02*
X0285916Y0207950D01*
X0284360Y0209506D01*
X0287894Y0213040D01*
X0289450Y0211484D01*
G37*
G36*
X0291677Y0209257D02*
X0288143Y0205723D01*
X0286587Y0207279D01*
X0290121Y0210813D01*
X0291677Y0209257D01*
G37*
G36*
X0293904Y0207030D02*
X0290370Y0203496D01*
X0288814Y0205052D01*
X0292348Y0208586D01*
X0293904Y0207030D01*
G37*
G36*
X0296132Y0204803D02*
X0292598Y0201269D01*
X0291042Y0202825D01*
X0294576Y0206359D01*
X0296132Y0204803D01*
G37*
G36*
X0298359Y0202576D02*
X0294825Y0199042D01*
X0293269Y0200598D01*
X0296803Y0204132D01*
X0298359Y0202576D01*
G37*
G36*
X0300586Y0200348D02*
X0297052Y0196814D01*
X0295496Y0198370D01*
X0299030Y0201904D01*
X0300586Y0200348D01*
G37*
G36*
X0302813Y0198121D02*
X0299279Y0194587D01*
X0297723Y0196143D01*
X0301257Y0199677D01*
X0302813Y0198121D01*
G37*
G36*
X0305040Y0195894D02*
X0301506Y0192360D01*
X0299950Y0193916D01*
X0303484Y0197450D01*
X0305040Y0195894D01*
G37*
G36*
X0281140Y0171994D02*
X0277606Y0168460D01*
X0276050Y0170016D01*
X0279584Y0173550D01*
X0281140Y0171994D01*
G37*
G36*
X0278913Y0174221D02*
X0275379Y0170687D01*
X0273823Y0172243D01*
X0277357Y0175777D01*
X0278913Y0174221D01*
G37*
G36*
X0276686Y0176448D02*
X0273152Y0172914D01*
X0271596Y0174470D01*
X0275130Y0178004D01*
X0276686Y0176448D01*
G37*
G36*
X0274458Y0178675D02*
X0270924Y0175141D01*
X0269368Y0176697D01*
X0272902Y0180231D01*
X0274458Y0178675D01*
G37*
G36*
X0272231Y0180902D02*
X0268697Y0177368D01*
X0267141Y0178924D01*
X0270675Y0182458D01*
X0272231Y0180902D01*
G37*
G36*
X0270004Y0183130D02*
X0266470Y0179596D01*
X0264914Y0181152D01*
X0268448Y0184686D01*
X0270004Y0183130D01*
G37*
G36*
X0267777Y0185357D02*
X0264243Y0181823D01*
X0262687Y0183379D01*
X0266221Y0186913D01*
X0267777Y0185357D01*
G37*
G36*
X0265550Y0187584D02*
X0262016Y0184050D01*
X0260460Y0185606D01*
X0263994Y0189140D01*
X0265550Y0187584D01*
G37*
G36*
X0289450Y0109484D02*
X0285916Y0105950D01*
X0284360Y0107506D01*
X0287894Y0111040D01*
X0289450Y0109484D01*
G37*
G36*
X0291677Y0107257D02*
X0288143Y0103723D01*
X0286587Y0105279D01*
X0290121Y0108813D01*
X0291677Y0107257D01*
G37*
G36*
X0293904Y0105030D02*
X0290370Y0101496D01*
X0288814Y0103052D01*
X0292348Y0106586D01*
X0293904Y0105030D01*
G37*
G36*
X0296132Y0102803D02*
X0292598Y0099269D01*
X0291042Y0100825D01*
X0294576Y0104359D01*
X0296132Y0102803D01*
G37*
G36*
X0298359Y0100576D02*
X0294825Y0097042D01*
X0293269Y0098598D01*
X0296803Y0102132D01*
X0298359Y0100576D01*
G37*
G36*
X0300586Y0098348D02*
X0297052Y0094814D01*
X0295496Y0096370D01*
X0299030Y0099904D01*
X0300586Y0098348D01*
G37*
G36*
X0302813Y0096121D02*
X0299279Y0092587D01*
X0297723Y0094143D01*
X0301257Y0097677D01*
X0302813Y0096121D01*
G37*
G36*
X0305040Y0093894D02*
X0301506Y0090360D01*
X0299950Y0091916D01*
X0303484Y0095450D01*
X0305040Y0093894D01*
G37*
G36*
X0281140Y0069994D02*
X0277606Y0066460D01*
X0276050Y0068016D01*
X0279584Y0071550D01*
X0281140Y0069994D01*
G37*
G36*
X0278913Y0072221D02*
X0275379Y0068687D01*
X0273823Y0070243D01*
X0277357Y0073777D01*
X0278913Y0072221D01*
G37*
G36*
X0276686Y0074448D02*
X0273152Y0070914D01*
X0271596Y0072470D01*
X0275130Y0076004D01*
X0276686Y0074448D01*
G37*
G36*
X0274458Y0076675D02*
X0270924Y0073141D01*
X0269368Y0074697D01*
X0272902Y0078231D01*
X0274458Y0076675D01*
G37*
G36*
X0272231Y0078902D02*
X0268697Y0075368D01*
X0267141Y0076924D01*
X0270675Y0080458D01*
X0272231Y0078902D01*
G37*
G36*
X0270004Y0081130D02*
X0266470Y0077596D01*
X0264914Y0079152D01*
X0268448Y0082686D01*
X0270004Y0081130D01*
G37*
G36*
X0267777Y0083357D02*
X0264243Y0079823D01*
X0262687Y0081379D01*
X0266221Y0084913D01*
X0267777Y0083357D01*
G37*
G36*
X0265550Y0085584D02*
X0262016Y0082050D01*
X0260460Y0083606D01*
X0263994Y0087140D01*
X0265550Y0085584D01*
G37*
G36*
X0101040Y0195894D02*
X0097506Y0192360D01*
X0095950Y0193916D01*
X0099484Y0197450D01*
X0101040Y0195894D01*
G37*
G36*
X0098813Y0198121D02*
X0095279Y0194587D01*
X0093723Y0196143D01*
X0097257Y0199677D01*
X0098813Y0198121D01*
G37*
G36*
X0096586Y0200348D02*
X0093052Y0196814D01*
X0091496Y0198370D01*
X0095030Y0201904D01*
X0096586Y0200348D01*
G37*
G36*
X0094359Y0202576D02*
X0090825Y0199042D01*
X0089269Y0200598D01*
X0092803Y0204132D01*
X0094359Y0202576D01*
G37*
G36*
X0092132Y0204803D02*
X0088598Y0201269D01*
X0087042Y0202825D01*
X0090576Y0206359D01*
X0092132Y0204803D01*
G37*
G36*
X0089904Y0207030D02*
X0086370Y0203496D01*
X0084814Y0205052D01*
X0088348Y0208586D01*
X0089904Y0207030D01*
G37*
G36*
X0087677Y0209257D02*
X0084143Y0205723D01*
X0082587Y0207279D01*
X0086121Y0210813D01*
X0087677Y0209257D01*
G37*
G36*
X0085450Y0211484D02*
X0081916Y0207950D01*
X0080360Y0209506D01*
X0083894Y0213040D01*
X0085450Y0211484D01*
G37*
G36*
X0061550Y0187584D02*
X0058016Y0184050D01*
X0056460Y0185606D01*
X0059994Y0189140D01*
X0061550Y0187584D01*
G37*
G36*
X0063777Y0185357D02*
X0060243Y0181823D01*
X0058687Y0183379D01*
X0062221Y0186913D01*
X0063777Y0185357D01*
G37*
G36*
X0066004Y0183130D02*
X0062470Y0179596D01*
X0060914Y0181152D01*
X0064448Y0184686D01*
X0066004Y0183130D01*
G37*
G36*
X0068231Y0180902D02*
X0064697Y0177368D01*
X0063141Y0178924D01*
X0066675Y0182458D01*
X0068231Y0180902D01*
G37*
G36*
X0070458Y0178675D02*
X0066924Y0175141D01*
X0065368Y0176697D01*
X0068902Y0180231D01*
X0070458Y0178675D01*
G37*
G36*
X0072686Y0176448D02*
X0069152Y0172914D01*
X0067596Y0174470D01*
X0071130Y0178004D01*
X0072686Y0176448D01*
G37*
G36*
X0074913Y0174221D02*
X0071379Y0170687D01*
X0069823Y0172243D01*
X0073357Y0175777D01*
X0074913Y0174221D01*
G37*
G36*
X0077140Y0171994D02*
X0073606Y0168460D01*
X0072050Y0170016D01*
X0075584Y0173550D01*
X0077140Y0171994D01*
G37*
G36*
X0077140Y0273994D02*
X0073606Y0270460D01*
X0072050Y0272016D01*
X0075584Y0275550D01*
X0077140Y0273994D01*
G37*
G36*
X0074913Y0276221D02*
X0071379Y0272687D01*
X0069823Y0274243D01*
X0073357Y0277777D01*
X0074913Y0276221D01*
G37*
G36*
X0072686Y0278448D02*
X0069152Y0274914D01*
X0067596Y0276470D01*
X0071130Y0280004D01*
X0072686Y0278448D01*
G37*
G36*
X0070458Y0280675D02*
X0066924Y0277141D01*
X0065368Y0278697D01*
X0068902Y0282231D01*
X0070458Y0280675D01*
G37*
G36*
X0068231Y0282902D02*
X0064697Y0279368D01*
X0063141Y0280924D01*
X0066675Y0284458D01*
X0068231Y0282902D01*
G37*
G36*
X0066004Y0285130D02*
X0062470Y0281596D01*
X0060914Y0283152D01*
X0064448Y0286686D01*
X0066004Y0285130D01*
G37*
G36*
X0063777Y0287357D02*
X0060243Y0283823D01*
X0058687Y0285379D01*
X0062221Y0288913D01*
X0063777Y0287357D01*
G37*
G36*
X0061550Y0289584D02*
X0058016Y0286050D01*
X0056460Y0287606D01*
X0059994Y0291140D01*
X0061550Y0289584D01*
G37*
G36*
X0085450Y0313484D02*
X0081916Y0309950D01*
X0080360Y0311506D01*
X0083894Y0315040D01*
X0085450Y0313484D01*
G37*
G36*
X0087677Y0311257D02*
X0084143Y0307723D01*
X0082587Y0309279D01*
X0086121Y0312813D01*
X0087677Y0311257D01*
G37*
G36*
X0089904Y0309030D02*
X0086370Y0305496D01*
X0084814Y0307052D01*
X0088348Y0310586D01*
X0089904Y0309030D01*
G37*
G36*
X0092132Y0306803D02*
X0088598Y0303269D01*
X0087042Y0304825D01*
X0090576Y0308359D01*
X0092132Y0306803D01*
G37*
G36*
X0094359Y0304576D02*
X0090825Y0301042D01*
X0089269Y0302598D01*
X0092803Y0306132D01*
X0094359Y0304576D01*
G37*
G36*
X0096586Y0302348D02*
X0093052Y0298814D01*
X0091496Y0300370D01*
X0095030Y0303904D01*
X0096586Y0302348D01*
G37*
G36*
X0098813Y0300121D02*
X0095279Y0296587D01*
X0093723Y0298143D01*
X0097257Y0301677D01*
X0098813Y0300121D01*
G37*
G36*
X0101040Y0297894D02*
X0097506Y0294360D01*
X0095950Y0295916D01*
X0099484Y0299450D01*
X0101040Y0297894D01*
G37*
D19*
G36*
X0101040Y0287606D02*
X0099484Y0286050D01*
X0095950Y0289584D01*
X0097506Y0291140D01*
X0101040Y0287606D01*
G37*
G36*
X0098813Y0285379D02*
X0097257Y0283823D01*
X0093723Y0287357D01*
X0095279Y0288913D01*
X0098813Y0285379D01*
G37*
G36*
X0096586Y0283152D02*
X0095030Y0281596D01*
X0091496Y0285130D01*
X0093052Y0286686D01*
X0096586Y0283152D01*
G37*
G36*
X0094359Y0280924D02*
X0092803Y0279368D01*
X0089269Y0282902D01*
X0090825Y0284458D01*
X0094359Y0280924D01*
G37*
G36*
X0092132Y0278697D02*
X0090576Y0277141D01*
X0087042Y0280675D01*
X0088598Y0282231D01*
X0092132Y0278697D01*
G37*
G36*
X0089904Y0276470D02*
X0088348Y0274914D01*
X0084814Y0278448D01*
X0086370Y0280004D01*
X0089904Y0276470D01*
G37*
G36*
X0087677Y0274243D02*
X0086121Y0272687D01*
X0082587Y0276221D01*
X0084143Y0277777D01*
X0087677Y0274243D01*
G37*
G36*
X0085450Y0272016D02*
X0083894Y0270460D01*
X0080360Y0273994D01*
X0081916Y0275550D01*
X0085450Y0272016D01*
G37*
G36*
X0061550Y0295916D02*
X0059994Y0294360D01*
X0056460Y0297894D01*
X0058016Y0299450D01*
X0061550Y0295916D01*
G37*
G36*
X0063777Y0298143D02*
X0062221Y0296587D01*
X0058687Y0300121D01*
X0060243Y0301677D01*
X0063777Y0298143D01*
G37*
G36*
X0066004Y0300370D02*
X0064448Y0298814D01*
X0060914Y0302348D01*
X0062470Y0303904D01*
X0066004Y0300370D01*
G37*
G36*
X0068231Y0302598D02*
X0066675Y0301042D01*
X0063141Y0304576D01*
X0064697Y0306132D01*
X0068231Y0302598D01*
G37*
G36*
X0070458Y0304825D02*
X0068902Y0303269D01*
X0065368Y0306803D01*
X0066924Y0308359D01*
X0070458Y0304825D01*
G37*
G36*
X0072686Y0307052D02*
X0071130Y0305496D01*
X0067596Y0309030D01*
X0069152Y0310586D01*
X0072686Y0307052D01*
G37*
G36*
X0074913Y0309279D02*
X0073357Y0307723D01*
X0069823Y0311257D01*
X0071379Y0312813D01*
X0074913Y0309279D01*
G37*
G36*
X0077140Y0311506D02*
X0075584Y0309950D01*
X0072050Y0313484D01*
X0073606Y0315040D01*
X0077140Y0311506D01*
G37*
G36*
X0163550Y0295916D02*
X0161994Y0294360D01*
X0158460Y0297894D01*
X0160016Y0299450D01*
X0163550Y0295916D01*
G37*
G36*
X0165777Y0298143D02*
X0164221Y0296587D01*
X0160687Y0300121D01*
X0162243Y0301677D01*
X0165777Y0298143D01*
G37*
G36*
X0168004Y0300370D02*
X0166448Y0298814D01*
X0162914Y0302348D01*
X0164470Y0303904D01*
X0168004Y0300370D01*
G37*
G36*
X0170231Y0302598D02*
X0168675Y0301042D01*
X0165141Y0304576D01*
X0166697Y0306132D01*
X0170231Y0302598D01*
G37*
G36*
X0172458Y0304825D02*
X0170902Y0303269D01*
X0167368Y0306803D01*
X0168924Y0308359D01*
X0172458Y0304825D01*
G37*
G36*
X0174686Y0307052D02*
X0173130Y0305496D01*
X0169596Y0309030D01*
X0171152Y0310586D01*
X0174686Y0307052D01*
G37*
G36*
X0176913Y0309279D02*
X0175357Y0307723D01*
X0171823Y0311257D01*
X0173379Y0312813D01*
X0176913Y0309279D01*
G37*
G36*
X0179140Y0311506D02*
X0177584Y0309950D01*
X0174050Y0313484D01*
X0175606Y0315040D01*
X0179140Y0311506D01*
G37*
G36*
X0203040Y0287606D02*
X0201484Y0286050D01*
X0197950Y0289584D01*
X0199506Y0291140D01*
X0203040Y0287606D01*
G37*
G36*
X0200813Y0285379D02*
X0199257Y0283823D01*
X0195723Y0287357D01*
X0197279Y0288913D01*
X0200813Y0285379D01*
G37*
G36*
X0198586Y0283152D02*
X0197030Y0281596D01*
X0193496Y0285130D01*
X0195052Y0286686D01*
X0198586Y0283152D01*
G37*
G36*
X0196359Y0280924D02*
X0194803Y0279368D01*
X0191269Y0282902D01*
X0192825Y0284458D01*
X0196359Y0280924D01*
G37*
G36*
X0194132Y0278697D02*
X0192576Y0277141D01*
X0189042Y0280675D01*
X0190598Y0282231D01*
X0194132Y0278697D01*
G37*
G36*
X0191904Y0276470D02*
X0190348Y0274914D01*
X0186814Y0278448D01*
X0188370Y0280004D01*
X0191904Y0276470D01*
G37*
G36*
X0189677Y0274243D02*
X0188121Y0272687D01*
X0184587Y0276221D01*
X0186143Y0277777D01*
X0189677Y0274243D01*
G37*
G36*
X0187450Y0272016D02*
X0185894Y0270460D01*
X0182360Y0273994D01*
X0183916Y0275550D01*
X0187450Y0272016D01*
G37*
G36*
X0179140Y0209506D02*
X0177584Y0207950D01*
X0174050Y0211484D01*
X0175606Y0213040D01*
X0179140Y0209506D01*
G37*
G36*
X0176913Y0207279D02*
X0175357Y0205723D01*
X0171823Y0209257D01*
X0173379Y0210813D01*
X0176913Y0207279D01*
G37*
G36*
X0174686Y0205052D02*
X0173130Y0203496D01*
X0169596Y0207030D01*
X0171152Y0208586D01*
X0174686Y0205052D01*
G37*
G36*
X0172458Y0202825D02*
X0170902Y0201269D01*
X0167368Y0204803D01*
X0168924Y0206359D01*
X0172458Y0202825D01*
G37*
G36*
X0170231Y0200598D02*
X0168675Y0199042D01*
X0165141Y0202576D01*
X0166697Y0204132D01*
X0170231Y0200598D01*
G37*
G36*
X0168004Y0198370D02*
X0166448Y0196814D01*
X0162914Y0200348D01*
X0164470Y0201904D01*
X0168004Y0198370D01*
G37*
G36*
X0165777Y0196143D02*
X0164221Y0194587D01*
X0160687Y0198121D01*
X0162243Y0199677D01*
X0165777Y0196143D01*
G37*
G36*
X0163550Y0193916D02*
X0161994Y0192360D01*
X0158460Y0195894D01*
X0160016Y0197450D01*
X0163550Y0193916D01*
G37*
G36*
X0189677Y0172243D02*
X0188121Y0170687D01*
X0184587Y0174221D01*
X0186143Y0175777D01*
X0189677Y0172243D01*
G37*
G36*
X0191904Y0174470D02*
X0190348Y0172914D01*
X0186814Y0176448D01*
X0188370Y0178004D01*
X0191904Y0174470D01*
G37*
G36*
X0194132Y0176697D02*
X0192576Y0175141D01*
X0189042Y0178675D01*
X0190598Y0180231D01*
X0194132Y0176697D01*
G37*
G36*
X0196359Y0178924D02*
X0194803Y0177368D01*
X0191269Y0180902D01*
X0192825Y0182458D01*
X0196359Y0178924D01*
G37*
G36*
X0198586Y0181152D02*
X0197030Y0179596D01*
X0193496Y0183130D01*
X0195052Y0184686D01*
X0198586Y0181152D01*
G37*
G36*
X0200813Y0183379D02*
X0199257Y0181823D01*
X0195723Y0185357D01*
X0197279Y0186913D01*
X0200813Y0183379D01*
G37*
G36*
X0203040Y0185606D02*
X0201484Y0184050D01*
X0197950Y0187584D01*
X0199506Y0189140D01*
X0203040Y0185606D01*
G37*
G36*
X0187450Y0170016D02*
X0185894Y0168460D01*
X0182360Y0171994D01*
X0183916Y0173550D01*
X0187450Y0170016D01*
G37*
G36*
X0179140Y0107506D02*
X0177584Y0105950D01*
X0174050Y0109484D01*
X0175606Y0111040D01*
X0179140Y0107506D01*
G37*
G36*
X0176913Y0105279D02*
X0175357Y0103723D01*
X0171823Y0107257D01*
X0173379Y0108813D01*
X0176913Y0105279D01*
G37*
G36*
X0174686Y0103052D02*
X0173130Y0101496D01*
X0169596Y0105030D01*
X0171152Y0106586D01*
X0174686Y0103052D01*
G37*
G36*
X0172458Y0100825D02*
X0170902Y0099269D01*
X0167368Y0102803D01*
X0168924Y0104359D01*
X0172458Y0100825D01*
G37*
G36*
X0170231Y0098598D02*
X0168675Y0097042D01*
X0165141Y0100576D01*
X0166697Y0102132D01*
X0170231Y0098598D01*
G37*
G36*
X0168004Y0096370D02*
X0166448Y0094814D01*
X0162914Y0098348D01*
X0164470Y0099904D01*
X0168004Y0096370D01*
G37*
G36*
X0165777Y0094143D02*
X0164221Y0092587D01*
X0160687Y0096121D01*
X0162243Y0097677D01*
X0165777Y0094143D01*
G37*
G36*
X0163550Y0091916D02*
X0161994Y0090360D01*
X0158460Y0093894D01*
X0160016Y0095450D01*
X0163550Y0091916D01*
G37*
G36*
X0187450Y0068016D02*
X0185894Y0066460D01*
X0182360Y0069994D01*
X0183916Y0071550D01*
X0187450Y0068016D01*
G37*
G36*
X0189677Y0070243D02*
X0188121Y0068687D01*
X0184587Y0072221D01*
X0186143Y0073777D01*
X0189677Y0070243D01*
G37*
G36*
X0191904Y0072470D02*
X0190348Y0070914D01*
X0186814Y0074448D01*
X0188370Y0076004D01*
X0191904Y0072470D01*
G37*
G36*
X0194132Y0074697D02*
X0192576Y0073141D01*
X0189042Y0076675D01*
X0190598Y0078231D01*
X0194132Y0074697D01*
G37*
G36*
X0196359Y0076924D02*
X0194803Y0075368D01*
X0191269Y0078902D01*
X0192825Y0080458D01*
X0196359Y0076924D01*
G37*
G36*
X0198586Y0079152D02*
X0197030Y0077596D01*
X0193496Y0081130D01*
X0195052Y0082686D01*
X0198586Y0079152D01*
G37*
G36*
X0200813Y0081379D02*
X0199257Y0079823D01*
X0195723Y0083357D01*
X0197279Y0084913D01*
X0200813Y0081379D01*
G37*
G36*
X0203040Y0083606D02*
X0201484Y0082050D01*
X0197950Y0085584D01*
X0199506Y0087140D01*
X0203040Y0083606D01*
G37*
G36*
X0265550Y0091916D02*
X0263994Y0090360D01*
X0260460Y0093894D01*
X0262016Y0095450D01*
X0265550Y0091916D01*
G37*
G36*
X0267777Y0094143D02*
X0266221Y0092587D01*
X0262687Y0096121D01*
X0264243Y0097677D01*
X0267777Y0094143D01*
G37*
G36*
X0270004Y0096370D02*
X0268448Y0094814D01*
X0264914Y0098348D01*
X0266470Y0099904D01*
X0270004Y0096370D01*
G37*
G36*
X0272231Y0098598D02*
X0270675Y0097042D01*
X0267141Y0100576D01*
X0268697Y0102132D01*
X0272231Y0098598D01*
G37*
G36*
X0274458Y0100825D02*
X0272902Y0099269D01*
X0269368Y0102803D01*
X0270924Y0104359D01*
X0274458Y0100825D01*
G37*
G36*
X0276686Y0103052D02*
X0275130Y0101496D01*
X0271596Y0105030D01*
X0273152Y0106586D01*
X0276686Y0103052D01*
G37*
G36*
X0278913Y0105279D02*
X0277357Y0103723D01*
X0273823Y0107257D01*
X0275379Y0108813D01*
X0278913Y0105279D01*
G37*
G36*
X0281140Y0107506D02*
X0279584Y0105950D01*
X0276050Y0109484D01*
X0277606Y0111040D01*
X0281140Y0107506D01*
G37*
G36*
X0305040Y0083606D02*
X0303484Y0082050D01*
X0299950Y0085584D01*
X0301506Y0087140D01*
X0305040Y0083606D01*
G37*
G36*
X0302813Y0081379D02*
X0301257Y0079823D01*
X0297723Y0083357D01*
X0299279Y0084913D01*
X0302813Y0081379D01*
G37*
G36*
X0300586Y0079152D02*
X0299030Y0077596D01*
X0295496Y0081130D01*
X0297052Y0082686D01*
X0300586Y0079152D01*
G37*
G36*
X0298359Y0076924D02*
X0296803Y0075368D01*
X0293269Y0078902D01*
X0294825Y0080458D01*
X0298359Y0076924D01*
G37*
G36*
X0296132Y0074697D02*
X0294576Y0073141D01*
X0291042Y0076675D01*
X0292598Y0078231D01*
X0296132Y0074697D01*
G37*
G36*
X0293904Y0072470D02*
X0292348Y0070914D01*
X0288814Y0074448D01*
X0290370Y0076004D01*
X0293904Y0072470D01*
G37*
G36*
X0291677Y0070243D02*
X0290121Y0068687D01*
X0286587Y0072221D01*
X0288143Y0073777D01*
X0291677Y0070243D01*
G37*
G36*
X0289450Y0068016D02*
X0287894Y0066460D01*
X0284360Y0069994D01*
X0285916Y0071550D01*
X0289450Y0068016D01*
G37*
G36*
X0289450Y0170016D02*
X0287894Y0168460D01*
X0284360Y0171994D01*
X0285916Y0173550D01*
X0289450Y0170016D01*
G37*
G36*
X0291677Y0172243D02*
X0290121Y0170687D01*
X0286587Y0174221D01*
X0288143Y0175777D01*
X0291677Y0172243D01*
G37*
G36*
X0293904Y0174470D02*
X0292348Y0172914D01*
X0288814Y0176448D01*
X0290370Y0178004D01*
X0293904Y0174470D01*
G37*
G36*
X0296132Y0176697D02*
X0294576Y0175141D01*
X0291042Y0178675D01*
X0292598Y0180231D01*
X0296132Y0176697D01*
G37*
G36*
X0298359Y0178924D02*
X0296803Y0177368D01*
X0293269Y0180902D01*
X0294825Y0182458D01*
X0298359Y0178924D01*
G37*
G36*
X0300586Y0181152D02*
X0299030Y0179596D01*
X0295496Y0183130D01*
X0297052Y0184686D01*
X0300586Y0181152D01*
G37*
G36*
X0302813Y0183379D02*
X0301257Y0181823D01*
X0297723Y0185357D01*
X0299279Y0186913D01*
X0302813Y0183379D01*
G37*
G36*
X0305040Y0185606D02*
X0303484Y0184050D01*
X0299950Y0187584D01*
X0301506Y0189140D01*
X0305040Y0185606D01*
G37*
G36*
X0281140Y0209506D02*
X0279584Y0207950D01*
X0276050Y0211484D01*
X0277606Y0213040D01*
X0281140Y0209506D01*
G37*
G36*
X0278913Y0207279D02*
X0277357Y0205723D01*
X0273823Y0209257D01*
X0275379Y0210813D01*
X0278913Y0207279D01*
G37*
G36*
X0276686Y0205052D02*
X0275130Y0203496D01*
X0271596Y0207030D01*
X0273152Y0208586D01*
X0276686Y0205052D01*
G37*
G36*
X0274458Y0202825D02*
X0272902Y0201269D01*
X0269368Y0204803D01*
X0270924Y0206359D01*
X0274458Y0202825D01*
G37*
G36*
X0272231Y0200598D02*
X0270675Y0199042D01*
X0267141Y0202576D01*
X0268697Y0204132D01*
X0272231Y0200598D01*
G37*
G36*
X0270004Y0198370D02*
X0268448Y0196814D01*
X0264914Y0200348D01*
X0266470Y0201904D01*
X0270004Y0198370D01*
G37*
G36*
X0267777Y0196143D02*
X0266221Y0194587D01*
X0262687Y0198121D01*
X0264243Y0199677D01*
X0267777Y0196143D01*
G37*
G36*
X0265550Y0193916D02*
X0263994Y0192360D01*
X0260460Y0195894D01*
X0262016Y0197450D01*
X0265550Y0193916D01*
G37*
G36*
X0289450Y0272016D02*
X0287894Y0270460D01*
X0284360Y0273994D01*
X0285916Y0275550D01*
X0289450Y0272016D01*
G37*
G36*
X0291677Y0274243D02*
X0290121Y0272687D01*
X0286587Y0276221D01*
X0288143Y0277777D01*
X0291677Y0274243D01*
G37*
G36*
X0293904Y0276470D02*
X0292348Y0274914D01*
X0288814Y0278448D01*
X0290370Y0280004D01*
X0293904Y0276470D01*
G37*
G36*
X0296132Y0278697D02*
X0294576Y0277141D01*
X0291042Y0280675D01*
X0292598Y0282231D01*
X0296132Y0278697D01*
G37*
G36*
X0298359Y0280924D02*
X0296803Y0279368D01*
X0293269Y0282902D01*
X0294825Y0284458D01*
X0298359Y0280924D01*
G37*
G36*
X0300586Y0283152D02*
X0299030Y0281596D01*
X0295496Y0285130D01*
X0297052Y0286686D01*
X0300586Y0283152D01*
G37*
G36*
X0302813Y0285379D02*
X0301257Y0283823D01*
X0297723Y0287357D01*
X0299279Y0288913D01*
X0302813Y0285379D01*
G37*
G36*
X0305040Y0287606D02*
X0303484Y0286050D01*
X0299950Y0289584D01*
X0301506Y0291140D01*
X0305040Y0287606D01*
G37*
G36*
X0281140Y0311506D02*
X0279584Y0309950D01*
X0276050Y0313484D01*
X0277606Y0315040D01*
X0281140Y0311506D01*
G37*
G36*
X0278913Y0309279D02*
X0277357Y0307723D01*
X0273823Y0311257D01*
X0275379Y0312813D01*
X0278913Y0309279D01*
G37*
G36*
X0276686Y0307052D02*
X0275130Y0305496D01*
X0271596Y0309030D01*
X0273152Y0310586D01*
X0276686Y0307052D01*
G37*
G36*
X0274458Y0304825D02*
X0272902Y0303269D01*
X0269368Y0306803D01*
X0270924Y0308359D01*
X0274458Y0304825D01*
G37*
G36*
X0272231Y0302598D02*
X0270675Y0301042D01*
X0267141Y0304576D01*
X0268697Y0306132D01*
X0272231Y0302598D01*
G37*
G36*
X0270004Y0300370D02*
X0268448Y0298814D01*
X0264914Y0302348D01*
X0266470Y0303904D01*
X0270004Y0300370D01*
G37*
G36*
X0267777Y0298143D02*
X0266221Y0296587D01*
X0262687Y0300121D01*
X0264243Y0301677D01*
X0267777Y0298143D01*
G37*
G36*
X0265550Y0295916D02*
X0263994Y0294360D01*
X0260460Y0297894D01*
X0262016Y0299450D01*
X0265550Y0295916D01*
G37*
G36*
X0101040Y0185606D02*
X0099484Y0184050D01*
X0095950Y0187584D01*
X0097506Y0189140D01*
X0101040Y0185606D01*
G37*
G36*
X0098813Y0183379D02*
X0097257Y0181823D01*
X0093723Y0185357D01*
X0095279Y0186913D01*
X0098813Y0183379D01*
G37*
G36*
X0096586Y0181152D02*
X0095030Y0179596D01*
X0091496Y0183130D01*
X0093052Y0184686D01*
X0096586Y0181152D01*
G37*
G36*
X0094359Y0178924D02*
X0092803Y0177368D01*
X0089269Y0180902D01*
X0090825Y0182458D01*
X0094359Y0178924D01*
G37*
G36*
X0092132Y0176697D02*
X0090576Y0175141D01*
X0087042Y0178675D01*
X0088598Y0180231D01*
X0092132Y0176697D01*
G37*
G36*
X0089904Y0174470D02*
X0088348Y0172914D01*
X0084814Y0176448D01*
X0086370Y0178004D01*
X0089904Y0174470D01*
G37*
G36*
X0087677Y0172243D02*
X0086121Y0170687D01*
X0082587Y0174221D01*
X0084143Y0175777D01*
X0087677Y0172243D01*
G37*
G36*
X0085450Y0170016D02*
X0083894Y0168460D01*
X0080360Y0171994D01*
X0081916Y0173550D01*
X0085450Y0170016D01*
G37*
G36*
X0061550Y0193916D02*
X0059994Y0192360D01*
X0056460Y0195894D01*
X0058016Y0197450D01*
X0061550Y0193916D01*
G37*
G36*
X0063777Y0196143D02*
X0062221Y0194587D01*
X0058687Y0198121D01*
X0060243Y0199677D01*
X0063777Y0196143D01*
G37*
G36*
X0066004Y0198370D02*
X0064448Y0196814D01*
X0060914Y0200348D01*
X0062470Y0201904D01*
X0066004Y0198370D01*
G37*
G36*
X0068231Y0200598D02*
X0066675Y0199042D01*
X0063141Y0202576D01*
X0064697Y0204132D01*
X0068231Y0200598D01*
G37*
G36*
X0070458Y0202825D02*
X0068902Y0201269D01*
X0065368Y0204803D01*
X0066924Y0206359D01*
X0070458Y0202825D01*
G37*
G36*
X0072686Y0205052D02*
X0071130Y0203496D01*
X0067596Y0207030D01*
X0069152Y0208586D01*
X0072686Y0205052D01*
G37*
G36*
X0074913Y0207279D02*
X0073357Y0205723D01*
X0069823Y0209257D01*
X0071379Y0210813D01*
X0074913Y0207279D01*
G37*
G36*
X0077140Y0209506D02*
X0075584Y0207950D01*
X0072050Y0211484D01*
X0073606Y0213040D01*
X0077140Y0209506D01*
G37*
G36*
X0077140Y0107506D02*
X0075584Y0105950D01*
X0072050Y0109484D01*
X0073606Y0111040D01*
X0077140Y0107506D01*
G37*
G36*
X0074913Y0105279D02*
X0073357Y0103723D01*
X0069823Y0107257D01*
X0071379Y0108813D01*
X0074913Y0105279D01*
G37*
G36*
X0072686Y0103052D02*
X0071130Y0101496D01*
X0067596Y0105030D01*
X0069152Y0106586D01*
X0072686Y0103052D01*
G37*
G36*
X0070458Y0100825D02*
X0068902Y0099269D01*
X0065368Y0102803D01*
X0066924Y0104359D01*
X0070458Y0100825D01*
G37*
G36*
X0068231Y0098598D02*
X0066675Y0097042D01*
X0063141Y0100576D01*
X0064697Y0102132D01*
X0068231Y0098598D01*
G37*
G36*
X0066004Y0096370D02*
X0064448Y0094814D01*
X0060914Y0098348D01*
X0062470Y0099904D01*
X0066004Y0096370D01*
G37*
G36*
X0063777Y0094143D02*
X0062221Y0092587D01*
X0058687Y0096121D01*
X0060243Y0097677D01*
X0063777Y0094143D01*
G37*
G36*
X0061550Y0091916D02*
X0059994Y0090360D01*
X0056460Y0093894D01*
X0058016Y0095450D01*
X0061550Y0091916D01*
G37*
G36*
X0085450Y0068016D02*
X0083894Y0066460D01*
X0080360Y0069994D01*
X0081916Y0071550D01*
X0085450Y0068016D01*
G37*
G36*
X0087677Y0070243D02*
X0086121Y0068687D01*
X0082587Y0072221D01*
X0084143Y0073777D01*
X0087677Y0070243D01*
G37*
G36*
X0089904Y0072470D02*
X0088348Y0070914D01*
X0084814Y0074448D01*
X0086370Y0076004D01*
X0089904Y0072470D01*
G37*
G36*
X0092132Y0074697D02*
X0090576Y0073141D01*
X0087042Y0076675D01*
X0088598Y0078231D01*
X0092132Y0074697D01*
G37*
G36*
X0094359Y0076924D02*
X0092803Y0075368D01*
X0089269Y0078902D01*
X0090825Y0080458D01*
X0094359Y0076924D01*
G37*
G36*
X0096586Y0079152D02*
X0095030Y0077596D01*
X0091496Y0081130D01*
X0093052Y0082686D01*
X0096586Y0079152D01*
G37*
G36*
X0098813Y0081379D02*
X0097257Y0079823D01*
X0093723Y0083357D01*
X0095279Y0084913D01*
X0098813Y0081379D01*
G37*
G36*
X0101040Y0083606D02*
X0099484Y0082050D01*
X0095950Y0085584D01*
X0097506Y0087140D01*
X0101040Y0083606D01*
G37*
D20*
X0069116Y0062434D02*
X0065066Y0058384D01*
X0061725Y0061725D02*
X0065775Y0065775D01*
X0062434Y0069116D02*
X0058384Y0065066D01*
X0160384Y0065066D02*
X0164434Y0069116D01*
X0167775Y0065775D02*
X0163725Y0061725D01*
X0167066Y0058384D02*
X0171116Y0062434D01*
X0262384Y0065066D02*
X0266434Y0069116D01*
X0269775Y0065775D02*
X0265725Y0061725D01*
X0269066Y0058384D02*
X0273116Y0062434D01*
X0269066Y0160384D02*
X0273116Y0164434D01*
X0269775Y0167775D02*
X0265725Y0163725D01*
X0262384Y0167066D02*
X0266434Y0171116D01*
X0171116Y0164434D02*
X0167066Y0160384D01*
X0163725Y0163725D02*
X0167775Y0167775D01*
X0164434Y0171116D02*
X0160384Y0167066D01*
X0069116Y0164434D02*
X0065066Y0160384D01*
X0061725Y0163725D02*
X0065775Y0167775D01*
X0062434Y0171116D02*
X0058384Y0167066D01*
X0065066Y0262384D02*
X0069116Y0266434D01*
X0065775Y0269775D02*
X0061725Y0265725D01*
X0058384Y0269066D02*
X0062434Y0273116D01*
X0160384Y0269066D02*
X0164434Y0273116D01*
X0167775Y0269775D02*
X0163725Y0265725D01*
X0167066Y0262384D02*
X0171116Y0266434D01*
X0262384Y0269066D02*
X0266434Y0273116D01*
X0269775Y0269775D02*
X0265725Y0265725D01*
X0269066Y0262384D02*
X0273116Y0266434D01*
M02*
