%
M48
M72
T01C0.0120
T02C0.0200
T03C0.0400
T04C0.1300
%
T01
X6025Y5825
X6525Y5375
X7475Y4925
X9725Y4875
X9725Y6875
X9725Y7275
X9725Y7675
X9175Y8675
X9475Y8975
X9125Y9275
X8575Y8575
X7725Y9125
X7275Y8875
X6625Y8675
X6325Y8875
X6925Y9625
X7425Y9575
X7425Y10025
X6625Y10925
X6175Y10775
X7875Y11175
X10175Y9175
X11825Y10125
X13375Y10825
X14225Y9325
X13925Y8075
X13925Y7675
X13925Y7275
X11875Y7375
X11875Y7875
X16075Y7375
X16825Y8675
X16525Y8875
X17475Y8875
X17925Y9125
X17625Y9575
X17625Y10025
X17125Y9625
X16375Y10775
X16825Y10925
X18075Y11175
X19325Y9275
X19675Y8975
X19375Y8675
X18775Y8575
X19925Y7675
X19925Y7275
X19925Y6875
X19925Y4875
X17675Y4925
X16725Y5375
X16225Y5825
X20375Y9175
X22025Y10125
X23575Y10825
X24425Y9325
X24125Y8075
X24125Y7675
X24125Y7275
X22075Y7375
X22075Y7875
X26275Y7375
X27025Y8675
X26725Y8875
X27675Y8875
X28125Y9125
X27825Y9575
X27325Y9625
X27825Y10025
X27025Y10925
X26575Y10775
X28275Y11175
X29525Y9275
X29875Y8975
X29575Y8675
X28975Y8575
X30125Y7675
X30125Y7275
X30125Y6875
X30125Y4875
X27875Y4925
X26925Y5375
X26425Y5825
X30575Y9175
X32225Y10125
X32275Y7875
X32275Y7375
X30125Y15075
X30125Y17075
X30125Y17475
X30125Y17875
X29575Y18875
X29875Y19175
X29525Y19475
X28975Y18775
X28125Y19325
X27675Y19075
X27025Y18875
X26725Y19075
X27325Y19825
X27825Y19775
X27825Y20225
X27025Y21125
X26575Y20975
X28275Y21375
X30575Y19375
X32225Y20325
X32275Y18075
X32275Y17575
X27875Y15125
X26925Y15575
X26425Y16025
X26275Y17575
X24125Y17475
X24125Y17875
X24125Y18275
X24425Y19525
X23575Y21025
X22025Y20325
X20375Y19375
X19675Y19175
X19375Y18875
X19325Y19475
X18775Y18775
X17925Y19325
X17475Y19075
X16825Y18875
X16525Y19075
X17125Y19825
X17625Y19775
X17625Y20225
X16825Y21125
X16375Y20975
X18075Y21375
X19925Y17875
X19925Y17475
X19925Y17075
X19925Y15075
X17675Y15125
X16725Y15575
X16225Y16025
X16075Y17575
X13925Y17475
X13925Y17875
X13925Y18275
X14225Y19525
X13375Y21025
X11825Y20325
X10175Y19375
X9475Y19175
X9175Y18875
X9125Y19475
X8575Y18775
X7725Y19325
X7275Y19075
X6625Y18875
X6325Y19075
X6925Y19825
X7425Y19775
X7425Y20225
X6625Y21125
X6175Y20975
X7875Y21375
X4025Y19525
X3725Y18275
X3725Y17875
X3725Y17475
X5875Y17575
X6025Y16025
X6525Y15575
X7475Y15125
X9725Y15075
X9725Y17075
X9725Y17475
X9725Y17875
X11875Y18075
X11875Y17575
X3175Y21025
X7475Y25325
X6525Y25775
X6025Y26225
X5875Y27775
X6625Y29075
X6325Y29275
X6925Y30025
X7425Y29975
X7425Y30425
X7725Y29525
X7275Y29275
X8575Y28975
X9175Y29075
X9475Y29375
X9125Y29675
X10175Y29575
X9725Y28075
X9725Y27675
X9725Y27275
X11875Y27775
X11875Y28275
X13925Y28075
X13925Y27675
X13925Y28475
X14225Y29725
X13375Y31225
X11825Y30525
X7875Y31575
X6625Y31325
X6175Y31175
X4025Y29725
X3725Y28475
X3725Y28075
X3725Y27675
X3175Y31225
X9725Y25275
X16225Y26225
X16725Y25775
X17675Y25325
X19925Y25275
X19925Y27275
X19925Y27675
X19925Y28075
X19375Y29075
X19675Y29375
X19325Y29675
X18775Y28975
X17925Y29525
X17475Y29275
X16825Y29075
X16525Y29275
X17125Y30025
X17625Y29975
X17625Y30425
X16825Y31325
X16375Y31175
X18075Y31575
X20375Y29575
X22025Y30525
X23575Y31225
X24425Y29725
X24125Y28475
X24125Y28075
X24125Y27675
X22075Y27775
X22075Y28275
X26275Y27775
X27025Y29075
X26725Y29275
X27675Y29275
X28125Y29525
X27825Y29975
X27825Y30425
X27325Y30025
X26575Y31175
X27025Y31325
X28275Y31575
X29525Y29675
X29875Y29375
X29575Y29075
X28975Y28975
X30125Y28075
X30125Y27675
X30125Y27275
X30125Y25275
X27875Y25325
X26925Y25775
X26425Y26225
X30575Y29575
X32225Y30525
X32275Y28275
X32275Y27775
X22075Y18075
X22075Y17575
X16075Y27775
X3175Y10825
X4025Y9325
X3725Y8075
X3725Y7675
X3725Y7275
X5875Y7375
T02
X3875Y5625
X6875Y4375
X6875Y3375
X7875Y3375
X7875Y4375
X8875Y4375
X8875Y3375
X14075Y5625
X17075Y4375
X17075Y3375
X18075Y3375
X18075Y4375
X19075Y4375
X19075Y3375
X24275Y5625
X27275Y4375
X27275Y3375
X28275Y3375
X28275Y4375
X29275Y4375
X29275Y3375
X29275Y13575
X28275Y13575
X28275Y14575
X29275Y14575
X27275Y14575
X27275Y13575
X24275Y15825
X19075Y14575
X18075Y14575
X18075Y13575
X19075Y13575
X17075Y13575
X17075Y14575
X14075Y15825
X8875Y14575
X8875Y13575
X7875Y13575
X6875Y13575
X6875Y14575
X7875Y14575
X3875Y15825
X6875Y23775
X6875Y24775
X7875Y24775
X7875Y23775
X8875Y23775
X8875Y24775
X14075Y26025
X17075Y24775
X17075Y23775
X18075Y23775
X18075Y24775
X19075Y24775
X19075Y23775
X24275Y26025
X27275Y24775
X27275Y23775
X28275Y23775
X28275Y24775
X29275Y24775
X29275Y23775
X3875Y26025
T03
X5375Y3875
X6375Y3875
X7375Y3875
X8375Y3875
X9375Y3875
X10375Y3875
X15575Y3875
X16575Y3875
X17575Y3875
X18575Y3875
X19575Y3875
X20575Y3875
X25775Y3875
X26775Y3875
X27775Y3875
X28775Y3875
X29775Y3875
X30775Y3875
X29775Y12375
X28775Y12375
X27775Y12375
X26775Y12375
X26775Y14075
X25775Y14075
X27775Y14075
X28775Y14075
X29775Y14075
X30775Y14075
X29775Y22575
X28775Y22575
X27775Y22575
X26775Y22575
X26775Y24275
X25775Y24275
X27775Y24275
X28775Y24275
X29775Y24275
X30775Y24275
X29775Y32775
X28775Y32775
X27775Y32775
X26775Y32775
X19575Y32775
X18575Y32775
X17575Y32775
X16575Y32775
X9375Y32775
X8375Y32775
X7375Y32775
X6375Y32775
X6375Y24275
X5375Y24275
X6375Y22575
X7375Y22575
X8375Y22575
X9375Y22575
X9375Y24275
X8375Y24275
X7375Y24275
X10375Y24275
X15575Y24275
X16575Y24275
X17575Y24275
X18575Y24275
X19575Y24275
X20575Y24275
X19575Y22575
X18575Y22575
X17575Y22575
X16575Y22575
X16575Y14075
X15575Y14075
X17575Y14075
X18575Y14075
X19575Y14075
X20575Y14075
X19575Y12375
X18575Y12375
X17575Y12375
X16575Y12375
X10375Y14075
X9375Y14075
X8375Y14075
X7375Y14075
X6375Y14075
X5375Y14075
X6375Y12375
X7375Y12375
X8375Y12375
X9375Y12375
T04
X11875Y11875
X14075Y11875
X22075Y11875
X24275Y11875
X32275Y11875
X32275Y22075
X24275Y22075
X22075Y22075
X14075Y22075
X11875Y22075
X3875Y22075
X3875Y32275
X11875Y32275
X14075Y32275
X22075Y32275
X24275Y32275
X32275Y32275
X3875Y11875
M30
