G75*
%MOIN*%
%OFA0B0*%
%FSLAX25Y25*%
%IPPOS*%
%LPD*%
%AMOC8*
5,1,8,0,0,1.08239X$1,22.5*
%
%ADD10R,0.11811X0.03937*%
D10*
X0127828Y0056191D03*
X0127828Y0064065D03*
X0127828Y0071939D03*
X0127828Y0079813D03*
X0127828Y0087687D03*
X0127828Y0095561D03*
X0127828Y0103435D03*
X0127828Y0111309D03*
X0127828Y0158191D03*
X0127828Y0166065D03*
X0127828Y0173939D03*
X0127828Y0181813D03*
X0127828Y0189687D03*
X0127828Y0197561D03*
X0127828Y0205435D03*
X0127828Y0213309D03*
X0127828Y0260191D03*
X0127828Y0268065D03*
X0127828Y0275939D03*
X0127828Y0283813D03*
X0127828Y0291687D03*
X0127828Y0299561D03*
X0127828Y0307435D03*
X0127828Y0315309D03*
X0186883Y0315309D03*
X0186883Y0307435D03*
X0186883Y0299561D03*
X0186883Y0291687D03*
X0186883Y0283813D03*
X0186883Y0275939D03*
X0186883Y0268065D03*
X0186883Y0260191D03*
X0229828Y0260191D03*
X0229828Y0268065D03*
X0229828Y0275939D03*
X0229828Y0283813D03*
X0229828Y0291687D03*
X0229828Y0299561D03*
X0229828Y0307435D03*
X0229828Y0315309D03*
X0288883Y0315309D03*
X0288883Y0307435D03*
X0288883Y0299561D03*
X0288883Y0291687D03*
X0288883Y0283813D03*
X0288883Y0275939D03*
X0288883Y0268065D03*
X0288883Y0260191D03*
X0331828Y0260191D03*
X0331828Y0268065D03*
X0331828Y0275939D03*
X0331828Y0283813D03*
X0331828Y0291687D03*
X0331828Y0299561D03*
X0331828Y0307435D03*
X0331828Y0315309D03*
X0390883Y0315309D03*
X0390883Y0307435D03*
X0390883Y0299561D03*
X0390883Y0291687D03*
X0390883Y0283813D03*
X0390883Y0275939D03*
X0390883Y0268065D03*
X0390883Y0260191D03*
X0390883Y0213309D03*
X0390883Y0205435D03*
X0390883Y0197561D03*
X0390883Y0189687D03*
X0390883Y0181813D03*
X0390883Y0173939D03*
X0390883Y0166065D03*
X0390883Y0158191D03*
X0390883Y0111309D03*
X0390883Y0103435D03*
X0390883Y0095561D03*
X0390883Y0087687D03*
X0390883Y0079813D03*
X0390883Y0071939D03*
X0390883Y0064065D03*
X0390883Y0056191D03*
X0331828Y0056191D03*
X0331828Y0064065D03*
X0331828Y0071939D03*
X0331828Y0079813D03*
X0331828Y0087687D03*
X0331828Y0095561D03*
X0331828Y0103435D03*
X0331828Y0111309D03*
X0288883Y0111309D03*
X0288883Y0103435D03*
X0288883Y0095561D03*
X0288883Y0087687D03*
X0288883Y0079813D03*
X0288883Y0071939D03*
X0288883Y0064065D03*
X0288883Y0056191D03*
X0229828Y0056191D03*
X0229828Y0064065D03*
X0229828Y0071939D03*
X0229828Y0079813D03*
X0229828Y0087687D03*
X0229828Y0095561D03*
X0229828Y0103435D03*
X0229828Y0111309D03*
X0186883Y0111309D03*
X0186883Y0103435D03*
X0186883Y0095561D03*
X0186883Y0087687D03*
X0186883Y0079813D03*
X0186883Y0071939D03*
X0186883Y0064065D03*
X0186883Y0056191D03*
X0186883Y0158191D03*
X0186883Y0166065D03*
X0186883Y0173939D03*
X0186883Y0181813D03*
X0186883Y0189687D03*
X0186883Y0197561D03*
X0186883Y0205435D03*
X0186883Y0213309D03*
X0229828Y0213309D03*
X0229828Y0205435D03*
X0229828Y0197561D03*
X0229828Y0189687D03*
X0229828Y0181813D03*
X0229828Y0173939D03*
X0229828Y0166065D03*
X0229828Y0158191D03*
X0288883Y0158191D03*
X0288883Y0166065D03*
X0288883Y0173939D03*
X0288883Y0181813D03*
X0288883Y0189687D03*
X0288883Y0197561D03*
X0288883Y0205435D03*
X0288883Y0213309D03*
X0331828Y0213309D03*
X0331828Y0205435D03*
X0331828Y0197561D03*
X0331828Y0189687D03*
X0331828Y0181813D03*
X0331828Y0173939D03*
X0331828Y0166065D03*
X0331828Y0158191D03*
M02*
