G75*
%MOIN*%
%OFA0B0*%
%FSLAX25Y25*%
%IPPOS*%
%LPD*%
%AMOC8*
5,1,8,0,0,1.08239X$1,22.5*
%
%ADD10C,0.01181*%
%ADD11R,0.07874X0.04724*%
%ADD12R,0.05315X0.02362*%
%ADD13R,0.03346X0.08661*%
%ADD14R,0.03937X0.04134*%
%ADD15R,0.04331X0.03937*%
%ADD16R,0.09055X0.06299*%
%ADD17R,0.03937X0.07874*%
%ADD18R,0.07874X0.07874*%
%ADD19R,0.02200X0.05000*%
%ADD20R,0.05000X0.02200*%
%ADD21C,0.01772*%
%ADD22R,0.03937X0.04331*%
%ADD23R,0.11811X0.03937*%
D10*
X0177925Y0270022D02*
X0177925Y0272778D01*
X0177925Y0270022D02*
X0175169Y0270022D01*
X0175169Y0272778D01*
X0177925Y0272778D01*
X0177925Y0271202D02*
X0175169Y0271202D01*
X0175169Y0272382D02*
X0177925Y0272382D01*
X0184831Y0272778D02*
X0184831Y0270022D01*
X0182075Y0270022D01*
X0182075Y0272778D01*
X0184831Y0272778D01*
X0184831Y0271202D02*
X0182075Y0271202D01*
X0182075Y0272382D02*
X0184831Y0272382D01*
X0184831Y0285022D02*
X0184831Y0287778D01*
X0184831Y0285022D02*
X0182075Y0285022D01*
X0182075Y0287778D01*
X0184831Y0287778D01*
X0184831Y0286202D02*
X0182075Y0286202D01*
X0182075Y0287382D02*
X0184831Y0287382D01*
X0177925Y0287778D02*
X0177925Y0285022D01*
X0175169Y0285022D01*
X0175169Y0287778D01*
X0177925Y0287778D01*
X0177925Y0286202D02*
X0175169Y0286202D01*
X0175169Y0287382D02*
X0177925Y0287382D01*
X0177925Y0430723D02*
X0177925Y0433479D01*
X0177925Y0430723D02*
X0175169Y0430723D01*
X0175169Y0433479D01*
X0177925Y0433479D01*
X0177925Y0431903D02*
X0175169Y0431903D01*
X0175169Y0433083D02*
X0177925Y0433083D01*
X0184831Y0433479D02*
X0184831Y0430723D01*
X0182075Y0430723D01*
X0182075Y0433479D01*
X0184831Y0433479D01*
X0184831Y0431903D02*
X0182075Y0431903D01*
X0182075Y0433083D02*
X0184831Y0433083D01*
X0184831Y0445723D02*
X0184831Y0448479D01*
X0184831Y0445723D02*
X0182075Y0445723D01*
X0182075Y0448479D01*
X0184831Y0448479D01*
X0184831Y0446903D02*
X0182075Y0446903D01*
X0182075Y0448083D02*
X0184831Y0448083D01*
X0177925Y0448479D02*
X0177925Y0445723D01*
X0175169Y0445723D01*
X0175169Y0448479D01*
X0177925Y0448479D01*
X0177925Y0446903D02*
X0175169Y0446903D01*
X0175169Y0448083D02*
X0177925Y0448083D01*
X0379847Y0448479D02*
X0379847Y0445723D01*
X0377091Y0445723D01*
X0377091Y0448479D01*
X0379847Y0448479D01*
X0379847Y0446903D02*
X0377091Y0446903D01*
X0377091Y0448083D02*
X0379847Y0448083D01*
X0386752Y0448479D02*
X0386752Y0445723D01*
X0383996Y0445723D01*
X0383996Y0448479D01*
X0386752Y0448479D01*
X0386752Y0446903D02*
X0383996Y0446903D01*
X0383996Y0448083D02*
X0386752Y0448083D01*
X0386752Y0433479D02*
X0386752Y0430723D01*
X0383996Y0430723D01*
X0383996Y0433479D01*
X0386752Y0433479D01*
X0386752Y0431903D02*
X0383996Y0431903D01*
X0383996Y0433083D02*
X0386752Y0433083D01*
X0379847Y0433479D02*
X0379847Y0430723D01*
X0377091Y0430723D01*
X0377091Y0433479D01*
X0379847Y0433479D01*
X0379847Y0431903D02*
X0377091Y0431903D01*
X0377091Y0433083D02*
X0379847Y0433083D01*
X0379847Y0287778D02*
X0379847Y0285022D01*
X0377091Y0285022D01*
X0377091Y0287778D01*
X0379847Y0287778D01*
X0379847Y0286202D02*
X0377091Y0286202D01*
X0377091Y0287382D02*
X0379847Y0287382D01*
X0386752Y0287778D02*
X0386752Y0285022D01*
X0383996Y0285022D01*
X0383996Y0287778D01*
X0386752Y0287778D01*
X0386752Y0286202D02*
X0383996Y0286202D01*
X0383996Y0287382D02*
X0386752Y0287382D01*
X0386752Y0272778D02*
X0386752Y0270022D01*
X0383996Y0270022D01*
X0383996Y0272778D01*
X0386752Y0272778D01*
X0386752Y0271202D02*
X0383996Y0271202D01*
X0383996Y0272382D02*
X0386752Y0272382D01*
X0379847Y0272778D02*
X0379847Y0270022D01*
X0377091Y0270022D01*
X0377091Y0272778D01*
X0379847Y0272778D01*
X0379847Y0271202D02*
X0377091Y0271202D01*
X0377091Y0272382D02*
X0379847Y0272382D01*
D11*
X0426390Y0282424D03*
X0426390Y0290376D03*
X0426390Y0312424D03*
X0426390Y0260376D03*
X0426390Y0421077D03*
X0426390Y0443124D03*
X0426390Y0451077D03*
X0426390Y0473124D03*
X0224469Y0473124D03*
X0224469Y0451077D03*
X0224469Y0443124D03*
X0224469Y0421077D03*
X0224469Y0312424D03*
X0224469Y0290376D03*
X0224469Y0282424D03*
X0224469Y0260376D03*
D12*
X0210000Y0265494D03*
X0210000Y0269431D03*
X0210000Y0273369D03*
X0210000Y0277306D03*
X0210000Y0295494D03*
X0210000Y0299431D03*
X0210000Y0303369D03*
X0210000Y0307306D03*
X0210000Y0426195D03*
X0210000Y0430132D03*
X0210000Y0434069D03*
X0210000Y0438006D03*
X0210000Y0456195D03*
X0210000Y0460132D03*
X0210000Y0464069D03*
X0210000Y0468006D03*
X0411921Y0468006D03*
X0411921Y0464069D03*
X0411921Y0460132D03*
X0411921Y0456195D03*
X0411921Y0438006D03*
X0411921Y0434069D03*
X0411921Y0430132D03*
X0411921Y0426195D03*
X0411921Y0307306D03*
X0411921Y0303369D03*
X0411921Y0299431D03*
X0411921Y0295494D03*
X0411921Y0277306D03*
X0411921Y0273369D03*
X0411921Y0269431D03*
X0411921Y0265494D03*
D13*
X0246835Y0287400D03*
X0236008Y0287400D03*
X0236008Y0448101D03*
X0246835Y0448101D03*
X0044913Y0448101D03*
X0034087Y0448101D03*
X0034087Y0287400D03*
X0044913Y0287400D03*
D14*
X0039500Y0281396D03*
X0039500Y0293404D03*
X0039500Y0442097D03*
X0039500Y0454105D03*
X0241421Y0454105D03*
X0241421Y0442097D03*
X0241421Y0293404D03*
X0241421Y0281396D03*
D15*
X0241575Y0298900D03*
X0248268Y0298900D03*
X0249768Y0267400D03*
X0243075Y0267400D03*
X0198346Y0296400D03*
X0198346Y0301400D03*
X0191654Y0301400D03*
X0191654Y0296400D03*
X0183346Y0296400D03*
X0183346Y0301400D03*
X0183346Y0306400D03*
X0176654Y0306400D03*
X0176654Y0301400D03*
X0176654Y0296400D03*
X0176654Y0281400D03*
X0183346Y0281400D03*
X0183346Y0266400D03*
X0176654Y0266400D03*
X0047846Y0267400D03*
X0041154Y0267400D03*
X0039654Y0298900D03*
X0046346Y0298900D03*
X0047846Y0428101D03*
X0041154Y0428101D03*
X0039654Y0459601D03*
X0046346Y0459601D03*
X0176654Y0462101D03*
X0176654Y0467101D03*
X0176654Y0457101D03*
X0183346Y0457101D03*
X0183346Y0462101D03*
X0183346Y0467101D03*
X0191654Y0462101D03*
X0191654Y0457101D03*
X0198346Y0457101D03*
X0198346Y0462101D03*
X0183346Y0442101D03*
X0176654Y0442101D03*
X0176654Y0427101D03*
X0183346Y0427101D03*
X0241575Y0459601D03*
X0248268Y0459601D03*
X0249768Y0428101D03*
X0243075Y0428101D03*
X0378575Y0427101D03*
X0385268Y0427101D03*
X0385268Y0442101D03*
X0378575Y0442101D03*
X0378575Y0457101D03*
X0378575Y0462101D03*
X0378575Y0467101D03*
X0385268Y0467101D03*
X0385268Y0462101D03*
X0385268Y0457101D03*
X0393575Y0457101D03*
X0393575Y0462101D03*
X0400268Y0462101D03*
X0400268Y0457101D03*
X0385268Y0306400D03*
X0385268Y0301400D03*
X0385268Y0296400D03*
X0378575Y0296400D03*
X0378575Y0301400D03*
X0378575Y0306400D03*
X0393575Y0301400D03*
X0393575Y0296400D03*
X0400268Y0296400D03*
X0400268Y0301400D03*
X0385268Y0281400D03*
X0378575Y0281400D03*
X0378575Y0266400D03*
X0385268Y0266400D03*
D16*
X0382020Y0245900D03*
X0406823Y0245900D03*
X0406823Y0406601D03*
X0382020Y0406601D03*
X0204902Y0406601D03*
X0180098Y0406601D03*
X0180098Y0245900D03*
X0204902Y0245900D03*
D17*
X0254953Y0319274D03*
X0254953Y0479975D03*
X0053031Y0479975D03*
X0053031Y0319274D03*
D18*
X0078622Y0319274D03*
X0078622Y0479975D03*
X0280543Y0479975D03*
X0280543Y0319274D03*
D19*
X0335898Y0298300D03*
X0339047Y0298300D03*
X0342197Y0298300D03*
X0345346Y0298300D03*
X0348496Y0298300D03*
X0351646Y0298300D03*
X0354795Y0298300D03*
X0357945Y0298300D03*
X0357945Y0264500D03*
X0354795Y0264500D03*
X0351646Y0264500D03*
X0348496Y0264500D03*
X0345346Y0264500D03*
X0342197Y0264500D03*
X0339047Y0264500D03*
X0335898Y0264500D03*
X0335898Y0425201D03*
X0339047Y0425201D03*
X0342197Y0425201D03*
X0345346Y0425201D03*
X0348496Y0425201D03*
X0351646Y0425201D03*
X0354795Y0425201D03*
X0357945Y0425201D03*
X0357945Y0459001D03*
X0354795Y0459001D03*
X0351646Y0459001D03*
X0348496Y0459001D03*
X0345346Y0459001D03*
X0342197Y0459001D03*
X0339047Y0459001D03*
X0335898Y0459001D03*
X0156024Y0459001D03*
X0152874Y0459001D03*
X0149724Y0459001D03*
X0146575Y0459001D03*
X0143425Y0459001D03*
X0140276Y0459001D03*
X0137126Y0459001D03*
X0133976Y0459001D03*
X0133976Y0425201D03*
X0137126Y0425201D03*
X0140276Y0425201D03*
X0143425Y0425201D03*
X0146575Y0425201D03*
X0149724Y0425201D03*
X0152874Y0425201D03*
X0156024Y0425201D03*
X0156024Y0298300D03*
X0152874Y0298300D03*
X0149724Y0298300D03*
X0146575Y0298300D03*
X0143425Y0298300D03*
X0140276Y0298300D03*
X0137126Y0298300D03*
X0133976Y0298300D03*
X0133976Y0264500D03*
X0137126Y0264500D03*
X0140276Y0264500D03*
X0143425Y0264500D03*
X0146575Y0264500D03*
X0149724Y0264500D03*
X0152874Y0264500D03*
X0156024Y0264500D03*
D20*
X0161900Y0270376D03*
X0161900Y0273526D03*
X0161900Y0276676D03*
X0161900Y0279825D03*
X0161900Y0282975D03*
X0161900Y0286124D03*
X0161900Y0289274D03*
X0161900Y0292424D03*
X0128100Y0292424D03*
X0128100Y0289274D03*
X0128100Y0286124D03*
X0128100Y0282975D03*
X0128100Y0279825D03*
X0128100Y0276676D03*
X0128100Y0273526D03*
X0128100Y0270376D03*
X0128100Y0431077D03*
X0128100Y0434227D03*
X0128100Y0437376D03*
X0128100Y0440526D03*
X0128100Y0443676D03*
X0128100Y0446825D03*
X0128100Y0449975D03*
X0128100Y0453124D03*
X0161900Y0453124D03*
X0161900Y0449975D03*
X0161900Y0446825D03*
X0161900Y0443676D03*
X0161900Y0440526D03*
X0161900Y0437376D03*
X0161900Y0434227D03*
X0161900Y0431077D03*
X0330021Y0431077D03*
X0330021Y0434227D03*
X0330021Y0437376D03*
X0330021Y0440526D03*
X0330021Y0443676D03*
X0330021Y0446825D03*
X0330021Y0449975D03*
X0330021Y0453124D03*
X0363821Y0453124D03*
X0363821Y0449975D03*
X0363821Y0446825D03*
X0363821Y0443676D03*
X0363821Y0440526D03*
X0363821Y0437376D03*
X0363821Y0434227D03*
X0363821Y0431077D03*
X0363821Y0292424D03*
X0363821Y0289274D03*
X0363821Y0286124D03*
X0363821Y0282975D03*
X0363821Y0279825D03*
X0363821Y0276676D03*
X0363821Y0273526D03*
X0363821Y0270376D03*
X0330021Y0270376D03*
X0330021Y0273526D03*
X0330021Y0276676D03*
X0330021Y0279825D03*
X0330021Y0282975D03*
X0330021Y0286124D03*
X0330021Y0289274D03*
X0330021Y0292424D03*
D21*
X0337697Y0306036D02*
X0337697Y0311764D01*
X0342421Y0311764D02*
X0342421Y0306036D01*
X0347146Y0306036D02*
X0347146Y0311764D01*
X0347146Y0466737D02*
X0347146Y0472465D01*
X0342421Y0472465D02*
X0342421Y0466737D01*
X0337697Y0466737D02*
X0337697Y0472465D01*
X0145224Y0472465D02*
X0145224Y0466737D01*
X0140500Y0466737D02*
X0140500Y0472465D01*
X0135776Y0472465D02*
X0135776Y0466737D01*
X0135776Y0311764D02*
X0135776Y0306036D01*
X0140500Y0306036D02*
X0140500Y0311764D01*
X0145224Y0311764D02*
X0145224Y0306036D01*
D22*
X0130000Y0313054D03*
X0130000Y0319746D03*
X0181500Y0319746D03*
X0181500Y0313054D03*
X0280421Y0313054D03*
X0280421Y0319746D03*
X0331921Y0319746D03*
X0331921Y0313054D03*
X0383421Y0313054D03*
X0383421Y0319746D03*
X0383421Y0473754D03*
X0383421Y0480447D03*
X0331921Y0480447D03*
X0331921Y0473754D03*
X0280421Y0473754D03*
X0280421Y0480447D03*
X0181500Y0480447D03*
X0181500Y0473754D03*
X0130000Y0473754D03*
X0130000Y0480447D03*
X0078500Y0480447D03*
X0078500Y0473754D03*
X0078500Y0319746D03*
X0078500Y0313054D03*
D23*
X0057472Y0243841D03*
X0057472Y0251715D03*
X0057472Y0259589D03*
X0057472Y0267463D03*
X0057472Y0275337D03*
X0057472Y0283211D03*
X0057472Y0291085D03*
X0057472Y0298959D03*
X0116528Y0298959D03*
X0116528Y0291085D03*
X0116528Y0283211D03*
X0116528Y0275337D03*
X0116528Y0267463D03*
X0116528Y0259589D03*
X0116528Y0251715D03*
X0116528Y0243841D03*
X0116528Y0404542D03*
X0116528Y0412416D03*
X0116528Y0420290D03*
X0116528Y0428164D03*
X0116528Y0436038D03*
X0116528Y0443912D03*
X0116528Y0451786D03*
X0116528Y0459660D03*
X0057472Y0459660D03*
X0057472Y0451786D03*
X0057472Y0443912D03*
X0057472Y0436038D03*
X0057472Y0428164D03*
X0057472Y0420290D03*
X0057472Y0412416D03*
X0057472Y0404542D03*
X0259394Y0404542D03*
X0259394Y0412416D03*
X0259394Y0420290D03*
X0259394Y0428164D03*
X0259394Y0436038D03*
X0259394Y0443912D03*
X0259394Y0451786D03*
X0259394Y0459660D03*
X0318449Y0459660D03*
X0318449Y0451786D03*
X0318449Y0443912D03*
X0318449Y0436038D03*
X0318449Y0428164D03*
X0318449Y0420290D03*
X0318449Y0412416D03*
X0318449Y0404542D03*
X0318449Y0298959D03*
X0318449Y0291085D03*
X0318449Y0283211D03*
X0318449Y0275337D03*
X0318449Y0267463D03*
X0318449Y0259589D03*
X0318449Y0251715D03*
X0318449Y0243841D03*
X0259394Y0243841D03*
X0259394Y0251715D03*
X0259394Y0259589D03*
X0259394Y0267463D03*
X0259394Y0275337D03*
X0259394Y0283211D03*
X0259394Y0291085D03*
X0259394Y0298959D03*
M02*
