G75*
%MOIN*%
%OFA0B0*%
%FSLAX25Y25*%
%IPPOS*%
%LPD*%
%AMOC8*
5,1,8,0,0,1.08239X$1,22.5*
%
%ADD10C,0.13800*%
%ADD11C,0.04808*%
%ADD12R,0.05800X0.03300*%
%ADD13C,0.00500*%
%ADD14C,0.08200*%
%ADD15R,0.03300X0.05800*%
D10*
X0047750Y0043750D03*
X0047750Y0123750D03*
X0047750Y0204451D03*
X0047750Y0284451D03*
X0237750Y0279451D03*
X0259671Y0284451D03*
X0259671Y0204451D03*
X0237750Y0199451D03*
X0259671Y0123750D03*
X0237750Y0118750D03*
X0259671Y0043750D03*
X0237750Y0038750D03*
X0449671Y0038750D03*
X0449671Y0118750D03*
X0449671Y0199451D03*
X0449671Y0279451D03*
D11*
X0379671Y0244451D03*
X0369671Y0244451D03*
X0369671Y0234451D03*
X0379671Y0234451D03*
X0379671Y0224451D03*
X0369671Y0224451D03*
X0369671Y0083750D03*
X0379671Y0083750D03*
X0379671Y0073750D03*
X0369671Y0073750D03*
X0369671Y0063750D03*
X0379671Y0063750D03*
X0167750Y0063750D03*
X0167750Y0073750D03*
X0157750Y0073750D03*
X0157750Y0063750D03*
X0157750Y0083750D03*
X0167750Y0083750D03*
X0167750Y0224451D03*
X0157750Y0224451D03*
X0157750Y0234451D03*
X0157750Y0244451D03*
X0167750Y0244451D03*
X0167750Y0234451D03*
D12*
X0237750Y0228451D03*
X0237750Y0224451D03*
X0237750Y0220451D03*
X0237750Y0067750D03*
X0237750Y0063750D03*
X0237750Y0059750D03*
X0449671Y0059750D03*
X0449671Y0063750D03*
X0449671Y0067750D03*
X0449671Y0220451D03*
X0449671Y0224451D03*
X0449671Y0228451D03*
D13*
X0450171Y0227201D02*
X0449171Y0227201D01*
X0449171Y0225701D01*
X0450171Y0225701D01*
X0450171Y0227201D01*
X0450171Y0227158D02*
X0449171Y0227158D01*
X0449171Y0226659D02*
X0450171Y0226659D01*
X0450171Y0226160D02*
X0449171Y0226160D01*
X0449171Y0223201D02*
X0450171Y0223201D01*
X0450171Y0221701D01*
X0449171Y0221701D01*
X0449171Y0223201D01*
X0449171Y0223169D02*
X0450171Y0223169D01*
X0450171Y0222671D02*
X0449171Y0222671D01*
X0449171Y0222172D02*
X0450171Y0222172D01*
X0238250Y0222172D02*
X0237250Y0222172D01*
X0237250Y0221701D02*
X0238250Y0221701D01*
X0238250Y0223201D01*
X0237250Y0223201D01*
X0237250Y0221701D01*
X0237250Y0222671D02*
X0238250Y0222671D01*
X0238250Y0223169D02*
X0237250Y0223169D01*
X0237250Y0225701D02*
X0238250Y0225701D01*
X0238250Y0227201D01*
X0237250Y0227201D01*
X0237250Y0225701D01*
X0237250Y0226160D02*
X0238250Y0226160D01*
X0238250Y0226659D02*
X0237250Y0226659D01*
X0237250Y0227158D02*
X0238250Y0227158D01*
X0238250Y0066500D02*
X0237250Y0066500D01*
X0237250Y0065000D01*
X0238250Y0065000D01*
X0238250Y0066500D01*
X0238250Y0066138D02*
X0237250Y0066138D01*
X0237250Y0065640D02*
X0238250Y0065640D01*
X0238250Y0065141D02*
X0237250Y0065141D01*
X0237250Y0062500D02*
X0238250Y0062500D01*
X0238250Y0061000D01*
X0237250Y0061000D01*
X0237250Y0062500D01*
X0237250Y0062150D02*
X0238250Y0062150D01*
X0238250Y0061652D02*
X0237250Y0061652D01*
X0237250Y0061153D02*
X0238250Y0061153D01*
X0449171Y0061153D02*
X0450171Y0061153D01*
X0450171Y0061000D02*
X0450171Y0062500D01*
X0449171Y0062500D01*
X0449171Y0061000D01*
X0450171Y0061000D01*
X0450171Y0061652D02*
X0449171Y0061652D01*
X0449171Y0062150D02*
X0450171Y0062150D01*
X0450171Y0065000D02*
X0450171Y0066500D01*
X0449171Y0066500D01*
X0449171Y0065000D01*
X0450171Y0065000D01*
X0450171Y0065141D02*
X0449171Y0065141D01*
X0449171Y0065640D02*
X0450171Y0065640D01*
X0450171Y0066138D02*
X0449171Y0066138D01*
D14*
X0399671Y0033750D03*
X0389671Y0033750D03*
X0379671Y0033750D03*
X0369671Y0033750D03*
X0359671Y0033750D03*
X0187750Y0033750D03*
X0177750Y0033750D03*
X0167750Y0033750D03*
X0157750Y0033750D03*
X0147750Y0033750D03*
X0147750Y0194451D03*
X0157750Y0194451D03*
X0167750Y0194451D03*
X0177750Y0194451D03*
X0187750Y0194451D03*
X0359671Y0194451D03*
X0369671Y0194451D03*
X0379671Y0194451D03*
X0389671Y0194451D03*
X0399671Y0194451D03*
D15*
X0393271Y0261951D03*
X0390071Y0261951D03*
X0181350Y0261951D03*
X0178150Y0261951D03*
X0178150Y0101250D03*
X0181350Y0101250D03*
X0390071Y0101250D03*
X0393271Y0101250D03*
M02*
