%
M48
M72
T01C0.0120
T02C0.0150
T03C0.0200
T04C0.0400
T05C0.1300
%
T01
X8475Y5575
X12275Y5975
X14725Y5675
X14775Y5225
X15475Y4875
X16275Y4975
X16275Y4375
X17275Y4375
X18275Y4575
X19225Y4475
X21775Y5875
X21775Y7375
X21275Y7675
X20925Y7375
X21775Y8375
X22175Y7875
X22975Y8375
X22175Y9725
X20625Y9925
X20275Y11225
X19575Y11225
X17275Y10125
X16675Y10525
X15525Y9525
X16275Y8375
X15275Y7875
X17275Y6875
X18775Y7225
X18775Y7675
X18025Y9025
X15125Y11225
X14425Y11225
X23275Y6175
X29667Y5575
X33467Y5975
X35917Y5675
X35967Y5225
X36667Y4875
X37467Y4975
X37467Y4375
X38467Y4375
X39467Y4575
X40417Y4475
X42967Y5875
X42967Y7375
X42467Y7675
X42117Y7375
X43367Y7875
X42967Y8375
X44167Y8375
X43367Y9725
X41817Y9925
X41467Y11225
X40767Y11225
X38467Y10125
X37867Y10525
X36317Y11225
X35617Y11225
X36717Y9525
X37467Y8375
X36467Y7875
X38467Y6875
X39967Y7225
X39967Y7675
X39217Y9025
X44467Y6175
X40417Y20545
X39467Y20645
X38467Y20445
X37467Y20445
X37467Y21045
X36667Y20945
X35967Y21295
X35917Y21745
X33467Y22045
X36467Y23945
X37467Y24445
X36717Y25595
X37867Y26595
X38467Y26195
X39217Y25095
X39967Y23745
X39967Y23295
X38467Y22945
X42117Y23445
X42467Y23745
X42967Y23445
X43367Y23945
X42967Y24445
X44167Y24445
X43367Y25795
X41817Y25995
X41467Y27295
X40767Y27295
X36317Y27295
X35617Y27295
X29667Y21645
X23275Y22245
X21775Y21945
X21775Y23445
X21275Y23745
X20925Y23445
X21775Y24445
X22175Y23945
X22975Y24445
X22175Y25795
X20625Y25995
X20275Y27295
X19575Y27295
X17275Y26195
X16675Y26595
X15525Y25595
X16275Y24445
X15275Y23945
X17275Y22945
X18775Y23295
X18775Y23745
X18025Y25095
X15125Y27295
X14425Y27295
X14725Y21745
X14775Y21295
X15475Y20945
X16275Y21045
X16275Y20445
X17275Y20445
X18275Y20645
X19225Y20545
X12275Y22045
X8475Y21645
X42967Y21945
X44467Y22245
T02
X40167Y24945
X33467Y24045
X33317Y24645
X27617Y20395
X27817Y19695
X18975Y24945
X12275Y24045
X12125Y24645
X6425Y20395
X6625Y19695
X18975Y8875
X12275Y7975
X12125Y8575
X6425Y4325
X6625Y3625
X27617Y4325
X27817Y3625
X33467Y7975
X33317Y8575
X40167Y8875
T03
X37967Y8375
X36967Y8375
X36967Y7375
X37967Y7375
X37967Y6375
X36967Y6375
X16775Y6375
X16775Y7375
X15775Y7375
X15775Y6375
X15775Y8375
X16775Y8375
X16775Y22445
X15775Y22445
X15775Y23445
X16775Y23445
X16775Y24445
X15775Y24445
X36967Y24445
X37967Y24445
X37967Y23445
X36967Y23445
X36967Y22445
X37967Y22445
T04
X37967Y19445
X36967Y19445
X35967Y19445
X38967Y19445
X39967Y19445
X18775Y19445
X17775Y19445
X16775Y19445
X15775Y19445
X14775Y19445
X14775Y3375
X15775Y3375
X16775Y3375
X17775Y3375
X18775Y3375
X35967Y3375
X36967Y3375
X37967Y3375
X38967Y3375
X39967Y3375
T05
X4775Y4375
X4775Y12375
X4775Y20445
X4775Y28445
X23775Y27945
X25967Y28445
X25967Y20445
X23775Y19945
X25967Y12375
X23775Y11875
X25967Y4375
X23775Y3875
X44967Y3875
X44967Y11875
X44967Y19945
X44967Y27945
M30
