G75*
%MOIN*%
%OFA0B0*%
%FSLAX25Y25*%
%IPPOS*%
%LPD*%
%AMOC8*
5,1,8,0,0,1.08239X$1,22.5*
%
%ADD10C,0.13800*%
%ADD11C,0.04808*%
%ADD12R,0.05800X0.03300*%
%ADD13C,0.00500*%
%ADD14C,0.08200*%
%ADD15R,0.03300X0.05800*%
D10*
X0040000Y0246400D03*
X0040000Y0326400D03*
X0040000Y0407101D03*
X0040000Y0487101D03*
X0220000Y0487101D03*
X0241921Y0487101D03*
X0241921Y0407101D03*
X0220000Y0407101D03*
X0220000Y0326400D03*
X0241921Y0326400D03*
X0241921Y0246400D03*
X0220000Y0246400D03*
X0421921Y0246400D03*
X0421921Y0326400D03*
X0421921Y0407101D03*
X0421921Y0487101D03*
D11*
X0351921Y0452101D03*
X0341921Y0452101D03*
X0341921Y0442101D03*
X0341921Y0432101D03*
X0351921Y0432101D03*
X0351921Y0442101D03*
X0351921Y0291400D03*
X0351921Y0281400D03*
X0341921Y0281400D03*
X0341921Y0291400D03*
X0341921Y0271400D03*
X0351921Y0271400D03*
X0150000Y0271400D03*
X0150000Y0281400D03*
X0150000Y0291400D03*
X0140000Y0291400D03*
X0140000Y0281400D03*
X0140000Y0271400D03*
X0140000Y0432101D03*
X0140000Y0442101D03*
X0140000Y0452101D03*
X0150000Y0452101D03*
X0150000Y0442101D03*
X0150000Y0432101D03*
D12*
X0220000Y0432101D03*
X0220000Y0436101D03*
X0220000Y0428101D03*
X0220000Y0275400D03*
X0220000Y0271400D03*
X0220000Y0267400D03*
X0421921Y0267400D03*
X0421921Y0271400D03*
X0421921Y0275400D03*
X0421921Y0428101D03*
X0421921Y0432101D03*
X0421921Y0436101D03*
D13*
X0422421Y0434851D02*
X0421421Y0434851D01*
X0421421Y0433351D01*
X0422421Y0433351D01*
X0422421Y0434851D01*
X0422421Y0434808D02*
X0421421Y0434808D01*
X0421421Y0434309D02*
X0422421Y0434309D01*
X0422421Y0433810D02*
X0421421Y0433810D01*
X0421421Y0430851D02*
X0422421Y0430851D01*
X0422421Y0429351D01*
X0421421Y0429351D01*
X0421421Y0430851D01*
X0421421Y0430819D02*
X0422421Y0430819D01*
X0422421Y0430321D02*
X0421421Y0430321D01*
X0421421Y0429822D02*
X0422421Y0429822D01*
X0422421Y0274150D02*
X0421421Y0274150D01*
X0421421Y0272650D01*
X0422421Y0272650D01*
X0422421Y0274150D01*
X0422421Y0273788D02*
X0421421Y0273788D01*
X0421421Y0273290D02*
X0422421Y0273290D01*
X0422421Y0272791D02*
X0421421Y0272791D01*
X0421421Y0270150D02*
X0422421Y0270150D01*
X0422421Y0268650D01*
X0421421Y0268650D01*
X0421421Y0270150D01*
X0421421Y0269800D02*
X0422421Y0269800D01*
X0422421Y0269302D02*
X0421421Y0269302D01*
X0421421Y0268803D02*
X0422421Y0268803D01*
X0220500Y0268803D02*
X0219500Y0268803D01*
X0219500Y0268650D02*
X0220500Y0268650D01*
X0220500Y0270150D01*
X0219500Y0270150D01*
X0219500Y0268650D01*
X0219500Y0269302D02*
X0220500Y0269302D01*
X0220500Y0269800D02*
X0219500Y0269800D01*
X0219500Y0272650D02*
X0220500Y0272650D01*
X0220500Y0274150D01*
X0219500Y0274150D01*
X0219500Y0272650D01*
X0219500Y0272791D02*
X0220500Y0272791D01*
X0220500Y0273290D02*
X0219500Y0273290D01*
X0219500Y0273788D02*
X0220500Y0273788D01*
X0220500Y0429351D02*
X0220500Y0430851D01*
X0219500Y0430851D01*
X0219500Y0429351D01*
X0220500Y0429351D01*
X0220500Y0429822D02*
X0219500Y0429822D01*
X0219500Y0430321D02*
X0220500Y0430321D01*
X0220500Y0430819D02*
X0219500Y0430819D01*
X0219500Y0433351D02*
X0220500Y0433351D01*
X0220500Y0434851D01*
X0219500Y0434851D01*
X0219500Y0433351D01*
X0219500Y0433810D02*
X0220500Y0433810D01*
X0220500Y0434309D02*
X0219500Y0434309D01*
X0219500Y0434808D02*
X0220500Y0434808D01*
D14*
X0130000Y0241400D03*
X0140000Y0241400D03*
X0150000Y0241400D03*
X0160000Y0241400D03*
X0170000Y0241400D03*
X0170000Y0402101D03*
X0160000Y0402101D03*
X0150000Y0402101D03*
X0140000Y0402101D03*
X0130000Y0402101D03*
X0331921Y0402101D03*
X0341921Y0402101D03*
X0351921Y0402101D03*
X0361921Y0402101D03*
X0371921Y0402101D03*
X0371921Y0241400D03*
X0361921Y0241400D03*
X0351921Y0241400D03*
X0341921Y0241400D03*
X0331921Y0241400D03*
D15*
X0362321Y0308900D03*
X0365521Y0308900D03*
X0365521Y0469601D03*
X0362321Y0469601D03*
X0163600Y0469601D03*
X0160400Y0469601D03*
X0160400Y0308900D03*
X0163600Y0308900D03*
M02*
