G75*
%MOIN*%
%OFA0B0*%
%FSLAX25Y25*%
%IPPOS*%
%LPD*%
%AMOC8*
5,1,8,0,0,1.08239X$1,22.5*
%
%ADD10C,0.01100*%
%ADD11C,0.03400*%
%ADD12R,0.05000X0.02500*%
%ADD13C,0.01000*%
%ADD14C,0.07400*%
%ADD15R,0.02500X0.05000*%
%ADD16C,0.02600*%
%ADD17C,0.00800*%
%ADD18C,0.00600*%
D10*
X0031550Y0257450D02*
X0037455Y0261387D01*
X0036471Y0263895D02*
X0037455Y0264880D01*
X0037455Y0266848D01*
X0036471Y0267832D01*
X0032534Y0263895D01*
X0031550Y0264880D01*
X0031550Y0266848D01*
X0032534Y0267832D01*
X0036471Y0267832D01*
X0035487Y0270341D02*
X0037455Y0272309D01*
X0031550Y0272309D01*
X0031550Y0270341D02*
X0031550Y0274278D01*
X0032534Y0263895D02*
X0036471Y0263895D01*
X0031550Y0261387D02*
X0037455Y0257450D01*
X0037455Y0418151D02*
X0031550Y0422087D01*
X0032534Y0424596D02*
X0031550Y0425580D01*
X0031550Y0427549D01*
X0032534Y0428533D01*
X0036471Y0428533D01*
X0032534Y0424596D01*
X0036471Y0424596D01*
X0037455Y0425580D01*
X0037455Y0427549D01*
X0036471Y0428533D01*
X0035487Y0431042D02*
X0037455Y0433010D01*
X0031550Y0433010D01*
X0031550Y0431042D02*
X0031550Y0434978D01*
X0037455Y0422087D02*
X0031550Y0418151D01*
X0233471Y0418151D02*
X0239376Y0422087D01*
X0238392Y0424596D02*
X0234455Y0424596D01*
X0238392Y0428533D01*
X0234455Y0428533D01*
X0233471Y0427549D01*
X0233471Y0425580D01*
X0234455Y0424596D01*
X0233471Y0422087D02*
X0239376Y0418151D01*
X0238392Y0424596D02*
X0239376Y0425580D01*
X0239376Y0427549D01*
X0238392Y0428533D01*
X0237408Y0431042D02*
X0239376Y0433010D01*
X0233471Y0433010D01*
X0233471Y0431042D02*
X0233471Y0434978D01*
X0233471Y0274278D02*
X0233471Y0270341D01*
X0233471Y0272309D02*
X0239376Y0272309D01*
X0237408Y0270341D01*
X0238392Y0267832D02*
X0234455Y0263895D01*
X0233471Y0264880D01*
X0233471Y0266848D01*
X0234455Y0267832D01*
X0238392Y0267832D01*
X0239376Y0266848D01*
X0239376Y0264880D01*
X0238392Y0263895D01*
X0234455Y0263895D01*
X0233471Y0261387D02*
X0239376Y0257450D01*
X0239376Y0261387D02*
X0233471Y0257450D01*
D11*
X0150000Y0271400D03*
X0150000Y0281400D03*
X0150000Y0291400D03*
X0140000Y0291400D03*
X0140000Y0281400D03*
X0140000Y0271400D03*
X0140000Y0432101D03*
X0140000Y0442101D03*
X0140000Y0452101D03*
X0150000Y0452101D03*
X0150000Y0442101D03*
X0150000Y0432101D03*
X0341921Y0432101D03*
X0341921Y0442101D03*
X0341921Y0452101D03*
X0351921Y0452101D03*
X0351921Y0442101D03*
X0351921Y0432101D03*
X0351921Y0291400D03*
X0351921Y0281400D03*
X0341921Y0281400D03*
X0341921Y0291400D03*
X0341921Y0271400D03*
X0351921Y0271400D03*
D12*
X0421921Y0271400D03*
X0421921Y0267400D03*
X0421921Y0275400D03*
X0421921Y0428101D03*
X0421921Y0432101D03*
X0421921Y0436101D03*
X0220000Y0436101D03*
X0220000Y0432101D03*
X0220000Y0428101D03*
X0220000Y0275400D03*
X0220000Y0271400D03*
X0220000Y0267400D03*
D13*
X0047312Y0240265D02*
X0045209Y0238500D01*
X0125679Y0238500D01*
X0125553Y0238675D01*
X0125181Y0239404D01*
X0124928Y0240182D01*
X0124814Y0240900D01*
X0129500Y0240900D01*
X0129500Y0241900D01*
X0129500Y0246586D01*
X0128782Y0246472D01*
X0128004Y0246219D01*
X0127275Y0245847D01*
X0126612Y0245366D01*
X0126034Y0244788D01*
X0125553Y0244125D01*
X0125181Y0243396D01*
X0124928Y0242618D01*
X0124814Y0241900D01*
X0129500Y0241900D01*
X0130500Y0241900D01*
X0130500Y0246586D01*
X0131218Y0246472D01*
X0131996Y0246219D01*
X0132725Y0245847D01*
X0133388Y0245366D01*
X0133966Y0244788D01*
X0134447Y0244125D01*
X0134819Y0243396D01*
X0134891Y0243176D01*
X0135422Y0244459D01*
X0136941Y0245978D01*
X0138926Y0246800D01*
X0141074Y0246800D01*
X0143059Y0245978D01*
X0144578Y0244459D01*
X0145000Y0243440D01*
X0145422Y0244459D01*
X0146941Y0245978D01*
X0148000Y0246416D01*
X0148000Y0255400D01*
X0147243Y0255400D01*
X0146699Y0254857D01*
X0145597Y0254400D01*
X0144403Y0254400D01*
X0143301Y0254857D01*
X0142457Y0255701D01*
X0142000Y0256803D01*
X0142000Y0257997D01*
X0142306Y0258737D01*
X0140000Y0256430D01*
X0140000Y0255803D01*
X0139543Y0254701D01*
X0138699Y0253857D01*
X0137597Y0253400D01*
X0136403Y0253400D01*
X0135301Y0253857D01*
X0134457Y0254701D01*
X0134000Y0255803D01*
X0134000Y0256997D01*
X0134457Y0258099D01*
X0135301Y0258943D01*
X0136403Y0259400D01*
X0137030Y0259400D01*
X0147114Y0269484D01*
X0146600Y0270724D01*
X0146600Y0271830D01*
X0142900Y0275530D01*
X0142900Y0279517D01*
X0142882Y0279474D01*
X0141926Y0278518D01*
X0140676Y0278000D01*
X0139324Y0278000D01*
X0138074Y0278518D01*
X0137510Y0279082D01*
X0137000Y0278572D01*
X0137000Y0273042D01*
X0137118Y0273326D01*
X0138074Y0274282D01*
X0139324Y0274800D01*
X0140676Y0274800D01*
X0141926Y0274282D01*
X0142882Y0273326D01*
X0143400Y0272076D01*
X0143400Y0270724D01*
X0142882Y0269474D01*
X0141926Y0268518D01*
X0140676Y0268000D01*
X0139324Y0268000D01*
X0138074Y0268518D01*
X0137118Y0269474D01*
X0137000Y0269758D01*
X0137000Y0269072D01*
X0135828Y0267900D01*
X0135828Y0267900D01*
X0132500Y0264572D01*
X0132500Y0263803D01*
X0132043Y0262701D01*
X0131199Y0261857D01*
X0130097Y0261400D01*
X0128903Y0261400D01*
X0127801Y0261857D01*
X0126957Y0262701D01*
X0126500Y0263803D01*
X0126500Y0264572D01*
X0125672Y0265400D01*
X0107243Y0265400D01*
X0106699Y0264857D01*
X0105597Y0264400D01*
X0104403Y0264400D01*
X0103301Y0264857D01*
X0102457Y0265701D01*
X0102000Y0266803D01*
X0102000Y0267997D01*
X0102457Y0269099D01*
X0103301Y0269943D01*
X0104403Y0270400D01*
X0105597Y0270400D01*
X0106699Y0269943D01*
X0107243Y0269400D01*
X0127328Y0269400D01*
X0129328Y0267400D01*
X0129672Y0267400D01*
X0133000Y0270728D01*
X0133000Y0280228D01*
X0134172Y0281400D01*
X0136172Y0283400D01*
X0137192Y0283400D01*
X0138074Y0284282D01*
X0139324Y0284800D01*
X0140676Y0284800D01*
X0141926Y0284282D01*
X0142882Y0283326D01*
X0142900Y0283283D01*
X0142900Y0289257D01*
X0142783Y0289375D01*
X0141926Y0288518D01*
X0140676Y0288000D01*
X0139324Y0288000D01*
X0138074Y0288518D01*
X0137118Y0289474D01*
X0136600Y0290724D01*
X0136600Y0292076D01*
X0137118Y0293326D01*
X0138074Y0294282D01*
X0139324Y0294800D01*
X0140676Y0294800D01*
X0141926Y0294282D01*
X0142783Y0293425D01*
X0143301Y0293943D01*
X0144403Y0294400D01*
X0145597Y0294400D01*
X0146699Y0293943D01*
X0147390Y0293253D01*
X0147514Y0293440D01*
X0147960Y0293886D01*
X0148484Y0294236D01*
X0149067Y0294477D01*
X0149685Y0294600D01*
X0150000Y0294600D01*
X0150000Y0291400D01*
X0150000Y0291400D01*
X0153200Y0291400D01*
X0153200Y0291715D01*
X0153077Y0292333D01*
X0152836Y0292916D01*
X0152486Y0293440D01*
X0152040Y0293886D01*
X0151516Y0294236D01*
X0150933Y0294477D01*
X0150315Y0294600D01*
X0150000Y0294600D01*
X0150000Y0291400D01*
X0150000Y0291400D01*
X0153200Y0291400D01*
X0153200Y0291085D01*
X0153077Y0290467D01*
X0152836Y0289884D01*
X0152486Y0289360D01*
X0152040Y0288914D01*
X0151516Y0288564D01*
X0151361Y0288500D01*
X0157130Y0288500D01*
X0163837Y0295206D01*
X0163097Y0294900D01*
X0161903Y0294900D01*
X0160801Y0295357D01*
X0160257Y0295900D01*
X0102328Y0295900D01*
X0070000Y0263572D01*
X0070000Y0262803D01*
X0069543Y0261701D01*
X0068699Y0260857D01*
X0067597Y0260400D01*
X0066403Y0260400D01*
X0065301Y0260857D01*
X0064457Y0261701D01*
X0064000Y0262803D01*
X0064000Y0263997D01*
X0064457Y0265099D01*
X0065301Y0265943D01*
X0066403Y0266400D01*
X0067172Y0266400D01*
X0099500Y0298728D01*
X0100672Y0299900D01*
X0160257Y0299900D01*
X0160801Y0300443D01*
X0161903Y0300900D01*
X0163097Y0300900D01*
X0164199Y0300443D01*
X0165043Y0299599D01*
X0165500Y0298497D01*
X0165500Y0297303D01*
X0165194Y0296563D01*
X0177630Y0309000D01*
X0186357Y0309000D01*
X0186801Y0309443D01*
X0187903Y0309900D01*
X0189097Y0309900D01*
X0190199Y0309443D01*
X0190643Y0309000D01*
X0202870Y0309000D01*
X0203970Y0307900D01*
X0204597Y0307900D01*
X0205699Y0307443D01*
X0206143Y0307000D01*
X0213370Y0307000D01*
X0225870Y0294500D01*
X0227100Y0293270D01*
X0227100Y0272030D01*
X0225600Y0270530D01*
X0224370Y0269300D01*
X0224200Y0269300D01*
X0224200Y0265446D01*
X0223204Y0264450D01*
X0221878Y0264450D01*
X0220828Y0263400D01*
X0209172Y0263400D01*
X0208000Y0264572D01*
X0202000Y0270572D01*
X0202000Y0284157D01*
X0201457Y0284701D01*
X0201000Y0285803D01*
X0201000Y0286997D01*
X0201457Y0288099D01*
X0202301Y0288943D01*
X0203403Y0289400D01*
X0204597Y0289400D01*
X0205578Y0288994D01*
X0205172Y0289400D01*
X0202243Y0289400D01*
X0201699Y0288857D01*
X0200597Y0288400D01*
X0199403Y0288400D01*
X0198301Y0288857D01*
X0197457Y0289701D01*
X0197000Y0290803D01*
X0197000Y0291997D01*
X0197457Y0293099D01*
X0198301Y0293943D01*
X0199403Y0294400D01*
X0200597Y0294400D01*
X0201699Y0293943D01*
X0202243Y0293400D01*
X0206828Y0293400D01*
X0220828Y0279400D01*
X0221878Y0278350D01*
X0222900Y0278350D01*
X0222900Y0291530D01*
X0211630Y0302800D01*
X0206143Y0302800D01*
X0205699Y0302357D01*
X0204597Y0301900D01*
X0203403Y0301900D01*
X0202301Y0302357D01*
X0201457Y0303201D01*
X0201000Y0304303D01*
X0201000Y0304800D01*
X0190643Y0304800D01*
X0190199Y0304357D01*
X0189097Y0303900D01*
X0187903Y0303900D01*
X0186801Y0304357D01*
X0186357Y0304800D01*
X0179370Y0304800D01*
X0168663Y0294094D01*
X0169403Y0294400D01*
X0170597Y0294400D01*
X0171699Y0293943D01*
X0172543Y0293099D01*
X0173000Y0291997D01*
X0173000Y0290803D01*
X0172543Y0289701D01*
X0171699Y0288857D01*
X0170597Y0288400D01*
X0169828Y0288400D01*
X0168422Y0286994D01*
X0169403Y0287400D01*
X0170597Y0287400D01*
X0171699Y0286943D01*
X0172243Y0286400D01*
X0192757Y0286400D01*
X0193301Y0286943D01*
X0194403Y0287400D01*
X0195597Y0287400D01*
X0196699Y0286943D01*
X0197543Y0286099D01*
X0198000Y0284997D01*
X0198000Y0283803D01*
X0197543Y0282701D01*
X0197000Y0282157D01*
X0197000Y0277572D01*
X0195828Y0276400D01*
X0193828Y0274400D01*
X0175828Y0274400D01*
X0162000Y0260572D01*
X0162000Y0246416D01*
X0163000Y0246002D01*
X0163000Y0251157D01*
X0162457Y0251701D01*
X0162000Y0252803D01*
X0162000Y0253997D01*
X0162457Y0255099D01*
X0163301Y0255943D01*
X0164403Y0256400D01*
X0165597Y0256400D01*
X0166699Y0255943D01*
X0167543Y0255099D01*
X0168000Y0253997D01*
X0168000Y0252803D01*
X0167543Y0251701D01*
X0167000Y0251157D01*
X0167000Y0247228D01*
X0167867Y0246361D01*
X0168926Y0246800D01*
X0171074Y0246800D01*
X0173059Y0245978D01*
X0174578Y0244459D01*
X0175400Y0242474D01*
X0175400Y0240326D01*
X0174644Y0238500D01*
X0214791Y0238500D01*
X0212688Y0240265D01*
X0212688Y0240265D01*
X0211031Y0243135D01*
X0211031Y0243135D01*
X0210455Y0246400D01*
X0210455Y0246400D01*
X0211031Y0249665D01*
X0211031Y0249665D01*
X0212688Y0252535D01*
X0212688Y0252535D01*
X0212688Y0252535D01*
X0215227Y0254666D01*
X0215227Y0254666D01*
X0218343Y0255800D01*
X0221657Y0255800D01*
X0224772Y0254666D01*
X0224773Y0254666D01*
X0227312Y0252535D01*
X0227312Y0252535D01*
X0227821Y0251653D01*
X0227821Y0316400D01*
X0032100Y0316400D01*
X0032100Y0276528D01*
X0032482Y0276528D01*
X0033800Y0275210D01*
X0033800Y0274559D01*
X0038387Y0274559D01*
X0039036Y0273910D01*
X0039705Y0273241D01*
X0039705Y0271377D01*
X0038625Y0270298D01*
X0038387Y0270059D01*
X0038387Y0270059D01*
X0037906Y0269579D01*
X0038226Y0269259D01*
X0038387Y0269098D01*
X0038387Y0269098D01*
X0038926Y0268559D01*
X0039705Y0267780D01*
X0039705Y0263948D01*
X0038953Y0263196D01*
X0039844Y0261859D01*
X0039479Y0260032D01*
X0038559Y0259418D01*
X0039479Y0258805D01*
X0039844Y0256977D01*
X0039059Y0255800D01*
X0041657Y0255800D01*
X0044772Y0254666D01*
X0044773Y0254666D01*
X0047312Y0252535D01*
X0047312Y0252535D01*
X0048969Y0249665D01*
X0048969Y0249665D01*
X0049545Y0246400D01*
X0049545Y0246400D01*
X0048969Y0243135D01*
X0048969Y0243135D01*
X0047312Y0240265D01*
X0047312Y0240265D01*
X0047312Y0240265D01*
X0047387Y0240394D02*
X0124895Y0240394D01*
X0125185Y0239396D02*
X0046276Y0239396D01*
X0047963Y0241393D02*
X0129500Y0241393D01*
X0129500Y0242391D02*
X0130500Y0242391D01*
X0130500Y0243390D02*
X0129500Y0243390D01*
X0129500Y0244388D02*
X0130500Y0244388D01*
X0130500Y0245387D02*
X0129500Y0245387D01*
X0129500Y0246385D02*
X0130500Y0246385D01*
X0131485Y0246385D02*
X0137924Y0246385D01*
X0136350Y0245387D02*
X0133360Y0245387D01*
X0134257Y0244388D02*
X0135393Y0244388D01*
X0134979Y0243390D02*
X0134821Y0243390D01*
X0142076Y0246385D02*
X0147924Y0246385D01*
X0148000Y0247384D02*
X0049372Y0247384D01*
X0049542Y0246385D02*
X0128515Y0246385D01*
X0126640Y0245387D02*
X0049366Y0245387D01*
X0049190Y0244388D02*
X0125743Y0244388D01*
X0125179Y0243390D02*
X0049014Y0243390D01*
X0048540Y0242391D02*
X0124892Y0242391D01*
X0134784Y0254373D02*
X0045122Y0254373D01*
X0046312Y0253375D02*
X0148000Y0253375D01*
X0148000Y0254373D02*
X0139216Y0254373D01*
X0139821Y0255372D02*
X0142786Y0255372D01*
X0142179Y0256370D02*
X0140000Y0256370D01*
X0140939Y0257369D02*
X0142000Y0257369D01*
X0141937Y0258367D02*
X0142153Y0258367D01*
X0143663Y0260094D02*
X0152100Y0268530D01*
X0152100Y0268692D01*
X0152882Y0269474D01*
X0153400Y0270724D01*
X0153400Y0272076D01*
X0152882Y0273326D01*
X0151926Y0274282D01*
X0150676Y0274800D01*
X0149570Y0274800D01*
X0147100Y0277270D01*
X0147100Y0279517D01*
X0147118Y0279474D01*
X0148074Y0278518D01*
X0149324Y0278000D01*
X0150676Y0278000D01*
X0151926Y0278518D01*
X0152882Y0279474D01*
X0153400Y0280724D01*
X0153400Y0282076D01*
X0152882Y0283326D01*
X0151926Y0284282D01*
X0151883Y0284300D01*
X0158870Y0284300D01*
X0160100Y0285530D01*
X0167306Y0292737D01*
X0167000Y0291997D01*
X0167000Y0291228D01*
X0164000Y0288228D01*
X0164000Y0276728D01*
X0146957Y0259686D01*
X0146699Y0259943D01*
X0145597Y0260400D01*
X0144403Y0260400D01*
X0143663Y0260094D01*
X0143934Y0260364D02*
X0144317Y0260364D01*
X0144933Y0261363D02*
X0148634Y0261363D01*
X0147636Y0260364D02*
X0145683Y0260364D01*
X0145931Y0262361D02*
X0149633Y0262361D01*
X0150631Y0263360D02*
X0146930Y0263360D01*
X0147928Y0264358D02*
X0151630Y0264358D01*
X0152628Y0265357D02*
X0148927Y0265357D01*
X0149925Y0266355D02*
X0153627Y0266355D01*
X0154625Y0267354D02*
X0150924Y0267354D01*
X0151922Y0268352D02*
X0155624Y0268352D01*
X0156622Y0269351D02*
X0152759Y0269351D01*
X0153245Y0270349D02*
X0157621Y0270349D01*
X0158619Y0271348D02*
X0153400Y0271348D01*
X0153288Y0272346D02*
X0159618Y0272346D01*
X0160617Y0273345D02*
X0152863Y0273345D01*
X0151779Y0274343D02*
X0161615Y0274343D01*
X0162614Y0275342D02*
X0149028Y0275342D01*
X0148029Y0276340D02*
X0163612Y0276340D01*
X0164000Y0277339D02*
X0147100Y0277339D01*
X0147100Y0278337D02*
X0148509Y0278337D01*
X0147256Y0279336D02*
X0147100Y0279336D01*
X0142900Y0279336D02*
X0142744Y0279336D01*
X0142900Y0278337D02*
X0141491Y0278337D01*
X0142900Y0277339D02*
X0137000Y0277339D01*
X0137000Y0278337D02*
X0138509Y0278337D01*
X0137000Y0276340D02*
X0142900Y0276340D01*
X0143088Y0275342D02*
X0137000Y0275342D01*
X0137000Y0274343D02*
X0138221Y0274343D01*
X0137137Y0273345D02*
X0137000Y0273345D01*
X0137000Y0269351D02*
X0137241Y0269351D01*
X0136281Y0268352D02*
X0138473Y0268352D01*
X0141527Y0268352D02*
X0145983Y0268352D01*
X0146981Y0269351D02*
X0142759Y0269351D01*
X0143245Y0270349D02*
X0146755Y0270349D01*
X0146600Y0271348D02*
X0143400Y0271348D01*
X0143288Y0272346D02*
X0146084Y0272346D01*
X0145085Y0273345D02*
X0142863Y0273345D01*
X0141779Y0274343D02*
X0144087Y0274343D01*
X0144984Y0267354D02*
X0135282Y0267354D01*
X0134284Y0266355D02*
X0143986Y0266355D01*
X0142987Y0265357D02*
X0133285Y0265357D01*
X0132500Y0264358D02*
X0141988Y0264358D01*
X0140990Y0263360D02*
X0132316Y0263360D01*
X0131704Y0262361D02*
X0139991Y0262361D01*
X0138993Y0261363D02*
X0069205Y0261363D01*
X0069817Y0262361D02*
X0127296Y0262361D01*
X0126684Y0263360D02*
X0070000Y0263360D01*
X0070787Y0264358D02*
X0126500Y0264358D01*
X0125715Y0265357D02*
X0107199Y0265357D01*
X0102801Y0265357D02*
X0071785Y0265357D01*
X0072784Y0266355D02*
X0102186Y0266355D01*
X0102000Y0267354D02*
X0073782Y0267354D01*
X0074781Y0268352D02*
X0102147Y0268352D01*
X0102708Y0269351D02*
X0075779Y0269351D01*
X0076778Y0270349D02*
X0104281Y0270349D01*
X0105719Y0270349D02*
X0132621Y0270349D01*
X0133000Y0271348D02*
X0077776Y0271348D01*
X0078775Y0272346D02*
X0133000Y0272346D01*
X0133000Y0273345D02*
X0079773Y0273345D01*
X0080772Y0274343D02*
X0133000Y0274343D01*
X0133000Y0275342D02*
X0081770Y0275342D01*
X0082769Y0276340D02*
X0133000Y0276340D01*
X0133000Y0277339D02*
X0083767Y0277339D01*
X0084766Y0278337D02*
X0133000Y0278337D01*
X0133000Y0279336D02*
X0085764Y0279336D01*
X0086763Y0280334D02*
X0133106Y0280334D01*
X0134105Y0281333D02*
X0087761Y0281333D01*
X0088760Y0282332D02*
X0135103Y0282332D01*
X0136102Y0283330D02*
X0089758Y0283330D01*
X0090757Y0284329D02*
X0138186Y0284329D01*
X0141814Y0284329D02*
X0142900Y0284329D01*
X0142900Y0285327D02*
X0091755Y0285327D01*
X0092754Y0286326D02*
X0142900Y0286326D01*
X0142900Y0287324D02*
X0093752Y0287324D01*
X0094751Y0288323D02*
X0138545Y0288323D01*
X0137271Y0289321D02*
X0095750Y0289321D01*
X0096748Y0290320D02*
X0136767Y0290320D01*
X0136600Y0291318D02*
X0097747Y0291318D01*
X0098745Y0292317D02*
X0136700Y0292317D01*
X0137113Y0293315D02*
X0099744Y0293315D01*
X0100742Y0294314D02*
X0138150Y0294314D01*
X0141850Y0294314D02*
X0144195Y0294314D01*
X0145805Y0294314D02*
X0148672Y0294314D01*
X0150000Y0294314D02*
X0150000Y0294314D01*
X0150000Y0293315D02*
X0150000Y0293315D01*
X0150000Y0292317D02*
X0150000Y0292317D01*
X0151328Y0294314D02*
X0162944Y0294314D01*
X0161945Y0293315D02*
X0152569Y0293315D01*
X0153080Y0292317D02*
X0160947Y0292317D01*
X0159948Y0291318D02*
X0153200Y0291318D01*
X0153016Y0290320D02*
X0158950Y0290320D01*
X0157951Y0289321D02*
X0152447Y0289321D01*
X0152878Y0283330D02*
X0164000Y0283330D01*
X0164000Y0282332D02*
X0153294Y0282332D01*
X0153400Y0281333D02*
X0164000Y0281333D01*
X0164000Y0280334D02*
X0153239Y0280334D01*
X0152744Y0279336D02*
X0164000Y0279336D01*
X0164000Y0278337D02*
X0151491Y0278337D01*
X0158898Y0284329D02*
X0164000Y0284329D01*
X0164000Y0285327D02*
X0159897Y0285327D01*
X0160895Y0286326D02*
X0164000Y0286326D01*
X0164000Y0287324D02*
X0161894Y0287324D01*
X0162892Y0288323D02*
X0164094Y0288323D01*
X0163891Y0289321D02*
X0165093Y0289321D01*
X0164889Y0290320D02*
X0166091Y0290320D01*
X0165888Y0291318D02*
X0167000Y0291318D01*
X0166886Y0292317D02*
X0167133Y0292317D01*
X0168883Y0294314D02*
X0169195Y0294314D01*
X0169882Y0295312D02*
X0219118Y0295312D01*
X0220116Y0294314D02*
X0200805Y0294314D01*
X0199195Y0294314D02*
X0170805Y0294314D01*
X0172327Y0293315D02*
X0197673Y0293315D01*
X0197133Y0292317D02*
X0172867Y0292317D01*
X0173000Y0291318D02*
X0197000Y0291318D01*
X0197200Y0290320D02*
X0172800Y0290320D01*
X0172164Y0289321D02*
X0197836Y0289321D01*
X0195780Y0287324D02*
X0201136Y0287324D01*
X0201000Y0286326D02*
X0197317Y0286326D01*
X0197863Y0285327D02*
X0201197Y0285327D01*
X0201829Y0284329D02*
X0198000Y0284329D01*
X0197804Y0283330D02*
X0202000Y0283330D01*
X0202000Y0282332D02*
X0197174Y0282332D01*
X0197000Y0281333D02*
X0202000Y0281333D01*
X0202000Y0280334D02*
X0197000Y0280334D01*
X0197000Y0279336D02*
X0202000Y0279336D01*
X0202000Y0278337D02*
X0197000Y0278337D01*
X0196767Y0277339D02*
X0202000Y0277339D01*
X0202000Y0276340D02*
X0195769Y0276340D01*
X0194770Y0275342D02*
X0202000Y0275342D01*
X0202000Y0274343D02*
X0175772Y0274343D01*
X0174773Y0273345D02*
X0202000Y0273345D01*
X0202000Y0272346D02*
X0173775Y0272346D01*
X0172776Y0271348D02*
X0202000Y0271348D01*
X0202222Y0270349D02*
X0171778Y0270349D01*
X0170779Y0269351D02*
X0203221Y0269351D01*
X0204219Y0268352D02*
X0169781Y0268352D01*
X0168782Y0267354D02*
X0205218Y0267354D01*
X0206216Y0266355D02*
X0167784Y0266355D01*
X0166785Y0265357D02*
X0207215Y0265357D01*
X0208213Y0264358D02*
X0165787Y0264358D01*
X0164788Y0263360D02*
X0227821Y0263360D01*
X0227821Y0264358D02*
X0221787Y0264358D01*
X0224111Y0265357D02*
X0227821Y0265357D01*
X0227821Y0266355D02*
X0224200Y0266355D01*
X0224200Y0267354D02*
X0227821Y0267354D01*
X0227821Y0268352D02*
X0224200Y0268352D01*
X0224421Y0269351D02*
X0227821Y0269351D01*
X0227821Y0270349D02*
X0225419Y0270349D01*
X0226418Y0271348D02*
X0227821Y0271348D01*
X0227821Y0272346D02*
X0227100Y0272346D01*
X0227100Y0273345D02*
X0227821Y0273345D01*
X0227821Y0274343D02*
X0227100Y0274343D01*
X0227100Y0275342D02*
X0227821Y0275342D01*
X0227821Y0276340D02*
X0227100Y0276340D01*
X0227100Y0277339D02*
X0227821Y0277339D01*
X0227821Y0278337D02*
X0227100Y0278337D01*
X0227100Y0279336D02*
X0227821Y0279336D01*
X0227821Y0280334D02*
X0227100Y0280334D01*
X0227100Y0281333D02*
X0227821Y0281333D01*
X0227821Y0282332D02*
X0227100Y0282332D01*
X0227100Y0283330D02*
X0227821Y0283330D01*
X0227821Y0284329D02*
X0227100Y0284329D01*
X0227100Y0285327D02*
X0227821Y0285327D01*
X0227821Y0286326D02*
X0227100Y0286326D01*
X0227100Y0287324D02*
X0227821Y0287324D01*
X0227821Y0288323D02*
X0227100Y0288323D01*
X0227100Y0289321D02*
X0227821Y0289321D01*
X0227821Y0290320D02*
X0227100Y0290320D01*
X0227100Y0291318D02*
X0227821Y0291318D01*
X0227821Y0292317D02*
X0227100Y0292317D01*
X0227055Y0293315D02*
X0227821Y0293315D01*
X0227821Y0294314D02*
X0226056Y0294314D01*
X0225058Y0295312D02*
X0227821Y0295312D01*
X0227821Y0296311D02*
X0224059Y0296311D01*
X0223061Y0297309D02*
X0227821Y0297309D01*
X0227821Y0298308D02*
X0222062Y0298308D01*
X0221064Y0299306D02*
X0227821Y0299306D01*
X0227821Y0300305D02*
X0220065Y0300305D01*
X0219067Y0301303D02*
X0227821Y0301303D01*
X0227821Y0302302D02*
X0218068Y0302302D01*
X0217070Y0303300D02*
X0227821Y0303300D01*
X0227821Y0304299D02*
X0216071Y0304299D01*
X0215073Y0305297D02*
X0227821Y0305297D01*
X0227821Y0306296D02*
X0214074Y0306296D01*
X0212128Y0302302D02*
X0205567Y0302302D01*
X0202433Y0302302D02*
X0176872Y0302302D01*
X0177870Y0303300D02*
X0201415Y0303300D01*
X0201002Y0304299D02*
X0190059Y0304299D01*
X0186941Y0304299D02*
X0178869Y0304299D01*
X0175924Y0307294D02*
X0166350Y0307294D01*
X0166350Y0306296D02*
X0174926Y0306296D01*
X0173927Y0305297D02*
X0165869Y0305297D01*
X0165771Y0305200D02*
X0166050Y0305479D01*
X0166248Y0305821D01*
X0166350Y0306203D01*
X0166350Y0308775D01*
X0163725Y0308775D01*
X0163725Y0309025D01*
X0163475Y0309025D01*
X0163475Y0312900D01*
X0162554Y0312900D01*
X0162354Y0313100D01*
X0158446Y0313100D01*
X0157450Y0312104D01*
X0157450Y0311000D01*
X0157143Y0311000D01*
X0156699Y0311443D01*
X0155597Y0311900D01*
X0154403Y0311900D01*
X0153301Y0311443D01*
X0152457Y0310599D01*
X0152000Y0309497D01*
X0152000Y0308303D01*
X0152457Y0307201D01*
X0153301Y0306357D01*
X0154403Y0305900D01*
X0155597Y0305900D01*
X0156699Y0306357D01*
X0157143Y0306800D01*
X0157450Y0306800D01*
X0157450Y0305696D01*
X0158446Y0304700D01*
X0162354Y0304700D01*
X0162554Y0304900D01*
X0163475Y0304900D01*
X0163475Y0308775D01*
X0163725Y0308775D01*
X0163725Y0304900D01*
X0165047Y0304900D01*
X0165429Y0305002D01*
X0165771Y0305200D01*
X0163725Y0305297D02*
X0163475Y0305297D01*
X0163475Y0306296D02*
X0163725Y0306296D01*
X0163725Y0307294D02*
X0163475Y0307294D01*
X0163475Y0308293D02*
X0163725Y0308293D01*
X0163725Y0309025D02*
X0166350Y0309025D01*
X0166350Y0311597D01*
X0166248Y0311979D01*
X0166050Y0312321D01*
X0165771Y0312600D01*
X0165429Y0312798D01*
X0165047Y0312900D01*
X0163725Y0312900D01*
X0163725Y0309025D01*
X0163725Y0309291D02*
X0163475Y0309291D01*
X0163475Y0310290D02*
X0163725Y0310290D01*
X0163725Y0311288D02*
X0163475Y0311288D01*
X0163475Y0312287D02*
X0163725Y0312287D01*
X0166070Y0312287D02*
X0227821Y0312287D01*
X0227821Y0313285D02*
X0152000Y0313285D01*
X0152000Y0313497D02*
X0151543Y0314599D01*
X0150699Y0315443D01*
X0149597Y0315900D01*
X0148403Y0315900D01*
X0147301Y0315443D01*
X0146457Y0314599D01*
X0146000Y0313497D01*
X0146000Y0312870D01*
X0138757Y0305627D01*
X0138097Y0305900D01*
X0136903Y0305900D01*
X0135801Y0305443D01*
X0134957Y0304599D01*
X0134500Y0303497D01*
X0134500Y0302303D01*
X0134957Y0301201D01*
X0135801Y0300357D01*
X0136903Y0299900D01*
X0138097Y0299900D01*
X0139199Y0300357D01*
X0139643Y0300800D01*
X0139870Y0300800D01*
X0148970Y0309900D01*
X0149597Y0309900D01*
X0150699Y0310357D01*
X0151543Y0311201D01*
X0152000Y0312303D01*
X0152000Y0313497D01*
X0151674Y0314284D02*
X0227821Y0314284D01*
X0227821Y0315282D02*
X0150860Y0315282D01*
X0151993Y0312287D02*
X0157633Y0312287D01*
X0157450Y0311288D02*
X0156854Y0311288D01*
X0153146Y0311288D02*
X0151580Y0311288D01*
X0152329Y0310290D02*
X0150538Y0310290D01*
X0152000Y0309291D02*
X0148361Y0309291D01*
X0147363Y0308293D02*
X0152004Y0308293D01*
X0152418Y0307294D02*
X0146364Y0307294D01*
X0145366Y0306296D02*
X0153448Y0306296D01*
X0156552Y0306296D02*
X0157450Y0306296D01*
X0157849Y0305297D02*
X0144367Y0305297D01*
X0143369Y0304299D02*
X0172929Y0304299D01*
X0171930Y0303300D02*
X0142370Y0303300D01*
X0141372Y0302302D02*
X0170932Y0302302D01*
X0169933Y0301303D02*
X0140373Y0301303D01*
X0139074Y0300305D02*
X0160662Y0300305D01*
X0164338Y0300305D02*
X0168935Y0300305D01*
X0167936Y0299306D02*
X0165165Y0299306D01*
X0165500Y0298308D02*
X0166938Y0298308D01*
X0165939Y0297309D02*
X0165500Y0297309D01*
X0160908Y0295312D02*
X0101741Y0295312D01*
X0099079Y0298308D02*
X0032100Y0298308D01*
X0032100Y0299306D02*
X0100078Y0299306D01*
X0098081Y0297309D02*
X0032100Y0297309D01*
X0032100Y0296311D02*
X0097082Y0296311D01*
X0096084Y0295312D02*
X0032100Y0295312D01*
X0032100Y0294314D02*
X0095085Y0294314D01*
X0094087Y0293315D02*
X0032100Y0293315D01*
X0032100Y0292317D02*
X0093088Y0292317D01*
X0092090Y0291318D02*
X0032100Y0291318D01*
X0032100Y0290320D02*
X0091091Y0290320D01*
X0090093Y0289321D02*
X0032100Y0289321D01*
X0032100Y0288323D02*
X0089094Y0288323D01*
X0088096Y0287324D02*
X0032100Y0287324D01*
X0032100Y0286326D02*
X0087097Y0286326D01*
X0086099Y0285327D02*
X0032100Y0285327D01*
X0032100Y0284329D02*
X0085100Y0284329D01*
X0084102Y0283330D02*
X0032100Y0283330D01*
X0032100Y0282332D02*
X0083103Y0282332D01*
X0082105Y0281333D02*
X0032100Y0281333D01*
X0032100Y0280334D02*
X0081106Y0280334D01*
X0080108Y0279336D02*
X0032100Y0279336D01*
X0032100Y0278337D02*
X0079109Y0278337D01*
X0078111Y0277339D02*
X0032100Y0277339D01*
X0032669Y0276340D02*
X0077112Y0276340D01*
X0076114Y0275342D02*
X0033668Y0275342D01*
X0038603Y0274343D02*
X0075115Y0274343D01*
X0074116Y0273345D02*
X0039601Y0273345D01*
X0039705Y0272346D02*
X0073118Y0272346D01*
X0072119Y0271348D02*
X0039676Y0271348D01*
X0038677Y0270349D02*
X0071121Y0270349D01*
X0070122Y0269351D02*
X0038134Y0269351D01*
X0039133Y0268352D02*
X0069124Y0268352D01*
X0068125Y0267354D02*
X0039705Y0267354D01*
X0039705Y0266355D02*
X0066295Y0266355D01*
X0064714Y0265357D02*
X0039705Y0265357D01*
X0039705Y0264358D02*
X0064150Y0264358D01*
X0064000Y0263360D02*
X0039117Y0263360D01*
X0039509Y0262361D02*
X0064183Y0262361D01*
X0064795Y0261363D02*
X0039745Y0261363D01*
X0039545Y0260364D02*
X0137994Y0260364D01*
X0136321Y0259366D02*
X0038638Y0259366D01*
X0039566Y0258367D02*
X0134725Y0258367D01*
X0134154Y0257369D02*
X0039766Y0257369D01*
X0039439Y0256370D02*
X0134000Y0256370D01*
X0134179Y0255372D02*
X0042834Y0255372D01*
X0047404Y0252376D02*
X0148000Y0252376D01*
X0148000Y0251378D02*
X0047980Y0251378D01*
X0048557Y0250379D02*
X0148000Y0250379D01*
X0148000Y0249381D02*
X0049019Y0249381D01*
X0049195Y0248382D02*
X0148000Y0248382D01*
X0146350Y0245387D02*
X0143650Y0245387D01*
X0144607Y0244388D02*
X0145393Y0244388D01*
X0147214Y0255372D02*
X0148000Y0255372D01*
X0152000Y0254572D02*
X0152000Y0246416D01*
X0153059Y0245978D01*
X0154578Y0244459D01*
X0155000Y0243440D01*
X0155422Y0244459D01*
X0156941Y0245978D01*
X0158000Y0246416D01*
X0158000Y0260572D01*
X0152000Y0254572D01*
X0152000Y0254373D02*
X0158000Y0254373D01*
X0158000Y0253375D02*
X0152000Y0253375D01*
X0152000Y0252376D02*
X0158000Y0252376D01*
X0158000Y0251378D02*
X0152000Y0251378D01*
X0152000Y0250379D02*
X0158000Y0250379D01*
X0158000Y0249381D02*
X0152000Y0249381D01*
X0152000Y0248382D02*
X0158000Y0248382D01*
X0158000Y0247384D02*
X0152000Y0247384D01*
X0152076Y0246385D02*
X0157924Y0246385D01*
X0156350Y0245387D02*
X0153650Y0245387D01*
X0154607Y0244388D02*
X0155393Y0244388D01*
X0152800Y0255372D02*
X0158000Y0255372D01*
X0158000Y0256370D02*
X0153799Y0256370D01*
X0154797Y0257369D02*
X0158000Y0257369D01*
X0158000Y0258367D02*
X0155796Y0258367D01*
X0156794Y0259366D02*
X0158000Y0259366D01*
X0158000Y0260364D02*
X0157793Y0260364D01*
X0162000Y0260364D02*
X0227821Y0260364D01*
X0227821Y0259366D02*
X0162000Y0259366D01*
X0162000Y0258367D02*
X0227821Y0258367D01*
X0227821Y0257369D02*
X0162000Y0257369D01*
X0162000Y0256370D02*
X0164331Y0256370D01*
X0165669Y0256370D02*
X0227821Y0256370D01*
X0227821Y0255372D02*
X0222834Y0255372D01*
X0225122Y0254373D02*
X0227821Y0254373D01*
X0227821Y0253375D02*
X0226312Y0253375D01*
X0227404Y0252376D02*
X0227821Y0252376D01*
X0227821Y0261363D02*
X0162791Y0261363D01*
X0163790Y0262361D02*
X0227821Y0262361D01*
X0220000Y0267400D02*
X0220000Y0271400D01*
X0220000Y0275400D01*
X0220892Y0279336D02*
X0222900Y0279336D01*
X0222900Y0280334D02*
X0219894Y0280334D01*
X0218895Y0281333D02*
X0222900Y0281333D01*
X0222900Y0282332D02*
X0217897Y0282332D01*
X0216898Y0283330D02*
X0222900Y0283330D01*
X0222900Y0284329D02*
X0215900Y0284329D01*
X0214901Y0285327D02*
X0222900Y0285327D01*
X0222900Y0286326D02*
X0213903Y0286326D01*
X0212904Y0287324D02*
X0222900Y0287324D01*
X0222900Y0288323D02*
X0211906Y0288323D01*
X0210907Y0289321D02*
X0222900Y0289321D01*
X0222900Y0290320D02*
X0209909Y0290320D01*
X0208910Y0291318D02*
X0222900Y0291318D01*
X0222114Y0292317D02*
X0207912Y0292317D01*
X0206913Y0293315D02*
X0221115Y0293315D01*
X0218119Y0296311D02*
X0170881Y0296311D01*
X0171879Y0297309D02*
X0217121Y0297309D01*
X0216122Y0298308D02*
X0172878Y0298308D01*
X0173876Y0299306D02*
X0215124Y0299306D01*
X0214125Y0300305D02*
X0174875Y0300305D01*
X0175873Y0301303D02*
X0213127Y0301303D01*
X0205848Y0307294D02*
X0227821Y0307294D01*
X0227821Y0308293D02*
X0203577Y0308293D01*
X0190351Y0309291D02*
X0227821Y0309291D01*
X0227821Y0310290D02*
X0166350Y0310290D01*
X0166350Y0311288D02*
X0227821Y0311288D01*
X0227821Y0316281D02*
X0032100Y0316281D01*
X0032100Y0315282D02*
X0147140Y0315282D01*
X0146326Y0314284D02*
X0032100Y0314284D01*
X0032100Y0313285D02*
X0146000Y0313285D01*
X0145417Y0312287D02*
X0032100Y0312287D01*
X0032100Y0311288D02*
X0144419Y0311288D01*
X0143420Y0310290D02*
X0032100Y0310290D01*
X0032100Y0309291D02*
X0142421Y0309291D01*
X0141423Y0308293D02*
X0032100Y0308293D01*
X0032100Y0307294D02*
X0140424Y0307294D01*
X0139426Y0306296D02*
X0032100Y0306296D01*
X0032100Y0305297D02*
X0135655Y0305297D01*
X0134832Y0304299D02*
X0032100Y0304299D01*
X0032100Y0303300D02*
X0134500Y0303300D01*
X0134501Y0302302D02*
X0032100Y0302302D01*
X0032100Y0301303D02*
X0134914Y0301303D01*
X0135926Y0300305D02*
X0032100Y0300305D01*
X0045209Y0399201D02*
X0047312Y0400965D01*
X0048969Y0403836D01*
X0049545Y0407101D01*
X0048969Y0410365D01*
X0048969Y0410365D01*
X0047312Y0413236D01*
X0047312Y0413236D01*
X0044773Y0415367D01*
X0044772Y0415367D01*
X0041657Y0416501D01*
X0039059Y0416501D01*
X0039844Y0417678D01*
X0039479Y0419506D01*
X0038559Y0420119D01*
X0039479Y0420732D01*
X0039844Y0422560D01*
X0038953Y0423897D01*
X0039705Y0424648D01*
X0039705Y0428481D01*
X0038926Y0429259D01*
X0038387Y0429799D01*
X0038226Y0429960D01*
X0037906Y0430279D01*
X0038387Y0430760D01*
X0038625Y0430999D01*
X0039705Y0432078D01*
X0039705Y0433942D01*
X0039036Y0434611D01*
X0038387Y0435260D01*
X0033800Y0435260D01*
X0033800Y0435910D01*
X0032482Y0437228D01*
X0032100Y0437228D01*
X0032100Y0477101D01*
X0227821Y0477101D01*
X0227821Y0412354D01*
X0227312Y0413236D01*
X0224773Y0415367D01*
X0224772Y0415367D01*
X0221657Y0416501D01*
X0218343Y0416501D01*
X0215227Y0415367D01*
X0212688Y0413236D01*
X0211031Y0410365D01*
X0210455Y0407101D01*
X0210455Y0407101D01*
X0211031Y0403836D01*
X0212688Y0400965D01*
X0214791Y0399201D01*
X0174644Y0399201D01*
X0175400Y0401027D01*
X0175400Y0403175D01*
X0174578Y0405160D01*
X0173059Y0406679D01*
X0171074Y0407501D01*
X0168926Y0407501D01*
X0167867Y0407062D01*
X0167000Y0407929D01*
X0167000Y0411858D01*
X0167543Y0412401D01*
X0168000Y0413504D01*
X0168000Y0414698D01*
X0167543Y0415800D01*
X0166699Y0416644D01*
X0165597Y0417101D01*
X0164403Y0417101D01*
X0163301Y0416644D01*
X0162457Y0415800D01*
X0162000Y0414698D01*
X0162000Y0413504D01*
X0162457Y0412401D01*
X0163000Y0411858D01*
X0163000Y0406703D01*
X0162000Y0407117D01*
X0162000Y0421272D01*
X0175828Y0435101D01*
X0193828Y0435101D01*
X0195828Y0437101D01*
X0202000Y0437101D01*
X0202000Y0438099D02*
X0196827Y0438099D01*
X0197000Y0438272D02*
X0197000Y0442858D01*
X0197543Y0443401D01*
X0198000Y0444504D01*
X0198000Y0445698D01*
X0197543Y0446800D01*
X0196699Y0447644D01*
X0195597Y0448101D01*
X0194403Y0448101D01*
X0193301Y0447644D01*
X0192757Y0447101D01*
X0172243Y0447101D01*
X0171699Y0447644D01*
X0170597Y0448101D01*
X0169403Y0448101D01*
X0168422Y0447694D01*
X0169828Y0449101D01*
X0170597Y0449101D01*
X0171699Y0449558D01*
X0172543Y0450401D01*
X0173000Y0451504D01*
X0173000Y0452698D01*
X0172543Y0453800D01*
X0171699Y0454644D01*
X0170597Y0455101D01*
X0169403Y0455101D01*
X0168663Y0454794D01*
X0179370Y0465501D01*
X0186357Y0465501D01*
X0186801Y0465058D01*
X0187903Y0464601D01*
X0189097Y0464601D01*
X0190199Y0465058D01*
X0190643Y0465501D01*
X0201000Y0465501D01*
X0201000Y0465004D01*
X0201457Y0463901D01*
X0202301Y0463058D01*
X0203403Y0462601D01*
X0204597Y0462601D01*
X0205699Y0463058D01*
X0206143Y0463501D01*
X0211630Y0463501D01*
X0222900Y0452231D01*
X0222900Y0439051D01*
X0221878Y0439051D01*
X0220828Y0440101D01*
X0206828Y0454101D01*
X0202243Y0454101D01*
X0201699Y0454644D01*
X0200597Y0455101D01*
X0199403Y0455101D01*
X0198301Y0454644D01*
X0197457Y0453800D01*
X0197000Y0452698D01*
X0197000Y0451504D01*
X0197457Y0450401D01*
X0198301Y0449558D01*
X0199403Y0449101D01*
X0200597Y0449101D01*
X0201699Y0449558D01*
X0202243Y0450101D01*
X0205172Y0450101D01*
X0205578Y0449694D01*
X0204597Y0450101D01*
X0203403Y0450101D01*
X0202301Y0449644D01*
X0201457Y0448800D01*
X0201000Y0447698D01*
X0201000Y0446504D01*
X0201457Y0445401D01*
X0202000Y0444858D01*
X0202000Y0431272D01*
X0208000Y0425272D01*
X0209172Y0424101D01*
X0220828Y0424101D01*
X0221878Y0425151D01*
X0223204Y0425151D01*
X0224200Y0426147D01*
X0224200Y0430001D01*
X0224370Y0430001D01*
X0225600Y0431231D01*
X0227100Y0432731D01*
X0227100Y0453971D01*
X0225870Y0455201D01*
X0213370Y0467701D01*
X0206143Y0467701D01*
X0205699Y0468144D01*
X0204597Y0468601D01*
X0203970Y0468601D01*
X0202870Y0469701D01*
X0190643Y0469701D01*
X0190199Y0470144D01*
X0189097Y0470601D01*
X0187903Y0470601D01*
X0186801Y0470144D01*
X0186357Y0469701D01*
X0177630Y0469701D01*
X0165194Y0457264D01*
X0165500Y0458004D01*
X0165500Y0459198D01*
X0165043Y0460300D01*
X0164199Y0461144D01*
X0163097Y0461601D01*
X0161903Y0461601D01*
X0160801Y0461144D01*
X0160257Y0460601D01*
X0100672Y0460601D01*
X0099500Y0459429D01*
X0067172Y0427101D01*
X0066403Y0427101D01*
X0065301Y0426644D01*
X0064457Y0425800D01*
X0064000Y0424698D01*
X0064000Y0423504D01*
X0064457Y0422401D01*
X0065301Y0421558D01*
X0066403Y0421101D01*
X0067597Y0421101D01*
X0068699Y0421558D01*
X0069543Y0422401D01*
X0070000Y0423504D01*
X0070000Y0424272D01*
X0102328Y0456601D01*
X0160257Y0456601D01*
X0160801Y0456058D01*
X0161903Y0455601D01*
X0163097Y0455601D01*
X0163837Y0455907D01*
X0157130Y0449201D01*
X0151361Y0449201D01*
X0151516Y0449265D01*
X0152040Y0449615D01*
X0152486Y0450061D01*
X0152836Y0450585D01*
X0153077Y0451167D01*
X0153200Y0451786D01*
X0153200Y0452101D01*
X0153200Y0452416D01*
X0153077Y0453034D01*
X0152836Y0453617D01*
X0152486Y0454141D01*
X0152040Y0454586D01*
X0151516Y0454937D01*
X0150933Y0455178D01*
X0150315Y0455301D01*
X0150000Y0455301D01*
X0150000Y0452101D01*
X0150000Y0452101D01*
X0150000Y0455301D01*
X0149685Y0455301D01*
X0149067Y0455178D01*
X0148484Y0454937D01*
X0147960Y0454586D01*
X0147514Y0454141D01*
X0147390Y0453954D01*
X0146699Y0454644D01*
X0145597Y0455101D01*
X0144403Y0455101D01*
X0143301Y0454644D01*
X0142783Y0454126D01*
X0141926Y0454983D01*
X0140676Y0455501D01*
X0139324Y0455501D01*
X0138074Y0454983D01*
X0137118Y0454027D01*
X0136600Y0452777D01*
X0136600Y0451424D01*
X0137118Y0450175D01*
X0138074Y0449218D01*
X0139324Y0448701D01*
X0140676Y0448701D01*
X0141926Y0449218D01*
X0142783Y0450075D01*
X0142900Y0449958D01*
X0142900Y0443984D01*
X0142882Y0444027D01*
X0141926Y0444983D01*
X0140676Y0445501D01*
X0139324Y0445501D01*
X0138074Y0444983D01*
X0137192Y0444101D01*
X0136172Y0444101D01*
X0134172Y0442101D01*
X0133000Y0440929D01*
X0133000Y0431429D01*
X0129672Y0428101D01*
X0129328Y0428101D01*
X0127328Y0430101D01*
X0107243Y0430101D01*
X0106699Y0430644D01*
X0105597Y0431101D01*
X0104403Y0431101D01*
X0103301Y0430644D01*
X0102457Y0429800D01*
X0102000Y0428698D01*
X0102000Y0427504D01*
X0102457Y0426401D01*
X0103301Y0425558D01*
X0104403Y0425101D01*
X0105597Y0425101D01*
X0106699Y0425558D01*
X0107243Y0426101D01*
X0125672Y0426101D01*
X0126500Y0425272D01*
X0126500Y0424504D01*
X0126957Y0423401D01*
X0127801Y0422558D01*
X0128903Y0422101D01*
X0130097Y0422101D01*
X0131199Y0422558D01*
X0132043Y0423401D01*
X0132500Y0424504D01*
X0132500Y0425272D01*
X0137000Y0429772D01*
X0137000Y0430459D01*
X0137118Y0430175D01*
X0138074Y0429218D01*
X0139324Y0428701D01*
X0140676Y0428701D01*
X0141926Y0429218D01*
X0142882Y0430175D01*
X0143400Y0431424D01*
X0143400Y0432777D01*
X0142882Y0434027D01*
X0141926Y0434983D01*
X0140676Y0435501D01*
X0139324Y0435501D01*
X0138074Y0434983D01*
X0137118Y0434027D01*
X0137000Y0433743D01*
X0137000Y0439272D01*
X0137510Y0439782D01*
X0138074Y0439218D01*
X0139324Y0438701D01*
X0140676Y0438701D01*
X0141926Y0439218D01*
X0142882Y0440175D01*
X0142900Y0440217D01*
X0142900Y0436231D01*
X0146600Y0432531D01*
X0146600Y0431424D01*
X0147114Y0430184D01*
X0137030Y0420101D01*
X0136403Y0420101D01*
X0135301Y0419644D01*
X0134457Y0418800D01*
X0134000Y0417698D01*
X0134000Y0416504D01*
X0134457Y0415401D01*
X0135301Y0414558D01*
X0136403Y0414101D01*
X0137597Y0414101D01*
X0138699Y0414558D01*
X0139543Y0415401D01*
X0140000Y0416504D01*
X0140000Y0417131D01*
X0142306Y0419437D01*
X0142000Y0418698D01*
X0142000Y0417504D01*
X0142457Y0416401D01*
X0143301Y0415558D01*
X0144403Y0415101D01*
X0145597Y0415101D01*
X0146699Y0415558D01*
X0147243Y0416101D01*
X0148000Y0416101D01*
X0148000Y0407117D01*
X0146941Y0406679D01*
X0145422Y0405160D01*
X0145000Y0404141D01*
X0144578Y0405160D01*
X0143059Y0406679D01*
X0141074Y0407501D01*
X0138926Y0407501D01*
X0136941Y0406679D01*
X0135422Y0405160D01*
X0134891Y0403877D01*
X0134819Y0404097D01*
X0134447Y0404826D01*
X0133966Y0405488D01*
X0133388Y0406067D01*
X0132725Y0406548D01*
X0131996Y0406920D01*
X0131218Y0407173D01*
X0130500Y0407286D01*
X0130500Y0402601D01*
X0129500Y0402601D01*
X0129500Y0407286D01*
X0128782Y0407173D01*
X0128004Y0406920D01*
X0127275Y0406548D01*
X0126612Y0406067D01*
X0126034Y0405488D01*
X0125553Y0404826D01*
X0125181Y0404097D01*
X0124928Y0403318D01*
X0124814Y0402601D01*
X0129500Y0402601D01*
X0129500Y0401601D01*
X0124814Y0401601D01*
X0124928Y0400883D01*
X0125181Y0400105D01*
X0125553Y0399375D01*
X0125679Y0399201D01*
X0045209Y0399201D01*
X0046347Y0400156D02*
X0125164Y0400156D01*
X0124885Y0401154D02*
X0047421Y0401154D01*
X0047312Y0400965D02*
X0047312Y0400965D01*
X0047312Y0400965D01*
X0047997Y0402153D02*
X0129500Y0402153D01*
X0129500Y0403151D02*
X0130500Y0403151D01*
X0130500Y0404150D02*
X0129500Y0404150D01*
X0129500Y0405148D02*
X0130500Y0405148D01*
X0130500Y0406147D02*
X0129500Y0406147D01*
X0129500Y0407145D02*
X0130500Y0407145D01*
X0131302Y0407145D02*
X0138068Y0407145D01*
X0136409Y0406147D02*
X0133278Y0406147D01*
X0134213Y0405148D02*
X0135417Y0405148D01*
X0135004Y0404150D02*
X0134792Y0404150D01*
X0128698Y0407145D02*
X0049537Y0407145D01*
X0049545Y0407101D02*
X0049545Y0407101D01*
X0049377Y0406147D02*
X0126722Y0406147D01*
X0125787Y0405148D02*
X0049201Y0405148D01*
X0049025Y0404150D02*
X0125208Y0404150D01*
X0124902Y0403151D02*
X0048574Y0403151D01*
X0048969Y0403836D02*
X0048969Y0403836D01*
X0049361Y0408144D02*
X0148000Y0408144D01*
X0148000Y0409142D02*
X0049185Y0409142D01*
X0049009Y0410141D02*
X0148000Y0410141D01*
X0148000Y0411139D02*
X0048522Y0411139D01*
X0047946Y0412138D02*
X0148000Y0412138D01*
X0148000Y0413137D02*
X0047369Y0413137D01*
X0046241Y0414135D02*
X0136321Y0414135D01*
X0137679Y0414135D02*
X0148000Y0414135D01*
X0148000Y0415134D02*
X0145676Y0415134D01*
X0144324Y0415134D02*
X0139275Y0415134D01*
X0139846Y0416132D02*
X0142726Y0416132D01*
X0142155Y0417131D02*
X0140000Y0417131D01*
X0140998Y0418129D02*
X0142000Y0418129D01*
X0141997Y0419128D02*
X0142178Y0419128D01*
X0143663Y0420794D02*
X0152100Y0429231D01*
X0152100Y0429392D01*
X0152882Y0430175D01*
X0153400Y0431424D01*
X0153400Y0432777D01*
X0152882Y0434027D01*
X0151926Y0434983D01*
X0150676Y0435501D01*
X0149570Y0435501D01*
X0147100Y0437971D01*
X0147100Y0440217D01*
X0147118Y0440175D01*
X0148074Y0439218D01*
X0149324Y0438701D01*
X0150676Y0438701D01*
X0151926Y0439218D01*
X0152882Y0440175D01*
X0153400Y0441424D01*
X0153400Y0442777D01*
X0152882Y0444027D01*
X0151926Y0444983D01*
X0151883Y0445001D01*
X0158870Y0445001D01*
X0160100Y0446231D01*
X0167306Y0453437D01*
X0167000Y0452698D01*
X0167000Y0451929D01*
X0164000Y0448929D01*
X0164000Y0437429D01*
X0146957Y0420386D01*
X0146699Y0420644D01*
X0145597Y0421101D01*
X0144403Y0421101D01*
X0143663Y0420794D01*
X0143994Y0421125D02*
X0147695Y0421125D01*
X0148694Y0422123D02*
X0144992Y0422123D01*
X0145991Y0423122D02*
X0149692Y0423122D01*
X0150691Y0424120D02*
X0146989Y0424120D01*
X0147988Y0425119D02*
X0151689Y0425119D01*
X0152688Y0426117D02*
X0148986Y0426117D01*
X0149985Y0427116D02*
X0153686Y0427116D01*
X0154685Y0428114D02*
X0150983Y0428114D01*
X0151982Y0429113D02*
X0155683Y0429113D01*
X0156682Y0430111D02*
X0152819Y0430111D01*
X0153270Y0431110D02*
X0157680Y0431110D01*
X0158679Y0432108D02*
X0153400Y0432108D01*
X0153263Y0433107D02*
X0159678Y0433107D01*
X0160676Y0434105D02*
X0152804Y0434105D01*
X0151635Y0435104D02*
X0161675Y0435104D01*
X0162673Y0436102D02*
X0148968Y0436102D01*
X0147970Y0437101D02*
X0163672Y0437101D01*
X0164000Y0438099D02*
X0147100Y0438099D01*
X0147100Y0439098D02*
X0148365Y0439098D01*
X0147196Y0440096D02*
X0147100Y0440096D01*
X0142900Y0440096D02*
X0142804Y0440096D01*
X0142900Y0439098D02*
X0141635Y0439098D01*
X0142900Y0438099D02*
X0137000Y0438099D01*
X0137000Y0437101D02*
X0142900Y0437101D01*
X0143029Y0436102D02*
X0137000Y0436102D01*
X0137000Y0435104D02*
X0138365Y0435104D01*
X0137196Y0434105D02*
X0137000Y0434105D01*
X0137000Y0430111D02*
X0137181Y0430111D01*
X0136340Y0429113D02*
X0138329Y0429113D01*
X0135342Y0428114D02*
X0145044Y0428114D01*
X0146042Y0429113D02*
X0141671Y0429113D01*
X0142819Y0430111D02*
X0147041Y0430111D01*
X0146730Y0431110D02*
X0143270Y0431110D01*
X0143400Y0432108D02*
X0146600Y0432108D01*
X0146024Y0433107D02*
X0143263Y0433107D01*
X0142804Y0434105D02*
X0145026Y0434105D01*
X0144027Y0435104D02*
X0141635Y0435104D01*
X0138365Y0439098D02*
X0137000Y0439098D01*
X0133000Y0439098D02*
X0084825Y0439098D01*
X0083827Y0438099D02*
X0133000Y0438099D01*
X0133000Y0437101D02*
X0082828Y0437101D01*
X0081830Y0436102D02*
X0133000Y0436102D01*
X0133000Y0435104D02*
X0080831Y0435104D01*
X0079833Y0434105D02*
X0133000Y0434105D01*
X0133000Y0433107D02*
X0078834Y0433107D01*
X0077836Y0432108D02*
X0133000Y0432108D01*
X0132680Y0431110D02*
X0076837Y0431110D01*
X0075839Y0430111D02*
X0102768Y0430111D01*
X0102172Y0429113D02*
X0074840Y0429113D01*
X0073842Y0428114D02*
X0102000Y0428114D01*
X0102161Y0427116D02*
X0072843Y0427116D01*
X0071845Y0426117D02*
X0102741Y0426117D01*
X0104360Y0425119D02*
X0070846Y0425119D01*
X0070000Y0424120D02*
X0126659Y0424120D01*
X0126500Y0425119D02*
X0105640Y0425119D01*
X0107232Y0430111D02*
X0131682Y0430111D01*
X0130683Y0429113D02*
X0128317Y0429113D01*
X0129315Y0428114D02*
X0129685Y0428114D01*
X0132500Y0425119D02*
X0142048Y0425119D01*
X0143047Y0426117D02*
X0133345Y0426117D01*
X0134343Y0427116D02*
X0144045Y0427116D01*
X0141049Y0424120D02*
X0132341Y0424120D01*
X0131763Y0423122D02*
X0140051Y0423122D01*
X0139052Y0422123D02*
X0130151Y0422123D01*
X0128849Y0422123D02*
X0069265Y0422123D01*
X0069842Y0423122D02*
X0127237Y0423122D01*
X0134784Y0419128D02*
X0039554Y0419128D01*
X0039754Y0418129D02*
X0134179Y0418129D01*
X0134000Y0417131D02*
X0039479Y0417131D01*
X0038569Y0420126D02*
X0137055Y0420126D01*
X0138054Y0421125D02*
X0067654Y0421125D01*
X0066346Y0421125D02*
X0039557Y0421125D01*
X0039757Y0422123D02*
X0064735Y0422123D01*
X0064158Y0423122D02*
X0039470Y0423122D01*
X0039177Y0424120D02*
X0064000Y0424120D01*
X0064174Y0425119D02*
X0039705Y0425119D01*
X0039705Y0426117D02*
X0064774Y0426117D01*
X0067186Y0427116D02*
X0039705Y0427116D01*
X0039705Y0428114D02*
X0068185Y0428114D01*
X0069183Y0429113D02*
X0039073Y0429113D01*
X0038387Y0429799D02*
X0038387Y0429799D01*
X0038075Y0430111D02*
X0070182Y0430111D01*
X0071180Y0431110D02*
X0038737Y0431110D01*
X0038387Y0430760D02*
X0038387Y0430760D01*
X0039705Y0432108D02*
X0072179Y0432108D01*
X0073178Y0433107D02*
X0039705Y0433107D01*
X0039542Y0434105D02*
X0074176Y0434105D01*
X0075175Y0435104D02*
X0038543Y0435104D01*
X0033608Y0436102D02*
X0076173Y0436102D01*
X0077172Y0437101D02*
X0032610Y0437101D01*
X0032100Y0438099D02*
X0078170Y0438099D01*
X0079169Y0439098D02*
X0032100Y0439098D01*
X0032100Y0440096D02*
X0080167Y0440096D01*
X0081166Y0441095D02*
X0032100Y0441095D01*
X0032100Y0442093D02*
X0082164Y0442093D01*
X0083163Y0443092D02*
X0032100Y0443092D01*
X0032100Y0444090D02*
X0084161Y0444090D01*
X0085160Y0445089D02*
X0032100Y0445089D01*
X0032100Y0446087D02*
X0086158Y0446087D01*
X0087157Y0447086D02*
X0032100Y0447086D01*
X0032100Y0448084D02*
X0088155Y0448084D01*
X0089154Y0449083D02*
X0032100Y0449083D01*
X0032100Y0450081D02*
X0090152Y0450081D01*
X0091151Y0451080D02*
X0032100Y0451080D01*
X0032100Y0452078D02*
X0092149Y0452078D01*
X0093148Y0453077D02*
X0032100Y0453077D01*
X0032100Y0454075D02*
X0094146Y0454075D01*
X0095145Y0455074D02*
X0032100Y0455074D01*
X0032100Y0456072D02*
X0096143Y0456072D01*
X0097142Y0457071D02*
X0032100Y0457071D01*
X0032100Y0458070D02*
X0098140Y0458070D01*
X0099139Y0459068D02*
X0032100Y0459068D01*
X0032100Y0460067D02*
X0100137Y0460067D01*
X0101800Y0456072D02*
X0160786Y0456072D01*
X0162005Y0454075D02*
X0152529Y0454075D01*
X0153059Y0453077D02*
X0161006Y0453077D01*
X0160008Y0452078D02*
X0153200Y0452078D01*
X0153200Y0452101D02*
X0150000Y0452101D01*
X0153200Y0452101D01*
X0153041Y0451080D02*
X0159009Y0451080D01*
X0158011Y0450081D02*
X0152499Y0450081D01*
X0150000Y0452101D02*
X0150000Y0452101D01*
X0150000Y0453077D02*
X0150000Y0453077D01*
X0150000Y0454075D02*
X0150000Y0454075D01*
X0150000Y0455074D02*
X0150000Y0455074D01*
X0148816Y0455074D02*
X0145661Y0455074D01*
X0144339Y0455074D02*
X0141707Y0455074D01*
X0138293Y0455074D02*
X0100802Y0455074D01*
X0099803Y0454075D02*
X0137166Y0454075D01*
X0136724Y0453077D02*
X0098805Y0453077D01*
X0097806Y0452078D02*
X0136600Y0452078D01*
X0136743Y0451080D02*
X0096808Y0451080D01*
X0095809Y0450081D02*
X0137211Y0450081D01*
X0138401Y0449083D02*
X0094811Y0449083D01*
X0093812Y0448084D02*
X0142900Y0448084D01*
X0142900Y0447086D02*
X0092814Y0447086D01*
X0091815Y0446087D02*
X0142900Y0446087D01*
X0142900Y0445089D02*
X0141671Y0445089D01*
X0142819Y0444090D02*
X0142900Y0444090D01*
X0138329Y0445089D02*
X0090816Y0445089D01*
X0089818Y0444090D02*
X0136161Y0444090D01*
X0135163Y0443092D02*
X0088819Y0443092D01*
X0087821Y0442093D02*
X0134164Y0442093D01*
X0133166Y0441095D02*
X0086822Y0441095D01*
X0085824Y0440096D02*
X0133000Y0440096D01*
X0141599Y0449083D02*
X0142900Y0449083D01*
X0147268Y0454075D02*
X0147471Y0454075D01*
X0151184Y0455074D02*
X0163003Y0455074D01*
X0165500Y0458070D02*
X0165999Y0458070D01*
X0165500Y0459068D02*
X0166997Y0459068D01*
X0167996Y0460067D02*
X0165140Y0460067D01*
X0164278Y0461065D02*
X0168994Y0461065D01*
X0169993Y0462064D02*
X0140433Y0462064D01*
X0139870Y0461501D02*
X0148970Y0470601D01*
X0149597Y0470601D01*
X0150699Y0471058D01*
X0151543Y0471901D01*
X0152000Y0473004D01*
X0152000Y0474198D01*
X0151543Y0475300D01*
X0150699Y0476144D01*
X0149597Y0476601D01*
X0148403Y0476601D01*
X0147301Y0476144D01*
X0146457Y0475300D01*
X0146000Y0474198D01*
X0146000Y0473571D01*
X0138757Y0466327D01*
X0138097Y0466601D01*
X0136903Y0466601D01*
X0135801Y0466144D01*
X0134957Y0465300D01*
X0134500Y0464198D01*
X0134500Y0463004D01*
X0134957Y0461901D01*
X0135801Y0461058D01*
X0136903Y0460601D01*
X0138097Y0460601D01*
X0139199Y0461058D01*
X0139643Y0461501D01*
X0139870Y0461501D01*
X0139207Y0461065D02*
X0160722Y0461065D01*
X0162354Y0465401D02*
X0158446Y0465401D01*
X0157450Y0466397D01*
X0157450Y0467501D01*
X0157143Y0467501D01*
X0156699Y0467058D01*
X0155597Y0466601D01*
X0154403Y0466601D01*
X0153301Y0467058D01*
X0152457Y0467901D01*
X0152000Y0469004D01*
X0152000Y0470198D01*
X0152457Y0471300D01*
X0153301Y0472144D01*
X0154403Y0472601D01*
X0155597Y0472601D01*
X0156699Y0472144D01*
X0157143Y0471701D01*
X0157450Y0471701D01*
X0157450Y0472805D01*
X0158446Y0473801D01*
X0162354Y0473801D01*
X0162554Y0473601D01*
X0163475Y0473601D01*
X0163475Y0469726D01*
X0163725Y0469726D01*
X0163725Y0473601D01*
X0165047Y0473601D01*
X0165429Y0473499D01*
X0165771Y0473301D01*
X0166050Y0473022D01*
X0166248Y0472680D01*
X0166350Y0472298D01*
X0166350Y0469726D01*
X0163725Y0469726D01*
X0163725Y0469476D01*
X0166350Y0469476D01*
X0166350Y0466903D01*
X0166248Y0466522D01*
X0166050Y0466180D01*
X0165771Y0465901D01*
X0165429Y0465703D01*
X0165047Y0465601D01*
X0163725Y0465601D01*
X0163725Y0469476D01*
X0163475Y0469476D01*
X0163475Y0465601D01*
X0162554Y0465601D01*
X0162354Y0465401D01*
X0163475Y0466058D02*
X0163725Y0466058D01*
X0163725Y0467056D02*
X0163475Y0467056D01*
X0163475Y0468055D02*
X0163725Y0468055D01*
X0163725Y0469053D02*
X0163475Y0469053D01*
X0163475Y0470052D02*
X0163725Y0470052D01*
X0163725Y0471050D02*
X0163475Y0471050D01*
X0163475Y0472049D02*
X0163725Y0472049D01*
X0163725Y0473047D02*
X0163475Y0473047D01*
X0166025Y0473047D02*
X0227821Y0473047D01*
X0227821Y0472049D02*
X0166350Y0472049D01*
X0166350Y0471050D02*
X0227821Y0471050D01*
X0227821Y0470052D02*
X0190292Y0470052D01*
X0186708Y0470052D02*
X0166350Y0470052D01*
X0166350Y0469053D02*
X0176983Y0469053D01*
X0175984Y0468055D02*
X0166350Y0468055D01*
X0166350Y0467056D02*
X0174985Y0467056D01*
X0173987Y0466058D02*
X0165928Y0466058D01*
X0170991Y0463062D02*
X0141431Y0463062D01*
X0142430Y0464061D02*
X0171990Y0464061D01*
X0172988Y0465059D02*
X0143428Y0465059D01*
X0144427Y0466058D02*
X0157789Y0466058D01*
X0157450Y0467056D02*
X0156696Y0467056D01*
X0153304Y0467056D02*
X0145425Y0467056D01*
X0146424Y0468055D02*
X0152393Y0468055D01*
X0152000Y0469053D02*
X0147422Y0469053D01*
X0148421Y0470052D02*
X0152000Y0470052D01*
X0152353Y0471050D02*
X0150682Y0471050D01*
X0151604Y0472049D02*
X0153205Y0472049D01*
X0152000Y0473047D02*
X0157692Y0473047D01*
X0157450Y0472049D02*
X0156795Y0472049D01*
X0152000Y0474046D02*
X0227821Y0474046D01*
X0227821Y0475044D02*
X0151649Y0475044D01*
X0150801Y0476043D02*
X0227821Y0476043D01*
X0227821Y0477041D02*
X0032100Y0477041D01*
X0032100Y0476043D02*
X0147199Y0476043D01*
X0146351Y0475044D02*
X0032100Y0475044D01*
X0032100Y0474046D02*
X0146000Y0474046D01*
X0145477Y0473047D02*
X0032100Y0473047D01*
X0032100Y0472049D02*
X0144478Y0472049D01*
X0143480Y0471050D02*
X0032100Y0471050D01*
X0032100Y0470052D02*
X0142481Y0470052D01*
X0141482Y0469053D02*
X0032100Y0469053D01*
X0032100Y0468055D02*
X0140484Y0468055D01*
X0139485Y0467056D02*
X0032100Y0467056D01*
X0032100Y0466058D02*
X0135714Y0466058D01*
X0134857Y0465059D02*
X0032100Y0465059D01*
X0032100Y0464061D02*
X0134500Y0464061D01*
X0134500Y0463062D02*
X0032100Y0463062D01*
X0032100Y0462064D02*
X0134890Y0462064D01*
X0135793Y0461065D02*
X0032100Y0461065D01*
X0042671Y0416132D02*
X0134154Y0416132D01*
X0134725Y0415134D02*
X0045051Y0415134D01*
X0141932Y0407145D02*
X0148000Y0407145D01*
X0146409Y0406147D02*
X0143591Y0406147D01*
X0144583Y0405148D02*
X0145417Y0405148D01*
X0145004Y0404150D02*
X0144996Y0404150D01*
X0152000Y0407117D02*
X0152000Y0415272D01*
X0158000Y0421272D01*
X0158000Y0407117D01*
X0156941Y0406679D01*
X0155422Y0405160D01*
X0155000Y0404141D01*
X0154578Y0405160D01*
X0153059Y0406679D01*
X0152000Y0407117D01*
X0152000Y0407145D02*
X0158000Y0407145D01*
X0158000Y0408144D02*
X0152000Y0408144D01*
X0152000Y0409142D02*
X0158000Y0409142D01*
X0158000Y0410141D02*
X0152000Y0410141D01*
X0152000Y0411139D02*
X0158000Y0411139D01*
X0158000Y0412138D02*
X0152000Y0412138D01*
X0152000Y0413137D02*
X0158000Y0413137D01*
X0158000Y0414135D02*
X0152000Y0414135D01*
X0152000Y0415134D02*
X0158000Y0415134D01*
X0158000Y0416132D02*
X0152860Y0416132D01*
X0153858Y0417131D02*
X0158000Y0417131D01*
X0158000Y0418129D02*
X0154857Y0418129D01*
X0155855Y0419128D02*
X0158000Y0419128D01*
X0158000Y0420126D02*
X0156854Y0420126D01*
X0157852Y0421125D02*
X0158000Y0421125D01*
X0162000Y0421125D02*
X0227821Y0421125D01*
X0227821Y0422123D02*
X0162851Y0422123D01*
X0163849Y0423122D02*
X0227821Y0423122D01*
X0227821Y0424120D02*
X0220848Y0424120D01*
X0221846Y0425119D02*
X0227821Y0425119D01*
X0227821Y0426117D02*
X0224171Y0426117D01*
X0224200Y0427116D02*
X0227821Y0427116D01*
X0227821Y0428114D02*
X0224200Y0428114D01*
X0224200Y0429113D02*
X0227821Y0429113D01*
X0227821Y0430111D02*
X0224480Y0430111D01*
X0225479Y0431110D02*
X0227821Y0431110D01*
X0227821Y0432108D02*
X0226477Y0432108D01*
X0227100Y0433107D02*
X0227821Y0433107D01*
X0227821Y0434105D02*
X0227100Y0434105D01*
X0227100Y0435104D02*
X0227821Y0435104D01*
X0227821Y0436102D02*
X0227100Y0436102D01*
X0227100Y0437101D02*
X0227821Y0437101D01*
X0227821Y0438099D02*
X0227100Y0438099D01*
X0227100Y0439098D02*
X0227821Y0439098D01*
X0227821Y0440096D02*
X0227100Y0440096D01*
X0227100Y0441095D02*
X0227821Y0441095D01*
X0227821Y0442093D02*
X0227100Y0442093D01*
X0227100Y0443092D02*
X0227821Y0443092D01*
X0227821Y0444090D02*
X0227100Y0444090D01*
X0227100Y0445089D02*
X0227821Y0445089D01*
X0227821Y0446087D02*
X0227100Y0446087D01*
X0227100Y0447086D02*
X0227821Y0447086D01*
X0227821Y0448084D02*
X0227100Y0448084D01*
X0227100Y0449083D02*
X0227821Y0449083D01*
X0227821Y0450081D02*
X0227100Y0450081D01*
X0227100Y0451080D02*
X0227821Y0451080D01*
X0227821Y0452078D02*
X0227100Y0452078D01*
X0227100Y0453077D02*
X0227821Y0453077D01*
X0227821Y0454075D02*
X0226995Y0454075D01*
X0227821Y0455074D02*
X0225997Y0455074D01*
X0224998Y0456072D02*
X0227821Y0456072D01*
X0227821Y0457071D02*
X0224000Y0457071D01*
X0223001Y0458070D02*
X0227821Y0458070D01*
X0227821Y0459068D02*
X0222003Y0459068D01*
X0221004Y0460067D02*
X0227821Y0460067D01*
X0227821Y0461065D02*
X0220006Y0461065D01*
X0219007Y0462064D02*
X0227821Y0462064D01*
X0227821Y0463062D02*
X0218009Y0463062D01*
X0217010Y0464061D02*
X0227821Y0464061D01*
X0227821Y0465059D02*
X0216012Y0465059D01*
X0215013Y0466058D02*
X0227821Y0466058D01*
X0227821Y0467056D02*
X0214015Y0467056D01*
X0212069Y0463062D02*
X0205704Y0463062D01*
X0202296Y0463062D02*
X0176931Y0463062D01*
X0175933Y0462064D02*
X0213067Y0462064D01*
X0214066Y0461065D02*
X0174934Y0461065D01*
X0173936Y0460067D02*
X0215064Y0460067D01*
X0216063Y0459068D02*
X0172937Y0459068D01*
X0171939Y0458070D02*
X0217061Y0458070D01*
X0218060Y0457071D02*
X0170940Y0457071D01*
X0169942Y0456072D02*
X0219058Y0456072D01*
X0220057Y0455074D02*
X0200661Y0455074D01*
X0199339Y0455074D02*
X0170661Y0455074D01*
X0169339Y0455074D02*
X0168943Y0455074D01*
X0167157Y0453077D02*
X0166946Y0453077D01*
X0167000Y0452078D02*
X0165947Y0452078D01*
X0166151Y0451080D02*
X0164949Y0451080D01*
X0165152Y0450081D02*
X0163950Y0450081D01*
X0164154Y0449083D02*
X0162952Y0449083D01*
X0161953Y0448084D02*
X0164000Y0448084D01*
X0164000Y0447086D02*
X0160955Y0447086D01*
X0159956Y0446087D02*
X0164000Y0446087D01*
X0164000Y0445089D02*
X0158958Y0445089D01*
X0164000Y0444090D02*
X0152819Y0444090D01*
X0153270Y0443092D02*
X0164000Y0443092D01*
X0164000Y0442093D02*
X0153400Y0442093D01*
X0153263Y0441095D02*
X0164000Y0441095D01*
X0164000Y0440096D02*
X0152804Y0440096D01*
X0151635Y0439098D02*
X0164000Y0439098D01*
X0168812Y0448084D02*
X0169364Y0448084D01*
X0169811Y0449083D02*
X0201739Y0449083D01*
X0202223Y0450081D02*
X0203357Y0450081D01*
X0204643Y0450081D02*
X0205191Y0450081D01*
X0207852Y0453077D02*
X0222054Y0453077D01*
X0222900Y0452078D02*
X0208851Y0452078D01*
X0209849Y0451080D02*
X0222900Y0451080D01*
X0222900Y0450081D02*
X0210848Y0450081D01*
X0211846Y0449083D02*
X0222900Y0449083D01*
X0222900Y0448084D02*
X0212845Y0448084D01*
X0213843Y0447086D02*
X0222900Y0447086D01*
X0222900Y0446087D02*
X0214842Y0446087D01*
X0215840Y0445089D02*
X0222900Y0445089D01*
X0222900Y0444090D02*
X0216839Y0444090D01*
X0217837Y0443092D02*
X0222900Y0443092D01*
X0222900Y0442093D02*
X0218836Y0442093D01*
X0219834Y0441095D02*
X0222900Y0441095D01*
X0222900Y0440096D02*
X0220833Y0440096D01*
X0221831Y0439098D02*
X0222900Y0439098D01*
X0220000Y0436101D02*
X0220000Y0432101D01*
X0220000Y0428101D01*
X0227821Y0420126D02*
X0162000Y0420126D01*
X0162000Y0419128D02*
X0227821Y0419128D01*
X0227821Y0418129D02*
X0162000Y0418129D01*
X0162000Y0417131D02*
X0227821Y0417131D01*
X0227821Y0416132D02*
X0222671Y0416132D01*
X0225051Y0415134D02*
X0227821Y0415134D01*
X0227821Y0414135D02*
X0226241Y0414135D01*
X0227369Y0413137D02*
X0227821Y0413137D01*
X0217329Y0416132D02*
X0167211Y0416132D01*
X0167819Y0415134D02*
X0214949Y0415134D01*
X0215227Y0415367D02*
X0215227Y0415367D01*
X0213759Y0414135D02*
X0168000Y0414135D01*
X0167848Y0413137D02*
X0212631Y0413137D01*
X0212688Y0413236D02*
X0212688Y0413236D01*
X0212688Y0413236D01*
X0212054Y0412138D02*
X0167280Y0412138D01*
X0167000Y0411139D02*
X0211478Y0411139D01*
X0211031Y0410365D02*
X0211031Y0410365D01*
X0210991Y0410141D02*
X0167000Y0410141D01*
X0167000Y0409142D02*
X0210815Y0409142D01*
X0210639Y0408144D02*
X0167000Y0408144D01*
X0167784Y0407145D02*
X0168068Y0407145D01*
X0171932Y0407145D02*
X0210463Y0407145D01*
X0210623Y0406147D02*
X0173591Y0406147D01*
X0174583Y0405148D02*
X0210799Y0405148D01*
X0210975Y0404150D02*
X0174996Y0404150D01*
X0175400Y0403151D02*
X0211426Y0403151D01*
X0211031Y0403836D02*
X0211031Y0403836D01*
X0212002Y0402153D02*
X0175400Y0402153D01*
X0175400Y0401154D02*
X0212579Y0401154D01*
X0212688Y0400965D02*
X0212688Y0400965D01*
X0213653Y0400156D02*
X0175039Y0400156D01*
X0163000Y0407145D02*
X0162000Y0407145D01*
X0162000Y0408144D02*
X0163000Y0408144D01*
X0163000Y0409142D02*
X0162000Y0409142D01*
X0162000Y0410141D02*
X0163000Y0410141D01*
X0163000Y0411139D02*
X0162000Y0411139D01*
X0162000Y0412138D02*
X0162720Y0412138D01*
X0162152Y0413137D02*
X0162000Y0413137D01*
X0162000Y0414135D02*
X0162000Y0414135D01*
X0162000Y0415134D02*
X0162181Y0415134D01*
X0162000Y0416132D02*
X0162789Y0416132D01*
X0156409Y0406147D02*
X0153591Y0406147D01*
X0154583Y0405148D02*
X0155417Y0405148D01*
X0155004Y0404150D02*
X0154996Y0404150D01*
X0164848Y0424120D02*
X0209152Y0424120D01*
X0208154Y0425119D02*
X0165846Y0425119D01*
X0166845Y0426117D02*
X0207155Y0426117D01*
X0206157Y0427116D02*
X0167843Y0427116D01*
X0168842Y0428114D02*
X0205158Y0428114D01*
X0204160Y0429113D02*
X0169840Y0429113D01*
X0170839Y0430111D02*
X0203161Y0430111D01*
X0202163Y0431110D02*
X0171837Y0431110D01*
X0172836Y0432108D02*
X0202000Y0432108D01*
X0202000Y0433107D02*
X0173834Y0433107D01*
X0174833Y0434105D02*
X0202000Y0434105D01*
X0202000Y0435104D02*
X0193831Y0435104D01*
X0194830Y0436102D02*
X0202000Y0436102D01*
X0202000Y0439098D02*
X0197000Y0439098D01*
X0197000Y0438272D02*
X0195828Y0437101D01*
X0197000Y0440096D02*
X0202000Y0440096D01*
X0202000Y0441095D02*
X0197000Y0441095D01*
X0197000Y0442093D02*
X0202000Y0442093D01*
X0202000Y0443092D02*
X0197234Y0443092D01*
X0197829Y0444090D02*
X0202000Y0444090D01*
X0201769Y0445089D02*
X0198000Y0445089D01*
X0197839Y0446087D02*
X0201173Y0446087D01*
X0201000Y0447086D02*
X0197258Y0447086D01*
X0195636Y0448084D02*
X0201160Y0448084D01*
X0197777Y0450081D02*
X0172223Y0450081D01*
X0172824Y0451080D02*
X0197176Y0451080D01*
X0197000Y0452078D02*
X0173000Y0452078D01*
X0172843Y0453077D02*
X0197157Y0453077D01*
X0197732Y0454075D02*
X0172268Y0454075D01*
X0170636Y0448084D02*
X0194364Y0448084D01*
X0206854Y0454075D02*
X0221055Y0454075D01*
X0234021Y0454075D02*
X0296068Y0454075D01*
X0295069Y0453077D02*
X0234021Y0453077D01*
X0234021Y0452078D02*
X0294071Y0452078D01*
X0293072Y0451080D02*
X0234021Y0451080D01*
X0234021Y0450081D02*
X0292074Y0450081D01*
X0291075Y0449083D02*
X0234021Y0449083D01*
X0234021Y0448084D02*
X0290076Y0448084D01*
X0289078Y0447086D02*
X0234021Y0447086D01*
X0234021Y0446087D02*
X0288079Y0446087D01*
X0287081Y0445089D02*
X0234021Y0445089D01*
X0234021Y0444090D02*
X0286082Y0444090D01*
X0285084Y0443092D02*
X0234021Y0443092D01*
X0234021Y0442093D02*
X0284085Y0442093D01*
X0283087Y0441095D02*
X0234021Y0441095D01*
X0234021Y0440096D02*
X0282088Y0440096D01*
X0281090Y0439098D02*
X0234021Y0439098D01*
X0234021Y0438099D02*
X0280091Y0438099D01*
X0279093Y0437101D02*
X0234531Y0437101D01*
X0234403Y0437228D02*
X0234021Y0437228D01*
X0234021Y0477101D01*
X0429743Y0477101D01*
X0429743Y0412354D01*
X0429233Y0413236D01*
X0429233Y0413236D01*
X0426694Y0415367D01*
X0426694Y0415367D01*
X0423579Y0416501D01*
X0420264Y0416501D01*
X0417149Y0415367D01*
X0417149Y0415367D01*
X0414609Y0413236D01*
X0412952Y0410365D01*
X0412376Y0407101D01*
X0412376Y0407101D01*
X0412952Y0403836D01*
X0414609Y0400965D01*
X0416712Y0399201D01*
X0376565Y0399201D01*
X0377321Y0401027D01*
X0377321Y0403175D01*
X0376499Y0405160D01*
X0374980Y0406679D01*
X0372995Y0407501D01*
X0370847Y0407501D01*
X0369788Y0407062D01*
X0368921Y0407929D01*
X0368921Y0411858D01*
X0369465Y0412401D01*
X0369921Y0413504D01*
X0369921Y0414698D01*
X0369465Y0415800D01*
X0368621Y0416644D01*
X0367518Y0417101D01*
X0366325Y0417101D01*
X0365222Y0416644D01*
X0364378Y0415800D01*
X0363921Y0414698D01*
X0363921Y0413504D01*
X0364378Y0412401D01*
X0364921Y0411858D01*
X0364921Y0406703D01*
X0363921Y0407117D01*
X0363921Y0421272D01*
X0377750Y0435101D01*
X0395750Y0435101D01*
X0397750Y0437101D01*
X0398921Y0438272D01*
X0398921Y0442858D01*
X0399465Y0443401D01*
X0399921Y0444504D01*
X0399921Y0445698D01*
X0399465Y0446800D01*
X0398621Y0447644D01*
X0397518Y0448101D01*
X0396325Y0448101D01*
X0395222Y0447644D01*
X0394679Y0447101D01*
X0374164Y0447101D01*
X0373621Y0447644D01*
X0372518Y0448101D01*
X0371325Y0448101D01*
X0370343Y0447694D01*
X0371750Y0449101D01*
X0372518Y0449101D01*
X0373621Y0449558D01*
X0374465Y0450401D01*
X0374921Y0451504D01*
X0374921Y0452698D01*
X0374465Y0453800D01*
X0373621Y0454644D01*
X0372518Y0455101D01*
X0371325Y0455101D01*
X0370585Y0454794D01*
X0381291Y0465501D01*
X0388279Y0465501D01*
X0388722Y0465058D01*
X0389825Y0464601D01*
X0391018Y0464601D01*
X0392121Y0465058D01*
X0392564Y0465501D01*
X0402921Y0465501D01*
X0402921Y0465004D01*
X0403378Y0463901D01*
X0404222Y0463058D01*
X0405325Y0462601D01*
X0406518Y0462601D01*
X0407621Y0463058D01*
X0408064Y0463501D01*
X0413551Y0463501D01*
X0424821Y0452231D01*
X0424821Y0439051D01*
X0423800Y0439051D01*
X0422750Y0440101D01*
X0408750Y0454101D01*
X0404164Y0454101D01*
X0403621Y0454644D01*
X0402518Y0455101D01*
X0401325Y0455101D01*
X0400222Y0454644D01*
X0399378Y0453800D01*
X0398921Y0452698D01*
X0398921Y0451504D01*
X0399378Y0450401D01*
X0400222Y0449558D01*
X0401325Y0449101D01*
X0402518Y0449101D01*
X0403621Y0449558D01*
X0404164Y0450101D01*
X0407093Y0450101D01*
X0407499Y0449694D01*
X0406518Y0450101D01*
X0405325Y0450101D01*
X0404222Y0449644D01*
X0403378Y0448800D01*
X0402921Y0447698D01*
X0402921Y0446504D01*
X0403378Y0445401D01*
X0403921Y0444858D01*
X0403921Y0431272D01*
X0409921Y0425272D01*
X0411093Y0424101D01*
X0422750Y0424101D01*
X0423800Y0425151D01*
X0425125Y0425151D01*
X0426121Y0426147D01*
X0426121Y0430001D01*
X0426291Y0430001D01*
X0427521Y0431231D01*
X0429021Y0432731D01*
X0429021Y0453971D01*
X0427791Y0455201D01*
X0415291Y0467701D01*
X0408064Y0467701D01*
X0407621Y0468144D01*
X0406518Y0468601D01*
X0405891Y0468601D01*
X0404791Y0469701D01*
X0392564Y0469701D01*
X0392121Y0470144D01*
X0391018Y0470601D01*
X0389825Y0470601D01*
X0388722Y0470144D01*
X0388279Y0469701D01*
X0379551Y0469701D01*
X0367115Y0457264D01*
X0367421Y0458004D01*
X0367421Y0459198D01*
X0366965Y0460300D01*
X0366121Y0461144D01*
X0365018Y0461601D01*
X0363825Y0461601D01*
X0362722Y0461144D01*
X0362179Y0460601D01*
X0302593Y0460601D01*
X0301421Y0459429D01*
X0269093Y0427101D01*
X0268325Y0427101D01*
X0267222Y0426644D01*
X0266378Y0425800D01*
X0265921Y0424698D01*
X0265921Y0423504D01*
X0266378Y0422401D01*
X0267222Y0421558D01*
X0268325Y0421101D01*
X0269518Y0421101D01*
X0270621Y0421558D01*
X0271465Y0422401D01*
X0271921Y0423504D01*
X0271921Y0424272D01*
X0304250Y0456601D01*
X0362179Y0456601D01*
X0362722Y0456058D01*
X0363825Y0455601D01*
X0365018Y0455601D01*
X0365758Y0455907D01*
X0359051Y0449201D01*
X0353282Y0449201D01*
X0353437Y0449265D01*
X0353961Y0449615D01*
X0354407Y0450061D01*
X0354757Y0450585D01*
X0354998Y0451167D01*
X0355121Y0451786D01*
X0355121Y0452101D01*
X0355121Y0452416D01*
X0354998Y0453034D01*
X0354757Y0453617D01*
X0354407Y0454141D01*
X0353961Y0454586D01*
X0353437Y0454937D01*
X0352855Y0455178D01*
X0352236Y0455301D01*
X0351921Y0455301D01*
X0351606Y0455301D01*
X0350988Y0455178D01*
X0350406Y0454937D01*
X0349881Y0454586D01*
X0349436Y0454141D01*
X0349311Y0453954D01*
X0348621Y0454644D01*
X0347518Y0455101D01*
X0346325Y0455101D01*
X0345222Y0454644D01*
X0344704Y0454126D01*
X0343847Y0454983D01*
X0342598Y0455501D01*
X0341245Y0455501D01*
X0339995Y0454983D01*
X0339039Y0454027D01*
X0338521Y0452777D01*
X0338521Y0451424D01*
X0339039Y0450175D01*
X0339995Y0449218D01*
X0341245Y0448701D01*
X0342598Y0448701D01*
X0343847Y0449218D01*
X0344704Y0450075D01*
X0344821Y0449958D01*
X0344821Y0443984D01*
X0344804Y0444027D01*
X0343847Y0444983D01*
X0342598Y0445501D01*
X0341245Y0445501D01*
X0339995Y0444983D01*
X0339113Y0444101D01*
X0338093Y0444101D01*
X0336093Y0442101D01*
X0334921Y0440929D01*
X0334921Y0431429D01*
X0331593Y0428101D01*
X0331250Y0428101D01*
X0329250Y0430101D01*
X0309164Y0430101D01*
X0308621Y0430644D01*
X0307518Y0431101D01*
X0306325Y0431101D01*
X0305222Y0430644D01*
X0304378Y0429800D01*
X0303921Y0428698D01*
X0303921Y0427504D01*
X0304378Y0426401D01*
X0305222Y0425558D01*
X0306325Y0425101D01*
X0307518Y0425101D01*
X0308621Y0425558D01*
X0309164Y0426101D01*
X0327593Y0426101D01*
X0328421Y0425272D01*
X0328421Y0424504D01*
X0328878Y0423401D01*
X0329722Y0422558D01*
X0330825Y0422101D01*
X0332018Y0422101D01*
X0333121Y0422558D01*
X0333965Y0423401D01*
X0334421Y0424504D01*
X0334421Y0425272D01*
X0338921Y0429772D01*
X0338921Y0430459D01*
X0339039Y0430175D01*
X0339995Y0429218D01*
X0341245Y0428701D01*
X0342598Y0428701D01*
X0343847Y0429218D01*
X0344804Y0430175D01*
X0345321Y0431424D01*
X0345321Y0432777D01*
X0344804Y0434027D01*
X0343847Y0434983D01*
X0342598Y0435501D01*
X0341245Y0435501D01*
X0339995Y0434983D01*
X0339039Y0434027D01*
X0338921Y0433743D01*
X0338921Y0439272D01*
X0339431Y0439782D01*
X0339995Y0439218D01*
X0341245Y0438701D01*
X0342598Y0438701D01*
X0343847Y0439218D01*
X0344804Y0440175D01*
X0344821Y0440217D01*
X0344821Y0436231D01*
X0348521Y0432531D01*
X0348521Y0431424D01*
X0349035Y0430184D01*
X0338951Y0420101D01*
X0338325Y0420101D01*
X0337222Y0419644D01*
X0336378Y0418800D01*
X0335921Y0417698D01*
X0335921Y0416504D01*
X0336378Y0415401D01*
X0337222Y0414558D01*
X0338325Y0414101D01*
X0339518Y0414101D01*
X0340621Y0414558D01*
X0341465Y0415401D01*
X0341921Y0416504D01*
X0341921Y0417131D01*
X0344228Y0419437D01*
X0343921Y0418698D01*
X0343921Y0417504D01*
X0344378Y0416401D01*
X0345222Y0415558D01*
X0346325Y0415101D01*
X0347518Y0415101D01*
X0348621Y0415558D01*
X0349164Y0416101D01*
X0349921Y0416101D01*
X0349921Y0407117D01*
X0348862Y0406679D01*
X0347343Y0405160D01*
X0346921Y0404141D01*
X0346499Y0405160D01*
X0344980Y0406679D01*
X0342995Y0407501D01*
X0340847Y0407501D01*
X0338862Y0406679D01*
X0337343Y0405160D01*
X0336812Y0403877D01*
X0336740Y0404097D01*
X0336369Y0404826D01*
X0335888Y0405488D01*
X0335309Y0406067D01*
X0334647Y0406548D01*
X0333917Y0406920D01*
X0333139Y0407173D01*
X0332421Y0407286D01*
X0332421Y0402601D01*
X0331421Y0402601D01*
X0331421Y0401601D01*
X0326736Y0401601D01*
X0326849Y0400883D01*
X0327102Y0400105D01*
X0327474Y0399375D01*
X0327601Y0399201D01*
X0247130Y0399201D01*
X0249233Y0400965D01*
X0249233Y0400965D01*
X0249233Y0400965D01*
X0250891Y0403836D01*
X0250891Y0403836D01*
X0251466Y0407101D01*
X0250891Y0410365D01*
X0250891Y0410365D01*
X0249233Y0413236D01*
X0249233Y0413236D01*
X0246694Y0415367D01*
X0246694Y0415367D01*
X0243579Y0416501D01*
X0240980Y0416501D01*
X0241765Y0417678D01*
X0241400Y0419506D01*
X0240480Y0420119D01*
X0241400Y0420732D01*
X0241765Y0422560D01*
X0240874Y0423897D01*
X0241626Y0424648D01*
X0241626Y0428481D01*
X0240848Y0429259D01*
X0240308Y0429799D01*
X0240147Y0429960D01*
X0239828Y0430279D01*
X0240308Y0430760D01*
X0240308Y0430760D01*
X0240547Y0430999D01*
X0241626Y0432078D01*
X0241626Y0433942D01*
X0240958Y0434611D01*
X0240308Y0435260D01*
X0235721Y0435260D01*
X0235721Y0435910D01*
X0234403Y0437228D01*
X0235529Y0436102D02*
X0278094Y0436102D01*
X0277096Y0435104D02*
X0240465Y0435104D01*
X0241463Y0434105D02*
X0276097Y0434105D01*
X0275099Y0433107D02*
X0241626Y0433107D01*
X0241626Y0432108D02*
X0274100Y0432108D01*
X0273102Y0431110D02*
X0240658Y0431110D01*
X0239996Y0430111D02*
X0272103Y0430111D01*
X0271105Y0429113D02*
X0240994Y0429113D01*
X0240308Y0429799D02*
X0240308Y0429799D01*
X0241626Y0428114D02*
X0270106Y0428114D01*
X0269108Y0427116D02*
X0241626Y0427116D01*
X0241626Y0426117D02*
X0266695Y0426117D01*
X0266096Y0425119D02*
X0241626Y0425119D01*
X0241098Y0424120D02*
X0265921Y0424120D01*
X0266080Y0423122D02*
X0241391Y0423122D01*
X0241678Y0422123D02*
X0266656Y0422123D01*
X0268267Y0421125D02*
X0241478Y0421125D01*
X0240490Y0420126D02*
X0338977Y0420126D01*
X0339975Y0421125D02*
X0269575Y0421125D01*
X0271186Y0422123D02*
X0330771Y0422123D01*
X0332072Y0422123D02*
X0340974Y0422123D01*
X0341972Y0423122D02*
X0333685Y0423122D01*
X0334262Y0424120D02*
X0342971Y0424120D01*
X0343969Y0425119D02*
X0334421Y0425119D01*
X0335266Y0426117D02*
X0344968Y0426117D01*
X0345966Y0427116D02*
X0336265Y0427116D01*
X0337263Y0428114D02*
X0346965Y0428114D01*
X0347963Y0429113D02*
X0343592Y0429113D01*
X0344740Y0430111D02*
X0348962Y0430111D01*
X0348652Y0431110D02*
X0345191Y0431110D01*
X0345321Y0432108D02*
X0348521Y0432108D01*
X0347946Y0433107D02*
X0345185Y0433107D01*
X0344725Y0434105D02*
X0346947Y0434105D01*
X0345948Y0435104D02*
X0343556Y0435104D01*
X0344950Y0436102D02*
X0338921Y0436102D01*
X0338921Y0435104D02*
X0340286Y0435104D01*
X0339117Y0434105D02*
X0338921Y0434105D01*
X0338921Y0437101D02*
X0344821Y0437101D01*
X0344821Y0438099D02*
X0338921Y0438099D01*
X0338921Y0439098D02*
X0340287Y0439098D01*
X0343556Y0439098D02*
X0344821Y0439098D01*
X0344821Y0440096D02*
X0344725Y0440096D01*
X0344740Y0444090D02*
X0344821Y0444090D01*
X0344821Y0445089D02*
X0343592Y0445089D01*
X0344821Y0446087D02*
X0293736Y0446087D01*
X0292738Y0445089D02*
X0340251Y0445089D01*
X0338082Y0444090D02*
X0291739Y0444090D01*
X0290741Y0443092D02*
X0337084Y0443092D01*
X0336085Y0442093D02*
X0289742Y0442093D01*
X0288744Y0441095D02*
X0335087Y0441095D01*
X0334921Y0440096D02*
X0287745Y0440096D01*
X0286747Y0439098D02*
X0334921Y0439098D01*
X0334921Y0438099D02*
X0285748Y0438099D01*
X0284750Y0437101D02*
X0334921Y0437101D01*
X0334921Y0436102D02*
X0283751Y0436102D01*
X0282753Y0435104D02*
X0334921Y0435104D01*
X0334921Y0434105D02*
X0281754Y0434105D01*
X0280756Y0433107D02*
X0334921Y0433107D01*
X0334921Y0432108D02*
X0279757Y0432108D01*
X0278759Y0431110D02*
X0334602Y0431110D01*
X0333603Y0430111D02*
X0309154Y0430111D01*
X0304689Y0430111D02*
X0277760Y0430111D01*
X0276762Y0429113D02*
X0304093Y0429113D01*
X0303921Y0428114D02*
X0275763Y0428114D01*
X0274765Y0427116D02*
X0304082Y0427116D01*
X0304662Y0426117D02*
X0273766Y0426117D01*
X0272768Y0425119D02*
X0306281Y0425119D01*
X0307561Y0425119D02*
X0328421Y0425119D01*
X0328580Y0424120D02*
X0271921Y0424120D01*
X0271763Y0423122D02*
X0329158Y0423122D01*
X0331236Y0428114D02*
X0331606Y0428114D01*
X0332605Y0429113D02*
X0330238Y0429113D01*
X0338262Y0429113D02*
X0340251Y0429113D01*
X0339103Y0430111D02*
X0338921Y0430111D01*
X0336705Y0419128D02*
X0241476Y0419128D01*
X0241675Y0418129D02*
X0336100Y0418129D01*
X0335921Y0417131D02*
X0241400Y0417131D01*
X0244592Y0416132D02*
X0336075Y0416132D01*
X0336646Y0415134D02*
X0246972Y0415134D01*
X0248162Y0414135D02*
X0338242Y0414135D01*
X0339601Y0414135D02*
X0349921Y0414135D01*
X0349921Y0413137D02*
X0249291Y0413137D01*
X0249867Y0412138D02*
X0349921Y0412138D01*
X0349921Y0411139D02*
X0250444Y0411139D01*
X0250930Y0410141D02*
X0349921Y0410141D01*
X0349921Y0409142D02*
X0251106Y0409142D01*
X0251282Y0408144D02*
X0349921Y0408144D01*
X0349921Y0407145D02*
X0343853Y0407145D01*
X0345512Y0406147D02*
X0348331Y0406147D01*
X0347339Y0405148D02*
X0346504Y0405148D01*
X0346917Y0404150D02*
X0346925Y0404150D01*
X0339989Y0407145D02*
X0333223Y0407145D01*
X0332421Y0407145D02*
X0331421Y0407145D01*
X0331421Y0407286D02*
X0330704Y0407173D01*
X0329925Y0406920D01*
X0329196Y0406548D01*
X0328534Y0406067D01*
X0327955Y0405488D01*
X0327474Y0404826D01*
X0327102Y0404097D01*
X0326849Y0403318D01*
X0326736Y0402601D01*
X0331421Y0402601D01*
X0331421Y0407286D01*
X0330620Y0407145D02*
X0251458Y0407145D01*
X0251466Y0407101D02*
X0251466Y0407101D01*
X0251298Y0406147D02*
X0328644Y0406147D01*
X0327708Y0405148D02*
X0251122Y0405148D01*
X0250946Y0404150D02*
X0327129Y0404150D01*
X0326823Y0403151D02*
X0250495Y0403151D01*
X0249919Y0402153D02*
X0331421Y0402153D01*
X0331421Y0403151D02*
X0332421Y0403151D01*
X0332421Y0404150D02*
X0331421Y0404150D01*
X0331421Y0405148D02*
X0332421Y0405148D01*
X0332421Y0406147D02*
X0331421Y0406147D01*
X0335199Y0406147D02*
X0338331Y0406147D01*
X0337339Y0405148D02*
X0336135Y0405148D01*
X0336713Y0404150D02*
X0336925Y0404150D01*
X0326806Y0401154D02*
X0249342Y0401154D01*
X0248268Y0400156D02*
X0327086Y0400156D01*
X0341197Y0415134D02*
X0346246Y0415134D01*
X0347597Y0415134D02*
X0349921Y0415134D01*
X0353921Y0415134D02*
X0359921Y0415134D01*
X0359921Y0416132D02*
X0354781Y0416132D01*
X0353921Y0415272D02*
X0359921Y0421272D01*
X0359921Y0407117D01*
X0358862Y0406679D01*
X0357343Y0405160D01*
X0356921Y0404141D01*
X0356499Y0405160D01*
X0354980Y0406679D01*
X0353921Y0407117D01*
X0353921Y0415272D01*
X0353921Y0414135D02*
X0359921Y0414135D01*
X0359921Y0413137D02*
X0353921Y0413137D01*
X0353921Y0412138D02*
X0359921Y0412138D01*
X0359921Y0411139D02*
X0353921Y0411139D01*
X0353921Y0410141D02*
X0359921Y0410141D01*
X0359921Y0409142D02*
X0353921Y0409142D01*
X0353921Y0408144D02*
X0359921Y0408144D01*
X0359921Y0407145D02*
X0353921Y0407145D01*
X0355512Y0406147D02*
X0358331Y0406147D01*
X0357339Y0405148D02*
X0356504Y0405148D01*
X0356917Y0404150D02*
X0356925Y0404150D01*
X0363921Y0407145D02*
X0364921Y0407145D01*
X0364921Y0408144D02*
X0363921Y0408144D01*
X0363921Y0409142D02*
X0364921Y0409142D01*
X0364921Y0410141D02*
X0363921Y0410141D01*
X0363921Y0411139D02*
X0364921Y0411139D01*
X0364641Y0412138D02*
X0363921Y0412138D01*
X0363921Y0413137D02*
X0364074Y0413137D01*
X0363921Y0414135D02*
X0363921Y0414135D01*
X0363921Y0415134D02*
X0364102Y0415134D01*
X0363921Y0416132D02*
X0364710Y0416132D01*
X0363921Y0417131D02*
X0429743Y0417131D01*
X0429743Y0418129D02*
X0363921Y0418129D01*
X0363921Y0419128D02*
X0429743Y0419128D01*
X0429743Y0420126D02*
X0363921Y0420126D01*
X0363921Y0421125D02*
X0429743Y0421125D01*
X0429743Y0422123D02*
X0364772Y0422123D01*
X0365771Y0423122D02*
X0429743Y0423122D01*
X0429743Y0424120D02*
X0422769Y0424120D01*
X0423768Y0425119D02*
X0429743Y0425119D01*
X0429743Y0426117D02*
X0426092Y0426117D01*
X0426121Y0427116D02*
X0429743Y0427116D01*
X0429743Y0428114D02*
X0426121Y0428114D01*
X0426121Y0429113D02*
X0429743Y0429113D01*
X0429743Y0430111D02*
X0426402Y0430111D01*
X0427400Y0431110D02*
X0429743Y0431110D01*
X0429743Y0432108D02*
X0428399Y0432108D01*
X0429021Y0433107D02*
X0429743Y0433107D01*
X0429743Y0434105D02*
X0429021Y0434105D01*
X0429021Y0435104D02*
X0429743Y0435104D01*
X0429743Y0436102D02*
X0429021Y0436102D01*
X0429021Y0437101D02*
X0429743Y0437101D01*
X0429743Y0438099D02*
X0429021Y0438099D01*
X0429021Y0439098D02*
X0429743Y0439098D01*
X0429743Y0440096D02*
X0429021Y0440096D01*
X0429021Y0441095D02*
X0429743Y0441095D01*
X0429743Y0442093D02*
X0429021Y0442093D01*
X0429021Y0443092D02*
X0429743Y0443092D01*
X0429743Y0444090D02*
X0429021Y0444090D01*
X0429021Y0445089D02*
X0429743Y0445089D01*
X0429743Y0446087D02*
X0429021Y0446087D01*
X0429021Y0447086D02*
X0429743Y0447086D01*
X0429743Y0448084D02*
X0429021Y0448084D01*
X0429021Y0449083D02*
X0429743Y0449083D01*
X0429743Y0450081D02*
X0429021Y0450081D01*
X0429021Y0451080D02*
X0429743Y0451080D01*
X0429743Y0452078D02*
X0429021Y0452078D01*
X0429021Y0453077D02*
X0429743Y0453077D01*
X0429743Y0454075D02*
X0428916Y0454075D01*
X0429743Y0455074D02*
X0427918Y0455074D01*
X0426919Y0456072D02*
X0429743Y0456072D01*
X0429743Y0457071D02*
X0425921Y0457071D01*
X0424922Y0458070D02*
X0429743Y0458070D01*
X0429743Y0459068D02*
X0423924Y0459068D01*
X0422925Y0460067D02*
X0429743Y0460067D01*
X0429743Y0461065D02*
X0421927Y0461065D01*
X0420928Y0462064D02*
X0429743Y0462064D01*
X0429743Y0463062D02*
X0419930Y0463062D01*
X0418931Y0464061D02*
X0429743Y0464061D01*
X0429743Y0465059D02*
X0417933Y0465059D01*
X0416934Y0466058D02*
X0429743Y0466058D01*
X0429743Y0467056D02*
X0415936Y0467056D01*
X0413990Y0463062D02*
X0407625Y0463062D01*
X0404217Y0463062D02*
X0378852Y0463062D01*
X0377854Y0462064D02*
X0414989Y0462064D01*
X0415987Y0461065D02*
X0376855Y0461065D01*
X0375857Y0460067D02*
X0416986Y0460067D01*
X0417984Y0459068D02*
X0374858Y0459068D01*
X0373860Y0458070D02*
X0418983Y0458070D01*
X0419981Y0457071D02*
X0372861Y0457071D01*
X0371863Y0456072D02*
X0420980Y0456072D01*
X0421978Y0455074D02*
X0402583Y0455074D01*
X0401260Y0455074D02*
X0372583Y0455074D01*
X0371260Y0455074D02*
X0370864Y0455074D01*
X0369228Y0453437D02*
X0368921Y0452698D01*
X0368921Y0451929D01*
X0365921Y0448929D01*
X0365921Y0437429D01*
X0348878Y0420386D01*
X0348621Y0420644D01*
X0347518Y0421101D01*
X0346325Y0421101D01*
X0345585Y0420794D01*
X0354021Y0429231D01*
X0354021Y0429392D01*
X0354804Y0430175D01*
X0355321Y0431424D01*
X0355321Y0432777D01*
X0354804Y0434027D01*
X0353847Y0434983D01*
X0352598Y0435501D01*
X0351491Y0435501D01*
X0349021Y0437971D01*
X0349021Y0440217D01*
X0349039Y0440175D01*
X0349995Y0439218D01*
X0351245Y0438701D01*
X0352598Y0438701D01*
X0353847Y0439218D01*
X0354804Y0440175D01*
X0355321Y0441424D01*
X0355321Y0442777D01*
X0354804Y0444027D01*
X0353847Y0444983D01*
X0353805Y0445001D01*
X0360791Y0445001D01*
X0362021Y0446231D01*
X0369228Y0453437D01*
X0369078Y0453077D02*
X0368867Y0453077D01*
X0368921Y0452078D02*
X0367869Y0452078D01*
X0368072Y0451080D02*
X0366870Y0451080D01*
X0367073Y0450081D02*
X0365872Y0450081D01*
X0366075Y0449083D02*
X0364873Y0449083D01*
X0363875Y0448084D02*
X0365921Y0448084D01*
X0365921Y0447086D02*
X0362876Y0447086D01*
X0361878Y0446087D02*
X0365921Y0446087D01*
X0365921Y0445089D02*
X0360879Y0445089D01*
X0359932Y0450081D02*
X0354421Y0450081D01*
X0354962Y0451080D02*
X0360931Y0451080D01*
X0361929Y0452078D02*
X0355121Y0452078D01*
X0355121Y0452101D02*
X0351921Y0452101D01*
X0351921Y0455301D01*
X0351921Y0452101D01*
X0351921Y0452101D01*
X0355121Y0452101D01*
X0354981Y0453077D02*
X0362928Y0453077D01*
X0363926Y0454075D02*
X0354450Y0454075D01*
X0353105Y0455074D02*
X0364925Y0455074D01*
X0362707Y0456072D02*
X0303721Y0456072D01*
X0302723Y0455074D02*
X0340215Y0455074D01*
X0339088Y0454075D02*
X0301724Y0454075D01*
X0300726Y0453077D02*
X0338646Y0453077D01*
X0338521Y0452078D02*
X0299727Y0452078D01*
X0298729Y0451080D02*
X0338664Y0451080D01*
X0339132Y0450081D02*
X0297730Y0450081D01*
X0296732Y0449083D02*
X0340322Y0449083D01*
X0343520Y0449083D02*
X0344821Y0449083D01*
X0344821Y0448084D02*
X0295733Y0448084D01*
X0294735Y0447086D02*
X0344821Y0447086D01*
X0343628Y0455074D02*
X0346260Y0455074D01*
X0347583Y0455074D02*
X0350737Y0455074D01*
X0351921Y0455074D02*
X0351921Y0455074D01*
X0351921Y0454075D02*
X0351921Y0454075D01*
X0351921Y0453077D02*
X0351921Y0453077D01*
X0351921Y0452101D02*
X0351921Y0452101D01*
X0349392Y0454075D02*
X0349189Y0454075D01*
X0341564Y0461501D02*
X0341121Y0461058D01*
X0340018Y0460601D01*
X0338825Y0460601D01*
X0337722Y0461058D01*
X0336878Y0461901D01*
X0336421Y0463004D01*
X0336421Y0464198D01*
X0336878Y0465300D01*
X0337722Y0466144D01*
X0338825Y0466601D01*
X0340018Y0466601D01*
X0340678Y0466327D01*
X0347921Y0473571D01*
X0347921Y0474198D01*
X0348378Y0475300D01*
X0349222Y0476144D01*
X0350325Y0476601D01*
X0351518Y0476601D01*
X0352621Y0476144D01*
X0353465Y0475300D01*
X0353921Y0474198D01*
X0353921Y0473004D01*
X0353465Y0471901D01*
X0352621Y0471058D01*
X0351518Y0470601D01*
X0350891Y0470601D01*
X0341791Y0461501D01*
X0341564Y0461501D01*
X0341128Y0461065D02*
X0362643Y0461065D01*
X0366200Y0461065D02*
X0370916Y0461065D01*
X0371914Y0462064D02*
X0342354Y0462064D01*
X0343352Y0463062D02*
X0372913Y0463062D01*
X0373911Y0464061D02*
X0344351Y0464061D01*
X0345349Y0465059D02*
X0374910Y0465059D01*
X0375908Y0466058D02*
X0367849Y0466058D01*
X0367972Y0466180D02*
X0368169Y0466522D01*
X0368271Y0466903D01*
X0368271Y0469476D01*
X0365646Y0469476D01*
X0365646Y0465601D01*
X0366969Y0465601D01*
X0367350Y0465703D01*
X0367692Y0465901D01*
X0367972Y0466180D01*
X0368271Y0467056D02*
X0376907Y0467056D01*
X0377905Y0468055D02*
X0368271Y0468055D01*
X0368271Y0469053D02*
X0378904Y0469053D01*
X0380849Y0465059D02*
X0388720Y0465059D01*
X0392122Y0465059D02*
X0402921Y0465059D01*
X0403312Y0464061D02*
X0379851Y0464061D01*
X0388630Y0470052D02*
X0368271Y0470052D01*
X0368271Y0469726D02*
X0368271Y0472298D01*
X0368169Y0472680D01*
X0367972Y0473022D01*
X0367692Y0473301D01*
X0367350Y0473499D01*
X0366969Y0473601D01*
X0365646Y0473601D01*
X0365646Y0469726D01*
X0365396Y0469726D01*
X0365396Y0473601D01*
X0364475Y0473601D01*
X0364275Y0473801D01*
X0360367Y0473801D01*
X0359371Y0472805D01*
X0359371Y0471701D01*
X0359064Y0471701D01*
X0358621Y0472144D01*
X0357518Y0472601D01*
X0356325Y0472601D01*
X0355222Y0472144D01*
X0354378Y0471300D01*
X0353921Y0470198D01*
X0353921Y0469004D01*
X0354378Y0467901D01*
X0355222Y0467058D01*
X0356325Y0466601D01*
X0357518Y0466601D01*
X0358621Y0467058D01*
X0359064Y0467501D01*
X0359371Y0467501D01*
X0359371Y0466397D01*
X0360367Y0465401D01*
X0364275Y0465401D01*
X0364475Y0465601D01*
X0365396Y0465601D01*
X0365396Y0469476D01*
X0365646Y0469476D01*
X0365646Y0469726D01*
X0368271Y0469726D01*
X0368271Y0471050D02*
X0429743Y0471050D01*
X0429743Y0470052D02*
X0392213Y0470052D01*
X0405439Y0469053D02*
X0429743Y0469053D01*
X0429743Y0468055D02*
X0407710Y0468055D01*
X0408775Y0454075D02*
X0422977Y0454075D01*
X0423975Y0453077D02*
X0409774Y0453077D01*
X0410772Y0452078D02*
X0424821Y0452078D01*
X0424821Y0451080D02*
X0411771Y0451080D01*
X0412769Y0450081D02*
X0424821Y0450081D01*
X0424821Y0449083D02*
X0413768Y0449083D01*
X0414766Y0448084D02*
X0424821Y0448084D01*
X0424821Y0447086D02*
X0415765Y0447086D01*
X0416763Y0446087D02*
X0424821Y0446087D01*
X0424821Y0445089D02*
X0417762Y0445089D01*
X0418760Y0444090D02*
X0424821Y0444090D01*
X0424821Y0443092D02*
X0419759Y0443092D01*
X0420757Y0442093D02*
X0424821Y0442093D01*
X0424821Y0441095D02*
X0421756Y0441095D01*
X0422754Y0440096D02*
X0424821Y0440096D01*
X0424821Y0439098D02*
X0423753Y0439098D01*
X0421921Y0436101D02*
X0421921Y0432101D01*
X0421921Y0428101D01*
X0411074Y0424120D02*
X0366769Y0424120D01*
X0367768Y0425119D02*
X0410075Y0425119D01*
X0409077Y0426117D02*
X0368766Y0426117D01*
X0369765Y0427116D02*
X0408078Y0427116D01*
X0407079Y0428114D02*
X0370763Y0428114D01*
X0371762Y0429113D02*
X0406081Y0429113D01*
X0405082Y0430111D02*
X0372760Y0430111D01*
X0373759Y0431110D02*
X0404084Y0431110D01*
X0403921Y0432108D02*
X0374757Y0432108D01*
X0375756Y0433107D02*
X0403921Y0433107D01*
X0403921Y0434105D02*
X0376754Y0434105D01*
X0365921Y0438099D02*
X0349021Y0438099D01*
X0349021Y0439098D02*
X0350287Y0439098D01*
X0349117Y0440096D02*
X0349021Y0440096D01*
X0349891Y0437101D02*
X0365593Y0437101D01*
X0364594Y0436102D02*
X0350890Y0436102D01*
X0353556Y0435104D02*
X0363596Y0435104D01*
X0362597Y0434105D02*
X0354725Y0434105D01*
X0355185Y0433107D02*
X0361599Y0433107D01*
X0360600Y0432108D02*
X0355321Y0432108D01*
X0355191Y0431110D02*
X0359602Y0431110D01*
X0358603Y0430111D02*
X0354740Y0430111D01*
X0353903Y0429113D02*
X0357605Y0429113D01*
X0356606Y0428114D02*
X0352905Y0428114D01*
X0351906Y0427116D02*
X0355608Y0427116D01*
X0354609Y0426117D02*
X0350907Y0426117D01*
X0349909Y0425119D02*
X0353611Y0425119D01*
X0352612Y0424120D02*
X0348910Y0424120D01*
X0347912Y0423122D02*
X0351614Y0423122D01*
X0350615Y0422123D02*
X0346913Y0422123D01*
X0345915Y0421125D02*
X0349617Y0421125D01*
X0344099Y0419128D02*
X0343918Y0419128D01*
X0343921Y0418129D02*
X0342919Y0418129D01*
X0341921Y0417131D02*
X0344076Y0417131D01*
X0344647Y0416132D02*
X0341767Y0416132D01*
X0355779Y0417131D02*
X0359921Y0417131D01*
X0359921Y0418129D02*
X0356778Y0418129D01*
X0357776Y0419128D02*
X0359921Y0419128D01*
X0359921Y0420126D02*
X0358775Y0420126D01*
X0359773Y0421125D02*
X0359921Y0421125D01*
X0369133Y0416132D02*
X0419251Y0416132D01*
X0416871Y0415134D02*
X0369741Y0415134D01*
X0369921Y0414135D02*
X0415681Y0414135D01*
X0414609Y0413236D02*
X0414609Y0413236D01*
X0414609Y0413236D01*
X0414552Y0413137D02*
X0369769Y0413137D01*
X0369201Y0412138D02*
X0413975Y0412138D01*
X0413399Y0411139D02*
X0368921Y0411139D01*
X0368921Y0410141D02*
X0412912Y0410141D01*
X0412952Y0410365D02*
X0412952Y0410365D01*
X0412736Y0409142D02*
X0368921Y0409142D01*
X0368921Y0408144D02*
X0412560Y0408144D01*
X0412384Y0407145D02*
X0373853Y0407145D01*
X0375512Y0406147D02*
X0412544Y0406147D01*
X0412721Y0405148D02*
X0376504Y0405148D01*
X0376917Y0404150D02*
X0412897Y0404150D01*
X0412952Y0403836D02*
X0412952Y0403836D01*
X0413347Y0403151D02*
X0377321Y0403151D01*
X0377321Y0402153D02*
X0413924Y0402153D01*
X0414500Y0401154D02*
X0377321Y0401154D01*
X0376961Y0400156D02*
X0415574Y0400156D01*
X0414609Y0400965D02*
X0414609Y0400965D01*
X0424592Y0416132D02*
X0429743Y0416132D01*
X0429743Y0415134D02*
X0426972Y0415134D01*
X0428162Y0414135D02*
X0429743Y0414135D01*
X0429743Y0413137D02*
X0429291Y0413137D01*
X0403921Y0435104D02*
X0395753Y0435104D01*
X0396751Y0436102D02*
X0403921Y0436102D01*
X0403921Y0437101D02*
X0397750Y0437101D01*
X0398748Y0438099D02*
X0403921Y0438099D01*
X0403921Y0439098D02*
X0398921Y0439098D01*
X0398921Y0440096D02*
X0403921Y0440096D01*
X0403921Y0441095D02*
X0398921Y0441095D01*
X0398921Y0442093D02*
X0403921Y0442093D01*
X0403921Y0443092D02*
X0399155Y0443092D01*
X0399750Y0444090D02*
X0403921Y0444090D01*
X0403691Y0445089D02*
X0399921Y0445089D01*
X0399760Y0446087D02*
X0403094Y0446087D01*
X0402921Y0447086D02*
X0399179Y0447086D01*
X0397558Y0448084D02*
X0403082Y0448084D01*
X0403661Y0449083D02*
X0371732Y0449083D01*
X0371285Y0448084D02*
X0370733Y0448084D01*
X0372558Y0448084D02*
X0396285Y0448084D01*
X0399698Y0450081D02*
X0374145Y0450081D01*
X0374746Y0451080D02*
X0399097Y0451080D01*
X0398921Y0452078D02*
X0374921Y0452078D01*
X0374764Y0453077D02*
X0399078Y0453077D01*
X0399653Y0454075D02*
X0374189Y0454075D01*
X0368919Y0459068D02*
X0367421Y0459068D01*
X0367421Y0458070D02*
X0367920Y0458070D01*
X0367061Y0460067D02*
X0369917Y0460067D01*
X0365646Y0466058D02*
X0365396Y0466058D01*
X0365396Y0467056D02*
X0365646Y0467056D01*
X0365646Y0468055D02*
X0365396Y0468055D01*
X0365396Y0469053D02*
X0365646Y0469053D01*
X0365646Y0470052D02*
X0365396Y0470052D01*
X0365396Y0471050D02*
X0365646Y0471050D01*
X0365646Y0472049D02*
X0365396Y0472049D01*
X0365396Y0473047D02*
X0365646Y0473047D01*
X0367946Y0473047D02*
X0429743Y0473047D01*
X0429743Y0472049D02*
X0368271Y0472049D01*
X0359614Y0473047D02*
X0353921Y0473047D01*
X0353921Y0474046D02*
X0429743Y0474046D01*
X0429743Y0475044D02*
X0353571Y0475044D01*
X0352722Y0476043D02*
X0429743Y0476043D01*
X0429743Y0477041D02*
X0234021Y0477041D01*
X0234021Y0476043D02*
X0349121Y0476043D01*
X0348272Y0475044D02*
X0234021Y0475044D01*
X0234021Y0474046D02*
X0347921Y0474046D01*
X0347398Y0473047D02*
X0234021Y0473047D01*
X0234021Y0472049D02*
X0346399Y0472049D01*
X0345401Y0471050D02*
X0234021Y0471050D01*
X0234021Y0470052D02*
X0344402Y0470052D01*
X0343404Y0469053D02*
X0234021Y0469053D01*
X0234021Y0468055D02*
X0342405Y0468055D01*
X0341407Y0467056D02*
X0234021Y0467056D01*
X0234021Y0466058D02*
X0337635Y0466058D01*
X0336778Y0465059D02*
X0234021Y0465059D01*
X0234021Y0464061D02*
X0336421Y0464061D01*
X0336421Y0463062D02*
X0234021Y0463062D01*
X0234021Y0462064D02*
X0336811Y0462064D01*
X0337714Y0461065D02*
X0234021Y0461065D01*
X0234021Y0460067D02*
X0302059Y0460067D01*
X0301421Y0459429D02*
X0301421Y0459429D01*
X0301060Y0459068D02*
X0234021Y0459068D01*
X0234021Y0458070D02*
X0300062Y0458070D01*
X0299063Y0457071D02*
X0234021Y0457071D01*
X0234021Y0456072D02*
X0298065Y0456072D01*
X0297066Y0455074D02*
X0234021Y0455074D01*
X0227821Y0468055D02*
X0205789Y0468055D01*
X0203517Y0469053D02*
X0227821Y0469053D01*
X0201391Y0464061D02*
X0177930Y0464061D01*
X0178928Y0465059D02*
X0186799Y0465059D01*
X0190201Y0465059D02*
X0201000Y0465059D01*
X0234021Y0316400D02*
X0429743Y0316400D01*
X0429743Y0251653D01*
X0429233Y0252535D01*
X0429233Y0252535D01*
X0426694Y0254666D01*
X0423579Y0255800D01*
X0420264Y0255800D01*
X0417149Y0254666D01*
X0417149Y0254666D01*
X0414609Y0252535D01*
X0412952Y0249665D01*
X0412952Y0249665D01*
X0412376Y0246400D01*
X0412952Y0243135D01*
X0414609Y0240265D01*
X0416712Y0238500D01*
X0376565Y0238500D01*
X0377321Y0240326D01*
X0377321Y0242474D01*
X0376499Y0244459D01*
X0374980Y0245978D01*
X0372995Y0246800D01*
X0370847Y0246800D01*
X0369788Y0246361D01*
X0368921Y0247228D01*
X0368921Y0251157D01*
X0369465Y0251701D01*
X0369921Y0252803D01*
X0369921Y0253997D01*
X0369465Y0255099D01*
X0368621Y0255943D01*
X0367518Y0256400D01*
X0366325Y0256400D01*
X0365222Y0255943D01*
X0364378Y0255099D01*
X0363921Y0253997D01*
X0363921Y0252803D01*
X0364378Y0251701D01*
X0364921Y0251157D01*
X0364921Y0246002D01*
X0363921Y0246416D01*
X0363921Y0260572D01*
X0377750Y0274400D01*
X0395750Y0274400D01*
X0397750Y0276400D01*
X0398921Y0277572D01*
X0398921Y0282157D01*
X0399465Y0282701D01*
X0399921Y0283803D01*
X0399921Y0284997D01*
X0399465Y0286099D01*
X0398621Y0286943D01*
X0397518Y0287400D01*
X0396325Y0287400D01*
X0395222Y0286943D01*
X0394679Y0286400D01*
X0374164Y0286400D01*
X0373621Y0286943D01*
X0372518Y0287400D01*
X0371325Y0287400D01*
X0370343Y0286994D01*
X0371750Y0288400D01*
X0372518Y0288400D01*
X0373621Y0288857D01*
X0374465Y0289701D01*
X0374921Y0290803D01*
X0374921Y0291997D01*
X0374465Y0293099D01*
X0373621Y0293943D01*
X0372518Y0294400D01*
X0371325Y0294400D01*
X0370585Y0294094D01*
X0381291Y0304800D01*
X0388279Y0304800D01*
X0388722Y0304357D01*
X0389825Y0303900D01*
X0391018Y0303900D01*
X0392121Y0304357D01*
X0392564Y0304800D01*
X0402921Y0304800D01*
X0402921Y0304303D01*
X0403378Y0303201D01*
X0404222Y0302357D01*
X0405325Y0301900D01*
X0406518Y0301900D01*
X0407621Y0302357D01*
X0408064Y0302800D01*
X0413551Y0302800D01*
X0424821Y0291530D01*
X0424821Y0278350D01*
X0423800Y0278350D01*
X0422750Y0279400D01*
X0422750Y0279400D01*
X0409921Y0292228D01*
X0409921Y0292228D01*
X0408750Y0293400D01*
X0404164Y0293400D01*
X0403621Y0293943D01*
X0402518Y0294400D01*
X0401325Y0294400D01*
X0400222Y0293943D01*
X0399378Y0293099D01*
X0398921Y0291997D01*
X0398921Y0290803D01*
X0399378Y0289701D01*
X0400222Y0288857D01*
X0401325Y0288400D01*
X0402518Y0288400D01*
X0403621Y0288857D01*
X0404164Y0289400D01*
X0407093Y0289400D01*
X0407499Y0288993D01*
X0406518Y0289400D01*
X0405325Y0289400D01*
X0404222Y0288943D01*
X0403378Y0288099D01*
X0402921Y0286997D01*
X0402921Y0285803D01*
X0403378Y0284701D01*
X0403921Y0284157D01*
X0403921Y0270572D01*
X0409921Y0264572D01*
X0411093Y0263400D01*
X0422750Y0263400D01*
X0423800Y0264450D01*
X0425125Y0264450D01*
X0426121Y0265446D01*
X0426121Y0269300D01*
X0426291Y0269300D01*
X0427521Y0270530D01*
X0429021Y0272030D01*
X0429021Y0293270D01*
X0427791Y0294500D01*
X0415291Y0307000D01*
X0408064Y0307000D01*
X0407621Y0307443D01*
X0406518Y0307900D01*
X0405891Y0307900D01*
X0404791Y0309000D01*
X0392564Y0309000D01*
X0392121Y0309443D01*
X0391018Y0309900D01*
X0389825Y0309900D01*
X0388722Y0309443D01*
X0388279Y0309000D01*
X0379551Y0309000D01*
X0367115Y0296563D01*
X0367421Y0297303D01*
X0367421Y0298497D01*
X0366965Y0299599D01*
X0366121Y0300443D01*
X0365018Y0300900D01*
X0363825Y0300900D01*
X0362722Y0300443D01*
X0362179Y0299900D01*
X0302593Y0299900D01*
X0301421Y0298728D01*
X0269093Y0266400D01*
X0268325Y0266400D01*
X0267222Y0265943D01*
X0266378Y0265099D01*
X0265921Y0263997D01*
X0265921Y0262803D01*
X0266378Y0261701D01*
X0267222Y0260857D01*
X0268325Y0260400D01*
X0269518Y0260400D01*
X0270621Y0260857D01*
X0271465Y0261701D01*
X0271921Y0262803D01*
X0271921Y0263572D01*
X0304250Y0295900D01*
X0362179Y0295900D01*
X0362722Y0295357D01*
X0363825Y0294900D01*
X0365018Y0294900D01*
X0365758Y0295206D01*
X0359051Y0288500D01*
X0353282Y0288500D01*
X0353437Y0288564D01*
X0353961Y0288914D01*
X0354407Y0289360D01*
X0354757Y0289884D01*
X0354998Y0290467D01*
X0355121Y0291085D01*
X0355121Y0291400D01*
X0355121Y0291715D01*
X0354998Y0292333D01*
X0354757Y0292916D01*
X0354407Y0293440D01*
X0353961Y0293886D01*
X0353437Y0294236D01*
X0352855Y0294477D01*
X0352236Y0294600D01*
X0351921Y0294600D01*
X0351606Y0294600D01*
X0350988Y0294477D01*
X0350406Y0294236D01*
X0349881Y0293886D01*
X0349436Y0293440D01*
X0349311Y0293253D01*
X0348621Y0293943D01*
X0347518Y0294400D01*
X0346325Y0294400D01*
X0345222Y0293943D01*
X0344704Y0293425D01*
X0343847Y0294282D01*
X0342598Y0294800D01*
X0341245Y0294800D01*
X0339995Y0294282D01*
X0339039Y0293326D01*
X0338521Y0292076D01*
X0338521Y0290724D01*
X0339039Y0289474D01*
X0339995Y0288518D01*
X0341245Y0288000D01*
X0342598Y0288000D01*
X0343847Y0288518D01*
X0344704Y0289375D01*
X0344821Y0289257D01*
X0344821Y0283283D01*
X0344804Y0283326D01*
X0343847Y0284282D01*
X0342598Y0284800D01*
X0341245Y0284800D01*
X0339995Y0284282D01*
X0339113Y0283400D01*
X0338093Y0283400D01*
X0336093Y0281400D01*
X0334921Y0280228D01*
X0334921Y0270728D01*
X0331593Y0267400D01*
X0331250Y0267400D01*
X0329250Y0269400D01*
X0309164Y0269400D01*
X0308621Y0269943D01*
X0307518Y0270400D01*
X0306325Y0270400D01*
X0305222Y0269943D01*
X0304378Y0269099D01*
X0303921Y0267997D01*
X0303921Y0266803D01*
X0304378Y0265701D01*
X0305222Y0264857D01*
X0306325Y0264400D01*
X0307518Y0264400D01*
X0308621Y0264857D01*
X0309164Y0265400D01*
X0327593Y0265400D01*
X0328421Y0264572D01*
X0328421Y0263803D01*
X0328878Y0262701D01*
X0329722Y0261857D01*
X0330825Y0261400D01*
X0332018Y0261400D01*
X0333121Y0261857D01*
X0333965Y0262701D01*
X0334421Y0263803D01*
X0334421Y0264572D01*
X0338921Y0269072D01*
X0338921Y0269758D01*
X0339039Y0269474D01*
X0339995Y0268518D01*
X0341245Y0268000D01*
X0342598Y0268000D01*
X0343847Y0268518D01*
X0344804Y0269474D01*
X0345321Y0270724D01*
X0345321Y0272076D01*
X0344804Y0273326D01*
X0343847Y0274282D01*
X0342598Y0274800D01*
X0341245Y0274800D01*
X0339995Y0274282D01*
X0339039Y0273326D01*
X0338921Y0273042D01*
X0338921Y0278572D01*
X0339431Y0279082D01*
X0339995Y0278518D01*
X0341245Y0278000D01*
X0342598Y0278000D01*
X0343847Y0278518D01*
X0344804Y0279474D01*
X0344821Y0279517D01*
X0344821Y0275530D01*
X0348521Y0271830D01*
X0348521Y0270724D01*
X0349035Y0269484D01*
X0338951Y0259400D01*
X0338325Y0259400D01*
X0337222Y0258943D01*
X0336378Y0258099D01*
X0335921Y0256997D01*
X0335921Y0255803D01*
X0336378Y0254701D01*
X0337222Y0253857D01*
X0338325Y0253400D01*
X0339518Y0253400D01*
X0340621Y0253857D01*
X0341465Y0254701D01*
X0341921Y0255803D01*
X0341921Y0256430D01*
X0344228Y0258737D01*
X0343921Y0257997D01*
X0343921Y0256803D01*
X0344378Y0255701D01*
X0345222Y0254857D01*
X0346325Y0254400D01*
X0347518Y0254400D01*
X0348621Y0254857D01*
X0349164Y0255400D01*
X0349921Y0255400D01*
X0349921Y0246416D01*
X0348862Y0245978D01*
X0347343Y0244459D01*
X0346921Y0243440D01*
X0346499Y0244459D01*
X0344980Y0245978D01*
X0342995Y0246800D01*
X0340847Y0246800D01*
X0338862Y0245978D01*
X0337343Y0244459D01*
X0336812Y0243176D01*
X0336740Y0243396D01*
X0336369Y0244125D01*
X0335888Y0244788D01*
X0335309Y0245366D01*
X0334647Y0245847D01*
X0333917Y0246219D01*
X0333139Y0246472D01*
X0332421Y0246586D01*
X0332421Y0241900D01*
X0331421Y0241900D01*
X0331421Y0240900D01*
X0326736Y0240900D01*
X0326849Y0240182D01*
X0327102Y0239404D01*
X0327474Y0238675D01*
X0327601Y0238500D01*
X0247130Y0238500D01*
X0249233Y0240265D01*
X0250891Y0243135D01*
X0250891Y0243135D01*
X0251466Y0246400D01*
X0250891Y0249665D01*
X0249233Y0252535D01*
X0249233Y0252535D01*
X0246694Y0254666D01*
X0243579Y0255800D01*
X0240980Y0255800D01*
X0241765Y0256977D01*
X0241400Y0258805D01*
X0240480Y0259418D01*
X0241400Y0260032D01*
X0241765Y0261859D01*
X0240874Y0263196D01*
X0241626Y0263948D01*
X0241626Y0267780D01*
X0240848Y0268559D01*
X0240308Y0269098D01*
X0240147Y0269259D01*
X0239828Y0269579D01*
X0240308Y0270059D01*
X0240308Y0270059D01*
X0240547Y0270298D01*
X0241626Y0271377D01*
X0241626Y0273241D01*
X0240958Y0273910D01*
X0240308Y0274559D01*
X0235721Y0274559D01*
X0235721Y0275210D01*
X0234403Y0276528D01*
X0234021Y0276528D01*
X0234021Y0316400D01*
X0234021Y0316281D02*
X0429743Y0316281D01*
X0429743Y0315282D02*
X0352782Y0315282D01*
X0352621Y0315443D02*
X0351518Y0315900D01*
X0350325Y0315900D01*
X0349222Y0315443D01*
X0348378Y0314599D01*
X0347921Y0313497D01*
X0347921Y0312870D01*
X0340678Y0305627D01*
X0340018Y0305900D01*
X0338825Y0305900D01*
X0337722Y0305443D01*
X0336878Y0304599D01*
X0336421Y0303497D01*
X0336421Y0302303D01*
X0336878Y0301201D01*
X0337722Y0300357D01*
X0338825Y0299900D01*
X0340018Y0299900D01*
X0341121Y0300357D01*
X0341564Y0300800D01*
X0341791Y0300800D01*
X0350891Y0309900D01*
X0351518Y0309900D01*
X0352621Y0310357D01*
X0353465Y0311201D01*
X0353921Y0312303D01*
X0353921Y0313497D01*
X0353465Y0314599D01*
X0352621Y0315443D01*
X0353595Y0314284D02*
X0429743Y0314284D01*
X0429743Y0313285D02*
X0353921Y0313285D01*
X0353914Y0312287D02*
X0359554Y0312287D01*
X0359371Y0312104D02*
X0359371Y0311000D01*
X0359064Y0311000D01*
X0358621Y0311443D01*
X0357518Y0311900D01*
X0356325Y0311900D01*
X0355222Y0311443D01*
X0354378Y0310599D01*
X0353921Y0309497D01*
X0353921Y0308303D01*
X0354378Y0307201D01*
X0355222Y0306357D01*
X0356325Y0305900D01*
X0357518Y0305900D01*
X0358621Y0306357D01*
X0359064Y0306800D01*
X0359371Y0306800D01*
X0359371Y0305696D01*
X0360367Y0304700D01*
X0364275Y0304700D01*
X0364475Y0304900D01*
X0365396Y0304900D01*
X0365396Y0308775D01*
X0365646Y0308775D01*
X0365646Y0304900D01*
X0366969Y0304900D01*
X0367350Y0305002D01*
X0367692Y0305200D01*
X0367972Y0305479D01*
X0368169Y0305821D01*
X0368271Y0306203D01*
X0368271Y0308775D01*
X0365646Y0308775D01*
X0365646Y0309025D01*
X0365396Y0309025D01*
X0365396Y0312900D01*
X0364475Y0312900D01*
X0364275Y0313100D01*
X0360367Y0313100D01*
X0359371Y0312104D01*
X0359371Y0311288D02*
X0358776Y0311288D01*
X0355067Y0311288D02*
X0353501Y0311288D01*
X0354250Y0310290D02*
X0352459Y0310290D01*
X0353921Y0309291D02*
X0350282Y0309291D01*
X0349284Y0308293D02*
X0353926Y0308293D01*
X0354339Y0307294D02*
X0348285Y0307294D01*
X0347287Y0306296D02*
X0355369Y0306296D01*
X0358474Y0306296D02*
X0359371Y0306296D01*
X0359770Y0305297D02*
X0346288Y0305297D01*
X0345290Y0304299D02*
X0374850Y0304299D01*
X0375849Y0305297D02*
X0367790Y0305297D01*
X0368271Y0306296D02*
X0376847Y0306296D01*
X0377846Y0307294D02*
X0368271Y0307294D01*
X0368271Y0308293D02*
X0378844Y0308293D01*
X0380790Y0304299D02*
X0388862Y0304299D01*
X0391981Y0304299D02*
X0402923Y0304299D01*
X0403337Y0303300D02*
X0379791Y0303300D01*
X0378793Y0302302D02*
X0404355Y0302302D01*
X0407488Y0302302D02*
X0414050Y0302302D01*
X0415048Y0301303D02*
X0377794Y0301303D01*
X0376796Y0300305D02*
X0416047Y0300305D01*
X0417045Y0299306D02*
X0375797Y0299306D01*
X0374799Y0298308D02*
X0418044Y0298308D01*
X0419042Y0297309D02*
X0373800Y0297309D01*
X0372802Y0296311D02*
X0420041Y0296311D01*
X0421039Y0295312D02*
X0371803Y0295312D01*
X0371116Y0294314D02*
X0370805Y0294314D01*
X0372726Y0294314D02*
X0401116Y0294314D01*
X0402726Y0294314D02*
X0422038Y0294314D01*
X0423036Y0293315D02*
X0408835Y0293315D01*
X0409833Y0292317D02*
X0424035Y0292317D01*
X0424821Y0291318D02*
X0410832Y0291318D01*
X0411830Y0290320D02*
X0424821Y0290320D01*
X0424821Y0289321D02*
X0412829Y0289321D01*
X0413827Y0288323D02*
X0424821Y0288323D01*
X0424821Y0287324D02*
X0414826Y0287324D01*
X0415824Y0286326D02*
X0424821Y0286326D01*
X0424821Y0285327D02*
X0416823Y0285327D01*
X0417821Y0284329D02*
X0424821Y0284329D01*
X0424821Y0283330D02*
X0418820Y0283330D01*
X0419818Y0282332D02*
X0424821Y0282332D01*
X0424821Y0281333D02*
X0420817Y0281333D01*
X0421815Y0280334D02*
X0424821Y0280334D01*
X0424821Y0279336D02*
X0422814Y0279336D01*
X0421921Y0275400D02*
X0421921Y0271400D01*
X0421921Y0267400D01*
X0423708Y0264358D02*
X0429743Y0264358D01*
X0429743Y0263360D02*
X0366710Y0263360D01*
X0367708Y0264358D02*
X0410135Y0264358D01*
X0409136Y0265357D02*
X0368707Y0265357D01*
X0369705Y0266355D02*
X0408138Y0266355D01*
X0407139Y0267354D02*
X0370704Y0267354D01*
X0371702Y0268352D02*
X0406141Y0268352D01*
X0405142Y0269351D02*
X0372701Y0269351D01*
X0373699Y0270349D02*
X0404143Y0270349D01*
X0403921Y0271348D02*
X0374698Y0271348D01*
X0375696Y0272346D02*
X0403921Y0272346D01*
X0403921Y0273345D02*
X0376695Y0273345D01*
X0377693Y0274343D02*
X0403921Y0274343D01*
X0403921Y0275342D02*
X0396692Y0275342D01*
X0397690Y0276340D02*
X0403921Y0276340D01*
X0403921Y0277339D02*
X0398689Y0277339D01*
X0398921Y0278337D02*
X0403921Y0278337D01*
X0403921Y0279336D02*
X0398921Y0279336D01*
X0398921Y0280334D02*
X0403921Y0280334D01*
X0403921Y0281333D02*
X0398921Y0281333D01*
X0399095Y0282332D02*
X0403921Y0282332D01*
X0403921Y0283330D02*
X0399725Y0283330D01*
X0399921Y0284329D02*
X0403750Y0284329D01*
X0403119Y0285327D02*
X0399784Y0285327D01*
X0399238Y0286326D02*
X0402921Y0286326D01*
X0403057Y0287324D02*
X0397701Y0287324D01*
X0396141Y0287324D02*
X0372701Y0287324D01*
X0371672Y0288323D02*
X0403601Y0288323D01*
X0404085Y0289321D02*
X0405134Y0289321D01*
X0406708Y0289321D02*
X0407172Y0289321D01*
X0399758Y0289321D02*
X0374085Y0289321D01*
X0374721Y0290320D02*
X0399122Y0290320D01*
X0398921Y0291318D02*
X0374921Y0291318D01*
X0374789Y0292317D02*
X0399054Y0292317D01*
X0399594Y0293315D02*
X0374249Y0293315D01*
X0369228Y0292737D02*
X0368921Y0291997D01*
X0368921Y0291228D01*
X0365921Y0288228D01*
X0365921Y0276728D01*
X0348878Y0259686D01*
X0348621Y0259943D01*
X0347518Y0260400D01*
X0346325Y0260400D01*
X0345585Y0260094D01*
X0354021Y0268530D01*
X0354021Y0268692D01*
X0354804Y0269474D01*
X0355321Y0270724D01*
X0355321Y0272076D01*
X0354804Y0273326D01*
X0353847Y0274282D01*
X0352598Y0274800D01*
X0351491Y0274800D01*
X0349021Y0277270D01*
X0349021Y0279517D01*
X0349039Y0279474D01*
X0349995Y0278518D01*
X0351245Y0278000D01*
X0352598Y0278000D01*
X0353847Y0278518D01*
X0354804Y0279474D01*
X0355321Y0280724D01*
X0355321Y0282076D01*
X0354804Y0283326D01*
X0353847Y0284282D01*
X0353805Y0284300D01*
X0360791Y0284300D01*
X0362021Y0285530D01*
X0369228Y0292737D01*
X0369054Y0292317D02*
X0368808Y0292317D01*
X0368921Y0291318D02*
X0367809Y0291318D01*
X0368012Y0290320D02*
X0366811Y0290320D01*
X0367014Y0289321D02*
X0365812Y0289321D01*
X0366015Y0288323D02*
X0364814Y0288323D01*
X0363815Y0287324D02*
X0365921Y0287324D01*
X0365921Y0286326D02*
X0362817Y0286326D01*
X0361818Y0285327D02*
X0365921Y0285327D01*
X0365921Y0284329D02*
X0360820Y0284329D01*
X0359873Y0289321D02*
X0354368Y0289321D01*
X0354937Y0290320D02*
X0360871Y0290320D01*
X0361870Y0291318D02*
X0355121Y0291318D01*
X0355121Y0291400D02*
X0351921Y0291400D01*
X0351921Y0294600D01*
X0351921Y0291400D01*
X0351921Y0291400D01*
X0355121Y0291400D01*
X0355002Y0292317D02*
X0362868Y0292317D01*
X0363867Y0293315D02*
X0354490Y0293315D01*
X0353249Y0294314D02*
X0364865Y0294314D01*
X0362829Y0295312D02*
X0303662Y0295312D01*
X0302663Y0294314D02*
X0340071Y0294314D01*
X0339034Y0293315D02*
X0301665Y0293315D01*
X0300666Y0292317D02*
X0338621Y0292317D01*
X0338521Y0291318D02*
X0299668Y0291318D01*
X0298669Y0290320D02*
X0338689Y0290320D01*
X0339192Y0289321D02*
X0297671Y0289321D01*
X0296672Y0288323D02*
X0340466Y0288323D01*
X0343376Y0288323D02*
X0344821Y0288323D01*
X0344821Y0287324D02*
X0295674Y0287324D01*
X0294675Y0286326D02*
X0344821Y0286326D01*
X0344821Y0285327D02*
X0293677Y0285327D01*
X0292678Y0284329D02*
X0340107Y0284329D01*
X0338023Y0283330D02*
X0291680Y0283330D01*
X0290681Y0282332D02*
X0337024Y0282332D01*
X0336026Y0281333D02*
X0289683Y0281333D01*
X0288684Y0280334D02*
X0335027Y0280334D01*
X0334921Y0279336D02*
X0287686Y0279336D01*
X0286687Y0278337D02*
X0334921Y0278337D01*
X0334921Y0277339D02*
X0285689Y0277339D01*
X0284690Y0276340D02*
X0334921Y0276340D01*
X0334921Y0275342D02*
X0283692Y0275342D01*
X0282693Y0274343D02*
X0334921Y0274343D01*
X0334921Y0273345D02*
X0281695Y0273345D01*
X0280696Y0272346D02*
X0334921Y0272346D01*
X0334921Y0271348D02*
X0279698Y0271348D01*
X0278699Y0270349D02*
X0306202Y0270349D01*
X0307640Y0270349D02*
X0334542Y0270349D01*
X0333544Y0269351D02*
X0329299Y0269351D01*
X0330297Y0268352D02*
X0332545Y0268352D01*
X0335207Y0265357D02*
X0344908Y0265357D01*
X0343910Y0264358D02*
X0334421Y0264358D01*
X0334238Y0263360D02*
X0342911Y0263360D01*
X0341913Y0262361D02*
X0333625Y0262361D01*
X0329217Y0262361D02*
X0271738Y0262361D01*
X0271921Y0263360D02*
X0328605Y0263360D01*
X0328421Y0264358D02*
X0272708Y0264358D01*
X0273707Y0265357D02*
X0304722Y0265357D01*
X0304107Y0266355D02*
X0274705Y0266355D01*
X0275704Y0267354D02*
X0303921Y0267354D01*
X0304069Y0268352D02*
X0276702Y0268352D01*
X0277701Y0269351D02*
X0304630Y0269351D01*
X0309121Y0265357D02*
X0327636Y0265357D01*
X0336205Y0266355D02*
X0345907Y0266355D01*
X0346905Y0267354D02*
X0337204Y0267354D01*
X0338202Y0268352D02*
X0340394Y0268352D01*
X0339162Y0269351D02*
X0338921Y0269351D01*
X0338921Y0273345D02*
X0339058Y0273345D01*
X0338921Y0274343D02*
X0340143Y0274343D01*
X0338921Y0275342D02*
X0345009Y0275342D01*
X0344821Y0276340D02*
X0338921Y0276340D01*
X0338921Y0277339D02*
X0344821Y0277339D01*
X0344821Y0278337D02*
X0343412Y0278337D01*
X0344666Y0279336D02*
X0344821Y0279336D01*
X0344800Y0283330D02*
X0344821Y0283330D01*
X0344821Y0284329D02*
X0343736Y0284329D01*
X0344651Y0289321D02*
X0344758Y0289321D01*
X0343772Y0294314D02*
X0346116Y0294314D01*
X0347726Y0294314D02*
X0350594Y0294314D01*
X0351921Y0294314D02*
X0351921Y0294314D01*
X0351921Y0293315D02*
X0351921Y0293315D01*
X0351921Y0292317D02*
X0351921Y0292317D01*
X0351921Y0291400D02*
X0351921Y0291400D01*
X0349352Y0293315D02*
X0349249Y0293315D01*
X0342294Y0301303D02*
X0371855Y0301303D01*
X0372853Y0302302D02*
X0343293Y0302302D01*
X0344291Y0303300D02*
X0373852Y0303300D01*
X0370856Y0300305D02*
X0366259Y0300305D01*
X0367086Y0299306D02*
X0369858Y0299306D01*
X0368859Y0298308D02*
X0367421Y0298308D01*
X0367421Y0297309D02*
X0367861Y0297309D01*
X0362583Y0300305D02*
X0340995Y0300305D01*
X0337847Y0300305D02*
X0234021Y0300305D01*
X0234021Y0301303D02*
X0336836Y0301303D01*
X0336422Y0302302D02*
X0234021Y0302302D01*
X0234021Y0303300D02*
X0336421Y0303300D01*
X0336754Y0304299D02*
X0234021Y0304299D01*
X0234021Y0305297D02*
X0337576Y0305297D01*
X0341347Y0306296D02*
X0234021Y0306296D01*
X0234021Y0307294D02*
X0342346Y0307294D01*
X0343344Y0308293D02*
X0234021Y0308293D01*
X0234021Y0309291D02*
X0344343Y0309291D01*
X0345341Y0310290D02*
X0234021Y0310290D01*
X0234021Y0311288D02*
X0346340Y0311288D01*
X0347338Y0312287D02*
X0234021Y0312287D01*
X0234021Y0313285D02*
X0347921Y0313285D01*
X0348247Y0314284D02*
X0234021Y0314284D01*
X0234021Y0315282D02*
X0349061Y0315282D01*
X0365396Y0312287D02*
X0365646Y0312287D01*
X0365646Y0312900D02*
X0365646Y0309025D01*
X0368271Y0309025D01*
X0368271Y0311597D01*
X0368169Y0311979D01*
X0367972Y0312321D01*
X0367692Y0312600D01*
X0367350Y0312798D01*
X0366969Y0312900D01*
X0365646Y0312900D01*
X0365646Y0311288D02*
X0365396Y0311288D01*
X0365396Y0310290D02*
X0365646Y0310290D01*
X0365646Y0309291D02*
X0365396Y0309291D01*
X0365396Y0308293D02*
X0365646Y0308293D01*
X0365646Y0307294D02*
X0365396Y0307294D01*
X0365396Y0306296D02*
X0365646Y0306296D01*
X0365646Y0305297D02*
X0365396Y0305297D01*
X0368271Y0309291D02*
X0388570Y0309291D01*
X0392273Y0309291D02*
X0429743Y0309291D01*
X0429743Y0308293D02*
X0405498Y0308293D01*
X0407770Y0307294D02*
X0429743Y0307294D01*
X0429743Y0306296D02*
X0415995Y0306296D01*
X0416994Y0305297D02*
X0429743Y0305297D01*
X0429743Y0304299D02*
X0417992Y0304299D01*
X0418991Y0303300D02*
X0429743Y0303300D01*
X0429743Y0302302D02*
X0419989Y0302302D01*
X0420988Y0301303D02*
X0429743Y0301303D01*
X0429743Y0300305D02*
X0421986Y0300305D01*
X0422985Y0299306D02*
X0429743Y0299306D01*
X0429743Y0298308D02*
X0423983Y0298308D01*
X0424982Y0297309D02*
X0429743Y0297309D01*
X0429743Y0296311D02*
X0425980Y0296311D01*
X0426979Y0295312D02*
X0429743Y0295312D01*
X0429743Y0294314D02*
X0427977Y0294314D01*
X0427791Y0294500D02*
X0427791Y0294500D01*
X0428976Y0293315D02*
X0429743Y0293315D01*
X0429743Y0292317D02*
X0429021Y0292317D01*
X0429021Y0291318D02*
X0429743Y0291318D01*
X0429743Y0290320D02*
X0429021Y0290320D01*
X0429021Y0289321D02*
X0429743Y0289321D01*
X0429743Y0288323D02*
X0429021Y0288323D01*
X0429021Y0287324D02*
X0429743Y0287324D01*
X0429743Y0286326D02*
X0429021Y0286326D01*
X0429021Y0285327D02*
X0429743Y0285327D01*
X0429743Y0284329D02*
X0429021Y0284329D01*
X0429021Y0283330D02*
X0429743Y0283330D01*
X0429743Y0282332D02*
X0429021Y0282332D01*
X0429021Y0281333D02*
X0429743Y0281333D01*
X0429743Y0280334D02*
X0429021Y0280334D01*
X0429021Y0279336D02*
X0429743Y0279336D01*
X0429743Y0278337D02*
X0429021Y0278337D01*
X0429021Y0277339D02*
X0429743Y0277339D01*
X0429743Y0276340D02*
X0429021Y0276340D01*
X0429021Y0275342D02*
X0429743Y0275342D01*
X0429743Y0274343D02*
X0429021Y0274343D01*
X0429021Y0273345D02*
X0429743Y0273345D01*
X0429743Y0272346D02*
X0429021Y0272346D01*
X0428339Y0271348D02*
X0429743Y0271348D01*
X0429743Y0270349D02*
X0427341Y0270349D01*
X0426342Y0269351D02*
X0429743Y0269351D01*
X0429743Y0268352D02*
X0426121Y0268352D01*
X0426121Y0267354D02*
X0429743Y0267354D01*
X0429743Y0266355D02*
X0426121Y0266355D01*
X0426032Y0265357D02*
X0429743Y0265357D01*
X0429743Y0262361D02*
X0365711Y0262361D01*
X0364712Y0261363D02*
X0429743Y0261363D01*
X0429743Y0260364D02*
X0363921Y0260364D01*
X0363921Y0259366D02*
X0429743Y0259366D01*
X0429743Y0258367D02*
X0363921Y0258367D01*
X0363921Y0257369D02*
X0429743Y0257369D01*
X0429743Y0256370D02*
X0367590Y0256370D01*
X0366253Y0256370D02*
X0363921Y0256370D01*
X0363921Y0255372D02*
X0364650Y0255372D01*
X0364077Y0254373D02*
X0363921Y0254373D01*
X0363921Y0253375D02*
X0363921Y0253375D01*
X0363921Y0252376D02*
X0364098Y0252376D01*
X0363921Y0251378D02*
X0364701Y0251378D01*
X0364921Y0250379D02*
X0363921Y0250379D01*
X0363921Y0249381D02*
X0364921Y0249381D01*
X0364921Y0248382D02*
X0363921Y0248382D01*
X0363921Y0247384D02*
X0364921Y0247384D01*
X0364921Y0246385D02*
X0363997Y0246385D01*
X0359921Y0246416D02*
X0358862Y0245978D01*
X0357343Y0244459D01*
X0356921Y0243440D01*
X0356499Y0244459D01*
X0354980Y0245978D01*
X0353921Y0246416D01*
X0353921Y0254572D01*
X0359921Y0260572D01*
X0359921Y0246416D01*
X0359846Y0246385D02*
X0353997Y0246385D01*
X0353921Y0247384D02*
X0359921Y0247384D01*
X0359921Y0248382D02*
X0353921Y0248382D01*
X0353921Y0249381D02*
X0359921Y0249381D01*
X0359921Y0250379D02*
X0353921Y0250379D01*
X0353921Y0251378D02*
X0359921Y0251378D01*
X0359921Y0252376D02*
X0353921Y0252376D01*
X0353921Y0253375D02*
X0359921Y0253375D01*
X0359921Y0254373D02*
X0353921Y0254373D01*
X0354721Y0255372D02*
X0359921Y0255372D01*
X0359921Y0256370D02*
X0355720Y0256370D01*
X0356718Y0257369D02*
X0359921Y0257369D01*
X0359921Y0258367D02*
X0357717Y0258367D01*
X0358715Y0259366D02*
X0359921Y0259366D01*
X0359921Y0260364D02*
X0359714Y0260364D01*
X0354550Y0265357D02*
X0350848Y0265357D01*
X0351846Y0266355D02*
X0355548Y0266355D01*
X0356547Y0267354D02*
X0352845Y0267354D01*
X0353843Y0268352D02*
X0357545Y0268352D01*
X0358544Y0269351D02*
X0354680Y0269351D01*
X0355166Y0270349D02*
X0359542Y0270349D01*
X0360541Y0271348D02*
X0355321Y0271348D01*
X0355209Y0272346D02*
X0361539Y0272346D01*
X0362538Y0273345D02*
X0354785Y0273345D01*
X0353700Y0274343D02*
X0363536Y0274343D01*
X0364535Y0275342D02*
X0350949Y0275342D01*
X0349951Y0276340D02*
X0365533Y0276340D01*
X0365921Y0277339D02*
X0349021Y0277339D01*
X0349021Y0278337D02*
X0350430Y0278337D01*
X0349177Y0279336D02*
X0349021Y0279336D01*
X0353412Y0278337D02*
X0365921Y0278337D01*
X0365921Y0279336D02*
X0354666Y0279336D01*
X0355160Y0280334D02*
X0365921Y0280334D01*
X0365921Y0281333D02*
X0355321Y0281333D01*
X0355216Y0282332D02*
X0365921Y0282332D01*
X0365921Y0283330D02*
X0354800Y0283330D01*
X0346008Y0274343D02*
X0343700Y0274343D01*
X0344785Y0273345D02*
X0347007Y0273345D01*
X0348005Y0272346D02*
X0345209Y0272346D01*
X0345321Y0271348D02*
X0348521Y0271348D01*
X0348676Y0270349D02*
X0345166Y0270349D01*
X0344680Y0269351D02*
X0348902Y0269351D01*
X0347904Y0268352D02*
X0343448Y0268352D01*
X0348851Y0263360D02*
X0352553Y0263360D01*
X0353551Y0264358D02*
X0349849Y0264358D01*
X0351554Y0262361D02*
X0347852Y0262361D01*
X0346854Y0261363D02*
X0350556Y0261363D01*
X0349557Y0260364D02*
X0347604Y0260364D01*
X0346238Y0260364D02*
X0345855Y0260364D01*
X0344075Y0258367D02*
X0343858Y0258367D01*
X0343921Y0257369D02*
X0342860Y0257369D01*
X0341921Y0256370D02*
X0344101Y0256370D01*
X0344707Y0255372D02*
X0341743Y0255372D01*
X0341137Y0254373D02*
X0349921Y0254373D01*
X0349921Y0253375D02*
X0248233Y0253375D01*
X0249325Y0252376D02*
X0349921Y0252376D01*
X0349921Y0251378D02*
X0249902Y0251378D01*
X0250478Y0250379D02*
X0349921Y0250379D01*
X0349921Y0249381D02*
X0250941Y0249381D01*
X0250891Y0249665D02*
X0250891Y0249665D01*
X0251117Y0248382D02*
X0349921Y0248382D01*
X0349921Y0247384D02*
X0251293Y0247384D01*
X0251466Y0246400D02*
X0251466Y0246400D01*
X0251464Y0246385D02*
X0330436Y0246385D01*
X0330704Y0246472D02*
X0329925Y0246219D01*
X0329196Y0245847D01*
X0328534Y0245366D01*
X0327955Y0244788D01*
X0327474Y0244125D01*
X0327102Y0243396D01*
X0326849Y0242618D01*
X0326736Y0241900D01*
X0331421Y0241900D01*
X0331421Y0246586D01*
X0330704Y0246472D01*
X0331421Y0246385D02*
X0332421Y0246385D01*
X0333406Y0246385D02*
X0339846Y0246385D01*
X0338271Y0245387D02*
X0335281Y0245387D01*
X0336178Y0244388D02*
X0337314Y0244388D01*
X0336900Y0243390D02*
X0336742Y0243390D01*
X0332421Y0243390D02*
X0331421Y0243390D01*
X0331421Y0244388D02*
X0332421Y0244388D01*
X0332421Y0245387D02*
X0331421Y0245387D01*
X0328562Y0245387D02*
X0251288Y0245387D01*
X0251112Y0244388D02*
X0327665Y0244388D01*
X0327100Y0243390D02*
X0250935Y0243390D01*
X0250461Y0242391D02*
X0326813Y0242391D01*
X0326816Y0240394D02*
X0249308Y0240394D01*
X0249233Y0240265D02*
X0249233Y0240265D01*
X0249233Y0240265D01*
X0249884Y0241393D02*
X0331421Y0241393D01*
X0331421Y0242391D02*
X0332421Y0242391D01*
X0327107Y0239396D02*
X0248197Y0239396D01*
X0247043Y0254373D02*
X0336705Y0254373D01*
X0336100Y0255372D02*
X0244755Y0255372D01*
X0246694Y0254666D02*
X0246694Y0254666D01*
X0241361Y0256370D02*
X0335921Y0256370D01*
X0336075Y0257369D02*
X0241687Y0257369D01*
X0241487Y0258367D02*
X0336646Y0258367D01*
X0338242Y0259366D02*
X0240559Y0259366D01*
X0241466Y0260364D02*
X0339916Y0260364D01*
X0340914Y0261363D02*
X0271127Y0261363D01*
X0266716Y0261363D02*
X0241666Y0261363D01*
X0241431Y0262361D02*
X0266104Y0262361D01*
X0265921Y0263360D02*
X0241038Y0263360D01*
X0241626Y0264358D02*
X0266071Y0264358D01*
X0266635Y0265357D02*
X0241626Y0265357D01*
X0241626Y0266355D02*
X0268217Y0266355D01*
X0270047Y0267354D02*
X0241626Y0267354D01*
X0241054Y0268352D02*
X0271045Y0268352D01*
X0272044Y0269351D02*
X0240055Y0269351D01*
X0240308Y0269098D02*
X0240308Y0269098D01*
X0240598Y0270349D02*
X0273042Y0270349D01*
X0274041Y0271348D02*
X0241597Y0271348D01*
X0241626Y0272346D02*
X0275039Y0272346D01*
X0276038Y0273345D02*
X0241523Y0273345D01*
X0240524Y0274343D02*
X0277036Y0274343D01*
X0278035Y0275342D02*
X0235589Y0275342D01*
X0234590Y0276340D02*
X0279033Y0276340D01*
X0280032Y0277339D02*
X0234021Y0277339D01*
X0234021Y0278337D02*
X0281030Y0278337D01*
X0282029Y0279336D02*
X0234021Y0279336D01*
X0234021Y0280334D02*
X0283027Y0280334D01*
X0284026Y0281333D02*
X0234021Y0281333D01*
X0234021Y0282332D02*
X0285024Y0282332D01*
X0286023Y0283330D02*
X0234021Y0283330D01*
X0234021Y0284329D02*
X0287021Y0284329D01*
X0288020Y0285327D02*
X0234021Y0285327D01*
X0234021Y0286326D02*
X0289018Y0286326D01*
X0290017Y0287324D02*
X0234021Y0287324D01*
X0234021Y0288323D02*
X0291015Y0288323D01*
X0292014Y0289321D02*
X0234021Y0289321D01*
X0234021Y0290320D02*
X0293012Y0290320D01*
X0294011Y0291318D02*
X0234021Y0291318D01*
X0234021Y0292317D02*
X0295010Y0292317D01*
X0296008Y0293315D02*
X0234021Y0293315D01*
X0234021Y0294314D02*
X0297007Y0294314D01*
X0298005Y0295312D02*
X0234021Y0295312D01*
X0234021Y0296311D02*
X0299004Y0296311D01*
X0300002Y0297309D02*
X0234021Y0297309D01*
X0234021Y0298308D02*
X0301001Y0298308D01*
X0301999Y0299306D02*
X0234021Y0299306D01*
X0205250Y0289321D02*
X0204787Y0289321D01*
X0203213Y0289321D02*
X0202164Y0289321D01*
X0201680Y0288323D02*
X0169751Y0288323D01*
X0169220Y0287324D02*
X0168752Y0287324D01*
X0170780Y0287324D02*
X0194220Y0287324D01*
X0186649Y0309291D02*
X0166350Y0309291D01*
X0166350Y0308293D02*
X0176923Y0308293D01*
X0147431Y0293315D02*
X0147327Y0293315D01*
X0142836Y0289321D02*
X0142729Y0289321D01*
X0142900Y0288323D02*
X0141455Y0288323D01*
X0142878Y0283330D02*
X0142900Y0283330D01*
X0131622Y0269351D02*
X0127378Y0269351D01*
X0128376Y0268352D02*
X0130624Y0268352D01*
X0162000Y0255372D02*
X0162729Y0255372D01*
X0162156Y0254373D02*
X0162000Y0254373D01*
X0162000Y0253375D02*
X0162000Y0253375D01*
X0162000Y0252376D02*
X0162177Y0252376D01*
X0162000Y0251378D02*
X0162780Y0251378D01*
X0163000Y0250379D02*
X0162000Y0250379D01*
X0162000Y0249381D02*
X0163000Y0249381D01*
X0163000Y0248382D02*
X0162000Y0248382D01*
X0162000Y0247384D02*
X0163000Y0247384D01*
X0163000Y0246385D02*
X0162076Y0246385D01*
X0167000Y0247384D02*
X0210628Y0247384D01*
X0210458Y0246385D02*
X0172076Y0246385D01*
X0173650Y0245387D02*
X0210634Y0245387D01*
X0210810Y0244388D02*
X0174607Y0244388D01*
X0175021Y0243390D02*
X0210986Y0243390D01*
X0211460Y0242391D02*
X0175400Y0242391D01*
X0175400Y0241393D02*
X0212037Y0241393D01*
X0212613Y0240394D02*
X0175400Y0240394D01*
X0175015Y0239396D02*
X0213724Y0239396D01*
X0210805Y0248382D02*
X0167000Y0248382D01*
X0167000Y0249381D02*
X0210981Y0249381D01*
X0211443Y0250379D02*
X0167000Y0250379D01*
X0167220Y0251378D02*
X0212020Y0251378D01*
X0212596Y0252376D02*
X0167823Y0252376D01*
X0168000Y0253375D02*
X0213688Y0253375D01*
X0214878Y0254373D02*
X0167844Y0254373D01*
X0167271Y0255372D02*
X0217166Y0255372D01*
X0167924Y0246385D02*
X0167843Y0246385D01*
X0338921Y0278337D02*
X0340430Y0278337D01*
X0349136Y0255372D02*
X0349921Y0255372D01*
X0349846Y0246385D02*
X0343997Y0246385D01*
X0345571Y0245387D02*
X0348271Y0245387D01*
X0347314Y0244388D02*
X0346529Y0244388D01*
X0355571Y0245387D02*
X0358271Y0245387D01*
X0357314Y0244388D02*
X0356529Y0244388D01*
X0368921Y0247384D02*
X0412550Y0247384D01*
X0412376Y0246400D02*
X0412376Y0246400D01*
X0412379Y0246385D02*
X0373997Y0246385D01*
X0375571Y0245387D02*
X0412555Y0245387D01*
X0412731Y0244388D02*
X0376529Y0244388D01*
X0376942Y0243390D02*
X0412907Y0243390D01*
X0412952Y0243135D02*
X0412952Y0243135D01*
X0413382Y0242391D02*
X0377321Y0242391D01*
X0377321Y0241393D02*
X0413958Y0241393D01*
X0414535Y0240394D02*
X0377321Y0240394D01*
X0376936Y0239396D02*
X0415645Y0239396D01*
X0412726Y0248382D02*
X0368921Y0248382D01*
X0368921Y0249381D02*
X0412902Y0249381D01*
X0413364Y0250379D02*
X0368921Y0250379D01*
X0369142Y0251378D02*
X0413941Y0251378D01*
X0414517Y0252376D02*
X0369744Y0252376D01*
X0369921Y0253375D02*
X0415610Y0253375D01*
X0414609Y0252535D02*
X0414609Y0252535D01*
X0414609Y0252535D01*
X0416800Y0254373D02*
X0369765Y0254373D01*
X0369192Y0255372D02*
X0419087Y0255372D01*
X0424755Y0255372D02*
X0429743Y0255372D01*
X0429743Y0254373D02*
X0427043Y0254373D01*
X0426694Y0254666D02*
X0426694Y0254666D01*
X0428233Y0253375D02*
X0429743Y0253375D01*
X0429743Y0252376D02*
X0429325Y0252376D01*
X0429743Y0310290D02*
X0368271Y0310290D01*
X0368271Y0311288D02*
X0429743Y0311288D01*
X0429743Y0312287D02*
X0367991Y0312287D01*
X0370674Y0287324D02*
X0371141Y0287324D01*
X0369846Y0246385D02*
X0369765Y0246385D01*
X0369705Y0407145D02*
X0369989Y0407145D01*
X0365921Y0439098D02*
X0353556Y0439098D01*
X0354725Y0440096D02*
X0365921Y0440096D01*
X0365921Y0441095D02*
X0355185Y0441095D01*
X0355321Y0442093D02*
X0365921Y0442093D01*
X0365921Y0443092D02*
X0355191Y0443092D01*
X0354740Y0444090D02*
X0365921Y0444090D01*
X0359710Y0466058D02*
X0346348Y0466058D01*
X0347346Y0467056D02*
X0355225Y0467056D01*
X0354315Y0468055D02*
X0348345Y0468055D01*
X0349343Y0469053D02*
X0353921Y0469053D01*
X0353921Y0470052D02*
X0350342Y0470052D01*
X0352603Y0471050D02*
X0354274Y0471050D01*
X0353526Y0472049D02*
X0355127Y0472049D01*
X0358716Y0472049D02*
X0359371Y0472049D01*
X0359371Y0467056D02*
X0358617Y0467056D01*
X0404145Y0450081D02*
X0405278Y0450081D01*
X0406565Y0450081D02*
X0407112Y0450081D01*
D14*
X0371921Y0402101D03*
X0361921Y0402101D03*
X0351921Y0402101D03*
X0341921Y0402101D03*
X0331921Y0402101D03*
X0331921Y0241400D03*
X0341921Y0241400D03*
X0351921Y0241400D03*
X0361921Y0241400D03*
X0371921Y0241400D03*
X0170000Y0241400D03*
X0160000Y0241400D03*
X0150000Y0241400D03*
X0140000Y0241400D03*
X0130000Y0241400D03*
X0130000Y0402101D03*
X0140000Y0402101D03*
X0150000Y0402101D03*
X0160000Y0402101D03*
X0170000Y0402101D03*
D15*
X0163600Y0469601D03*
X0160400Y0469601D03*
X0160400Y0308900D03*
X0163600Y0308900D03*
X0362321Y0308900D03*
X0365521Y0308900D03*
X0365521Y0469601D03*
X0362321Y0469601D03*
D16*
X0356921Y0469601D03*
X0350921Y0473601D03*
X0364421Y0458601D03*
X0371921Y0452101D03*
X0371921Y0445101D03*
X0371921Y0440601D03*
X0356921Y0437101D03*
X0346921Y0452101D03*
X0336921Y0447101D03*
X0339421Y0463601D03*
X0335421Y0480601D03*
X0328421Y0480601D03*
X0331421Y0425101D03*
X0331921Y0420601D03*
X0338921Y0417101D03*
X0346921Y0418101D03*
X0346921Y0412101D03*
X0356921Y0412101D03*
X0366921Y0414101D03*
X0376421Y0413101D03*
X0393421Y0442101D03*
X0396921Y0445101D03*
X0401921Y0442101D03*
X0405921Y0447101D03*
X0401921Y0452101D03*
X0413921Y0452101D03*
X0405921Y0465601D03*
X0390421Y0467601D03*
X0386921Y0480601D03*
X0379921Y0480601D03*
X0401921Y0427101D03*
X0416921Y0430101D03*
X0386921Y0319900D03*
X0379921Y0319900D03*
X0390421Y0306900D03*
X0405921Y0304900D03*
X0401921Y0291400D03*
X0405921Y0286400D03*
X0401921Y0281400D03*
X0396921Y0284400D03*
X0393421Y0281400D03*
X0401921Y0266400D03*
X0416921Y0269400D03*
X0413921Y0291400D03*
X0376421Y0252400D03*
X0366921Y0253400D03*
X0356921Y0251400D03*
X0346921Y0251400D03*
X0346921Y0257400D03*
X0338921Y0256400D03*
X0331921Y0259900D03*
X0331421Y0264400D03*
X0336921Y0286400D03*
X0346921Y0291400D03*
X0339421Y0302900D03*
X0350921Y0312900D03*
X0356921Y0308900D03*
X0364421Y0297900D03*
X0371921Y0291400D03*
X0371921Y0284400D03*
X0371921Y0279900D03*
X0356921Y0276400D03*
X0335421Y0319900D03*
X0328421Y0319900D03*
X0306921Y0267400D03*
X0268921Y0263400D03*
X0215000Y0269400D03*
X0200000Y0266400D03*
X0200000Y0281400D03*
X0195000Y0284400D03*
X0191500Y0281400D03*
X0200000Y0291400D03*
X0204000Y0286400D03*
X0212000Y0291400D03*
X0204000Y0304900D03*
X0188500Y0306900D03*
X0185000Y0319900D03*
X0178000Y0319900D03*
X0162500Y0297900D03*
X0170000Y0291400D03*
X0170000Y0284400D03*
X0170000Y0279900D03*
X0155000Y0276400D03*
X0145000Y0291400D03*
X0135000Y0286400D03*
X0137500Y0302900D03*
X0149000Y0312900D03*
X0155000Y0308900D03*
X0133500Y0319900D03*
X0126500Y0319900D03*
X0129500Y0264400D03*
X0130000Y0259900D03*
X0137000Y0256400D03*
X0145000Y0257400D03*
X0145000Y0251400D03*
X0155000Y0251400D03*
X0165000Y0253400D03*
X0174500Y0252400D03*
X0105000Y0267400D03*
X0067000Y0263400D03*
X0145000Y0412101D03*
X0145000Y0418101D03*
X0137000Y0417101D03*
X0130000Y0420601D03*
X0129500Y0425101D03*
X0135000Y0447101D03*
X0145000Y0452101D03*
X0137500Y0463601D03*
X0149000Y0473601D03*
X0155000Y0469601D03*
X0162500Y0458601D03*
X0170000Y0452101D03*
X0170000Y0445101D03*
X0170000Y0440601D03*
X0155000Y0437101D03*
X0155000Y0412101D03*
X0165000Y0414101D03*
X0174500Y0413101D03*
X0191500Y0442101D03*
X0195000Y0445101D03*
X0200000Y0442101D03*
X0204000Y0447101D03*
X0200000Y0452101D03*
X0212000Y0452101D03*
X0204000Y0465601D03*
X0188500Y0467601D03*
X0185000Y0480601D03*
X0178000Y0480601D03*
X0133500Y0480601D03*
X0126500Y0480601D03*
X0105000Y0428101D03*
X0067000Y0424101D03*
X0200000Y0427101D03*
X0215000Y0430101D03*
X0268921Y0424101D03*
X0306921Y0428101D03*
D17*
X0338921Y0417101D02*
X0351921Y0430101D01*
X0351921Y0432101D01*
X0346921Y0437101D01*
X0346921Y0447101D01*
X0359921Y0447101D01*
X0380421Y0467601D01*
X0390421Y0467601D01*
X0403921Y0467601D01*
X0405921Y0465601D01*
X0414421Y0465601D01*
X0426921Y0453101D01*
X0426921Y0433601D01*
X0425421Y0432101D01*
X0421921Y0432101D01*
X0418921Y0432101D01*
X0416921Y0430101D01*
X0362321Y0469601D02*
X0356921Y0469601D01*
X0350921Y0473601D02*
X0340921Y0463601D01*
X0339421Y0463601D01*
X0346921Y0452101D02*
X0346921Y0447101D01*
X0350921Y0312900D02*
X0340921Y0302900D01*
X0339421Y0302900D01*
X0346921Y0291400D02*
X0346921Y0286400D01*
X0359921Y0286400D01*
X0380421Y0306900D01*
X0390421Y0306900D01*
X0403921Y0306900D01*
X0405921Y0304900D01*
X0414421Y0304900D01*
X0426921Y0292400D01*
X0426921Y0272900D01*
X0425421Y0271400D01*
X0421921Y0271400D01*
X0418921Y0271400D01*
X0416921Y0269400D01*
X0362321Y0308900D02*
X0356921Y0308900D01*
X0346921Y0286400D02*
X0346921Y0276400D01*
X0351921Y0271400D01*
X0351921Y0269400D01*
X0338921Y0256400D01*
X0225000Y0272900D02*
X0223500Y0271400D01*
X0220000Y0271400D01*
X0217000Y0271400D01*
X0215000Y0269400D01*
X0225000Y0272900D02*
X0225000Y0292400D01*
X0212500Y0304900D01*
X0204000Y0304900D01*
X0202000Y0306900D01*
X0188500Y0306900D01*
X0178500Y0306900D01*
X0158000Y0286400D01*
X0145000Y0286400D01*
X0145000Y0276400D01*
X0150000Y0271400D01*
X0150000Y0269400D01*
X0137000Y0256400D01*
X0145000Y0286400D02*
X0145000Y0291400D01*
X0139000Y0302900D02*
X0149000Y0312900D01*
X0155000Y0308900D02*
X0160400Y0308900D01*
X0139000Y0302900D02*
X0137500Y0302900D01*
X0137000Y0417101D02*
X0150000Y0430101D01*
X0150000Y0432101D01*
X0145000Y0437101D01*
X0145000Y0447101D01*
X0158000Y0447101D01*
X0178500Y0467601D01*
X0188500Y0467601D01*
X0202000Y0467601D01*
X0204000Y0465601D01*
X0212500Y0465601D01*
X0225000Y0453101D01*
X0225000Y0433601D01*
X0223500Y0432101D01*
X0220000Y0432101D01*
X0217000Y0432101D01*
X0215000Y0430101D01*
X0160400Y0469601D02*
X0155000Y0469601D01*
X0149000Y0473601D02*
X0139000Y0463601D01*
X0137500Y0463601D01*
X0145000Y0452101D02*
X0145000Y0447101D01*
D18*
X0140000Y0442101D02*
X0137000Y0442101D01*
X0135000Y0440101D01*
X0135000Y0430601D01*
X0129500Y0425101D01*
X0126500Y0428101D01*
X0105000Y0428101D01*
X0101500Y0458601D02*
X0162500Y0458601D01*
X0170000Y0452101D02*
X0166000Y0448101D01*
X0166000Y0436601D01*
X0147500Y0418101D01*
X0145000Y0418101D01*
X0150000Y0416101D02*
X0170000Y0436101D01*
X0170000Y0440601D01*
X0190000Y0440601D01*
X0191500Y0442101D01*
X0195000Y0439101D02*
X0195000Y0445101D01*
X0170000Y0445101D01*
X0175000Y0437101D02*
X0193000Y0437101D01*
X0195000Y0439101D01*
X0204000Y0432101D02*
X0210000Y0426101D01*
X0220000Y0426101D01*
X0220000Y0428101D01*
X0220000Y0436101D02*
X0220000Y0438101D01*
X0206000Y0452101D01*
X0200000Y0452101D01*
X0204000Y0447101D02*
X0204000Y0432101D01*
X0175000Y0437101D02*
X0160000Y0422101D01*
X0160000Y0402101D01*
X0165000Y0407101D02*
X0170000Y0402101D01*
X0165000Y0407101D02*
X0165000Y0414101D01*
X0150000Y0416101D02*
X0150000Y0402101D01*
X0101500Y0458601D02*
X0067000Y0424101D01*
X0125000Y0479101D02*
X0125000Y0482101D01*
X0135000Y0482101D01*
X0135000Y0479101D01*
X0125000Y0479101D01*
X0125000Y0479396D02*
X0135000Y0479396D01*
X0135000Y0479994D02*
X0125000Y0479994D01*
X0125000Y0480593D02*
X0135000Y0480593D01*
X0135000Y0481191D02*
X0125000Y0481191D01*
X0125000Y0481790D02*
X0135000Y0481790D01*
X0176500Y0481790D02*
X0186500Y0481790D01*
X0186500Y0482101D02*
X0176500Y0482101D01*
X0176500Y0479101D01*
X0186500Y0479101D01*
X0186500Y0482101D01*
X0186500Y0481191D02*
X0176500Y0481191D01*
X0176500Y0480593D02*
X0186500Y0480593D01*
X0186500Y0479994D02*
X0176500Y0479994D01*
X0176500Y0479396D02*
X0186500Y0479396D01*
X0268921Y0424101D02*
X0303421Y0458601D01*
X0364421Y0458601D01*
X0371921Y0452101D02*
X0367921Y0448101D01*
X0367921Y0436601D01*
X0349421Y0418101D01*
X0346921Y0418101D01*
X0351921Y0416101D02*
X0371921Y0436101D01*
X0371921Y0440601D01*
X0391921Y0440601D01*
X0393421Y0442101D01*
X0396921Y0439101D02*
X0396921Y0445101D01*
X0371921Y0445101D01*
X0376921Y0437101D02*
X0394921Y0437101D01*
X0396921Y0439101D01*
X0405921Y0432101D02*
X0411921Y0426101D01*
X0421921Y0426101D01*
X0421921Y0428101D01*
X0421921Y0436101D02*
X0421921Y0438101D01*
X0407921Y0452101D01*
X0401921Y0452101D01*
X0405921Y0447101D02*
X0405921Y0432101D01*
X0376921Y0437101D02*
X0361921Y0422101D01*
X0361921Y0402101D01*
X0366921Y0407101D02*
X0371921Y0402101D01*
X0366921Y0407101D02*
X0366921Y0414101D01*
X0351921Y0416101D02*
X0351921Y0402101D01*
X0331421Y0425101D02*
X0336921Y0430601D01*
X0336921Y0440101D01*
X0338921Y0442101D01*
X0341921Y0442101D01*
X0328421Y0428101D02*
X0331421Y0425101D01*
X0328421Y0428101D02*
X0306921Y0428101D01*
X0326921Y0479101D02*
X0326921Y0482101D01*
X0336921Y0482101D01*
X0336921Y0479101D01*
X0326921Y0479101D01*
X0326921Y0479396D02*
X0336921Y0479396D01*
X0336921Y0479994D02*
X0326921Y0479994D01*
X0326921Y0480593D02*
X0336921Y0480593D01*
X0336921Y0481191D02*
X0326921Y0481191D01*
X0326921Y0481790D02*
X0336921Y0481790D01*
X0378421Y0481790D02*
X0388421Y0481790D01*
X0388421Y0482101D02*
X0378421Y0482101D01*
X0378421Y0479101D01*
X0388421Y0479101D01*
X0388421Y0482101D01*
X0388421Y0481191D02*
X0378421Y0481191D01*
X0378421Y0480593D02*
X0388421Y0480593D01*
X0388421Y0479994D02*
X0378421Y0479994D01*
X0378421Y0479396D02*
X0388421Y0479396D01*
X0388421Y0321400D02*
X0378421Y0321400D01*
X0378421Y0318400D01*
X0388421Y0318400D01*
X0388421Y0321400D01*
X0388421Y0321389D02*
X0378421Y0321389D01*
X0378421Y0320790D02*
X0388421Y0320790D01*
X0388421Y0320192D02*
X0378421Y0320192D01*
X0378421Y0319593D02*
X0388421Y0319593D01*
X0388421Y0318995D02*
X0378421Y0318995D01*
X0364421Y0297900D02*
X0303421Y0297900D01*
X0268921Y0263400D01*
X0306921Y0267400D02*
X0328421Y0267400D01*
X0331421Y0264400D01*
X0336921Y0269900D01*
X0336921Y0279400D01*
X0338921Y0281400D01*
X0341921Y0281400D01*
X0346921Y0257400D02*
X0349421Y0257400D01*
X0367921Y0275900D01*
X0367921Y0287400D01*
X0371921Y0291400D01*
X0371921Y0284400D02*
X0396921Y0284400D01*
X0396921Y0278400D01*
X0394921Y0276400D01*
X0376921Y0276400D01*
X0361921Y0261400D01*
X0361921Y0241400D01*
X0366921Y0246400D02*
X0371921Y0241400D01*
X0366921Y0246400D02*
X0366921Y0253400D01*
X0351921Y0255400D02*
X0351921Y0241400D01*
X0351921Y0255400D02*
X0371921Y0275400D01*
X0371921Y0279900D01*
X0391921Y0279900D01*
X0393421Y0281400D01*
X0401921Y0291400D02*
X0407921Y0291400D01*
X0421921Y0277400D01*
X0421921Y0275400D01*
X0421921Y0267400D02*
X0421921Y0265400D01*
X0411921Y0265400D01*
X0405921Y0271400D01*
X0405921Y0286400D01*
X0336921Y0318400D02*
X0326921Y0318400D01*
X0326921Y0321400D01*
X0336921Y0321400D01*
X0336921Y0318400D01*
X0336921Y0318995D02*
X0326921Y0318995D01*
X0326921Y0319593D02*
X0336921Y0319593D01*
X0336921Y0320192D02*
X0326921Y0320192D01*
X0326921Y0320790D02*
X0336921Y0320790D01*
X0336921Y0321389D02*
X0326921Y0321389D01*
X0220000Y0277400D02*
X0220000Y0275400D01*
X0220000Y0277400D02*
X0206000Y0291400D01*
X0200000Y0291400D01*
X0204000Y0286400D02*
X0204000Y0271400D01*
X0210000Y0265400D01*
X0220000Y0265400D01*
X0220000Y0267400D01*
X0195000Y0278400D02*
X0195000Y0284400D01*
X0170000Y0284400D01*
X0170000Y0279900D02*
X0170000Y0275400D01*
X0150000Y0255400D01*
X0150000Y0241400D01*
X0160000Y0241400D02*
X0160000Y0261400D01*
X0175000Y0276400D01*
X0193000Y0276400D01*
X0195000Y0278400D01*
X0191500Y0281400D02*
X0190000Y0279900D01*
X0170000Y0279900D01*
X0166000Y0275900D02*
X0166000Y0287400D01*
X0170000Y0291400D01*
X0162500Y0297900D02*
X0101500Y0297900D01*
X0067000Y0263400D01*
X0105000Y0267400D02*
X0126500Y0267400D01*
X0129500Y0264400D01*
X0135000Y0269900D01*
X0135000Y0279400D01*
X0137000Y0281400D01*
X0140000Y0281400D01*
X0145000Y0257400D02*
X0147500Y0257400D01*
X0166000Y0275900D01*
X0165000Y0253400D02*
X0165000Y0246400D01*
X0170000Y0241400D01*
X0176500Y0318400D02*
X0176500Y0321400D01*
X0186500Y0321400D01*
X0186500Y0318400D01*
X0176500Y0318400D01*
X0176500Y0318995D02*
X0186500Y0318995D01*
X0186500Y0319593D02*
X0176500Y0319593D01*
X0176500Y0320192D02*
X0186500Y0320192D01*
X0186500Y0320790D02*
X0176500Y0320790D01*
X0176500Y0321389D02*
X0186500Y0321389D01*
X0135000Y0321389D02*
X0125000Y0321389D01*
X0125000Y0321400D02*
X0135000Y0321400D01*
X0135000Y0318400D01*
X0125000Y0318400D01*
X0125000Y0321400D01*
X0125000Y0320790D02*
X0135000Y0320790D01*
X0135000Y0320192D02*
X0125000Y0320192D01*
X0125000Y0319593D02*
X0135000Y0319593D01*
X0135000Y0318995D02*
X0125000Y0318995D01*
M02*
