G75*
%MOIN*%
%OFA0B0*%
%FSLAX25Y25*%
%IPPOS*%
%LPD*%
%AMOC8*
5,1,8,0,0,1.08239X$1,22.5*
%
%ADD10C,0.01181*%
%ADD11R,0.07874X0.04724*%
%ADD12R,0.05315X0.02362*%
%ADD13R,0.03346X0.08661*%
%ADD14R,0.03937X0.04134*%
%ADD15R,0.04331X0.03937*%
%ADD16R,0.09055X0.06299*%
%ADD17R,0.03937X0.07874*%
%ADD18R,0.07874X0.07874*%
%ADD19R,0.02200X0.05000*%
%ADD20R,0.05000X0.02200*%
%ADD21C,0.01772*%
%ADD22R,0.03937X0.04331*%
%ADD23R,0.11811X0.03937*%
D10*
X0235925Y0104622D02*
X0235925Y0107378D01*
X0235925Y0104622D02*
X0233169Y0104622D01*
X0233169Y0107378D01*
X0235925Y0107378D01*
X0235925Y0105802D02*
X0233169Y0105802D01*
X0233169Y0106982D02*
X0235925Y0106982D01*
X0242831Y0107378D02*
X0242831Y0104622D01*
X0240075Y0104622D01*
X0240075Y0107378D01*
X0242831Y0107378D01*
X0242831Y0105802D02*
X0240075Y0105802D01*
X0240075Y0106982D02*
X0242831Y0106982D01*
X0242831Y0119622D02*
X0242831Y0122378D01*
X0242831Y0119622D02*
X0240075Y0119622D01*
X0240075Y0122378D01*
X0242831Y0122378D01*
X0242831Y0120802D02*
X0240075Y0120802D01*
X0240075Y0121982D02*
X0242831Y0121982D01*
X0235925Y0122378D02*
X0235925Y0119622D01*
X0233169Y0119622D01*
X0233169Y0122378D01*
X0235925Y0122378D01*
X0235925Y0120802D02*
X0233169Y0120802D01*
X0233169Y0121982D02*
X0235925Y0121982D01*
X0235925Y0265323D02*
X0235925Y0268079D01*
X0235925Y0265323D02*
X0233169Y0265323D01*
X0233169Y0268079D01*
X0235925Y0268079D01*
X0235925Y0266503D02*
X0233169Y0266503D01*
X0233169Y0267683D02*
X0235925Y0267683D01*
X0242831Y0268079D02*
X0242831Y0265323D01*
X0240075Y0265323D01*
X0240075Y0268079D01*
X0242831Y0268079D01*
X0242831Y0266503D02*
X0240075Y0266503D01*
X0240075Y0267683D02*
X0242831Y0267683D01*
X0242831Y0280323D02*
X0242831Y0283079D01*
X0242831Y0280323D02*
X0240075Y0280323D01*
X0240075Y0283079D01*
X0242831Y0283079D01*
X0242831Y0281503D02*
X0240075Y0281503D01*
X0240075Y0282683D02*
X0242831Y0282683D01*
X0235925Y0283079D02*
X0235925Y0280323D01*
X0233169Y0280323D01*
X0233169Y0283079D01*
X0235925Y0283079D01*
X0235925Y0281503D02*
X0233169Y0281503D01*
X0233169Y0282683D02*
X0235925Y0282683D01*
X0447847Y0283079D02*
X0447847Y0280323D01*
X0445091Y0280323D01*
X0445091Y0283079D01*
X0447847Y0283079D01*
X0447847Y0281503D02*
X0445091Y0281503D01*
X0445091Y0282683D02*
X0447847Y0282683D01*
X0454752Y0283079D02*
X0454752Y0280323D01*
X0451996Y0280323D01*
X0451996Y0283079D01*
X0454752Y0283079D01*
X0454752Y0281503D02*
X0451996Y0281503D01*
X0451996Y0282683D02*
X0454752Y0282683D01*
X0454752Y0268079D02*
X0454752Y0265323D01*
X0451996Y0265323D01*
X0451996Y0268079D01*
X0454752Y0268079D01*
X0454752Y0266503D02*
X0451996Y0266503D01*
X0451996Y0267683D02*
X0454752Y0267683D01*
X0447847Y0268079D02*
X0447847Y0265323D01*
X0445091Y0265323D01*
X0445091Y0268079D01*
X0447847Y0268079D01*
X0447847Y0266503D02*
X0445091Y0266503D01*
X0445091Y0267683D02*
X0447847Y0267683D01*
X0447847Y0122378D02*
X0447847Y0119622D01*
X0445091Y0119622D01*
X0445091Y0122378D01*
X0447847Y0122378D01*
X0447847Y0120802D02*
X0445091Y0120802D01*
X0445091Y0121982D02*
X0447847Y0121982D01*
X0454752Y0122378D02*
X0454752Y0119622D01*
X0451996Y0119622D01*
X0451996Y0122378D01*
X0454752Y0122378D01*
X0454752Y0120802D02*
X0451996Y0120802D01*
X0451996Y0121982D02*
X0454752Y0121982D01*
X0454752Y0107378D02*
X0454752Y0104622D01*
X0451996Y0104622D01*
X0451996Y0107378D01*
X0454752Y0107378D01*
X0454752Y0105802D02*
X0451996Y0105802D01*
X0451996Y0106982D02*
X0454752Y0106982D01*
X0447847Y0107378D02*
X0447847Y0104622D01*
X0445091Y0104622D01*
X0445091Y0107378D01*
X0447847Y0107378D01*
X0447847Y0105802D02*
X0445091Y0105802D01*
X0445091Y0106982D02*
X0447847Y0106982D01*
D11*
X0494390Y0117024D03*
X0494390Y0124976D03*
X0494390Y0147024D03*
X0494390Y0094976D03*
X0494390Y0255677D03*
X0494390Y0277724D03*
X0494390Y0285677D03*
X0494390Y0307724D03*
X0282469Y0307724D03*
X0282469Y0285677D03*
X0282469Y0277724D03*
X0282469Y0255677D03*
X0282469Y0147024D03*
X0282469Y0124976D03*
X0282469Y0117024D03*
X0282469Y0094976D03*
D12*
X0268000Y0100094D03*
X0268000Y0104031D03*
X0268000Y0107969D03*
X0268000Y0111906D03*
X0268000Y0130094D03*
X0268000Y0134031D03*
X0268000Y0137969D03*
X0268000Y0141906D03*
X0268000Y0260795D03*
X0268000Y0264732D03*
X0268000Y0268669D03*
X0268000Y0272606D03*
X0268000Y0290795D03*
X0268000Y0294732D03*
X0268000Y0298669D03*
X0268000Y0302606D03*
X0479921Y0302606D03*
X0479921Y0298669D03*
X0479921Y0294732D03*
X0479921Y0290795D03*
X0479921Y0272606D03*
X0479921Y0268669D03*
X0479921Y0264732D03*
X0479921Y0260795D03*
X0479921Y0141906D03*
X0479921Y0137969D03*
X0479921Y0134031D03*
X0479921Y0130094D03*
X0479921Y0111906D03*
X0479921Y0107969D03*
X0479921Y0104031D03*
X0479921Y0100094D03*
D13*
X0309835Y0122000D03*
X0299008Y0122000D03*
X0097913Y0122000D03*
X0087087Y0122000D03*
X0087087Y0282701D03*
X0097913Y0282701D03*
X0299008Y0282701D03*
X0309835Y0282701D03*
D14*
X0304421Y0288705D03*
X0304421Y0276697D03*
X0304421Y0128004D03*
X0304421Y0115996D03*
X0092500Y0115996D03*
X0092500Y0128004D03*
X0092500Y0276697D03*
X0092500Y0288705D03*
D15*
X0097654Y0294201D03*
X0104346Y0294201D03*
X0105846Y0268701D03*
X0105846Y0262701D03*
X0099154Y0262701D03*
X0099154Y0268701D03*
X0234654Y0261701D03*
X0241346Y0261701D03*
X0241346Y0276701D03*
X0234654Y0276701D03*
X0234654Y0291701D03*
X0234654Y0296701D03*
X0234654Y0301701D03*
X0241346Y0301701D03*
X0241346Y0296701D03*
X0241346Y0291701D03*
X0249654Y0291701D03*
X0249654Y0296701D03*
X0256346Y0296701D03*
X0256346Y0291701D03*
X0309575Y0294201D03*
X0316268Y0294201D03*
X0317768Y0268701D03*
X0317768Y0262701D03*
X0311075Y0262701D03*
X0311075Y0268701D03*
X0446575Y0261701D03*
X0453268Y0261701D03*
X0453268Y0276701D03*
X0446575Y0276701D03*
X0446575Y0291701D03*
X0446575Y0296701D03*
X0446575Y0301701D03*
X0453268Y0301701D03*
X0453268Y0296701D03*
X0453268Y0291701D03*
X0461575Y0291701D03*
X0461575Y0296701D03*
X0468268Y0296701D03*
X0468268Y0291701D03*
X0453268Y0141000D03*
X0453268Y0136000D03*
X0453268Y0131000D03*
X0446575Y0131000D03*
X0446575Y0136000D03*
X0446575Y0141000D03*
X0461575Y0136000D03*
X0461575Y0131000D03*
X0468268Y0131000D03*
X0468268Y0136000D03*
X0453268Y0116000D03*
X0446575Y0116000D03*
X0446575Y0101000D03*
X0453268Y0101000D03*
X0317768Y0102000D03*
X0317768Y0108000D03*
X0311075Y0108000D03*
X0311075Y0102000D03*
X0309575Y0133500D03*
X0316268Y0133500D03*
X0256346Y0131000D03*
X0256346Y0136000D03*
X0249654Y0136000D03*
X0249654Y0131000D03*
X0241346Y0131000D03*
X0241346Y0136000D03*
X0241346Y0141000D03*
X0234654Y0141000D03*
X0234654Y0136000D03*
X0234654Y0131000D03*
X0234654Y0116000D03*
X0241346Y0116000D03*
X0241346Y0101000D03*
X0234654Y0101000D03*
X0105846Y0102000D03*
X0105846Y0108000D03*
X0099154Y0108000D03*
X0099154Y0102000D03*
X0097654Y0133500D03*
X0104346Y0133500D03*
D16*
X0238098Y0080500D03*
X0262902Y0080500D03*
X0450020Y0080500D03*
X0474823Y0080500D03*
X0474823Y0241201D03*
X0450020Y0241201D03*
X0262902Y0241201D03*
X0238098Y0241201D03*
D17*
X0322953Y0314575D03*
X0322953Y0153874D03*
X0111031Y0153874D03*
X0111031Y0314575D03*
D18*
X0136622Y0314575D03*
X0136622Y0153874D03*
X0348543Y0153874D03*
X0348543Y0314575D03*
D19*
X0403898Y0293601D03*
X0407047Y0293601D03*
X0410197Y0293601D03*
X0413346Y0293601D03*
X0416496Y0293601D03*
X0419646Y0293601D03*
X0422795Y0293601D03*
X0425945Y0293601D03*
X0425945Y0259801D03*
X0422795Y0259801D03*
X0419646Y0259801D03*
X0416496Y0259801D03*
X0413346Y0259801D03*
X0410197Y0259801D03*
X0407047Y0259801D03*
X0403898Y0259801D03*
X0403898Y0132900D03*
X0407047Y0132900D03*
X0410197Y0132900D03*
X0413346Y0132900D03*
X0416496Y0132900D03*
X0419646Y0132900D03*
X0422795Y0132900D03*
X0425945Y0132900D03*
X0425945Y0099100D03*
X0422795Y0099100D03*
X0419646Y0099100D03*
X0416496Y0099100D03*
X0413346Y0099100D03*
X0410197Y0099100D03*
X0407047Y0099100D03*
X0403898Y0099100D03*
X0214024Y0099100D03*
X0210874Y0099100D03*
X0207724Y0099100D03*
X0204575Y0099100D03*
X0201425Y0099100D03*
X0198276Y0099100D03*
X0195126Y0099100D03*
X0191976Y0099100D03*
X0191976Y0132900D03*
X0195126Y0132900D03*
X0198276Y0132900D03*
X0201425Y0132900D03*
X0204575Y0132900D03*
X0207724Y0132900D03*
X0210874Y0132900D03*
X0214024Y0132900D03*
X0214024Y0259801D03*
X0210874Y0259801D03*
X0207724Y0259801D03*
X0204575Y0259801D03*
X0201425Y0259801D03*
X0198276Y0259801D03*
X0195126Y0259801D03*
X0191976Y0259801D03*
X0191976Y0293601D03*
X0195126Y0293601D03*
X0198276Y0293601D03*
X0201425Y0293601D03*
X0204575Y0293601D03*
X0207724Y0293601D03*
X0210874Y0293601D03*
X0214024Y0293601D03*
D20*
X0219900Y0287724D03*
X0219900Y0284575D03*
X0219900Y0281425D03*
X0219900Y0278276D03*
X0219900Y0275126D03*
X0219900Y0271976D03*
X0219900Y0268827D03*
X0219900Y0265677D03*
X0186100Y0265677D03*
X0186100Y0268827D03*
X0186100Y0271976D03*
X0186100Y0275126D03*
X0186100Y0278276D03*
X0186100Y0281425D03*
X0186100Y0284575D03*
X0186100Y0287724D03*
X0186100Y0127024D03*
X0186100Y0123874D03*
X0186100Y0120724D03*
X0186100Y0117575D03*
X0186100Y0114425D03*
X0186100Y0111276D03*
X0186100Y0108126D03*
X0186100Y0104976D03*
X0219900Y0104976D03*
X0219900Y0108126D03*
X0219900Y0111276D03*
X0219900Y0114425D03*
X0219900Y0117575D03*
X0219900Y0120724D03*
X0219900Y0123874D03*
X0219900Y0127024D03*
X0398021Y0127024D03*
X0398021Y0123874D03*
X0398021Y0120724D03*
X0398021Y0117575D03*
X0398021Y0114425D03*
X0398021Y0111276D03*
X0398021Y0108126D03*
X0398021Y0104976D03*
X0431821Y0104976D03*
X0431821Y0108126D03*
X0431821Y0111276D03*
X0431821Y0114425D03*
X0431821Y0117575D03*
X0431821Y0120724D03*
X0431821Y0123874D03*
X0431821Y0127024D03*
X0431821Y0265677D03*
X0431821Y0268827D03*
X0431821Y0271976D03*
X0431821Y0275126D03*
X0431821Y0278276D03*
X0431821Y0281425D03*
X0431821Y0284575D03*
X0431821Y0287724D03*
X0398021Y0287724D03*
X0398021Y0284575D03*
X0398021Y0281425D03*
X0398021Y0278276D03*
X0398021Y0275126D03*
X0398021Y0271976D03*
X0398021Y0268827D03*
X0398021Y0265677D03*
D21*
X0405697Y0301337D02*
X0405697Y0307065D01*
X0410421Y0307065D02*
X0410421Y0301337D01*
X0415146Y0301337D02*
X0415146Y0307065D01*
X0415146Y0146364D02*
X0415146Y0140636D01*
X0410421Y0140636D02*
X0410421Y0146364D01*
X0405697Y0146364D02*
X0405697Y0140636D01*
X0203224Y0140636D02*
X0203224Y0146364D01*
X0198500Y0146364D02*
X0198500Y0140636D01*
X0193776Y0140636D02*
X0193776Y0146364D01*
X0193776Y0301337D02*
X0193776Y0307065D01*
X0198500Y0307065D02*
X0198500Y0301337D01*
X0203224Y0301337D02*
X0203224Y0307065D01*
D22*
X0188000Y0308354D03*
X0188000Y0315047D03*
X0136500Y0315047D03*
X0136500Y0308354D03*
X0111000Y0308354D03*
X0111000Y0315047D03*
X0104500Y0301047D03*
X0104500Y0294354D03*
X0239500Y0308354D03*
X0239500Y0315047D03*
X0316421Y0301047D03*
X0316421Y0294354D03*
X0322921Y0308354D03*
X0322921Y0315047D03*
X0348421Y0315047D03*
X0348421Y0308354D03*
X0399921Y0308354D03*
X0399921Y0315047D03*
X0451421Y0315047D03*
X0451421Y0308354D03*
X0451421Y0154346D03*
X0451421Y0147654D03*
X0399921Y0147654D03*
X0399921Y0154346D03*
X0348421Y0154346D03*
X0348421Y0147654D03*
X0322921Y0147654D03*
X0322921Y0154346D03*
X0316421Y0140346D03*
X0316421Y0133654D03*
X0239500Y0147654D03*
X0239500Y0154346D03*
X0188000Y0154346D03*
X0188000Y0147654D03*
X0136500Y0147654D03*
X0136500Y0154346D03*
X0111000Y0154346D03*
X0111000Y0147654D03*
X0104500Y0140346D03*
X0104500Y0133654D03*
D23*
X0115472Y0078441D03*
X0115472Y0086315D03*
X0115472Y0094189D03*
X0115472Y0102063D03*
X0115472Y0109937D03*
X0115472Y0117811D03*
X0115472Y0125685D03*
X0115472Y0133559D03*
X0174528Y0133559D03*
X0174528Y0125685D03*
X0174528Y0117811D03*
X0174528Y0109937D03*
X0174528Y0102063D03*
X0174528Y0094189D03*
X0174528Y0086315D03*
X0174528Y0078441D03*
X0327394Y0078441D03*
X0327394Y0086315D03*
X0327394Y0094189D03*
X0327394Y0102063D03*
X0327394Y0109937D03*
X0327394Y0117811D03*
X0327394Y0125685D03*
X0327394Y0133559D03*
X0386449Y0133559D03*
X0386449Y0125685D03*
X0386449Y0117811D03*
X0386449Y0109937D03*
X0386449Y0102063D03*
X0386449Y0094189D03*
X0386449Y0086315D03*
X0386449Y0078441D03*
X0386449Y0239142D03*
X0386449Y0247016D03*
X0386449Y0254890D03*
X0386449Y0262764D03*
X0386449Y0270638D03*
X0386449Y0278512D03*
X0386449Y0286386D03*
X0386449Y0294260D03*
X0327394Y0294260D03*
X0327394Y0286386D03*
X0327394Y0278512D03*
X0327394Y0270638D03*
X0327394Y0262764D03*
X0327394Y0254890D03*
X0327394Y0247016D03*
X0327394Y0239142D03*
X0174528Y0239142D03*
X0174528Y0247016D03*
X0174528Y0254890D03*
X0174528Y0262764D03*
X0174528Y0270638D03*
X0174528Y0278512D03*
X0174528Y0286386D03*
X0174528Y0294260D03*
X0115472Y0294260D03*
X0115472Y0286386D03*
X0115472Y0278512D03*
X0115472Y0270638D03*
X0115472Y0262764D03*
X0115472Y0254890D03*
X0115472Y0247016D03*
X0115472Y0239142D03*
M02*
