%
M48
M72
T01C0.0120
T02C0.0150
T03C0.0200
T04C0.0400
T05C0.1300
%
T01
X12500Y9800
X16300Y10200
X18750Y9900
X18800Y9450
X19500Y9100
X20300Y9200
X20300Y8600
X21300Y8600
X22300Y8800
X23250Y8700
X25800Y10100
X25800Y11600
X25300Y11900
X24950Y11600
X25800Y12600
X26200Y12100
X27000Y12600
X26200Y13950
X24650Y14150
X24300Y15450
X23600Y15450
X21300Y14350
X20700Y14750
X19550Y13750
X20300Y12600
X19300Y12100
X21300Y11100
X22800Y11450
X22800Y11900
X22050Y13250
X19150Y15450
X18450Y15450
X27300Y10400
X33692Y9800
X37492Y10200
X39942Y9900
X39992Y9450
X40692Y9100
X41492Y9200
X41492Y8600
X42492Y8600
X43492Y8800
X44442Y8700
X46992Y10100
X46992Y11600
X46492Y11900
X46142Y11600
X46992Y12600
X47392Y12100
X48192Y12600
X47392Y13950
X45842Y14150
X45492Y15450
X44792Y15450
X42492Y14350
X41892Y14750
X40742Y13750
X41492Y12600
X40492Y12100
X42492Y11100
X43992Y11450
X43992Y11900
X43242Y13250
X40342Y15450
X39642Y15450
X48492Y10400
X42492Y24670
X43492Y24870
X44442Y24770
X46992Y26170
X46992Y27670
X46492Y27970
X46142Y27670
X46992Y28670
X47392Y28170
X48192Y28670
X47392Y30020
X45842Y30220
X45492Y31520
X44792Y31520
X42492Y30420
X41892Y30820
X40742Y29820
X41492Y28670
X40492Y28170
X42492Y27170
X43992Y27520
X43992Y27970
X43242Y29320
X40342Y31520
X39642Y31520
X37492Y26270
X39942Y25970
X39992Y25520
X40692Y25170
X41492Y25270
X41492Y24670
X48492Y26470
X33692Y25870
X27300Y26470
X25800Y26170
X25800Y27670
X25300Y27970
X24950Y27670
X25800Y28670
X26200Y28170
X27000Y28670
X26200Y30020
X24650Y30220
X24300Y31520
X23600Y31520
X21300Y30420
X20700Y30820
X19550Y29820
X20300Y28670
X19300Y28170
X21300Y27170
X22800Y27520
X22800Y27970
X22050Y29320
X19150Y31520
X18450Y31520
X16300Y26270
X18750Y25970
X18800Y25520
X19500Y25170
X20300Y25270
X20300Y24670
X21300Y24670
X22300Y24870
X23250Y24770
X12500Y25870
T02
X10450Y24620
X10650Y23920
X16300Y28270
X16150Y28870
X23000Y29170
X31642Y24620
X31842Y23920
X37492Y28270
X37342Y28870
X44192Y29170
X44192Y13100
X37492Y12200
X37342Y12800
X31642Y8550
X31842Y7850
X23000Y13100
X16300Y12200
X16150Y12800
X10450Y8550
X10650Y7850
T03
X19800Y10600
X19800Y11600
X19800Y12600
X20800Y12600
X20800Y11600
X20800Y10600
X40992Y10600
X40992Y11600
X40992Y12600
X41992Y12600
X41992Y11600
X41992Y10600
X41992Y26670
X40992Y26670
X40992Y27670
X40992Y28670
X41992Y28670
X41992Y27670
X20800Y27670
X20800Y26670
X19800Y26670
X19800Y27670
X19800Y28670
X20800Y28670
T04
X20800Y23670
X21800Y23670
X22800Y23670
X19800Y23670
X18800Y23670
X18800Y7600
X19800Y7600
X20800Y7600
X21800Y7600
X22800Y7600
X39992Y7600
X40992Y7600
X41992Y7600
X42992Y7600
X43992Y7600
X43992Y23670
X42992Y23670
X41992Y23670
X40992Y23670
X39992Y23670
T05
X8800Y8600
X8800Y16600
X8800Y24670
X8800Y32670
X27800Y32170
X29992Y32670
X29992Y24670
X27800Y24170
X29992Y16600
X27800Y16100
X29992Y8600
X27800Y8100
X48992Y8100
X48992Y16100
X48992Y24170
X48992Y32170
M30
