G75*
%MOIN*%
%OFA0B0*%
%FSLAX25Y25*%
%IPPOS*%
%LPD*%
%AMOC8*
5,1,8,0,0,1.08239X$1,22.5*
%
%ADD10C,0.13800*%
%ADD11C,0.04808*%
%ADD12R,0.05800X0.03300*%
%ADD13C,0.00500*%
%ADD14C,0.08200*%
%ADD15R,0.03300X0.05800*%
D10*
X0088000Y0086000D03*
X0088000Y0166000D03*
X0088000Y0246701D03*
X0088000Y0326701D03*
X0278000Y0321701D03*
X0299921Y0326701D03*
X0299921Y0246701D03*
X0278000Y0241701D03*
X0299921Y0166000D03*
X0278000Y0161000D03*
X0299921Y0086000D03*
X0278000Y0081000D03*
X0489921Y0081000D03*
X0489921Y0161000D03*
X0489921Y0241701D03*
X0489921Y0321701D03*
D11*
X0419921Y0286701D03*
X0409921Y0286701D03*
X0409921Y0276701D03*
X0409921Y0266701D03*
X0419921Y0266701D03*
X0419921Y0276701D03*
X0419921Y0126000D03*
X0409921Y0126000D03*
X0409921Y0116000D03*
X0409921Y0106000D03*
X0419921Y0106000D03*
X0419921Y0116000D03*
X0208000Y0116000D03*
X0208000Y0106000D03*
X0198000Y0106000D03*
X0198000Y0116000D03*
X0198000Y0126000D03*
X0208000Y0126000D03*
X0208000Y0266701D03*
X0208000Y0276701D03*
X0208000Y0286701D03*
X0198000Y0286701D03*
X0198000Y0276701D03*
X0198000Y0266701D03*
D12*
X0278000Y0266701D03*
X0278000Y0270701D03*
X0278000Y0262701D03*
X0278000Y0110000D03*
X0278000Y0106000D03*
X0278000Y0102000D03*
X0489921Y0102000D03*
X0489921Y0106000D03*
X0489921Y0110000D03*
X0489921Y0262701D03*
X0489921Y0266701D03*
X0489921Y0270701D03*
D13*
X0490421Y0269451D02*
X0489421Y0269451D01*
X0489421Y0267951D01*
X0490421Y0267951D01*
X0490421Y0269451D01*
X0490421Y0269300D02*
X0489421Y0269300D01*
X0489421Y0268802D02*
X0490421Y0268802D01*
X0490421Y0268303D02*
X0489421Y0268303D01*
X0489421Y0265451D02*
X0490421Y0265451D01*
X0490421Y0263951D01*
X0489421Y0263951D01*
X0489421Y0265451D01*
X0489421Y0265312D02*
X0490421Y0265312D01*
X0490421Y0264814D02*
X0489421Y0264814D01*
X0489421Y0264315D02*
X0490421Y0264315D01*
X0490421Y0108750D02*
X0489421Y0108750D01*
X0489421Y0107250D01*
X0490421Y0107250D01*
X0490421Y0108750D01*
X0490421Y0108281D02*
X0489421Y0108281D01*
X0489421Y0107783D02*
X0490421Y0107783D01*
X0490421Y0107284D02*
X0489421Y0107284D01*
X0489421Y0104750D02*
X0490421Y0104750D01*
X0490421Y0103250D01*
X0489421Y0103250D01*
X0489421Y0104750D01*
X0489421Y0104293D02*
X0490421Y0104293D01*
X0490421Y0103795D02*
X0489421Y0103795D01*
X0489421Y0103296D02*
X0490421Y0103296D01*
X0278500Y0103296D02*
X0277500Y0103296D01*
X0277500Y0103250D02*
X0278500Y0103250D01*
X0278500Y0104750D01*
X0277500Y0104750D01*
X0277500Y0103250D01*
X0277500Y0103795D02*
X0278500Y0103795D01*
X0278500Y0104293D02*
X0277500Y0104293D01*
X0277500Y0107250D02*
X0278500Y0107250D01*
X0278500Y0108750D01*
X0277500Y0108750D01*
X0277500Y0107250D01*
X0277500Y0107284D02*
X0278500Y0107284D01*
X0278500Y0107783D02*
X0277500Y0107783D01*
X0277500Y0108281D02*
X0278500Y0108281D01*
X0278500Y0263951D02*
X0278500Y0265451D01*
X0277500Y0265451D01*
X0277500Y0263951D01*
X0278500Y0263951D01*
X0278500Y0264315D02*
X0277500Y0264315D01*
X0277500Y0264814D02*
X0278500Y0264814D01*
X0278500Y0265312D02*
X0277500Y0265312D01*
X0277500Y0267951D02*
X0278500Y0267951D01*
X0278500Y0269451D01*
X0277500Y0269451D01*
X0277500Y0267951D01*
X0277500Y0268303D02*
X0278500Y0268303D01*
X0278500Y0268802D02*
X0277500Y0268802D01*
X0277500Y0269300D02*
X0278500Y0269300D01*
D14*
X0228000Y0236701D03*
X0218000Y0236701D03*
X0208000Y0236701D03*
X0198000Y0236701D03*
X0188000Y0236701D03*
X0188000Y0076000D03*
X0198000Y0076000D03*
X0208000Y0076000D03*
X0218000Y0076000D03*
X0228000Y0076000D03*
X0399921Y0076000D03*
X0409921Y0076000D03*
X0419921Y0076000D03*
X0429921Y0076000D03*
X0439921Y0076000D03*
X0439921Y0236701D03*
X0429921Y0236701D03*
X0419921Y0236701D03*
X0409921Y0236701D03*
X0399921Y0236701D03*
D15*
X0430321Y0304201D03*
X0433521Y0304201D03*
X0433521Y0143500D03*
X0430321Y0143500D03*
X0221600Y0143500D03*
X0218400Y0143500D03*
X0218400Y0304201D03*
X0221600Y0304201D03*
M02*
