G75*
%MOIN*%
%OFA0B0*%
%FSLAX25Y25*%
%IPPOS*%
%LPD*%
%AMOC8*
5,1,8,0,0,1.08239X$1,22.5*
%
%ADD10C,0.01100*%
%ADD11C,0.03400*%
%ADD12R,0.05000X0.02500*%
%ADD13C,0.01000*%
%ADD14C,0.07400*%
%ADD15R,0.02500X0.05000*%
%ADD16C,0.02600*%
%ADD17C,0.00800*%
%ADD18C,0.00600*%
%ADD19C,0.02900*%
D10*
X0039300Y0054800D02*
X0045205Y0058737D01*
X0044221Y0061245D02*
X0045205Y0062230D01*
X0045205Y0064198D01*
X0044221Y0065182D01*
X0040284Y0061245D01*
X0039300Y0062230D01*
X0039300Y0064198D01*
X0040284Y0065182D01*
X0044221Y0065182D01*
X0044221Y0067691D02*
X0045205Y0068675D01*
X0045205Y0070644D01*
X0044221Y0071628D01*
X0043237Y0071628D01*
X0039300Y0067691D01*
X0039300Y0071628D01*
X0040284Y0061245D02*
X0044221Y0061245D01*
X0039300Y0058737D02*
X0045205Y0054800D01*
X0251221Y0054800D02*
X0257126Y0058737D01*
X0256142Y0061245D02*
X0257126Y0062230D01*
X0257126Y0064198D01*
X0256142Y0065182D01*
X0252205Y0061245D01*
X0251221Y0062230D01*
X0251221Y0064198D01*
X0252205Y0065182D01*
X0256142Y0065182D01*
X0256142Y0067691D02*
X0257126Y0068675D01*
X0257126Y0070644D01*
X0256142Y0071628D01*
X0255158Y0071628D01*
X0251221Y0067691D01*
X0251221Y0071628D01*
X0252205Y0061245D02*
X0256142Y0061245D01*
X0251221Y0058737D02*
X0257126Y0054800D01*
X0257126Y0215501D02*
X0251221Y0219437D01*
X0252205Y0221946D02*
X0256142Y0225883D01*
X0252205Y0225883D01*
X0251221Y0224899D01*
X0251221Y0222930D01*
X0252205Y0221946D01*
X0256142Y0221946D01*
X0257126Y0222930D01*
X0257126Y0224899D01*
X0256142Y0225883D01*
X0256142Y0228392D02*
X0257126Y0229376D01*
X0257126Y0231344D01*
X0256142Y0232328D01*
X0255158Y0232328D01*
X0251221Y0228392D01*
X0251221Y0232328D01*
X0257126Y0219437D02*
X0251221Y0215501D01*
X0045205Y0215501D02*
X0039300Y0219437D01*
X0040284Y0221946D02*
X0039300Y0222930D01*
X0039300Y0224899D01*
X0040284Y0225883D01*
X0044221Y0225883D01*
X0040284Y0221946D01*
X0044221Y0221946D01*
X0045205Y0222930D01*
X0045205Y0224899D01*
X0044221Y0225883D01*
X0044221Y0228392D02*
X0045205Y0229376D01*
X0045205Y0231344D01*
X0044221Y0232328D01*
X0043237Y0232328D01*
X0039300Y0228392D01*
X0039300Y0232328D01*
X0045205Y0219437D02*
X0039300Y0215501D01*
D11*
X0157750Y0224451D03*
X0167750Y0224451D03*
X0167750Y0234451D03*
X0167750Y0244451D03*
X0157750Y0244451D03*
X0157750Y0234451D03*
X0157750Y0083750D03*
X0167750Y0083750D03*
X0167750Y0073750D03*
X0167750Y0063750D03*
X0157750Y0063750D03*
X0157750Y0073750D03*
X0369671Y0073750D03*
X0379671Y0073750D03*
X0379671Y0063750D03*
X0369671Y0063750D03*
X0369671Y0083750D03*
X0379671Y0083750D03*
X0379671Y0224451D03*
X0369671Y0224451D03*
X0369671Y0234451D03*
X0379671Y0234451D03*
X0379671Y0244451D03*
X0369671Y0244451D03*
D12*
X0449671Y0228451D03*
X0449671Y0224451D03*
X0449671Y0220451D03*
X0449671Y0067750D03*
X0449671Y0063750D03*
X0449671Y0059750D03*
X0237750Y0059750D03*
X0237750Y0063750D03*
X0237750Y0067750D03*
X0237750Y0220451D03*
X0237750Y0224451D03*
X0237750Y0228451D03*
D13*
X0039850Y0038633D02*
X0039850Y0030850D01*
X0143429Y0030850D01*
X0143303Y0031025D01*
X0142931Y0031754D01*
X0142678Y0032532D01*
X0142564Y0033250D01*
X0147250Y0033250D01*
X0147250Y0034250D01*
X0147250Y0038936D01*
X0146532Y0038822D01*
X0145754Y0038569D01*
X0145025Y0038197D01*
X0144362Y0037716D01*
X0143784Y0037138D01*
X0143303Y0036475D01*
X0142931Y0035746D01*
X0142678Y0034968D01*
X0142564Y0034250D01*
X0147250Y0034250D01*
X0148250Y0034250D01*
X0148250Y0038936D01*
X0148968Y0038822D01*
X0149746Y0038569D01*
X0150475Y0038197D01*
X0151138Y0037716D01*
X0151716Y0037138D01*
X0152197Y0036475D01*
X0152569Y0035746D01*
X0152641Y0035526D01*
X0153172Y0036809D01*
X0154691Y0038328D01*
X0156676Y0039150D01*
X0158824Y0039150D01*
X0160809Y0038328D01*
X0162328Y0036809D01*
X0162750Y0035790D01*
X0163172Y0036809D01*
X0164691Y0038328D01*
X0165750Y0038766D01*
X0165750Y0047750D01*
X0164993Y0047750D01*
X0164449Y0047207D01*
X0163347Y0046750D01*
X0162153Y0046750D01*
X0161051Y0047207D01*
X0160207Y0048051D01*
X0159750Y0049153D01*
X0159750Y0050347D01*
X0160056Y0051087D01*
X0157750Y0048780D01*
X0157750Y0048153D01*
X0157293Y0047051D01*
X0156449Y0046207D01*
X0155347Y0045750D01*
X0154153Y0045750D01*
X0153051Y0046207D01*
X0152207Y0047051D01*
X0151750Y0048153D01*
X0151750Y0049347D01*
X0152207Y0050449D01*
X0153051Y0051293D01*
X0154153Y0051750D01*
X0154780Y0051750D01*
X0164864Y0061834D01*
X0164350Y0063074D01*
X0164350Y0064180D01*
X0160650Y0067880D01*
X0160650Y0071867D01*
X0160632Y0071824D01*
X0159676Y0070868D01*
X0158426Y0070350D01*
X0157074Y0070350D01*
X0155824Y0070868D01*
X0155260Y0071432D01*
X0154750Y0070922D01*
X0154750Y0065392D01*
X0154868Y0065676D01*
X0155824Y0066632D01*
X0157074Y0067150D01*
X0158426Y0067150D01*
X0159676Y0066632D01*
X0160632Y0065676D01*
X0161150Y0064426D01*
X0161150Y0063074D01*
X0160632Y0061824D01*
X0159676Y0060868D01*
X0158426Y0060350D01*
X0157074Y0060350D01*
X0155824Y0060868D01*
X0154868Y0061824D01*
X0154750Y0062108D01*
X0154750Y0061422D01*
X0150250Y0056922D01*
X0150250Y0056153D01*
X0149793Y0055051D01*
X0148949Y0054207D01*
X0147847Y0053750D01*
X0146653Y0053750D01*
X0145551Y0054207D01*
X0144707Y0055051D01*
X0144250Y0056153D01*
X0144250Y0056922D01*
X0143422Y0057750D01*
X0124993Y0057750D01*
X0124449Y0057207D01*
X0123347Y0056750D01*
X0122153Y0056750D01*
X0121051Y0057207D01*
X0120207Y0058051D01*
X0119750Y0059153D01*
X0119750Y0060347D01*
X0120207Y0061449D01*
X0121051Y0062293D01*
X0122153Y0062750D01*
X0123347Y0062750D01*
X0124449Y0062293D01*
X0124993Y0061750D01*
X0145078Y0061750D01*
X0147078Y0059750D01*
X0147422Y0059750D01*
X0150750Y0063078D01*
X0150750Y0072578D01*
X0151922Y0073750D01*
X0153922Y0075750D01*
X0154942Y0075750D01*
X0155824Y0076632D01*
X0157074Y0077150D01*
X0158426Y0077150D01*
X0159676Y0076632D01*
X0160632Y0075676D01*
X0160650Y0075633D01*
X0160650Y0081607D01*
X0160533Y0081725D01*
X0159676Y0080868D01*
X0158426Y0080350D01*
X0157074Y0080350D01*
X0155824Y0080868D01*
X0154868Y0081824D01*
X0154350Y0083074D01*
X0154350Y0084426D01*
X0154868Y0085676D01*
X0155824Y0086632D01*
X0157074Y0087150D01*
X0158426Y0087150D01*
X0159676Y0086632D01*
X0160533Y0085775D01*
X0161051Y0086293D01*
X0162153Y0086750D01*
X0163347Y0086750D01*
X0164449Y0086293D01*
X0165140Y0085603D01*
X0165264Y0085790D01*
X0165710Y0086236D01*
X0166234Y0086586D01*
X0166817Y0086827D01*
X0167435Y0086950D01*
X0167750Y0086950D01*
X0167750Y0083750D01*
X0167750Y0083750D01*
X0170950Y0083750D01*
X0170950Y0084065D01*
X0170827Y0084683D01*
X0170586Y0085266D01*
X0170236Y0085790D01*
X0169790Y0086236D01*
X0169266Y0086586D01*
X0168683Y0086827D01*
X0168065Y0086950D01*
X0167750Y0086950D01*
X0167750Y0083750D01*
X0167750Y0083750D01*
X0170950Y0083750D01*
X0170950Y0083435D01*
X0170827Y0082817D01*
X0170586Y0082234D01*
X0170236Y0081710D01*
X0169790Y0081264D01*
X0169266Y0080914D01*
X0169111Y0080850D01*
X0174880Y0080850D01*
X0181587Y0087556D01*
X0180847Y0087250D01*
X0179653Y0087250D01*
X0178551Y0087707D01*
X0178007Y0088250D01*
X0123205Y0088250D01*
X0123920Y0087534D01*
X0124400Y0086377D01*
X0124400Y0085123D01*
X0123920Y0083966D01*
X0123034Y0083080D01*
X0122601Y0082900D01*
X0123377Y0082900D01*
X0124534Y0082420D01*
X0125420Y0081534D01*
X0125900Y0080377D01*
X0125900Y0079123D01*
X0125420Y0077966D01*
X0124534Y0077080D01*
X0123377Y0076600D01*
X0122428Y0076600D01*
X0080078Y0034250D01*
X0068705Y0034250D01*
X0068034Y0033580D01*
X0066877Y0033100D01*
X0065623Y0033100D01*
X0064466Y0033580D01*
X0063580Y0034466D01*
X0063100Y0035623D01*
X0063100Y0036877D01*
X0063580Y0038034D01*
X0064466Y0038920D01*
X0065623Y0039400D01*
X0066877Y0039400D01*
X0068034Y0038920D01*
X0068705Y0038250D01*
X0078422Y0038250D01*
X0119600Y0079428D01*
X0119600Y0080377D01*
X0120080Y0081534D01*
X0120966Y0082420D01*
X0121399Y0082600D01*
X0120928Y0082600D01*
X0079578Y0041250D01*
X0066705Y0041250D01*
X0066034Y0040580D01*
X0064877Y0040100D01*
X0063623Y0040100D01*
X0062466Y0040580D01*
X0061580Y0041466D01*
X0061100Y0042623D01*
X0061100Y0043877D01*
X0061580Y0045034D01*
X0062466Y0045920D01*
X0063623Y0046400D01*
X0064877Y0046400D01*
X0066034Y0045920D01*
X0066705Y0045250D01*
X0077922Y0045250D01*
X0085475Y0052803D01*
X0085347Y0052750D01*
X0084153Y0052750D01*
X0083051Y0053207D01*
X0082207Y0054051D01*
X0081750Y0055153D01*
X0081750Y0056347D01*
X0082207Y0057449D01*
X0083051Y0058293D01*
X0084153Y0058750D01*
X0084922Y0058750D01*
X0117250Y0091078D01*
X0118422Y0092250D01*
X0178007Y0092250D01*
X0178551Y0092793D01*
X0179653Y0093250D01*
X0180847Y0093250D01*
X0181949Y0092793D01*
X0182793Y0091949D01*
X0183250Y0090847D01*
X0183250Y0089653D01*
X0182944Y0088913D01*
X0195380Y0101350D01*
X0204107Y0101350D01*
X0204551Y0101793D01*
X0205653Y0102250D01*
X0206847Y0102250D01*
X0207949Y0101793D01*
X0208393Y0101350D01*
X0220620Y0101350D01*
X0221720Y0100250D01*
X0222347Y0100250D01*
X0223449Y0099793D01*
X0223893Y0099350D01*
X0231120Y0099350D01*
X0244850Y0085620D01*
X0244850Y0064380D01*
X0243350Y0062880D01*
X0243350Y0062880D01*
X0242120Y0061650D01*
X0241950Y0061650D01*
X0241950Y0057796D01*
X0240954Y0056800D01*
X0239628Y0056800D01*
X0238578Y0055750D01*
X0226922Y0055750D01*
X0225750Y0056922D01*
X0219750Y0062922D01*
X0219750Y0076507D01*
X0219207Y0077051D01*
X0218750Y0078153D01*
X0218750Y0079347D01*
X0219207Y0080449D01*
X0220051Y0081293D01*
X0221153Y0081750D01*
X0222347Y0081750D01*
X0223328Y0081344D01*
X0222922Y0081750D01*
X0219993Y0081750D01*
X0219449Y0081207D01*
X0218347Y0080750D01*
X0217153Y0080750D01*
X0216051Y0081207D01*
X0215207Y0082051D01*
X0214750Y0083153D01*
X0214750Y0084347D01*
X0215207Y0085449D01*
X0216051Y0086293D01*
X0217153Y0086750D01*
X0218347Y0086750D01*
X0219449Y0086293D01*
X0219993Y0085750D01*
X0224578Y0085750D01*
X0238578Y0071750D01*
X0239628Y0070700D01*
X0240650Y0070700D01*
X0240650Y0083880D01*
X0229380Y0095150D01*
X0223893Y0095150D01*
X0223449Y0094707D01*
X0222347Y0094250D01*
X0221153Y0094250D01*
X0220051Y0094707D01*
X0219207Y0095551D01*
X0218750Y0096653D01*
X0218750Y0097150D01*
X0208393Y0097150D01*
X0207949Y0096707D01*
X0206847Y0096250D01*
X0205653Y0096250D01*
X0204551Y0096707D01*
X0204107Y0097150D01*
X0197120Y0097150D01*
X0191432Y0091463D01*
X0191534Y0091420D01*
X0192420Y0090534D01*
X0192900Y0089377D01*
X0192900Y0088123D01*
X0192420Y0086966D01*
X0191750Y0086295D01*
X0191750Y0084922D01*
X0190578Y0083750D01*
X0186172Y0079344D01*
X0187153Y0079750D01*
X0188347Y0079750D01*
X0189449Y0079293D01*
X0189993Y0078750D01*
X0210507Y0078750D01*
X0211051Y0079293D01*
X0212153Y0079750D01*
X0213347Y0079750D01*
X0214449Y0079293D01*
X0215293Y0078449D01*
X0215750Y0077347D01*
X0215750Y0076153D01*
X0215293Y0075051D01*
X0214750Y0074507D01*
X0214750Y0069922D01*
X0213578Y0068750D01*
X0211578Y0066750D01*
X0193578Y0066750D01*
X0179750Y0052922D01*
X0179750Y0038766D01*
X0180750Y0038352D01*
X0180750Y0043507D01*
X0180207Y0044051D01*
X0179750Y0045153D01*
X0179750Y0046347D01*
X0180207Y0047449D01*
X0181051Y0048293D01*
X0182153Y0048750D01*
X0183347Y0048750D01*
X0184449Y0048293D01*
X0185293Y0047449D01*
X0185750Y0046347D01*
X0185750Y0045153D01*
X0185293Y0044051D01*
X0184750Y0043507D01*
X0184750Y0039578D01*
X0185617Y0038711D01*
X0186676Y0039150D01*
X0188824Y0039150D01*
X0190809Y0038328D01*
X0192328Y0036809D01*
X0193150Y0034824D01*
X0193150Y0032676D01*
X0192394Y0030850D01*
X0232541Y0030850D01*
X0230438Y0032615D01*
X0230438Y0032615D01*
X0228781Y0035485D01*
X0228781Y0035485D01*
X0228205Y0038750D01*
X0228205Y0038750D01*
X0228781Y0042015D01*
X0228781Y0042015D01*
X0230438Y0044885D01*
X0230438Y0044885D01*
X0230438Y0044885D01*
X0232977Y0047016D01*
X0232977Y0047016D01*
X0236093Y0048150D01*
X0239407Y0048150D01*
X0242522Y0047016D01*
X0242523Y0047016D01*
X0245062Y0044885D01*
X0245062Y0044885D01*
X0245571Y0044003D01*
X0245571Y0108750D01*
X0039850Y0108750D01*
X0039850Y0073878D01*
X0040232Y0073878D01*
X0041268Y0072841D01*
X0042305Y0073878D01*
X0045153Y0073878D01*
X0045909Y0073121D01*
X0046137Y0072894D01*
X0046137Y0072894D01*
X0046699Y0072332D01*
X0047455Y0071576D01*
X0047455Y0067743D01*
X0046676Y0066965D01*
X0046148Y0066437D01*
X0046676Y0065909D01*
X0047455Y0065130D01*
X0047455Y0061298D01*
X0046703Y0060546D01*
X0047594Y0059209D01*
X0047229Y0057382D01*
X0046309Y0056768D01*
X0047229Y0056155D01*
X0047594Y0054327D01*
X0046809Y0053150D01*
X0049407Y0053150D01*
X0052522Y0052016D01*
X0052523Y0052016D01*
X0055062Y0049885D01*
X0055062Y0049885D01*
X0056719Y0047015D01*
X0056719Y0047015D01*
X0057295Y0043750D01*
X0057295Y0043750D01*
X0056719Y0040485D01*
X0056719Y0040485D01*
X0055062Y0037615D01*
X0055062Y0037615D01*
X0055062Y0037615D01*
X0052523Y0035484D01*
X0052522Y0035484D01*
X0049407Y0034350D01*
X0046093Y0034350D01*
X0042977Y0035484D01*
X0042977Y0035484D01*
X0040438Y0037615D01*
X0040438Y0037615D01*
X0039850Y0038633D01*
X0039850Y0037737D02*
X0040368Y0037737D01*
X0039850Y0036738D02*
X0041483Y0036738D01*
X0042673Y0035740D02*
X0039850Y0035740D01*
X0039850Y0034741D02*
X0045018Y0034741D01*
X0039850Y0033743D02*
X0064303Y0033743D01*
X0063465Y0034741D02*
X0050482Y0034741D01*
X0052827Y0035740D02*
X0063100Y0035740D01*
X0063100Y0036738D02*
X0054017Y0036738D01*
X0055132Y0037737D02*
X0063456Y0037737D01*
X0064280Y0038735D02*
X0055709Y0038735D01*
X0056285Y0039734D02*
X0079905Y0039734D01*
X0080904Y0040732D02*
X0066187Y0040732D01*
X0068220Y0038735D02*
X0078907Y0038735D01*
X0080059Y0041731D02*
X0081902Y0041731D01*
X0081058Y0042729D02*
X0082901Y0042729D01*
X0082056Y0043728D02*
X0083899Y0043728D01*
X0083055Y0044726D02*
X0084898Y0044726D01*
X0084053Y0045725D02*
X0085896Y0045725D01*
X0085052Y0046723D02*
X0086895Y0046723D01*
X0086050Y0047722D02*
X0087893Y0047722D01*
X0087049Y0048720D02*
X0088892Y0048720D01*
X0088047Y0049719D02*
X0089890Y0049719D01*
X0089046Y0050717D02*
X0090889Y0050717D01*
X0090044Y0051716D02*
X0091887Y0051716D01*
X0091043Y0052714D02*
X0092886Y0052714D01*
X0092041Y0053713D02*
X0093884Y0053713D01*
X0093040Y0054711D02*
X0094883Y0054711D01*
X0094038Y0055710D02*
X0095881Y0055710D01*
X0095037Y0056708D02*
X0096880Y0056708D01*
X0096035Y0057707D02*
X0097878Y0057707D01*
X0097034Y0058705D02*
X0098877Y0058705D01*
X0098032Y0059704D02*
X0099875Y0059704D01*
X0099031Y0060702D02*
X0100874Y0060702D01*
X0100029Y0061701D02*
X0101872Y0061701D01*
X0101028Y0062699D02*
X0102871Y0062699D01*
X0102026Y0063698D02*
X0103869Y0063698D01*
X0103025Y0064696D02*
X0104868Y0064696D01*
X0104023Y0065695D02*
X0105866Y0065695D01*
X0105022Y0066693D02*
X0106865Y0066693D01*
X0106020Y0067692D02*
X0107864Y0067692D01*
X0107019Y0068690D02*
X0108862Y0068690D01*
X0108017Y0069689D02*
X0109861Y0069689D01*
X0109016Y0070687D02*
X0110859Y0070687D01*
X0110014Y0071686D02*
X0111858Y0071686D01*
X0111013Y0072684D02*
X0112856Y0072684D01*
X0112011Y0073683D02*
X0113855Y0073683D01*
X0113010Y0074682D02*
X0114853Y0074682D01*
X0114008Y0075680D02*
X0115852Y0075680D01*
X0115007Y0076679D02*
X0116850Y0076679D01*
X0116005Y0077677D02*
X0117849Y0077677D01*
X0117004Y0078676D02*
X0118847Y0078676D01*
X0119600Y0079674D02*
X0118002Y0079674D01*
X0119001Y0080673D02*
X0119723Y0080673D01*
X0120000Y0081671D02*
X0120216Y0081671D01*
X0123933Y0082670D02*
X0154517Y0082670D01*
X0154350Y0083668D02*
X0123623Y0083668D01*
X0124211Y0084667D02*
X0154450Y0084667D01*
X0154863Y0085665D02*
X0124400Y0085665D01*
X0124281Y0086664D02*
X0155900Y0086664D01*
X0159600Y0086664D02*
X0161945Y0086664D01*
X0163555Y0086664D02*
X0166422Y0086664D01*
X0167750Y0086664D02*
X0167750Y0086664D01*
X0167750Y0085665D02*
X0167750Y0085665D01*
X0167750Y0084667D02*
X0167750Y0084667D01*
X0169078Y0086664D02*
X0180694Y0086664D01*
X0179695Y0085665D02*
X0170319Y0085665D01*
X0170830Y0084667D02*
X0178697Y0084667D01*
X0177698Y0083668D02*
X0170950Y0083668D01*
X0170766Y0082670D02*
X0176700Y0082670D01*
X0175701Y0081671D02*
X0170197Y0081671D01*
X0169633Y0076650D02*
X0176620Y0076650D01*
X0177850Y0077880D01*
X0187037Y0087068D01*
X0187080Y0086966D01*
X0187608Y0086437D01*
X0181750Y0080578D01*
X0181750Y0069078D01*
X0164707Y0052036D01*
X0164449Y0052293D01*
X0163347Y0052750D01*
X0162153Y0052750D01*
X0161413Y0052444D01*
X0169850Y0060880D01*
X0169850Y0061042D01*
X0170632Y0061824D01*
X0171150Y0063074D01*
X0171150Y0064426D01*
X0170632Y0065676D01*
X0169676Y0066632D01*
X0168426Y0067150D01*
X0167320Y0067150D01*
X0164850Y0069620D01*
X0164850Y0071867D01*
X0164868Y0071824D01*
X0165824Y0070868D01*
X0167074Y0070350D01*
X0168426Y0070350D01*
X0169676Y0070868D01*
X0170632Y0071824D01*
X0171150Y0073074D01*
X0171150Y0074426D01*
X0170632Y0075676D01*
X0169676Y0076632D01*
X0169633Y0076650D01*
X0170628Y0075680D02*
X0181750Y0075680D01*
X0181750Y0074682D02*
X0171044Y0074682D01*
X0171150Y0073683D02*
X0181750Y0073683D01*
X0181750Y0072684D02*
X0170989Y0072684D01*
X0170494Y0071686D02*
X0181750Y0071686D01*
X0181750Y0070687D02*
X0169241Y0070687D01*
X0166259Y0070687D02*
X0164850Y0070687D01*
X0164850Y0069689D02*
X0181750Y0069689D01*
X0181362Y0068690D02*
X0165779Y0068690D01*
X0166778Y0067692D02*
X0180364Y0067692D01*
X0179365Y0066693D02*
X0169529Y0066693D01*
X0170613Y0065695D02*
X0178366Y0065695D01*
X0177368Y0064696D02*
X0171038Y0064696D01*
X0171150Y0063698D02*
X0176369Y0063698D01*
X0175371Y0062699D02*
X0170995Y0062699D01*
X0170509Y0061701D02*
X0174372Y0061701D01*
X0173374Y0060702D02*
X0169672Y0060702D01*
X0168674Y0059704D02*
X0172375Y0059704D01*
X0171377Y0058705D02*
X0167675Y0058705D01*
X0166677Y0057707D02*
X0170378Y0057707D01*
X0169380Y0056708D02*
X0165678Y0056708D01*
X0164680Y0055710D02*
X0168381Y0055710D01*
X0167383Y0054711D02*
X0163681Y0054711D01*
X0162683Y0053713D02*
X0166384Y0053713D01*
X0165386Y0052714D02*
X0163433Y0052714D01*
X0162067Y0052714D02*
X0161684Y0052714D01*
X0159903Y0050717D02*
X0159687Y0050717D01*
X0159750Y0049719D02*
X0158689Y0049719D01*
X0157750Y0048720D02*
X0159929Y0048720D01*
X0160536Y0047722D02*
X0157571Y0047722D01*
X0156966Y0046723D02*
X0165750Y0046723D01*
X0165750Y0045725D02*
X0091553Y0045725D01*
X0092552Y0046723D02*
X0152534Y0046723D01*
X0151929Y0047722D02*
X0093550Y0047722D01*
X0094549Y0048720D02*
X0151750Y0048720D01*
X0151904Y0049719D02*
X0095547Y0049719D01*
X0096546Y0050717D02*
X0152475Y0050717D01*
X0154071Y0051716D02*
X0097544Y0051716D01*
X0098543Y0052714D02*
X0155744Y0052714D01*
X0156743Y0053713D02*
X0099541Y0053713D01*
X0100540Y0054711D02*
X0145046Y0054711D01*
X0144434Y0055710D02*
X0101538Y0055710D01*
X0102537Y0056708D02*
X0144250Y0056708D01*
X0143465Y0057707D02*
X0124949Y0057707D01*
X0120551Y0057707D02*
X0103535Y0057707D01*
X0104534Y0058705D02*
X0119936Y0058705D01*
X0119750Y0059704D02*
X0105532Y0059704D01*
X0106531Y0060702D02*
X0119897Y0060702D01*
X0120458Y0061701D02*
X0107529Y0061701D01*
X0108528Y0062699D02*
X0122031Y0062699D01*
X0123469Y0062699D02*
X0150371Y0062699D01*
X0150750Y0063698D02*
X0109526Y0063698D01*
X0110525Y0064696D02*
X0150750Y0064696D01*
X0150750Y0065695D02*
X0111523Y0065695D01*
X0112522Y0066693D02*
X0150750Y0066693D01*
X0150750Y0067692D02*
X0113520Y0067692D01*
X0114519Y0068690D02*
X0150750Y0068690D01*
X0150750Y0069689D02*
X0115517Y0069689D01*
X0116516Y0070687D02*
X0150750Y0070687D01*
X0150750Y0071686D02*
X0117514Y0071686D01*
X0118513Y0072684D02*
X0150856Y0072684D01*
X0151855Y0073683D02*
X0119511Y0073683D01*
X0120510Y0074682D02*
X0152853Y0074682D01*
X0153852Y0075680D02*
X0121508Y0075680D01*
X0123566Y0076679D02*
X0155936Y0076679D01*
X0159564Y0076679D02*
X0160650Y0076679D01*
X0160650Y0077677D02*
X0125132Y0077677D01*
X0125714Y0078676D02*
X0160650Y0078676D01*
X0160650Y0079674D02*
X0125900Y0079674D01*
X0125777Y0080673D02*
X0156295Y0080673D01*
X0155021Y0081671D02*
X0125284Y0081671D01*
X0123793Y0087662D02*
X0178658Y0087662D01*
X0178412Y0092655D02*
X0156824Y0092655D01*
X0156949Y0092707D02*
X0157393Y0093150D01*
X0157620Y0093150D01*
X0166720Y0102250D01*
X0167347Y0102250D01*
X0168449Y0102707D01*
X0169293Y0103551D01*
X0169750Y0104653D01*
X0169750Y0105847D01*
X0169293Y0106949D01*
X0168449Y0107793D01*
X0167347Y0108250D01*
X0166153Y0108250D01*
X0165051Y0107793D01*
X0164207Y0106949D01*
X0163750Y0105847D01*
X0163750Y0105220D01*
X0156507Y0097977D01*
X0155847Y0098250D01*
X0154653Y0098250D01*
X0153551Y0097793D01*
X0152707Y0096949D01*
X0152250Y0095847D01*
X0152250Y0094653D01*
X0152707Y0093551D01*
X0153551Y0092707D01*
X0154653Y0092250D01*
X0155847Y0092250D01*
X0156949Y0092707D01*
X0158123Y0093653D02*
X0187683Y0093653D01*
X0186685Y0092655D02*
X0182088Y0092655D01*
X0182915Y0091656D02*
X0185686Y0091656D01*
X0184688Y0090658D02*
X0183250Y0090658D01*
X0183250Y0089659D02*
X0183689Y0089659D01*
X0186633Y0086664D02*
X0187382Y0086664D01*
X0186837Y0085665D02*
X0185635Y0085665D01*
X0185838Y0084667D02*
X0184636Y0084667D01*
X0184840Y0083668D02*
X0183638Y0083668D01*
X0183841Y0082670D02*
X0182639Y0082670D01*
X0182843Y0081671D02*
X0181641Y0081671D01*
X0181844Y0080673D02*
X0180642Y0080673D01*
X0179644Y0079674D02*
X0181750Y0079674D01*
X0181750Y0078676D02*
X0178645Y0078676D01*
X0177647Y0077677D02*
X0181750Y0077677D01*
X0181750Y0076679D02*
X0176648Y0076679D01*
X0186502Y0079674D02*
X0186970Y0079674D01*
X0187501Y0080673D02*
X0219430Y0080673D01*
X0219914Y0081671D02*
X0220963Y0081671D01*
X0222537Y0081671D02*
X0223000Y0081671D01*
X0225662Y0084667D02*
X0239864Y0084667D01*
X0240650Y0083668D02*
X0226660Y0083668D01*
X0227659Y0082670D02*
X0240650Y0082670D01*
X0240650Y0081671D02*
X0228657Y0081671D01*
X0229656Y0080673D02*
X0240650Y0080673D01*
X0240650Y0079674D02*
X0230654Y0079674D01*
X0231653Y0078676D02*
X0240650Y0078676D01*
X0240650Y0077677D02*
X0232651Y0077677D01*
X0233650Y0076679D02*
X0240650Y0076679D01*
X0240650Y0075680D02*
X0234648Y0075680D01*
X0235647Y0074682D02*
X0240650Y0074682D01*
X0240650Y0073683D02*
X0236645Y0073683D01*
X0237644Y0072684D02*
X0240650Y0072684D01*
X0240650Y0071686D02*
X0238642Y0071686D01*
X0237750Y0067750D02*
X0237750Y0063750D01*
X0237750Y0059750D01*
X0239537Y0056708D02*
X0245571Y0056708D01*
X0245571Y0055710D02*
X0182538Y0055710D01*
X0181540Y0054711D02*
X0245571Y0054711D01*
X0245571Y0053713D02*
X0180541Y0053713D01*
X0179750Y0052714D02*
X0245571Y0052714D01*
X0245571Y0051716D02*
X0179750Y0051716D01*
X0179750Y0050717D02*
X0245571Y0050717D01*
X0245571Y0049719D02*
X0179750Y0049719D01*
X0179750Y0048720D02*
X0182081Y0048720D01*
X0183419Y0048720D02*
X0245571Y0048720D01*
X0245571Y0047722D02*
X0240584Y0047722D01*
X0242872Y0046723D02*
X0245571Y0046723D01*
X0245571Y0045725D02*
X0244062Y0045725D01*
X0245154Y0044726D02*
X0245571Y0044726D01*
X0251771Y0038633D02*
X0252359Y0037615D01*
X0252359Y0037615D01*
X0254899Y0035484D01*
X0258014Y0034350D01*
X0261329Y0034350D01*
X0264444Y0035484D01*
X0266983Y0037615D01*
X0268641Y0040485D01*
X0268641Y0040485D01*
X0269216Y0043750D01*
X0268641Y0047015D01*
X0266983Y0049885D01*
X0266983Y0049885D01*
X0264444Y0052016D01*
X0261329Y0053150D01*
X0258730Y0053150D01*
X0259515Y0054327D01*
X0259150Y0056155D01*
X0258230Y0056768D01*
X0259150Y0057382D01*
X0259515Y0059209D01*
X0258624Y0060546D01*
X0259376Y0061298D01*
X0259376Y0065130D01*
X0258598Y0065909D01*
X0258070Y0066437D01*
X0258598Y0066965D01*
X0259376Y0067743D01*
X0259376Y0071576D01*
X0258620Y0072332D01*
X0258058Y0072894D01*
X0257830Y0073121D01*
X0257074Y0073878D01*
X0254226Y0073878D01*
X0253190Y0072841D01*
X0252153Y0073878D01*
X0251771Y0073878D01*
X0251771Y0108750D01*
X0457493Y0108750D01*
X0457493Y0044003D01*
X0456983Y0044885D01*
X0454444Y0047016D01*
X0454444Y0047016D01*
X0451329Y0048150D01*
X0448014Y0048150D01*
X0444899Y0047016D01*
X0444899Y0047016D01*
X0442359Y0044885D01*
X0440702Y0042015D01*
X0440702Y0042015D01*
X0440126Y0038750D01*
X0440702Y0035485D01*
X0442359Y0032615D01*
X0442359Y0032615D01*
X0444462Y0030850D01*
X0404315Y0030850D01*
X0405071Y0032676D01*
X0405071Y0034824D01*
X0404249Y0036809D01*
X0402730Y0038328D01*
X0400745Y0039150D01*
X0398597Y0039150D01*
X0397538Y0038711D01*
X0396671Y0039578D01*
X0396671Y0043507D01*
X0397215Y0044051D01*
X0397671Y0045153D01*
X0397671Y0046347D01*
X0397215Y0047449D01*
X0396371Y0048293D01*
X0395268Y0048750D01*
X0394075Y0048750D01*
X0392972Y0048293D01*
X0392128Y0047449D01*
X0391671Y0046347D01*
X0391671Y0045153D01*
X0392128Y0044051D01*
X0392671Y0043507D01*
X0392671Y0038352D01*
X0391671Y0038766D01*
X0391671Y0052922D01*
X0405500Y0066750D01*
X0423500Y0066750D01*
X0425500Y0068750D01*
X0426671Y0069922D01*
X0426671Y0074507D01*
X0427215Y0075051D01*
X0427671Y0076153D01*
X0427671Y0077347D01*
X0427215Y0078449D01*
X0426371Y0079293D01*
X0425268Y0079750D01*
X0424075Y0079750D01*
X0422972Y0079293D01*
X0422429Y0078750D01*
X0401914Y0078750D01*
X0401371Y0079293D01*
X0400268Y0079750D01*
X0399075Y0079750D01*
X0398093Y0079344D01*
X0402500Y0083750D01*
X0403671Y0084922D01*
X0403671Y0086295D01*
X0404342Y0086966D01*
X0404821Y0088123D01*
X0404821Y0089377D01*
X0404342Y0090534D01*
X0403456Y0091420D01*
X0403354Y0091463D01*
X0409041Y0097150D01*
X0416029Y0097150D01*
X0416472Y0096707D01*
X0417575Y0096250D01*
X0418768Y0096250D01*
X0419871Y0096707D01*
X0420314Y0097150D01*
X0430671Y0097150D01*
X0430671Y0096653D01*
X0431128Y0095551D01*
X0431972Y0094707D01*
X0433075Y0094250D01*
X0434268Y0094250D01*
X0435371Y0094707D01*
X0435814Y0095150D01*
X0441301Y0095150D01*
X0452571Y0083880D01*
X0452571Y0070700D01*
X0451550Y0070700D01*
X0450500Y0071750D01*
X0436500Y0085750D01*
X0431914Y0085750D01*
X0431371Y0086293D01*
X0430268Y0086750D01*
X0429075Y0086750D01*
X0427972Y0086293D01*
X0427128Y0085449D01*
X0426671Y0084347D01*
X0426671Y0083153D01*
X0427128Y0082051D01*
X0427972Y0081207D01*
X0429075Y0080750D01*
X0430268Y0080750D01*
X0431371Y0081207D01*
X0431914Y0081750D01*
X0434843Y0081750D01*
X0435249Y0081344D01*
X0434268Y0081750D01*
X0433075Y0081750D01*
X0431972Y0081293D01*
X0431128Y0080449D01*
X0430671Y0079347D01*
X0430671Y0078153D01*
X0431128Y0077051D01*
X0431671Y0076507D01*
X0431671Y0062922D01*
X0437671Y0056922D01*
X0438843Y0055750D01*
X0450500Y0055750D01*
X0451550Y0056800D01*
X0452875Y0056800D01*
X0453871Y0057796D01*
X0453871Y0061650D01*
X0454041Y0061650D01*
X0455271Y0062880D01*
X0456771Y0064380D01*
X0456771Y0085620D01*
X0455541Y0086850D01*
X0443041Y0099350D01*
X0435814Y0099350D01*
X0435371Y0099793D01*
X0434268Y0100250D01*
X0433641Y0100250D01*
X0432541Y0101350D01*
X0420314Y0101350D01*
X0419871Y0101793D01*
X0418768Y0102250D01*
X0417575Y0102250D01*
X0416472Y0101793D01*
X0416029Y0101350D01*
X0407301Y0101350D01*
X0394865Y0088913D01*
X0395171Y0089653D01*
X0395171Y0090847D01*
X0394715Y0091949D01*
X0393871Y0092793D01*
X0392768Y0093250D01*
X0391575Y0093250D01*
X0390472Y0092793D01*
X0389929Y0092250D01*
X0330343Y0092250D01*
X0329171Y0091078D01*
X0296843Y0058750D01*
X0296075Y0058750D01*
X0294972Y0058293D01*
X0294128Y0057449D01*
X0293671Y0056347D01*
X0293671Y0055153D01*
X0294128Y0054051D01*
X0294972Y0053207D01*
X0296075Y0052750D01*
X0297268Y0052750D01*
X0297396Y0052803D01*
X0289843Y0045250D01*
X0278626Y0045250D01*
X0277956Y0045920D01*
X0276798Y0046400D01*
X0275545Y0046400D01*
X0274387Y0045920D01*
X0273501Y0045034D01*
X0273021Y0043877D01*
X0273021Y0042623D01*
X0273501Y0041466D01*
X0274387Y0040580D01*
X0275545Y0040100D01*
X0276798Y0040100D01*
X0277956Y0040580D01*
X0278626Y0041250D01*
X0291500Y0041250D01*
X0332850Y0082600D01*
X0333320Y0082600D01*
X0332887Y0082420D01*
X0332001Y0081534D01*
X0331521Y0080377D01*
X0331521Y0079428D01*
X0290343Y0038250D01*
X0280626Y0038250D01*
X0279956Y0038920D01*
X0278798Y0039400D01*
X0277545Y0039400D01*
X0276387Y0038920D01*
X0275501Y0038034D01*
X0275021Y0036877D01*
X0275021Y0035623D01*
X0275501Y0034466D01*
X0276387Y0033580D01*
X0277545Y0033100D01*
X0278798Y0033100D01*
X0279956Y0033580D01*
X0280626Y0034250D01*
X0292000Y0034250D01*
X0334350Y0076600D01*
X0335298Y0076600D01*
X0336456Y0077080D01*
X0337342Y0077966D01*
X0337821Y0079123D01*
X0337821Y0080377D01*
X0337342Y0081534D01*
X0336456Y0082420D01*
X0335298Y0082900D01*
X0334522Y0082900D01*
X0334956Y0083080D01*
X0335842Y0083966D01*
X0336321Y0085123D01*
X0336321Y0086377D01*
X0335842Y0087534D01*
X0335126Y0088250D01*
X0389929Y0088250D01*
X0390472Y0087707D01*
X0391575Y0087250D01*
X0392768Y0087250D01*
X0393508Y0087556D01*
X0386801Y0080850D01*
X0381032Y0080850D01*
X0381187Y0080914D01*
X0381711Y0081264D01*
X0382157Y0081710D01*
X0382507Y0082234D01*
X0382748Y0082817D01*
X0382871Y0083435D01*
X0382871Y0083750D01*
X0382871Y0084065D01*
X0382748Y0084683D01*
X0382507Y0085266D01*
X0382157Y0085790D01*
X0381711Y0086236D01*
X0381187Y0086586D01*
X0380605Y0086827D01*
X0379986Y0086950D01*
X0379671Y0086950D01*
X0379356Y0086950D01*
X0378738Y0086827D01*
X0378156Y0086586D01*
X0377631Y0086236D01*
X0377186Y0085790D01*
X0377061Y0085603D01*
X0376371Y0086293D01*
X0375268Y0086750D01*
X0374075Y0086750D01*
X0372972Y0086293D01*
X0372454Y0085775D01*
X0371597Y0086632D01*
X0370348Y0087150D01*
X0368995Y0087150D01*
X0367745Y0086632D01*
X0366789Y0085676D01*
X0366271Y0084426D01*
X0366271Y0083074D01*
X0366789Y0081824D01*
X0367745Y0080868D01*
X0368995Y0080350D01*
X0370348Y0080350D01*
X0371597Y0080868D01*
X0372454Y0081725D01*
X0372571Y0081607D01*
X0372571Y0075633D01*
X0372554Y0075676D01*
X0371597Y0076632D01*
X0370348Y0077150D01*
X0368995Y0077150D01*
X0367745Y0076632D01*
X0366863Y0075750D01*
X0365843Y0075750D01*
X0363843Y0073750D01*
X0362671Y0072578D01*
X0362671Y0063078D01*
X0359343Y0059750D01*
X0359000Y0059750D01*
X0357000Y0061750D01*
X0336914Y0061750D01*
X0336371Y0062293D01*
X0335268Y0062750D01*
X0334075Y0062750D01*
X0332972Y0062293D01*
X0332128Y0061449D01*
X0331671Y0060347D01*
X0331671Y0059153D01*
X0332128Y0058051D01*
X0332972Y0057207D01*
X0334075Y0056750D01*
X0335268Y0056750D01*
X0336371Y0057207D01*
X0336914Y0057750D01*
X0355343Y0057750D01*
X0356171Y0056922D01*
X0356171Y0056153D01*
X0356628Y0055051D01*
X0357472Y0054207D01*
X0358575Y0053750D01*
X0359768Y0053750D01*
X0360871Y0054207D01*
X0361715Y0055051D01*
X0362171Y0056153D01*
X0362171Y0056922D01*
X0366671Y0061422D01*
X0366671Y0062108D01*
X0366789Y0061824D01*
X0367745Y0060868D01*
X0368995Y0060350D01*
X0370348Y0060350D01*
X0371597Y0060868D01*
X0372554Y0061824D01*
X0373071Y0063074D01*
X0373071Y0064426D01*
X0372554Y0065676D01*
X0371597Y0066632D01*
X0370348Y0067150D01*
X0368995Y0067150D01*
X0367745Y0066632D01*
X0366789Y0065676D01*
X0366671Y0065392D01*
X0366671Y0070922D01*
X0367181Y0071432D01*
X0367745Y0070868D01*
X0368995Y0070350D01*
X0370348Y0070350D01*
X0371597Y0070868D01*
X0372554Y0071824D01*
X0372571Y0071867D01*
X0372571Y0067880D01*
X0376271Y0064180D01*
X0376271Y0063074D01*
X0376785Y0061834D01*
X0366701Y0051750D01*
X0366075Y0051750D01*
X0364972Y0051293D01*
X0364128Y0050449D01*
X0363671Y0049347D01*
X0363671Y0048153D01*
X0364128Y0047051D01*
X0364972Y0046207D01*
X0366075Y0045750D01*
X0367268Y0045750D01*
X0368371Y0046207D01*
X0369215Y0047051D01*
X0369671Y0048153D01*
X0369671Y0048780D01*
X0371978Y0051087D01*
X0371671Y0050347D01*
X0371671Y0049153D01*
X0372128Y0048051D01*
X0372972Y0047207D01*
X0374075Y0046750D01*
X0375268Y0046750D01*
X0376371Y0047207D01*
X0376914Y0047750D01*
X0377671Y0047750D01*
X0377671Y0038766D01*
X0376612Y0038328D01*
X0375093Y0036809D01*
X0374671Y0035790D01*
X0374249Y0036809D01*
X0372730Y0038328D01*
X0370745Y0039150D01*
X0368597Y0039150D01*
X0366612Y0038328D01*
X0365093Y0036809D01*
X0364562Y0035526D01*
X0364490Y0035746D01*
X0364119Y0036475D01*
X0363638Y0037138D01*
X0363059Y0037716D01*
X0362397Y0038197D01*
X0361667Y0038569D01*
X0360889Y0038822D01*
X0360171Y0038936D01*
X0360171Y0034250D01*
X0359171Y0034250D01*
X0359171Y0033250D01*
X0354486Y0033250D01*
X0354599Y0032532D01*
X0354852Y0031754D01*
X0355224Y0031025D01*
X0355351Y0030850D01*
X0251771Y0030850D01*
X0251771Y0038633D01*
X0251771Y0037737D02*
X0252289Y0037737D01*
X0251771Y0036738D02*
X0253404Y0036738D01*
X0254594Y0035740D02*
X0251771Y0035740D01*
X0251771Y0034741D02*
X0256939Y0034741D01*
X0254899Y0035484D02*
X0254899Y0035484D01*
X0251771Y0033743D02*
X0276224Y0033743D01*
X0275387Y0034741D02*
X0262403Y0034741D01*
X0264444Y0035484D02*
X0264444Y0035484D01*
X0264749Y0035740D02*
X0275021Y0035740D01*
X0275021Y0036738D02*
X0265939Y0036738D01*
X0266983Y0037615D02*
X0266983Y0037615D01*
X0266983Y0037615D01*
X0267054Y0037737D02*
X0275378Y0037737D01*
X0276202Y0038735D02*
X0267630Y0038735D01*
X0268207Y0039734D02*
X0291827Y0039734D01*
X0292825Y0040732D02*
X0278108Y0040732D01*
X0280141Y0038735D02*
X0290828Y0038735D01*
X0291980Y0041731D02*
X0293824Y0041731D01*
X0292979Y0042729D02*
X0294822Y0042729D01*
X0293977Y0043728D02*
X0295821Y0043728D01*
X0294976Y0044726D02*
X0296819Y0044726D01*
X0295974Y0045725D02*
X0297818Y0045725D01*
X0296973Y0046723D02*
X0298816Y0046723D01*
X0297971Y0047722D02*
X0299815Y0047722D01*
X0298970Y0048720D02*
X0300813Y0048720D01*
X0299968Y0049719D02*
X0301812Y0049719D01*
X0300967Y0050717D02*
X0302810Y0050717D01*
X0301965Y0051716D02*
X0303809Y0051716D01*
X0302964Y0052714D02*
X0304807Y0052714D01*
X0303963Y0053713D02*
X0305806Y0053713D01*
X0304961Y0054711D02*
X0306804Y0054711D01*
X0305960Y0055710D02*
X0307803Y0055710D01*
X0306958Y0056708D02*
X0308801Y0056708D01*
X0307957Y0057707D02*
X0309800Y0057707D01*
X0308955Y0058705D02*
X0310798Y0058705D01*
X0309954Y0059704D02*
X0311797Y0059704D01*
X0310952Y0060702D02*
X0312795Y0060702D01*
X0311951Y0061701D02*
X0313794Y0061701D01*
X0312949Y0062699D02*
X0314792Y0062699D01*
X0313948Y0063698D02*
X0315791Y0063698D01*
X0314946Y0064696D02*
X0316789Y0064696D01*
X0315945Y0065695D02*
X0317788Y0065695D01*
X0316943Y0066693D02*
X0318786Y0066693D01*
X0317942Y0067692D02*
X0319785Y0067692D01*
X0318940Y0068690D02*
X0320783Y0068690D01*
X0319939Y0069689D02*
X0321782Y0069689D01*
X0320937Y0070687D02*
X0322780Y0070687D01*
X0321936Y0071686D02*
X0323779Y0071686D01*
X0322934Y0072684D02*
X0324777Y0072684D01*
X0323933Y0073683D02*
X0325776Y0073683D01*
X0324931Y0074682D02*
X0326774Y0074682D01*
X0325930Y0075680D02*
X0327773Y0075680D01*
X0326928Y0076679D02*
X0328771Y0076679D01*
X0327927Y0077677D02*
X0329770Y0077677D01*
X0328925Y0078676D02*
X0330768Y0078676D01*
X0331521Y0079674D02*
X0329924Y0079674D01*
X0330922Y0080673D02*
X0331644Y0080673D01*
X0331921Y0081671D02*
X0332138Y0081671D01*
X0335854Y0082670D02*
X0366439Y0082670D01*
X0366271Y0083668D02*
X0335544Y0083668D01*
X0336132Y0084667D02*
X0366371Y0084667D01*
X0366784Y0085665D02*
X0336321Y0085665D01*
X0336202Y0086664D02*
X0367821Y0086664D01*
X0371522Y0086664D02*
X0373866Y0086664D01*
X0375476Y0086664D02*
X0378344Y0086664D01*
X0379671Y0086664D02*
X0379671Y0086664D01*
X0379671Y0086950D02*
X0379671Y0083750D01*
X0379671Y0083750D01*
X0379671Y0086950D01*
X0379671Y0085665D02*
X0379671Y0085665D01*
X0379671Y0084667D02*
X0379671Y0084667D01*
X0379671Y0083750D02*
X0382871Y0083750D01*
X0379671Y0083750D01*
X0379671Y0083750D01*
X0382871Y0083668D02*
X0389620Y0083668D01*
X0390618Y0084667D02*
X0382752Y0084667D01*
X0382240Y0085665D02*
X0391617Y0085665D01*
X0392615Y0086664D02*
X0380999Y0086664D01*
X0377102Y0085665D02*
X0376999Y0085665D01*
X0372508Y0081671D02*
X0372401Y0081671D01*
X0372571Y0080673D02*
X0371126Y0080673D01*
X0372571Y0079674D02*
X0337821Y0079674D01*
X0337699Y0080673D02*
X0368216Y0080673D01*
X0366942Y0081671D02*
X0337205Y0081671D01*
X0337636Y0078676D02*
X0372571Y0078676D01*
X0372571Y0077677D02*
X0337053Y0077677D01*
X0335487Y0076679D02*
X0367857Y0076679D01*
X0365773Y0075680D02*
X0333430Y0075680D01*
X0332431Y0074682D02*
X0364774Y0074682D01*
X0363776Y0073683D02*
X0331433Y0073683D01*
X0330434Y0072684D02*
X0362777Y0072684D01*
X0362671Y0071686D02*
X0329436Y0071686D01*
X0328437Y0070687D02*
X0362671Y0070687D01*
X0362671Y0069689D02*
X0327439Y0069689D01*
X0326440Y0068690D02*
X0362671Y0068690D01*
X0362671Y0067692D02*
X0325442Y0067692D01*
X0324443Y0066693D02*
X0362671Y0066693D01*
X0362671Y0065695D02*
X0323445Y0065695D01*
X0322446Y0064696D02*
X0362671Y0064696D01*
X0362671Y0063698D02*
X0321448Y0063698D01*
X0320449Y0062699D02*
X0333952Y0062699D01*
X0335390Y0062699D02*
X0362292Y0062699D01*
X0361294Y0061701D02*
X0357049Y0061701D01*
X0358047Y0060702D02*
X0360295Y0060702D01*
X0362957Y0057707D02*
X0372658Y0057707D01*
X0371660Y0056708D02*
X0362171Y0056708D01*
X0361988Y0055710D02*
X0370661Y0055710D01*
X0369663Y0054711D02*
X0361375Y0054711D01*
X0356967Y0054711D02*
X0312461Y0054711D01*
X0311463Y0053713D02*
X0368664Y0053713D01*
X0367666Y0052714D02*
X0310464Y0052714D01*
X0309465Y0051716D02*
X0365992Y0051716D01*
X0364396Y0050717D02*
X0308467Y0050717D01*
X0307468Y0049719D02*
X0363825Y0049719D01*
X0363671Y0048720D02*
X0306470Y0048720D01*
X0305471Y0047722D02*
X0363850Y0047722D01*
X0364455Y0046723D02*
X0304473Y0046723D01*
X0303474Y0045725D02*
X0377671Y0045725D01*
X0377671Y0046723D02*
X0368887Y0046723D01*
X0369493Y0047722D02*
X0372457Y0047722D01*
X0371851Y0048720D02*
X0369671Y0048720D01*
X0370610Y0049719D02*
X0371671Y0049719D01*
X0371608Y0050717D02*
X0371825Y0050717D01*
X0373335Y0052444D02*
X0381771Y0060880D01*
X0381771Y0061042D01*
X0382554Y0061824D01*
X0383071Y0063074D01*
X0383071Y0064426D01*
X0382554Y0065676D01*
X0381597Y0066632D01*
X0380348Y0067150D01*
X0379241Y0067150D01*
X0376771Y0069620D01*
X0376771Y0071867D01*
X0376789Y0071824D01*
X0377745Y0070868D01*
X0378995Y0070350D01*
X0380348Y0070350D01*
X0381597Y0070868D01*
X0382554Y0071824D01*
X0383071Y0073074D01*
X0383071Y0074426D01*
X0382554Y0075676D01*
X0381597Y0076632D01*
X0381555Y0076650D01*
X0388541Y0076650D01*
X0389771Y0077880D01*
X0398959Y0087068D01*
X0399001Y0086966D01*
X0399530Y0086437D01*
X0394843Y0081750D01*
X0394843Y0081750D01*
X0393671Y0080578D01*
X0393671Y0069078D01*
X0376628Y0052036D01*
X0376371Y0052293D01*
X0375268Y0052750D01*
X0374075Y0052750D01*
X0373335Y0052444D01*
X0373605Y0052714D02*
X0373988Y0052714D01*
X0374604Y0053713D02*
X0378306Y0053713D01*
X0379304Y0054711D02*
X0375602Y0054711D01*
X0376601Y0055710D02*
X0380303Y0055710D01*
X0381301Y0056708D02*
X0377599Y0056708D01*
X0378598Y0057707D02*
X0382300Y0057707D01*
X0383298Y0058705D02*
X0379596Y0058705D01*
X0380595Y0059704D02*
X0384297Y0059704D01*
X0385295Y0060702D02*
X0381593Y0060702D01*
X0382430Y0061701D02*
X0386294Y0061701D01*
X0387292Y0062699D02*
X0382916Y0062699D01*
X0383071Y0063698D02*
X0388291Y0063698D01*
X0389289Y0064696D02*
X0382959Y0064696D01*
X0382535Y0065695D02*
X0390288Y0065695D01*
X0391286Y0066693D02*
X0381450Y0066693D01*
X0378699Y0067692D02*
X0392285Y0067692D01*
X0393283Y0068690D02*
X0377701Y0068690D01*
X0376771Y0069689D02*
X0393671Y0069689D01*
X0393671Y0070687D02*
X0381162Y0070687D01*
X0382416Y0071686D02*
X0393671Y0071686D01*
X0393671Y0072684D02*
X0382910Y0072684D01*
X0383071Y0073683D02*
X0393671Y0073683D01*
X0393671Y0074682D02*
X0382966Y0074682D01*
X0382550Y0075680D02*
X0393671Y0075680D01*
X0393671Y0076679D02*
X0388570Y0076679D01*
X0389568Y0077677D02*
X0393671Y0077677D01*
X0393671Y0078676D02*
X0390567Y0078676D01*
X0391565Y0079674D02*
X0393671Y0079674D01*
X0393765Y0080673D02*
X0392564Y0080673D01*
X0393562Y0081671D02*
X0394764Y0081671D01*
X0394561Y0082670D02*
X0395762Y0082670D01*
X0395559Y0083668D02*
X0396761Y0083668D01*
X0396558Y0084667D02*
X0397760Y0084667D01*
X0397556Y0085665D02*
X0398758Y0085665D01*
X0398555Y0086664D02*
X0399303Y0086664D01*
X0402418Y0083668D02*
X0426671Y0083668D01*
X0426804Y0084667D02*
X0403416Y0084667D01*
X0403671Y0085665D02*
X0427344Y0085665D01*
X0428866Y0086664D02*
X0404040Y0086664D01*
X0404630Y0087662D02*
X0448789Y0087662D01*
X0447791Y0088661D02*
X0404821Y0088661D01*
X0404704Y0089659D02*
X0446792Y0089659D01*
X0445794Y0090658D02*
X0404218Y0090658D01*
X0403547Y0091656D02*
X0444795Y0091656D01*
X0443797Y0092655D02*
X0404546Y0092655D01*
X0405544Y0093653D02*
X0442798Y0093653D01*
X0441800Y0094652D02*
X0435238Y0094652D01*
X0432105Y0094652D02*
X0406543Y0094652D01*
X0407541Y0095650D02*
X0431087Y0095650D01*
X0430673Y0096649D02*
X0419731Y0096649D01*
X0416612Y0096649D02*
X0408540Y0096649D01*
X0405596Y0099644D02*
X0396021Y0099644D01*
X0396021Y0098646D02*
X0404597Y0098646D01*
X0403599Y0097647D02*
X0395540Y0097647D01*
X0395442Y0097550D02*
X0395722Y0097829D01*
X0395919Y0098171D01*
X0396021Y0098553D01*
X0396021Y0101125D01*
X0393396Y0101125D01*
X0393396Y0097250D01*
X0394719Y0097250D01*
X0395100Y0097352D01*
X0395442Y0097550D01*
X0393396Y0097647D02*
X0393146Y0097647D01*
X0393146Y0097250D02*
X0392225Y0097250D01*
X0392025Y0097050D01*
X0388117Y0097050D01*
X0387121Y0098046D01*
X0387121Y0099150D01*
X0386814Y0099150D01*
X0386371Y0098707D01*
X0385268Y0098250D01*
X0384075Y0098250D01*
X0382972Y0098707D01*
X0382128Y0099551D01*
X0381671Y0100653D01*
X0381671Y0101847D01*
X0382128Y0102949D01*
X0382972Y0103793D01*
X0384075Y0104250D01*
X0385268Y0104250D01*
X0386371Y0103793D01*
X0386814Y0103350D01*
X0387121Y0103350D01*
X0387121Y0104454D01*
X0388117Y0105450D01*
X0392025Y0105450D01*
X0392225Y0105250D01*
X0393146Y0105250D01*
X0393146Y0101375D01*
X0393396Y0101375D01*
X0393396Y0105250D01*
X0394719Y0105250D01*
X0395100Y0105148D01*
X0395442Y0104950D01*
X0395722Y0104671D01*
X0395919Y0104329D01*
X0396021Y0103947D01*
X0396021Y0101375D01*
X0393396Y0101375D01*
X0393396Y0101125D01*
X0393146Y0101125D01*
X0393146Y0097250D01*
X0393146Y0098646D02*
X0393396Y0098646D01*
X0393396Y0099644D02*
X0393146Y0099644D01*
X0393146Y0100643D02*
X0393396Y0100643D01*
X0393396Y0101641D02*
X0393146Y0101641D01*
X0393146Y0102640D02*
X0393396Y0102640D01*
X0393396Y0103638D02*
X0393146Y0103638D01*
X0393146Y0104637D02*
X0393396Y0104637D01*
X0395741Y0104637D02*
X0457493Y0104637D01*
X0457493Y0105635D02*
X0381671Y0105635D01*
X0381671Y0105847D02*
X0381215Y0106949D01*
X0380371Y0107793D01*
X0379268Y0108250D01*
X0378075Y0108250D01*
X0376972Y0107793D01*
X0376128Y0106949D01*
X0375671Y0105847D01*
X0375671Y0105220D01*
X0368428Y0097977D01*
X0367768Y0098250D01*
X0366575Y0098250D01*
X0365472Y0097793D01*
X0364628Y0096949D01*
X0364171Y0095847D01*
X0364171Y0094653D01*
X0364628Y0093551D01*
X0365472Y0092707D01*
X0366575Y0092250D01*
X0367768Y0092250D01*
X0368871Y0092707D01*
X0369314Y0093150D01*
X0369541Y0093150D01*
X0378641Y0102250D01*
X0379268Y0102250D01*
X0380371Y0102707D01*
X0381215Y0103551D01*
X0381671Y0104653D01*
X0381671Y0105847D01*
X0381345Y0106634D02*
X0457493Y0106634D01*
X0457493Y0107632D02*
X0380532Y0107632D01*
X0381664Y0104637D02*
X0387304Y0104637D01*
X0387121Y0103638D02*
X0386526Y0103638D01*
X0382817Y0103638D02*
X0381251Y0103638D01*
X0382000Y0102640D02*
X0380209Y0102640D01*
X0381671Y0101641D02*
X0378032Y0101641D01*
X0377034Y0100643D02*
X0381676Y0100643D01*
X0382089Y0099644D02*
X0376035Y0099644D01*
X0375037Y0098646D02*
X0383119Y0098646D01*
X0386224Y0098646D02*
X0387121Y0098646D01*
X0387520Y0097647D02*
X0374038Y0097647D01*
X0373040Y0096649D02*
X0402600Y0096649D01*
X0401602Y0095650D02*
X0372041Y0095650D01*
X0371043Y0094652D02*
X0400603Y0094652D01*
X0399605Y0093653D02*
X0370044Y0093653D01*
X0368745Y0092655D02*
X0390333Y0092655D01*
X0394009Y0092655D02*
X0398606Y0092655D01*
X0397608Y0091656D02*
X0394836Y0091656D01*
X0395171Y0090658D02*
X0396609Y0090658D01*
X0395611Y0089659D02*
X0395171Y0089659D01*
X0390579Y0087662D02*
X0335714Y0087662D01*
X0329749Y0091656D02*
X0251771Y0091656D01*
X0251771Y0090658D02*
X0328751Y0090658D01*
X0327752Y0089659D02*
X0251771Y0089659D01*
X0251771Y0088661D02*
X0326754Y0088661D01*
X0325755Y0087662D02*
X0251771Y0087662D01*
X0251771Y0086664D02*
X0324757Y0086664D01*
X0323758Y0085665D02*
X0251771Y0085665D01*
X0251771Y0084667D02*
X0322760Y0084667D01*
X0321761Y0083668D02*
X0251771Y0083668D01*
X0251771Y0082670D02*
X0320762Y0082670D01*
X0319764Y0081671D02*
X0251771Y0081671D01*
X0251771Y0080673D02*
X0318765Y0080673D01*
X0317767Y0079674D02*
X0251771Y0079674D01*
X0251771Y0078676D02*
X0316768Y0078676D01*
X0315770Y0077677D02*
X0251771Y0077677D01*
X0251771Y0076679D02*
X0314771Y0076679D01*
X0313773Y0075680D02*
X0251771Y0075680D01*
X0251771Y0074682D02*
X0312774Y0074682D01*
X0311776Y0073683D02*
X0257269Y0073683D01*
X0258058Y0072894D02*
X0258058Y0072894D01*
X0258267Y0072684D02*
X0310777Y0072684D01*
X0309779Y0071686D02*
X0259266Y0071686D01*
X0259376Y0070687D02*
X0308780Y0070687D01*
X0307782Y0069689D02*
X0259376Y0069689D01*
X0259376Y0068690D02*
X0306783Y0068690D01*
X0305785Y0067692D02*
X0259325Y0067692D01*
X0258327Y0066693D02*
X0304786Y0066693D01*
X0303788Y0065695D02*
X0258811Y0065695D01*
X0259376Y0064696D02*
X0302789Y0064696D01*
X0301791Y0063698D02*
X0259376Y0063698D01*
X0259376Y0062699D02*
X0300792Y0062699D01*
X0299794Y0061701D02*
X0259376Y0061701D01*
X0258781Y0060702D02*
X0298795Y0060702D01*
X0297797Y0059704D02*
X0259186Y0059704D01*
X0259415Y0058705D02*
X0295967Y0058705D01*
X0294385Y0057707D02*
X0259215Y0057707D01*
X0258320Y0056708D02*
X0293821Y0056708D01*
X0293671Y0055710D02*
X0259239Y0055710D01*
X0259439Y0054711D02*
X0293854Y0054711D01*
X0294466Y0053713D02*
X0259106Y0053713D01*
X0262526Y0052714D02*
X0297307Y0052714D01*
X0296309Y0051716D02*
X0264802Y0051716D01*
X0264444Y0052016D02*
X0264444Y0052016D01*
X0265992Y0050717D02*
X0295310Y0050717D01*
X0294312Y0049719D02*
X0267079Y0049719D01*
X0267656Y0048720D02*
X0293313Y0048720D01*
X0292315Y0047722D02*
X0268232Y0047722D01*
X0268641Y0047015D02*
X0268641Y0047015D01*
X0268692Y0046723D02*
X0291316Y0046723D01*
X0290318Y0045725D02*
X0278151Y0045725D01*
X0274191Y0045725D02*
X0268868Y0045725D01*
X0269044Y0044726D02*
X0273373Y0044726D01*
X0273021Y0043728D02*
X0269212Y0043728D01*
X0269216Y0043750D02*
X0269216Y0043750D01*
X0269036Y0042729D02*
X0273021Y0042729D01*
X0273391Y0041731D02*
X0268860Y0041731D01*
X0268684Y0040732D02*
X0274234Y0040732D01*
X0280119Y0033743D02*
X0359171Y0033743D01*
X0359171Y0034250D02*
X0354486Y0034250D01*
X0354599Y0034968D01*
X0354852Y0035746D01*
X0355224Y0036475D01*
X0355705Y0037138D01*
X0356284Y0037716D01*
X0356946Y0038197D01*
X0357675Y0038569D01*
X0358454Y0038822D01*
X0359171Y0038936D01*
X0359171Y0034250D01*
X0359171Y0034741D02*
X0360171Y0034741D01*
X0360171Y0035740D02*
X0359171Y0035740D01*
X0359171Y0036738D02*
X0360171Y0036738D01*
X0360171Y0037737D02*
X0359171Y0037737D01*
X0359171Y0038735D02*
X0360171Y0038735D01*
X0361156Y0038735D02*
X0367596Y0038735D01*
X0366021Y0037737D02*
X0363031Y0037737D01*
X0363928Y0036738D02*
X0365064Y0036738D01*
X0364650Y0035740D02*
X0364492Y0035740D01*
X0358186Y0038735D02*
X0296485Y0038735D01*
X0297483Y0039734D02*
X0377671Y0039734D01*
X0377671Y0040732D02*
X0298482Y0040732D01*
X0299480Y0041731D02*
X0377671Y0041731D01*
X0377671Y0042729D02*
X0300479Y0042729D01*
X0301477Y0043728D02*
X0377671Y0043728D01*
X0377671Y0044726D02*
X0302476Y0044726D01*
X0295486Y0037737D02*
X0356312Y0037737D01*
X0355415Y0036738D02*
X0294488Y0036738D01*
X0293489Y0035740D02*
X0354850Y0035740D01*
X0354563Y0034741D02*
X0292491Y0034741D01*
X0313460Y0055710D02*
X0356355Y0055710D01*
X0356171Y0056708D02*
X0314458Y0056708D01*
X0315457Y0057707D02*
X0332472Y0057707D01*
X0331857Y0058705D02*
X0316455Y0058705D01*
X0317454Y0059704D02*
X0331671Y0059704D01*
X0331819Y0060702D02*
X0318452Y0060702D01*
X0319451Y0061701D02*
X0332380Y0061701D01*
X0336871Y0057707D02*
X0355386Y0057707D01*
X0363955Y0058705D02*
X0373657Y0058705D01*
X0374655Y0059704D02*
X0364954Y0059704D01*
X0365952Y0060702D02*
X0368144Y0060702D01*
X0366912Y0061701D02*
X0366671Y0061701D01*
X0366671Y0065695D02*
X0366808Y0065695D01*
X0366671Y0066693D02*
X0367893Y0066693D01*
X0366671Y0067692D02*
X0372759Y0067692D01*
X0372571Y0068690D02*
X0366671Y0068690D01*
X0366671Y0069689D02*
X0372571Y0069689D01*
X0372571Y0070687D02*
X0371162Y0070687D01*
X0372416Y0071686D02*
X0372571Y0071686D01*
X0372550Y0075680D02*
X0372571Y0075680D01*
X0372571Y0076679D02*
X0371486Y0076679D01*
X0376771Y0071686D02*
X0376927Y0071686D01*
X0376771Y0070687D02*
X0378180Y0070687D01*
X0373758Y0066693D02*
X0371450Y0066693D01*
X0372535Y0065695D02*
X0374757Y0065695D01*
X0375755Y0064696D02*
X0372959Y0064696D01*
X0373071Y0063698D02*
X0376271Y0063698D01*
X0376426Y0062699D02*
X0372916Y0062699D01*
X0372430Y0061701D02*
X0376652Y0061701D01*
X0375654Y0060702D02*
X0371198Y0060702D01*
X0375354Y0052714D02*
X0377307Y0052714D01*
X0377671Y0047722D02*
X0376886Y0047722D01*
X0381671Y0046922D02*
X0387671Y0052922D01*
X0387671Y0038766D01*
X0386612Y0038328D01*
X0385093Y0036809D01*
X0384671Y0035790D01*
X0384249Y0036809D01*
X0382730Y0038328D01*
X0381671Y0038766D01*
X0381671Y0046922D01*
X0381671Y0046723D02*
X0387671Y0046723D01*
X0387671Y0045725D02*
X0381671Y0045725D01*
X0381671Y0044726D02*
X0387671Y0044726D01*
X0387671Y0043728D02*
X0381671Y0043728D01*
X0381671Y0042729D02*
X0387671Y0042729D01*
X0387671Y0041731D02*
X0381671Y0041731D01*
X0381671Y0040732D02*
X0387671Y0040732D01*
X0387671Y0039734D02*
X0381671Y0039734D01*
X0381747Y0038735D02*
X0387596Y0038735D01*
X0386021Y0037737D02*
X0383321Y0037737D01*
X0384279Y0036738D02*
X0385064Y0036738D01*
X0377596Y0038735D02*
X0371747Y0038735D01*
X0373321Y0037737D02*
X0376021Y0037737D01*
X0375064Y0036738D02*
X0374279Y0036738D01*
X0382471Y0047722D02*
X0387671Y0047722D01*
X0387671Y0048720D02*
X0383470Y0048720D01*
X0384468Y0049719D02*
X0387671Y0049719D01*
X0387671Y0050717D02*
X0385467Y0050717D01*
X0386465Y0051716D02*
X0387671Y0051716D01*
X0387671Y0052714D02*
X0387464Y0052714D01*
X0391671Y0052714D02*
X0457493Y0052714D01*
X0457493Y0051716D02*
X0391671Y0051716D01*
X0391671Y0050717D02*
X0457493Y0050717D01*
X0457493Y0049719D02*
X0391671Y0049719D01*
X0391671Y0048720D02*
X0394003Y0048720D01*
X0395340Y0048720D02*
X0457493Y0048720D01*
X0457493Y0047722D02*
X0452505Y0047722D01*
X0454793Y0046723D02*
X0457493Y0046723D01*
X0457493Y0045725D02*
X0455983Y0045725D01*
X0457075Y0044726D02*
X0457493Y0044726D01*
X0457493Y0053713D02*
X0392462Y0053713D01*
X0393461Y0054711D02*
X0457493Y0054711D01*
X0457493Y0055710D02*
X0394460Y0055710D01*
X0395458Y0056708D02*
X0437885Y0056708D01*
X0436886Y0057707D02*
X0396457Y0057707D01*
X0397455Y0058705D02*
X0435888Y0058705D01*
X0434889Y0059704D02*
X0398454Y0059704D01*
X0399452Y0060702D02*
X0433891Y0060702D01*
X0432892Y0061701D02*
X0400451Y0061701D01*
X0401449Y0062699D02*
X0431893Y0062699D01*
X0431671Y0063698D02*
X0402448Y0063698D01*
X0403446Y0064696D02*
X0431671Y0064696D01*
X0431671Y0065695D02*
X0404445Y0065695D01*
X0405443Y0066693D02*
X0431671Y0066693D01*
X0431671Y0067692D02*
X0424442Y0067692D01*
X0425440Y0068690D02*
X0431671Y0068690D01*
X0431671Y0069689D02*
X0426439Y0069689D01*
X0426671Y0070687D02*
X0431671Y0070687D01*
X0431671Y0071686D02*
X0426671Y0071686D01*
X0426671Y0072684D02*
X0431671Y0072684D01*
X0431671Y0073683D02*
X0426671Y0073683D01*
X0426845Y0074682D02*
X0431671Y0074682D01*
X0431671Y0075680D02*
X0427475Y0075680D01*
X0427671Y0076679D02*
X0431500Y0076679D01*
X0430869Y0077677D02*
X0427534Y0077677D01*
X0426988Y0078676D02*
X0430671Y0078676D01*
X0430807Y0079674D02*
X0425451Y0079674D01*
X0423891Y0079674D02*
X0400451Y0079674D01*
X0399422Y0080673D02*
X0431351Y0080673D01*
X0431835Y0081671D02*
X0432884Y0081671D01*
X0434458Y0081671D02*
X0434922Y0081671D01*
X0437583Y0084667D02*
X0451785Y0084667D01*
X0452571Y0083668D02*
X0438582Y0083668D01*
X0439580Y0082670D02*
X0452571Y0082670D01*
X0452571Y0081671D02*
X0440579Y0081671D01*
X0441577Y0080673D02*
X0452571Y0080673D01*
X0452571Y0079674D02*
X0442576Y0079674D01*
X0443574Y0078676D02*
X0452571Y0078676D01*
X0452571Y0077677D02*
X0444573Y0077677D01*
X0445571Y0076679D02*
X0452571Y0076679D01*
X0452571Y0075680D02*
X0446570Y0075680D01*
X0447568Y0074682D02*
X0452571Y0074682D01*
X0452571Y0073683D02*
X0448567Y0073683D01*
X0449565Y0072684D02*
X0452571Y0072684D01*
X0452571Y0071686D02*
X0450564Y0071686D01*
X0449671Y0067750D02*
X0449671Y0063750D01*
X0449671Y0059750D01*
X0451458Y0056708D02*
X0457493Y0056708D01*
X0457493Y0057707D02*
X0453782Y0057707D01*
X0453871Y0058705D02*
X0457493Y0058705D01*
X0457493Y0059704D02*
X0453871Y0059704D01*
X0453871Y0060702D02*
X0457493Y0060702D01*
X0457493Y0061701D02*
X0454092Y0061701D01*
X0455091Y0062699D02*
X0457493Y0062699D01*
X0457493Y0063698D02*
X0456089Y0063698D01*
X0456771Y0064696D02*
X0457493Y0064696D01*
X0457493Y0065695D02*
X0456771Y0065695D01*
X0456771Y0066693D02*
X0457493Y0066693D01*
X0457493Y0067692D02*
X0456771Y0067692D01*
X0456771Y0068690D02*
X0457493Y0068690D01*
X0457493Y0069689D02*
X0456771Y0069689D01*
X0456771Y0070687D02*
X0457493Y0070687D01*
X0457493Y0071686D02*
X0456771Y0071686D01*
X0456771Y0072684D02*
X0457493Y0072684D01*
X0457493Y0073683D02*
X0456771Y0073683D01*
X0456771Y0074682D02*
X0457493Y0074682D01*
X0457493Y0075680D02*
X0456771Y0075680D01*
X0456771Y0076679D02*
X0457493Y0076679D01*
X0457493Y0077677D02*
X0456771Y0077677D01*
X0456771Y0078676D02*
X0457493Y0078676D01*
X0457493Y0079674D02*
X0456771Y0079674D01*
X0456771Y0080673D02*
X0457493Y0080673D01*
X0457493Y0081671D02*
X0456771Y0081671D01*
X0456771Y0082670D02*
X0457493Y0082670D01*
X0457493Y0083668D02*
X0456771Y0083668D01*
X0456771Y0084667D02*
X0457493Y0084667D01*
X0457493Y0085665D02*
X0456726Y0085665D01*
X0457493Y0086664D02*
X0455727Y0086664D01*
X0454729Y0087662D02*
X0457493Y0087662D01*
X0457493Y0088661D02*
X0453730Y0088661D01*
X0452732Y0089659D02*
X0457493Y0089659D01*
X0457493Y0090658D02*
X0451733Y0090658D01*
X0450735Y0091656D02*
X0457493Y0091656D01*
X0457493Y0092655D02*
X0449736Y0092655D01*
X0448738Y0093653D02*
X0457493Y0093653D01*
X0457493Y0094652D02*
X0447739Y0094652D01*
X0446741Y0095650D02*
X0457493Y0095650D01*
X0457493Y0096649D02*
X0445742Y0096649D01*
X0444744Y0097647D02*
X0457493Y0097647D01*
X0457493Y0098646D02*
X0443745Y0098646D01*
X0435520Y0099644D02*
X0457493Y0099644D01*
X0457493Y0100643D02*
X0433248Y0100643D01*
X0420023Y0101641D02*
X0457493Y0101641D01*
X0457493Y0102640D02*
X0396021Y0102640D01*
X0396021Y0103638D02*
X0457493Y0103638D01*
X0457493Y0108631D02*
X0251771Y0108631D01*
X0251771Y0107632D02*
X0376811Y0107632D01*
X0375997Y0106634D02*
X0251771Y0106634D01*
X0251771Y0105635D02*
X0375671Y0105635D01*
X0375088Y0104637D02*
X0251771Y0104637D01*
X0251771Y0103638D02*
X0374090Y0103638D01*
X0373091Y0102640D02*
X0251771Y0102640D01*
X0251771Y0101641D02*
X0372093Y0101641D01*
X0371094Y0100643D02*
X0251771Y0100643D01*
X0251771Y0099644D02*
X0370096Y0099644D01*
X0369097Y0098646D02*
X0251771Y0098646D01*
X0251771Y0097647D02*
X0365326Y0097647D01*
X0364504Y0096649D02*
X0251771Y0096649D01*
X0251771Y0095650D02*
X0364171Y0095650D01*
X0364172Y0094652D02*
X0251771Y0094652D01*
X0251771Y0093653D02*
X0364586Y0093653D01*
X0365597Y0092655D02*
X0251771Y0092655D01*
X0245571Y0092655D02*
X0237815Y0092655D01*
X0236817Y0093653D02*
X0245571Y0093653D01*
X0245571Y0094652D02*
X0235818Y0094652D01*
X0234820Y0095650D02*
X0245571Y0095650D01*
X0245571Y0096649D02*
X0233821Y0096649D01*
X0232823Y0097647D02*
X0245571Y0097647D01*
X0245571Y0098646D02*
X0231824Y0098646D01*
X0229878Y0094652D02*
X0223317Y0094652D01*
X0220183Y0094652D02*
X0194622Y0094652D01*
X0195620Y0095650D02*
X0219165Y0095650D01*
X0218752Y0096649D02*
X0207809Y0096649D01*
X0204691Y0096649D02*
X0196619Y0096649D01*
X0193674Y0099644D02*
X0184100Y0099644D01*
X0184100Y0098646D02*
X0192676Y0098646D01*
X0191677Y0097647D02*
X0183619Y0097647D01*
X0183521Y0097550D02*
X0183800Y0097829D01*
X0183998Y0098171D01*
X0184100Y0098553D01*
X0184100Y0101125D01*
X0181475Y0101125D01*
X0181475Y0101375D01*
X0181225Y0101375D01*
X0181225Y0105250D01*
X0180304Y0105250D01*
X0180104Y0105450D01*
X0176196Y0105450D01*
X0175200Y0104454D01*
X0175200Y0103350D01*
X0174893Y0103350D01*
X0174449Y0103793D01*
X0173347Y0104250D01*
X0172153Y0104250D01*
X0171051Y0103793D01*
X0170207Y0102949D01*
X0169750Y0101847D01*
X0169750Y0100653D01*
X0170207Y0099551D01*
X0171051Y0098707D01*
X0172153Y0098250D01*
X0173347Y0098250D01*
X0174449Y0098707D01*
X0174893Y0099150D01*
X0175200Y0099150D01*
X0175200Y0098046D01*
X0176196Y0097050D01*
X0180104Y0097050D01*
X0180304Y0097250D01*
X0181225Y0097250D01*
X0181225Y0101125D01*
X0181475Y0101125D01*
X0181475Y0097250D01*
X0182797Y0097250D01*
X0183179Y0097352D01*
X0183521Y0097550D01*
X0181475Y0097647D02*
X0181225Y0097647D01*
X0181225Y0098646D02*
X0181475Y0098646D01*
X0181475Y0099644D02*
X0181225Y0099644D01*
X0181225Y0100643D02*
X0181475Y0100643D01*
X0181475Y0101375D02*
X0184100Y0101375D01*
X0184100Y0103947D01*
X0183998Y0104329D01*
X0183800Y0104671D01*
X0183521Y0104950D01*
X0183179Y0105148D01*
X0182797Y0105250D01*
X0181475Y0105250D01*
X0181475Y0101375D01*
X0181475Y0101641D02*
X0181225Y0101641D01*
X0181225Y0102640D02*
X0181475Y0102640D01*
X0181475Y0103638D02*
X0181225Y0103638D01*
X0181225Y0104637D02*
X0181475Y0104637D01*
X0183820Y0104637D02*
X0245571Y0104637D01*
X0245571Y0105635D02*
X0169750Y0105635D01*
X0169743Y0104637D02*
X0175383Y0104637D01*
X0175200Y0103638D02*
X0174604Y0103638D01*
X0170896Y0103638D02*
X0169330Y0103638D01*
X0170079Y0102640D02*
X0168288Y0102640D01*
X0169750Y0101641D02*
X0166111Y0101641D01*
X0165113Y0100643D02*
X0169754Y0100643D01*
X0170168Y0099644D02*
X0164114Y0099644D01*
X0163116Y0098646D02*
X0171198Y0098646D01*
X0174302Y0098646D02*
X0175200Y0098646D01*
X0175599Y0097647D02*
X0162117Y0097647D01*
X0161119Y0096649D02*
X0190679Y0096649D01*
X0189680Y0095650D02*
X0160120Y0095650D01*
X0159122Y0094652D02*
X0188682Y0094652D01*
X0191626Y0091656D02*
X0232874Y0091656D01*
X0233872Y0090658D02*
X0192297Y0090658D01*
X0192783Y0089659D02*
X0234871Y0089659D01*
X0235869Y0088661D02*
X0192900Y0088661D01*
X0192709Y0087662D02*
X0236868Y0087662D01*
X0237866Y0086664D02*
X0218555Y0086664D01*
X0216945Y0086664D02*
X0192118Y0086664D01*
X0191750Y0085665D02*
X0215423Y0085665D01*
X0214883Y0084667D02*
X0191495Y0084667D01*
X0190497Y0083668D02*
X0214750Y0083668D01*
X0214950Y0082670D02*
X0189498Y0082670D01*
X0188500Y0081671D02*
X0215586Y0081671D01*
X0213530Y0079674D02*
X0218886Y0079674D01*
X0218750Y0078676D02*
X0215067Y0078676D01*
X0215613Y0077677D02*
X0218947Y0077677D01*
X0219579Y0076679D02*
X0215750Y0076679D01*
X0215554Y0075680D02*
X0219750Y0075680D01*
X0219750Y0074682D02*
X0214924Y0074682D01*
X0214750Y0073683D02*
X0219750Y0073683D01*
X0219750Y0072684D02*
X0214750Y0072684D01*
X0214750Y0071686D02*
X0219750Y0071686D01*
X0219750Y0070687D02*
X0214750Y0070687D01*
X0214517Y0069689D02*
X0219750Y0069689D01*
X0219750Y0068690D02*
X0213519Y0068690D01*
X0212520Y0067692D02*
X0219750Y0067692D01*
X0219750Y0066693D02*
X0193522Y0066693D01*
X0192523Y0065695D02*
X0219750Y0065695D01*
X0219750Y0064696D02*
X0191525Y0064696D01*
X0190526Y0063698D02*
X0219750Y0063698D01*
X0219972Y0062699D02*
X0189528Y0062699D01*
X0188529Y0061701D02*
X0220971Y0061701D01*
X0221969Y0060702D02*
X0187531Y0060702D01*
X0186532Y0059704D02*
X0222968Y0059704D01*
X0223966Y0058705D02*
X0185534Y0058705D01*
X0184535Y0057707D02*
X0224965Y0057707D01*
X0225963Y0056708D02*
X0183537Y0056708D01*
X0175750Y0052922D02*
X0175750Y0038766D01*
X0174691Y0038328D01*
X0173172Y0036809D01*
X0172750Y0035790D01*
X0172328Y0036809D01*
X0170809Y0038328D01*
X0169750Y0038766D01*
X0169750Y0046922D01*
X0175750Y0052922D01*
X0175750Y0052714D02*
X0175543Y0052714D01*
X0175750Y0051716D02*
X0174544Y0051716D01*
X0173546Y0050717D02*
X0175750Y0050717D01*
X0175750Y0049719D02*
X0172547Y0049719D01*
X0171549Y0048720D02*
X0175750Y0048720D01*
X0175750Y0047722D02*
X0170550Y0047722D01*
X0169750Y0046723D02*
X0175750Y0046723D01*
X0175750Y0045725D02*
X0169750Y0045725D01*
X0169750Y0044726D02*
X0175750Y0044726D01*
X0175750Y0043728D02*
X0169750Y0043728D01*
X0169750Y0042729D02*
X0175750Y0042729D01*
X0175750Y0041731D02*
X0169750Y0041731D01*
X0169750Y0040732D02*
X0175750Y0040732D01*
X0175750Y0039734D02*
X0169750Y0039734D01*
X0169826Y0038735D02*
X0175674Y0038735D01*
X0174100Y0037737D02*
X0171400Y0037737D01*
X0172357Y0036738D02*
X0173143Y0036738D01*
X0179826Y0038735D02*
X0180750Y0038735D01*
X0180750Y0039734D02*
X0179750Y0039734D01*
X0179750Y0040732D02*
X0180750Y0040732D01*
X0180750Y0041731D02*
X0179750Y0041731D01*
X0179750Y0042729D02*
X0180750Y0042729D01*
X0180530Y0043728D02*
X0179750Y0043728D01*
X0179750Y0044726D02*
X0179927Y0044726D01*
X0179750Y0045725D02*
X0179750Y0045725D01*
X0179750Y0046723D02*
X0179906Y0046723D01*
X0179750Y0047722D02*
X0180479Y0047722D01*
X0185021Y0047722D02*
X0234916Y0047722D01*
X0232628Y0046723D02*
X0185594Y0046723D01*
X0185750Y0045725D02*
X0231438Y0045725D01*
X0230346Y0044726D02*
X0185573Y0044726D01*
X0184970Y0043728D02*
X0229770Y0043728D01*
X0229193Y0042729D02*
X0184750Y0042729D01*
X0184750Y0041731D02*
X0228731Y0041731D01*
X0228555Y0040732D02*
X0184750Y0040732D01*
X0184750Y0039734D02*
X0228378Y0039734D01*
X0228208Y0038735D02*
X0189826Y0038735D01*
X0191400Y0037737D02*
X0228384Y0037737D01*
X0228560Y0036738D02*
X0192357Y0036738D01*
X0192771Y0035740D02*
X0228736Y0035740D01*
X0229210Y0034741D02*
X0193150Y0034741D01*
X0193150Y0033743D02*
X0229787Y0033743D01*
X0230363Y0032744D02*
X0193150Y0032744D01*
X0192765Y0031746D02*
X0231474Y0031746D01*
X0251771Y0031746D02*
X0354857Y0031746D01*
X0354566Y0032744D02*
X0251771Y0032744D01*
X0245571Y0057707D02*
X0241861Y0057707D01*
X0241950Y0058705D02*
X0245571Y0058705D01*
X0245571Y0059704D02*
X0241950Y0059704D01*
X0241950Y0060702D02*
X0245571Y0060702D01*
X0245571Y0061701D02*
X0242171Y0061701D01*
X0243169Y0062699D02*
X0245571Y0062699D01*
X0245571Y0063698D02*
X0244168Y0063698D01*
X0244850Y0064696D02*
X0245571Y0064696D01*
X0245571Y0065695D02*
X0244850Y0065695D01*
X0244850Y0066693D02*
X0245571Y0066693D01*
X0245571Y0067692D02*
X0244850Y0067692D01*
X0244850Y0068690D02*
X0245571Y0068690D01*
X0245571Y0069689D02*
X0244850Y0069689D01*
X0244850Y0070687D02*
X0245571Y0070687D01*
X0245571Y0071686D02*
X0244850Y0071686D01*
X0244850Y0072684D02*
X0245571Y0072684D01*
X0245571Y0073683D02*
X0244850Y0073683D01*
X0244850Y0074682D02*
X0245571Y0074682D01*
X0245571Y0075680D02*
X0244850Y0075680D01*
X0244850Y0076679D02*
X0245571Y0076679D01*
X0245571Y0077677D02*
X0244850Y0077677D01*
X0244850Y0078676D02*
X0245571Y0078676D01*
X0245571Y0079674D02*
X0244850Y0079674D01*
X0244850Y0080673D02*
X0245571Y0080673D01*
X0245571Y0081671D02*
X0244850Y0081671D01*
X0244850Y0082670D02*
X0245571Y0082670D01*
X0245571Y0083668D02*
X0244850Y0083668D01*
X0244850Y0084667D02*
X0245571Y0084667D01*
X0245571Y0085665D02*
X0244805Y0085665D01*
X0245571Y0086664D02*
X0243806Y0086664D01*
X0242808Y0087662D02*
X0245571Y0087662D01*
X0245571Y0088661D02*
X0241809Y0088661D01*
X0240811Y0089659D02*
X0245571Y0089659D01*
X0245571Y0090658D02*
X0239812Y0090658D01*
X0238814Y0091656D02*
X0245571Y0091656D01*
X0245571Y0099644D02*
X0223598Y0099644D01*
X0221327Y0100643D02*
X0245571Y0100643D01*
X0245571Y0101641D02*
X0208101Y0101641D01*
X0204399Y0101641D02*
X0184100Y0101641D01*
X0184100Y0100643D02*
X0194673Y0100643D01*
X0193623Y0093653D02*
X0230877Y0093653D01*
X0231875Y0092655D02*
X0192625Y0092655D01*
X0184100Y0102640D02*
X0245571Y0102640D01*
X0245571Y0103638D02*
X0184100Y0103638D01*
X0169424Y0106634D02*
X0245571Y0106634D01*
X0245571Y0107632D02*
X0168610Y0107632D01*
X0164890Y0107632D02*
X0039850Y0107632D01*
X0039850Y0106634D02*
X0164076Y0106634D01*
X0163750Y0105635D02*
X0039850Y0105635D01*
X0039850Y0104637D02*
X0163167Y0104637D01*
X0162169Y0103638D02*
X0039850Y0103638D01*
X0039850Y0102640D02*
X0161170Y0102640D01*
X0160171Y0101641D02*
X0039850Y0101641D01*
X0039850Y0100643D02*
X0159173Y0100643D01*
X0158174Y0099644D02*
X0039850Y0099644D01*
X0039850Y0098646D02*
X0157176Y0098646D01*
X0153405Y0097647D02*
X0039850Y0097647D01*
X0039850Y0096649D02*
X0152582Y0096649D01*
X0152250Y0095650D02*
X0039850Y0095650D01*
X0039850Y0094652D02*
X0152251Y0094652D01*
X0152664Y0093653D02*
X0039850Y0093653D01*
X0039850Y0092655D02*
X0153676Y0092655D01*
X0165077Y0085665D02*
X0165181Y0085665D01*
X0160586Y0081671D02*
X0160479Y0081671D01*
X0160650Y0080673D02*
X0159205Y0080673D01*
X0160628Y0075680D02*
X0160650Y0075680D01*
X0160650Y0071686D02*
X0160494Y0071686D01*
X0160650Y0070687D02*
X0159241Y0070687D01*
X0160650Y0069689D02*
X0154750Y0069689D01*
X0154750Y0070687D02*
X0156259Y0070687D01*
X0154750Y0068690D02*
X0160650Y0068690D01*
X0160838Y0067692D02*
X0154750Y0067692D01*
X0154750Y0066693D02*
X0155971Y0066693D01*
X0154887Y0065695D02*
X0154750Y0065695D01*
X0154750Y0061701D02*
X0154991Y0061701D01*
X0154031Y0060702D02*
X0156223Y0060702D01*
X0159277Y0060702D02*
X0163733Y0060702D01*
X0164731Y0061701D02*
X0160509Y0061701D01*
X0160995Y0062699D02*
X0164505Y0062699D01*
X0164350Y0063698D02*
X0161150Y0063698D01*
X0161038Y0064696D02*
X0163834Y0064696D01*
X0162835Y0065695D02*
X0160613Y0065695D01*
X0159529Y0066693D02*
X0161837Y0066693D01*
X0164850Y0071686D02*
X0165006Y0071686D01*
X0162734Y0059704D02*
X0153032Y0059704D01*
X0152034Y0058705D02*
X0161735Y0058705D01*
X0160737Y0057707D02*
X0151035Y0057707D01*
X0150250Y0056708D02*
X0159738Y0056708D01*
X0158740Y0055710D02*
X0150066Y0055710D01*
X0149454Y0054711D02*
X0157741Y0054711D01*
X0149372Y0061701D02*
X0145128Y0061701D01*
X0146126Y0060702D02*
X0148374Y0060702D01*
X0164964Y0047722D02*
X0165750Y0047722D01*
X0165750Y0044726D02*
X0090555Y0044726D01*
X0089556Y0043728D02*
X0165750Y0043728D01*
X0165750Y0042729D02*
X0088558Y0042729D01*
X0087559Y0041731D02*
X0165750Y0041731D01*
X0165750Y0040732D02*
X0086561Y0040732D01*
X0085562Y0039734D02*
X0165750Y0039734D01*
X0165674Y0038735D02*
X0159826Y0038735D01*
X0161400Y0037737D02*
X0164100Y0037737D01*
X0163143Y0036738D02*
X0162357Y0036738D01*
X0155674Y0038735D02*
X0149235Y0038735D01*
X0148250Y0038735D02*
X0147250Y0038735D01*
X0146265Y0038735D02*
X0084564Y0038735D01*
X0083565Y0037737D02*
X0144390Y0037737D01*
X0143493Y0036738D02*
X0082567Y0036738D01*
X0081568Y0035740D02*
X0142929Y0035740D01*
X0142642Y0034741D02*
X0080569Y0034741D01*
X0078396Y0045725D02*
X0066230Y0045725D01*
X0062270Y0045725D02*
X0056947Y0045725D01*
X0056771Y0046723D02*
X0079395Y0046723D01*
X0080393Y0047722D02*
X0056311Y0047722D01*
X0055735Y0048720D02*
X0081392Y0048720D01*
X0082390Y0049719D02*
X0055158Y0049719D01*
X0054071Y0050717D02*
X0083389Y0050717D01*
X0084387Y0051716D02*
X0052881Y0051716D01*
X0050605Y0052714D02*
X0085386Y0052714D01*
X0082545Y0053713D02*
X0047184Y0053713D01*
X0047517Y0054711D02*
X0081933Y0054711D01*
X0081750Y0055710D02*
X0047318Y0055710D01*
X0046399Y0056708D02*
X0081900Y0056708D01*
X0082464Y0057707D02*
X0047294Y0057707D01*
X0047493Y0058705D02*
X0084045Y0058705D01*
X0085875Y0059704D02*
X0047264Y0059704D01*
X0046860Y0060702D02*
X0086874Y0060702D01*
X0087872Y0061701D02*
X0047455Y0061701D01*
X0047455Y0062699D02*
X0088871Y0062699D01*
X0089869Y0063698D02*
X0047455Y0063698D01*
X0047455Y0064696D02*
X0090868Y0064696D01*
X0091866Y0065695D02*
X0046890Y0065695D01*
X0046405Y0066693D02*
X0092865Y0066693D01*
X0093864Y0067692D02*
X0047404Y0067692D01*
X0047455Y0068690D02*
X0094862Y0068690D01*
X0095861Y0069689D02*
X0047455Y0069689D01*
X0047455Y0070687D02*
X0096859Y0070687D01*
X0097858Y0071686D02*
X0047345Y0071686D01*
X0046346Y0072684D02*
X0098856Y0072684D01*
X0099855Y0073683D02*
X0045348Y0073683D01*
X0042110Y0073683D02*
X0040427Y0073683D01*
X0039850Y0074682D02*
X0100853Y0074682D01*
X0101852Y0075680D02*
X0039850Y0075680D01*
X0039850Y0076679D02*
X0102850Y0076679D01*
X0103849Y0077677D02*
X0039850Y0077677D01*
X0039850Y0078676D02*
X0104847Y0078676D01*
X0105846Y0079674D02*
X0039850Y0079674D01*
X0039850Y0080673D02*
X0106844Y0080673D01*
X0107843Y0081671D02*
X0039850Y0081671D01*
X0039850Y0082670D02*
X0108841Y0082670D01*
X0109840Y0083668D02*
X0039850Y0083668D01*
X0039850Y0084667D02*
X0110838Y0084667D01*
X0111837Y0085665D02*
X0039850Y0085665D01*
X0039850Y0086664D02*
X0112835Y0086664D01*
X0113834Y0087662D02*
X0039850Y0087662D01*
X0039850Y0088661D02*
X0114832Y0088661D01*
X0115831Y0089659D02*
X0039850Y0089659D01*
X0039850Y0090658D02*
X0116829Y0090658D01*
X0117828Y0091656D02*
X0039850Y0091656D01*
X0039850Y0108631D02*
X0245571Y0108631D01*
X0238865Y0085665D02*
X0224663Y0085665D01*
X0211970Y0079674D02*
X0188530Y0079674D01*
X0185674Y0038735D02*
X0185593Y0038735D01*
X0154100Y0037737D02*
X0151110Y0037737D01*
X0152007Y0036738D02*
X0153143Y0036738D01*
X0152729Y0035740D02*
X0152571Y0035740D01*
X0148250Y0035740D02*
X0147250Y0035740D01*
X0147250Y0036738D02*
X0148250Y0036738D01*
X0148250Y0037737D02*
X0147250Y0037737D01*
X0147250Y0034741D02*
X0148250Y0034741D01*
X0147250Y0033743D02*
X0068197Y0033743D01*
X0062313Y0040732D02*
X0056763Y0040732D01*
X0056939Y0041731D02*
X0061470Y0041731D01*
X0061100Y0042729D02*
X0057115Y0042729D01*
X0057291Y0043728D02*
X0061100Y0043728D01*
X0061452Y0044726D02*
X0057123Y0044726D01*
X0039850Y0032744D02*
X0142645Y0032744D01*
X0142935Y0031746D02*
X0039850Y0031746D01*
X0252348Y0073683D02*
X0254031Y0073683D01*
X0366671Y0070687D02*
X0368180Y0070687D01*
X0382118Y0081671D02*
X0387623Y0081671D01*
X0388621Y0082670D02*
X0382687Y0082670D01*
X0398424Y0079674D02*
X0398891Y0079674D01*
X0400421Y0081671D02*
X0427508Y0081671D01*
X0426872Y0082670D02*
X0401419Y0082670D01*
X0402500Y0083750D02*
X0402500Y0083750D01*
X0406594Y0100643D02*
X0396021Y0100643D01*
X0396021Y0101641D02*
X0416320Y0101641D01*
X0430476Y0086664D02*
X0449788Y0086664D01*
X0450786Y0085665D02*
X0436585Y0085665D01*
X0446837Y0047722D02*
X0396942Y0047722D01*
X0397515Y0046723D02*
X0444550Y0046723D01*
X0443360Y0045725D02*
X0397671Y0045725D01*
X0397494Y0044726D02*
X0442267Y0044726D01*
X0442359Y0044885D02*
X0442359Y0044885D01*
X0442359Y0044885D01*
X0441691Y0043728D02*
X0396892Y0043728D01*
X0396671Y0042729D02*
X0441114Y0042729D01*
X0440652Y0041731D02*
X0396671Y0041731D01*
X0396671Y0040732D02*
X0440476Y0040732D01*
X0440300Y0039734D02*
X0396671Y0039734D01*
X0397515Y0038735D02*
X0397596Y0038735D01*
X0401747Y0038735D02*
X0440129Y0038735D01*
X0440126Y0038750D02*
X0440126Y0038750D01*
X0440305Y0037737D02*
X0403321Y0037737D01*
X0404279Y0036738D02*
X0440481Y0036738D01*
X0440657Y0035740D02*
X0404692Y0035740D01*
X0405071Y0034741D02*
X0441132Y0034741D01*
X0440702Y0035485D02*
X0440702Y0035485D01*
X0441708Y0033743D02*
X0405071Y0033743D01*
X0405071Y0032744D02*
X0442285Y0032744D01*
X0443395Y0031746D02*
X0404686Y0031746D01*
X0392671Y0038735D02*
X0391747Y0038735D01*
X0391671Y0039734D02*
X0392671Y0039734D01*
X0392671Y0040732D02*
X0391671Y0040732D01*
X0391671Y0041731D02*
X0392671Y0041731D01*
X0392671Y0042729D02*
X0391671Y0042729D01*
X0391671Y0043728D02*
X0392451Y0043728D01*
X0391848Y0044726D02*
X0391671Y0044726D01*
X0391671Y0045725D02*
X0391671Y0045725D01*
X0391671Y0046723D02*
X0391827Y0046723D01*
X0391671Y0047722D02*
X0392400Y0047722D01*
X0404315Y0191551D02*
X0405071Y0193377D01*
X0405071Y0195525D01*
X0404249Y0197510D01*
X0402730Y0199029D01*
X0400745Y0199851D01*
X0398597Y0199851D01*
X0397538Y0199412D01*
X0396671Y0200279D01*
X0396671Y0204208D01*
X0397215Y0204751D01*
X0397671Y0205854D01*
X0397671Y0207048D01*
X0397215Y0208150D01*
X0396371Y0208994D01*
X0395268Y0209451D01*
X0394075Y0209451D01*
X0392972Y0208994D01*
X0392128Y0208150D01*
X0391671Y0207048D01*
X0391671Y0205854D01*
X0392128Y0204751D01*
X0392671Y0204208D01*
X0392671Y0199053D01*
X0391671Y0199467D01*
X0391671Y0213622D01*
X0405500Y0227451D01*
X0423500Y0227451D01*
X0425500Y0229451D01*
X0426671Y0230622D01*
X0426671Y0235208D01*
X0427215Y0235751D01*
X0427671Y0236854D01*
X0427671Y0238048D01*
X0427215Y0239150D01*
X0426371Y0239994D01*
X0425268Y0240451D01*
X0424075Y0240451D01*
X0422972Y0239994D01*
X0422429Y0239451D01*
X0401914Y0239451D01*
X0401371Y0239994D01*
X0400268Y0240451D01*
X0399075Y0240451D01*
X0398093Y0240044D01*
X0402500Y0244451D01*
X0403671Y0245622D01*
X0403671Y0246996D01*
X0404342Y0247666D01*
X0404821Y0248824D01*
X0404821Y0250077D01*
X0404342Y0251235D01*
X0403456Y0252121D01*
X0403354Y0252163D01*
X0409041Y0257851D01*
X0416029Y0257851D01*
X0416472Y0257408D01*
X0417575Y0256951D01*
X0418768Y0256951D01*
X0419871Y0257408D01*
X0420314Y0257851D01*
X0430671Y0257851D01*
X0430671Y0257354D01*
X0431128Y0256251D01*
X0431972Y0255408D01*
X0433075Y0254951D01*
X0434268Y0254951D01*
X0435371Y0255408D01*
X0435814Y0255851D01*
X0441301Y0255851D01*
X0452571Y0244581D01*
X0452571Y0231401D01*
X0451550Y0231401D01*
X0450500Y0232451D01*
X0436500Y0246451D01*
X0431914Y0246451D01*
X0431371Y0246994D01*
X0430268Y0247451D01*
X0429075Y0247451D01*
X0427972Y0246994D01*
X0427128Y0246150D01*
X0426671Y0245048D01*
X0426671Y0243854D01*
X0427128Y0242751D01*
X0427972Y0241908D01*
X0429075Y0241451D01*
X0430268Y0241451D01*
X0431371Y0241908D01*
X0431914Y0242451D01*
X0434843Y0242451D01*
X0435249Y0242044D01*
X0434268Y0242451D01*
X0433075Y0242451D01*
X0431972Y0241994D01*
X0431128Y0241150D01*
X0430671Y0240048D01*
X0430671Y0238854D01*
X0431128Y0237751D01*
X0431671Y0237208D01*
X0431671Y0223622D01*
X0438843Y0216451D01*
X0450500Y0216451D01*
X0451550Y0217501D01*
X0452875Y0217501D01*
X0453871Y0218497D01*
X0453871Y0222351D01*
X0454041Y0222351D01*
X0455271Y0223581D01*
X0456771Y0225081D01*
X0456771Y0246321D01*
X0455541Y0247551D01*
X0443041Y0260051D01*
X0435814Y0260051D01*
X0435371Y0260494D01*
X0434268Y0260951D01*
X0433641Y0260951D01*
X0432541Y0262051D01*
X0420314Y0262051D01*
X0419871Y0262494D01*
X0418768Y0262951D01*
X0417575Y0262951D01*
X0416472Y0262494D01*
X0416029Y0262051D01*
X0407301Y0262051D01*
X0394865Y0249614D01*
X0395171Y0250354D01*
X0395171Y0251548D01*
X0394715Y0252650D01*
X0393871Y0253494D01*
X0392768Y0253951D01*
X0391575Y0253951D01*
X0390472Y0253494D01*
X0389929Y0252951D01*
X0330343Y0252951D01*
X0329171Y0251779D01*
X0296843Y0219451D01*
X0296075Y0219451D01*
X0294972Y0218994D01*
X0294128Y0218150D01*
X0293671Y0217048D01*
X0293671Y0215854D01*
X0294128Y0214751D01*
X0294972Y0213908D01*
X0296075Y0213451D01*
X0297268Y0213451D01*
X0297396Y0213504D01*
X0289843Y0205951D01*
X0278626Y0205951D01*
X0277956Y0206621D01*
X0276798Y0207101D01*
X0275545Y0207101D01*
X0274387Y0206621D01*
X0273501Y0205735D01*
X0273021Y0204577D01*
X0273021Y0203324D01*
X0273501Y0202166D01*
X0274387Y0201280D01*
X0275545Y0200801D01*
X0276798Y0200801D01*
X0277956Y0201280D01*
X0278626Y0201951D01*
X0291500Y0201951D01*
X0332850Y0243301D01*
X0333320Y0243301D01*
X0332887Y0243121D01*
X0332001Y0242235D01*
X0331521Y0241077D01*
X0331521Y0240129D01*
X0290343Y0198951D01*
X0280626Y0198951D01*
X0279956Y0199621D01*
X0278798Y0200101D01*
X0277545Y0200101D01*
X0276387Y0199621D01*
X0275501Y0198735D01*
X0275021Y0197577D01*
X0275021Y0196324D01*
X0275501Y0195166D01*
X0276387Y0194280D01*
X0277545Y0193801D01*
X0278798Y0193801D01*
X0279956Y0194280D01*
X0280626Y0194951D01*
X0292000Y0194951D01*
X0334350Y0237301D01*
X0335298Y0237301D01*
X0336456Y0237780D01*
X0337342Y0238666D01*
X0337821Y0239824D01*
X0337821Y0241077D01*
X0337342Y0242235D01*
X0336456Y0243121D01*
X0335298Y0243601D01*
X0334522Y0243601D01*
X0334956Y0243780D01*
X0335842Y0244666D01*
X0336321Y0245824D01*
X0336321Y0247077D01*
X0335842Y0248235D01*
X0335126Y0248951D01*
X0389929Y0248951D01*
X0390472Y0248408D01*
X0391575Y0247951D01*
X0392768Y0247951D01*
X0393508Y0248257D01*
X0386801Y0241551D01*
X0381032Y0241551D01*
X0381187Y0241615D01*
X0381711Y0241965D01*
X0382157Y0242411D01*
X0382507Y0242935D01*
X0382748Y0243517D01*
X0382871Y0244136D01*
X0382871Y0244451D01*
X0382871Y0244766D01*
X0382748Y0245384D01*
X0382507Y0245967D01*
X0382157Y0246491D01*
X0381711Y0246936D01*
X0381187Y0247287D01*
X0380605Y0247528D01*
X0379986Y0247651D01*
X0379671Y0247651D01*
X0379356Y0247651D01*
X0378738Y0247528D01*
X0378156Y0247287D01*
X0377631Y0246936D01*
X0377186Y0246491D01*
X0377061Y0246304D01*
X0376371Y0246994D01*
X0375268Y0247451D01*
X0374075Y0247451D01*
X0372972Y0246994D01*
X0372454Y0246476D01*
X0371597Y0247333D01*
X0370348Y0247851D01*
X0368995Y0247851D01*
X0367745Y0247333D01*
X0366789Y0246377D01*
X0366271Y0245127D01*
X0366271Y0243774D01*
X0366789Y0242525D01*
X0367745Y0241568D01*
X0368995Y0241051D01*
X0370348Y0241051D01*
X0371597Y0241568D01*
X0372454Y0242425D01*
X0372571Y0242308D01*
X0372571Y0236334D01*
X0372554Y0236377D01*
X0371597Y0237333D01*
X0370348Y0237851D01*
X0368995Y0237851D01*
X0367745Y0237333D01*
X0366863Y0236451D01*
X0365843Y0236451D01*
X0363843Y0234451D01*
X0362671Y0233279D01*
X0362671Y0223779D01*
X0359343Y0220451D01*
X0359000Y0220451D01*
X0357000Y0222451D01*
X0336914Y0222451D01*
X0336371Y0222994D01*
X0335268Y0223451D01*
X0334075Y0223451D01*
X0332972Y0222994D01*
X0332128Y0222150D01*
X0331671Y0221048D01*
X0331671Y0219854D01*
X0332128Y0218751D01*
X0332972Y0217908D01*
X0334075Y0217451D01*
X0335268Y0217451D01*
X0336371Y0217908D01*
X0336914Y0218451D01*
X0355343Y0218451D01*
X0356171Y0217622D01*
X0356171Y0216854D01*
X0356628Y0215751D01*
X0357472Y0214908D01*
X0358575Y0214451D01*
X0359768Y0214451D01*
X0360871Y0214908D01*
X0361715Y0215751D01*
X0362171Y0216854D01*
X0362171Y0217622D01*
X0366671Y0222122D01*
X0366671Y0222809D01*
X0366789Y0222525D01*
X0367745Y0221568D01*
X0368995Y0221051D01*
X0370348Y0221051D01*
X0371597Y0221568D01*
X0372554Y0222525D01*
X0373071Y0223774D01*
X0373071Y0225127D01*
X0372554Y0226377D01*
X0371597Y0227333D01*
X0370348Y0227851D01*
X0368995Y0227851D01*
X0367745Y0227333D01*
X0366789Y0226377D01*
X0366671Y0226093D01*
X0366671Y0231622D01*
X0367181Y0232132D01*
X0367745Y0231568D01*
X0368995Y0231051D01*
X0370348Y0231051D01*
X0371597Y0231568D01*
X0372554Y0232525D01*
X0372571Y0232567D01*
X0372571Y0228581D01*
X0376271Y0224881D01*
X0376271Y0223774D01*
X0376785Y0222534D01*
X0366701Y0212451D01*
X0366075Y0212451D01*
X0364972Y0211994D01*
X0364128Y0211150D01*
X0363671Y0210048D01*
X0363671Y0208854D01*
X0364128Y0207751D01*
X0364972Y0206908D01*
X0366075Y0206451D01*
X0367268Y0206451D01*
X0368371Y0206908D01*
X0369215Y0207751D01*
X0369671Y0208854D01*
X0369671Y0209481D01*
X0371978Y0211787D01*
X0371671Y0211048D01*
X0371671Y0209854D01*
X0372128Y0208751D01*
X0372972Y0207908D01*
X0374075Y0207451D01*
X0375268Y0207451D01*
X0376371Y0207908D01*
X0376914Y0208451D01*
X0377671Y0208451D01*
X0377671Y0199467D01*
X0376612Y0199029D01*
X0375093Y0197510D01*
X0374671Y0196491D01*
X0374249Y0197510D01*
X0372730Y0199029D01*
X0370745Y0199851D01*
X0368597Y0199851D01*
X0366612Y0199029D01*
X0365093Y0197510D01*
X0364562Y0196227D01*
X0364490Y0196447D01*
X0364119Y0197176D01*
X0363638Y0197838D01*
X0363059Y0198417D01*
X0362397Y0198898D01*
X0361667Y0199270D01*
X0360889Y0199523D01*
X0360171Y0199636D01*
X0360171Y0194951D01*
X0359171Y0194951D01*
X0359171Y0193951D01*
X0354486Y0193951D01*
X0354599Y0193233D01*
X0354852Y0192455D01*
X0355224Y0191725D01*
X0355351Y0191551D01*
X0251771Y0191551D01*
X0251771Y0199334D01*
X0252359Y0198315D01*
X0254899Y0196185D01*
X0258014Y0195051D01*
X0261329Y0195051D01*
X0264444Y0196185D01*
X0266983Y0198315D01*
X0266983Y0198315D01*
X0266983Y0198315D01*
X0268641Y0201186D01*
X0268641Y0201186D01*
X0269216Y0204451D01*
X0268641Y0207715D01*
X0268641Y0207715D01*
X0266983Y0210586D01*
X0266983Y0210586D01*
X0264444Y0212717D01*
X0264444Y0212717D01*
X0261329Y0213851D01*
X0258730Y0213851D01*
X0259515Y0215028D01*
X0259150Y0216856D01*
X0258230Y0217469D01*
X0259150Y0218082D01*
X0259515Y0219910D01*
X0258624Y0221247D01*
X0259376Y0221998D01*
X0259376Y0225831D01*
X0258598Y0226609D01*
X0258070Y0227137D01*
X0258598Y0227665D01*
X0259376Y0228444D01*
X0259376Y0232276D01*
X0258620Y0233033D01*
X0258058Y0233594D01*
X0257830Y0233822D01*
X0257074Y0234578D01*
X0254226Y0234578D01*
X0253190Y0233542D01*
X0252153Y0234578D01*
X0251771Y0234578D01*
X0251771Y0269451D01*
X0457493Y0269451D01*
X0457493Y0204704D01*
X0456983Y0205586D01*
X0456983Y0205586D01*
X0454444Y0207717D01*
X0454444Y0207717D01*
X0451329Y0208851D01*
X0448014Y0208851D01*
X0444899Y0207717D01*
X0444899Y0207717D01*
X0442359Y0205586D01*
X0440702Y0202715D01*
X0440126Y0199451D01*
X0440702Y0196186D01*
X0442359Y0193315D01*
X0444462Y0191551D01*
X0404315Y0191551D01*
X0404711Y0192506D02*
X0443324Y0192506D01*
X0442359Y0193315D02*
X0442359Y0193315D01*
X0442250Y0193504D02*
X0405071Y0193504D01*
X0405071Y0194503D02*
X0441674Y0194503D01*
X0441097Y0195501D02*
X0405071Y0195501D01*
X0404667Y0196500D02*
X0440647Y0196500D01*
X0440471Y0197498D02*
X0404254Y0197498D01*
X0403262Y0198497D02*
X0440294Y0198497D01*
X0440134Y0199495D02*
X0401603Y0199495D01*
X0397739Y0199495D02*
X0397455Y0199495D01*
X0396671Y0200494D02*
X0440310Y0200494D01*
X0440486Y0201492D02*
X0396671Y0201492D01*
X0396671Y0202491D02*
X0440662Y0202491D01*
X0441149Y0203489D02*
X0396671Y0203489D01*
X0396951Y0204488D02*
X0441725Y0204488D01*
X0442302Y0205487D02*
X0397519Y0205487D01*
X0397671Y0206485D02*
X0443431Y0206485D01*
X0442359Y0205586D02*
X0442359Y0205586D01*
X0442359Y0205586D01*
X0444621Y0207484D02*
X0397491Y0207484D01*
X0396883Y0208482D02*
X0447001Y0208482D01*
X0452342Y0208482D02*
X0457493Y0208482D01*
X0457493Y0207484D02*
X0454722Y0207484D01*
X0455912Y0206485D02*
X0457493Y0206485D01*
X0457493Y0205487D02*
X0457041Y0205487D01*
X0457493Y0209481D02*
X0391671Y0209481D01*
X0391671Y0210479D02*
X0457493Y0210479D01*
X0457493Y0211478D02*
X0391671Y0211478D01*
X0391671Y0212476D02*
X0457493Y0212476D01*
X0457493Y0213475D02*
X0391671Y0213475D01*
X0392522Y0214473D02*
X0457493Y0214473D01*
X0457493Y0215472D02*
X0393521Y0215472D01*
X0394519Y0216470D02*
X0438824Y0216470D01*
X0437825Y0217469D02*
X0395518Y0217469D01*
X0396516Y0218467D02*
X0436827Y0218467D01*
X0435828Y0219466D02*
X0397515Y0219466D01*
X0398513Y0220464D02*
X0434829Y0220464D01*
X0433831Y0221463D02*
X0399512Y0221463D01*
X0400510Y0222461D02*
X0432832Y0222461D01*
X0431834Y0223460D02*
X0401509Y0223460D01*
X0402507Y0224458D02*
X0431671Y0224458D01*
X0431671Y0225457D02*
X0403506Y0225457D01*
X0404504Y0226455D02*
X0431671Y0226455D01*
X0431671Y0227454D02*
X0423503Y0227454D01*
X0424501Y0228452D02*
X0431671Y0228452D01*
X0431671Y0229451D02*
X0425500Y0229451D01*
X0426498Y0230449D02*
X0431671Y0230449D01*
X0431671Y0231448D02*
X0426671Y0231448D01*
X0426671Y0232446D02*
X0431671Y0232446D01*
X0431671Y0233445D02*
X0426671Y0233445D01*
X0426671Y0234443D02*
X0431671Y0234443D01*
X0431671Y0235442D02*
X0426905Y0235442D01*
X0427500Y0236440D02*
X0431671Y0236440D01*
X0431441Y0237439D02*
X0427671Y0237439D01*
X0427510Y0238437D02*
X0430844Y0238437D01*
X0430671Y0239436D02*
X0426929Y0239436D01*
X0425308Y0240434D02*
X0430832Y0240434D01*
X0431411Y0241433D02*
X0399482Y0241433D01*
X0399035Y0240434D02*
X0398483Y0240434D01*
X0400308Y0240434D02*
X0424035Y0240434D01*
X0427448Y0242431D02*
X0400480Y0242431D01*
X0401479Y0243430D02*
X0426847Y0243430D01*
X0426671Y0244428D02*
X0402477Y0244428D01*
X0403476Y0245427D02*
X0426828Y0245427D01*
X0427403Y0246425D02*
X0403671Y0246425D01*
X0404099Y0247424D02*
X0429010Y0247424D01*
X0430333Y0247424D02*
X0449728Y0247424D01*
X0448730Y0248422D02*
X0404655Y0248422D01*
X0404821Y0249421D02*
X0447731Y0249421D01*
X0446733Y0250420D02*
X0404680Y0250420D01*
X0404159Y0251418D02*
X0445734Y0251418D01*
X0444736Y0252417D02*
X0403607Y0252417D01*
X0404605Y0253415D02*
X0443737Y0253415D01*
X0442739Y0254414D02*
X0405604Y0254414D01*
X0406602Y0255412D02*
X0431967Y0255412D01*
X0431062Y0256411D02*
X0407601Y0256411D01*
X0408599Y0257409D02*
X0416470Y0257409D01*
X0419872Y0257409D02*
X0430671Y0257409D01*
X0433189Y0261403D02*
X0457493Y0261403D01*
X0457493Y0260405D02*
X0435460Y0260405D01*
X0435375Y0255412D02*
X0441740Y0255412D01*
X0444684Y0258408D02*
X0457493Y0258408D01*
X0457493Y0259406D02*
X0443686Y0259406D01*
X0445683Y0257409D02*
X0457493Y0257409D01*
X0457493Y0256411D02*
X0446681Y0256411D01*
X0447680Y0255412D02*
X0457493Y0255412D01*
X0457493Y0254414D02*
X0448678Y0254414D01*
X0449677Y0253415D02*
X0457493Y0253415D01*
X0457493Y0252417D02*
X0450675Y0252417D01*
X0451674Y0251418D02*
X0457493Y0251418D01*
X0457493Y0250420D02*
X0452672Y0250420D01*
X0453671Y0249421D02*
X0457493Y0249421D01*
X0457493Y0248422D02*
X0454669Y0248422D01*
X0455668Y0247424D02*
X0457493Y0247424D01*
X0457493Y0246425D02*
X0456666Y0246425D01*
X0456771Y0245427D02*
X0457493Y0245427D01*
X0457493Y0244428D02*
X0456771Y0244428D01*
X0456771Y0243430D02*
X0457493Y0243430D01*
X0457493Y0242431D02*
X0456771Y0242431D01*
X0456771Y0241433D02*
X0457493Y0241433D01*
X0457493Y0240434D02*
X0456771Y0240434D01*
X0456771Y0239436D02*
X0457493Y0239436D01*
X0457493Y0238437D02*
X0456771Y0238437D01*
X0456771Y0237439D02*
X0457493Y0237439D01*
X0457493Y0236440D02*
X0456771Y0236440D01*
X0456771Y0235442D02*
X0457493Y0235442D01*
X0457493Y0234443D02*
X0456771Y0234443D01*
X0456771Y0233445D02*
X0457493Y0233445D01*
X0457493Y0232446D02*
X0456771Y0232446D01*
X0456771Y0231448D02*
X0457493Y0231448D01*
X0457493Y0230449D02*
X0456771Y0230449D01*
X0456771Y0229451D02*
X0457493Y0229451D01*
X0457493Y0228452D02*
X0456771Y0228452D01*
X0456771Y0227454D02*
X0457493Y0227454D01*
X0457493Y0226455D02*
X0456771Y0226455D01*
X0456771Y0225457D02*
X0457493Y0225457D01*
X0457493Y0224458D02*
X0456149Y0224458D01*
X0455150Y0223460D02*
X0457493Y0223460D01*
X0457493Y0222461D02*
X0454152Y0222461D01*
X0453871Y0221463D02*
X0457493Y0221463D01*
X0457493Y0220464D02*
X0453871Y0220464D01*
X0453871Y0219466D02*
X0457493Y0219466D01*
X0457493Y0218467D02*
X0453842Y0218467D01*
X0451518Y0217469D02*
X0457493Y0217469D01*
X0457493Y0216470D02*
X0450519Y0216470D01*
X0449671Y0220451D02*
X0449671Y0224451D01*
X0449671Y0228451D01*
X0451503Y0231448D02*
X0452571Y0231448D01*
X0452571Y0232446D02*
X0450504Y0232446D01*
X0449506Y0233445D02*
X0452571Y0233445D01*
X0452571Y0234443D02*
X0448507Y0234443D01*
X0447509Y0235442D02*
X0452571Y0235442D01*
X0452571Y0236440D02*
X0446510Y0236440D01*
X0445512Y0237439D02*
X0452571Y0237439D01*
X0452571Y0238437D02*
X0444513Y0238437D01*
X0443515Y0239436D02*
X0452571Y0239436D01*
X0452571Y0240434D02*
X0442516Y0240434D01*
X0441518Y0241433D02*
X0452571Y0241433D01*
X0452571Y0242431D02*
X0440519Y0242431D01*
X0439521Y0243430D02*
X0452571Y0243430D01*
X0452571Y0244428D02*
X0438522Y0244428D01*
X0437524Y0245427D02*
X0451725Y0245427D01*
X0450727Y0246425D02*
X0436525Y0246425D01*
X0434862Y0242431D02*
X0434315Y0242431D01*
X0433028Y0242431D02*
X0431895Y0242431D01*
X0419963Y0262402D02*
X0457493Y0262402D01*
X0457493Y0263400D02*
X0396021Y0263400D01*
X0396021Y0262402D02*
X0416380Y0262402D01*
X0406654Y0261403D02*
X0396021Y0261403D01*
X0396021Y0261826D02*
X0393396Y0261826D01*
X0393396Y0257951D01*
X0394719Y0257951D01*
X0395100Y0258053D01*
X0395442Y0258251D01*
X0395722Y0258530D01*
X0395919Y0258872D01*
X0396021Y0259253D01*
X0396021Y0261826D01*
X0396021Y0262076D02*
X0396021Y0264648D01*
X0395919Y0265030D01*
X0395722Y0265372D01*
X0395442Y0265651D01*
X0395100Y0265849D01*
X0394719Y0265951D01*
X0393396Y0265951D01*
X0393396Y0262076D01*
X0393146Y0262076D01*
X0393146Y0265951D01*
X0392225Y0265951D01*
X0392025Y0266151D01*
X0388117Y0266151D01*
X0387121Y0265155D01*
X0387121Y0264051D01*
X0386814Y0264051D01*
X0386371Y0264494D01*
X0385268Y0264951D01*
X0384075Y0264951D01*
X0382972Y0264494D01*
X0382128Y0263650D01*
X0381671Y0262548D01*
X0381671Y0261354D01*
X0382128Y0260251D01*
X0382972Y0259408D01*
X0384075Y0258951D01*
X0385268Y0258951D01*
X0386371Y0259408D01*
X0386814Y0259851D01*
X0387121Y0259851D01*
X0387121Y0258747D01*
X0388117Y0257751D01*
X0392025Y0257751D01*
X0392225Y0257951D01*
X0393146Y0257951D01*
X0393146Y0261826D01*
X0393396Y0261826D01*
X0393396Y0262076D01*
X0396021Y0262076D01*
X0396021Y0260405D02*
X0405655Y0260405D01*
X0404657Y0259406D02*
X0396021Y0259406D01*
X0395599Y0258408D02*
X0403658Y0258408D01*
X0402660Y0257409D02*
X0373099Y0257409D01*
X0372101Y0256411D02*
X0401661Y0256411D01*
X0400663Y0255412D02*
X0371102Y0255412D01*
X0370104Y0254414D02*
X0399664Y0254414D01*
X0398666Y0253415D02*
X0393950Y0253415D01*
X0394811Y0252417D02*
X0397667Y0252417D01*
X0396669Y0251418D02*
X0395171Y0251418D01*
X0395171Y0250420D02*
X0395670Y0250420D01*
X0398614Y0247424D02*
X0399243Y0247424D01*
X0399001Y0247666D02*
X0399530Y0247138D01*
X0393671Y0241279D01*
X0393671Y0229779D01*
X0376628Y0212736D01*
X0376371Y0212994D01*
X0375268Y0213451D01*
X0374075Y0213451D01*
X0373335Y0213144D01*
X0381771Y0221581D01*
X0381771Y0221742D01*
X0382554Y0222525D01*
X0383071Y0223774D01*
X0383071Y0225127D01*
X0382554Y0226377D01*
X0381597Y0227333D01*
X0380348Y0227851D01*
X0379241Y0227851D01*
X0376771Y0230321D01*
X0376771Y0232567D01*
X0376789Y0232525D01*
X0377745Y0231568D01*
X0378995Y0231051D01*
X0380348Y0231051D01*
X0381597Y0231568D01*
X0382554Y0232525D01*
X0383071Y0233774D01*
X0383071Y0235127D01*
X0382554Y0236377D01*
X0381597Y0237333D01*
X0381555Y0237351D01*
X0388541Y0237351D01*
X0389771Y0238581D01*
X0398959Y0247768D01*
X0399001Y0247666D01*
X0398818Y0246425D02*
X0397616Y0246425D01*
X0397819Y0245427D02*
X0396617Y0245427D01*
X0396821Y0244428D02*
X0395619Y0244428D01*
X0395822Y0243430D02*
X0394620Y0243430D01*
X0394824Y0242431D02*
X0393622Y0242431D01*
X0393825Y0241433D02*
X0392623Y0241433D01*
X0391625Y0240434D02*
X0393671Y0240434D01*
X0393671Y0239436D02*
X0390626Y0239436D01*
X0389628Y0238437D02*
X0393671Y0238437D01*
X0393671Y0237439D02*
X0388629Y0237439D01*
X0387682Y0242431D02*
X0382171Y0242431D01*
X0382712Y0243430D02*
X0388681Y0243430D01*
X0389679Y0244428D02*
X0382871Y0244428D01*
X0382871Y0244451D02*
X0379671Y0244451D01*
X0379671Y0247651D01*
X0379671Y0244451D01*
X0379671Y0244451D01*
X0382871Y0244451D01*
X0382731Y0245427D02*
X0390678Y0245427D01*
X0391676Y0246425D02*
X0382200Y0246425D01*
X0380855Y0247424D02*
X0392675Y0247424D01*
X0390457Y0248422D02*
X0335654Y0248422D01*
X0336178Y0247424D02*
X0367965Y0247424D01*
X0366838Y0246425D02*
X0336321Y0246425D01*
X0336157Y0245427D02*
X0366396Y0245427D01*
X0366271Y0244428D02*
X0335604Y0244428D01*
X0335710Y0243430D02*
X0366414Y0243430D01*
X0366882Y0242431D02*
X0337145Y0242431D01*
X0337674Y0241433D02*
X0368072Y0241433D01*
X0371270Y0241433D02*
X0372571Y0241433D01*
X0372571Y0240434D02*
X0337821Y0240434D01*
X0337660Y0239436D02*
X0372571Y0239436D01*
X0372571Y0238437D02*
X0337113Y0238437D01*
X0335631Y0237439D02*
X0368001Y0237439D01*
X0365832Y0236440D02*
X0333489Y0236440D01*
X0332491Y0235442D02*
X0364834Y0235442D01*
X0363835Y0234443D02*
X0331492Y0234443D01*
X0330494Y0233445D02*
X0362837Y0233445D01*
X0362671Y0232446D02*
X0329495Y0232446D01*
X0328497Y0231448D02*
X0362671Y0231448D01*
X0362671Y0230449D02*
X0327498Y0230449D01*
X0326500Y0229451D02*
X0362671Y0229451D01*
X0362671Y0228452D02*
X0325501Y0228452D01*
X0324503Y0227454D02*
X0362671Y0227454D01*
X0362671Y0226455D02*
X0323504Y0226455D01*
X0322506Y0225457D02*
X0362671Y0225457D01*
X0362671Y0224458D02*
X0321507Y0224458D01*
X0320509Y0223460D02*
X0362352Y0223460D01*
X0361353Y0222461D02*
X0336904Y0222461D01*
X0332439Y0222461D02*
X0319510Y0222461D01*
X0318512Y0221463D02*
X0331843Y0221463D01*
X0331671Y0220464D02*
X0317513Y0220464D01*
X0316515Y0219466D02*
X0331832Y0219466D01*
X0332412Y0218467D02*
X0315516Y0218467D01*
X0314518Y0217469D02*
X0334031Y0217469D01*
X0335311Y0217469D02*
X0356171Y0217469D01*
X0356330Y0216470D02*
X0313519Y0216470D01*
X0312521Y0215472D02*
X0356908Y0215472D01*
X0358521Y0214473D02*
X0311522Y0214473D01*
X0310524Y0213475D02*
X0367725Y0213475D01*
X0368724Y0214473D02*
X0359822Y0214473D01*
X0361435Y0215472D02*
X0369722Y0215472D01*
X0370721Y0216470D02*
X0362012Y0216470D01*
X0362171Y0217469D02*
X0371719Y0217469D01*
X0372718Y0218467D02*
X0363016Y0218467D01*
X0364015Y0219466D02*
X0373716Y0219466D01*
X0374715Y0220464D02*
X0365013Y0220464D01*
X0366012Y0221463D02*
X0368001Y0221463D01*
X0366853Y0222461D02*
X0366671Y0222461D01*
X0366671Y0226455D02*
X0366867Y0226455D01*
X0366671Y0227454D02*
X0368036Y0227454D01*
X0366671Y0228452D02*
X0372700Y0228452D01*
X0372571Y0229451D02*
X0366671Y0229451D01*
X0366671Y0230449D02*
X0372571Y0230449D01*
X0372571Y0231448D02*
X0371306Y0231448D01*
X0372475Y0232446D02*
X0372571Y0232446D01*
X0372490Y0236440D02*
X0372571Y0236440D01*
X0372571Y0237439D02*
X0371342Y0237439D01*
X0379671Y0244451D02*
X0379671Y0244451D01*
X0379671Y0245427D02*
X0379671Y0245427D01*
X0379671Y0246425D02*
X0379671Y0246425D01*
X0379671Y0247424D02*
X0379671Y0247424D01*
X0378487Y0247424D02*
X0375333Y0247424D01*
X0374010Y0247424D02*
X0371378Y0247424D01*
X0376939Y0246425D02*
X0377142Y0246425D01*
X0369314Y0253851D02*
X0368871Y0253408D01*
X0367768Y0252951D01*
X0366575Y0252951D01*
X0365472Y0253408D01*
X0364628Y0254251D01*
X0364171Y0255354D01*
X0364171Y0256548D01*
X0364628Y0257650D01*
X0365472Y0258494D01*
X0366575Y0258951D01*
X0367768Y0258951D01*
X0368428Y0258677D01*
X0375671Y0265921D01*
X0375671Y0266548D01*
X0376128Y0267650D01*
X0376972Y0268494D01*
X0378075Y0268951D01*
X0379268Y0268951D01*
X0380371Y0268494D01*
X0381215Y0267650D01*
X0381671Y0266548D01*
X0381671Y0265354D01*
X0381215Y0264251D01*
X0380371Y0263408D01*
X0379268Y0262951D01*
X0378641Y0262951D01*
X0369541Y0253851D01*
X0369314Y0253851D01*
X0368878Y0253415D02*
X0390393Y0253415D01*
X0393146Y0258408D02*
X0393396Y0258408D01*
X0393396Y0259406D02*
X0393146Y0259406D01*
X0393146Y0260405D02*
X0393396Y0260405D01*
X0393396Y0261403D02*
X0393146Y0261403D01*
X0393146Y0262402D02*
X0393396Y0262402D01*
X0393396Y0263400D02*
X0393146Y0263400D01*
X0393146Y0264399D02*
X0393396Y0264399D01*
X0393396Y0265397D02*
X0393146Y0265397D01*
X0395696Y0265397D02*
X0457493Y0265397D01*
X0457493Y0264399D02*
X0396021Y0264399D01*
X0387364Y0265397D02*
X0381671Y0265397D01*
X0381671Y0266396D02*
X0457493Y0266396D01*
X0457493Y0267394D02*
X0381321Y0267394D01*
X0380472Y0268393D02*
X0457493Y0268393D01*
X0457493Y0269391D02*
X0251771Y0269391D01*
X0251771Y0268393D02*
X0376871Y0268393D01*
X0376022Y0267394D02*
X0251771Y0267394D01*
X0251771Y0266396D02*
X0375671Y0266396D01*
X0375148Y0265397D02*
X0251771Y0265397D01*
X0251771Y0264399D02*
X0374149Y0264399D01*
X0373151Y0263400D02*
X0251771Y0263400D01*
X0251771Y0262402D02*
X0372152Y0262402D01*
X0371154Y0261403D02*
X0251771Y0261403D01*
X0251771Y0260405D02*
X0370155Y0260405D01*
X0369157Y0259406D02*
X0251771Y0259406D01*
X0251771Y0258408D02*
X0365385Y0258408D01*
X0364528Y0257409D02*
X0251771Y0257409D01*
X0251771Y0256411D02*
X0364171Y0256411D01*
X0364171Y0255412D02*
X0251771Y0255412D01*
X0251771Y0254414D02*
X0364561Y0254414D01*
X0365464Y0253415D02*
X0251771Y0253415D01*
X0251771Y0252417D02*
X0329809Y0252417D01*
X0328810Y0251418D02*
X0251771Y0251418D01*
X0251771Y0250420D02*
X0327812Y0250420D01*
X0326813Y0249421D02*
X0251771Y0249421D01*
X0251771Y0248422D02*
X0325815Y0248422D01*
X0324816Y0247424D02*
X0251771Y0247424D01*
X0251771Y0246425D02*
X0323818Y0246425D01*
X0322819Y0245427D02*
X0251771Y0245427D01*
X0251771Y0244428D02*
X0321821Y0244428D01*
X0320822Y0243430D02*
X0251771Y0243430D01*
X0251771Y0242431D02*
X0319823Y0242431D01*
X0318825Y0241433D02*
X0251771Y0241433D01*
X0251771Y0240434D02*
X0317826Y0240434D01*
X0316828Y0239436D02*
X0251771Y0239436D01*
X0251771Y0238437D02*
X0315829Y0238437D01*
X0314831Y0237439D02*
X0251771Y0237439D01*
X0251771Y0236440D02*
X0313832Y0236440D01*
X0312834Y0235442D02*
X0251771Y0235442D01*
X0252288Y0234443D02*
X0254091Y0234443D01*
X0257209Y0234443D02*
X0311835Y0234443D01*
X0310837Y0233445D02*
X0258208Y0233445D01*
X0258058Y0233594D02*
X0258058Y0233594D01*
X0259206Y0232446D02*
X0309838Y0232446D01*
X0308840Y0231448D02*
X0259376Y0231448D01*
X0259376Y0230449D02*
X0307841Y0230449D01*
X0306843Y0229451D02*
X0259376Y0229451D01*
X0259376Y0228452D02*
X0305844Y0228452D01*
X0304846Y0227454D02*
X0258386Y0227454D01*
X0258752Y0226455D02*
X0303847Y0226455D01*
X0302849Y0225457D02*
X0259376Y0225457D01*
X0259376Y0224458D02*
X0301850Y0224458D01*
X0300852Y0223460D02*
X0259376Y0223460D01*
X0259376Y0222461D02*
X0299853Y0222461D01*
X0298855Y0221463D02*
X0258841Y0221463D01*
X0259146Y0220464D02*
X0297856Y0220464D01*
X0296858Y0219466D02*
X0259427Y0219466D01*
X0259227Y0218467D02*
X0294445Y0218467D01*
X0293846Y0217469D02*
X0258231Y0217469D01*
X0259227Y0216470D02*
X0293671Y0216470D01*
X0293830Y0215472D02*
X0259427Y0215472D01*
X0259145Y0214473D02*
X0294406Y0214473D01*
X0296017Y0213475D02*
X0262362Y0213475D01*
X0264731Y0212476D02*
X0296368Y0212476D01*
X0297325Y0213475D02*
X0297367Y0213475D01*
X0295370Y0211478D02*
X0265921Y0211478D01*
X0267045Y0210479D02*
X0294371Y0210479D01*
X0293373Y0209481D02*
X0267622Y0209481D01*
X0268198Y0208482D02*
X0292374Y0208482D01*
X0291376Y0207484D02*
X0268682Y0207484D01*
X0268858Y0206485D02*
X0274251Y0206485D01*
X0273398Y0205487D02*
X0269034Y0205487D01*
X0269210Y0204488D02*
X0273021Y0204488D01*
X0273021Y0203489D02*
X0269047Y0203489D01*
X0269216Y0204451D02*
X0269216Y0204451D01*
X0268871Y0202491D02*
X0273366Y0202491D01*
X0274175Y0201492D02*
X0268695Y0201492D01*
X0268241Y0200494D02*
X0291886Y0200494D01*
X0292885Y0201492D02*
X0278168Y0201492D01*
X0276261Y0199495D02*
X0267664Y0199495D01*
X0267088Y0198497D02*
X0275402Y0198497D01*
X0275021Y0197498D02*
X0266010Y0197498D01*
X0264820Y0196500D02*
X0275021Y0196500D01*
X0275362Y0195501D02*
X0262567Y0195501D01*
X0264444Y0196185D02*
X0264444Y0196185D01*
X0256776Y0195501D02*
X0251771Y0195501D01*
X0251771Y0194503D02*
X0276164Y0194503D01*
X0280178Y0194503D02*
X0359171Y0194503D01*
X0359171Y0194951D02*
X0354486Y0194951D01*
X0354599Y0195668D01*
X0354852Y0196447D01*
X0355224Y0197176D01*
X0355705Y0197838D01*
X0356284Y0198417D01*
X0356946Y0198898D01*
X0357675Y0199270D01*
X0358454Y0199523D01*
X0359171Y0199636D01*
X0359171Y0194951D01*
X0359171Y0195501D02*
X0360171Y0195501D01*
X0360171Y0196500D02*
X0359171Y0196500D01*
X0359171Y0197498D02*
X0360171Y0197498D01*
X0360171Y0198497D02*
X0359171Y0198497D01*
X0359171Y0199495D02*
X0360171Y0199495D01*
X0360973Y0199495D02*
X0367739Y0199495D01*
X0366081Y0198497D02*
X0362949Y0198497D01*
X0363885Y0197498D02*
X0365089Y0197498D01*
X0364675Y0196500D02*
X0364463Y0196500D01*
X0358370Y0199495D02*
X0296544Y0199495D01*
X0295546Y0198497D02*
X0356394Y0198497D01*
X0355458Y0197498D02*
X0294547Y0197498D01*
X0293549Y0196500D02*
X0354879Y0196500D01*
X0354573Y0195501D02*
X0292550Y0195501D01*
X0290888Y0199495D02*
X0280081Y0199495D01*
X0278092Y0206485D02*
X0290377Y0206485D01*
X0293038Y0203489D02*
X0294882Y0203489D01*
X0294037Y0204488D02*
X0295880Y0204488D01*
X0295035Y0205487D02*
X0296879Y0205487D01*
X0296034Y0206485D02*
X0297877Y0206485D01*
X0297032Y0207484D02*
X0298876Y0207484D01*
X0298031Y0208482D02*
X0299874Y0208482D01*
X0299029Y0209481D02*
X0300873Y0209481D01*
X0300028Y0210479D02*
X0301871Y0210479D01*
X0301026Y0211478D02*
X0302870Y0211478D01*
X0302025Y0212476D02*
X0303868Y0212476D01*
X0303024Y0213475D02*
X0304867Y0213475D01*
X0304022Y0214473D02*
X0305865Y0214473D01*
X0305021Y0215472D02*
X0306864Y0215472D01*
X0306019Y0216470D02*
X0307862Y0216470D01*
X0307018Y0217469D02*
X0308861Y0217469D01*
X0308016Y0218467D02*
X0309859Y0218467D01*
X0309015Y0219466D02*
X0310858Y0219466D01*
X0310013Y0220464D02*
X0311856Y0220464D01*
X0311012Y0221463D02*
X0312855Y0221463D01*
X0312010Y0222461D02*
X0313853Y0222461D01*
X0313009Y0223460D02*
X0314852Y0223460D01*
X0314007Y0224458D02*
X0315850Y0224458D01*
X0315006Y0225457D02*
X0316849Y0225457D01*
X0316004Y0226455D02*
X0317847Y0226455D01*
X0317003Y0227454D02*
X0318846Y0227454D01*
X0318001Y0228452D02*
X0319844Y0228452D01*
X0319000Y0229451D02*
X0320843Y0229451D01*
X0319998Y0230449D02*
X0321841Y0230449D01*
X0320997Y0231448D02*
X0322840Y0231448D01*
X0321995Y0232446D02*
X0323838Y0232446D01*
X0322994Y0233445D02*
X0324837Y0233445D01*
X0323992Y0234443D02*
X0325835Y0234443D01*
X0324991Y0235442D02*
X0326834Y0235442D01*
X0325989Y0236440D02*
X0327832Y0236440D01*
X0326988Y0237439D02*
X0328831Y0237439D01*
X0327986Y0238437D02*
X0329829Y0238437D01*
X0328985Y0239436D02*
X0330828Y0239436D01*
X0331521Y0240434D02*
X0329983Y0240434D01*
X0330982Y0241433D02*
X0331669Y0241433D01*
X0331980Y0242431D02*
X0332197Y0242431D01*
X0357988Y0221463D02*
X0360355Y0221463D01*
X0359356Y0220464D02*
X0358986Y0220464D01*
X0366727Y0212476D02*
X0309525Y0212476D01*
X0308526Y0211478D02*
X0364455Y0211478D01*
X0363850Y0210479D02*
X0307528Y0210479D01*
X0306529Y0209481D02*
X0363671Y0209481D01*
X0363825Y0208482D02*
X0305531Y0208482D01*
X0304532Y0207484D02*
X0364396Y0207484D01*
X0365992Y0206485D02*
X0303534Y0206485D01*
X0302535Y0205487D02*
X0377671Y0205487D01*
X0377671Y0206485D02*
X0367351Y0206485D01*
X0368947Y0207484D02*
X0373996Y0207484D01*
X0375347Y0207484D02*
X0377671Y0207484D01*
X0377671Y0204488D02*
X0301537Y0204488D01*
X0300538Y0203489D02*
X0377671Y0203489D01*
X0377671Y0202491D02*
X0299540Y0202491D01*
X0298541Y0201492D02*
X0377671Y0201492D01*
X0377671Y0200494D02*
X0297543Y0200494D01*
X0293883Y0202491D02*
X0292040Y0202491D01*
X0254899Y0196185D02*
X0254899Y0196185D01*
X0254523Y0196500D02*
X0251771Y0196500D01*
X0251771Y0197498D02*
X0253333Y0197498D01*
X0252359Y0198315D02*
X0252359Y0198315D01*
X0252255Y0198497D02*
X0251771Y0198497D01*
X0251771Y0193504D02*
X0354556Y0193504D01*
X0354836Y0192506D02*
X0251771Y0192506D01*
X0245571Y0204704D02*
X0245062Y0205586D01*
X0245062Y0205586D01*
X0242523Y0207717D01*
X0242522Y0207717D01*
X0239407Y0208851D01*
X0236093Y0208851D01*
X0232977Y0207717D01*
X0230438Y0205586D01*
X0228781Y0202715D01*
X0228205Y0199451D01*
X0228205Y0199451D01*
X0228781Y0196186D01*
X0230438Y0193315D01*
X0232541Y0191551D01*
X0192394Y0191551D01*
X0193150Y0193377D01*
X0193150Y0195525D01*
X0192328Y0197510D01*
X0190809Y0199029D01*
X0188824Y0199851D01*
X0186676Y0199851D01*
X0185617Y0199412D01*
X0184750Y0200279D01*
X0184750Y0204208D01*
X0185293Y0204751D01*
X0185750Y0205854D01*
X0185750Y0207048D01*
X0185293Y0208150D01*
X0184449Y0208994D01*
X0183347Y0209451D01*
X0182153Y0209451D01*
X0181051Y0208994D01*
X0180207Y0208150D01*
X0179750Y0207048D01*
X0179750Y0205854D01*
X0180207Y0204751D01*
X0180750Y0204208D01*
X0180750Y0199053D01*
X0179750Y0199467D01*
X0179750Y0213622D01*
X0193578Y0227451D01*
X0211578Y0227451D01*
X0213578Y0229451D01*
X0219750Y0229451D01*
X0219750Y0230449D02*
X0214577Y0230449D01*
X0214750Y0230622D02*
X0214750Y0235208D01*
X0215293Y0235751D01*
X0215750Y0236854D01*
X0215750Y0238048D01*
X0215293Y0239150D01*
X0214449Y0239994D01*
X0213347Y0240451D01*
X0212153Y0240451D01*
X0211051Y0239994D01*
X0210507Y0239451D01*
X0189993Y0239451D01*
X0189449Y0239994D01*
X0188347Y0240451D01*
X0187153Y0240451D01*
X0186172Y0240044D01*
X0190578Y0244451D01*
X0191750Y0245622D01*
X0191750Y0246996D01*
X0192420Y0247666D01*
X0192900Y0248824D01*
X0192900Y0250077D01*
X0192420Y0251235D01*
X0191534Y0252121D01*
X0191432Y0252163D01*
X0197120Y0257851D01*
X0204107Y0257851D01*
X0204551Y0257408D01*
X0205653Y0256951D01*
X0206847Y0256951D01*
X0207949Y0257408D01*
X0208393Y0257851D01*
X0218750Y0257851D01*
X0218750Y0257354D01*
X0219207Y0256251D01*
X0220051Y0255408D01*
X0221153Y0254951D01*
X0222347Y0254951D01*
X0223449Y0255408D01*
X0223893Y0255851D01*
X0229380Y0255851D01*
X0240650Y0244581D01*
X0240650Y0231401D01*
X0239628Y0231401D01*
X0238578Y0232451D01*
X0224578Y0246451D01*
X0219993Y0246451D01*
X0219449Y0246994D01*
X0218347Y0247451D01*
X0217153Y0247451D01*
X0216051Y0246994D01*
X0215207Y0246150D01*
X0214750Y0245048D01*
X0214750Y0243854D01*
X0215207Y0242751D01*
X0216051Y0241908D01*
X0217153Y0241451D01*
X0218347Y0241451D01*
X0219449Y0241908D01*
X0219993Y0242451D01*
X0222922Y0242451D01*
X0223328Y0242044D01*
X0222347Y0242451D01*
X0221153Y0242451D01*
X0220051Y0241994D01*
X0219207Y0241150D01*
X0218750Y0240048D01*
X0218750Y0238854D01*
X0219207Y0237751D01*
X0219750Y0237208D01*
X0219750Y0223622D01*
X0225750Y0217622D01*
X0226922Y0216451D01*
X0238578Y0216451D01*
X0239628Y0217501D01*
X0240954Y0217501D01*
X0241950Y0218497D01*
X0241950Y0222351D01*
X0242120Y0222351D01*
X0243350Y0223581D01*
X0244850Y0225081D01*
X0244850Y0246321D01*
X0243620Y0247551D01*
X0231120Y0260051D01*
X0223893Y0260051D01*
X0223449Y0260494D01*
X0222347Y0260951D01*
X0221720Y0260951D01*
X0220620Y0262051D01*
X0208393Y0262051D01*
X0207949Y0262494D01*
X0206847Y0262951D01*
X0205653Y0262951D01*
X0204551Y0262494D01*
X0204107Y0262051D01*
X0195380Y0262051D01*
X0182944Y0249614D01*
X0183250Y0250354D01*
X0183250Y0251548D01*
X0182793Y0252650D01*
X0181949Y0253494D01*
X0180847Y0253951D01*
X0179653Y0253951D01*
X0178551Y0253494D01*
X0178007Y0252951D01*
X0118422Y0252951D01*
X0117250Y0251779D01*
X0084922Y0219451D01*
X0084153Y0219451D01*
X0083051Y0218994D01*
X0082207Y0218150D01*
X0081750Y0217048D01*
X0081750Y0215854D01*
X0082207Y0214751D01*
X0083051Y0213908D01*
X0084153Y0213451D01*
X0085347Y0213451D01*
X0085475Y0213504D01*
X0077922Y0205951D01*
X0066705Y0205951D01*
X0066034Y0206621D01*
X0064877Y0207101D01*
X0063623Y0207101D01*
X0062466Y0206621D01*
X0061580Y0205735D01*
X0061100Y0204577D01*
X0061100Y0203324D01*
X0061580Y0202166D01*
X0062466Y0201280D01*
X0063623Y0200801D01*
X0064877Y0200801D01*
X0066034Y0201280D01*
X0066705Y0201951D01*
X0079578Y0201951D01*
X0120928Y0243301D01*
X0121399Y0243301D01*
X0120966Y0243121D01*
X0120080Y0242235D01*
X0119600Y0241077D01*
X0119600Y0240129D01*
X0078422Y0198951D01*
X0068705Y0198951D01*
X0068034Y0199621D01*
X0066877Y0200101D01*
X0065623Y0200101D01*
X0064466Y0199621D01*
X0063580Y0198735D01*
X0063100Y0197577D01*
X0063100Y0196324D01*
X0063580Y0195166D01*
X0064466Y0194280D01*
X0065623Y0193801D01*
X0066877Y0193801D01*
X0068034Y0194280D01*
X0068705Y0194951D01*
X0080078Y0194951D01*
X0122428Y0237301D01*
X0123377Y0237301D01*
X0124534Y0237780D01*
X0125420Y0238666D01*
X0125900Y0239824D01*
X0125900Y0241077D01*
X0125420Y0242235D01*
X0124534Y0243121D01*
X0123377Y0243601D01*
X0122601Y0243601D01*
X0123034Y0243780D01*
X0123920Y0244666D01*
X0124400Y0245824D01*
X0124400Y0247077D01*
X0123920Y0248235D01*
X0123205Y0248951D01*
X0178007Y0248951D01*
X0178551Y0248408D01*
X0179653Y0247951D01*
X0180847Y0247951D01*
X0181587Y0248257D01*
X0174880Y0241551D01*
X0169111Y0241551D01*
X0169266Y0241615D01*
X0169790Y0241965D01*
X0170236Y0242411D01*
X0170586Y0242935D01*
X0170827Y0243517D01*
X0170950Y0244136D01*
X0170950Y0244451D01*
X0170950Y0244766D01*
X0170827Y0245384D01*
X0170586Y0245967D01*
X0170236Y0246491D01*
X0169790Y0246936D01*
X0169266Y0247287D01*
X0168683Y0247528D01*
X0168065Y0247651D01*
X0167750Y0247651D01*
X0167750Y0244451D01*
X0167750Y0244451D01*
X0167750Y0247651D01*
X0167435Y0247651D01*
X0166817Y0247528D01*
X0166234Y0247287D01*
X0165710Y0246936D01*
X0165264Y0246491D01*
X0165140Y0246304D01*
X0164449Y0246994D01*
X0163347Y0247451D01*
X0162153Y0247451D01*
X0161051Y0246994D01*
X0160533Y0246476D01*
X0159676Y0247333D01*
X0158426Y0247851D01*
X0157074Y0247851D01*
X0155824Y0247333D01*
X0154868Y0246377D01*
X0154350Y0245127D01*
X0154350Y0243774D01*
X0154868Y0242525D01*
X0155824Y0241568D01*
X0157074Y0241051D01*
X0158426Y0241051D01*
X0159676Y0241568D01*
X0160533Y0242425D01*
X0160650Y0242308D01*
X0160650Y0236334D01*
X0160632Y0236377D01*
X0159676Y0237333D01*
X0158426Y0237851D01*
X0157074Y0237851D01*
X0155824Y0237333D01*
X0154942Y0236451D01*
X0153922Y0236451D01*
X0151922Y0234451D01*
X0150750Y0233279D01*
X0150750Y0223779D01*
X0147422Y0220451D01*
X0147078Y0220451D01*
X0145078Y0222451D01*
X0124993Y0222451D01*
X0124449Y0222994D01*
X0123347Y0223451D01*
X0122153Y0223451D01*
X0121051Y0222994D01*
X0120207Y0222150D01*
X0119750Y0221048D01*
X0119750Y0219854D01*
X0120207Y0218751D01*
X0121051Y0217908D01*
X0122153Y0217451D01*
X0123347Y0217451D01*
X0124449Y0217908D01*
X0124993Y0218451D01*
X0143422Y0218451D01*
X0144250Y0217622D01*
X0144250Y0216854D01*
X0144707Y0215751D01*
X0145551Y0214908D01*
X0146653Y0214451D01*
X0147847Y0214451D01*
X0148949Y0214908D01*
X0149793Y0215751D01*
X0150250Y0216854D01*
X0150250Y0217622D01*
X0154750Y0222122D01*
X0154750Y0222809D01*
X0154868Y0222525D01*
X0155824Y0221568D01*
X0157074Y0221051D01*
X0158426Y0221051D01*
X0159676Y0221568D01*
X0160632Y0222525D01*
X0161150Y0223774D01*
X0161150Y0225127D01*
X0160632Y0226377D01*
X0159676Y0227333D01*
X0158426Y0227851D01*
X0157074Y0227851D01*
X0155824Y0227333D01*
X0154868Y0226377D01*
X0154750Y0226093D01*
X0154750Y0231622D01*
X0155260Y0232132D01*
X0155824Y0231568D01*
X0157074Y0231051D01*
X0158426Y0231051D01*
X0159676Y0231568D01*
X0160632Y0232525D01*
X0160650Y0232567D01*
X0160650Y0228581D01*
X0164350Y0224881D01*
X0164350Y0223774D01*
X0164864Y0222534D01*
X0154780Y0212451D01*
X0154153Y0212451D01*
X0153051Y0211994D01*
X0152207Y0211150D01*
X0151750Y0210048D01*
X0151750Y0208854D01*
X0152207Y0207751D01*
X0153051Y0206908D01*
X0154153Y0206451D01*
X0155347Y0206451D01*
X0156449Y0206908D01*
X0157293Y0207751D01*
X0157750Y0208854D01*
X0157750Y0209481D01*
X0160056Y0211787D01*
X0159750Y0211048D01*
X0159750Y0209854D01*
X0160207Y0208751D01*
X0161051Y0207908D01*
X0162153Y0207451D01*
X0163347Y0207451D01*
X0164449Y0207908D01*
X0164993Y0208451D01*
X0165750Y0208451D01*
X0165750Y0199467D01*
X0164691Y0199029D01*
X0163172Y0197510D01*
X0162750Y0196491D01*
X0162328Y0197510D01*
X0160809Y0199029D01*
X0158824Y0199851D01*
X0156676Y0199851D01*
X0154691Y0199029D01*
X0153172Y0197510D01*
X0152641Y0196227D01*
X0152569Y0196447D01*
X0152197Y0197176D01*
X0151716Y0197838D01*
X0151138Y0198417D01*
X0150475Y0198898D01*
X0149746Y0199270D01*
X0148968Y0199523D01*
X0148250Y0199636D01*
X0148250Y0194951D01*
X0147250Y0194951D01*
X0147250Y0199636D01*
X0146532Y0199523D01*
X0145754Y0199270D01*
X0145025Y0198898D01*
X0144362Y0198417D01*
X0143784Y0197838D01*
X0143303Y0197176D01*
X0142931Y0196447D01*
X0142678Y0195668D01*
X0142564Y0194951D01*
X0147250Y0194951D01*
X0147250Y0193951D01*
X0142564Y0193951D01*
X0142678Y0193233D01*
X0142931Y0192455D01*
X0143303Y0191725D01*
X0143429Y0191551D01*
X0039850Y0191551D01*
X0039850Y0199334D01*
X0040438Y0198315D01*
X0042977Y0196185D01*
X0042977Y0196185D01*
X0046093Y0195051D01*
X0049407Y0195051D01*
X0052522Y0196185D01*
X0052523Y0196185D02*
X0055062Y0198315D01*
X0056719Y0201186D01*
X0057295Y0204451D01*
X0056719Y0207715D01*
X0056719Y0207715D01*
X0055062Y0210586D01*
X0055062Y0210586D01*
X0052523Y0212717D01*
X0052522Y0212717D01*
X0049407Y0213851D01*
X0046809Y0213851D01*
X0047594Y0215028D01*
X0047229Y0216856D01*
X0046309Y0217469D01*
X0047229Y0218082D01*
X0047594Y0219910D01*
X0046703Y0221247D01*
X0047455Y0221998D01*
X0047455Y0225831D01*
X0046676Y0226609D01*
X0046148Y0227137D01*
X0046676Y0227665D01*
X0047455Y0228444D01*
X0047455Y0232276D01*
X0046699Y0233033D01*
X0046137Y0233594D01*
X0045909Y0233822D01*
X0045153Y0234578D01*
X0042305Y0234578D01*
X0041268Y0233542D01*
X0040232Y0234578D01*
X0039850Y0234578D01*
X0039850Y0269451D01*
X0245571Y0269451D01*
X0245571Y0204704D01*
X0245571Y0205487D02*
X0245119Y0205487D01*
X0245571Y0206485D02*
X0243991Y0206485D01*
X0242801Y0207484D02*
X0245571Y0207484D01*
X0245571Y0208482D02*
X0240421Y0208482D01*
X0245571Y0209481D02*
X0179750Y0209481D01*
X0179750Y0210479D02*
X0245571Y0210479D01*
X0245571Y0211478D02*
X0179750Y0211478D01*
X0179750Y0212476D02*
X0245571Y0212476D01*
X0245571Y0213475D02*
X0179750Y0213475D01*
X0180601Y0214473D02*
X0245571Y0214473D01*
X0245571Y0215472D02*
X0181599Y0215472D01*
X0182598Y0216470D02*
X0226902Y0216470D01*
X0225904Y0217469D02*
X0183596Y0217469D01*
X0184595Y0218467D02*
X0224905Y0218467D01*
X0223907Y0219466D02*
X0185593Y0219466D01*
X0186592Y0220464D02*
X0222908Y0220464D01*
X0221910Y0221463D02*
X0187590Y0221463D01*
X0188589Y0222461D02*
X0220911Y0222461D01*
X0219913Y0223460D02*
X0189587Y0223460D01*
X0190586Y0224458D02*
X0219750Y0224458D01*
X0219750Y0225457D02*
X0191584Y0225457D01*
X0192583Y0226455D02*
X0219750Y0226455D01*
X0219750Y0227454D02*
X0211581Y0227454D01*
X0212580Y0228452D02*
X0219750Y0228452D01*
X0219750Y0231448D02*
X0214750Y0231448D01*
X0214750Y0230622D02*
X0213578Y0229451D01*
X0214750Y0232446D02*
X0219750Y0232446D01*
X0219750Y0233445D02*
X0214750Y0233445D01*
X0214750Y0234443D02*
X0219750Y0234443D01*
X0219750Y0235442D02*
X0214984Y0235442D01*
X0215579Y0236440D02*
X0219750Y0236440D01*
X0219519Y0237439D02*
X0215750Y0237439D01*
X0215589Y0238437D02*
X0218923Y0238437D01*
X0218750Y0239436D02*
X0215008Y0239436D01*
X0213386Y0240434D02*
X0218910Y0240434D01*
X0219489Y0241433D02*
X0187561Y0241433D01*
X0187114Y0240434D02*
X0186562Y0240434D01*
X0188386Y0240434D02*
X0212114Y0240434D01*
X0215527Y0242431D02*
X0188559Y0242431D01*
X0189558Y0243430D02*
X0214926Y0243430D01*
X0214750Y0244428D02*
X0190556Y0244428D01*
X0191555Y0245427D02*
X0214907Y0245427D01*
X0215482Y0246425D02*
X0191750Y0246425D01*
X0192178Y0247424D02*
X0217089Y0247424D01*
X0218411Y0247424D02*
X0237807Y0247424D01*
X0238805Y0246425D02*
X0224604Y0246425D01*
X0225602Y0245427D02*
X0239804Y0245427D01*
X0240650Y0244428D02*
X0226601Y0244428D01*
X0227599Y0243430D02*
X0240650Y0243430D01*
X0240650Y0242431D02*
X0228598Y0242431D01*
X0229596Y0241433D02*
X0240650Y0241433D01*
X0240650Y0240434D02*
X0230595Y0240434D01*
X0231593Y0239436D02*
X0240650Y0239436D01*
X0240650Y0238437D02*
X0232592Y0238437D01*
X0233590Y0237439D02*
X0240650Y0237439D01*
X0240650Y0236440D02*
X0234589Y0236440D01*
X0235587Y0235442D02*
X0240650Y0235442D01*
X0240650Y0234443D02*
X0236586Y0234443D01*
X0237584Y0233445D02*
X0240650Y0233445D01*
X0240650Y0232446D02*
X0238583Y0232446D01*
X0239581Y0231448D02*
X0240650Y0231448D01*
X0237750Y0228451D02*
X0237750Y0224451D01*
X0237750Y0220451D01*
X0239596Y0217469D02*
X0245571Y0217469D01*
X0245571Y0218467D02*
X0241921Y0218467D01*
X0241950Y0219466D02*
X0245571Y0219466D01*
X0245571Y0220464D02*
X0241950Y0220464D01*
X0241950Y0221463D02*
X0245571Y0221463D01*
X0245571Y0222461D02*
X0242230Y0222461D01*
X0243229Y0223460D02*
X0245571Y0223460D01*
X0245571Y0224458D02*
X0244227Y0224458D01*
X0244850Y0225457D02*
X0245571Y0225457D01*
X0245571Y0226455D02*
X0244850Y0226455D01*
X0244850Y0227454D02*
X0245571Y0227454D01*
X0245571Y0228452D02*
X0244850Y0228452D01*
X0244850Y0229451D02*
X0245571Y0229451D01*
X0245571Y0230449D02*
X0244850Y0230449D01*
X0244850Y0231448D02*
X0245571Y0231448D01*
X0245571Y0232446D02*
X0244850Y0232446D01*
X0244850Y0233445D02*
X0245571Y0233445D01*
X0245571Y0234443D02*
X0244850Y0234443D01*
X0244850Y0235442D02*
X0245571Y0235442D01*
X0245571Y0236440D02*
X0244850Y0236440D01*
X0244850Y0237439D02*
X0245571Y0237439D01*
X0245571Y0238437D02*
X0244850Y0238437D01*
X0244850Y0239436D02*
X0245571Y0239436D01*
X0245571Y0240434D02*
X0244850Y0240434D01*
X0244850Y0241433D02*
X0245571Y0241433D01*
X0245571Y0242431D02*
X0244850Y0242431D01*
X0244850Y0243430D02*
X0245571Y0243430D01*
X0245571Y0244428D02*
X0244850Y0244428D01*
X0244850Y0245427D02*
X0245571Y0245427D01*
X0245571Y0246425D02*
X0244745Y0246425D01*
X0245571Y0247424D02*
X0243747Y0247424D01*
X0242748Y0248422D02*
X0245571Y0248422D01*
X0245571Y0249421D02*
X0241750Y0249421D01*
X0240751Y0250420D02*
X0245571Y0250420D01*
X0245571Y0251418D02*
X0239753Y0251418D01*
X0238754Y0252417D02*
X0245571Y0252417D01*
X0245571Y0253415D02*
X0237756Y0253415D01*
X0236757Y0254414D02*
X0245571Y0254414D01*
X0245571Y0255412D02*
X0235759Y0255412D01*
X0234760Y0256411D02*
X0245571Y0256411D01*
X0245571Y0257409D02*
X0233762Y0257409D01*
X0232763Y0258408D02*
X0245571Y0258408D01*
X0245571Y0259406D02*
X0231765Y0259406D01*
X0229819Y0255412D02*
X0223454Y0255412D01*
X0220046Y0255412D02*
X0194681Y0255412D01*
X0193683Y0254414D02*
X0230817Y0254414D01*
X0231816Y0253415D02*
X0192684Y0253415D01*
X0191686Y0252417D02*
X0232814Y0252417D01*
X0233813Y0251418D02*
X0192238Y0251418D01*
X0192758Y0250420D02*
X0234811Y0250420D01*
X0235810Y0249421D02*
X0192900Y0249421D01*
X0192734Y0248422D02*
X0236808Y0248422D01*
X0222941Y0242431D02*
X0222393Y0242431D01*
X0221107Y0242431D02*
X0219973Y0242431D01*
X0219141Y0256411D02*
X0195680Y0256411D01*
X0196678Y0257409D02*
X0204549Y0257409D01*
X0207951Y0257409D02*
X0218750Y0257409D01*
X0221267Y0261403D02*
X0245571Y0261403D01*
X0245571Y0260405D02*
X0223539Y0260405D01*
X0208042Y0262402D02*
X0245571Y0262402D01*
X0245571Y0263400D02*
X0184100Y0263400D01*
X0184100Y0262402D02*
X0204458Y0262402D01*
X0194733Y0261403D02*
X0184100Y0261403D01*
X0184100Y0261826D02*
X0181475Y0261826D01*
X0181475Y0262076D01*
X0181225Y0262076D01*
X0181225Y0265951D01*
X0180304Y0265951D01*
X0180104Y0266151D01*
X0176196Y0266151D01*
X0175200Y0265155D01*
X0175200Y0264051D01*
X0174893Y0264051D01*
X0174449Y0264494D01*
X0173347Y0264951D01*
X0172153Y0264951D01*
X0171051Y0264494D01*
X0170207Y0263650D01*
X0169750Y0262548D01*
X0169750Y0261354D01*
X0170207Y0260251D01*
X0171051Y0259408D01*
X0172153Y0258951D01*
X0173347Y0258951D01*
X0174449Y0259408D01*
X0174893Y0259851D01*
X0175200Y0259851D01*
X0175200Y0258747D01*
X0176196Y0257751D01*
X0180104Y0257751D01*
X0180304Y0257951D01*
X0181225Y0257951D01*
X0181225Y0261826D01*
X0181475Y0261826D01*
X0181475Y0257951D01*
X0182797Y0257951D01*
X0183179Y0258053D01*
X0183521Y0258251D01*
X0183800Y0258530D01*
X0183998Y0258872D01*
X0184100Y0259253D01*
X0184100Y0261826D01*
X0184100Y0262076D02*
X0184100Y0264648D01*
X0183998Y0265030D01*
X0183800Y0265372D01*
X0183521Y0265651D01*
X0183179Y0265849D01*
X0182797Y0265951D01*
X0181475Y0265951D01*
X0181475Y0262076D01*
X0184100Y0262076D01*
X0184100Y0260405D02*
X0193734Y0260405D01*
X0192735Y0259406D02*
X0184100Y0259406D01*
X0183678Y0258408D02*
X0191737Y0258408D01*
X0190738Y0257409D02*
X0161178Y0257409D01*
X0160180Y0256411D02*
X0189740Y0256411D01*
X0188741Y0255412D02*
X0159181Y0255412D01*
X0158183Y0254414D02*
X0187743Y0254414D01*
X0186744Y0253415D02*
X0182028Y0253415D01*
X0182890Y0252417D02*
X0185746Y0252417D01*
X0184747Y0251418D02*
X0183250Y0251418D01*
X0183250Y0250420D02*
X0183749Y0250420D01*
X0186693Y0247424D02*
X0187322Y0247424D01*
X0187080Y0247666D02*
X0187608Y0247138D01*
X0181750Y0241279D01*
X0181750Y0229779D01*
X0164707Y0212736D01*
X0164449Y0212994D01*
X0163347Y0213451D01*
X0162153Y0213451D01*
X0161413Y0213144D01*
X0169850Y0221581D01*
X0169850Y0221742D01*
X0170632Y0222525D01*
X0171150Y0223774D01*
X0171150Y0225127D01*
X0170632Y0226377D01*
X0169676Y0227333D01*
X0168426Y0227851D01*
X0167320Y0227851D01*
X0164850Y0230321D01*
X0164850Y0232567D01*
X0164868Y0232525D01*
X0165824Y0231568D01*
X0167074Y0231051D01*
X0168426Y0231051D01*
X0169676Y0231568D01*
X0170632Y0232525D01*
X0171150Y0233774D01*
X0171150Y0235127D01*
X0170632Y0236377D01*
X0169676Y0237333D01*
X0169633Y0237351D01*
X0176620Y0237351D01*
X0177850Y0238581D01*
X0187037Y0247768D01*
X0187080Y0247666D01*
X0186896Y0246425D02*
X0185695Y0246425D01*
X0185898Y0245427D02*
X0184696Y0245427D01*
X0184899Y0244428D02*
X0183697Y0244428D01*
X0183901Y0243430D02*
X0182699Y0243430D01*
X0182902Y0242431D02*
X0181700Y0242431D01*
X0181904Y0241433D02*
X0180702Y0241433D01*
X0179703Y0240434D02*
X0181750Y0240434D01*
X0181750Y0239436D02*
X0178705Y0239436D01*
X0177706Y0238437D02*
X0181750Y0238437D01*
X0181750Y0237439D02*
X0176708Y0237439D01*
X0175761Y0242431D02*
X0170249Y0242431D01*
X0170791Y0243430D02*
X0176759Y0243430D01*
X0177758Y0244428D02*
X0170950Y0244428D01*
X0170950Y0244451D02*
X0167750Y0244451D01*
X0170950Y0244451D01*
X0170809Y0245427D02*
X0178756Y0245427D01*
X0179755Y0246425D02*
X0170279Y0246425D01*
X0168934Y0247424D02*
X0180753Y0247424D01*
X0178536Y0248422D02*
X0123733Y0248422D01*
X0124256Y0247424D02*
X0156043Y0247424D01*
X0154916Y0246425D02*
X0124400Y0246425D01*
X0124235Y0245427D02*
X0154474Y0245427D01*
X0154350Y0244428D02*
X0123682Y0244428D01*
X0123789Y0243430D02*
X0154493Y0243430D01*
X0154961Y0242431D02*
X0125224Y0242431D01*
X0125753Y0241433D02*
X0156151Y0241433D01*
X0159349Y0241433D02*
X0160650Y0241433D01*
X0160650Y0240434D02*
X0125900Y0240434D01*
X0125739Y0239436D02*
X0160650Y0239436D01*
X0160650Y0238437D02*
X0125191Y0238437D01*
X0123710Y0237439D02*
X0156079Y0237439D01*
X0153911Y0236440D02*
X0121568Y0236440D01*
X0120569Y0235442D02*
X0152913Y0235442D01*
X0151914Y0234443D02*
X0119571Y0234443D01*
X0118572Y0233445D02*
X0150916Y0233445D01*
X0150750Y0232446D02*
X0117574Y0232446D01*
X0116575Y0231448D02*
X0150750Y0231448D01*
X0150750Y0230449D02*
X0115577Y0230449D01*
X0114578Y0229451D02*
X0150750Y0229451D01*
X0150750Y0228452D02*
X0113580Y0228452D01*
X0112581Y0227454D02*
X0150750Y0227454D01*
X0150750Y0226455D02*
X0111583Y0226455D01*
X0110584Y0225457D02*
X0150750Y0225457D01*
X0150750Y0224458D02*
X0109586Y0224458D01*
X0108587Y0223460D02*
X0150430Y0223460D01*
X0149432Y0222461D02*
X0124982Y0222461D01*
X0120518Y0222461D02*
X0107589Y0222461D01*
X0106590Y0221463D02*
X0119922Y0221463D01*
X0119750Y0220464D02*
X0105592Y0220464D01*
X0104593Y0219466D02*
X0119911Y0219466D01*
X0120491Y0218467D02*
X0103595Y0218467D01*
X0102596Y0217469D02*
X0122110Y0217469D01*
X0123390Y0217469D02*
X0144250Y0217469D01*
X0144409Y0216470D02*
X0101598Y0216470D01*
X0100599Y0215472D02*
X0144987Y0215472D01*
X0146599Y0214473D02*
X0099601Y0214473D01*
X0098602Y0213475D02*
X0155804Y0213475D01*
X0156802Y0214473D02*
X0147901Y0214473D01*
X0149513Y0215472D02*
X0157801Y0215472D01*
X0158799Y0216470D02*
X0150091Y0216470D01*
X0150250Y0217469D02*
X0159798Y0217469D01*
X0160797Y0218467D02*
X0151095Y0218467D01*
X0152093Y0219466D02*
X0161795Y0219466D01*
X0162794Y0220464D02*
X0153092Y0220464D01*
X0154090Y0221463D02*
X0156079Y0221463D01*
X0154931Y0222461D02*
X0154750Y0222461D01*
X0154750Y0226455D02*
X0154946Y0226455D01*
X0154750Y0227454D02*
X0156115Y0227454D01*
X0154750Y0228452D02*
X0160779Y0228452D01*
X0160650Y0229451D02*
X0154750Y0229451D01*
X0154750Y0230449D02*
X0160650Y0230449D01*
X0160650Y0231448D02*
X0159385Y0231448D01*
X0160554Y0232446D02*
X0160650Y0232446D01*
X0160569Y0236440D02*
X0160650Y0236440D01*
X0160650Y0237439D02*
X0159421Y0237439D01*
X0167750Y0244451D02*
X0167750Y0244451D01*
X0167750Y0245427D02*
X0167750Y0245427D01*
X0167750Y0246425D02*
X0167750Y0246425D01*
X0167750Y0247424D02*
X0167750Y0247424D01*
X0166566Y0247424D02*
X0163411Y0247424D01*
X0162089Y0247424D02*
X0159457Y0247424D01*
X0165018Y0246425D02*
X0165221Y0246425D01*
X0157620Y0253851D02*
X0166720Y0262951D01*
X0167347Y0262951D01*
X0168449Y0263408D01*
X0169293Y0264251D01*
X0169750Y0265354D01*
X0169750Y0266548D01*
X0169293Y0267650D01*
X0168449Y0268494D01*
X0167347Y0268951D01*
X0166153Y0268951D01*
X0165051Y0268494D01*
X0164207Y0267650D01*
X0163750Y0266548D01*
X0163750Y0265921D01*
X0156507Y0258677D01*
X0155847Y0258951D01*
X0154653Y0258951D01*
X0153551Y0258494D01*
X0152707Y0257650D01*
X0152250Y0256548D01*
X0152250Y0255354D01*
X0152707Y0254251D01*
X0153551Y0253408D01*
X0154653Y0252951D01*
X0155847Y0252951D01*
X0156949Y0253408D01*
X0157393Y0253851D01*
X0157620Y0253851D01*
X0156957Y0253415D02*
X0178472Y0253415D01*
X0181225Y0258408D02*
X0181475Y0258408D01*
X0181475Y0259406D02*
X0181225Y0259406D01*
X0181225Y0260405D02*
X0181475Y0260405D01*
X0181475Y0261403D02*
X0181225Y0261403D01*
X0181225Y0262402D02*
X0181475Y0262402D01*
X0181475Y0263400D02*
X0181225Y0263400D01*
X0181225Y0264399D02*
X0181475Y0264399D01*
X0181475Y0265397D02*
X0181225Y0265397D01*
X0183775Y0265397D02*
X0245571Y0265397D01*
X0245571Y0264399D02*
X0184100Y0264399D01*
X0175442Y0265397D02*
X0169750Y0265397D01*
X0169750Y0266396D02*
X0245571Y0266396D01*
X0245571Y0267394D02*
X0169399Y0267394D01*
X0168551Y0268393D02*
X0245571Y0268393D01*
X0245571Y0269391D02*
X0039850Y0269391D01*
X0039850Y0268393D02*
X0164949Y0268393D01*
X0164101Y0267394D02*
X0039850Y0267394D01*
X0039850Y0266396D02*
X0163750Y0266396D01*
X0163227Y0265397D02*
X0039850Y0265397D01*
X0039850Y0264399D02*
X0162228Y0264399D01*
X0161230Y0263400D02*
X0039850Y0263400D01*
X0039850Y0262402D02*
X0160231Y0262402D01*
X0159232Y0261403D02*
X0039850Y0261403D01*
X0039850Y0260405D02*
X0158234Y0260405D01*
X0157235Y0259406D02*
X0039850Y0259406D01*
X0039850Y0258408D02*
X0153464Y0258408D01*
X0152607Y0257409D02*
X0039850Y0257409D01*
X0039850Y0256411D02*
X0152250Y0256411D01*
X0152250Y0255412D02*
X0039850Y0255412D01*
X0039850Y0254414D02*
X0152640Y0254414D01*
X0153543Y0253415D02*
X0039850Y0253415D01*
X0039850Y0252417D02*
X0117887Y0252417D01*
X0116889Y0251418D02*
X0039850Y0251418D01*
X0039850Y0250420D02*
X0115890Y0250420D01*
X0114892Y0249421D02*
X0039850Y0249421D01*
X0039850Y0248422D02*
X0113893Y0248422D01*
X0112895Y0247424D02*
X0039850Y0247424D01*
X0039850Y0246425D02*
X0111896Y0246425D01*
X0110898Y0245427D02*
X0039850Y0245427D01*
X0039850Y0244428D02*
X0109899Y0244428D01*
X0108901Y0243430D02*
X0039850Y0243430D01*
X0039850Y0242431D02*
X0107902Y0242431D01*
X0106904Y0241433D02*
X0039850Y0241433D01*
X0039850Y0240434D02*
X0105905Y0240434D01*
X0104907Y0239436D02*
X0039850Y0239436D01*
X0039850Y0238437D02*
X0103908Y0238437D01*
X0102910Y0237439D02*
X0039850Y0237439D01*
X0039850Y0236440D02*
X0101911Y0236440D01*
X0100913Y0235442D02*
X0039850Y0235442D01*
X0040367Y0234443D02*
X0042170Y0234443D01*
X0045288Y0234443D02*
X0099914Y0234443D01*
X0098916Y0233445D02*
X0046287Y0233445D01*
X0046137Y0233594D02*
X0046137Y0233594D01*
X0047285Y0232446D02*
X0097917Y0232446D01*
X0096919Y0231448D02*
X0047455Y0231448D01*
X0047455Y0230449D02*
X0095920Y0230449D01*
X0094922Y0229451D02*
X0047455Y0229451D01*
X0047455Y0228452D02*
X0093923Y0228452D01*
X0092925Y0227454D02*
X0046465Y0227454D01*
X0046831Y0226455D02*
X0091926Y0226455D01*
X0090928Y0225457D02*
X0047455Y0225457D01*
X0047455Y0224458D02*
X0089929Y0224458D01*
X0088930Y0223460D02*
X0047455Y0223460D01*
X0047455Y0222461D02*
X0087932Y0222461D01*
X0086933Y0221463D02*
X0046919Y0221463D01*
X0047225Y0220464D02*
X0085935Y0220464D01*
X0084936Y0219466D02*
X0047505Y0219466D01*
X0047306Y0218467D02*
X0082524Y0218467D01*
X0081924Y0217469D02*
X0046310Y0217469D01*
X0047306Y0216470D02*
X0081750Y0216470D01*
X0081908Y0215472D02*
X0047505Y0215472D01*
X0047224Y0214473D02*
X0082485Y0214473D01*
X0084096Y0213475D02*
X0050441Y0213475D01*
X0052810Y0212476D02*
X0084447Y0212476D01*
X0085404Y0213475D02*
X0085445Y0213475D01*
X0083448Y0211478D02*
X0054000Y0211478D01*
X0055124Y0210479D02*
X0082450Y0210479D01*
X0081451Y0209481D02*
X0055700Y0209481D01*
X0056277Y0208482D02*
X0080453Y0208482D01*
X0079454Y0207484D02*
X0056760Y0207484D01*
X0056936Y0206485D02*
X0062329Y0206485D01*
X0061477Y0205487D02*
X0057112Y0205487D01*
X0057288Y0204488D02*
X0061100Y0204488D01*
X0061100Y0203489D02*
X0057125Y0203489D01*
X0057295Y0204451D02*
X0057295Y0204451D01*
X0056949Y0202491D02*
X0061445Y0202491D01*
X0062254Y0201492D02*
X0056773Y0201492D01*
X0056719Y0201186D02*
X0056719Y0201186D01*
X0056320Y0200494D02*
X0079965Y0200494D01*
X0080963Y0201492D02*
X0066246Y0201492D01*
X0064340Y0199495D02*
X0055743Y0199495D01*
X0055167Y0198497D02*
X0063481Y0198497D01*
X0063100Y0197498D02*
X0054088Y0197498D01*
X0055062Y0198315D02*
X0055062Y0198315D01*
X0055062Y0198315D01*
X0052898Y0196500D02*
X0063100Y0196500D01*
X0063441Y0195501D02*
X0050645Y0195501D01*
X0052522Y0196185D02*
X0052523Y0196185D01*
X0044855Y0195501D02*
X0039850Y0195501D01*
X0039850Y0194503D02*
X0064243Y0194503D01*
X0068257Y0194503D02*
X0147250Y0194503D01*
X0147250Y0195501D02*
X0148250Y0195501D01*
X0148250Y0196500D02*
X0147250Y0196500D01*
X0147250Y0197498D02*
X0148250Y0197498D01*
X0148250Y0198497D02*
X0147250Y0198497D01*
X0147250Y0199495D02*
X0148250Y0199495D01*
X0149052Y0199495D02*
X0155818Y0199495D01*
X0154159Y0198497D02*
X0151028Y0198497D01*
X0151963Y0197498D02*
X0153167Y0197498D01*
X0152754Y0196500D02*
X0152542Y0196500D01*
X0146448Y0199495D02*
X0084623Y0199495D01*
X0083625Y0198497D02*
X0144472Y0198497D01*
X0143537Y0197498D02*
X0082626Y0197498D01*
X0081628Y0196500D02*
X0142958Y0196500D01*
X0142652Y0195501D02*
X0080629Y0195501D01*
X0078966Y0199495D02*
X0068160Y0199495D01*
X0066171Y0206485D02*
X0078456Y0206485D01*
X0081117Y0203489D02*
X0082960Y0203489D01*
X0082116Y0204488D02*
X0083959Y0204488D01*
X0083114Y0205487D02*
X0084957Y0205487D01*
X0084113Y0206485D02*
X0085956Y0206485D01*
X0085111Y0207484D02*
X0086954Y0207484D01*
X0086110Y0208482D02*
X0087953Y0208482D01*
X0087108Y0209481D02*
X0088951Y0209481D01*
X0088107Y0210479D02*
X0089950Y0210479D01*
X0089105Y0211478D02*
X0090948Y0211478D01*
X0090104Y0212476D02*
X0091947Y0212476D01*
X0091102Y0213475D02*
X0092945Y0213475D01*
X0092101Y0214473D02*
X0093944Y0214473D01*
X0093099Y0215472D02*
X0094942Y0215472D01*
X0094098Y0216470D02*
X0095941Y0216470D01*
X0095096Y0217469D02*
X0096939Y0217469D01*
X0096095Y0218467D02*
X0097938Y0218467D01*
X0097093Y0219466D02*
X0098936Y0219466D01*
X0098092Y0220464D02*
X0099935Y0220464D01*
X0099090Y0221463D02*
X0100933Y0221463D01*
X0100089Y0222461D02*
X0101932Y0222461D01*
X0101087Y0223460D02*
X0102930Y0223460D01*
X0102086Y0224458D02*
X0103929Y0224458D01*
X0103084Y0225457D02*
X0104928Y0225457D01*
X0104083Y0226455D02*
X0105926Y0226455D01*
X0105081Y0227454D02*
X0106925Y0227454D01*
X0106080Y0228452D02*
X0107923Y0228452D01*
X0107078Y0229451D02*
X0108922Y0229451D01*
X0108077Y0230449D02*
X0109920Y0230449D01*
X0109075Y0231448D02*
X0110919Y0231448D01*
X0110074Y0232446D02*
X0111917Y0232446D01*
X0111072Y0233445D02*
X0112916Y0233445D01*
X0112071Y0234443D02*
X0113914Y0234443D01*
X0113069Y0235442D02*
X0114913Y0235442D01*
X0114068Y0236440D02*
X0115911Y0236440D01*
X0115066Y0237439D02*
X0116910Y0237439D01*
X0116065Y0238437D02*
X0117908Y0238437D01*
X0117063Y0239436D02*
X0118907Y0239436D01*
X0119600Y0240434D02*
X0118062Y0240434D01*
X0119061Y0241433D02*
X0119747Y0241433D01*
X0120059Y0242431D02*
X0120276Y0242431D01*
X0146067Y0221463D02*
X0148433Y0221463D01*
X0147435Y0220464D02*
X0147065Y0220464D01*
X0152534Y0211478D02*
X0096605Y0211478D01*
X0097604Y0212476D02*
X0154805Y0212476D01*
X0151929Y0210479D02*
X0095607Y0210479D01*
X0094608Y0209481D02*
X0151750Y0209481D01*
X0151904Y0208482D02*
X0093610Y0208482D01*
X0092611Y0207484D02*
X0152475Y0207484D01*
X0154071Y0206485D02*
X0091613Y0206485D01*
X0090614Y0205487D02*
X0165750Y0205487D01*
X0165750Y0206485D02*
X0155429Y0206485D01*
X0157025Y0207484D02*
X0162074Y0207484D01*
X0163426Y0207484D02*
X0165750Y0207484D01*
X0165750Y0204488D02*
X0089616Y0204488D01*
X0088617Y0203489D02*
X0165750Y0203489D01*
X0165750Y0202491D02*
X0087619Y0202491D01*
X0086620Y0201492D02*
X0165750Y0201492D01*
X0165750Y0200494D02*
X0085622Y0200494D01*
X0081962Y0202491D02*
X0080119Y0202491D01*
X0042602Y0196500D02*
X0039850Y0196500D01*
X0039850Y0197498D02*
X0041412Y0197498D01*
X0040438Y0198315D02*
X0040438Y0198315D01*
X0040333Y0198497D02*
X0039850Y0198497D01*
X0039850Y0193504D02*
X0142635Y0193504D01*
X0142914Y0192506D02*
X0039850Y0192506D01*
X0157596Y0208482D02*
X0160476Y0208482D01*
X0159905Y0209481D02*
X0157750Y0209481D01*
X0158748Y0210479D02*
X0159750Y0210479D01*
X0159747Y0211478D02*
X0159928Y0211478D01*
X0161744Y0213475D02*
X0165445Y0213475D01*
X0166444Y0214473D02*
X0162742Y0214473D01*
X0163741Y0215472D02*
X0167442Y0215472D01*
X0168441Y0216470D02*
X0164739Y0216470D01*
X0165738Y0217469D02*
X0169439Y0217469D01*
X0170438Y0218467D02*
X0166736Y0218467D01*
X0167735Y0219466D02*
X0171436Y0219466D01*
X0172435Y0220464D02*
X0168733Y0220464D01*
X0169732Y0221463D02*
X0173433Y0221463D01*
X0174432Y0222461D02*
X0170569Y0222461D01*
X0171020Y0223460D02*
X0175430Y0223460D01*
X0176429Y0224458D02*
X0171150Y0224458D01*
X0171013Y0225457D02*
X0177428Y0225457D01*
X0178426Y0226455D02*
X0170554Y0226455D01*
X0169385Y0227454D02*
X0179425Y0227454D01*
X0180423Y0228452D02*
X0166718Y0228452D01*
X0165720Y0229451D02*
X0181422Y0229451D01*
X0181750Y0230449D02*
X0164850Y0230449D01*
X0164850Y0231448D02*
X0166115Y0231448D01*
X0164946Y0232446D02*
X0164850Y0232446D01*
X0169385Y0231448D02*
X0181750Y0231448D01*
X0181750Y0232446D02*
X0170554Y0232446D01*
X0171013Y0233445D02*
X0181750Y0233445D01*
X0181750Y0234443D02*
X0171150Y0234443D01*
X0171020Y0235442D02*
X0181750Y0235442D01*
X0181750Y0236440D02*
X0170569Y0236440D01*
X0161777Y0227454D02*
X0159385Y0227454D01*
X0160554Y0226455D02*
X0162776Y0226455D01*
X0163774Y0225457D02*
X0161013Y0225457D01*
X0161150Y0224458D02*
X0164350Y0224458D01*
X0164480Y0223460D02*
X0161020Y0223460D01*
X0160569Y0222461D02*
X0164791Y0222461D01*
X0163792Y0221463D02*
X0159421Y0221463D01*
X0156115Y0231448D02*
X0154750Y0231448D01*
X0174604Y0212476D02*
X0175750Y0212476D01*
X0175750Y0211478D02*
X0173605Y0211478D01*
X0172607Y0210479D02*
X0175750Y0210479D01*
X0175750Y0209481D02*
X0171608Y0209481D01*
X0170610Y0208482D02*
X0175750Y0208482D01*
X0175750Y0207484D02*
X0169750Y0207484D01*
X0169750Y0207622D02*
X0175750Y0213622D01*
X0175750Y0199467D01*
X0174691Y0199029D01*
X0173172Y0197510D01*
X0172750Y0196491D01*
X0172328Y0197510D01*
X0170809Y0199029D01*
X0169750Y0199467D01*
X0169750Y0207622D01*
X0169750Y0206485D02*
X0175750Y0206485D01*
X0175750Y0205487D02*
X0169750Y0205487D01*
X0169750Y0204488D02*
X0175750Y0204488D01*
X0175750Y0203489D02*
X0169750Y0203489D01*
X0169750Y0202491D02*
X0175750Y0202491D01*
X0175750Y0201492D02*
X0169750Y0201492D01*
X0169750Y0200494D02*
X0175750Y0200494D01*
X0175750Y0199495D02*
X0169750Y0199495D01*
X0171341Y0198497D02*
X0174159Y0198497D01*
X0173167Y0197498D02*
X0172333Y0197498D01*
X0172746Y0196500D02*
X0172754Y0196500D01*
X0179750Y0199495D02*
X0180750Y0199495D01*
X0180750Y0200494D02*
X0179750Y0200494D01*
X0179750Y0201492D02*
X0180750Y0201492D01*
X0180750Y0202491D02*
X0179750Y0202491D01*
X0179750Y0203489D02*
X0180750Y0203489D01*
X0180470Y0204488D02*
X0179750Y0204488D01*
X0179750Y0205487D02*
X0179902Y0205487D01*
X0179750Y0206485D02*
X0179750Y0206485D01*
X0179750Y0207484D02*
X0179931Y0207484D01*
X0179750Y0208482D02*
X0180539Y0208482D01*
X0184961Y0208482D02*
X0235079Y0208482D01*
X0232977Y0207717D02*
X0232977Y0207717D01*
X0232699Y0207484D02*
X0185569Y0207484D01*
X0185750Y0206485D02*
X0231509Y0206485D01*
X0230438Y0205586D02*
X0230438Y0205586D01*
X0230438Y0205586D01*
X0230381Y0205487D02*
X0185598Y0205487D01*
X0185030Y0204488D02*
X0229804Y0204488D01*
X0229228Y0203489D02*
X0184750Y0203489D01*
X0184750Y0202491D02*
X0228741Y0202491D01*
X0228781Y0202715D02*
X0228781Y0202715D01*
X0228565Y0201492D02*
X0184750Y0201492D01*
X0184750Y0200494D02*
X0228389Y0200494D01*
X0228213Y0199495D02*
X0189682Y0199495D01*
X0191341Y0198497D02*
X0228373Y0198497D01*
X0228549Y0197498D02*
X0192333Y0197498D01*
X0192746Y0196500D02*
X0228725Y0196500D01*
X0228781Y0196186D02*
X0228781Y0196186D01*
X0229176Y0195501D02*
X0193150Y0195501D01*
X0193150Y0194503D02*
X0229752Y0194503D01*
X0230329Y0193504D02*
X0193150Y0193504D01*
X0192789Y0192506D02*
X0231403Y0192506D01*
X0230438Y0193315D02*
X0230438Y0193315D01*
X0238598Y0216470D02*
X0245571Y0216470D01*
X0185818Y0199495D02*
X0185534Y0199495D01*
X0165750Y0199495D02*
X0159682Y0199495D01*
X0161341Y0198497D02*
X0164159Y0198497D01*
X0163167Y0197498D02*
X0162333Y0197498D01*
X0162746Y0196500D02*
X0162754Y0196500D01*
X0175602Y0213475D02*
X0175750Y0213475D01*
X0175539Y0258408D02*
X0162177Y0258408D01*
X0163175Y0259406D02*
X0171054Y0259406D01*
X0170143Y0260405D02*
X0164174Y0260405D01*
X0165172Y0261403D02*
X0169750Y0261403D01*
X0169750Y0262402D02*
X0166171Y0262402D01*
X0168432Y0263400D02*
X0170103Y0263400D01*
X0169354Y0264399D02*
X0170955Y0264399D01*
X0174545Y0264399D02*
X0175200Y0264399D01*
X0175200Y0259406D02*
X0174446Y0259406D01*
X0366671Y0231448D02*
X0368037Y0231448D01*
X0371306Y0227454D02*
X0373698Y0227454D01*
X0374697Y0226455D02*
X0372475Y0226455D01*
X0372935Y0225457D02*
X0375696Y0225457D01*
X0376271Y0224458D02*
X0373071Y0224458D01*
X0372941Y0223460D02*
X0376402Y0223460D01*
X0376712Y0222461D02*
X0372490Y0222461D01*
X0371342Y0221463D02*
X0375713Y0221463D01*
X0378657Y0218467D02*
X0382359Y0218467D01*
X0381361Y0217469D02*
X0377659Y0217469D01*
X0376660Y0216470D02*
X0380362Y0216470D01*
X0379364Y0215472D02*
X0375662Y0215472D01*
X0374663Y0214473D02*
X0378365Y0214473D01*
X0377367Y0213475D02*
X0373665Y0213475D01*
X0371849Y0211478D02*
X0371668Y0211478D01*
X0371671Y0210479D02*
X0370669Y0210479D01*
X0369671Y0209481D02*
X0371826Y0209481D01*
X0372397Y0208482D02*
X0369517Y0208482D01*
X0381671Y0207622D02*
X0387671Y0213622D01*
X0387671Y0199467D01*
X0386612Y0199029D01*
X0385093Y0197510D01*
X0384671Y0196491D01*
X0384249Y0197510D01*
X0382730Y0199029D01*
X0381671Y0199467D01*
X0381671Y0207622D01*
X0381671Y0207484D02*
X0387671Y0207484D01*
X0387671Y0208482D02*
X0382531Y0208482D01*
X0383529Y0209481D02*
X0387671Y0209481D01*
X0387671Y0210479D02*
X0384528Y0210479D01*
X0385526Y0211478D02*
X0387671Y0211478D01*
X0387671Y0212476D02*
X0386525Y0212476D01*
X0387523Y0213475D02*
X0387671Y0213475D01*
X0391671Y0208482D02*
X0392460Y0208482D01*
X0391852Y0207484D02*
X0391671Y0207484D01*
X0391671Y0206485D02*
X0391671Y0206485D01*
X0391671Y0205487D02*
X0391824Y0205487D01*
X0391671Y0204488D02*
X0392391Y0204488D01*
X0392671Y0203489D02*
X0391671Y0203489D01*
X0391671Y0202491D02*
X0392671Y0202491D01*
X0392671Y0201492D02*
X0391671Y0201492D01*
X0391671Y0200494D02*
X0392671Y0200494D01*
X0392671Y0199495D02*
X0391671Y0199495D01*
X0387671Y0199495D02*
X0381671Y0199495D01*
X0381671Y0200494D02*
X0387671Y0200494D01*
X0387671Y0201492D02*
X0381671Y0201492D01*
X0381671Y0202491D02*
X0387671Y0202491D01*
X0387671Y0203489D02*
X0381671Y0203489D01*
X0381671Y0204488D02*
X0387671Y0204488D01*
X0387671Y0205487D02*
X0381671Y0205487D01*
X0381671Y0206485D02*
X0387671Y0206485D01*
X0386081Y0198497D02*
X0383262Y0198497D01*
X0384254Y0197498D02*
X0385089Y0197498D01*
X0384675Y0196500D02*
X0384667Y0196500D01*
X0377671Y0199495D02*
X0371603Y0199495D01*
X0373262Y0198497D02*
X0376081Y0198497D01*
X0375089Y0197498D02*
X0374254Y0197498D01*
X0374667Y0196500D02*
X0374675Y0196500D01*
X0379656Y0219466D02*
X0383358Y0219466D01*
X0384356Y0220464D02*
X0380655Y0220464D01*
X0381653Y0221463D02*
X0385355Y0221463D01*
X0386353Y0222461D02*
X0382490Y0222461D01*
X0382941Y0223460D02*
X0387352Y0223460D01*
X0388350Y0224458D02*
X0383071Y0224458D01*
X0382935Y0225457D02*
X0389349Y0225457D01*
X0390347Y0226455D02*
X0382475Y0226455D01*
X0381306Y0227454D02*
X0391346Y0227454D01*
X0392344Y0228452D02*
X0378640Y0228452D01*
X0377641Y0229451D02*
X0393343Y0229451D01*
X0393671Y0230449D02*
X0376771Y0230449D01*
X0376771Y0231448D02*
X0378037Y0231448D01*
X0376867Y0232446D02*
X0376771Y0232446D01*
X0381306Y0231448D02*
X0393671Y0231448D01*
X0393671Y0232446D02*
X0382475Y0232446D01*
X0382935Y0233445D02*
X0393671Y0233445D01*
X0393671Y0234443D02*
X0383071Y0234443D01*
X0382941Y0235442D02*
X0393671Y0235442D01*
X0393671Y0236440D02*
X0382490Y0236440D01*
X0387460Y0258408D02*
X0374098Y0258408D01*
X0375096Y0259406D02*
X0382975Y0259406D01*
X0382065Y0260405D02*
X0376095Y0260405D01*
X0377093Y0261403D02*
X0381671Y0261403D01*
X0381671Y0262402D02*
X0378092Y0262402D01*
X0380353Y0263400D02*
X0382024Y0263400D01*
X0381276Y0264399D02*
X0382877Y0264399D01*
X0386466Y0264399D02*
X0387121Y0264399D01*
X0387121Y0259406D02*
X0386367Y0259406D01*
D14*
X0389671Y0194451D03*
X0379671Y0194451D03*
X0369671Y0194451D03*
X0359671Y0194451D03*
X0399671Y0194451D03*
X0187750Y0194451D03*
X0177750Y0194451D03*
X0167750Y0194451D03*
X0157750Y0194451D03*
X0147750Y0194451D03*
X0147750Y0033750D03*
X0157750Y0033750D03*
X0167750Y0033750D03*
X0177750Y0033750D03*
X0187750Y0033750D03*
X0359671Y0033750D03*
X0369671Y0033750D03*
X0379671Y0033750D03*
X0389671Y0033750D03*
X0399671Y0033750D03*
D15*
X0393271Y0101250D03*
X0390071Y0101250D03*
X0181350Y0101250D03*
X0178150Y0101250D03*
X0178150Y0261951D03*
X0181350Y0261951D03*
X0390071Y0261951D03*
X0393271Y0261951D03*
D16*
X0384671Y0261951D03*
X0378671Y0265951D03*
X0367171Y0255951D03*
X0374671Y0244451D03*
X0364671Y0239451D03*
X0384671Y0229451D03*
X0399671Y0232951D03*
X0399671Y0237451D03*
X0392171Y0250951D03*
X0418171Y0259951D03*
X0414671Y0272951D03*
X0407671Y0272951D03*
X0433671Y0257951D03*
X0429671Y0244451D03*
X0433671Y0239451D03*
X0429671Y0234451D03*
X0424671Y0237451D03*
X0421171Y0234451D03*
X0441671Y0244451D03*
X0444671Y0222451D03*
X0429671Y0219451D03*
X0404171Y0205451D03*
X0394671Y0206451D03*
X0384671Y0204451D03*
X0374671Y0204451D03*
X0374671Y0210451D03*
X0366671Y0209451D03*
X0359671Y0212951D03*
X0359171Y0217451D03*
X0334671Y0220451D03*
X0296671Y0216451D03*
X0232750Y0222451D03*
X0217750Y0219451D03*
X0217750Y0234451D03*
X0212750Y0237451D03*
X0209250Y0234451D03*
X0217750Y0244451D03*
X0221750Y0239451D03*
X0229750Y0244451D03*
X0221750Y0257951D03*
X0206250Y0259951D03*
X0202750Y0272951D03*
X0195750Y0272951D03*
X0172750Y0261951D03*
X0166750Y0265951D03*
X0155250Y0255951D03*
X0162750Y0244451D03*
X0152750Y0239451D03*
X0172750Y0229451D03*
X0187750Y0232951D03*
X0187750Y0237451D03*
X0180250Y0250951D03*
X0151250Y0272951D03*
X0144250Y0272951D03*
X0147250Y0217451D03*
X0147750Y0212951D03*
X0154750Y0209451D03*
X0162750Y0210451D03*
X0162750Y0204451D03*
X0172750Y0204451D03*
X0182750Y0206451D03*
X0192250Y0205451D03*
X0122750Y0220451D03*
X0084750Y0216451D03*
X0144250Y0112250D03*
X0151250Y0112250D03*
X0166750Y0105250D03*
X0172750Y0101250D03*
X0180250Y0090250D03*
X0187750Y0076750D03*
X0187750Y0072250D03*
X0172750Y0068750D03*
X0162750Y0083750D03*
X0152750Y0078750D03*
X0155250Y0095250D03*
X0195750Y0112250D03*
X0202750Y0112250D03*
X0206250Y0099250D03*
X0221750Y0097250D03*
X0217750Y0083750D03*
X0221750Y0078750D03*
X0217750Y0073750D03*
X0212750Y0076750D03*
X0209250Y0073750D03*
X0217750Y0058750D03*
X0232750Y0061750D03*
X0229750Y0083750D03*
X0192250Y0044750D03*
X0182750Y0045750D03*
X0172750Y0043750D03*
X0162750Y0043750D03*
X0162750Y0049750D03*
X0154750Y0048750D03*
X0147750Y0052250D03*
X0147250Y0056750D03*
X0122750Y0059750D03*
X0084750Y0055750D03*
X0296671Y0055750D03*
X0334671Y0059750D03*
X0359171Y0056750D03*
X0359671Y0052250D03*
X0366671Y0048750D03*
X0374671Y0049750D03*
X0374671Y0043750D03*
X0384671Y0043750D03*
X0394671Y0045750D03*
X0404171Y0044750D03*
X0429671Y0058750D03*
X0429671Y0073750D03*
X0424671Y0076750D03*
X0421171Y0073750D03*
X0433671Y0078750D03*
X0429671Y0083750D03*
X0441671Y0083750D03*
X0433671Y0097250D03*
X0418171Y0099250D03*
X0414671Y0112250D03*
X0407671Y0112250D03*
X0384671Y0101250D03*
X0378671Y0105250D03*
X0363171Y0112250D03*
X0356171Y0112250D03*
X0367171Y0095250D03*
X0374671Y0083750D03*
X0364671Y0078750D03*
X0384671Y0068750D03*
X0399671Y0072250D03*
X0399671Y0076750D03*
X0392171Y0090250D03*
X0444671Y0061750D03*
X0363171Y0272951D03*
X0356171Y0272951D03*
D17*
X0367171Y0255951D02*
X0368671Y0255951D01*
X0378671Y0265951D01*
X0384671Y0261951D02*
X0390071Y0261951D01*
X0408171Y0259951D02*
X0387671Y0239451D01*
X0374671Y0239451D01*
X0374671Y0229451D01*
X0379671Y0224451D01*
X0379671Y0222451D01*
X0366671Y0209451D01*
X0374671Y0239451D02*
X0374671Y0244451D01*
X0408171Y0259951D02*
X0418171Y0259951D01*
X0431671Y0259951D01*
X0433671Y0257951D01*
X0442171Y0257951D01*
X0454671Y0245451D01*
X0454671Y0225951D01*
X0453171Y0224451D01*
X0449671Y0224451D01*
X0446671Y0224451D01*
X0444671Y0222451D01*
X0378671Y0105250D02*
X0368671Y0095250D01*
X0367171Y0095250D01*
X0374671Y0083750D02*
X0374671Y0078750D01*
X0387671Y0078750D01*
X0408171Y0099250D01*
X0418171Y0099250D01*
X0431671Y0099250D01*
X0433671Y0097250D01*
X0442171Y0097250D01*
X0454671Y0084750D01*
X0454671Y0065250D01*
X0453171Y0063750D01*
X0449671Y0063750D01*
X0446671Y0063750D01*
X0444671Y0061750D01*
X0390071Y0101250D02*
X0384671Y0101250D01*
X0374671Y0078750D02*
X0374671Y0068750D01*
X0379671Y0063750D01*
X0379671Y0061750D01*
X0366671Y0048750D01*
X0242750Y0065250D02*
X0241250Y0063750D01*
X0237750Y0063750D01*
X0234750Y0063750D01*
X0232750Y0061750D01*
X0242750Y0065250D02*
X0242750Y0084750D01*
X0230250Y0097250D01*
X0221750Y0097250D01*
X0219750Y0099250D01*
X0206250Y0099250D01*
X0196250Y0099250D01*
X0175750Y0078750D01*
X0162750Y0078750D01*
X0162750Y0068750D01*
X0167750Y0063750D01*
X0167750Y0061750D01*
X0154750Y0048750D01*
X0162750Y0078750D02*
X0162750Y0083750D01*
X0156750Y0095250D02*
X0166750Y0105250D01*
X0172750Y0101250D02*
X0178150Y0101250D01*
X0156750Y0095250D02*
X0155250Y0095250D01*
X0154750Y0209451D02*
X0167750Y0222451D01*
X0167750Y0224451D01*
X0162750Y0229451D01*
X0162750Y0239451D01*
X0175750Y0239451D01*
X0196250Y0259951D01*
X0206250Y0259951D01*
X0219750Y0259951D01*
X0221750Y0257951D01*
X0230250Y0257951D01*
X0242750Y0245451D01*
X0242750Y0225951D01*
X0241250Y0224451D01*
X0237750Y0224451D01*
X0234750Y0224451D01*
X0232750Y0222451D01*
X0178150Y0261951D02*
X0172750Y0261951D01*
X0166750Y0265951D02*
X0156750Y0255951D01*
X0155250Y0255951D01*
X0162750Y0244451D02*
X0162750Y0239451D01*
D18*
X0157750Y0234451D02*
X0154750Y0234451D01*
X0152750Y0232451D01*
X0152750Y0222951D01*
X0147250Y0217451D01*
X0144250Y0220451D01*
X0122750Y0220451D01*
X0122750Y0240451D02*
X0079250Y0196951D01*
X0066250Y0196951D01*
X0064250Y0203951D02*
X0078750Y0203951D01*
X0121250Y0246451D01*
X0119250Y0250951D02*
X0180250Y0250951D01*
X0189750Y0249451D02*
X0189750Y0246451D01*
X0183750Y0240451D01*
X0183750Y0228951D01*
X0165250Y0210451D01*
X0162750Y0210451D01*
X0167750Y0208451D02*
X0187750Y0228451D01*
X0187750Y0232951D01*
X0207750Y0232951D01*
X0209250Y0234451D01*
X0212750Y0231451D02*
X0212750Y0237451D01*
X0187750Y0237451D01*
X0192750Y0229451D02*
X0210750Y0229451D01*
X0212750Y0231451D01*
X0221750Y0224451D02*
X0227750Y0218451D01*
X0237750Y0218451D01*
X0237750Y0220451D01*
X0237750Y0228451D02*
X0237750Y0230451D01*
X0223750Y0244451D01*
X0217750Y0244451D01*
X0221750Y0239451D02*
X0221750Y0224451D01*
X0192750Y0229451D02*
X0177750Y0214451D01*
X0177750Y0194451D01*
X0182750Y0199451D02*
X0187750Y0194451D01*
X0182750Y0199451D02*
X0182750Y0206451D01*
X0167750Y0208451D02*
X0167750Y0194451D01*
X0119250Y0250951D02*
X0084750Y0216451D01*
X0142750Y0271451D02*
X0142750Y0274451D01*
X0152750Y0274451D01*
X0152750Y0271451D01*
X0142750Y0271451D01*
X0142750Y0271746D02*
X0152750Y0271746D01*
X0152750Y0272344D02*
X0142750Y0272344D01*
X0142750Y0272943D02*
X0152750Y0272943D01*
X0152750Y0273541D02*
X0142750Y0273541D01*
X0142750Y0274140D02*
X0152750Y0274140D01*
X0194250Y0274140D02*
X0204250Y0274140D01*
X0204250Y0274451D02*
X0194250Y0274451D01*
X0194250Y0271451D01*
X0204250Y0271451D01*
X0204250Y0274451D01*
X0204250Y0273541D02*
X0194250Y0273541D01*
X0194250Y0272943D02*
X0204250Y0272943D01*
X0204250Y0272344D02*
X0194250Y0272344D01*
X0194250Y0271746D02*
X0204250Y0271746D01*
X0276171Y0203951D02*
X0290671Y0203951D01*
X0333171Y0246451D01*
X0331171Y0250951D02*
X0392171Y0250951D01*
X0401671Y0249451D02*
X0401671Y0246451D01*
X0395671Y0240451D01*
X0395671Y0228951D01*
X0377171Y0210451D01*
X0374671Y0210451D01*
X0379671Y0208451D02*
X0399671Y0228451D01*
X0399671Y0232951D01*
X0419671Y0232951D01*
X0421171Y0234451D01*
X0424671Y0231451D02*
X0424671Y0237451D01*
X0399671Y0237451D01*
X0404671Y0229451D02*
X0422671Y0229451D01*
X0424671Y0231451D01*
X0433671Y0224451D02*
X0439671Y0218451D01*
X0449671Y0218451D01*
X0449671Y0220451D01*
X0449671Y0228451D02*
X0449671Y0230451D01*
X0435671Y0244451D01*
X0429671Y0244451D01*
X0433671Y0239451D02*
X0433671Y0224451D01*
X0404671Y0229451D02*
X0389671Y0214451D01*
X0389671Y0194451D01*
X0394671Y0199451D02*
X0399671Y0194451D01*
X0394671Y0199451D02*
X0394671Y0206451D01*
X0379671Y0208451D02*
X0379671Y0194451D01*
X0359171Y0217451D02*
X0356171Y0220451D01*
X0334671Y0220451D01*
X0359171Y0217451D02*
X0364671Y0222951D01*
X0364671Y0232451D01*
X0366671Y0234451D01*
X0369671Y0234451D01*
X0334671Y0240451D02*
X0291171Y0196951D01*
X0278171Y0196951D01*
X0296671Y0216451D02*
X0331171Y0250951D01*
X0354671Y0271451D02*
X0354671Y0274451D01*
X0364671Y0274451D01*
X0364671Y0271451D01*
X0354671Y0271451D01*
X0354671Y0271746D02*
X0364671Y0271746D01*
X0364671Y0272344D02*
X0354671Y0272344D01*
X0354671Y0272943D02*
X0364671Y0272943D01*
X0364671Y0273541D02*
X0354671Y0273541D01*
X0354671Y0274140D02*
X0364671Y0274140D01*
X0406171Y0274140D02*
X0416171Y0274140D01*
X0416171Y0274451D02*
X0406171Y0274451D01*
X0406171Y0271451D01*
X0416171Y0271451D01*
X0416171Y0274451D01*
X0416171Y0273541D02*
X0406171Y0273541D01*
X0406171Y0272943D02*
X0416171Y0272943D01*
X0416171Y0272344D02*
X0406171Y0272344D01*
X0406171Y0271746D02*
X0416171Y0271746D01*
X0416171Y0113750D02*
X0406171Y0113750D01*
X0406171Y0110750D01*
X0416171Y0110750D01*
X0416171Y0113750D01*
X0416171Y0113739D02*
X0406171Y0113739D01*
X0406171Y0113140D02*
X0416171Y0113140D01*
X0416171Y0112542D02*
X0406171Y0112542D01*
X0406171Y0111943D02*
X0416171Y0111943D01*
X0416171Y0111345D02*
X0406171Y0111345D01*
X0401671Y0088750D02*
X0401671Y0085750D01*
X0395671Y0079750D01*
X0395671Y0068250D01*
X0377171Y0049750D01*
X0374671Y0049750D01*
X0379671Y0047750D02*
X0399671Y0067750D01*
X0399671Y0072250D01*
X0419671Y0072250D01*
X0421171Y0073750D01*
X0424671Y0070750D02*
X0424671Y0076750D01*
X0399671Y0076750D01*
X0404671Y0068750D02*
X0422671Y0068750D01*
X0424671Y0070750D01*
X0433671Y0063750D02*
X0439671Y0057750D01*
X0449671Y0057750D01*
X0449671Y0059750D01*
X0449671Y0067750D02*
X0449671Y0069750D01*
X0435671Y0083750D01*
X0429671Y0083750D01*
X0433671Y0078750D02*
X0433671Y0063750D01*
X0404671Y0068750D02*
X0389671Y0053750D01*
X0389671Y0033750D01*
X0394671Y0038750D02*
X0399671Y0033750D01*
X0394671Y0038750D02*
X0394671Y0045750D01*
X0379671Y0047750D02*
X0379671Y0033750D01*
X0359171Y0056750D02*
X0364671Y0062250D01*
X0364671Y0071750D01*
X0366671Y0073750D01*
X0369671Y0073750D01*
X0356171Y0059750D02*
X0359171Y0056750D01*
X0356171Y0059750D02*
X0334671Y0059750D01*
X0334671Y0079750D02*
X0291171Y0036250D01*
X0278171Y0036250D01*
X0276171Y0043250D02*
X0290671Y0043250D01*
X0333171Y0085750D01*
X0331171Y0090250D02*
X0392171Y0090250D01*
X0364671Y0110750D02*
X0354671Y0110750D01*
X0354671Y0113750D01*
X0364671Y0113750D01*
X0364671Y0110750D01*
X0364671Y0111345D02*
X0354671Y0111345D01*
X0354671Y0111943D02*
X0364671Y0111943D01*
X0364671Y0112542D02*
X0354671Y0112542D01*
X0354671Y0113140D02*
X0364671Y0113140D01*
X0364671Y0113739D02*
X0354671Y0113739D01*
X0331171Y0090250D02*
X0296671Y0055750D01*
X0237750Y0057750D02*
X0237750Y0059750D01*
X0237750Y0057750D02*
X0227750Y0057750D01*
X0221750Y0063750D01*
X0221750Y0078750D01*
X0223750Y0083750D02*
X0217750Y0083750D01*
X0223750Y0083750D02*
X0237750Y0069750D01*
X0237750Y0067750D01*
X0212750Y0070750D02*
X0210750Y0068750D01*
X0192750Y0068750D01*
X0177750Y0053750D01*
X0177750Y0033750D01*
X0182750Y0038750D02*
X0187750Y0033750D01*
X0182750Y0038750D02*
X0182750Y0045750D01*
X0167750Y0047750D02*
X0167750Y0033750D01*
X0167750Y0047750D02*
X0187750Y0067750D01*
X0187750Y0072250D01*
X0207750Y0072250D01*
X0209250Y0073750D01*
X0212750Y0070750D02*
X0212750Y0076750D01*
X0187750Y0076750D01*
X0183750Y0079750D02*
X0189750Y0085750D01*
X0189750Y0088750D01*
X0180250Y0090250D02*
X0119250Y0090250D01*
X0084750Y0055750D01*
X0078750Y0043250D02*
X0064250Y0043250D01*
X0066250Y0036250D02*
X0079250Y0036250D01*
X0122750Y0079750D01*
X0121250Y0085750D02*
X0078750Y0043250D01*
X0122750Y0059750D02*
X0144250Y0059750D01*
X0147250Y0056750D01*
X0152750Y0062250D01*
X0152750Y0071750D01*
X0154750Y0073750D01*
X0157750Y0073750D01*
X0165250Y0049750D02*
X0183750Y0068250D01*
X0183750Y0079750D01*
X0194250Y0110750D02*
X0194250Y0113750D01*
X0204250Y0113750D01*
X0204250Y0110750D01*
X0194250Y0110750D01*
X0194250Y0111345D02*
X0204250Y0111345D01*
X0204250Y0111943D02*
X0194250Y0111943D01*
X0194250Y0112542D02*
X0204250Y0112542D01*
X0204250Y0113140D02*
X0194250Y0113140D01*
X0194250Y0113739D02*
X0204250Y0113739D01*
X0152750Y0113750D02*
X0152750Y0110750D01*
X0142750Y0110750D01*
X0142750Y0113750D01*
X0152750Y0113750D01*
X0152750Y0113739D02*
X0142750Y0113739D01*
X0142750Y0113140D02*
X0152750Y0113140D01*
X0152750Y0112542D02*
X0142750Y0112542D01*
X0142750Y0111943D02*
X0152750Y0111943D01*
X0152750Y0111345D02*
X0142750Y0111345D01*
X0162750Y0049750D02*
X0165250Y0049750D01*
D19*
X0122750Y0079750D03*
X0121250Y0085750D03*
X0064250Y0043250D03*
X0066250Y0036250D03*
X0189750Y0088750D03*
X0276171Y0043250D03*
X0278171Y0036250D03*
X0334671Y0079750D03*
X0333171Y0085750D03*
X0401671Y0088750D03*
X0278171Y0196951D03*
X0276171Y0203951D03*
X0333171Y0246451D03*
X0334671Y0240451D03*
X0401671Y0249451D03*
X0189750Y0249451D03*
X0122750Y0240451D03*
X0121250Y0246451D03*
X0064250Y0203951D03*
X0066250Y0196951D03*
M02*
