G75*
%MOIN*%
%OFA0B0*%
%FSLAX25Y25*%
%IPPOS*%
%LPD*%
%AMOC8*
5,1,8,0,0,1.08239X$1,22.5*
%
%ADD10C,0.01100*%
%ADD11C,0.03200*%
%ADD12R,0.05000X0.02500*%
%ADD13C,0.01000*%
%ADD14C,0.07400*%
%ADD15R,0.02500X0.05000*%
%ADD16C,0.02400*%
%ADD17C,0.00800*%
%ADD18C,0.00600*%
%ADD19C,0.02700*%
D10*
X0079550Y0097050D02*
X0085455Y0100987D01*
X0084471Y0103495D02*
X0085455Y0104480D01*
X0085455Y0106448D01*
X0084471Y0107432D01*
X0080534Y0103495D01*
X0079550Y0104480D01*
X0079550Y0106448D01*
X0080534Y0107432D01*
X0084471Y0107432D01*
X0084471Y0109941D02*
X0085455Y0110925D01*
X0085455Y0112894D01*
X0084471Y0113878D01*
X0083487Y0113878D01*
X0082503Y0112894D01*
X0081518Y0113878D01*
X0080534Y0113878D01*
X0079550Y0112894D01*
X0079550Y0110925D01*
X0080534Y0109941D01*
X0082503Y0111909D02*
X0082503Y0112894D01*
X0084471Y0103495D02*
X0080534Y0103495D01*
X0079550Y0100987D02*
X0085455Y0097050D01*
X0085455Y0257751D02*
X0079550Y0261687D01*
X0080534Y0264196D02*
X0084471Y0268133D01*
X0080534Y0268133D01*
X0079550Y0267149D01*
X0079550Y0265180D01*
X0080534Y0264196D01*
X0084471Y0264196D01*
X0085455Y0265180D01*
X0085455Y0267149D01*
X0084471Y0268133D01*
X0084471Y0270642D02*
X0085455Y0271626D01*
X0085455Y0273594D01*
X0084471Y0274578D01*
X0083487Y0274578D01*
X0082503Y0273594D01*
X0081518Y0274578D01*
X0080534Y0274578D01*
X0079550Y0273594D01*
X0079550Y0271626D01*
X0080534Y0270642D01*
X0082503Y0272610D02*
X0082503Y0273594D01*
X0085455Y0261687D02*
X0079550Y0257751D01*
X0291471Y0257751D02*
X0297376Y0261687D01*
X0296392Y0264196D02*
X0297376Y0265180D01*
X0297376Y0267149D01*
X0296392Y0268133D01*
X0292455Y0264196D01*
X0291471Y0265180D01*
X0291471Y0267149D01*
X0292455Y0268133D01*
X0296392Y0268133D01*
X0296392Y0270642D02*
X0297376Y0271626D01*
X0297376Y0273594D01*
X0296392Y0274578D01*
X0295408Y0274578D01*
X0294424Y0273594D01*
X0293440Y0274578D01*
X0292455Y0274578D01*
X0291471Y0273594D01*
X0291471Y0271626D01*
X0292455Y0270642D01*
X0294424Y0272610D02*
X0294424Y0273594D01*
X0296392Y0264196D02*
X0292455Y0264196D01*
X0291471Y0261687D02*
X0297376Y0257751D01*
X0296392Y0113878D02*
X0295408Y0113878D01*
X0294424Y0112894D01*
X0293440Y0113878D01*
X0292455Y0113878D01*
X0291471Y0112894D01*
X0291471Y0110925D01*
X0292455Y0109941D01*
X0292455Y0107432D02*
X0291471Y0106448D01*
X0291471Y0104480D01*
X0292455Y0103495D01*
X0296392Y0107432D01*
X0292455Y0107432D01*
X0292455Y0103495D02*
X0296392Y0103495D01*
X0297376Y0104480D01*
X0297376Y0106448D01*
X0296392Y0107432D01*
X0296392Y0109941D02*
X0297376Y0110925D01*
X0297376Y0112894D01*
X0296392Y0113878D01*
X0294424Y0112894D02*
X0294424Y0111909D01*
X0297376Y0100987D02*
X0291471Y0097050D01*
X0291471Y0100987D02*
X0297376Y0097050D01*
D11*
X0208000Y0106000D03*
X0208000Y0116000D03*
X0208000Y0126000D03*
X0198000Y0126000D03*
X0198000Y0116000D03*
X0198000Y0106000D03*
X0198000Y0266701D03*
X0198000Y0276701D03*
X0198000Y0286701D03*
X0208000Y0286701D03*
X0208000Y0276701D03*
X0208000Y0266701D03*
X0409921Y0266701D03*
X0409921Y0276701D03*
X0409921Y0286701D03*
X0419921Y0286701D03*
X0419921Y0276701D03*
X0419921Y0266701D03*
X0419921Y0126000D03*
X0409921Y0126000D03*
X0409921Y0116000D03*
X0409921Y0106000D03*
X0419921Y0106000D03*
X0419921Y0116000D03*
D12*
X0489921Y0110000D03*
X0489921Y0106000D03*
X0489921Y0102000D03*
X0489921Y0262701D03*
X0489921Y0266701D03*
X0489921Y0270701D03*
X0278000Y0270701D03*
X0278000Y0266701D03*
X0278000Y0262701D03*
X0278000Y0110000D03*
X0278000Y0106000D03*
X0278000Y0102000D03*
D13*
X0080100Y0080883D02*
X0080100Y0073100D01*
X0183679Y0073100D01*
X0183553Y0073275D01*
X0183181Y0074004D01*
X0182928Y0074782D01*
X0182814Y0075500D01*
X0187500Y0075500D01*
X0187500Y0076500D01*
X0187500Y0081186D01*
X0186782Y0081072D01*
X0186004Y0080819D01*
X0185275Y0080447D01*
X0184612Y0079966D01*
X0184034Y0079388D01*
X0183553Y0078725D01*
X0183181Y0077996D01*
X0182928Y0077218D01*
X0182814Y0076500D01*
X0187500Y0076500D01*
X0188500Y0076500D01*
X0188500Y0081186D01*
X0189218Y0081072D01*
X0189996Y0080819D01*
X0190725Y0080447D01*
X0191388Y0079966D01*
X0191966Y0079388D01*
X0192447Y0078725D01*
X0192819Y0077996D01*
X0192891Y0077776D01*
X0193422Y0079059D01*
X0194941Y0080578D01*
X0196926Y0081400D01*
X0199074Y0081400D01*
X0201059Y0080578D01*
X0202578Y0079059D01*
X0203000Y0078040D01*
X0203422Y0079059D01*
X0204941Y0080578D01*
X0206000Y0081016D01*
X0206000Y0090000D01*
X0205101Y0090000D01*
X0204643Y0089541D01*
X0203577Y0089100D01*
X0202423Y0089100D01*
X0201357Y0089541D01*
X0200541Y0090357D01*
X0200100Y0091423D01*
X0200100Y0092577D01*
X0200491Y0093521D01*
X0197900Y0090930D01*
X0197900Y0090423D01*
X0197458Y0089357D01*
X0196643Y0088541D01*
X0195577Y0088100D01*
X0194423Y0088100D01*
X0193357Y0088541D01*
X0192541Y0089357D01*
X0192100Y0090423D01*
X0192100Y0091577D01*
X0192541Y0092643D01*
X0193357Y0093458D01*
X0194423Y0093900D01*
X0194930Y0093900D01*
X0205190Y0104160D01*
X0204700Y0105344D01*
X0204700Y0106330D01*
X0200900Y0110130D01*
X0200900Y0114378D01*
X0200798Y0114131D01*
X0199869Y0113202D01*
X0198656Y0112700D01*
X0197344Y0112700D01*
X0196131Y0113202D01*
X0195581Y0113752D01*
X0195000Y0113172D01*
X0195000Y0107381D01*
X0195202Y0107869D01*
X0196131Y0108798D01*
X0197344Y0109300D01*
X0198656Y0109300D01*
X0199869Y0108798D01*
X0200798Y0107869D01*
X0201300Y0106656D01*
X0201300Y0105344D01*
X0200798Y0104131D01*
X0199869Y0103202D01*
X0198656Y0102700D01*
X0197344Y0102700D01*
X0196131Y0103202D01*
X0195202Y0104131D01*
X0195000Y0104619D01*
X0195000Y0103672D01*
X0190400Y0099072D01*
X0190400Y0098423D01*
X0189958Y0097357D01*
X0189143Y0096541D01*
X0188077Y0096100D01*
X0186923Y0096100D01*
X0185857Y0096541D01*
X0185041Y0097357D01*
X0184600Y0098423D01*
X0184600Y0099072D01*
X0183672Y0100000D01*
X0165101Y0100000D01*
X0164643Y0099541D01*
X0163577Y0099100D01*
X0162423Y0099100D01*
X0161357Y0099541D01*
X0160541Y0100357D01*
X0160100Y0101423D01*
X0160100Y0102577D01*
X0160541Y0103643D01*
X0161357Y0104458D01*
X0162423Y0104900D01*
X0163577Y0104900D01*
X0164643Y0104458D01*
X0165101Y0104000D01*
X0185328Y0104000D01*
X0187428Y0101900D01*
X0187572Y0101900D01*
X0187428Y0101900D01*
X0187572Y0101900D02*
X0191000Y0105328D01*
X0191000Y0114828D01*
X0192172Y0116000D01*
X0194172Y0118000D01*
X0195333Y0118000D01*
X0196131Y0118798D01*
X0197344Y0119300D01*
X0198656Y0119300D01*
X0199869Y0118798D01*
X0200798Y0117869D01*
X0200900Y0117622D01*
X0200900Y0123999D01*
X0200783Y0124116D01*
X0199869Y0123202D01*
X0198656Y0122700D01*
X0197344Y0122700D01*
X0196131Y0123202D01*
X0195202Y0124131D01*
X0194700Y0125344D01*
X0194700Y0126656D01*
X0195202Y0127869D01*
X0196131Y0128798D01*
X0197344Y0129300D01*
X0198656Y0129300D01*
X0199869Y0128798D01*
X0200783Y0127884D01*
X0201357Y0128458D01*
X0202423Y0128900D01*
X0203577Y0128900D01*
X0204643Y0128458D01*
X0205405Y0127696D01*
X0205592Y0127976D01*
X0206024Y0128408D01*
X0206532Y0128747D01*
X0207096Y0128981D01*
X0207695Y0129100D01*
X0208000Y0129100D01*
X0208000Y0126000D01*
X0208000Y0126000D01*
X0211100Y0126000D01*
X0211100Y0126305D01*
X0210981Y0126904D01*
X0210747Y0127468D01*
X0210408Y0127976D01*
X0209976Y0128408D01*
X0209468Y0128747D01*
X0208904Y0128981D01*
X0208305Y0129100D01*
X0208000Y0129100D01*
X0208000Y0126000D01*
X0208000Y0126000D01*
X0211100Y0126000D01*
X0211100Y0125695D01*
X0210981Y0125096D01*
X0210747Y0124532D01*
X0210408Y0124024D01*
X0209976Y0123592D01*
X0209468Y0123253D01*
X0209099Y0123100D01*
X0215130Y0123100D01*
X0222021Y0129991D01*
X0221077Y0129600D01*
X0219923Y0129600D01*
X0218857Y0130041D01*
X0218399Y0130500D01*
X0163313Y0130500D01*
X0164086Y0129728D01*
X0164550Y0128607D01*
X0164550Y0127393D01*
X0164086Y0126272D01*
X0163228Y0125414D01*
X0162107Y0124950D01*
X0161278Y0124950D01*
X0119828Y0083500D01*
X0106813Y0083500D01*
X0106228Y0082914D01*
X0105107Y0082450D01*
X0103893Y0082450D01*
X0102772Y0082914D01*
X0101914Y0083772D01*
X0101450Y0084893D01*
X0101450Y0086107D01*
X0101914Y0087228D01*
X0102772Y0088086D01*
X0103893Y0088550D01*
X0105107Y0088550D01*
X0106228Y0088086D01*
X0106813Y0087500D01*
X0118172Y0087500D01*
X0125909Y0095238D01*
X0125577Y0095100D01*
X0124423Y0095100D01*
X0123357Y0095541D01*
X0122541Y0096357D01*
X0122100Y0097423D01*
X0122100Y0098577D01*
X0122541Y0099643D01*
X0123357Y0100458D01*
X0124423Y0100900D01*
X0125072Y0100900D01*
X0157500Y0133328D01*
X0158672Y0134500D01*
X0218399Y0134500D01*
X0218857Y0134958D01*
X0219923Y0135400D01*
X0221077Y0135400D01*
X0222143Y0134958D01*
X0222958Y0134143D01*
X0223400Y0133077D01*
X0223400Y0131923D01*
X0223009Y0130979D01*
X0235630Y0143600D01*
X0244499Y0143600D01*
X0244857Y0143958D01*
X0245923Y0144400D01*
X0247077Y0144400D01*
X0248143Y0143958D01*
X0248501Y0143600D01*
X0260870Y0143600D01*
X0262070Y0142400D01*
X0262577Y0142400D01*
X0263643Y0141958D01*
X0264001Y0141600D01*
X0271370Y0141600D01*
X0283870Y0129100D01*
X0285100Y0127870D01*
X0285100Y0106630D01*
X0283600Y0105130D01*
X0282370Y0103900D01*
X0282200Y0103900D01*
X0282200Y0100046D01*
X0281204Y0099050D01*
X0279878Y0099050D01*
X0278828Y0098000D01*
X0267172Y0098000D01*
X0266000Y0099172D01*
X0260000Y0105172D01*
X0260000Y0118899D01*
X0259541Y0119357D01*
X0259100Y0120423D01*
X0259100Y0121577D01*
X0259541Y0122643D01*
X0260357Y0123458D01*
X0261423Y0123900D01*
X0262577Y0123900D01*
X0263643Y0123458D01*
X0264458Y0122643D01*
X0264900Y0121577D01*
X0264900Y0120423D01*
X0264458Y0119357D01*
X0264000Y0118899D01*
X0264000Y0106828D01*
X0268828Y0102000D01*
X0270899Y0102000D01*
X0270541Y0102357D01*
X0270100Y0103423D01*
X0270100Y0104577D01*
X0270541Y0105643D01*
X0271357Y0106458D01*
X0272423Y0106900D01*
X0272930Y0106900D01*
X0273800Y0107770D01*
X0273800Y0107954D01*
X0273846Y0108000D01*
X0273800Y0108046D01*
X0273800Y0111954D01*
X0274509Y0112663D01*
X0263172Y0124000D01*
X0260101Y0124000D01*
X0259643Y0123541D01*
X0258577Y0123100D01*
X0257423Y0123100D01*
X0256357Y0123541D01*
X0255541Y0124357D01*
X0255100Y0125423D01*
X0255100Y0126577D01*
X0255541Y0127643D01*
X0256357Y0128458D01*
X0257423Y0128900D01*
X0258577Y0128900D01*
X0259643Y0128458D01*
X0260101Y0128000D01*
X0264828Y0128000D01*
X0278828Y0114000D01*
X0279878Y0112950D01*
X0280900Y0112950D01*
X0280900Y0126130D01*
X0269630Y0137400D01*
X0264001Y0137400D01*
X0263643Y0137041D01*
X0262577Y0136600D01*
X0261423Y0136600D01*
X0260357Y0137041D01*
X0259541Y0137857D01*
X0259100Y0138923D01*
X0259100Y0139400D01*
X0248501Y0139400D01*
X0248143Y0139041D01*
X0247077Y0138600D01*
X0245923Y0138600D01*
X0244857Y0139041D01*
X0244499Y0139400D01*
X0237370Y0139400D01*
X0231606Y0133636D01*
X0231728Y0133586D01*
X0232586Y0132728D01*
X0233050Y0131607D01*
X0233050Y0130393D01*
X0232586Y0129272D01*
X0232000Y0128687D01*
X0232000Y0127172D01*
X0230828Y0126000D01*
X0226000Y0121172D01*
X0226000Y0121101D01*
X0226357Y0121458D01*
X0227423Y0121900D01*
X0228577Y0121900D01*
X0229643Y0121458D01*
X0230101Y0121000D01*
X0250899Y0121000D01*
X0251357Y0121458D01*
X0252423Y0121900D01*
X0253577Y0121900D01*
X0254643Y0121458D01*
X0255458Y0120643D01*
X0255900Y0119577D01*
X0255900Y0118423D01*
X0255458Y0117357D01*
X0255000Y0116899D01*
X0255000Y0112172D01*
X0253828Y0111000D01*
X0251828Y0109000D01*
X0233828Y0109000D01*
X0220000Y0095172D01*
X0220000Y0081016D01*
X0221000Y0080602D01*
X0221000Y0085899D01*
X0220541Y0086357D01*
X0220100Y0087423D01*
X0220100Y0088577D01*
X0220541Y0089643D01*
X0221357Y0090458D01*
X0222423Y0090900D01*
X0223577Y0090900D01*
X0224643Y0090458D01*
X0225458Y0089643D01*
X0225900Y0088577D01*
X0225900Y0087423D01*
X0225458Y0086357D01*
X0225000Y0085899D01*
X0225000Y0081828D01*
X0225867Y0080961D01*
X0226926Y0081400D01*
X0229074Y0081400D01*
X0231059Y0080578D01*
X0232578Y0079059D01*
X0233400Y0077074D01*
X0233400Y0074926D01*
X0232644Y0073100D01*
X0272791Y0073100D01*
X0270688Y0074865D01*
X0270688Y0074865D01*
X0269031Y0077735D01*
X0269031Y0077735D01*
X0268455Y0081000D01*
X0268455Y0081000D01*
X0269031Y0084265D01*
X0269031Y0084265D01*
X0270688Y0087135D01*
X0270688Y0087135D01*
X0270688Y0087135D01*
X0273227Y0089266D01*
X0273227Y0089266D01*
X0276343Y0090400D01*
X0279657Y0090400D01*
X0282772Y0089266D01*
X0282773Y0089266D01*
X0285312Y0087135D01*
X0285312Y0087135D01*
X0285821Y0086253D01*
X0285821Y0151000D01*
X0080100Y0151000D01*
X0080100Y0116128D01*
X0082450Y0116128D01*
X0082503Y0116075D01*
X0082555Y0116128D01*
X0085403Y0116128D01*
X0086181Y0115349D01*
X0086387Y0115144D01*
X0086387Y0115144D01*
X0086926Y0114604D01*
X0087705Y0113826D01*
X0087705Y0109993D01*
X0086949Y0109237D01*
X0086398Y0108687D01*
X0086926Y0108159D01*
X0087705Y0107380D01*
X0087705Y0103548D01*
X0086953Y0102796D01*
X0087844Y0101459D01*
X0087479Y0099632D01*
X0086559Y0099018D01*
X0087479Y0098405D01*
X0087844Y0096577D01*
X0087059Y0095400D01*
X0089657Y0095400D01*
X0092772Y0094266D01*
X0092773Y0094266D01*
X0095312Y0092135D01*
X0095312Y0092135D01*
X0096969Y0089265D01*
X0096969Y0089265D01*
X0097545Y0086000D01*
X0097545Y0086000D01*
X0096969Y0082735D01*
X0096969Y0082735D01*
X0095312Y0079865D01*
X0095312Y0079865D01*
X0095312Y0079865D01*
X0092773Y0077734D01*
X0092772Y0077734D01*
X0089657Y0076600D01*
X0086343Y0076600D01*
X0083227Y0077734D01*
X0083227Y0077734D01*
X0080688Y0079865D01*
X0080688Y0079865D01*
X0080100Y0080883D01*
X0080100Y0079933D02*
X0080649Y0079933D01*
X0080100Y0078934D02*
X0081797Y0078934D01*
X0082986Y0077936D02*
X0080100Y0077936D01*
X0080100Y0076937D02*
X0085415Y0076937D01*
X0090585Y0076937D02*
X0103846Y0076937D01*
X0103914Y0076772D02*
X0104772Y0075914D01*
X0105893Y0075450D01*
X0107107Y0075450D01*
X0108228Y0075914D01*
X0108813Y0076500D01*
X0120328Y0076500D01*
X0162778Y0118950D01*
X0163607Y0118950D01*
X0164728Y0119414D01*
X0165586Y0120272D01*
X0166050Y0121393D01*
X0166050Y0122607D01*
X0165586Y0123728D01*
X0164728Y0124586D01*
X0163607Y0125050D01*
X0162393Y0125050D01*
X0161272Y0124586D01*
X0160414Y0123728D01*
X0159950Y0122607D01*
X0159950Y0121778D01*
X0118672Y0080500D01*
X0108813Y0080500D01*
X0108228Y0081086D01*
X0107107Y0081550D01*
X0105893Y0081550D01*
X0104772Y0081086D01*
X0103914Y0080228D01*
X0103450Y0079107D01*
X0103450Y0077893D01*
X0103914Y0076772D01*
X0104748Y0075939D02*
X0080100Y0075939D01*
X0080100Y0074940D02*
X0182903Y0074940D01*
X0183213Y0073942D02*
X0080100Y0073942D01*
X0093013Y0077936D02*
X0103450Y0077936D01*
X0103450Y0078934D02*
X0094203Y0078934D01*
X0095351Y0079933D02*
X0103792Y0079933D01*
X0104618Y0080932D02*
X0095928Y0080932D01*
X0096504Y0081930D02*
X0120102Y0081930D01*
X0121100Y0082929D02*
X0106242Y0082929D01*
X0108382Y0080932D02*
X0119103Y0080932D01*
X0120255Y0083927D02*
X0122099Y0083927D01*
X0121254Y0084926D02*
X0123097Y0084926D01*
X0122252Y0085924D02*
X0124096Y0085924D01*
X0123251Y0086923D02*
X0125094Y0086923D01*
X0124250Y0087921D02*
X0126093Y0087921D01*
X0125248Y0088920D02*
X0127091Y0088920D01*
X0126247Y0089918D02*
X0128090Y0089918D01*
X0127245Y0090917D02*
X0129088Y0090917D01*
X0128244Y0091915D02*
X0130087Y0091915D01*
X0129242Y0092914D02*
X0131085Y0092914D01*
X0130241Y0093912D02*
X0132084Y0093912D01*
X0131239Y0094911D02*
X0133082Y0094911D01*
X0132238Y0095909D02*
X0134081Y0095909D01*
X0133236Y0096908D02*
X0135079Y0096908D01*
X0134235Y0097906D02*
X0136078Y0097906D01*
X0135233Y0098905D02*
X0137076Y0098905D01*
X0136232Y0099903D02*
X0138075Y0099903D01*
X0137230Y0100902D02*
X0139073Y0100902D01*
X0138229Y0101900D02*
X0140072Y0101900D01*
X0139227Y0102899D02*
X0141070Y0102899D01*
X0140226Y0103897D02*
X0142069Y0103897D01*
X0141224Y0104896D02*
X0143067Y0104896D01*
X0142223Y0105894D02*
X0144066Y0105894D01*
X0143221Y0106893D02*
X0145064Y0106893D01*
X0144220Y0107891D02*
X0146063Y0107891D01*
X0145218Y0108890D02*
X0147061Y0108890D01*
X0146217Y0109888D02*
X0148060Y0109888D01*
X0147215Y0110887D02*
X0149058Y0110887D01*
X0148214Y0111885D02*
X0150057Y0111885D01*
X0149212Y0112884D02*
X0151055Y0112884D01*
X0150211Y0113882D02*
X0152054Y0113882D01*
X0151209Y0114881D02*
X0153052Y0114881D01*
X0152208Y0115879D02*
X0154051Y0115879D01*
X0153206Y0116878D02*
X0155050Y0116878D01*
X0154205Y0117876D02*
X0156048Y0117876D01*
X0155203Y0118875D02*
X0157047Y0118875D01*
X0156202Y0119873D02*
X0158045Y0119873D01*
X0157200Y0120872D02*
X0159044Y0120872D01*
X0158199Y0121870D02*
X0159950Y0121870D01*
X0160059Y0122869D02*
X0159197Y0122869D01*
X0160196Y0123868D02*
X0160554Y0123868D01*
X0161194Y0124866D02*
X0161949Y0124866D01*
X0163678Y0125865D02*
X0194700Y0125865D01*
X0194786Y0126863D02*
X0164330Y0126863D01*
X0164550Y0127862D02*
X0195199Y0127862D01*
X0196282Y0128860D02*
X0164445Y0128860D01*
X0163955Y0129859D02*
X0219299Y0129859D01*
X0220890Y0128860D02*
X0209196Y0128860D01*
X0208000Y0128860D02*
X0208000Y0128860D01*
X0208000Y0127862D02*
X0208000Y0127862D01*
X0208000Y0126863D02*
X0208000Y0126863D01*
X0206804Y0128860D02*
X0203673Y0128860D01*
X0202327Y0128860D02*
X0199718Y0128860D01*
X0200534Y0123868D02*
X0200900Y0123868D01*
X0200900Y0122869D02*
X0199064Y0122869D01*
X0200900Y0121870D02*
X0166050Y0121870D01*
X0165941Y0122869D02*
X0196936Y0122869D01*
X0195466Y0123868D02*
X0165446Y0123868D01*
X0164051Y0124866D02*
X0194898Y0124866D01*
X0200900Y0120872D02*
X0165834Y0120872D01*
X0165187Y0119873D02*
X0200900Y0119873D01*
X0200900Y0118875D02*
X0199683Y0118875D01*
X0200790Y0117876D02*
X0200900Y0117876D01*
X0200900Y0113882D02*
X0200549Y0113882D01*
X0200900Y0112884D02*
X0199100Y0112884D01*
X0200900Y0111885D02*
X0195000Y0111885D01*
X0195000Y0110887D02*
X0200900Y0110887D01*
X0201142Y0109888D02*
X0195000Y0109888D01*
X0195000Y0108890D02*
X0196353Y0108890D01*
X0195224Y0107891D02*
X0195000Y0107891D01*
X0195000Y0103897D02*
X0195436Y0103897D01*
X0194227Y0102899D02*
X0196864Y0102899D01*
X0199136Y0102899D02*
X0203929Y0102899D01*
X0204927Y0103897D02*
X0200564Y0103897D01*
X0201115Y0104896D02*
X0204885Y0104896D01*
X0204700Y0105894D02*
X0201300Y0105894D01*
X0201202Y0106893D02*
X0204137Y0106893D01*
X0203139Y0107891D02*
X0200776Y0107891D01*
X0199647Y0108890D02*
X0202140Y0108890D01*
X0205100Y0111870D02*
X0205100Y0114378D01*
X0205202Y0114131D01*
X0206131Y0113202D01*
X0207344Y0112700D01*
X0208656Y0112700D01*
X0209869Y0113202D01*
X0210798Y0114131D01*
X0211300Y0115344D01*
X0211300Y0116656D01*
X0210798Y0117869D01*
X0209869Y0118798D01*
X0209622Y0118900D01*
X0216870Y0118900D01*
X0218100Y0120130D01*
X0227364Y0129394D01*
X0227414Y0129272D01*
X0227929Y0128758D01*
X0222000Y0122828D01*
X0222000Y0111328D01*
X0204886Y0094215D01*
X0204643Y0094458D01*
X0203577Y0094900D01*
X0202423Y0094900D01*
X0201479Y0094509D01*
X0210100Y0103130D01*
X0210100Y0103433D01*
X0210798Y0104131D01*
X0211300Y0105344D01*
X0211300Y0106656D01*
X0210798Y0107869D01*
X0209869Y0108798D01*
X0208656Y0109300D01*
X0207670Y0109300D01*
X0205100Y0111870D01*
X0205100Y0111885D02*
X0222000Y0111885D01*
X0222000Y0112884D02*
X0209100Y0112884D01*
X0210549Y0113882D02*
X0222000Y0113882D01*
X0222000Y0114881D02*
X0211108Y0114881D01*
X0211300Y0115879D02*
X0222000Y0115879D01*
X0222000Y0116878D02*
X0211208Y0116878D01*
X0210790Y0117876D02*
X0222000Y0117876D01*
X0222000Y0118875D02*
X0209683Y0118875D01*
X0205451Y0113882D02*
X0205100Y0113882D01*
X0205100Y0112884D02*
X0206900Y0112884D01*
X0206083Y0110887D02*
X0221558Y0110887D01*
X0220560Y0109888D02*
X0207081Y0109888D01*
X0209647Y0108890D02*
X0219561Y0108890D01*
X0218563Y0107891D02*
X0210776Y0107891D01*
X0211202Y0106893D02*
X0217564Y0106893D01*
X0216566Y0105894D02*
X0211300Y0105894D01*
X0211115Y0104896D02*
X0215567Y0104896D01*
X0214569Y0103897D02*
X0210564Y0103897D01*
X0209869Y0102899D02*
X0213570Y0102899D01*
X0212572Y0101900D02*
X0208870Y0101900D01*
X0207872Y0100902D02*
X0211573Y0100902D01*
X0210575Y0099903D02*
X0206873Y0099903D01*
X0205875Y0098905D02*
X0209576Y0098905D01*
X0208578Y0097906D02*
X0204876Y0097906D01*
X0203878Y0096908D02*
X0207579Y0096908D01*
X0206581Y0095909D02*
X0202879Y0095909D01*
X0201881Y0094911D02*
X0205582Y0094911D01*
X0206000Y0089918D02*
X0205019Y0089918D01*
X0206000Y0088920D02*
X0197021Y0088920D01*
X0197691Y0089918D02*
X0200981Y0089918D01*
X0200310Y0090917D02*
X0197900Y0090917D01*
X0198885Y0091915D02*
X0200100Y0091915D01*
X0200240Y0092914D02*
X0199883Y0092914D01*
X0196939Y0095909D02*
X0139738Y0095909D01*
X0140736Y0096908D02*
X0185491Y0096908D01*
X0184814Y0097906D02*
X0141735Y0097906D01*
X0142733Y0098905D02*
X0184600Y0098905D01*
X0183768Y0099903D02*
X0165004Y0099903D01*
X0160996Y0099903D02*
X0143732Y0099903D01*
X0144730Y0100902D02*
X0160316Y0100902D01*
X0160100Y0101900D02*
X0145729Y0101900D01*
X0146727Y0102899D02*
X0160233Y0102899D01*
X0160796Y0103897D02*
X0147726Y0103897D01*
X0148724Y0104896D02*
X0162413Y0104896D01*
X0163587Y0104896D02*
X0190567Y0104896D01*
X0191000Y0105894D02*
X0149723Y0105894D01*
X0150721Y0106893D02*
X0191000Y0106893D01*
X0191000Y0107891D02*
X0151720Y0107891D01*
X0152718Y0108890D02*
X0191000Y0108890D01*
X0191000Y0109888D02*
X0153717Y0109888D01*
X0154715Y0110887D02*
X0191000Y0110887D01*
X0191000Y0111885D02*
X0155714Y0111885D01*
X0156712Y0112884D02*
X0191000Y0112884D01*
X0191000Y0113882D02*
X0157711Y0113882D01*
X0158709Y0114881D02*
X0191052Y0114881D01*
X0192051Y0115879D02*
X0159708Y0115879D01*
X0160706Y0116878D02*
X0193050Y0116878D01*
X0194048Y0117876D02*
X0161705Y0117876D01*
X0162703Y0118875D02*
X0196317Y0118875D01*
X0196900Y0112884D02*
X0195000Y0112884D01*
X0189569Y0103897D02*
X0185431Y0103897D01*
X0186430Y0102899D02*
X0188570Y0102899D01*
X0191232Y0099903D02*
X0200933Y0099903D01*
X0199935Y0098905D02*
X0190400Y0098905D01*
X0190186Y0097906D02*
X0198936Y0097906D01*
X0197938Y0096908D02*
X0189509Y0096908D01*
X0192230Y0100902D02*
X0201932Y0100902D01*
X0202930Y0101900D02*
X0193229Y0101900D01*
X0195941Y0094911D02*
X0138739Y0094911D01*
X0137741Y0093912D02*
X0194942Y0093912D01*
X0192812Y0092914D02*
X0136742Y0092914D01*
X0135744Y0091915D02*
X0192240Y0091915D01*
X0192100Y0090917D02*
X0134745Y0090917D01*
X0133747Y0089918D02*
X0192309Y0089918D01*
X0192979Y0088920D02*
X0132748Y0088920D01*
X0131750Y0087921D02*
X0206000Y0087921D01*
X0206000Y0086923D02*
X0130751Y0086923D01*
X0129752Y0085924D02*
X0206000Y0085924D01*
X0206000Y0084926D02*
X0128754Y0084926D01*
X0127755Y0083927D02*
X0206000Y0083927D01*
X0206000Y0082929D02*
X0126757Y0082929D01*
X0125758Y0081930D02*
X0206000Y0081930D01*
X0205795Y0080932D02*
X0200205Y0080932D01*
X0201704Y0079933D02*
X0204296Y0079933D01*
X0203371Y0078934D02*
X0202629Y0078934D01*
X0195795Y0080932D02*
X0189650Y0080932D01*
X0188500Y0080932D02*
X0187500Y0080932D01*
X0187500Y0079933D02*
X0188500Y0079933D01*
X0188500Y0078934D02*
X0187500Y0078934D01*
X0187500Y0077936D02*
X0188500Y0077936D01*
X0188500Y0076937D02*
X0187500Y0076937D01*
X0187500Y0075939D02*
X0108252Y0075939D01*
X0102758Y0082929D02*
X0097003Y0082929D01*
X0097179Y0083927D02*
X0101850Y0083927D01*
X0101450Y0084926D02*
X0097356Y0084926D01*
X0097532Y0085924D02*
X0101450Y0085924D01*
X0101788Y0086923D02*
X0097382Y0086923D01*
X0097206Y0087921D02*
X0102608Y0087921D01*
X0106392Y0087921D02*
X0118593Y0087921D01*
X0119591Y0088920D02*
X0097030Y0088920D01*
X0096592Y0089918D02*
X0120590Y0089918D01*
X0121588Y0090917D02*
X0096016Y0090917D01*
X0095439Y0091915D02*
X0122587Y0091915D01*
X0123585Y0092914D02*
X0094384Y0092914D01*
X0093194Y0093912D02*
X0124584Y0093912D01*
X0125582Y0094911D02*
X0091002Y0094911D01*
X0087399Y0095909D02*
X0122990Y0095909D01*
X0122313Y0096908D02*
X0087778Y0096908D01*
X0087578Y0097906D02*
X0122100Y0097906D01*
X0122236Y0098905D02*
X0086729Y0098905D01*
X0087533Y0099903D02*
X0122802Y0099903D01*
X0125073Y0100902D02*
X0087733Y0100902D01*
X0087550Y0101900D02*
X0126072Y0101900D01*
X0127070Y0102899D02*
X0087056Y0102899D01*
X0087705Y0103897D02*
X0128069Y0103897D01*
X0129067Y0104896D02*
X0087705Y0104896D01*
X0087705Y0105894D02*
X0130066Y0105894D01*
X0131064Y0106893D02*
X0087705Y0106893D01*
X0087194Y0107891D02*
X0132063Y0107891D01*
X0133061Y0108890D02*
X0086602Y0108890D01*
X0087600Y0109888D02*
X0134060Y0109888D01*
X0135058Y0110887D02*
X0087705Y0110887D01*
X0087705Y0111885D02*
X0136057Y0111885D01*
X0137055Y0112884D02*
X0087705Y0112884D01*
X0087648Y0113882D02*
X0138054Y0113882D01*
X0139052Y0114881D02*
X0086650Y0114881D01*
X0085651Y0115879D02*
X0140051Y0115879D01*
X0141050Y0116878D02*
X0080100Y0116878D01*
X0080100Y0117876D02*
X0142048Y0117876D01*
X0143047Y0118875D02*
X0080100Y0118875D01*
X0080100Y0119873D02*
X0144045Y0119873D01*
X0145044Y0120872D02*
X0080100Y0120872D01*
X0080100Y0121870D02*
X0146042Y0121870D01*
X0147041Y0122869D02*
X0080100Y0122869D01*
X0080100Y0123868D02*
X0148039Y0123868D01*
X0149038Y0124866D02*
X0080100Y0124866D01*
X0080100Y0125865D02*
X0150036Y0125865D01*
X0151035Y0126863D02*
X0080100Y0126863D01*
X0080100Y0127862D02*
X0152033Y0127862D01*
X0153032Y0128860D02*
X0080100Y0128860D01*
X0080100Y0129859D02*
X0154030Y0129859D01*
X0155029Y0130857D02*
X0080100Y0130857D01*
X0080100Y0131856D02*
X0156027Y0131856D01*
X0157026Y0132854D02*
X0080100Y0132854D01*
X0080100Y0133853D02*
X0158024Y0133853D01*
X0192600Y0136923D02*
X0193041Y0135857D01*
X0193857Y0135041D01*
X0194923Y0134600D01*
X0196077Y0134600D01*
X0197143Y0135041D01*
X0197501Y0135400D01*
X0197870Y0135400D01*
X0199100Y0136630D01*
X0199100Y0136630D01*
X0207070Y0144600D01*
X0207577Y0144600D01*
X0208643Y0145041D01*
X0209458Y0145857D01*
X0209900Y0146923D01*
X0209900Y0148077D01*
X0209458Y0149143D01*
X0208643Y0149958D01*
X0207577Y0150400D01*
X0206423Y0150400D01*
X0205357Y0149958D01*
X0204541Y0149143D01*
X0204100Y0148077D01*
X0204100Y0147570D01*
X0196680Y0140150D01*
X0196077Y0140400D01*
X0194923Y0140400D01*
X0193857Y0139958D01*
X0193041Y0139143D01*
X0192600Y0138077D01*
X0192600Y0136923D01*
X0192631Y0136848D02*
X0080100Y0136848D01*
X0080100Y0135850D02*
X0193049Y0135850D01*
X0194317Y0134851D02*
X0080100Y0134851D01*
X0080100Y0137847D02*
X0192600Y0137847D01*
X0192918Y0138845D02*
X0080100Y0138845D01*
X0080100Y0139844D02*
X0193742Y0139844D01*
X0197372Y0140842D02*
X0080100Y0140842D01*
X0080100Y0141841D02*
X0198371Y0141841D01*
X0199369Y0142839D02*
X0080100Y0142839D01*
X0080100Y0143838D02*
X0200368Y0143838D01*
X0201366Y0144836D02*
X0080100Y0144836D01*
X0080100Y0145835D02*
X0202365Y0145835D01*
X0203363Y0146833D02*
X0080100Y0146833D01*
X0080100Y0147832D02*
X0204100Y0147832D01*
X0204412Y0148830D02*
X0080100Y0148830D01*
X0080100Y0149829D02*
X0205228Y0149829D01*
X0208772Y0149829D02*
X0285821Y0149829D01*
X0285821Y0150827D02*
X0080100Y0150827D01*
X0124760Y0080932D02*
X0186350Y0080932D01*
X0184579Y0079933D02*
X0123761Y0079933D01*
X0122763Y0078934D02*
X0183704Y0078934D01*
X0183161Y0077936D02*
X0121764Y0077936D01*
X0120766Y0076937D02*
X0182884Y0076937D01*
X0191421Y0079933D02*
X0194296Y0079933D01*
X0193371Y0078934D02*
X0192296Y0078934D01*
X0192839Y0077936D02*
X0192957Y0077936D01*
X0210000Y0081016D02*
X0210000Y0089172D01*
X0216000Y0095172D01*
X0216000Y0081016D01*
X0214941Y0080578D01*
X0213422Y0079059D01*
X0213000Y0078040D01*
X0212578Y0079059D01*
X0211059Y0080578D01*
X0210000Y0081016D01*
X0210205Y0080932D02*
X0215795Y0080932D01*
X0216000Y0081930D02*
X0210000Y0081930D01*
X0210000Y0082929D02*
X0216000Y0082929D01*
X0216000Y0083927D02*
X0210000Y0083927D01*
X0210000Y0084926D02*
X0216000Y0084926D01*
X0216000Y0085924D02*
X0210000Y0085924D01*
X0210000Y0086923D02*
X0216000Y0086923D01*
X0216000Y0087921D02*
X0210000Y0087921D01*
X0210000Y0088920D02*
X0216000Y0088920D01*
X0216000Y0089918D02*
X0210747Y0089918D01*
X0211745Y0090917D02*
X0216000Y0090917D01*
X0216000Y0091915D02*
X0212744Y0091915D01*
X0213742Y0092914D02*
X0216000Y0092914D01*
X0216000Y0093912D02*
X0214741Y0093912D01*
X0215739Y0094911D02*
X0216000Y0094911D01*
X0220000Y0094911D02*
X0285821Y0094911D01*
X0285821Y0095909D02*
X0220738Y0095909D01*
X0221736Y0096908D02*
X0285821Y0096908D01*
X0285821Y0097906D02*
X0222735Y0097906D01*
X0223733Y0098905D02*
X0266267Y0098905D01*
X0265268Y0099903D02*
X0224732Y0099903D01*
X0225730Y0100902D02*
X0264270Y0100902D01*
X0263271Y0101900D02*
X0226729Y0101900D01*
X0227727Y0102899D02*
X0262273Y0102899D01*
X0261274Y0103897D02*
X0228726Y0103897D01*
X0229724Y0104896D02*
X0260276Y0104896D01*
X0260000Y0105894D02*
X0230723Y0105894D01*
X0231721Y0106893D02*
X0260000Y0106893D01*
X0260000Y0107891D02*
X0232720Y0107891D01*
X0233718Y0108890D02*
X0260000Y0108890D01*
X0260000Y0109888D02*
X0252717Y0109888D01*
X0253715Y0110887D02*
X0260000Y0110887D01*
X0260000Y0111885D02*
X0254714Y0111885D01*
X0255000Y0112884D02*
X0260000Y0112884D01*
X0260000Y0113882D02*
X0255000Y0113882D01*
X0255000Y0114881D02*
X0260000Y0114881D01*
X0260000Y0115879D02*
X0255000Y0115879D01*
X0255000Y0116878D02*
X0260000Y0116878D01*
X0260000Y0117876D02*
X0255674Y0117876D01*
X0255900Y0118875D02*
X0260000Y0118875D01*
X0259328Y0119873D02*
X0255777Y0119873D01*
X0255229Y0120872D02*
X0259100Y0120872D01*
X0259222Y0121870D02*
X0253648Y0121870D01*
X0252352Y0121870D02*
X0228648Y0121870D01*
X0227352Y0121870D02*
X0226699Y0121870D01*
X0227697Y0122869D02*
X0259768Y0122869D01*
X0259969Y0123868D02*
X0261345Y0123868D01*
X0262655Y0123868D02*
X0263304Y0123868D01*
X0264232Y0122869D02*
X0264303Y0122869D01*
X0264778Y0121870D02*
X0265301Y0121870D01*
X0264900Y0120872D02*
X0266300Y0120872D01*
X0267298Y0119873D02*
X0264672Y0119873D01*
X0264000Y0118875D02*
X0268297Y0118875D01*
X0269295Y0117876D02*
X0264000Y0117876D01*
X0264000Y0116878D02*
X0270294Y0116878D01*
X0271292Y0115879D02*
X0264000Y0115879D01*
X0264000Y0114881D02*
X0272291Y0114881D01*
X0273289Y0113882D02*
X0264000Y0113882D01*
X0264000Y0112884D02*
X0274288Y0112884D01*
X0273800Y0111885D02*
X0264000Y0111885D01*
X0264000Y0110887D02*
X0273800Y0110887D01*
X0273800Y0109888D02*
X0264000Y0109888D01*
X0264000Y0108890D02*
X0273800Y0108890D01*
X0273800Y0107891D02*
X0264000Y0107891D01*
X0264000Y0106893D02*
X0272406Y0106893D01*
X0270793Y0105894D02*
X0264934Y0105894D01*
X0265933Y0104896D02*
X0270232Y0104896D01*
X0270100Y0103897D02*
X0266931Y0103897D01*
X0267930Y0102899D02*
X0270317Y0102899D01*
X0278000Y0102000D02*
X0278000Y0106000D01*
X0278000Y0110000D01*
X0278946Y0113882D02*
X0280900Y0113882D01*
X0280900Y0114881D02*
X0277948Y0114881D01*
X0276949Y0115879D02*
X0280900Y0115879D01*
X0280900Y0116878D02*
X0275950Y0116878D01*
X0274952Y0117876D02*
X0280900Y0117876D01*
X0280900Y0118875D02*
X0273953Y0118875D01*
X0272955Y0119873D02*
X0280900Y0119873D01*
X0280900Y0120872D02*
X0271956Y0120872D01*
X0270958Y0121870D02*
X0280900Y0121870D01*
X0280900Y0122869D02*
X0269959Y0122869D01*
X0268961Y0123868D02*
X0280900Y0123868D01*
X0280900Y0124866D02*
X0267962Y0124866D01*
X0266964Y0125865D02*
X0280900Y0125865D01*
X0280167Y0126863D02*
X0265965Y0126863D01*
X0264967Y0127862D02*
X0279169Y0127862D01*
X0278170Y0128860D02*
X0258673Y0128860D01*
X0257327Y0128860D02*
X0232173Y0128860D01*
X0232000Y0127862D02*
X0255760Y0127862D01*
X0255219Y0126863D02*
X0231691Y0126863D01*
X0230693Y0125865D02*
X0255100Y0125865D01*
X0255331Y0124866D02*
X0229694Y0124866D01*
X0228696Y0123868D02*
X0256031Y0123868D01*
X0260824Y0136848D02*
X0234818Y0136848D01*
X0233819Y0135850D02*
X0271180Y0135850D01*
X0270182Y0136848D02*
X0263176Y0136848D01*
X0259552Y0137847D02*
X0235816Y0137847D01*
X0236815Y0138845D02*
X0245331Y0138845D01*
X0247669Y0138845D02*
X0259132Y0138845D01*
X0261631Y0142839D02*
X0285821Y0142839D01*
X0285821Y0141841D02*
X0263760Y0141841D01*
X0272128Y0140842D02*
X0285821Y0140842D01*
X0285821Y0139844D02*
X0273126Y0139844D01*
X0274125Y0138845D02*
X0285821Y0138845D01*
X0285821Y0137847D02*
X0275123Y0137847D01*
X0276122Y0136848D02*
X0285821Y0136848D01*
X0285821Y0135850D02*
X0277120Y0135850D01*
X0278119Y0134851D02*
X0285821Y0134851D01*
X0285821Y0133853D02*
X0279117Y0133853D01*
X0280116Y0132854D02*
X0285821Y0132854D01*
X0285821Y0131856D02*
X0281114Y0131856D01*
X0282113Y0130857D02*
X0285821Y0130857D01*
X0285821Y0129859D02*
X0283111Y0129859D01*
X0284110Y0128860D02*
X0285821Y0128860D01*
X0285821Y0127862D02*
X0285100Y0127862D01*
X0285100Y0126863D02*
X0285821Y0126863D01*
X0285821Y0125865D02*
X0285100Y0125865D01*
X0285100Y0124866D02*
X0285821Y0124866D01*
X0285821Y0123868D02*
X0285100Y0123868D01*
X0285100Y0122869D02*
X0285821Y0122869D01*
X0285821Y0121870D02*
X0285100Y0121870D01*
X0285100Y0120872D02*
X0285821Y0120872D01*
X0285821Y0119873D02*
X0285100Y0119873D01*
X0285100Y0118875D02*
X0285821Y0118875D01*
X0285821Y0117876D02*
X0285100Y0117876D01*
X0285100Y0116878D02*
X0285821Y0116878D01*
X0285821Y0115879D02*
X0285100Y0115879D01*
X0285100Y0114881D02*
X0285821Y0114881D01*
X0285821Y0113882D02*
X0285100Y0113882D01*
X0285100Y0112884D02*
X0285821Y0112884D01*
X0285821Y0111885D02*
X0285100Y0111885D01*
X0285100Y0110887D02*
X0285821Y0110887D01*
X0285821Y0109888D02*
X0285100Y0109888D01*
X0285100Y0108890D02*
X0285821Y0108890D01*
X0285821Y0107891D02*
X0285100Y0107891D01*
X0285100Y0106893D02*
X0285821Y0106893D01*
X0285821Y0105894D02*
X0284364Y0105894D01*
X0283366Y0104896D02*
X0285821Y0104896D01*
X0285821Y0103897D02*
X0282200Y0103897D01*
X0282200Y0102899D02*
X0285821Y0102899D01*
X0285821Y0101900D02*
X0282200Y0101900D01*
X0282200Y0100902D02*
X0285821Y0100902D01*
X0285821Y0099903D02*
X0282057Y0099903D01*
X0279733Y0098905D02*
X0285821Y0098905D01*
X0285821Y0093912D02*
X0220000Y0093912D01*
X0220000Y0092914D02*
X0285821Y0092914D01*
X0285821Y0091915D02*
X0220000Y0091915D01*
X0220000Y0090917D02*
X0285821Y0090917D01*
X0285821Y0089918D02*
X0280981Y0089918D01*
X0283186Y0088920D02*
X0285821Y0088920D01*
X0285821Y0087921D02*
X0284376Y0087921D01*
X0285435Y0086923D02*
X0285821Y0086923D01*
X0292021Y0080883D02*
X0292609Y0079865D01*
X0292609Y0079865D01*
X0295149Y0077734D01*
X0298264Y0076600D01*
X0301579Y0076600D01*
X0304694Y0077734D01*
X0307233Y0079865D01*
X0308891Y0082735D01*
X0308891Y0082735D01*
X0309466Y0086000D01*
X0308891Y0089265D01*
X0307233Y0092135D01*
X0307233Y0092135D01*
X0304694Y0094266D01*
X0301579Y0095400D01*
X0298980Y0095400D01*
X0299765Y0096577D01*
X0299400Y0098405D01*
X0298480Y0099018D01*
X0299400Y0099632D01*
X0299765Y0101459D01*
X0298874Y0102796D01*
X0299626Y0103548D01*
X0299626Y0107380D01*
X0298848Y0108159D01*
X0298320Y0108687D01*
X0298870Y0109237D01*
X0299626Y0109993D01*
X0299626Y0113826D01*
X0298848Y0114604D01*
X0298308Y0115144D01*
X0298103Y0115349D01*
X0297324Y0116128D01*
X0294476Y0116128D01*
X0294424Y0116075D01*
X0294372Y0116128D01*
X0292021Y0116128D01*
X0292021Y0151000D01*
X0497743Y0151000D01*
X0497743Y0086253D01*
X0497233Y0087135D01*
X0497233Y0087135D01*
X0494694Y0089266D01*
X0491579Y0090400D01*
X0488264Y0090400D01*
X0485149Y0089266D01*
X0485149Y0089266D01*
X0482609Y0087135D01*
X0480952Y0084265D01*
X0480952Y0084265D01*
X0480376Y0081000D01*
X0480952Y0077735D01*
X0482609Y0074865D01*
X0482609Y0074865D01*
X0484712Y0073100D01*
X0444565Y0073100D01*
X0445321Y0074926D01*
X0445321Y0077074D01*
X0444499Y0079059D01*
X0442980Y0080578D01*
X0440995Y0081400D01*
X0438847Y0081400D01*
X0437788Y0080961D01*
X0436921Y0081828D01*
X0436921Y0085899D01*
X0437380Y0086357D01*
X0437821Y0087423D01*
X0437821Y0088577D01*
X0437380Y0089643D01*
X0436564Y0090458D01*
X0435498Y0090900D01*
X0434344Y0090900D01*
X0433279Y0090458D01*
X0432463Y0089643D01*
X0432021Y0088577D01*
X0432021Y0087423D01*
X0432463Y0086357D01*
X0432921Y0085899D01*
X0432921Y0080602D01*
X0431921Y0081016D01*
X0431921Y0095172D01*
X0445750Y0109000D01*
X0463750Y0109000D01*
X0465750Y0111000D01*
X0466921Y0112172D01*
X0466921Y0116899D01*
X0467380Y0117357D01*
X0467821Y0118423D01*
X0467821Y0119577D01*
X0467380Y0120643D01*
X0466564Y0121458D01*
X0465498Y0121900D01*
X0464344Y0121900D01*
X0463279Y0121458D01*
X0462820Y0121000D01*
X0442023Y0121000D01*
X0441564Y0121458D01*
X0440498Y0121900D01*
X0439344Y0121900D01*
X0438279Y0121458D01*
X0437921Y0121101D01*
X0437921Y0121172D01*
X0442750Y0126000D01*
X0443921Y0127172D01*
X0443921Y0128687D01*
X0444507Y0129272D01*
X0444971Y0130393D01*
X0444971Y0131607D01*
X0444507Y0132728D01*
X0443649Y0133586D01*
X0443527Y0133636D01*
X0449291Y0139400D01*
X0456420Y0139400D01*
X0456779Y0139041D01*
X0457844Y0138600D01*
X0458998Y0138600D01*
X0460064Y0139041D01*
X0460423Y0139400D01*
X0471021Y0139400D01*
X0471021Y0138923D01*
X0471463Y0137857D01*
X0472279Y0137041D01*
X0473344Y0136600D01*
X0474498Y0136600D01*
X0475564Y0137041D01*
X0475923Y0137400D01*
X0481551Y0137400D01*
X0492821Y0126130D01*
X0492821Y0112950D01*
X0491800Y0112950D01*
X0490750Y0114000D01*
X0476750Y0128000D01*
X0472023Y0128000D01*
X0471564Y0128458D01*
X0470498Y0128900D01*
X0469344Y0128900D01*
X0468279Y0128458D01*
X0467463Y0127643D01*
X0467021Y0126577D01*
X0467021Y0125423D01*
X0467463Y0124357D01*
X0468279Y0123541D01*
X0469344Y0123100D01*
X0470498Y0123100D01*
X0471564Y0123541D01*
X0472023Y0124000D01*
X0475093Y0124000D01*
X0486430Y0112663D01*
X0485721Y0111954D01*
X0485721Y0108046D01*
X0485767Y0108000D01*
X0485721Y0107954D01*
X0485721Y0107770D01*
X0484851Y0106900D01*
X0484344Y0106900D01*
X0483279Y0106458D01*
X0482463Y0105643D01*
X0482021Y0104577D01*
X0482021Y0103423D01*
X0482463Y0102357D01*
X0482820Y0102000D01*
X0480750Y0102000D01*
X0475921Y0106828D01*
X0475921Y0118899D01*
X0476380Y0119357D01*
X0476821Y0120423D01*
X0476821Y0121577D01*
X0476380Y0122643D01*
X0475564Y0123458D01*
X0474498Y0123900D01*
X0473344Y0123900D01*
X0472279Y0123458D01*
X0471463Y0122643D01*
X0471021Y0121577D01*
X0471021Y0120423D01*
X0471463Y0119357D01*
X0471921Y0118899D01*
X0471921Y0105172D01*
X0477921Y0099172D01*
X0479093Y0098000D01*
X0490750Y0098000D01*
X0491800Y0099050D01*
X0493125Y0099050D01*
X0494121Y0100046D01*
X0494121Y0103900D01*
X0494291Y0103900D01*
X0495521Y0105130D01*
X0497021Y0106630D01*
X0497021Y0127870D01*
X0495791Y0129100D01*
X0483291Y0141600D01*
X0475923Y0141600D01*
X0475564Y0141958D01*
X0474498Y0142400D01*
X0473991Y0142400D01*
X0472791Y0143600D01*
X0460423Y0143600D01*
X0460064Y0143958D01*
X0458998Y0144400D01*
X0457844Y0144400D01*
X0456779Y0143958D01*
X0456420Y0143600D01*
X0447551Y0143600D01*
X0434930Y0130979D01*
X0435321Y0131923D01*
X0435321Y0133077D01*
X0434880Y0134143D01*
X0434064Y0134958D01*
X0432998Y0135400D01*
X0431844Y0135400D01*
X0430779Y0134958D01*
X0430320Y0134500D01*
X0370593Y0134500D01*
X0369421Y0133328D01*
X0336993Y0100900D01*
X0336344Y0100900D01*
X0335279Y0100458D01*
X0334463Y0099643D01*
X0334021Y0098577D01*
X0334021Y0097423D01*
X0334463Y0096357D01*
X0335279Y0095541D01*
X0336344Y0095100D01*
X0337498Y0095100D01*
X0337831Y0095238D01*
X0330093Y0087500D01*
X0318735Y0087500D01*
X0318149Y0088086D01*
X0317028Y0088550D01*
X0315815Y0088550D01*
X0314694Y0088086D01*
X0313836Y0087228D01*
X0313371Y0086107D01*
X0313371Y0084893D01*
X0313836Y0083772D01*
X0314694Y0082914D01*
X0315815Y0082450D01*
X0317028Y0082450D01*
X0318149Y0082914D01*
X0318735Y0083500D01*
X0331750Y0083500D01*
X0373200Y0124950D01*
X0374028Y0124950D01*
X0375149Y0125414D01*
X0376007Y0126272D01*
X0376471Y0127393D01*
X0376471Y0128607D01*
X0376007Y0129728D01*
X0375235Y0130500D01*
X0430320Y0130500D01*
X0430779Y0130041D01*
X0431844Y0129600D01*
X0432998Y0129600D01*
X0433943Y0129991D01*
X0427051Y0123100D01*
X0421021Y0123100D01*
X0421390Y0123253D01*
X0421897Y0123592D01*
X0422329Y0124024D01*
X0422668Y0124532D01*
X0422902Y0125096D01*
X0423021Y0125695D01*
X0423021Y0126000D01*
X0423021Y0126305D01*
X0422902Y0126904D01*
X0422668Y0127468D01*
X0422329Y0127976D01*
X0421897Y0128408D01*
X0421390Y0128747D01*
X0420826Y0128981D01*
X0420227Y0129100D01*
X0419921Y0129100D01*
X0419616Y0129100D01*
X0419017Y0128981D01*
X0418453Y0128747D01*
X0417945Y0128408D01*
X0417513Y0127976D01*
X0417326Y0127696D01*
X0416564Y0128458D01*
X0415498Y0128900D01*
X0414344Y0128900D01*
X0413279Y0128458D01*
X0412704Y0127884D01*
X0411791Y0128798D01*
X0410578Y0129300D01*
X0409265Y0129300D01*
X0408052Y0128798D01*
X0407124Y0127869D01*
X0406621Y0126656D01*
X0406621Y0125344D01*
X0407124Y0124131D01*
X0408052Y0123202D01*
X0409265Y0122700D01*
X0410578Y0122700D01*
X0411791Y0123202D01*
X0412704Y0124116D01*
X0412821Y0123999D01*
X0412821Y0117622D01*
X0412719Y0117869D01*
X0411791Y0118798D01*
X0410578Y0119300D01*
X0409265Y0119300D01*
X0408052Y0118798D01*
X0407254Y0118000D01*
X0406093Y0118000D01*
X0404093Y0116000D01*
X0402921Y0114828D01*
X0402921Y0105328D01*
X0399493Y0101900D01*
X0399350Y0101900D01*
X0397250Y0104000D01*
X0377023Y0104000D01*
X0376564Y0104458D01*
X0375498Y0104900D01*
X0374344Y0104900D01*
X0373279Y0104458D01*
X0372463Y0103643D01*
X0372021Y0102577D01*
X0372021Y0101423D01*
X0372463Y0100357D01*
X0373279Y0099541D01*
X0374344Y0099100D01*
X0375498Y0099100D01*
X0376564Y0099541D01*
X0377023Y0100000D01*
X0395593Y0100000D01*
X0396521Y0099072D01*
X0396521Y0098423D01*
X0396963Y0097357D01*
X0397779Y0096541D01*
X0398844Y0096100D01*
X0399998Y0096100D01*
X0401064Y0096541D01*
X0401880Y0097357D01*
X0402321Y0098423D01*
X0402321Y0099072D01*
X0406921Y0103672D01*
X0406921Y0104619D01*
X0407124Y0104131D01*
X0408052Y0103202D01*
X0409265Y0102700D01*
X0410578Y0102700D01*
X0411791Y0103202D01*
X0412719Y0104131D01*
X0413221Y0105344D01*
X0413221Y0106656D01*
X0412719Y0107869D01*
X0411791Y0108798D01*
X0410578Y0109300D01*
X0409265Y0109300D01*
X0408052Y0108798D01*
X0407124Y0107869D01*
X0406921Y0107381D01*
X0406921Y0113172D01*
X0407502Y0113752D01*
X0408052Y0113202D01*
X0409265Y0112700D01*
X0410578Y0112700D01*
X0411791Y0113202D01*
X0412719Y0114131D01*
X0412821Y0114378D01*
X0412821Y0110130D01*
X0416621Y0106330D01*
X0416621Y0105344D01*
X0417112Y0104160D01*
X0406851Y0093900D01*
X0406344Y0093900D01*
X0405279Y0093458D01*
X0404463Y0092643D01*
X0404021Y0091577D01*
X0404021Y0090423D01*
X0404463Y0089357D01*
X0405279Y0088541D01*
X0406344Y0088100D01*
X0407498Y0088100D01*
X0408564Y0088541D01*
X0409380Y0089357D01*
X0409821Y0090423D01*
X0409821Y0090930D01*
X0412413Y0093521D01*
X0412021Y0092577D01*
X0412021Y0091423D01*
X0412463Y0090357D01*
X0413279Y0089541D01*
X0414344Y0089100D01*
X0415498Y0089100D01*
X0416564Y0089541D01*
X0417023Y0090000D01*
X0417921Y0090000D01*
X0417921Y0081016D01*
X0416862Y0080578D01*
X0415343Y0079059D01*
X0414921Y0078040D01*
X0414499Y0079059D01*
X0412980Y0080578D01*
X0410995Y0081400D01*
X0408847Y0081400D01*
X0406862Y0080578D01*
X0405343Y0079059D01*
X0404812Y0077776D01*
X0404740Y0077996D01*
X0404369Y0078725D01*
X0403888Y0079388D01*
X0403309Y0079966D01*
X0402647Y0080447D01*
X0401917Y0080819D01*
X0401139Y0081072D01*
X0400421Y0081186D01*
X0400421Y0076500D01*
X0399421Y0076500D01*
X0399421Y0075500D01*
X0394736Y0075500D01*
X0394849Y0074782D01*
X0395102Y0074004D01*
X0395474Y0073275D01*
X0395601Y0073100D01*
X0292021Y0073100D01*
X0292021Y0080883D01*
X0292021Y0079933D02*
X0292570Y0079933D01*
X0292021Y0078934D02*
X0293718Y0078934D01*
X0294908Y0077936D02*
X0292021Y0077936D01*
X0292021Y0076937D02*
X0297337Y0076937D01*
X0295149Y0077734D02*
X0295149Y0077734D01*
X0292021Y0075939D02*
X0316669Y0075939D01*
X0316694Y0075914D02*
X0317815Y0075450D01*
X0319028Y0075450D01*
X0320149Y0075914D01*
X0320735Y0076500D01*
X0332250Y0076500D01*
X0374700Y0118950D01*
X0375528Y0118950D01*
X0376649Y0119414D01*
X0377507Y0120272D01*
X0377971Y0121393D01*
X0377971Y0122607D01*
X0377507Y0123728D01*
X0376649Y0124586D01*
X0375528Y0125050D01*
X0374315Y0125050D01*
X0373194Y0124586D01*
X0372336Y0123728D01*
X0371871Y0122607D01*
X0371871Y0121778D01*
X0330593Y0080500D01*
X0320735Y0080500D01*
X0320149Y0081086D01*
X0319028Y0081550D01*
X0317815Y0081550D01*
X0316694Y0081086D01*
X0315836Y0080228D01*
X0315371Y0079107D01*
X0315371Y0077893D01*
X0315836Y0076772D01*
X0316694Y0075914D01*
X0315767Y0076937D02*
X0302506Y0076937D01*
X0304694Y0077734D02*
X0304694Y0077734D01*
X0304935Y0077936D02*
X0315371Y0077936D01*
X0315371Y0078934D02*
X0306125Y0078934D01*
X0307233Y0079865D02*
X0307233Y0079865D01*
X0307233Y0079865D01*
X0307273Y0079933D02*
X0315714Y0079933D01*
X0316539Y0080932D02*
X0307849Y0080932D01*
X0308426Y0081930D02*
X0332023Y0081930D01*
X0333021Y0082929D02*
X0318163Y0082929D01*
X0320303Y0080932D02*
X0331024Y0080932D01*
X0332177Y0083927D02*
X0334020Y0083927D01*
X0333175Y0084926D02*
X0335018Y0084926D01*
X0334174Y0085924D02*
X0336017Y0085924D01*
X0335172Y0086923D02*
X0337015Y0086923D01*
X0336171Y0087921D02*
X0338014Y0087921D01*
X0337169Y0088920D02*
X0339013Y0088920D01*
X0338168Y0089918D02*
X0340011Y0089918D01*
X0339166Y0090917D02*
X0341010Y0090917D01*
X0340165Y0091915D02*
X0342008Y0091915D01*
X0341163Y0092914D02*
X0343007Y0092914D01*
X0342162Y0093912D02*
X0344005Y0093912D01*
X0343160Y0094911D02*
X0345004Y0094911D01*
X0344159Y0095909D02*
X0346002Y0095909D01*
X0345157Y0096908D02*
X0347001Y0096908D01*
X0346156Y0097906D02*
X0347999Y0097906D01*
X0347154Y0098905D02*
X0348998Y0098905D01*
X0348153Y0099903D02*
X0349996Y0099903D01*
X0349151Y0100902D02*
X0350995Y0100902D01*
X0350150Y0101900D02*
X0351993Y0101900D01*
X0351148Y0102899D02*
X0352992Y0102899D01*
X0352147Y0103897D02*
X0353990Y0103897D01*
X0353146Y0104896D02*
X0354989Y0104896D01*
X0354144Y0105894D02*
X0355987Y0105894D01*
X0355143Y0106893D02*
X0356986Y0106893D01*
X0356141Y0107891D02*
X0357984Y0107891D01*
X0357140Y0108890D02*
X0358983Y0108890D01*
X0358138Y0109888D02*
X0359981Y0109888D01*
X0359137Y0110887D02*
X0360980Y0110887D01*
X0360135Y0111885D02*
X0361978Y0111885D01*
X0361134Y0112884D02*
X0362977Y0112884D01*
X0362132Y0113882D02*
X0363975Y0113882D01*
X0363131Y0114881D02*
X0364974Y0114881D01*
X0364129Y0115879D02*
X0365972Y0115879D01*
X0365128Y0116878D02*
X0366971Y0116878D01*
X0366126Y0117876D02*
X0367969Y0117876D01*
X0367125Y0118875D02*
X0368968Y0118875D01*
X0368123Y0119873D02*
X0369966Y0119873D01*
X0369122Y0120872D02*
X0370965Y0120872D01*
X0370120Y0121870D02*
X0371871Y0121870D01*
X0371980Y0122869D02*
X0371119Y0122869D01*
X0372117Y0123868D02*
X0372475Y0123868D01*
X0373116Y0124866D02*
X0373870Y0124866D01*
X0375599Y0125865D02*
X0406621Y0125865D01*
X0406707Y0126863D02*
X0376252Y0126863D01*
X0376471Y0127862D02*
X0407120Y0127862D01*
X0408203Y0128860D02*
X0376366Y0128860D01*
X0375876Y0129859D02*
X0431220Y0129859D01*
X0432812Y0128860D02*
X0421117Y0128860D01*
X0419921Y0128860D02*
X0419921Y0128860D01*
X0419921Y0129100D02*
X0419921Y0126000D01*
X0419921Y0126000D01*
X0419921Y0129100D01*
X0418725Y0128860D02*
X0415595Y0128860D01*
X0414248Y0128860D02*
X0411640Y0128860D01*
X0412456Y0123868D02*
X0412821Y0123868D01*
X0412821Y0122869D02*
X0410986Y0122869D01*
X0412821Y0121870D02*
X0377971Y0121870D01*
X0377863Y0122869D02*
X0408857Y0122869D01*
X0407387Y0123868D02*
X0377367Y0123868D01*
X0375972Y0124866D02*
X0406819Y0124866D01*
X0412821Y0120872D02*
X0377755Y0120872D01*
X0377108Y0119873D02*
X0412821Y0119873D01*
X0412821Y0118875D02*
X0411604Y0118875D01*
X0412712Y0117876D02*
X0412821Y0117876D01*
X0412821Y0113882D02*
X0412471Y0113882D01*
X0412821Y0112884D02*
X0411022Y0112884D01*
X0412821Y0111885D02*
X0406921Y0111885D01*
X0406921Y0110887D02*
X0412821Y0110887D01*
X0413063Y0109888D02*
X0406921Y0109888D01*
X0406921Y0108890D02*
X0408275Y0108890D01*
X0407146Y0107891D02*
X0406921Y0107891D01*
X0406921Y0103897D02*
X0407357Y0103897D01*
X0406148Y0102899D02*
X0408785Y0102899D01*
X0411058Y0102899D02*
X0415850Y0102899D01*
X0416849Y0103897D02*
X0412485Y0103897D01*
X0413036Y0104896D02*
X0416807Y0104896D01*
X0416621Y0105894D02*
X0413221Y0105894D01*
X0413123Y0106893D02*
X0416059Y0106893D01*
X0415060Y0107891D02*
X0412697Y0107891D01*
X0411568Y0108890D02*
X0414062Y0108890D01*
X0417021Y0111870D02*
X0417021Y0114378D01*
X0417124Y0114131D01*
X0418052Y0113202D01*
X0419265Y0112700D01*
X0420578Y0112700D01*
X0421791Y0113202D01*
X0422719Y0114131D01*
X0423221Y0115344D01*
X0423221Y0116656D01*
X0422719Y0117869D01*
X0421791Y0118798D01*
X0421543Y0118900D01*
X0428791Y0118900D01*
X0430021Y0120130D01*
X0439285Y0129394D01*
X0439336Y0129272D01*
X0439850Y0128758D01*
X0433921Y0122828D01*
X0433921Y0111328D01*
X0416808Y0094215D01*
X0416564Y0094458D01*
X0415498Y0094900D01*
X0414344Y0094900D01*
X0413400Y0094509D01*
X0422021Y0103130D01*
X0422021Y0103433D01*
X0422719Y0104131D01*
X0423221Y0105344D01*
X0423221Y0106656D01*
X0422719Y0107869D01*
X0421791Y0108798D01*
X0420578Y0109300D01*
X0419591Y0109300D01*
X0417021Y0111870D01*
X0417021Y0111885D02*
X0433921Y0111885D01*
X0433921Y0112884D02*
X0421022Y0112884D01*
X0422471Y0113882D02*
X0433921Y0113882D01*
X0433921Y0114881D02*
X0423030Y0114881D01*
X0423221Y0115879D02*
X0433921Y0115879D01*
X0433921Y0116878D02*
X0423130Y0116878D01*
X0422712Y0117876D02*
X0433921Y0117876D01*
X0433921Y0118875D02*
X0421604Y0118875D01*
X0417372Y0113882D02*
X0417021Y0113882D01*
X0417021Y0112884D02*
X0418821Y0112884D01*
X0418004Y0110887D02*
X0433480Y0110887D01*
X0432481Y0109888D02*
X0419003Y0109888D01*
X0421568Y0108890D02*
X0431483Y0108890D01*
X0430484Y0107891D02*
X0422697Y0107891D01*
X0423123Y0106893D02*
X0429486Y0106893D01*
X0428487Y0105894D02*
X0423221Y0105894D01*
X0423036Y0104896D02*
X0427489Y0104896D01*
X0426490Y0103897D02*
X0422485Y0103897D01*
X0421790Y0102899D02*
X0425492Y0102899D01*
X0424493Y0101900D02*
X0420791Y0101900D01*
X0419793Y0100902D02*
X0423495Y0100902D01*
X0422496Y0099903D02*
X0418794Y0099903D01*
X0417796Y0098905D02*
X0421498Y0098905D01*
X0420499Y0097906D02*
X0416797Y0097906D01*
X0415799Y0096908D02*
X0419501Y0096908D01*
X0418502Y0095909D02*
X0414800Y0095909D01*
X0413802Y0094911D02*
X0417504Y0094911D01*
X0417921Y0089918D02*
X0416941Y0089918D01*
X0417921Y0088920D02*
X0408942Y0088920D01*
X0409612Y0089918D02*
X0412902Y0089918D01*
X0412231Y0090917D02*
X0409821Y0090917D01*
X0410806Y0091915D02*
X0412021Y0091915D01*
X0412161Y0092914D02*
X0411805Y0092914D01*
X0408861Y0095909D02*
X0351659Y0095909D01*
X0350660Y0094911D02*
X0407862Y0094911D01*
X0406864Y0093912D02*
X0349662Y0093912D01*
X0348663Y0092914D02*
X0404734Y0092914D01*
X0404161Y0091915D02*
X0347665Y0091915D01*
X0346666Y0090917D02*
X0404021Y0090917D01*
X0404230Y0089918D02*
X0345668Y0089918D01*
X0344669Y0088920D02*
X0404900Y0088920D01*
X0407716Y0080932D02*
X0401571Y0080932D01*
X0400421Y0080932D02*
X0399421Y0080932D01*
X0399421Y0081186D02*
X0398704Y0081072D01*
X0397925Y0080819D01*
X0397196Y0080447D01*
X0396534Y0079966D01*
X0395955Y0079388D01*
X0395474Y0078725D01*
X0395102Y0077996D01*
X0394849Y0077218D01*
X0394736Y0076500D01*
X0399421Y0076500D01*
X0399421Y0081186D01*
X0398271Y0080932D02*
X0336681Y0080932D01*
X0337680Y0081930D02*
X0417921Y0081930D01*
X0417921Y0082929D02*
X0338678Y0082929D01*
X0339677Y0083927D02*
X0417921Y0083927D01*
X0417921Y0084926D02*
X0340675Y0084926D01*
X0341674Y0085924D02*
X0417921Y0085924D01*
X0417921Y0086923D02*
X0342672Y0086923D01*
X0343671Y0087921D02*
X0417921Y0087921D01*
X0421921Y0087921D02*
X0427921Y0087921D01*
X0427921Y0086923D02*
X0421921Y0086923D01*
X0421921Y0085924D02*
X0427921Y0085924D01*
X0427921Y0084926D02*
X0421921Y0084926D01*
X0421921Y0083927D02*
X0427921Y0083927D01*
X0427921Y0082929D02*
X0421921Y0082929D01*
X0421921Y0081930D02*
X0427921Y0081930D01*
X0427921Y0081016D02*
X0426862Y0080578D01*
X0425343Y0079059D01*
X0424921Y0078040D01*
X0424499Y0079059D01*
X0422980Y0080578D01*
X0421921Y0081016D01*
X0421921Y0089172D01*
X0427921Y0095172D01*
X0427921Y0081016D01*
X0427716Y0080932D02*
X0422126Y0080932D01*
X0423625Y0079933D02*
X0426218Y0079933D01*
X0425292Y0078934D02*
X0424551Y0078934D01*
X0432126Y0080932D02*
X0432921Y0080932D01*
X0432921Y0081930D02*
X0431921Y0081930D01*
X0431921Y0082929D02*
X0432921Y0082929D01*
X0432921Y0083927D02*
X0431921Y0083927D01*
X0431921Y0084926D02*
X0432921Y0084926D01*
X0432896Y0085924D02*
X0431921Y0085924D01*
X0431921Y0086923D02*
X0432229Y0086923D01*
X0432021Y0087921D02*
X0431921Y0087921D01*
X0431921Y0088920D02*
X0432163Y0088920D01*
X0431921Y0089918D02*
X0432738Y0089918D01*
X0431921Y0090917D02*
X0497743Y0090917D01*
X0497743Y0091915D02*
X0431921Y0091915D01*
X0431921Y0092914D02*
X0497743Y0092914D01*
X0497743Y0093912D02*
X0431921Y0093912D01*
X0431921Y0094911D02*
X0497743Y0094911D01*
X0497743Y0095909D02*
X0432659Y0095909D01*
X0433657Y0096908D02*
X0497743Y0096908D01*
X0497743Y0097906D02*
X0434656Y0097906D01*
X0435654Y0098905D02*
X0478188Y0098905D01*
X0477190Y0099903D02*
X0436653Y0099903D01*
X0437651Y0100902D02*
X0476191Y0100902D01*
X0475193Y0101900D02*
X0438650Y0101900D01*
X0439648Y0102899D02*
X0474194Y0102899D01*
X0473196Y0103897D02*
X0440647Y0103897D01*
X0441646Y0104896D02*
X0472197Y0104896D01*
X0471921Y0105894D02*
X0442644Y0105894D01*
X0443643Y0106893D02*
X0471921Y0106893D01*
X0471921Y0107891D02*
X0444641Y0107891D01*
X0445640Y0108890D02*
X0471921Y0108890D01*
X0471921Y0109888D02*
X0464638Y0109888D01*
X0465637Y0110887D02*
X0471921Y0110887D01*
X0471921Y0111885D02*
X0466635Y0111885D01*
X0466921Y0112884D02*
X0471921Y0112884D01*
X0471921Y0113882D02*
X0466921Y0113882D01*
X0466921Y0114881D02*
X0471921Y0114881D01*
X0471921Y0115879D02*
X0466921Y0115879D01*
X0466921Y0116878D02*
X0471921Y0116878D01*
X0471921Y0117876D02*
X0467595Y0117876D01*
X0467821Y0118875D02*
X0471921Y0118875D01*
X0471249Y0119873D02*
X0467698Y0119873D01*
X0467151Y0120872D02*
X0471021Y0120872D01*
X0471143Y0121870D02*
X0465569Y0121870D01*
X0464273Y0121870D02*
X0440569Y0121870D01*
X0439273Y0121870D02*
X0438620Y0121870D01*
X0439619Y0122869D02*
X0471689Y0122869D01*
X0471890Y0123868D02*
X0473266Y0123868D01*
X0474577Y0123868D02*
X0475225Y0123868D01*
X0476154Y0122869D02*
X0476224Y0122869D01*
X0476700Y0121870D02*
X0477222Y0121870D01*
X0476821Y0120872D02*
X0478221Y0120872D01*
X0479219Y0119873D02*
X0476594Y0119873D01*
X0475921Y0118875D02*
X0480218Y0118875D01*
X0481216Y0117876D02*
X0475921Y0117876D01*
X0475921Y0116878D02*
X0482215Y0116878D01*
X0483213Y0115879D02*
X0475921Y0115879D01*
X0475921Y0114881D02*
X0484212Y0114881D01*
X0485210Y0113882D02*
X0475921Y0113882D01*
X0475921Y0112884D02*
X0486209Y0112884D01*
X0485721Y0111885D02*
X0475921Y0111885D01*
X0475921Y0110887D02*
X0485721Y0110887D01*
X0485721Y0109888D02*
X0475921Y0109888D01*
X0475921Y0108890D02*
X0485721Y0108890D01*
X0485721Y0107891D02*
X0475921Y0107891D01*
X0475921Y0106893D02*
X0484327Y0106893D01*
X0482714Y0105894D02*
X0476855Y0105894D01*
X0477854Y0104896D02*
X0482153Y0104896D01*
X0482021Y0103897D02*
X0478852Y0103897D01*
X0479851Y0102899D02*
X0482238Y0102899D01*
X0489921Y0102000D02*
X0489921Y0106000D01*
X0489921Y0110000D01*
X0490867Y0113882D02*
X0492821Y0113882D01*
X0492821Y0114881D02*
X0489869Y0114881D01*
X0488870Y0115879D02*
X0492821Y0115879D01*
X0492821Y0116878D02*
X0487872Y0116878D01*
X0486873Y0117876D02*
X0492821Y0117876D01*
X0492821Y0118875D02*
X0485875Y0118875D01*
X0484876Y0119873D02*
X0492821Y0119873D01*
X0492821Y0120872D02*
X0483878Y0120872D01*
X0482879Y0121870D02*
X0492821Y0121870D01*
X0492821Y0122869D02*
X0481881Y0122869D01*
X0480882Y0123868D02*
X0492821Y0123868D01*
X0492821Y0124866D02*
X0479884Y0124866D01*
X0478885Y0125865D02*
X0492821Y0125865D01*
X0492088Y0126863D02*
X0477887Y0126863D01*
X0476888Y0127862D02*
X0491090Y0127862D01*
X0490091Y0128860D02*
X0470595Y0128860D01*
X0469248Y0128860D02*
X0444095Y0128860D01*
X0443921Y0127862D02*
X0467682Y0127862D01*
X0467140Y0126863D02*
X0443613Y0126863D01*
X0442614Y0125865D02*
X0467021Y0125865D01*
X0467252Y0124866D02*
X0441616Y0124866D01*
X0440617Y0123868D02*
X0467953Y0123868D01*
X0472745Y0136848D02*
X0446739Y0136848D01*
X0445741Y0135850D02*
X0483102Y0135850D01*
X0482103Y0136848D02*
X0475097Y0136848D01*
X0471473Y0137847D02*
X0447738Y0137847D01*
X0448736Y0138845D02*
X0457253Y0138845D01*
X0459590Y0138845D02*
X0471054Y0138845D01*
X0473552Y0142839D02*
X0497743Y0142839D01*
X0497743Y0141841D02*
X0475682Y0141841D01*
X0484049Y0140842D02*
X0497743Y0140842D01*
X0497743Y0139844D02*
X0485047Y0139844D01*
X0486046Y0138845D02*
X0497743Y0138845D01*
X0497743Y0137847D02*
X0487044Y0137847D01*
X0488043Y0136848D02*
X0497743Y0136848D01*
X0497743Y0135850D02*
X0489041Y0135850D01*
X0490040Y0134851D02*
X0497743Y0134851D01*
X0497743Y0133853D02*
X0491039Y0133853D01*
X0492037Y0132854D02*
X0497743Y0132854D01*
X0497743Y0131856D02*
X0493036Y0131856D01*
X0494034Y0130857D02*
X0497743Y0130857D01*
X0497743Y0129859D02*
X0495033Y0129859D01*
X0496031Y0128860D02*
X0497743Y0128860D01*
X0497743Y0127862D02*
X0497021Y0127862D01*
X0497021Y0126863D02*
X0497743Y0126863D01*
X0497743Y0125865D02*
X0497021Y0125865D01*
X0497021Y0124866D02*
X0497743Y0124866D01*
X0497743Y0123868D02*
X0497021Y0123868D01*
X0497021Y0122869D02*
X0497743Y0122869D01*
X0497743Y0121870D02*
X0497021Y0121870D01*
X0497021Y0120872D02*
X0497743Y0120872D01*
X0497743Y0119873D02*
X0497021Y0119873D01*
X0497021Y0118875D02*
X0497743Y0118875D01*
X0497743Y0117876D02*
X0497021Y0117876D01*
X0497021Y0116878D02*
X0497743Y0116878D01*
X0497743Y0115879D02*
X0497021Y0115879D01*
X0497021Y0114881D02*
X0497743Y0114881D01*
X0497743Y0113882D02*
X0497021Y0113882D01*
X0497021Y0112884D02*
X0497743Y0112884D01*
X0497743Y0111885D02*
X0497021Y0111885D01*
X0497021Y0110887D02*
X0497743Y0110887D01*
X0497743Y0109888D02*
X0497021Y0109888D01*
X0497021Y0108890D02*
X0497743Y0108890D01*
X0497743Y0107891D02*
X0497021Y0107891D01*
X0497021Y0106893D02*
X0497743Y0106893D01*
X0497743Y0105894D02*
X0496285Y0105894D01*
X0495287Y0104896D02*
X0497743Y0104896D01*
X0497743Y0103897D02*
X0494121Y0103897D01*
X0494121Y0102899D02*
X0497743Y0102899D01*
X0497743Y0101900D02*
X0494121Y0101900D01*
X0494121Y0100902D02*
X0497743Y0100902D01*
X0497743Y0099903D02*
X0493979Y0099903D01*
X0491654Y0098905D02*
X0497743Y0098905D01*
X0497743Y0089918D02*
X0492903Y0089918D01*
X0494694Y0089266D02*
X0494694Y0089266D01*
X0495107Y0088920D02*
X0497743Y0088920D01*
X0497743Y0087921D02*
X0496297Y0087921D01*
X0497356Y0086923D02*
X0497743Y0086923D01*
X0486940Y0089918D02*
X0437104Y0089918D01*
X0437679Y0088920D02*
X0484736Y0088920D01*
X0483546Y0087921D02*
X0437821Y0087921D01*
X0437614Y0086923D02*
X0482487Y0086923D01*
X0482609Y0087135D02*
X0482609Y0087135D01*
X0482609Y0087135D01*
X0481910Y0085924D02*
X0436947Y0085924D01*
X0436921Y0084926D02*
X0481334Y0084926D01*
X0480892Y0083927D02*
X0436921Y0083927D01*
X0436921Y0082929D02*
X0480716Y0082929D01*
X0480540Y0081930D02*
X0436921Y0081930D01*
X0442126Y0080932D02*
X0480388Y0080932D01*
X0480376Y0081000D02*
X0480376Y0081000D01*
X0480564Y0079933D02*
X0443625Y0079933D01*
X0444551Y0078934D02*
X0480740Y0078934D01*
X0480917Y0077936D02*
X0444964Y0077936D01*
X0445321Y0076937D02*
X0481413Y0076937D01*
X0480952Y0077735D02*
X0480952Y0077735D01*
X0481989Y0075939D02*
X0445321Y0075939D01*
X0445321Y0074940D02*
X0482566Y0074940D01*
X0483709Y0073942D02*
X0444914Y0073942D01*
X0427921Y0088920D02*
X0421921Y0088920D01*
X0422668Y0089918D02*
X0427921Y0089918D01*
X0427921Y0090917D02*
X0423666Y0090917D01*
X0424665Y0091915D02*
X0427921Y0091915D01*
X0427921Y0092914D02*
X0425663Y0092914D01*
X0426662Y0093912D02*
X0427921Y0093912D01*
X0427921Y0094911D02*
X0427660Y0094911D01*
X0414852Y0101900D02*
X0405150Y0101900D01*
X0404151Y0100902D02*
X0413853Y0100902D01*
X0412855Y0099903D02*
X0403153Y0099903D01*
X0402321Y0098905D02*
X0411856Y0098905D01*
X0410858Y0097906D02*
X0402107Y0097906D01*
X0401430Y0096908D02*
X0409859Y0096908D01*
X0402489Y0104896D02*
X0375508Y0104896D01*
X0374334Y0104896D02*
X0360645Y0104896D01*
X0359647Y0103897D02*
X0372717Y0103897D01*
X0372155Y0102899D02*
X0358648Y0102899D01*
X0357650Y0101900D02*
X0372021Y0101900D01*
X0372237Y0100902D02*
X0356651Y0100902D01*
X0355653Y0099903D02*
X0372917Y0099903D01*
X0376926Y0099903D02*
X0395690Y0099903D01*
X0396521Y0098905D02*
X0354654Y0098905D01*
X0353656Y0097906D02*
X0396735Y0097906D01*
X0397412Y0096908D02*
X0352657Y0096908D01*
X0361644Y0105894D02*
X0402921Y0105894D01*
X0402921Y0106893D02*
X0362643Y0106893D01*
X0363641Y0107891D02*
X0402921Y0107891D01*
X0402921Y0108890D02*
X0364640Y0108890D01*
X0365638Y0109888D02*
X0402921Y0109888D01*
X0402921Y0110887D02*
X0366637Y0110887D01*
X0367635Y0111885D02*
X0402921Y0111885D01*
X0402921Y0112884D02*
X0368634Y0112884D01*
X0369632Y0113882D02*
X0402921Y0113882D01*
X0402974Y0114881D02*
X0370631Y0114881D01*
X0371629Y0115879D02*
X0403972Y0115879D01*
X0404971Y0116878D02*
X0372628Y0116878D01*
X0373626Y0117876D02*
X0405969Y0117876D01*
X0408239Y0118875D02*
X0374625Y0118875D01*
X0363954Y0127862D02*
X0292021Y0127862D01*
X0292021Y0128860D02*
X0364953Y0128860D01*
X0365951Y0129859D02*
X0292021Y0129859D01*
X0292021Y0130857D02*
X0366950Y0130857D01*
X0367948Y0131856D02*
X0292021Y0131856D01*
X0292021Y0132854D02*
X0368947Y0132854D01*
X0369945Y0133853D02*
X0292021Y0133853D01*
X0292021Y0134851D02*
X0406238Y0134851D01*
X0405779Y0135041D02*
X0406844Y0134600D01*
X0407998Y0134600D01*
X0409064Y0135041D01*
X0409423Y0135400D01*
X0409791Y0135400D01*
X0418991Y0144600D01*
X0419498Y0144600D01*
X0420564Y0145041D01*
X0421380Y0145857D01*
X0421821Y0146923D01*
X0421821Y0148077D01*
X0421380Y0149143D01*
X0420564Y0149958D01*
X0419498Y0150400D01*
X0418344Y0150400D01*
X0417279Y0149958D01*
X0416463Y0149143D01*
X0416021Y0148077D01*
X0416021Y0147570D01*
X0408602Y0140150D01*
X0407998Y0140400D01*
X0406844Y0140400D01*
X0405779Y0139958D01*
X0404963Y0139143D01*
X0404521Y0138077D01*
X0404521Y0136923D01*
X0404963Y0135857D01*
X0405779Y0135041D01*
X0404970Y0135850D02*
X0292021Y0135850D01*
X0292021Y0136848D02*
X0404552Y0136848D01*
X0404521Y0137847D02*
X0292021Y0137847D01*
X0292021Y0138845D02*
X0404840Y0138845D01*
X0405664Y0139844D02*
X0292021Y0139844D01*
X0292021Y0140842D02*
X0409294Y0140842D01*
X0410292Y0141841D02*
X0292021Y0141841D01*
X0292021Y0142839D02*
X0411291Y0142839D01*
X0412289Y0143838D02*
X0292021Y0143838D01*
X0292021Y0144836D02*
X0413288Y0144836D01*
X0414286Y0145835D02*
X0292021Y0145835D01*
X0292021Y0146833D02*
X0415285Y0146833D01*
X0416021Y0147832D02*
X0292021Y0147832D01*
X0292021Y0148830D02*
X0416333Y0148830D01*
X0417149Y0149829D02*
X0292021Y0149829D01*
X0292021Y0150827D02*
X0497743Y0150827D01*
X0497743Y0149829D02*
X0420694Y0149829D01*
X0421509Y0148830D02*
X0497743Y0148830D01*
X0497743Y0147832D02*
X0421821Y0147832D01*
X0421784Y0146833D02*
X0427500Y0146833D01*
X0427371Y0146704D02*
X0427371Y0145600D01*
X0426923Y0145600D01*
X0426564Y0145958D01*
X0425498Y0146400D01*
X0424344Y0146400D01*
X0423279Y0145958D01*
X0422463Y0145143D01*
X0422021Y0144077D01*
X0422021Y0142923D01*
X0422463Y0141857D01*
X0423279Y0141041D01*
X0424344Y0140600D01*
X0425498Y0140600D01*
X0426564Y0141041D01*
X0426923Y0141400D01*
X0427371Y0141400D01*
X0427371Y0140296D01*
X0428367Y0139300D01*
X0432275Y0139300D01*
X0432475Y0139500D01*
X0433396Y0139500D01*
X0433396Y0143375D01*
X0433646Y0143375D01*
X0433646Y0139500D01*
X0434969Y0139500D01*
X0435350Y0139602D01*
X0435692Y0139800D01*
X0435972Y0140079D01*
X0436169Y0140421D01*
X0436271Y0140803D01*
X0436271Y0143375D01*
X0433646Y0143375D01*
X0433646Y0143625D01*
X0433396Y0143625D01*
X0433396Y0147500D01*
X0432475Y0147500D01*
X0432275Y0147700D01*
X0428367Y0147700D01*
X0427371Y0146704D01*
X0427371Y0145835D02*
X0426688Y0145835D01*
X0423155Y0145835D02*
X0421357Y0145835D01*
X0422336Y0144836D02*
X0420068Y0144836D01*
X0418229Y0143838D02*
X0422021Y0143838D01*
X0422056Y0142839D02*
X0417230Y0142839D01*
X0416232Y0141841D02*
X0422479Y0141841D01*
X0423760Y0140842D02*
X0415233Y0140842D01*
X0414235Y0139844D02*
X0427823Y0139844D01*
X0427371Y0140842D02*
X0426083Y0140842D01*
X0433396Y0140842D02*
X0433646Y0140842D01*
X0433646Y0139844D02*
X0433396Y0139844D01*
X0433396Y0141841D02*
X0433646Y0141841D01*
X0433646Y0142839D02*
X0433396Y0142839D01*
X0433646Y0143625D02*
X0436271Y0143625D01*
X0436271Y0146197D01*
X0436169Y0146579D01*
X0435972Y0146921D01*
X0435692Y0147200D01*
X0435350Y0147398D01*
X0434969Y0147500D01*
X0433646Y0147500D01*
X0433646Y0143625D01*
X0433646Y0143838D02*
X0433396Y0143838D01*
X0433396Y0144836D02*
X0433646Y0144836D01*
X0433646Y0145835D02*
X0433396Y0145835D01*
X0433396Y0146833D02*
X0433646Y0146833D01*
X0436022Y0146833D02*
X0497743Y0146833D01*
X0497743Y0145835D02*
X0436271Y0145835D01*
X0436271Y0144836D02*
X0497743Y0144836D01*
X0497743Y0143838D02*
X0460185Y0143838D01*
X0456658Y0143838D02*
X0436271Y0143838D01*
X0436271Y0142839D02*
X0446791Y0142839D01*
X0445792Y0141841D02*
X0436271Y0141841D01*
X0436271Y0140842D02*
X0444794Y0140842D01*
X0443795Y0139844D02*
X0435736Y0139844D01*
X0434171Y0134851D02*
X0438803Y0134851D01*
X0439801Y0135850D02*
X0410241Y0135850D01*
X0411239Y0136848D02*
X0440800Y0136848D01*
X0441798Y0137847D02*
X0412238Y0137847D01*
X0413236Y0138845D02*
X0442797Y0138845D01*
X0444742Y0134851D02*
X0484100Y0134851D01*
X0485099Y0133853D02*
X0443744Y0133853D01*
X0444381Y0132854D02*
X0486097Y0132854D01*
X0487096Y0131856D02*
X0444868Y0131856D01*
X0444971Y0130857D02*
X0488094Y0130857D01*
X0489093Y0129859D02*
X0444750Y0129859D01*
X0439748Y0128860D02*
X0438751Y0128860D01*
X0438954Y0127862D02*
X0437753Y0127862D01*
X0437956Y0126863D02*
X0436754Y0126863D01*
X0436957Y0125865D02*
X0435756Y0125865D01*
X0435959Y0124866D02*
X0434757Y0124866D01*
X0434960Y0123868D02*
X0433759Y0123868D01*
X0433962Y0122869D02*
X0432760Y0122869D01*
X0431762Y0121870D02*
X0433921Y0121870D01*
X0433921Y0120872D02*
X0430763Y0120872D01*
X0429765Y0119873D02*
X0433921Y0119873D01*
X0428817Y0124866D02*
X0422807Y0124866D01*
X0423021Y0125865D02*
X0429816Y0125865D01*
X0430815Y0126863D02*
X0422910Y0126863D01*
X0423021Y0126000D02*
X0419921Y0126000D01*
X0419921Y0126000D01*
X0423021Y0126000D01*
X0422406Y0127862D02*
X0431813Y0127862D01*
X0433622Y0129859D02*
X0433810Y0129859D01*
X0435293Y0131856D02*
X0435807Y0131856D01*
X0435321Y0132854D02*
X0436806Y0132854D01*
X0437804Y0133853D02*
X0435000Y0133853D01*
X0430671Y0134851D02*
X0408604Y0134851D01*
X0417161Y0127862D02*
X0417437Y0127862D01*
X0419921Y0127862D02*
X0419921Y0127862D01*
X0419921Y0126863D02*
X0419921Y0126863D01*
X0422173Y0123868D02*
X0427819Y0123868D01*
X0408821Y0112884D02*
X0406921Y0112884D01*
X0401490Y0103897D02*
X0397352Y0103897D01*
X0398351Y0102899D02*
X0400492Y0102899D01*
X0399493Y0101900D02*
X0399349Y0101900D01*
X0399421Y0079933D02*
X0400421Y0079933D01*
X0400421Y0078934D02*
X0399421Y0078934D01*
X0399421Y0077936D02*
X0400421Y0077936D01*
X0400421Y0076937D02*
X0399421Y0076937D01*
X0399421Y0075939D02*
X0320174Y0075939D01*
X0314679Y0082929D02*
X0308925Y0082929D01*
X0309101Y0083927D02*
X0313772Y0083927D01*
X0313371Y0084926D02*
X0309277Y0084926D01*
X0309453Y0085924D02*
X0313371Y0085924D01*
X0313709Y0086923D02*
X0309304Y0086923D01*
X0309466Y0086000D02*
X0309466Y0086000D01*
X0309128Y0087921D02*
X0314529Y0087921D01*
X0318314Y0087921D02*
X0330514Y0087921D01*
X0331513Y0088920D02*
X0308951Y0088920D01*
X0308891Y0089265D02*
X0308891Y0089265D01*
X0308513Y0089918D02*
X0332511Y0089918D01*
X0333510Y0090917D02*
X0307937Y0090917D01*
X0307360Y0091915D02*
X0334508Y0091915D01*
X0335507Y0092914D02*
X0306306Y0092914D01*
X0305116Y0093912D02*
X0336505Y0093912D01*
X0337504Y0094911D02*
X0302923Y0094911D01*
X0304694Y0094266D02*
X0304694Y0094266D01*
X0299320Y0095909D02*
X0334911Y0095909D01*
X0334235Y0096908D02*
X0299699Y0096908D01*
X0299500Y0097906D02*
X0334021Y0097906D01*
X0334157Y0098905D02*
X0298650Y0098905D01*
X0299454Y0099903D02*
X0334723Y0099903D01*
X0336995Y0100902D02*
X0299654Y0100902D01*
X0299471Y0101900D02*
X0337993Y0101900D01*
X0338992Y0102899D02*
X0298977Y0102899D01*
X0299626Y0103897D02*
X0339990Y0103897D01*
X0340989Y0104896D02*
X0299626Y0104896D01*
X0299626Y0105894D02*
X0341987Y0105894D01*
X0342986Y0106893D02*
X0299626Y0106893D01*
X0299115Y0107891D02*
X0343984Y0107891D01*
X0344983Y0108890D02*
X0298523Y0108890D01*
X0299522Y0109888D02*
X0345981Y0109888D01*
X0346980Y0110887D02*
X0299626Y0110887D01*
X0299626Y0111885D02*
X0347978Y0111885D01*
X0348977Y0112884D02*
X0299626Y0112884D01*
X0299569Y0113882D02*
X0349975Y0113882D01*
X0350974Y0114881D02*
X0298571Y0114881D01*
X0298308Y0115144D02*
X0298308Y0115144D01*
X0297572Y0115879D02*
X0351972Y0115879D01*
X0352971Y0116878D02*
X0292021Y0116878D01*
X0292021Y0117876D02*
X0353969Y0117876D01*
X0354968Y0118875D02*
X0292021Y0118875D01*
X0292021Y0119873D02*
X0355966Y0119873D01*
X0356965Y0120872D02*
X0292021Y0120872D01*
X0292021Y0121870D02*
X0357963Y0121870D01*
X0358962Y0122869D02*
X0292021Y0122869D01*
X0292021Y0123868D02*
X0359960Y0123868D01*
X0360959Y0124866D02*
X0292021Y0124866D01*
X0292021Y0125865D02*
X0361957Y0125865D01*
X0362956Y0126863D02*
X0292021Y0126863D01*
X0277172Y0129859D02*
X0232828Y0129859D01*
X0233050Y0130857D02*
X0276173Y0130857D01*
X0275175Y0131856D02*
X0232947Y0131856D01*
X0232459Y0132854D02*
X0274176Y0132854D01*
X0273178Y0133853D02*
X0231822Y0133853D01*
X0232821Y0134851D02*
X0272179Y0134851D01*
X0285821Y0143838D02*
X0248263Y0143838D01*
X0244737Y0143838D02*
X0224350Y0143838D01*
X0224350Y0143625D02*
X0224350Y0146197D01*
X0224248Y0146579D01*
X0224050Y0146921D01*
X0223771Y0147200D01*
X0223429Y0147398D01*
X0223047Y0147500D01*
X0221725Y0147500D01*
X0221725Y0143625D01*
X0221475Y0143625D01*
X0221475Y0147500D01*
X0220554Y0147500D01*
X0220354Y0147700D01*
X0216446Y0147700D01*
X0215450Y0146704D01*
X0215450Y0145600D01*
X0215001Y0145600D01*
X0214643Y0145958D01*
X0213577Y0146400D01*
X0212423Y0146400D01*
X0211357Y0145958D01*
X0210541Y0145143D01*
X0210100Y0144077D01*
X0210100Y0142923D01*
X0210541Y0141857D01*
X0211357Y0141041D01*
X0212423Y0140600D01*
X0213577Y0140600D01*
X0214643Y0141041D01*
X0215001Y0141400D01*
X0215450Y0141400D01*
X0215450Y0140296D01*
X0216446Y0139300D01*
X0220354Y0139300D01*
X0220554Y0139500D01*
X0221475Y0139500D01*
X0221475Y0143375D01*
X0221725Y0143375D01*
X0221725Y0143625D01*
X0224350Y0143625D01*
X0224350Y0143375D02*
X0221725Y0143375D01*
X0221725Y0139500D01*
X0223047Y0139500D01*
X0223429Y0139602D01*
X0223771Y0139800D01*
X0224050Y0140079D01*
X0224248Y0140421D01*
X0224350Y0140803D01*
X0224350Y0143375D01*
X0224350Y0142839D02*
X0234869Y0142839D01*
X0233871Y0141841D02*
X0224350Y0141841D01*
X0224350Y0140842D02*
X0232872Y0140842D01*
X0231874Y0139844D02*
X0223815Y0139844D01*
X0221725Y0139844D02*
X0221475Y0139844D01*
X0221475Y0140842D02*
X0221725Y0140842D01*
X0221725Y0141841D02*
X0221475Y0141841D01*
X0221475Y0142839D02*
X0221725Y0142839D01*
X0221725Y0143838D02*
X0221475Y0143838D01*
X0221475Y0144836D02*
X0221725Y0144836D01*
X0221725Y0145835D02*
X0221475Y0145835D01*
X0221475Y0146833D02*
X0221725Y0146833D01*
X0224101Y0146833D02*
X0285821Y0146833D01*
X0285821Y0145835D02*
X0224350Y0145835D01*
X0224350Y0144836D02*
X0285821Y0144836D01*
X0285821Y0147832D02*
X0209900Y0147832D01*
X0209863Y0146833D02*
X0215579Y0146833D01*
X0215450Y0145835D02*
X0214766Y0145835D01*
X0211234Y0145835D02*
X0209436Y0145835D01*
X0210415Y0144836D02*
X0208147Y0144836D01*
X0206308Y0143838D02*
X0210100Y0143838D01*
X0210135Y0142839D02*
X0205309Y0142839D01*
X0204311Y0141841D02*
X0210558Y0141841D01*
X0211838Y0140842D02*
X0203312Y0140842D01*
X0202314Y0139844D02*
X0215902Y0139844D01*
X0215450Y0140842D02*
X0214162Y0140842D01*
X0218750Y0134851D02*
X0196683Y0134851D01*
X0198319Y0135850D02*
X0227880Y0135850D01*
X0228878Y0136848D02*
X0199318Y0136848D01*
X0200316Y0137847D02*
X0229877Y0137847D01*
X0230875Y0138845D02*
X0201315Y0138845D01*
X0209588Y0148830D02*
X0285821Y0148830D01*
X0226881Y0134851D02*
X0222250Y0134851D01*
X0223079Y0133853D02*
X0225883Y0133853D01*
X0224884Y0132854D02*
X0223400Y0132854D01*
X0223372Y0131856D02*
X0223886Y0131856D01*
X0221889Y0129859D02*
X0221701Y0129859D01*
X0219892Y0127862D02*
X0210484Y0127862D01*
X0210989Y0126863D02*
X0218893Y0126863D01*
X0217895Y0125865D02*
X0211100Y0125865D01*
X0210886Y0124866D02*
X0216896Y0124866D01*
X0215898Y0123868D02*
X0210252Y0123868D01*
X0205516Y0127862D02*
X0205240Y0127862D01*
X0217843Y0119873D02*
X0222000Y0119873D01*
X0222000Y0120872D02*
X0218842Y0120872D01*
X0219840Y0121870D02*
X0222000Y0121870D01*
X0222041Y0122869D02*
X0220839Y0122869D01*
X0221837Y0123868D02*
X0223039Y0123868D01*
X0222836Y0124866D02*
X0224038Y0124866D01*
X0223834Y0125865D02*
X0225036Y0125865D01*
X0224833Y0126863D02*
X0226035Y0126863D01*
X0225831Y0127862D02*
X0227033Y0127862D01*
X0226830Y0128860D02*
X0227827Y0128860D01*
X0225183Y0089918D02*
X0275019Y0089918D01*
X0272814Y0088920D02*
X0225758Y0088920D01*
X0225900Y0087921D02*
X0271624Y0087921D01*
X0270565Y0086923D02*
X0225693Y0086923D01*
X0225025Y0085924D02*
X0269989Y0085924D01*
X0269412Y0084926D02*
X0225000Y0084926D01*
X0225000Y0083927D02*
X0268971Y0083927D01*
X0268795Y0082929D02*
X0225000Y0082929D01*
X0225000Y0081930D02*
X0268619Y0081930D01*
X0268467Y0080932D02*
X0230205Y0080932D01*
X0231704Y0079933D02*
X0268643Y0079933D01*
X0268819Y0078934D02*
X0232629Y0078934D01*
X0233043Y0077936D02*
X0268995Y0077936D01*
X0269491Y0076937D02*
X0233400Y0076937D01*
X0233400Y0075939D02*
X0270068Y0075939D01*
X0270644Y0074940D02*
X0233400Y0074940D01*
X0232992Y0073942D02*
X0271788Y0073942D01*
X0292021Y0073942D02*
X0395134Y0073942D01*
X0394824Y0074940D02*
X0292021Y0074940D01*
X0332687Y0076937D02*
X0394805Y0076937D01*
X0395083Y0077936D02*
X0333686Y0077936D01*
X0334684Y0078934D02*
X0395626Y0078934D01*
X0396500Y0079933D02*
X0335683Y0079933D01*
X0403342Y0079933D02*
X0406218Y0079933D01*
X0405292Y0078934D02*
X0404217Y0078934D01*
X0404760Y0077936D02*
X0404878Y0077936D01*
X0412126Y0080932D02*
X0417716Y0080932D01*
X0416218Y0079933D02*
X0413625Y0079933D01*
X0414551Y0078934D02*
X0415292Y0078934D01*
X0465750Y0111000D02*
X0465750Y0111000D01*
X0484712Y0233801D02*
X0444565Y0233801D01*
X0445321Y0235627D01*
X0445321Y0237775D01*
X0444499Y0239760D01*
X0442980Y0241279D01*
X0440995Y0242101D01*
X0438847Y0242101D01*
X0437788Y0241662D01*
X0436921Y0242529D01*
X0436921Y0246600D01*
X0437380Y0247058D01*
X0437821Y0248124D01*
X0437821Y0249278D01*
X0437380Y0250344D01*
X0436564Y0251159D01*
X0435498Y0251601D01*
X0434344Y0251601D01*
X0433279Y0251159D01*
X0432463Y0250344D01*
X0432021Y0249278D01*
X0432021Y0248124D01*
X0432463Y0247058D01*
X0432921Y0246600D01*
X0432921Y0241303D01*
X0431921Y0241717D01*
X0431921Y0255872D01*
X0445750Y0269701D01*
X0463750Y0269701D01*
X0465750Y0271701D01*
X0466921Y0272872D01*
X0466921Y0277600D01*
X0467380Y0278058D01*
X0467821Y0279124D01*
X0467821Y0280278D01*
X0467380Y0281344D01*
X0466564Y0282159D01*
X0465498Y0282601D01*
X0464344Y0282601D01*
X0463279Y0282159D01*
X0462820Y0281701D01*
X0442023Y0281701D01*
X0441564Y0282159D01*
X0440498Y0282601D01*
X0439344Y0282601D01*
X0438279Y0282159D01*
X0437921Y0281802D01*
X0437921Y0281872D01*
X0442750Y0286701D01*
X0443921Y0287872D01*
X0443921Y0289387D01*
X0444507Y0289973D01*
X0444971Y0291094D01*
X0444971Y0292307D01*
X0444507Y0293428D01*
X0443649Y0294286D01*
X0443527Y0294337D01*
X0449291Y0300101D01*
X0456420Y0300101D01*
X0456779Y0299742D01*
X0457844Y0299301D01*
X0458998Y0299301D01*
X0460064Y0299742D01*
X0460423Y0300101D01*
X0471021Y0300101D01*
X0471021Y0299624D01*
X0471463Y0298558D01*
X0472279Y0297742D01*
X0473344Y0297301D01*
X0474498Y0297301D01*
X0475564Y0297742D01*
X0475923Y0298101D01*
X0481551Y0298101D01*
X0492821Y0286831D01*
X0492821Y0273651D01*
X0491800Y0273651D01*
X0490750Y0274701D01*
X0476750Y0288701D01*
X0472023Y0288701D01*
X0471564Y0289159D01*
X0470498Y0289601D01*
X0469344Y0289601D01*
X0468279Y0289159D01*
X0467463Y0288344D01*
X0467021Y0287278D01*
X0467021Y0286124D01*
X0467463Y0285058D01*
X0468279Y0284242D01*
X0469344Y0283801D01*
X0470498Y0283801D01*
X0471564Y0284242D01*
X0472023Y0284701D01*
X0475093Y0284701D01*
X0486430Y0273364D01*
X0485721Y0272655D01*
X0485721Y0268747D01*
X0485767Y0268701D01*
X0485721Y0268655D01*
X0485721Y0268471D01*
X0484851Y0267601D01*
X0484344Y0267601D01*
X0483279Y0267159D01*
X0482463Y0266344D01*
X0482021Y0265278D01*
X0482021Y0264124D01*
X0482463Y0263058D01*
X0482820Y0262701D01*
X0480750Y0262701D01*
X0475921Y0267529D01*
X0475921Y0279600D01*
X0476380Y0280058D01*
X0476821Y0281124D01*
X0476821Y0282278D01*
X0476380Y0283344D01*
X0475564Y0284159D01*
X0474498Y0284601D01*
X0473344Y0284601D01*
X0472279Y0284159D01*
X0471463Y0283344D01*
X0471021Y0282278D01*
X0471021Y0281124D01*
X0471463Y0280058D01*
X0471921Y0279600D01*
X0471921Y0265872D01*
X0477921Y0259872D01*
X0479093Y0258701D01*
X0490750Y0258701D01*
X0491800Y0259751D01*
X0493125Y0259751D01*
X0494121Y0260747D01*
X0494121Y0264601D01*
X0494291Y0264601D01*
X0495521Y0265831D01*
X0497021Y0267331D01*
X0497021Y0288571D01*
X0495791Y0289801D01*
X0483291Y0302301D01*
X0475923Y0302301D01*
X0475564Y0302659D01*
X0474498Y0303101D01*
X0473991Y0303101D01*
X0472791Y0304301D01*
X0460423Y0304301D01*
X0460064Y0304659D01*
X0458998Y0305101D01*
X0457844Y0305101D01*
X0456779Y0304659D01*
X0456420Y0304301D01*
X0447551Y0304301D01*
X0434930Y0291679D01*
X0435321Y0292624D01*
X0435321Y0293778D01*
X0434880Y0294844D01*
X0434064Y0295659D01*
X0432998Y0296101D01*
X0431844Y0296101D01*
X0430779Y0295659D01*
X0430320Y0295201D01*
X0370593Y0295201D01*
X0369421Y0294029D01*
X0336993Y0261601D01*
X0336344Y0261601D01*
X0335279Y0261159D01*
X0334463Y0260344D01*
X0334021Y0259278D01*
X0334021Y0258124D01*
X0334463Y0257058D01*
X0335279Y0256242D01*
X0336344Y0255801D01*
X0337498Y0255801D01*
X0337831Y0255939D01*
X0330093Y0248201D01*
X0318735Y0248201D01*
X0318149Y0248786D01*
X0317028Y0249251D01*
X0315815Y0249251D01*
X0314694Y0248786D01*
X0313836Y0247928D01*
X0313371Y0246807D01*
X0313371Y0245594D01*
X0313836Y0244473D01*
X0314694Y0243615D01*
X0315815Y0243151D01*
X0317028Y0243151D01*
X0318149Y0243615D01*
X0318735Y0244201D01*
X0331750Y0244201D01*
X0373200Y0285651D01*
X0374028Y0285651D01*
X0375149Y0286115D01*
X0376007Y0286973D01*
X0376471Y0288094D01*
X0376471Y0289307D01*
X0376007Y0290428D01*
X0375235Y0291201D01*
X0430320Y0291201D01*
X0430779Y0290742D01*
X0431844Y0290301D01*
X0432998Y0290301D01*
X0433943Y0290692D01*
X0427051Y0283801D01*
X0421021Y0283801D01*
X0421390Y0283954D01*
X0421897Y0284293D01*
X0422329Y0284725D01*
X0422668Y0285232D01*
X0422902Y0285797D01*
X0423021Y0286395D01*
X0423021Y0286701D01*
X0423021Y0287006D01*
X0422902Y0287605D01*
X0422668Y0288169D01*
X0422329Y0288677D01*
X0421897Y0289109D01*
X0421390Y0289448D01*
X0420826Y0289682D01*
X0420227Y0289801D01*
X0419921Y0289801D01*
X0419616Y0289801D01*
X0419017Y0289682D01*
X0418453Y0289448D01*
X0417945Y0289109D01*
X0417513Y0288677D01*
X0417326Y0288397D01*
X0416564Y0289159D01*
X0415498Y0289601D01*
X0414344Y0289601D01*
X0413279Y0289159D01*
X0412704Y0288585D01*
X0411791Y0289498D01*
X0410578Y0290001D01*
X0409265Y0290001D01*
X0408052Y0289498D01*
X0407124Y0288570D01*
X0406621Y0287357D01*
X0406621Y0286044D01*
X0407124Y0284831D01*
X0408052Y0283903D01*
X0409265Y0283401D01*
X0410578Y0283401D01*
X0411791Y0283903D01*
X0412704Y0284817D01*
X0412821Y0284700D01*
X0412821Y0278323D01*
X0412719Y0278570D01*
X0411791Y0279498D01*
X0410578Y0280001D01*
X0409265Y0280001D01*
X0408052Y0279498D01*
X0407254Y0278701D01*
X0406093Y0278701D01*
X0404093Y0276701D01*
X0402921Y0275529D01*
X0402921Y0266029D01*
X0399493Y0262601D01*
X0399350Y0262601D01*
X0397250Y0264701D01*
X0377023Y0264701D01*
X0376564Y0265159D01*
X0375498Y0265601D01*
X0374344Y0265601D01*
X0373279Y0265159D01*
X0372463Y0264344D01*
X0372021Y0263278D01*
X0372021Y0262124D01*
X0372463Y0261058D01*
X0373279Y0260242D01*
X0374344Y0259801D01*
X0375498Y0259801D01*
X0376564Y0260242D01*
X0377023Y0260701D01*
X0395593Y0260701D01*
X0396521Y0259772D01*
X0396521Y0259124D01*
X0396963Y0258058D01*
X0397779Y0257242D01*
X0398844Y0256801D01*
X0399998Y0256801D01*
X0401064Y0257242D01*
X0401880Y0258058D01*
X0402321Y0259124D01*
X0402321Y0259772D01*
X0406921Y0264372D01*
X0406921Y0265320D01*
X0407124Y0264831D01*
X0408052Y0263903D01*
X0409265Y0263401D01*
X0410578Y0263401D01*
X0411791Y0263903D01*
X0412719Y0264831D01*
X0413221Y0266044D01*
X0413221Y0267357D01*
X0412719Y0268570D01*
X0411791Y0269498D01*
X0410578Y0270001D01*
X0409265Y0270001D01*
X0408052Y0269498D01*
X0407124Y0268570D01*
X0406921Y0268081D01*
X0406921Y0273872D01*
X0407502Y0274453D01*
X0408052Y0273903D01*
X0409265Y0273401D01*
X0410578Y0273401D01*
X0411791Y0273903D01*
X0412719Y0274831D01*
X0412821Y0275079D01*
X0412821Y0270831D01*
X0416621Y0267031D01*
X0416621Y0266044D01*
X0417112Y0264861D01*
X0406851Y0254601D01*
X0406344Y0254601D01*
X0405279Y0254159D01*
X0404463Y0253344D01*
X0404021Y0252278D01*
X0404021Y0251124D01*
X0404463Y0250058D01*
X0405279Y0249242D01*
X0406344Y0248801D01*
X0407498Y0248801D01*
X0408564Y0249242D01*
X0409380Y0250058D01*
X0409821Y0251124D01*
X0409821Y0251631D01*
X0412413Y0254222D01*
X0412021Y0253278D01*
X0412021Y0252124D01*
X0412463Y0251058D01*
X0413279Y0250242D01*
X0414344Y0249801D01*
X0415498Y0249801D01*
X0416564Y0250242D01*
X0417023Y0250701D01*
X0417921Y0250701D01*
X0417921Y0241717D01*
X0416862Y0241279D01*
X0415343Y0239760D01*
X0414921Y0238741D01*
X0414499Y0239760D01*
X0412980Y0241279D01*
X0410995Y0242101D01*
X0408847Y0242101D01*
X0406862Y0241279D01*
X0405343Y0239760D01*
X0404812Y0238477D01*
X0404740Y0238697D01*
X0404369Y0239426D01*
X0403888Y0240088D01*
X0403309Y0240667D01*
X0402647Y0241148D01*
X0401917Y0241520D01*
X0401139Y0241773D01*
X0400421Y0241886D01*
X0400421Y0237201D01*
X0399421Y0237201D01*
X0399421Y0236201D01*
X0394736Y0236201D01*
X0394849Y0235483D01*
X0395102Y0234705D01*
X0395474Y0233975D01*
X0395601Y0233801D01*
X0292021Y0233801D01*
X0292021Y0241584D01*
X0292609Y0240565D01*
X0295149Y0238435D01*
X0298264Y0237301D01*
X0301579Y0237301D01*
X0304694Y0238435D01*
X0307233Y0240565D01*
X0307233Y0240565D01*
X0307233Y0240565D01*
X0308891Y0243436D01*
X0308891Y0243436D01*
X0309466Y0246701D01*
X0308891Y0249965D01*
X0308891Y0249965D01*
X0307233Y0252836D01*
X0307233Y0252836D01*
X0304694Y0254967D01*
X0304694Y0254967D01*
X0301579Y0256101D01*
X0298980Y0256101D01*
X0299765Y0257278D01*
X0299400Y0259106D01*
X0298480Y0259719D01*
X0299400Y0260332D01*
X0299765Y0262160D01*
X0298874Y0263497D01*
X0299626Y0264248D01*
X0299626Y0268081D01*
X0298848Y0268859D01*
X0298320Y0269387D01*
X0298870Y0269938D01*
X0299626Y0270694D01*
X0299626Y0274526D01*
X0298848Y0275305D01*
X0298308Y0275844D01*
X0298103Y0276050D01*
X0297324Y0276828D01*
X0294476Y0276828D01*
X0294424Y0276776D01*
X0294372Y0276828D01*
X0292021Y0276828D01*
X0292021Y0311701D01*
X0497743Y0311701D01*
X0497743Y0246954D01*
X0497233Y0247836D01*
X0497233Y0247836D01*
X0494694Y0249967D01*
X0494694Y0249967D01*
X0491579Y0251101D01*
X0488264Y0251101D01*
X0485149Y0249967D01*
X0485149Y0249967D01*
X0482609Y0247836D01*
X0480952Y0244965D01*
X0480376Y0241701D01*
X0480376Y0241701D01*
X0480952Y0238436D01*
X0482609Y0235565D01*
X0484712Y0233801D01*
X0483638Y0234702D02*
X0444938Y0234702D01*
X0445321Y0235701D02*
X0482531Y0235701D01*
X0482609Y0235565D02*
X0482609Y0235565D01*
X0481955Y0236699D02*
X0445321Y0236699D01*
X0445321Y0237698D02*
X0481378Y0237698D01*
X0480952Y0238436D02*
X0480952Y0238436D01*
X0480906Y0238696D02*
X0444940Y0238696D01*
X0444526Y0239695D02*
X0480730Y0239695D01*
X0480554Y0240693D02*
X0443566Y0240693D01*
X0441983Y0241692D02*
X0480378Y0241692D01*
X0480551Y0242690D02*
X0436921Y0242690D01*
X0436921Y0243689D02*
X0480727Y0243689D01*
X0480903Y0244687D02*
X0436921Y0244687D01*
X0436921Y0245686D02*
X0481368Y0245686D01*
X0480952Y0244965D02*
X0480952Y0244965D01*
X0481944Y0246684D02*
X0437006Y0246684D01*
X0437639Y0247683D02*
X0482521Y0247683D01*
X0482609Y0247836D02*
X0482609Y0247836D01*
X0482609Y0247836D01*
X0483617Y0248681D02*
X0437821Y0248681D01*
X0437655Y0249680D02*
X0484807Y0249680D01*
X0487103Y0250678D02*
X0437045Y0250678D01*
X0432798Y0250678D02*
X0431921Y0250678D01*
X0431921Y0249680D02*
X0432188Y0249680D01*
X0432021Y0248681D02*
X0431921Y0248681D01*
X0431921Y0247683D02*
X0432204Y0247683D01*
X0431921Y0246684D02*
X0432836Y0246684D01*
X0432921Y0245686D02*
X0431921Y0245686D01*
X0431921Y0244687D02*
X0432921Y0244687D01*
X0432921Y0243689D02*
X0431921Y0243689D01*
X0431921Y0242690D02*
X0432921Y0242690D01*
X0432921Y0241692D02*
X0431983Y0241692D01*
X0427921Y0241717D02*
X0426862Y0241279D01*
X0425343Y0239760D01*
X0424921Y0238741D01*
X0424499Y0239760D01*
X0422980Y0241279D01*
X0421921Y0241717D01*
X0421921Y0249872D01*
X0427921Y0255872D01*
X0427921Y0241717D01*
X0427860Y0241692D02*
X0421983Y0241692D01*
X0421921Y0242690D02*
X0427921Y0242690D01*
X0427921Y0243689D02*
X0421921Y0243689D01*
X0421921Y0244687D02*
X0427921Y0244687D01*
X0427921Y0245686D02*
X0421921Y0245686D01*
X0421921Y0246684D02*
X0427921Y0246684D01*
X0427921Y0247683D02*
X0421921Y0247683D01*
X0421921Y0248681D02*
X0427921Y0248681D01*
X0427921Y0249680D02*
X0421921Y0249680D01*
X0422727Y0250678D02*
X0427921Y0250678D01*
X0427921Y0251677D02*
X0423726Y0251677D01*
X0424724Y0252675D02*
X0427921Y0252675D01*
X0427921Y0253674D02*
X0425723Y0253674D01*
X0426721Y0254672D02*
X0427921Y0254672D01*
X0427921Y0255671D02*
X0427720Y0255671D01*
X0431921Y0255671D02*
X0497743Y0255671D01*
X0497743Y0256670D02*
X0432718Y0256670D01*
X0433717Y0257668D02*
X0497743Y0257668D01*
X0497743Y0258667D02*
X0434715Y0258667D01*
X0435714Y0259665D02*
X0478129Y0259665D01*
X0477130Y0260664D02*
X0436712Y0260664D01*
X0437711Y0261662D02*
X0476132Y0261662D01*
X0475133Y0262661D02*
X0438709Y0262661D01*
X0439708Y0263659D02*
X0474135Y0263659D01*
X0473136Y0264658D02*
X0440707Y0264658D01*
X0441705Y0265656D02*
X0472138Y0265656D01*
X0471921Y0266655D02*
X0442704Y0266655D01*
X0443702Y0267653D02*
X0471921Y0267653D01*
X0471921Y0268652D02*
X0444701Y0268652D01*
X0445699Y0269650D02*
X0471921Y0269650D01*
X0471921Y0270649D02*
X0464698Y0270649D01*
X0465696Y0271647D02*
X0471921Y0271647D01*
X0471921Y0272646D02*
X0466695Y0272646D01*
X0466921Y0273644D02*
X0471921Y0273644D01*
X0471921Y0274643D02*
X0466921Y0274643D01*
X0466921Y0275641D02*
X0471921Y0275641D01*
X0471921Y0276640D02*
X0466921Y0276640D01*
X0466960Y0277638D02*
X0471921Y0277638D01*
X0471921Y0278637D02*
X0467619Y0278637D01*
X0467821Y0279635D02*
X0471886Y0279635D01*
X0471224Y0280634D02*
X0467674Y0280634D01*
X0467091Y0281632D02*
X0471021Y0281632D01*
X0471168Y0282631D02*
X0438680Y0282631D01*
X0439678Y0283629D02*
X0471749Y0283629D01*
X0471950Y0284628D02*
X0475166Y0284628D01*
X0476094Y0283629D02*
X0476164Y0283629D01*
X0476675Y0282631D02*
X0477163Y0282631D01*
X0476821Y0281632D02*
X0478161Y0281632D01*
X0479160Y0280634D02*
X0476618Y0280634D01*
X0475957Y0279635D02*
X0480158Y0279635D01*
X0481157Y0278637D02*
X0475921Y0278637D01*
X0475921Y0277638D02*
X0482155Y0277638D01*
X0483154Y0276640D02*
X0475921Y0276640D01*
X0475921Y0275641D02*
X0484152Y0275641D01*
X0485151Y0274643D02*
X0475921Y0274643D01*
X0475921Y0273644D02*
X0486149Y0273644D01*
X0485721Y0272646D02*
X0475921Y0272646D01*
X0475921Y0271647D02*
X0485721Y0271647D01*
X0485721Y0270649D02*
X0475921Y0270649D01*
X0475921Y0269650D02*
X0485721Y0269650D01*
X0485721Y0268652D02*
X0475921Y0268652D01*
X0475921Y0267653D02*
X0484904Y0267653D01*
X0482774Y0266655D02*
X0476796Y0266655D01*
X0477794Y0265656D02*
X0482178Y0265656D01*
X0482021Y0264658D02*
X0478793Y0264658D01*
X0479791Y0263659D02*
X0482214Y0263659D01*
X0489921Y0262701D02*
X0489921Y0266701D01*
X0489921Y0270701D01*
X0490808Y0274643D02*
X0492821Y0274643D01*
X0492821Y0275641D02*
X0489809Y0275641D01*
X0488811Y0276640D02*
X0492821Y0276640D01*
X0492821Y0277638D02*
X0487812Y0277638D01*
X0486814Y0278637D02*
X0492821Y0278637D01*
X0492821Y0279635D02*
X0485815Y0279635D01*
X0484817Y0280634D02*
X0492821Y0280634D01*
X0492821Y0281632D02*
X0483818Y0281632D01*
X0482820Y0282631D02*
X0492821Y0282631D01*
X0492821Y0283629D02*
X0481821Y0283629D01*
X0480823Y0284628D02*
X0492821Y0284628D01*
X0492821Y0285626D02*
X0479824Y0285626D01*
X0478826Y0286625D02*
X0492821Y0286625D01*
X0492029Y0287623D02*
X0477827Y0287623D01*
X0476829Y0288622D02*
X0491030Y0288622D01*
X0490032Y0289620D02*
X0444154Y0289620D01*
X0443921Y0288622D02*
X0467741Y0288622D01*
X0467165Y0287623D02*
X0443672Y0287623D01*
X0442674Y0286625D02*
X0467021Y0286625D01*
X0467227Y0285626D02*
X0441675Y0285626D01*
X0440677Y0284628D02*
X0467893Y0284628D01*
X0472602Y0297608D02*
X0446799Y0297608D01*
X0445800Y0296610D02*
X0483042Y0296610D01*
X0482044Y0297608D02*
X0475241Y0297608D01*
X0471443Y0298607D02*
X0447797Y0298607D01*
X0448796Y0299605D02*
X0457109Y0299605D01*
X0459734Y0299605D02*
X0471029Y0299605D01*
X0473492Y0303600D02*
X0497743Y0303600D01*
X0497743Y0304598D02*
X0460125Y0304598D01*
X0456717Y0304598D02*
X0436271Y0304598D01*
X0436271Y0304326D02*
X0436271Y0306898D01*
X0436169Y0307280D01*
X0435972Y0307622D01*
X0435692Y0307901D01*
X0435350Y0308099D01*
X0434969Y0308201D01*
X0433646Y0308201D01*
X0433646Y0304326D01*
X0433396Y0304326D01*
X0433396Y0308201D01*
X0432475Y0308201D01*
X0432275Y0308401D01*
X0428367Y0308401D01*
X0427371Y0307405D01*
X0427371Y0306301D01*
X0426923Y0306301D01*
X0426564Y0306659D01*
X0425498Y0307101D01*
X0424344Y0307101D01*
X0423279Y0306659D01*
X0422463Y0305844D01*
X0422021Y0304778D01*
X0422021Y0303624D01*
X0422463Y0302558D01*
X0423279Y0301742D01*
X0424344Y0301301D01*
X0425498Y0301301D01*
X0426564Y0301742D01*
X0426923Y0302101D01*
X0427371Y0302101D01*
X0427371Y0300997D01*
X0428367Y0300001D01*
X0432275Y0300001D01*
X0432475Y0300201D01*
X0433396Y0300201D01*
X0433396Y0304076D01*
X0433646Y0304076D01*
X0433646Y0300201D01*
X0434969Y0300201D01*
X0435350Y0300303D01*
X0435692Y0300501D01*
X0435972Y0300780D01*
X0436169Y0301122D01*
X0436271Y0301503D01*
X0436271Y0304076D01*
X0433646Y0304076D01*
X0433646Y0304326D01*
X0436271Y0304326D01*
X0436271Y0303600D02*
X0446850Y0303600D01*
X0445852Y0302601D02*
X0436271Y0302601D01*
X0436271Y0301603D02*
X0444853Y0301603D01*
X0443855Y0300604D02*
X0435796Y0300604D01*
X0433646Y0300604D02*
X0433396Y0300604D01*
X0433396Y0301603D02*
X0433646Y0301603D01*
X0433646Y0302601D02*
X0433396Y0302601D01*
X0433396Y0303600D02*
X0433646Y0303600D01*
X0433646Y0304598D02*
X0433396Y0304598D01*
X0433396Y0305597D02*
X0433646Y0305597D01*
X0433646Y0306595D02*
X0433396Y0306595D01*
X0433396Y0307594D02*
X0433646Y0307594D01*
X0435988Y0307594D02*
X0497743Y0307594D01*
X0497743Y0308592D02*
X0421821Y0308592D01*
X0421821Y0308778D02*
X0421380Y0309844D01*
X0420564Y0310659D01*
X0419498Y0311101D01*
X0418344Y0311101D01*
X0417279Y0310659D01*
X0416463Y0309844D01*
X0416021Y0308778D01*
X0416021Y0308271D01*
X0408602Y0300851D01*
X0407998Y0301101D01*
X0406844Y0301101D01*
X0405779Y0300659D01*
X0404963Y0299844D01*
X0404521Y0298778D01*
X0404521Y0297624D01*
X0404963Y0296558D01*
X0405779Y0295742D01*
X0406844Y0295301D01*
X0407998Y0295301D01*
X0409064Y0295742D01*
X0409423Y0296101D01*
X0409791Y0296101D01*
X0418991Y0305301D01*
X0419498Y0305301D01*
X0420564Y0305742D01*
X0421380Y0306558D01*
X0421821Y0307624D01*
X0421821Y0308778D01*
X0421485Y0309591D02*
X0497743Y0309591D01*
X0497743Y0310589D02*
X0420634Y0310589D01*
X0421809Y0307594D02*
X0427560Y0307594D01*
X0427371Y0306595D02*
X0426628Y0306595D01*
X0423214Y0306595D02*
X0421395Y0306595D01*
X0422361Y0305597D02*
X0420212Y0305597D01*
X0422021Y0304598D02*
X0418288Y0304598D01*
X0417290Y0303600D02*
X0422031Y0303600D01*
X0422445Y0302601D02*
X0416291Y0302601D01*
X0415293Y0301603D02*
X0423616Y0301603D01*
X0426227Y0301603D02*
X0427371Y0301603D01*
X0427764Y0300604D02*
X0414294Y0300604D01*
X0413296Y0299605D02*
X0442856Y0299605D01*
X0441858Y0298607D02*
X0412297Y0298607D01*
X0411299Y0297608D02*
X0440859Y0297608D01*
X0439861Y0296610D02*
X0410300Y0296610D01*
X0408748Y0295611D02*
X0430731Y0295611D01*
X0434112Y0295611D02*
X0438862Y0295611D01*
X0437864Y0294613D02*
X0434975Y0294613D01*
X0435321Y0293614D02*
X0436865Y0293614D01*
X0435867Y0292616D02*
X0435318Y0292616D01*
X0433870Y0290619D02*
X0433766Y0290619D01*
X0432871Y0289620D02*
X0420973Y0289620D01*
X0419921Y0289620D02*
X0419921Y0289620D01*
X0419921Y0289801D02*
X0419921Y0286701D01*
X0419921Y0286701D01*
X0419921Y0289801D01*
X0418869Y0289620D02*
X0411496Y0289620D01*
X0412667Y0288622D02*
X0412741Y0288622D01*
X0412821Y0284628D02*
X0412515Y0284628D01*
X0412821Y0283629D02*
X0411129Y0283629D01*
X0412821Y0282631D02*
X0377971Y0282631D01*
X0377971Y0282094D02*
X0377971Y0283307D01*
X0377507Y0284428D01*
X0376649Y0285286D01*
X0375528Y0285751D01*
X0374315Y0285751D01*
X0373194Y0285286D01*
X0372336Y0284428D01*
X0371871Y0283307D01*
X0371871Y0282479D01*
X0330593Y0241201D01*
X0320735Y0241201D01*
X0320149Y0241786D01*
X0319028Y0242251D01*
X0317815Y0242251D01*
X0316694Y0241786D01*
X0315836Y0240928D01*
X0315371Y0239807D01*
X0315371Y0238594D01*
X0315836Y0237473D01*
X0316694Y0236615D01*
X0317815Y0236151D01*
X0319028Y0236151D01*
X0320149Y0236615D01*
X0320735Y0237201D01*
X0332250Y0237201D01*
X0374700Y0279651D01*
X0375528Y0279651D01*
X0376649Y0280115D01*
X0377507Y0280973D01*
X0377971Y0282094D01*
X0377780Y0281632D02*
X0412821Y0281632D01*
X0412821Y0280634D02*
X0377168Y0280634D01*
X0374684Y0279635D02*
X0408382Y0279635D01*
X0406029Y0278637D02*
X0373686Y0278637D01*
X0372687Y0277638D02*
X0405030Y0277638D01*
X0404032Y0276640D02*
X0371689Y0276640D01*
X0370690Y0275641D02*
X0403033Y0275641D01*
X0402921Y0274643D02*
X0369692Y0274643D01*
X0368693Y0273644D02*
X0402921Y0273644D01*
X0402921Y0272646D02*
X0367695Y0272646D01*
X0366696Y0271647D02*
X0402921Y0271647D01*
X0402921Y0270649D02*
X0365698Y0270649D01*
X0364699Y0269650D02*
X0402921Y0269650D01*
X0402921Y0268652D02*
X0363701Y0268652D01*
X0362702Y0267653D02*
X0402921Y0267653D01*
X0402921Y0266655D02*
X0361704Y0266655D01*
X0360705Y0265656D02*
X0402548Y0265656D01*
X0401550Y0264658D02*
X0397293Y0264658D01*
X0398291Y0263659D02*
X0400551Y0263659D01*
X0399553Y0262661D02*
X0399290Y0262661D01*
X0396521Y0259665D02*
X0354714Y0259665D01*
X0353715Y0258667D02*
X0396711Y0258667D01*
X0397353Y0257668D02*
X0352717Y0257668D01*
X0351718Y0256670D02*
X0408920Y0256670D01*
X0409919Y0257668D02*
X0401490Y0257668D01*
X0402132Y0258667D02*
X0410917Y0258667D01*
X0411916Y0259665D02*
X0402321Y0259665D01*
X0403212Y0260664D02*
X0412914Y0260664D01*
X0413913Y0261662D02*
X0404211Y0261662D01*
X0405209Y0262661D02*
X0414911Y0262661D01*
X0415910Y0263659D02*
X0411201Y0263659D01*
X0412545Y0264658D02*
X0416908Y0264658D01*
X0416782Y0265656D02*
X0413060Y0265656D01*
X0413221Y0266655D02*
X0416621Y0266655D01*
X0415999Y0267653D02*
X0413099Y0267653D01*
X0412637Y0268652D02*
X0415001Y0268652D01*
X0414002Y0269650D02*
X0411424Y0269650D01*
X0413004Y0270649D02*
X0406921Y0270649D01*
X0406921Y0271647D02*
X0412821Y0271647D01*
X0412821Y0272646D02*
X0406921Y0272646D01*
X0406921Y0273644D02*
X0408677Y0273644D01*
X0411165Y0273644D02*
X0412821Y0273644D01*
X0412821Y0274643D02*
X0412530Y0274643D01*
X0412652Y0278637D02*
X0412821Y0278637D01*
X0412821Y0279635D02*
X0411460Y0279635D01*
X0408713Y0283629D02*
X0377838Y0283629D01*
X0377308Y0284628D02*
X0407327Y0284628D01*
X0406794Y0285626D02*
X0375828Y0285626D01*
X0375659Y0286625D02*
X0406621Y0286625D01*
X0406732Y0287623D02*
X0376276Y0287623D01*
X0376471Y0288622D02*
X0407175Y0288622D01*
X0408347Y0289620D02*
X0376342Y0289620D01*
X0375817Y0290619D02*
X0431076Y0290619D01*
X0431873Y0288622D02*
X0422366Y0288622D01*
X0422895Y0287623D02*
X0430874Y0287623D01*
X0429876Y0286625D02*
X0423021Y0286625D01*
X0423021Y0286701D02*
X0419921Y0286701D01*
X0423021Y0286701D01*
X0422832Y0285626D02*
X0428877Y0285626D01*
X0427878Y0284628D02*
X0422232Y0284628D01*
X0419921Y0286701D02*
X0419921Y0286701D01*
X0419921Y0287623D02*
X0419921Y0287623D01*
X0419921Y0288622D02*
X0419921Y0288622D01*
X0417477Y0288622D02*
X0417101Y0288622D01*
X0421543Y0279601D02*
X0428791Y0279601D01*
X0430021Y0280831D01*
X0439285Y0290095D01*
X0439336Y0289973D01*
X0439850Y0289458D01*
X0433921Y0283529D01*
X0433921Y0272029D01*
X0416808Y0254916D01*
X0416564Y0255159D01*
X0415498Y0255601D01*
X0414344Y0255601D01*
X0413400Y0255210D01*
X0422021Y0263831D01*
X0422021Y0264134D01*
X0422719Y0264831D01*
X0423221Y0266044D01*
X0423221Y0267357D01*
X0422719Y0268570D01*
X0421791Y0269498D01*
X0420578Y0270001D01*
X0419591Y0270001D01*
X0417021Y0272571D01*
X0417021Y0275079D01*
X0417124Y0274831D01*
X0418052Y0273903D01*
X0419265Y0273401D01*
X0420578Y0273401D01*
X0421791Y0273903D01*
X0422719Y0274831D01*
X0423221Y0276044D01*
X0423221Y0277357D01*
X0422719Y0278570D01*
X0421791Y0279498D01*
X0421543Y0279601D01*
X0422652Y0278637D02*
X0433921Y0278637D01*
X0433921Y0279635D02*
X0428826Y0279635D01*
X0429824Y0280634D02*
X0433921Y0280634D01*
X0433921Y0281632D02*
X0430823Y0281632D01*
X0431821Y0282631D02*
X0433921Y0282631D01*
X0434021Y0283629D02*
X0432820Y0283629D01*
X0433818Y0284628D02*
X0435020Y0284628D01*
X0434817Y0285626D02*
X0436018Y0285626D01*
X0435815Y0286625D02*
X0437017Y0286625D01*
X0436814Y0287623D02*
X0438015Y0287623D01*
X0437812Y0288622D02*
X0439014Y0288622D01*
X0438811Y0289620D02*
X0439688Y0289620D01*
X0444774Y0290619D02*
X0489033Y0290619D01*
X0488035Y0291617D02*
X0444971Y0291617D01*
X0444844Y0292616D02*
X0487036Y0292616D01*
X0486038Y0293614D02*
X0444321Y0293614D01*
X0443803Y0294613D02*
X0485039Y0294613D01*
X0484041Y0295611D02*
X0444802Y0295611D01*
X0436271Y0305597D02*
X0497743Y0305597D01*
X0497743Y0306595D02*
X0436271Y0306595D01*
X0417208Y0310589D02*
X0292021Y0310589D01*
X0292021Y0309591D02*
X0416358Y0309591D01*
X0416021Y0308592D02*
X0292021Y0308592D01*
X0292021Y0307594D02*
X0415344Y0307594D01*
X0414346Y0306595D02*
X0292021Y0306595D01*
X0292021Y0305597D02*
X0413347Y0305597D01*
X0412349Y0304598D02*
X0292021Y0304598D01*
X0292021Y0303600D02*
X0411350Y0303600D01*
X0410352Y0302601D02*
X0292021Y0302601D01*
X0292021Y0301603D02*
X0409353Y0301603D01*
X0405723Y0300604D02*
X0292021Y0300604D01*
X0292021Y0299605D02*
X0404864Y0299605D01*
X0404521Y0298607D02*
X0292021Y0298607D01*
X0292021Y0297608D02*
X0404528Y0297608D01*
X0404941Y0296610D02*
X0292021Y0296610D01*
X0292021Y0295611D02*
X0406094Y0295611D01*
X0423105Y0277638D02*
X0433921Y0277638D01*
X0433921Y0276640D02*
X0423221Y0276640D01*
X0423054Y0275641D02*
X0433921Y0275641D01*
X0433921Y0274643D02*
X0422530Y0274643D01*
X0421165Y0273644D02*
X0433921Y0273644D01*
X0433921Y0272646D02*
X0417021Y0272646D01*
X0417021Y0273644D02*
X0418677Y0273644D01*
X0417312Y0274643D02*
X0417021Y0274643D01*
X0417945Y0271647D02*
X0433539Y0271647D01*
X0432541Y0270649D02*
X0418943Y0270649D01*
X0421424Y0269650D02*
X0431542Y0269650D01*
X0430544Y0268652D02*
X0422637Y0268652D01*
X0423099Y0267653D02*
X0429545Y0267653D01*
X0428547Y0266655D02*
X0423221Y0266655D01*
X0423060Y0265656D02*
X0427548Y0265656D01*
X0426550Y0264658D02*
X0422545Y0264658D01*
X0421849Y0263659D02*
X0425551Y0263659D01*
X0424553Y0262661D02*
X0420851Y0262661D01*
X0419852Y0261662D02*
X0423554Y0261662D01*
X0422556Y0260664D02*
X0418854Y0260664D01*
X0417855Y0259665D02*
X0421557Y0259665D01*
X0420559Y0258667D02*
X0416857Y0258667D01*
X0415858Y0257668D02*
X0419560Y0257668D01*
X0418562Y0256670D02*
X0414860Y0256670D01*
X0413861Y0255671D02*
X0417563Y0255671D01*
X0417921Y0250678D02*
X0417000Y0250678D01*
X0417921Y0249680D02*
X0409002Y0249680D01*
X0409637Y0250678D02*
X0412842Y0250678D01*
X0412206Y0251677D02*
X0409867Y0251677D01*
X0410866Y0252675D02*
X0412021Y0252675D01*
X0411864Y0253674D02*
X0412185Y0253674D01*
X0407922Y0255671D02*
X0350720Y0255671D01*
X0349721Y0254672D02*
X0406923Y0254672D01*
X0404793Y0253674D02*
X0348723Y0253674D01*
X0347724Y0252675D02*
X0404186Y0252675D01*
X0404021Y0251677D02*
X0346726Y0251677D01*
X0345727Y0250678D02*
X0404206Y0250678D01*
X0404841Y0249680D02*
X0344729Y0249680D01*
X0343730Y0248681D02*
X0417921Y0248681D01*
X0417921Y0247683D02*
X0342732Y0247683D01*
X0341733Y0246684D02*
X0417921Y0246684D01*
X0417921Y0245686D02*
X0340735Y0245686D01*
X0339736Y0244687D02*
X0417921Y0244687D01*
X0417921Y0243689D02*
X0338738Y0243689D01*
X0337739Y0242690D02*
X0417921Y0242690D01*
X0417860Y0241692D02*
X0411983Y0241692D01*
X0413566Y0240693D02*
X0416277Y0240693D01*
X0415317Y0239695D02*
X0414526Y0239695D01*
X0407860Y0241692D02*
X0401388Y0241692D01*
X0400421Y0241692D02*
X0399421Y0241692D01*
X0399421Y0241886D02*
X0398704Y0241773D01*
X0397925Y0241520D01*
X0397196Y0241148D01*
X0396534Y0240667D01*
X0395955Y0240088D01*
X0395474Y0239426D01*
X0395102Y0238697D01*
X0394849Y0237918D01*
X0394736Y0237201D01*
X0399421Y0237201D01*
X0399421Y0241886D01*
X0398455Y0241692D02*
X0336741Y0241692D01*
X0335742Y0240693D02*
X0396570Y0240693D01*
X0395669Y0239695D02*
X0334744Y0239695D01*
X0333745Y0238696D02*
X0395102Y0238696D01*
X0394814Y0237698D02*
X0332747Y0237698D01*
X0331084Y0241692D02*
X0320244Y0241692D01*
X0318223Y0243689D02*
X0333081Y0243689D01*
X0332236Y0244687D02*
X0334079Y0244687D01*
X0333235Y0245686D02*
X0335078Y0245686D01*
X0334233Y0246684D02*
X0336076Y0246684D01*
X0335232Y0247683D02*
X0337075Y0247683D01*
X0336230Y0248681D02*
X0338073Y0248681D01*
X0337229Y0249680D02*
X0339072Y0249680D01*
X0338227Y0250678D02*
X0340071Y0250678D01*
X0339226Y0251677D02*
X0341069Y0251677D01*
X0340224Y0252675D02*
X0342068Y0252675D01*
X0341223Y0253674D02*
X0343066Y0253674D01*
X0342221Y0254672D02*
X0344065Y0254672D01*
X0343220Y0255671D02*
X0345063Y0255671D01*
X0344218Y0256670D02*
X0346062Y0256670D01*
X0345217Y0257668D02*
X0347060Y0257668D01*
X0346215Y0258667D02*
X0348059Y0258667D01*
X0347214Y0259665D02*
X0349057Y0259665D01*
X0348212Y0260664D02*
X0350056Y0260664D01*
X0349211Y0261662D02*
X0351054Y0261662D01*
X0350209Y0262661D02*
X0352053Y0262661D01*
X0351208Y0263659D02*
X0353051Y0263659D01*
X0352207Y0264658D02*
X0354050Y0264658D01*
X0353205Y0265656D02*
X0355048Y0265656D01*
X0354204Y0266655D02*
X0356047Y0266655D01*
X0355202Y0267653D02*
X0357045Y0267653D01*
X0356201Y0268652D02*
X0358044Y0268652D01*
X0357199Y0269650D02*
X0359042Y0269650D01*
X0358198Y0270649D02*
X0360041Y0270649D01*
X0359196Y0271647D02*
X0361039Y0271647D01*
X0360195Y0272646D02*
X0362038Y0272646D01*
X0361193Y0273644D02*
X0363036Y0273644D01*
X0362192Y0274643D02*
X0364035Y0274643D01*
X0363190Y0275641D02*
X0365033Y0275641D01*
X0364189Y0276640D02*
X0366032Y0276640D01*
X0365187Y0277638D02*
X0367030Y0277638D01*
X0366186Y0278637D02*
X0368029Y0278637D01*
X0367184Y0279635D02*
X0369027Y0279635D01*
X0368183Y0280634D02*
X0370026Y0280634D01*
X0369181Y0281632D02*
X0371024Y0281632D01*
X0370180Y0282631D02*
X0371871Y0282631D01*
X0372005Y0283629D02*
X0371178Y0283629D01*
X0372177Y0284628D02*
X0372535Y0284628D01*
X0373175Y0285626D02*
X0374014Y0285626D01*
X0368008Y0292616D02*
X0292021Y0292616D01*
X0292021Y0293614D02*
X0369007Y0293614D01*
X0370005Y0294613D02*
X0292021Y0294613D01*
X0292021Y0291617D02*
X0367009Y0291617D01*
X0366011Y0290619D02*
X0292021Y0290619D01*
X0292021Y0289620D02*
X0365012Y0289620D01*
X0364014Y0288622D02*
X0292021Y0288622D01*
X0292021Y0287623D02*
X0363015Y0287623D01*
X0362017Y0286625D02*
X0292021Y0286625D01*
X0292021Y0285626D02*
X0361018Y0285626D01*
X0360020Y0284628D02*
X0292021Y0284628D01*
X0292021Y0283629D02*
X0359021Y0283629D01*
X0358023Y0282631D02*
X0292021Y0282631D01*
X0292021Y0281632D02*
X0357024Y0281632D01*
X0356026Y0280634D02*
X0292021Y0280634D01*
X0292021Y0279635D02*
X0355027Y0279635D01*
X0354029Y0278637D02*
X0292021Y0278637D01*
X0292021Y0277638D02*
X0353030Y0277638D01*
X0352032Y0276640D02*
X0297513Y0276640D01*
X0298308Y0275844D02*
X0298308Y0275844D01*
X0298511Y0275641D02*
X0351033Y0275641D01*
X0350035Y0274643D02*
X0299510Y0274643D01*
X0299626Y0273644D02*
X0349036Y0273644D01*
X0348038Y0272646D02*
X0299626Y0272646D01*
X0299626Y0271647D02*
X0347039Y0271647D01*
X0346041Y0270649D02*
X0299581Y0270649D01*
X0298583Y0269650D02*
X0345042Y0269650D01*
X0344044Y0268652D02*
X0299055Y0268652D01*
X0299626Y0267653D02*
X0343045Y0267653D01*
X0342047Y0266655D02*
X0299626Y0266655D01*
X0299626Y0265656D02*
X0341048Y0265656D01*
X0340050Y0264658D02*
X0299626Y0264658D01*
X0299037Y0263659D02*
X0339051Y0263659D01*
X0338053Y0262661D02*
X0299432Y0262661D01*
X0299666Y0261662D02*
X0337054Y0261662D01*
X0334783Y0260664D02*
X0299466Y0260664D01*
X0298561Y0259665D02*
X0334182Y0259665D01*
X0334021Y0258667D02*
X0299488Y0258667D01*
X0299687Y0257668D02*
X0334210Y0257668D01*
X0334851Y0256670D02*
X0299360Y0256670D01*
X0302760Y0255671D02*
X0337563Y0255671D01*
X0336565Y0254672D02*
X0305045Y0254672D01*
X0306235Y0253674D02*
X0335566Y0253674D01*
X0334568Y0252675D02*
X0307326Y0252675D01*
X0307902Y0251677D02*
X0333569Y0251677D01*
X0332571Y0250678D02*
X0308479Y0250678D01*
X0308941Y0249680D02*
X0331572Y0249680D01*
X0330574Y0248681D02*
X0318254Y0248681D01*
X0314589Y0248681D02*
X0309117Y0248681D01*
X0309293Y0247683D02*
X0313734Y0247683D01*
X0313371Y0246684D02*
X0309463Y0246684D01*
X0309466Y0246701D02*
X0309466Y0246701D01*
X0309287Y0245686D02*
X0313371Y0245686D01*
X0313747Y0244687D02*
X0309111Y0244687D01*
X0308935Y0243689D02*
X0314620Y0243689D01*
X0316599Y0241692D02*
X0307884Y0241692D01*
X0308460Y0242690D02*
X0332082Y0242690D01*
X0320233Y0236699D02*
X0399421Y0236699D01*
X0399421Y0237698D02*
X0400421Y0237698D01*
X0400421Y0238696D02*
X0399421Y0238696D01*
X0399421Y0239695D02*
X0400421Y0239695D01*
X0400421Y0240693D02*
X0399421Y0240693D01*
X0403273Y0240693D02*
X0406277Y0240693D01*
X0405317Y0239695D02*
X0404174Y0239695D01*
X0404741Y0238696D02*
X0404903Y0238696D01*
X0395103Y0234702D02*
X0292021Y0234702D01*
X0292021Y0235701D02*
X0394815Y0235701D01*
X0395630Y0260664D02*
X0376985Y0260664D01*
X0372857Y0260664D02*
X0355712Y0260664D01*
X0356711Y0261662D02*
X0372213Y0261662D01*
X0372021Y0262661D02*
X0357709Y0262661D01*
X0358708Y0263659D02*
X0372179Y0263659D01*
X0372777Y0264658D02*
X0359707Y0264658D01*
X0406208Y0263659D02*
X0408641Y0263659D01*
X0407298Y0264658D02*
X0406921Y0264658D01*
X0406921Y0268652D02*
X0407205Y0268652D01*
X0406921Y0269650D02*
X0408418Y0269650D01*
X0431921Y0254672D02*
X0497743Y0254672D01*
X0497743Y0253674D02*
X0431921Y0253674D01*
X0431921Y0252675D02*
X0497743Y0252675D01*
X0497743Y0251677D02*
X0431921Y0251677D01*
X0437759Y0241692D02*
X0437860Y0241692D01*
X0426277Y0240693D02*
X0423566Y0240693D01*
X0424526Y0239695D02*
X0425317Y0239695D01*
X0492739Y0250678D02*
X0497743Y0250678D01*
X0497743Y0249680D02*
X0495036Y0249680D01*
X0496226Y0248681D02*
X0497743Y0248681D01*
X0497743Y0247683D02*
X0497322Y0247683D01*
X0497743Y0259665D02*
X0491714Y0259665D01*
X0494038Y0260664D02*
X0497743Y0260664D01*
X0497743Y0261662D02*
X0494121Y0261662D01*
X0494121Y0262661D02*
X0497743Y0262661D01*
X0497743Y0263659D02*
X0494121Y0263659D01*
X0494348Y0264658D02*
X0497743Y0264658D01*
X0497743Y0265656D02*
X0495346Y0265656D01*
X0496345Y0266655D02*
X0497743Y0266655D01*
X0497743Y0267653D02*
X0497021Y0267653D01*
X0497021Y0268652D02*
X0497743Y0268652D01*
X0497743Y0269650D02*
X0497021Y0269650D01*
X0497021Y0270649D02*
X0497743Y0270649D01*
X0497743Y0271647D02*
X0497021Y0271647D01*
X0497021Y0272646D02*
X0497743Y0272646D01*
X0497743Y0273644D02*
X0497021Y0273644D01*
X0497021Y0274643D02*
X0497743Y0274643D01*
X0497743Y0275641D02*
X0497021Y0275641D01*
X0497021Y0276640D02*
X0497743Y0276640D01*
X0497743Y0277638D02*
X0497021Y0277638D01*
X0497021Y0278637D02*
X0497743Y0278637D01*
X0497743Y0279635D02*
X0497021Y0279635D01*
X0497021Y0280634D02*
X0497743Y0280634D01*
X0497743Y0281632D02*
X0497021Y0281632D01*
X0497021Y0282631D02*
X0497743Y0282631D01*
X0497743Y0283629D02*
X0497021Y0283629D01*
X0497021Y0284628D02*
X0497743Y0284628D01*
X0497743Y0285626D02*
X0497021Y0285626D01*
X0497021Y0286625D02*
X0497743Y0286625D01*
X0497743Y0287623D02*
X0497021Y0287623D01*
X0496970Y0288622D02*
X0497743Y0288622D01*
X0497743Y0289620D02*
X0495972Y0289620D01*
X0494973Y0290619D02*
X0497743Y0290619D01*
X0497743Y0291617D02*
X0493975Y0291617D01*
X0492976Y0292616D02*
X0497743Y0292616D01*
X0497743Y0293614D02*
X0491977Y0293614D01*
X0490979Y0294613D02*
X0497743Y0294613D01*
X0497743Y0295611D02*
X0489980Y0295611D01*
X0488982Y0296610D02*
X0497743Y0296610D01*
X0497743Y0297608D02*
X0487983Y0297608D01*
X0486985Y0298607D02*
X0497743Y0298607D01*
X0497743Y0299605D02*
X0485986Y0299605D01*
X0484988Y0300604D02*
X0497743Y0300604D01*
X0497743Y0301603D02*
X0483989Y0301603D01*
X0475622Y0302601D02*
X0497743Y0302601D01*
X0497743Y0311588D02*
X0292021Y0311588D01*
X0285821Y0311588D02*
X0080100Y0311588D01*
X0080100Y0311701D02*
X0285821Y0311701D01*
X0285821Y0246954D01*
X0285312Y0247836D01*
X0285312Y0247836D01*
X0282773Y0249967D01*
X0282772Y0249967D01*
X0279657Y0251101D01*
X0276343Y0251101D01*
X0273227Y0249967D01*
X0270688Y0247836D01*
X0269031Y0244965D01*
X0268455Y0241701D01*
X0268455Y0241701D01*
X0269031Y0238436D01*
X0270688Y0235565D01*
X0272791Y0233801D01*
X0232644Y0233801D01*
X0233400Y0235627D01*
X0233400Y0237775D01*
X0232578Y0239760D01*
X0231059Y0241279D01*
X0229074Y0242101D01*
X0226926Y0242101D01*
X0225867Y0241662D01*
X0225000Y0242529D01*
X0225000Y0246600D01*
X0225458Y0247058D01*
X0225900Y0248124D01*
X0225900Y0249278D01*
X0225458Y0250344D01*
X0224643Y0251159D01*
X0223577Y0251601D01*
X0222423Y0251601D01*
X0221357Y0251159D01*
X0220541Y0250344D01*
X0220100Y0249278D01*
X0220100Y0248124D01*
X0220541Y0247058D01*
X0221000Y0246600D01*
X0221000Y0241303D01*
X0220000Y0241717D01*
X0220000Y0255872D01*
X0233828Y0269701D01*
X0251828Y0269701D01*
X0253828Y0271701D01*
X0255000Y0272872D01*
X0255000Y0277600D01*
X0255458Y0278058D01*
X0255900Y0279124D01*
X0255900Y0280278D01*
X0255458Y0281344D01*
X0254643Y0282159D01*
X0253577Y0282601D01*
X0252423Y0282601D01*
X0251357Y0282159D01*
X0250899Y0281701D01*
X0230101Y0281701D01*
X0229643Y0282159D01*
X0228577Y0282601D01*
X0227423Y0282601D01*
X0226357Y0282159D01*
X0226000Y0281802D01*
X0226000Y0281872D01*
X0230828Y0286701D01*
X0232000Y0287872D01*
X0232000Y0289387D01*
X0232586Y0289973D01*
X0233050Y0291094D01*
X0233050Y0292307D01*
X0232586Y0293428D01*
X0231728Y0294286D01*
X0231606Y0294337D01*
X0237370Y0300101D01*
X0244499Y0300101D01*
X0244857Y0299742D01*
X0245923Y0299301D01*
X0247077Y0299301D01*
X0248143Y0299742D01*
X0248501Y0300101D01*
X0259100Y0300101D01*
X0259100Y0299624D01*
X0259541Y0298558D01*
X0260357Y0297742D01*
X0261423Y0297301D01*
X0262577Y0297301D01*
X0263643Y0297742D01*
X0264001Y0298101D01*
X0269630Y0298101D01*
X0280900Y0286831D01*
X0280900Y0273651D01*
X0279878Y0273651D01*
X0278828Y0274701D01*
X0264828Y0288701D01*
X0260101Y0288701D01*
X0259643Y0289159D01*
X0258577Y0289601D01*
X0257423Y0289601D01*
X0256357Y0289159D01*
X0255541Y0288344D01*
X0255100Y0287278D01*
X0255100Y0286124D01*
X0255541Y0285058D01*
X0256357Y0284242D01*
X0257423Y0283801D01*
X0258577Y0283801D01*
X0259643Y0284242D01*
X0260101Y0284701D01*
X0263172Y0284701D01*
X0274509Y0273364D01*
X0273800Y0272655D01*
X0273800Y0268747D01*
X0273846Y0268701D01*
X0273800Y0268655D01*
X0273800Y0268471D01*
X0272930Y0267601D01*
X0272423Y0267601D01*
X0271357Y0267159D01*
X0270541Y0266344D01*
X0270100Y0265278D01*
X0270100Y0264124D01*
X0270541Y0263058D01*
X0270899Y0262701D01*
X0268828Y0262701D01*
X0264000Y0267529D01*
X0264000Y0279600D01*
X0264458Y0280058D01*
X0264900Y0281124D01*
X0264900Y0282278D01*
X0264458Y0283344D01*
X0263643Y0284159D01*
X0262577Y0284601D01*
X0261423Y0284601D01*
X0260357Y0284159D01*
X0259541Y0283344D01*
X0259100Y0282278D01*
X0259100Y0281124D01*
X0259541Y0280058D01*
X0260000Y0279600D01*
X0260000Y0265872D01*
X0266000Y0259872D01*
X0267172Y0258701D01*
X0278828Y0258701D01*
X0279878Y0259751D01*
X0281204Y0259751D01*
X0282200Y0260747D01*
X0282200Y0264601D01*
X0282370Y0264601D01*
X0283600Y0265831D01*
X0285100Y0267331D01*
X0285100Y0288571D01*
X0283870Y0289801D01*
X0271370Y0302301D01*
X0264001Y0302301D01*
X0263643Y0302659D01*
X0262577Y0303101D01*
X0262070Y0303101D01*
X0260870Y0304301D01*
X0248501Y0304301D01*
X0248143Y0304659D01*
X0247077Y0305101D01*
X0245923Y0305101D01*
X0244857Y0304659D01*
X0244499Y0304301D01*
X0235630Y0304301D01*
X0223009Y0291679D01*
X0223400Y0292624D01*
X0223400Y0293778D01*
X0222958Y0294844D01*
X0222143Y0295659D01*
X0221077Y0296101D01*
X0219923Y0296101D01*
X0218857Y0295659D01*
X0218399Y0295201D01*
X0158672Y0295201D01*
X0157500Y0294029D01*
X0125072Y0261601D01*
X0124423Y0261601D01*
X0123357Y0261159D01*
X0122541Y0260344D01*
X0122100Y0259278D01*
X0122100Y0258124D01*
X0122541Y0257058D01*
X0123357Y0256242D01*
X0124423Y0255801D01*
X0125577Y0255801D01*
X0125909Y0255939D01*
X0118172Y0248201D01*
X0106813Y0248201D01*
X0106228Y0248786D01*
X0105107Y0249251D01*
X0103893Y0249251D01*
X0102772Y0248786D01*
X0101914Y0247928D01*
X0101450Y0246807D01*
X0101450Y0245594D01*
X0101914Y0244473D01*
X0102772Y0243615D01*
X0103893Y0243151D01*
X0105107Y0243151D01*
X0106228Y0243615D01*
X0106813Y0244201D01*
X0119828Y0244201D01*
X0161278Y0285651D01*
X0162107Y0285651D01*
X0163228Y0286115D01*
X0164086Y0286973D01*
X0164550Y0288094D01*
X0164550Y0289307D01*
X0164086Y0290428D01*
X0163313Y0291201D01*
X0218399Y0291201D01*
X0218857Y0290742D01*
X0219923Y0290301D01*
X0221077Y0290301D01*
X0222021Y0290692D01*
X0215130Y0283801D01*
X0209099Y0283801D01*
X0209468Y0283954D01*
X0209976Y0284293D01*
X0210408Y0284725D01*
X0210747Y0285232D01*
X0210981Y0285797D01*
X0211100Y0286395D01*
X0211100Y0286701D01*
X0211100Y0287006D01*
X0210981Y0287605D01*
X0210747Y0288169D01*
X0210408Y0288677D01*
X0209976Y0289109D01*
X0209468Y0289448D01*
X0208904Y0289682D01*
X0208305Y0289801D01*
X0208000Y0289801D01*
X0208000Y0286701D01*
X0208000Y0286701D01*
X0208000Y0289801D01*
X0207695Y0289801D01*
X0207096Y0289682D01*
X0206532Y0289448D01*
X0206024Y0289109D01*
X0205592Y0288677D01*
X0205405Y0288397D01*
X0204643Y0289159D01*
X0203577Y0289601D01*
X0202423Y0289601D01*
X0201357Y0289159D01*
X0200783Y0288585D01*
X0199869Y0289498D01*
X0198656Y0290001D01*
X0197344Y0290001D01*
X0196131Y0289498D01*
X0195202Y0288570D01*
X0194700Y0287357D01*
X0194700Y0286044D01*
X0195202Y0284831D01*
X0196131Y0283903D01*
X0197344Y0283401D01*
X0198656Y0283401D01*
X0199869Y0283903D01*
X0200783Y0284817D01*
X0200900Y0284700D01*
X0200900Y0278323D01*
X0200798Y0278570D01*
X0199869Y0279498D01*
X0198656Y0280001D01*
X0197344Y0280001D01*
X0196131Y0279498D01*
X0195333Y0278701D01*
X0194172Y0278701D01*
X0192172Y0276701D01*
X0191000Y0275529D01*
X0191000Y0266029D01*
X0187572Y0262601D01*
X0187428Y0262601D01*
X0185328Y0264701D01*
X0165101Y0264701D01*
X0164643Y0265159D01*
X0163577Y0265601D01*
X0162423Y0265601D01*
X0161357Y0265159D01*
X0160541Y0264344D01*
X0160100Y0263278D01*
X0160100Y0262124D01*
X0160541Y0261058D01*
X0161357Y0260242D01*
X0162423Y0259801D01*
X0163577Y0259801D01*
X0164643Y0260242D01*
X0165101Y0260701D01*
X0183672Y0260701D01*
X0184600Y0259772D01*
X0184600Y0259124D01*
X0185041Y0258058D01*
X0185857Y0257242D01*
X0186923Y0256801D01*
X0188077Y0256801D01*
X0189143Y0257242D01*
X0189958Y0258058D01*
X0190400Y0259124D01*
X0190400Y0259772D01*
X0195000Y0264372D01*
X0195000Y0265320D01*
X0195202Y0264831D01*
X0196131Y0263903D01*
X0197344Y0263401D01*
X0198656Y0263401D01*
X0199869Y0263903D01*
X0200798Y0264831D01*
X0201300Y0266044D01*
X0201300Y0267357D01*
X0200798Y0268570D01*
X0199869Y0269498D01*
X0198656Y0270001D01*
X0197344Y0270001D01*
X0196131Y0269498D01*
X0195202Y0268570D01*
X0195000Y0268081D01*
X0195000Y0273872D01*
X0195581Y0274453D01*
X0196131Y0273903D01*
X0197344Y0273401D01*
X0198656Y0273401D01*
X0199869Y0273903D01*
X0200798Y0274831D01*
X0200900Y0275079D01*
X0200900Y0270831D01*
X0204700Y0267031D01*
X0204700Y0266044D01*
X0205190Y0264861D01*
X0194930Y0254601D01*
X0194423Y0254601D01*
X0193357Y0254159D01*
X0192541Y0253344D01*
X0192100Y0252278D01*
X0192100Y0251124D01*
X0192541Y0250058D01*
X0193357Y0249242D01*
X0194423Y0248801D01*
X0195577Y0248801D01*
X0196643Y0249242D01*
X0197458Y0250058D01*
X0197900Y0251124D01*
X0197900Y0251631D01*
X0200491Y0254222D01*
X0200100Y0253278D01*
X0200100Y0252124D01*
X0200541Y0251058D01*
X0201357Y0250242D01*
X0202423Y0249801D01*
X0203577Y0249801D01*
X0204643Y0250242D01*
X0205101Y0250701D01*
X0206000Y0250701D01*
X0206000Y0241717D01*
X0204941Y0241279D01*
X0203422Y0239760D01*
X0203000Y0238741D01*
X0202578Y0239760D01*
X0201059Y0241279D01*
X0199074Y0242101D01*
X0196926Y0242101D01*
X0194941Y0241279D01*
X0193422Y0239760D01*
X0192891Y0238477D01*
X0192819Y0238697D01*
X0192447Y0239426D01*
X0191966Y0240088D01*
X0191388Y0240667D01*
X0190725Y0241148D01*
X0189996Y0241520D01*
X0189218Y0241773D01*
X0188500Y0241886D01*
X0188500Y0237201D01*
X0187500Y0237201D01*
X0187500Y0241886D01*
X0186782Y0241773D01*
X0186004Y0241520D01*
X0185275Y0241148D01*
X0184612Y0240667D01*
X0184034Y0240088D01*
X0183553Y0239426D01*
X0183181Y0238697D01*
X0182928Y0237918D01*
X0182814Y0237201D01*
X0187500Y0237201D01*
X0187500Y0236201D01*
X0182814Y0236201D01*
X0182928Y0235483D01*
X0183181Y0234705D01*
X0183553Y0233975D01*
X0183679Y0233801D01*
X0080100Y0233801D01*
X0080100Y0241584D01*
X0080688Y0240565D01*
X0083227Y0238435D01*
X0083227Y0238435D01*
X0086343Y0237301D01*
X0089657Y0237301D01*
X0092773Y0238435D01*
X0095312Y0240565D01*
X0096969Y0243436D01*
X0097545Y0246701D01*
X0096969Y0249965D01*
X0096969Y0249965D01*
X0095312Y0252836D01*
X0095312Y0252836D01*
X0092773Y0254967D01*
X0092772Y0254967D01*
X0089657Y0256101D01*
X0087059Y0256101D01*
X0087844Y0257278D01*
X0087479Y0259106D01*
X0086559Y0259719D01*
X0087479Y0260332D01*
X0087844Y0262160D01*
X0086953Y0263497D01*
X0087705Y0264248D01*
X0087705Y0268081D01*
X0086926Y0268859D01*
X0086398Y0269387D01*
X0086949Y0269938D01*
X0087705Y0270694D01*
X0087705Y0274526D01*
X0086926Y0275305D01*
X0086387Y0275844D01*
X0086181Y0276050D01*
X0085403Y0276828D01*
X0082555Y0276828D01*
X0082503Y0276776D01*
X0082450Y0276828D01*
X0080100Y0276828D01*
X0080100Y0311701D01*
X0080100Y0310589D02*
X0205287Y0310589D01*
X0205357Y0310659D02*
X0204541Y0309844D01*
X0204100Y0308778D01*
X0204100Y0308271D01*
X0196680Y0300851D01*
X0196077Y0301101D01*
X0194923Y0301101D01*
X0193857Y0300659D01*
X0193041Y0299844D01*
X0192600Y0298778D01*
X0192600Y0297624D01*
X0193041Y0296558D01*
X0193857Y0295742D01*
X0194923Y0295301D01*
X0196077Y0295301D01*
X0197143Y0295742D01*
X0197501Y0296101D01*
X0197870Y0296101D01*
X0207070Y0305301D01*
X0207577Y0305301D01*
X0208643Y0305742D01*
X0209458Y0306558D01*
X0209900Y0307624D01*
X0209900Y0308778D01*
X0209458Y0309844D01*
X0208643Y0310659D01*
X0207577Y0311101D01*
X0206423Y0311101D01*
X0205357Y0310659D01*
X0204437Y0309591D02*
X0080100Y0309591D01*
X0080100Y0308592D02*
X0204100Y0308592D01*
X0203423Y0307594D02*
X0080100Y0307594D01*
X0080100Y0306595D02*
X0202424Y0306595D01*
X0201426Y0305597D02*
X0080100Y0305597D01*
X0080100Y0304598D02*
X0200427Y0304598D01*
X0199429Y0303600D02*
X0080100Y0303600D01*
X0080100Y0302601D02*
X0198430Y0302601D01*
X0197432Y0301603D02*
X0080100Y0301603D01*
X0080100Y0300604D02*
X0193802Y0300604D01*
X0192943Y0299605D02*
X0080100Y0299605D01*
X0080100Y0298607D02*
X0192600Y0298607D01*
X0192606Y0297608D02*
X0080100Y0297608D01*
X0080100Y0296610D02*
X0193020Y0296610D01*
X0194173Y0295611D02*
X0080100Y0295611D01*
X0080100Y0294613D02*
X0158084Y0294613D01*
X0157500Y0294029D02*
X0157500Y0294029D01*
X0157085Y0293614D02*
X0080100Y0293614D01*
X0080100Y0292616D02*
X0156087Y0292616D01*
X0155088Y0291617D02*
X0080100Y0291617D01*
X0080100Y0290619D02*
X0154090Y0290619D01*
X0153091Y0289620D02*
X0080100Y0289620D01*
X0080100Y0288622D02*
X0152093Y0288622D01*
X0151094Y0287623D02*
X0080100Y0287623D01*
X0080100Y0286625D02*
X0150096Y0286625D01*
X0149097Y0285626D02*
X0080100Y0285626D01*
X0080100Y0284628D02*
X0148099Y0284628D01*
X0147100Y0283629D02*
X0080100Y0283629D01*
X0080100Y0282631D02*
X0146102Y0282631D01*
X0145103Y0281632D02*
X0080100Y0281632D01*
X0080100Y0280634D02*
X0144105Y0280634D01*
X0143106Y0279635D02*
X0080100Y0279635D01*
X0080100Y0278637D02*
X0142108Y0278637D01*
X0141109Y0277638D02*
X0080100Y0277638D01*
X0085592Y0276640D02*
X0140111Y0276640D01*
X0139112Y0275641D02*
X0086590Y0275641D01*
X0086387Y0275844D02*
X0086387Y0275844D01*
X0087589Y0274643D02*
X0138114Y0274643D01*
X0137115Y0273644D02*
X0087705Y0273644D01*
X0087705Y0272646D02*
X0136116Y0272646D01*
X0135118Y0271647D02*
X0087705Y0271647D01*
X0087660Y0270649D02*
X0134119Y0270649D01*
X0133121Y0269650D02*
X0086661Y0269650D01*
X0087134Y0268652D02*
X0132122Y0268652D01*
X0131124Y0267653D02*
X0087705Y0267653D01*
X0087705Y0266655D02*
X0130125Y0266655D01*
X0129127Y0265656D02*
X0087705Y0265656D01*
X0087705Y0264658D02*
X0128128Y0264658D01*
X0127130Y0263659D02*
X0087116Y0263659D01*
X0087510Y0262661D02*
X0126131Y0262661D01*
X0125133Y0261662D02*
X0087745Y0261662D01*
X0087545Y0260664D02*
X0122862Y0260664D01*
X0122260Y0259665D02*
X0086640Y0259665D01*
X0087566Y0258667D02*
X0122100Y0258667D01*
X0122289Y0257668D02*
X0087766Y0257668D01*
X0087438Y0256670D02*
X0122930Y0256670D01*
X0124643Y0254672D02*
X0093124Y0254672D01*
X0094313Y0253674D02*
X0123645Y0253674D01*
X0122646Y0252675D02*
X0095405Y0252675D01*
X0095981Y0251677D02*
X0121648Y0251677D01*
X0120649Y0250678D02*
X0096558Y0250678D01*
X0097020Y0249680D02*
X0119651Y0249680D01*
X0118652Y0248681D02*
X0106333Y0248681D01*
X0102667Y0248681D02*
X0097196Y0248681D01*
X0097372Y0247683D02*
X0101813Y0247683D01*
X0101450Y0246684D02*
X0097542Y0246684D01*
X0097545Y0246701D02*
X0097545Y0246701D01*
X0097366Y0245686D02*
X0101450Y0245686D01*
X0101826Y0244687D02*
X0097190Y0244687D01*
X0097014Y0243689D02*
X0102699Y0243689D01*
X0104678Y0241692D02*
X0095962Y0241692D01*
X0096539Y0242690D02*
X0120161Y0242690D01*
X0119163Y0241692D02*
X0108322Y0241692D01*
X0108228Y0241786D02*
X0108813Y0241201D01*
X0118672Y0241201D01*
X0159950Y0282479D01*
X0159950Y0283307D01*
X0160414Y0284428D01*
X0161272Y0285286D01*
X0162393Y0285751D01*
X0163607Y0285751D01*
X0164728Y0285286D01*
X0165586Y0284428D01*
X0166050Y0283307D01*
X0166050Y0282094D01*
X0165586Y0280973D01*
X0164728Y0280115D01*
X0163607Y0279651D01*
X0162778Y0279651D01*
X0120328Y0237201D01*
X0108813Y0237201D01*
X0108228Y0236615D01*
X0107107Y0236151D01*
X0105893Y0236151D01*
X0104772Y0236615D01*
X0103914Y0237473D01*
X0103450Y0238594D01*
X0103450Y0239807D01*
X0103914Y0240928D01*
X0104772Y0241786D01*
X0105893Y0242251D01*
X0107107Y0242251D01*
X0108228Y0241786D01*
X0106301Y0243689D02*
X0121160Y0243689D01*
X0120315Y0244687D02*
X0122158Y0244687D01*
X0121314Y0245686D02*
X0123157Y0245686D01*
X0122312Y0246684D02*
X0124155Y0246684D01*
X0123311Y0247683D02*
X0125154Y0247683D01*
X0124309Y0248681D02*
X0126152Y0248681D01*
X0125308Y0249680D02*
X0127151Y0249680D01*
X0126306Y0250678D02*
X0128149Y0250678D01*
X0127305Y0251677D02*
X0129148Y0251677D01*
X0128303Y0252675D02*
X0130146Y0252675D01*
X0129302Y0253674D02*
X0131145Y0253674D01*
X0130300Y0254672D02*
X0132143Y0254672D01*
X0131299Y0255671D02*
X0133142Y0255671D01*
X0132297Y0256670D02*
X0134140Y0256670D01*
X0133296Y0257668D02*
X0135139Y0257668D01*
X0134294Y0258667D02*
X0136137Y0258667D01*
X0135293Y0259665D02*
X0137136Y0259665D01*
X0136291Y0260664D02*
X0138134Y0260664D01*
X0137290Y0261662D02*
X0139133Y0261662D01*
X0138288Y0262661D02*
X0140131Y0262661D01*
X0139287Y0263659D02*
X0141130Y0263659D01*
X0140285Y0264658D02*
X0142128Y0264658D01*
X0141284Y0265656D02*
X0143127Y0265656D01*
X0142282Y0266655D02*
X0144125Y0266655D01*
X0143281Y0267653D02*
X0145124Y0267653D01*
X0144279Y0268652D02*
X0146122Y0268652D01*
X0145278Y0269650D02*
X0147121Y0269650D01*
X0146276Y0270649D02*
X0148119Y0270649D01*
X0147275Y0271647D02*
X0149118Y0271647D01*
X0148273Y0272646D02*
X0150116Y0272646D01*
X0149272Y0273644D02*
X0151115Y0273644D01*
X0150270Y0274643D02*
X0152113Y0274643D01*
X0151269Y0275641D02*
X0153112Y0275641D01*
X0152267Y0276640D02*
X0154111Y0276640D01*
X0153266Y0277638D02*
X0155109Y0277638D01*
X0154264Y0278637D02*
X0156108Y0278637D01*
X0155263Y0279635D02*
X0157106Y0279635D01*
X0156261Y0280634D02*
X0158105Y0280634D01*
X0157260Y0281632D02*
X0159103Y0281632D01*
X0158258Y0282631D02*
X0159950Y0282631D01*
X0160083Y0283629D02*
X0159257Y0283629D01*
X0160255Y0284628D02*
X0160614Y0284628D01*
X0161254Y0285626D02*
X0162093Y0285626D01*
X0163907Y0285626D02*
X0194873Y0285626D01*
X0194700Y0286625D02*
X0163737Y0286625D01*
X0164355Y0287623D02*
X0194810Y0287623D01*
X0195254Y0288622D02*
X0164550Y0288622D01*
X0164420Y0289620D02*
X0196425Y0289620D01*
X0199575Y0289620D02*
X0206948Y0289620D01*
X0208000Y0289620D02*
X0208000Y0289620D01*
X0208000Y0288622D02*
X0208000Y0288622D01*
X0208000Y0287623D02*
X0208000Y0287623D01*
X0208000Y0286701D02*
X0211100Y0286701D01*
X0208000Y0286701D01*
X0208000Y0286701D01*
X0211100Y0286625D02*
X0217954Y0286625D01*
X0216956Y0285626D02*
X0210910Y0285626D01*
X0210311Y0284628D02*
X0215957Y0284628D01*
X0218901Y0281632D02*
X0222000Y0281632D01*
X0222000Y0280634D02*
X0217903Y0280634D01*
X0218100Y0280831D02*
X0216870Y0279601D01*
X0209622Y0279601D01*
X0209869Y0279498D01*
X0210798Y0278570D01*
X0211300Y0277357D01*
X0211300Y0276044D01*
X0210798Y0274831D01*
X0209869Y0273903D01*
X0208656Y0273401D01*
X0207344Y0273401D01*
X0206131Y0273903D01*
X0205202Y0274831D01*
X0205100Y0275079D01*
X0205100Y0272571D01*
X0207670Y0270001D01*
X0208656Y0270001D01*
X0209869Y0269498D01*
X0210798Y0268570D01*
X0211300Y0267357D01*
X0211300Y0266044D01*
X0210798Y0264831D01*
X0210100Y0264134D01*
X0210100Y0263831D01*
X0201479Y0255210D01*
X0202423Y0255601D01*
X0203577Y0255601D01*
X0204643Y0255159D01*
X0204886Y0254916D01*
X0222000Y0272029D01*
X0222000Y0283529D01*
X0227929Y0289458D01*
X0227414Y0289973D01*
X0227364Y0290095D01*
X0218100Y0280831D01*
X0216904Y0279635D02*
X0222000Y0279635D01*
X0222000Y0278637D02*
X0210731Y0278637D01*
X0211184Y0277638D02*
X0222000Y0277638D01*
X0222000Y0276640D02*
X0211300Y0276640D01*
X0211133Y0275641D02*
X0222000Y0275641D01*
X0222000Y0274643D02*
X0210609Y0274643D01*
X0209244Y0273644D02*
X0222000Y0273644D01*
X0222000Y0272646D02*
X0205100Y0272646D01*
X0205100Y0273644D02*
X0206756Y0273644D01*
X0205391Y0274643D02*
X0205100Y0274643D01*
X0206023Y0271647D02*
X0221618Y0271647D01*
X0220619Y0270649D02*
X0207022Y0270649D01*
X0209503Y0269650D02*
X0219621Y0269650D01*
X0218622Y0268652D02*
X0210716Y0268652D01*
X0211177Y0267653D02*
X0217624Y0267653D01*
X0216625Y0266655D02*
X0211300Y0266655D01*
X0211139Y0265656D02*
X0215627Y0265656D01*
X0214628Y0264658D02*
X0210624Y0264658D01*
X0209928Y0263659D02*
X0213630Y0263659D01*
X0212631Y0262661D02*
X0208930Y0262661D01*
X0207931Y0261662D02*
X0211633Y0261662D01*
X0210634Y0260664D02*
X0206933Y0260664D01*
X0205934Y0259665D02*
X0209636Y0259665D01*
X0208637Y0258667D02*
X0204936Y0258667D01*
X0203937Y0257668D02*
X0207639Y0257668D01*
X0206640Y0256670D02*
X0202939Y0256670D01*
X0201940Y0255671D02*
X0205642Y0255671D01*
X0206000Y0250678D02*
X0205079Y0250678D01*
X0206000Y0249680D02*
X0197080Y0249680D01*
X0197715Y0250678D02*
X0200921Y0250678D01*
X0200285Y0251677D02*
X0197946Y0251677D01*
X0198945Y0252675D02*
X0200100Y0252675D01*
X0199943Y0253674D02*
X0200264Y0253674D01*
X0196999Y0256670D02*
X0139797Y0256670D01*
X0140796Y0257668D02*
X0185432Y0257668D01*
X0184789Y0258667D02*
X0141794Y0258667D01*
X0142793Y0259665D02*
X0184600Y0259665D01*
X0183709Y0260664D02*
X0165064Y0260664D01*
X0160936Y0260664D02*
X0143791Y0260664D01*
X0144790Y0261662D02*
X0160291Y0261662D01*
X0160100Y0262661D02*
X0145788Y0262661D01*
X0146787Y0263659D02*
X0160258Y0263659D01*
X0160856Y0264658D02*
X0147785Y0264658D01*
X0148784Y0265656D02*
X0190627Y0265656D01*
X0191000Y0266655D02*
X0149782Y0266655D01*
X0150781Y0267653D02*
X0191000Y0267653D01*
X0191000Y0268652D02*
X0151779Y0268652D01*
X0152778Y0269650D02*
X0191000Y0269650D01*
X0191000Y0270649D02*
X0153776Y0270649D01*
X0154775Y0271647D02*
X0191000Y0271647D01*
X0191000Y0272646D02*
X0155773Y0272646D01*
X0156772Y0273644D02*
X0191000Y0273644D01*
X0191000Y0274643D02*
X0157770Y0274643D01*
X0158769Y0275641D02*
X0191112Y0275641D01*
X0192111Y0276640D02*
X0159767Y0276640D01*
X0160766Y0277638D02*
X0193109Y0277638D01*
X0194108Y0278637D02*
X0161764Y0278637D01*
X0162763Y0279635D02*
X0196461Y0279635D01*
X0199539Y0279635D02*
X0200900Y0279635D01*
X0200900Y0278637D02*
X0200731Y0278637D01*
X0200900Y0280634D02*
X0165246Y0280634D01*
X0165859Y0281632D02*
X0200900Y0281632D01*
X0200900Y0282631D02*
X0166050Y0282631D01*
X0165917Y0283629D02*
X0196792Y0283629D01*
X0195406Y0284628D02*
X0165386Y0284628D01*
X0163895Y0290619D02*
X0219155Y0290619D01*
X0220950Y0289620D02*
X0209052Y0289620D01*
X0210445Y0288622D02*
X0219951Y0288622D01*
X0218953Y0287623D02*
X0210973Y0287623D01*
X0205555Y0288622D02*
X0205180Y0288622D01*
X0200820Y0288622D02*
X0200746Y0288622D01*
X0200594Y0284628D02*
X0200900Y0284628D01*
X0200900Y0283629D02*
X0199208Y0283629D01*
X0200609Y0274643D02*
X0200900Y0274643D01*
X0200900Y0273644D02*
X0199244Y0273644D01*
X0200900Y0272646D02*
X0195000Y0272646D01*
X0195000Y0273644D02*
X0196756Y0273644D01*
X0195000Y0271647D02*
X0200900Y0271647D01*
X0201082Y0270649D02*
X0195000Y0270649D01*
X0195000Y0269650D02*
X0196497Y0269650D01*
X0195284Y0268652D02*
X0195000Y0268652D01*
X0195000Y0264658D02*
X0195376Y0264658D01*
X0194287Y0263659D02*
X0196720Y0263659D01*
X0199280Y0263659D02*
X0203988Y0263659D01*
X0202990Y0262661D02*
X0193288Y0262661D01*
X0192290Y0261662D02*
X0201991Y0261662D01*
X0200993Y0260664D02*
X0191291Y0260664D01*
X0190400Y0259665D02*
X0199994Y0259665D01*
X0198996Y0258667D02*
X0190211Y0258667D01*
X0189568Y0257668D02*
X0197997Y0257668D01*
X0196000Y0255671D02*
X0138799Y0255671D01*
X0137800Y0254672D02*
X0195002Y0254672D01*
X0192872Y0253674D02*
X0136802Y0253674D01*
X0135803Y0252675D02*
X0192265Y0252675D01*
X0192100Y0251677D02*
X0134805Y0251677D01*
X0133806Y0250678D02*
X0192285Y0250678D01*
X0192920Y0249680D02*
X0132808Y0249680D01*
X0131809Y0248681D02*
X0206000Y0248681D01*
X0206000Y0247683D02*
X0130811Y0247683D01*
X0129812Y0246684D02*
X0206000Y0246684D01*
X0206000Y0245686D02*
X0128814Y0245686D01*
X0127815Y0244687D02*
X0206000Y0244687D01*
X0206000Y0243689D02*
X0126816Y0243689D01*
X0125818Y0242690D02*
X0206000Y0242690D01*
X0205939Y0241692D02*
X0200061Y0241692D01*
X0201644Y0240693D02*
X0204356Y0240693D01*
X0203395Y0239695D02*
X0202605Y0239695D01*
X0195939Y0241692D02*
X0189467Y0241692D01*
X0188500Y0241692D02*
X0187500Y0241692D01*
X0186533Y0241692D02*
X0124819Y0241692D01*
X0123821Y0240693D02*
X0184648Y0240693D01*
X0183748Y0239695D02*
X0122822Y0239695D01*
X0121824Y0238696D02*
X0183181Y0238696D01*
X0182893Y0237698D02*
X0120825Y0237698D01*
X0108312Y0236699D02*
X0187500Y0236699D01*
X0187500Y0237698D02*
X0188500Y0237698D01*
X0188500Y0238696D02*
X0187500Y0238696D01*
X0187500Y0239695D02*
X0188500Y0239695D01*
X0188500Y0240693D02*
X0187500Y0240693D01*
X0191352Y0240693D02*
X0194356Y0240693D01*
X0193395Y0239695D02*
X0192252Y0239695D01*
X0192819Y0238696D02*
X0192982Y0238696D01*
X0182894Y0235701D02*
X0080100Y0235701D01*
X0080100Y0236699D02*
X0104688Y0236699D01*
X0103821Y0237698D02*
X0090748Y0237698D01*
X0092773Y0238435D02*
X0092773Y0238435D01*
X0093084Y0238696D02*
X0103450Y0238696D01*
X0103450Y0239695D02*
X0094274Y0239695D01*
X0095312Y0240565D02*
X0095312Y0240565D01*
X0095386Y0240693D02*
X0103817Y0240693D01*
X0085252Y0237698D02*
X0080100Y0237698D01*
X0080100Y0238696D02*
X0082916Y0238696D01*
X0081726Y0239695D02*
X0080100Y0239695D01*
X0080100Y0240693D02*
X0080614Y0240693D01*
X0080688Y0240565D02*
X0080688Y0240565D01*
X0080100Y0234702D02*
X0183182Y0234702D01*
X0210000Y0241717D02*
X0210000Y0249872D01*
X0216000Y0255872D01*
X0216000Y0241717D01*
X0214941Y0241279D01*
X0213422Y0239760D01*
X0213000Y0238741D01*
X0212578Y0239760D01*
X0211059Y0241279D01*
X0210000Y0241717D01*
X0210061Y0241692D02*
X0215939Y0241692D01*
X0216000Y0242690D02*
X0210000Y0242690D01*
X0210000Y0243689D02*
X0216000Y0243689D01*
X0216000Y0244687D02*
X0210000Y0244687D01*
X0210000Y0245686D02*
X0216000Y0245686D01*
X0216000Y0246684D02*
X0210000Y0246684D01*
X0210000Y0247683D02*
X0216000Y0247683D01*
X0216000Y0248681D02*
X0210000Y0248681D01*
X0210000Y0249680D02*
X0216000Y0249680D01*
X0216000Y0250678D02*
X0210806Y0250678D01*
X0211805Y0251677D02*
X0216000Y0251677D01*
X0216000Y0252675D02*
X0212803Y0252675D01*
X0213802Y0253674D02*
X0216000Y0253674D01*
X0216000Y0254672D02*
X0214800Y0254672D01*
X0215799Y0255671D02*
X0216000Y0255671D01*
X0220000Y0255671D02*
X0285821Y0255671D01*
X0285821Y0256670D02*
X0220797Y0256670D01*
X0221796Y0257668D02*
X0285821Y0257668D01*
X0285821Y0258667D02*
X0222794Y0258667D01*
X0223793Y0259665D02*
X0266207Y0259665D01*
X0265209Y0260664D02*
X0224791Y0260664D01*
X0225790Y0261662D02*
X0264210Y0261662D01*
X0263212Y0262661D02*
X0226788Y0262661D01*
X0227787Y0263659D02*
X0262213Y0263659D01*
X0261215Y0264658D02*
X0228785Y0264658D01*
X0229784Y0265656D02*
X0260216Y0265656D01*
X0260000Y0266655D02*
X0230782Y0266655D01*
X0231781Y0267653D02*
X0260000Y0267653D01*
X0260000Y0268652D02*
X0232779Y0268652D01*
X0233778Y0269650D02*
X0260000Y0269650D01*
X0260000Y0270649D02*
X0252776Y0270649D01*
X0253775Y0271647D02*
X0260000Y0271647D01*
X0260000Y0272646D02*
X0254773Y0272646D01*
X0255000Y0273644D02*
X0260000Y0273644D01*
X0260000Y0274643D02*
X0255000Y0274643D01*
X0255000Y0275641D02*
X0260000Y0275641D01*
X0260000Y0276640D02*
X0255000Y0276640D01*
X0255039Y0277638D02*
X0260000Y0277638D01*
X0260000Y0278637D02*
X0255698Y0278637D01*
X0255900Y0279635D02*
X0259964Y0279635D01*
X0259303Y0280634D02*
X0255752Y0280634D01*
X0255170Y0281632D02*
X0259100Y0281632D01*
X0259246Y0282631D02*
X0226758Y0282631D01*
X0227757Y0283629D02*
X0259827Y0283629D01*
X0260028Y0284628D02*
X0263245Y0284628D01*
X0264173Y0283629D02*
X0264243Y0283629D01*
X0264754Y0282631D02*
X0265242Y0282631D01*
X0264900Y0281632D02*
X0266240Y0281632D01*
X0267239Y0280634D02*
X0264697Y0280634D01*
X0264036Y0279635D02*
X0268237Y0279635D01*
X0269236Y0278637D02*
X0264000Y0278637D01*
X0264000Y0277638D02*
X0270234Y0277638D01*
X0271233Y0276640D02*
X0264000Y0276640D01*
X0264000Y0275641D02*
X0272231Y0275641D01*
X0273230Y0274643D02*
X0264000Y0274643D01*
X0264000Y0273644D02*
X0274228Y0273644D01*
X0273800Y0272646D02*
X0264000Y0272646D01*
X0264000Y0271647D02*
X0273800Y0271647D01*
X0273800Y0270649D02*
X0264000Y0270649D01*
X0264000Y0269650D02*
X0273800Y0269650D01*
X0273800Y0268652D02*
X0264000Y0268652D01*
X0264000Y0267653D02*
X0272983Y0267653D01*
X0270853Y0266655D02*
X0264875Y0266655D01*
X0265873Y0265656D02*
X0270257Y0265656D01*
X0270100Y0264658D02*
X0266872Y0264658D01*
X0267870Y0263659D02*
X0270293Y0263659D01*
X0278000Y0262701D02*
X0278000Y0266701D01*
X0278000Y0270701D01*
X0278886Y0274643D02*
X0280900Y0274643D01*
X0280900Y0275641D02*
X0277888Y0275641D01*
X0276889Y0276640D02*
X0280900Y0276640D01*
X0280900Y0277638D02*
X0275891Y0277638D01*
X0274892Y0278637D02*
X0280900Y0278637D01*
X0280900Y0279635D02*
X0273894Y0279635D01*
X0272895Y0280634D02*
X0280900Y0280634D01*
X0280900Y0281632D02*
X0271897Y0281632D01*
X0270898Y0282631D02*
X0280900Y0282631D01*
X0280900Y0283629D02*
X0269900Y0283629D01*
X0268901Y0284628D02*
X0280900Y0284628D01*
X0280900Y0285626D02*
X0267903Y0285626D01*
X0266904Y0286625D02*
X0280900Y0286625D01*
X0280108Y0287623D02*
X0265906Y0287623D01*
X0264907Y0288622D02*
X0279109Y0288622D01*
X0278111Y0289620D02*
X0232233Y0289620D01*
X0232000Y0288622D02*
X0255820Y0288622D01*
X0255243Y0287623D02*
X0231751Y0287623D01*
X0230752Y0286625D02*
X0255100Y0286625D01*
X0255306Y0285626D02*
X0229754Y0285626D01*
X0228755Y0284628D02*
X0255972Y0284628D01*
X0260680Y0297608D02*
X0234878Y0297608D01*
X0235876Y0298607D02*
X0259521Y0298607D01*
X0259108Y0299605D02*
X0247812Y0299605D01*
X0245188Y0299605D02*
X0236875Y0299605D01*
X0233930Y0302601D02*
X0224350Y0302601D01*
X0224350Y0301603D02*
X0232932Y0301603D01*
X0231933Y0300604D02*
X0223875Y0300604D01*
X0223771Y0300501D02*
X0224050Y0300780D01*
X0224248Y0301122D01*
X0224350Y0301503D01*
X0224350Y0304076D01*
X0221725Y0304076D01*
X0221725Y0304326D01*
X0221475Y0304326D01*
X0221475Y0308201D01*
X0220554Y0308201D01*
X0220354Y0308401D01*
X0216446Y0308401D01*
X0215450Y0307405D01*
X0215450Y0306301D01*
X0215001Y0306301D01*
X0214643Y0306659D01*
X0213577Y0307101D01*
X0212423Y0307101D01*
X0211357Y0306659D01*
X0210541Y0305844D01*
X0210100Y0304778D01*
X0210100Y0303624D01*
X0210541Y0302558D01*
X0211357Y0301742D01*
X0212423Y0301301D01*
X0213577Y0301301D01*
X0214643Y0301742D01*
X0215001Y0302101D01*
X0215450Y0302101D01*
X0215450Y0300997D01*
X0216446Y0300001D01*
X0220354Y0300001D01*
X0220554Y0300201D01*
X0221475Y0300201D01*
X0221475Y0304076D01*
X0221725Y0304076D01*
X0221725Y0300201D01*
X0223047Y0300201D01*
X0223429Y0300303D01*
X0223771Y0300501D01*
X0221725Y0300604D02*
X0221475Y0300604D01*
X0221475Y0301603D02*
X0221725Y0301603D01*
X0221725Y0302601D02*
X0221475Y0302601D01*
X0221475Y0303600D02*
X0221725Y0303600D01*
X0221725Y0304326D02*
X0224350Y0304326D01*
X0224350Y0306898D01*
X0224248Y0307280D01*
X0224050Y0307622D01*
X0223771Y0307901D01*
X0223429Y0308099D01*
X0223047Y0308201D01*
X0221725Y0308201D01*
X0221725Y0304326D01*
X0221725Y0304598D02*
X0221475Y0304598D01*
X0221475Y0305597D02*
X0221725Y0305597D01*
X0221725Y0306595D02*
X0221475Y0306595D01*
X0221475Y0307594D02*
X0221725Y0307594D01*
X0224067Y0307594D02*
X0285821Y0307594D01*
X0285821Y0308592D02*
X0209900Y0308592D01*
X0209887Y0307594D02*
X0215639Y0307594D01*
X0215450Y0306595D02*
X0214707Y0306595D01*
X0211293Y0306595D02*
X0209474Y0306595D01*
X0210439Y0305597D02*
X0208291Y0305597D01*
X0210100Y0304598D02*
X0206367Y0304598D01*
X0205369Y0303600D02*
X0210110Y0303600D01*
X0210524Y0302601D02*
X0204370Y0302601D01*
X0203372Y0301603D02*
X0211695Y0301603D01*
X0214305Y0301603D02*
X0215450Y0301603D01*
X0215843Y0300604D02*
X0202373Y0300604D01*
X0201375Y0299605D02*
X0230935Y0299605D01*
X0229936Y0298607D02*
X0200376Y0298607D01*
X0199378Y0297608D02*
X0228938Y0297608D01*
X0227939Y0296610D02*
X0198379Y0296610D01*
X0196827Y0295611D02*
X0218809Y0295611D01*
X0222191Y0295611D02*
X0226941Y0295611D01*
X0225942Y0294613D02*
X0223054Y0294613D01*
X0223400Y0293614D02*
X0224944Y0293614D01*
X0223945Y0292616D02*
X0223397Y0292616D01*
X0221948Y0290619D02*
X0221845Y0290619D01*
X0224892Y0287623D02*
X0226094Y0287623D01*
X0225891Y0288622D02*
X0227093Y0288622D01*
X0226889Y0289620D02*
X0227767Y0289620D01*
X0225096Y0286625D02*
X0223894Y0286625D01*
X0224097Y0285626D02*
X0222895Y0285626D01*
X0223099Y0284628D02*
X0221897Y0284628D01*
X0222100Y0283629D02*
X0220898Y0283629D01*
X0219900Y0282631D02*
X0222000Y0282631D01*
X0232853Y0290619D02*
X0277112Y0290619D01*
X0276114Y0291617D02*
X0233050Y0291617D01*
X0232922Y0292616D02*
X0275115Y0292616D01*
X0274117Y0293614D02*
X0232400Y0293614D01*
X0231882Y0294613D02*
X0273118Y0294613D01*
X0272119Y0295611D02*
X0232880Y0295611D01*
X0233879Y0296610D02*
X0271121Y0296610D01*
X0270122Y0297608D02*
X0263320Y0297608D01*
X0263701Y0302601D02*
X0285821Y0302601D01*
X0285821Y0301603D02*
X0272068Y0301603D01*
X0273067Y0300604D02*
X0285821Y0300604D01*
X0285821Y0299605D02*
X0274065Y0299605D01*
X0275064Y0298607D02*
X0285821Y0298607D01*
X0285821Y0297608D02*
X0276062Y0297608D01*
X0277061Y0296610D02*
X0285821Y0296610D01*
X0285821Y0295611D02*
X0278059Y0295611D01*
X0279058Y0294613D02*
X0285821Y0294613D01*
X0285821Y0293614D02*
X0280056Y0293614D01*
X0281055Y0292616D02*
X0285821Y0292616D01*
X0285821Y0291617D02*
X0282053Y0291617D01*
X0283052Y0290619D02*
X0285821Y0290619D01*
X0285821Y0289620D02*
X0284050Y0289620D01*
X0285049Y0288622D02*
X0285821Y0288622D01*
X0285821Y0287623D02*
X0285100Y0287623D01*
X0285100Y0286625D02*
X0285821Y0286625D01*
X0285821Y0285626D02*
X0285100Y0285626D01*
X0285100Y0284628D02*
X0285821Y0284628D01*
X0285821Y0283629D02*
X0285100Y0283629D01*
X0285100Y0282631D02*
X0285821Y0282631D01*
X0285821Y0281632D02*
X0285100Y0281632D01*
X0285100Y0280634D02*
X0285821Y0280634D01*
X0285821Y0279635D02*
X0285100Y0279635D01*
X0285100Y0278637D02*
X0285821Y0278637D01*
X0285821Y0277638D02*
X0285100Y0277638D01*
X0285100Y0276640D02*
X0285821Y0276640D01*
X0285821Y0275641D02*
X0285100Y0275641D01*
X0285100Y0274643D02*
X0285821Y0274643D01*
X0285821Y0273644D02*
X0285100Y0273644D01*
X0285100Y0272646D02*
X0285821Y0272646D01*
X0285821Y0271647D02*
X0285100Y0271647D01*
X0285100Y0270649D02*
X0285821Y0270649D01*
X0285821Y0269650D02*
X0285100Y0269650D01*
X0285100Y0268652D02*
X0285821Y0268652D01*
X0285821Y0267653D02*
X0285100Y0267653D01*
X0284424Y0266655D02*
X0285821Y0266655D01*
X0285821Y0265656D02*
X0283425Y0265656D01*
X0282427Y0264658D02*
X0285821Y0264658D01*
X0285821Y0263659D02*
X0282200Y0263659D01*
X0282200Y0262661D02*
X0285821Y0262661D01*
X0285821Y0261662D02*
X0282200Y0261662D01*
X0282117Y0260664D02*
X0285821Y0260664D01*
X0285821Y0259665D02*
X0279793Y0259665D01*
X0285821Y0254672D02*
X0220000Y0254672D01*
X0220000Y0253674D02*
X0285821Y0253674D01*
X0285821Y0252675D02*
X0220000Y0252675D01*
X0220000Y0251677D02*
X0285821Y0251677D01*
X0285821Y0250678D02*
X0280818Y0250678D01*
X0283115Y0249680D02*
X0285821Y0249680D01*
X0285821Y0248681D02*
X0284305Y0248681D01*
X0285400Y0247683D02*
X0285821Y0247683D01*
X0292021Y0240693D02*
X0292536Y0240693D01*
X0292609Y0240565D02*
X0292609Y0240565D01*
X0292021Y0239695D02*
X0293647Y0239695D01*
X0294837Y0238696D02*
X0292021Y0238696D01*
X0292021Y0237698D02*
X0297173Y0237698D01*
X0295149Y0238435D02*
X0295149Y0238435D01*
X0292021Y0236699D02*
X0316609Y0236699D01*
X0315743Y0237698D02*
X0302670Y0237698D01*
X0304694Y0238435D02*
X0304694Y0238435D01*
X0305006Y0238696D02*
X0315371Y0238696D01*
X0315371Y0239695D02*
X0306196Y0239695D01*
X0307307Y0240693D02*
X0315738Y0240693D01*
X0275182Y0250678D02*
X0225124Y0250678D01*
X0225733Y0249680D02*
X0272885Y0249680D01*
X0273227Y0249967D02*
X0273227Y0249967D01*
X0271695Y0248681D02*
X0225900Y0248681D01*
X0225717Y0247683D02*
X0270600Y0247683D01*
X0270688Y0247836D02*
X0270688Y0247836D01*
X0270688Y0247836D01*
X0270023Y0246684D02*
X0225085Y0246684D01*
X0225000Y0245686D02*
X0269447Y0245686D01*
X0269031Y0244965D02*
X0269031Y0244965D01*
X0268982Y0244687D02*
X0225000Y0244687D01*
X0225000Y0243689D02*
X0268806Y0243689D01*
X0268629Y0242690D02*
X0225000Y0242690D01*
X0225837Y0241692D02*
X0225939Y0241692D01*
X0230061Y0241692D02*
X0268457Y0241692D01*
X0268633Y0240693D02*
X0231644Y0240693D01*
X0232605Y0239695D02*
X0268809Y0239695D01*
X0268985Y0238696D02*
X0233018Y0238696D01*
X0233400Y0237698D02*
X0269457Y0237698D01*
X0269031Y0238436D02*
X0269031Y0238436D01*
X0270033Y0236699D02*
X0233400Y0236699D01*
X0233400Y0235701D02*
X0270610Y0235701D01*
X0270688Y0235565D02*
X0270688Y0235565D01*
X0271717Y0234702D02*
X0233017Y0234702D01*
X0221000Y0241692D02*
X0220061Y0241692D01*
X0220000Y0242690D02*
X0221000Y0242690D01*
X0221000Y0243689D02*
X0220000Y0243689D01*
X0220000Y0244687D02*
X0221000Y0244687D01*
X0221000Y0245686D02*
X0220000Y0245686D01*
X0220000Y0246684D02*
X0220915Y0246684D01*
X0220283Y0247683D02*
X0220000Y0247683D01*
X0220000Y0248681D02*
X0220100Y0248681D01*
X0220000Y0249680D02*
X0220267Y0249680D01*
X0220000Y0250678D02*
X0220876Y0250678D01*
X0214356Y0240693D02*
X0211644Y0240693D01*
X0212605Y0239695D02*
X0213395Y0239695D01*
X0204987Y0264658D02*
X0200624Y0264658D01*
X0201139Y0265656D02*
X0204861Y0265656D01*
X0204700Y0266655D02*
X0201300Y0266655D01*
X0201177Y0267653D02*
X0204078Y0267653D01*
X0203079Y0268652D02*
X0200716Y0268652D01*
X0199503Y0269650D02*
X0202081Y0269650D01*
X0189628Y0264658D02*
X0185372Y0264658D01*
X0186370Y0263659D02*
X0188630Y0263659D01*
X0187631Y0262661D02*
X0187369Y0262661D01*
X0224350Y0303600D02*
X0234929Y0303600D01*
X0244796Y0304598D02*
X0224350Y0304598D01*
X0224350Y0305597D02*
X0285821Y0305597D01*
X0285821Y0306595D02*
X0224350Y0306595D01*
X0209563Y0309591D02*
X0285821Y0309591D01*
X0285821Y0310589D02*
X0208713Y0310589D01*
X0248204Y0304598D02*
X0285821Y0304598D01*
X0285821Y0303600D02*
X0261571Y0303600D01*
X0125642Y0255671D02*
X0090838Y0255671D01*
X0220000Y0089918D02*
X0220817Y0089918D01*
X0220242Y0088920D02*
X0220000Y0088920D01*
X0220000Y0087921D02*
X0220100Y0087921D01*
X0220000Y0086923D02*
X0220307Y0086923D01*
X0220000Y0085924D02*
X0220975Y0085924D01*
X0221000Y0084926D02*
X0220000Y0084926D01*
X0220000Y0083927D02*
X0221000Y0083927D01*
X0221000Y0082929D02*
X0220000Y0082929D01*
X0220000Y0081930D02*
X0221000Y0081930D01*
X0221000Y0080932D02*
X0220205Y0080932D01*
X0214296Y0079933D02*
X0211704Y0079933D01*
X0212629Y0078934D02*
X0213371Y0078934D01*
D14*
X0218000Y0076000D03*
X0208000Y0076000D03*
X0198000Y0076000D03*
X0188000Y0076000D03*
X0228000Y0076000D03*
X0399921Y0076000D03*
X0409921Y0076000D03*
X0419921Y0076000D03*
X0429921Y0076000D03*
X0439921Y0076000D03*
X0439921Y0236701D03*
X0429921Y0236701D03*
X0419921Y0236701D03*
X0409921Y0236701D03*
X0399921Y0236701D03*
X0228000Y0236701D03*
X0218000Y0236701D03*
X0208000Y0236701D03*
X0198000Y0236701D03*
X0188000Y0236701D03*
D15*
X0218400Y0304201D03*
X0221600Y0304201D03*
X0221600Y0143500D03*
X0218400Y0143500D03*
X0430321Y0143500D03*
X0433521Y0143500D03*
X0433521Y0304201D03*
X0430321Y0304201D03*
D16*
X0424921Y0304201D03*
X0418921Y0308201D03*
X0407421Y0298201D03*
X0414921Y0286701D03*
X0404921Y0281701D03*
X0424921Y0271701D03*
X0439921Y0275201D03*
X0439921Y0279701D03*
X0432421Y0293201D03*
X0458421Y0302201D03*
X0454921Y0315201D03*
X0447921Y0315201D03*
X0473921Y0300201D03*
X0469921Y0286701D03*
X0473921Y0281701D03*
X0469921Y0276701D03*
X0464921Y0279701D03*
X0461421Y0276701D03*
X0469921Y0261701D03*
X0484921Y0264701D03*
X0481921Y0286701D03*
X0444421Y0247701D03*
X0434921Y0248701D03*
X0424921Y0246701D03*
X0414921Y0246701D03*
X0406921Y0251701D03*
X0414921Y0252701D03*
X0399921Y0255201D03*
X0399421Y0259701D03*
X0374921Y0262701D03*
X0336921Y0258701D03*
X0273000Y0264701D03*
X0258000Y0261701D03*
X0258000Y0276701D03*
X0253000Y0279701D03*
X0249500Y0276701D03*
X0258000Y0286701D03*
X0262000Y0281701D03*
X0270000Y0286701D03*
X0262000Y0300201D03*
X0246500Y0302201D03*
X0243000Y0315201D03*
X0236000Y0315201D03*
X0213000Y0304201D03*
X0207000Y0308201D03*
X0195500Y0298201D03*
X0203000Y0286701D03*
X0193000Y0281701D03*
X0213000Y0271701D03*
X0228000Y0275201D03*
X0228000Y0279701D03*
X0220500Y0293201D03*
X0191500Y0315201D03*
X0184500Y0315201D03*
X0163000Y0262701D03*
X0187500Y0259701D03*
X0188000Y0255201D03*
X0195000Y0251701D03*
X0203000Y0252701D03*
X0203000Y0246701D03*
X0213000Y0246701D03*
X0223000Y0248701D03*
X0232500Y0247701D03*
X0125000Y0258701D03*
X0184500Y0154500D03*
X0191500Y0154500D03*
X0207000Y0147500D03*
X0213000Y0143500D03*
X0220500Y0132500D03*
X0228000Y0119000D03*
X0228000Y0114500D03*
X0213000Y0111000D03*
X0203000Y0126000D03*
X0193000Y0121000D03*
X0195500Y0137500D03*
X0236000Y0154500D03*
X0243000Y0154500D03*
X0246500Y0141500D03*
X0262000Y0139500D03*
X0258000Y0126000D03*
X0262000Y0121000D03*
X0258000Y0116000D03*
X0253000Y0119000D03*
X0249500Y0116000D03*
X0258000Y0101000D03*
X0273000Y0104000D03*
X0270000Y0126000D03*
X0223000Y0088000D03*
X0213000Y0086000D03*
X0203000Y0086000D03*
X0195000Y0091000D03*
X0203000Y0092000D03*
X0188000Y0094500D03*
X0187500Y0099000D03*
X0163000Y0102000D03*
X0125000Y0098000D03*
X0232500Y0087000D03*
X0336921Y0098000D03*
X0374921Y0102000D03*
X0399421Y0099000D03*
X0399921Y0094500D03*
X0406921Y0091000D03*
X0414921Y0092000D03*
X0414921Y0086000D03*
X0424921Y0086000D03*
X0434921Y0088000D03*
X0444421Y0087000D03*
X0469921Y0101000D03*
X0469921Y0116000D03*
X0464921Y0119000D03*
X0461421Y0116000D03*
X0469921Y0126000D03*
X0473921Y0121000D03*
X0481921Y0126000D03*
X0473921Y0139500D03*
X0458421Y0141500D03*
X0454921Y0154500D03*
X0447921Y0154500D03*
X0424921Y0143500D03*
X0418921Y0147500D03*
X0407421Y0137500D03*
X0414921Y0126000D03*
X0404921Y0121000D03*
X0424921Y0111000D03*
X0439921Y0114500D03*
X0439921Y0119000D03*
X0432421Y0132500D03*
X0403421Y0154500D03*
X0396421Y0154500D03*
X0484921Y0104000D03*
X0403421Y0315201D03*
X0396421Y0315201D03*
D17*
X0407421Y0298201D02*
X0408921Y0298201D01*
X0418921Y0308201D01*
X0424921Y0304201D02*
X0430321Y0304201D01*
X0448421Y0302201D02*
X0427921Y0281701D01*
X0414921Y0281701D01*
X0414921Y0271701D01*
X0419921Y0266701D01*
X0419921Y0264701D01*
X0406921Y0251701D01*
X0414921Y0281701D02*
X0414921Y0286701D01*
X0448421Y0302201D02*
X0458421Y0302201D01*
X0471921Y0302201D01*
X0473921Y0300201D01*
X0482421Y0300201D01*
X0494921Y0287701D01*
X0494921Y0268201D01*
X0493421Y0266701D01*
X0489921Y0266701D01*
X0486921Y0266701D01*
X0484921Y0264701D01*
X0418921Y0147500D02*
X0408921Y0137500D01*
X0407421Y0137500D01*
X0414921Y0126000D02*
X0414921Y0121000D01*
X0427921Y0121000D01*
X0448421Y0141500D01*
X0458421Y0141500D01*
X0471921Y0141500D01*
X0473921Y0139500D01*
X0482421Y0139500D01*
X0494921Y0127000D01*
X0494921Y0107500D01*
X0493421Y0106000D01*
X0489921Y0106000D01*
X0486921Y0106000D01*
X0484921Y0104000D01*
X0430321Y0143500D02*
X0424921Y0143500D01*
X0414921Y0121000D02*
X0414921Y0111000D01*
X0419921Y0106000D01*
X0419921Y0104000D01*
X0406921Y0091000D01*
X0283000Y0107500D02*
X0281500Y0106000D01*
X0278000Y0106000D01*
X0275000Y0106000D01*
X0273000Y0104000D01*
X0283000Y0107500D02*
X0283000Y0127000D01*
X0270500Y0139500D01*
X0262000Y0139500D01*
X0260000Y0141500D01*
X0246500Y0141500D01*
X0236500Y0141500D01*
X0216000Y0121000D01*
X0203000Y0121000D01*
X0203000Y0111000D01*
X0208000Y0106000D01*
X0208000Y0104000D01*
X0195000Y0091000D01*
X0203000Y0121000D02*
X0203000Y0126000D01*
X0197000Y0137500D02*
X0207000Y0147500D01*
X0213000Y0143500D02*
X0218400Y0143500D01*
X0197000Y0137500D02*
X0195500Y0137500D01*
X0195000Y0251701D02*
X0208000Y0264701D01*
X0208000Y0266701D01*
X0203000Y0271701D01*
X0203000Y0281701D01*
X0216000Y0281701D01*
X0236500Y0302201D01*
X0246500Y0302201D01*
X0260000Y0302201D01*
X0262000Y0300201D01*
X0270500Y0300201D01*
X0283000Y0287701D01*
X0283000Y0268201D01*
X0281500Y0266701D01*
X0278000Y0266701D01*
X0275000Y0266701D01*
X0273000Y0264701D01*
X0218400Y0304201D02*
X0213000Y0304201D01*
X0207000Y0308201D02*
X0197000Y0298201D01*
X0195500Y0298201D01*
X0203000Y0286701D02*
X0203000Y0281701D01*
D18*
X0198000Y0276701D02*
X0195000Y0276701D01*
X0193000Y0274701D01*
X0193000Y0265201D01*
X0187500Y0259701D01*
X0184500Y0262701D01*
X0163000Y0262701D01*
X0163000Y0282701D02*
X0119500Y0239201D01*
X0106500Y0239201D01*
X0104500Y0246201D02*
X0119000Y0246201D01*
X0161500Y0288701D01*
X0159500Y0293201D02*
X0220500Y0293201D01*
X0230000Y0291701D02*
X0230000Y0288701D01*
X0224000Y0282701D01*
X0224000Y0271201D01*
X0205500Y0252701D01*
X0203000Y0252701D01*
X0208000Y0250701D02*
X0228000Y0270701D01*
X0228000Y0275201D01*
X0248000Y0275201D01*
X0249500Y0276701D01*
X0253000Y0273701D02*
X0253000Y0279701D01*
X0228000Y0279701D01*
X0233000Y0271701D02*
X0251000Y0271701D01*
X0253000Y0273701D01*
X0262000Y0266701D02*
X0262000Y0281701D01*
X0264000Y0286701D02*
X0258000Y0286701D01*
X0264000Y0286701D02*
X0278000Y0272701D01*
X0278000Y0270701D01*
X0278000Y0262701D02*
X0278000Y0260701D01*
X0268000Y0260701D01*
X0262000Y0266701D01*
X0233000Y0271701D02*
X0218000Y0256701D01*
X0218000Y0236701D01*
X0223000Y0241701D02*
X0228000Y0236701D01*
X0223000Y0241701D02*
X0223000Y0248701D01*
X0208000Y0250701D02*
X0208000Y0236701D01*
X0159500Y0293201D02*
X0125000Y0258701D01*
X0183000Y0313701D02*
X0183000Y0316701D01*
X0193000Y0316701D01*
X0193000Y0313701D01*
X0183000Y0313701D01*
X0183000Y0313906D02*
X0193000Y0313906D01*
X0193000Y0314505D02*
X0183000Y0314505D01*
X0183000Y0315103D02*
X0193000Y0315103D01*
X0193000Y0315702D02*
X0183000Y0315702D01*
X0183000Y0316300D02*
X0193000Y0316300D01*
X0234500Y0316300D02*
X0244500Y0316300D01*
X0244500Y0316701D02*
X0234500Y0316701D01*
X0234500Y0313701D01*
X0244500Y0313701D01*
X0244500Y0316701D01*
X0244500Y0315702D02*
X0234500Y0315702D01*
X0234500Y0315103D02*
X0244500Y0315103D01*
X0244500Y0314505D02*
X0234500Y0314505D01*
X0234500Y0313906D02*
X0244500Y0313906D01*
X0316421Y0246201D02*
X0330921Y0246201D01*
X0373421Y0288701D01*
X0371421Y0293201D02*
X0432421Y0293201D01*
X0441921Y0291701D02*
X0441921Y0288701D01*
X0435921Y0282701D01*
X0435921Y0271201D01*
X0417421Y0252701D01*
X0414921Y0252701D01*
X0419921Y0250701D02*
X0439921Y0270701D01*
X0439921Y0275201D01*
X0459921Y0275201D01*
X0461421Y0276701D01*
X0464921Y0273701D02*
X0464921Y0279701D01*
X0439921Y0279701D01*
X0444921Y0271701D02*
X0462921Y0271701D01*
X0464921Y0273701D01*
X0473921Y0266701D02*
X0473921Y0281701D01*
X0475921Y0286701D02*
X0469921Y0286701D01*
X0475921Y0286701D02*
X0489921Y0272701D01*
X0489921Y0270701D01*
X0489921Y0262701D02*
X0489921Y0260701D01*
X0479921Y0260701D01*
X0473921Y0266701D01*
X0444921Y0271701D02*
X0429921Y0256701D01*
X0429921Y0236701D01*
X0434921Y0241701D02*
X0439921Y0236701D01*
X0434921Y0241701D02*
X0434921Y0248701D01*
X0419921Y0250701D02*
X0419921Y0236701D01*
X0399421Y0259701D02*
X0404921Y0265201D01*
X0404921Y0274701D01*
X0406921Y0276701D01*
X0409921Y0276701D01*
X0396421Y0262701D02*
X0399421Y0259701D01*
X0396421Y0262701D02*
X0374921Y0262701D01*
X0374921Y0282701D02*
X0331421Y0239201D01*
X0318421Y0239201D01*
X0336921Y0258701D02*
X0371421Y0293201D01*
X0394921Y0313701D02*
X0394921Y0316701D01*
X0404921Y0316701D01*
X0404921Y0313701D01*
X0394921Y0313701D01*
X0394921Y0313906D02*
X0404921Y0313906D01*
X0404921Y0314505D02*
X0394921Y0314505D01*
X0394921Y0315103D02*
X0404921Y0315103D01*
X0404921Y0315702D02*
X0394921Y0315702D01*
X0394921Y0316300D02*
X0404921Y0316300D01*
X0446421Y0316300D02*
X0456421Y0316300D01*
X0456421Y0316701D02*
X0446421Y0316701D01*
X0446421Y0313701D01*
X0456421Y0313701D01*
X0456421Y0316701D01*
X0456421Y0315702D02*
X0446421Y0315702D01*
X0446421Y0315103D02*
X0456421Y0315103D01*
X0456421Y0314505D02*
X0446421Y0314505D01*
X0446421Y0313906D02*
X0456421Y0313906D01*
X0456421Y0156000D02*
X0446421Y0156000D01*
X0446421Y0153000D01*
X0456421Y0153000D01*
X0456421Y0156000D01*
X0456421Y0155899D02*
X0446421Y0155899D01*
X0446421Y0155301D02*
X0456421Y0155301D01*
X0456421Y0154702D02*
X0446421Y0154702D01*
X0446421Y0154104D02*
X0456421Y0154104D01*
X0456421Y0153505D02*
X0446421Y0153505D01*
X0441921Y0131000D02*
X0441921Y0128000D01*
X0435921Y0122000D01*
X0435921Y0110500D01*
X0417421Y0092000D01*
X0414921Y0092000D01*
X0419921Y0090000D02*
X0439921Y0110000D01*
X0439921Y0114500D01*
X0459921Y0114500D01*
X0461421Y0116000D01*
X0464921Y0113000D02*
X0464921Y0119000D01*
X0439921Y0119000D01*
X0444921Y0111000D02*
X0462921Y0111000D01*
X0464921Y0113000D01*
X0473921Y0106000D02*
X0473921Y0121000D01*
X0475921Y0126000D02*
X0469921Y0126000D01*
X0475921Y0126000D02*
X0489921Y0112000D01*
X0489921Y0110000D01*
X0489921Y0102000D02*
X0489921Y0100000D01*
X0479921Y0100000D01*
X0473921Y0106000D01*
X0444921Y0111000D02*
X0429921Y0096000D01*
X0429921Y0076000D01*
X0434921Y0081000D02*
X0439921Y0076000D01*
X0434921Y0081000D02*
X0434921Y0088000D01*
X0419921Y0090000D02*
X0419921Y0076000D01*
X0399421Y0099000D02*
X0404921Y0104500D01*
X0404921Y0114000D01*
X0406921Y0116000D01*
X0409921Y0116000D01*
X0396421Y0102000D02*
X0399421Y0099000D01*
X0396421Y0102000D02*
X0374921Y0102000D01*
X0374921Y0122000D02*
X0331421Y0078500D01*
X0318421Y0078500D01*
X0316421Y0085500D02*
X0330921Y0085500D01*
X0373421Y0128000D01*
X0371421Y0132500D02*
X0432421Y0132500D01*
X0404921Y0153000D02*
X0394921Y0153000D01*
X0394921Y0156000D01*
X0404921Y0156000D01*
X0404921Y0153000D01*
X0404921Y0153505D02*
X0394921Y0153505D01*
X0394921Y0154104D02*
X0404921Y0154104D01*
X0404921Y0154702D02*
X0394921Y0154702D01*
X0394921Y0155301D02*
X0404921Y0155301D01*
X0404921Y0155899D02*
X0394921Y0155899D01*
X0371421Y0132500D02*
X0336921Y0098000D01*
X0278000Y0100000D02*
X0278000Y0102000D01*
X0278000Y0100000D02*
X0268000Y0100000D01*
X0262000Y0106000D01*
X0262000Y0121000D01*
X0264000Y0126000D02*
X0258000Y0126000D01*
X0264000Y0126000D02*
X0278000Y0112000D01*
X0278000Y0110000D01*
X0253000Y0113000D02*
X0253000Y0119000D01*
X0228000Y0119000D01*
X0228000Y0114500D02*
X0228000Y0110000D01*
X0208000Y0090000D01*
X0208000Y0076000D01*
X0218000Y0076000D02*
X0218000Y0096000D01*
X0233000Y0111000D01*
X0251000Y0111000D01*
X0253000Y0113000D01*
X0249500Y0116000D02*
X0248000Y0114500D01*
X0228000Y0114500D01*
X0224000Y0110500D02*
X0224000Y0122000D01*
X0230000Y0128000D01*
X0230000Y0131000D01*
X0220500Y0132500D02*
X0159500Y0132500D01*
X0125000Y0098000D01*
X0119000Y0085500D02*
X0161500Y0128000D01*
X0163000Y0122000D02*
X0119500Y0078500D01*
X0106500Y0078500D01*
X0104500Y0085500D02*
X0119000Y0085500D01*
X0163000Y0102000D02*
X0184500Y0102000D01*
X0187500Y0099000D01*
X0193000Y0104500D01*
X0193000Y0114000D01*
X0195000Y0116000D01*
X0198000Y0116000D01*
X0203000Y0092000D02*
X0205500Y0092000D01*
X0224000Y0110500D01*
X0223000Y0088000D02*
X0223000Y0081000D01*
X0228000Y0076000D01*
X0234500Y0153000D02*
X0234500Y0156000D01*
X0244500Y0156000D01*
X0244500Y0153000D01*
X0234500Y0153000D01*
X0234500Y0153505D02*
X0244500Y0153505D01*
X0244500Y0154104D02*
X0234500Y0154104D01*
X0234500Y0154702D02*
X0244500Y0154702D01*
X0244500Y0155301D02*
X0234500Y0155301D01*
X0234500Y0155899D02*
X0244500Y0155899D01*
X0193000Y0155899D02*
X0183000Y0155899D01*
X0183000Y0156000D02*
X0193000Y0156000D01*
X0193000Y0153000D01*
X0183000Y0153000D01*
X0183000Y0156000D01*
X0183000Y0155301D02*
X0193000Y0155301D01*
X0193000Y0154702D02*
X0183000Y0154702D01*
X0183000Y0154104D02*
X0193000Y0154104D01*
X0193000Y0153505D02*
X0183000Y0153505D01*
D19*
X0161500Y0128000D03*
X0163000Y0122000D03*
X0106500Y0078500D03*
X0104500Y0085500D03*
X0230000Y0131000D03*
X0316421Y0085500D03*
X0318421Y0078500D03*
X0374921Y0122000D03*
X0373421Y0128000D03*
X0441921Y0131000D03*
X0318421Y0239201D03*
X0316421Y0246201D03*
X0374921Y0282701D03*
X0373421Y0288701D03*
X0441921Y0291701D03*
X0230000Y0291701D03*
X0163000Y0282701D03*
X0161500Y0288701D03*
X0104500Y0246201D03*
X0106500Y0239201D03*
M02*
