G75*
%MOIN*%
%OFA0B0*%
%FSLAX25Y25*%
%IPPOS*%
%LPD*%
%AMOC8*
5,1,8,0,0,1.08239X$1,22.5*
%
%ADD10C,0.00800*%
%ADD11C,0.01500*%
%ADD12C,0.01100*%
%ADD13C,0.01000*%
%ADD14C,0.00000*%
D10*
X0037750Y0028750D02*
X0037750Y0187451D01*
X0247671Y0187451D01*
X0247671Y0028750D01*
X0037750Y0028750D01*
X0249671Y0028750D02*
X0249671Y0187451D01*
X0459593Y0187451D01*
X0459593Y0028750D01*
X0249671Y0028750D01*
X0249671Y0189451D02*
X0249671Y0348152D01*
X0459593Y0348152D01*
X0459593Y0189451D01*
X0249671Y0189451D01*
X0247671Y0189451D02*
X0247671Y0348152D01*
X0037750Y0348152D01*
X0037750Y0189451D01*
X0247671Y0189451D01*
D11*
X0010750Y0188451D02*
X0511592Y0188451D01*
X0511192Y0108751D02*
X0006250Y0108751D01*
X0010750Y0027750D02*
X0511592Y0027750D01*
X0460592Y0001750D02*
X0460592Y0400152D01*
X0511592Y0349152D02*
X0010750Y0349152D01*
X0036750Y0400152D02*
X0036750Y0001750D01*
X0248671Y0001750D02*
X0248671Y0400152D01*
X0001750Y0269451D02*
X0506592Y0269451D01*
D12*
X0520120Y0270138D02*
X0522089Y0266202D01*
X0524057Y0270138D01*
X0526566Y0269154D02*
X0530503Y0269154D01*
X0533011Y0269154D02*
X0533996Y0270138D01*
X0536948Y0270138D01*
X0535964Y0268170D02*
X0533996Y0268170D01*
X0533011Y0269154D01*
X0533011Y0266202D02*
X0535964Y0266202D01*
X0536948Y0267186D01*
X0535964Y0268170D01*
X0539457Y0269154D02*
X0539457Y0267186D01*
X0540441Y0266202D01*
X0543394Y0266202D01*
X0545902Y0267186D02*
X0546887Y0266202D01*
X0548855Y0266202D01*
X0549839Y0267186D01*
X0549839Y0269154D01*
X0548855Y0270138D01*
X0546887Y0270138D01*
X0545902Y0269154D01*
X0545902Y0267186D01*
X0543394Y0270138D02*
X0540441Y0270138D01*
X0539457Y0269154D01*
X0552348Y0268170D02*
X0554316Y0270138D01*
X0555300Y0270138D01*
X0557719Y0269154D02*
X0558703Y0270138D01*
X0560672Y0270138D01*
X0561656Y0269154D01*
X0561656Y0268170D01*
X0557719Y0268170D01*
X0557719Y0267186D02*
X0557719Y0269154D01*
X0557719Y0267186D02*
X0558703Y0266202D01*
X0560672Y0266202D01*
X0552348Y0266202D02*
X0552348Y0270138D01*
X0552348Y0346202D02*
X0552348Y0350138D01*
X0552348Y0348170D02*
X0554316Y0350138D01*
X0555300Y0350138D01*
X0557719Y0349154D02*
X0558703Y0350138D01*
X0560672Y0350138D01*
X0561656Y0349154D01*
X0561656Y0348170D01*
X0557719Y0348170D01*
X0557719Y0347186D02*
X0557719Y0349154D01*
X0557719Y0347186D02*
X0558703Y0346202D01*
X0560672Y0346202D01*
X0549839Y0347186D02*
X0549839Y0349154D01*
X0548855Y0350138D01*
X0546887Y0350138D01*
X0545902Y0349154D01*
X0545902Y0347186D01*
X0546887Y0346202D01*
X0548855Y0346202D01*
X0549839Y0347186D01*
X0543394Y0346202D02*
X0540441Y0346202D01*
X0539457Y0347186D01*
X0539457Y0349154D01*
X0540441Y0350138D01*
X0543394Y0350138D01*
X0536948Y0350138D02*
X0533996Y0350138D01*
X0533011Y0349154D01*
X0533996Y0348170D01*
X0535964Y0348170D01*
X0536948Y0347186D01*
X0535964Y0346202D01*
X0533011Y0346202D01*
X0530503Y0349154D02*
X0526566Y0349154D01*
X0524057Y0350138D02*
X0522089Y0346202D01*
X0520120Y0350138D01*
X0479672Y0406202D02*
X0477703Y0406202D01*
X0476719Y0407186D01*
X0476719Y0409154D01*
X0477703Y0410138D01*
X0479672Y0410138D01*
X0480656Y0409154D01*
X0480656Y0408170D01*
X0476719Y0408170D01*
X0474300Y0410138D02*
X0473316Y0410138D01*
X0471348Y0408170D01*
X0471348Y0406202D02*
X0471348Y0410138D01*
X0468839Y0409154D02*
X0468839Y0407186D01*
X0467855Y0406202D01*
X0465887Y0406202D01*
X0464902Y0407186D01*
X0464902Y0409154D01*
X0465887Y0410138D01*
X0467855Y0410138D01*
X0468839Y0409154D01*
X0462394Y0410138D02*
X0459441Y0410138D01*
X0458457Y0409154D01*
X0458457Y0407186D01*
X0459441Y0406202D01*
X0462394Y0406202D01*
X0455948Y0407186D02*
X0454964Y0408170D01*
X0452996Y0408170D01*
X0452011Y0409154D01*
X0452996Y0410138D01*
X0455948Y0410138D01*
X0455948Y0407186D02*
X0454964Y0406202D01*
X0452011Y0406202D01*
X0449503Y0409154D02*
X0445566Y0409154D01*
X0443057Y0410138D02*
X0441089Y0406202D01*
X0439120Y0410138D01*
X0268735Y0409154D02*
X0268735Y0408170D01*
X0264798Y0408170D01*
X0264798Y0409154D02*
X0265782Y0410138D01*
X0267750Y0410138D01*
X0268735Y0409154D01*
X0267750Y0406202D02*
X0265782Y0406202D01*
X0264798Y0407186D01*
X0264798Y0409154D01*
X0262379Y0410138D02*
X0261395Y0410138D01*
X0259427Y0408170D01*
X0259427Y0406202D02*
X0259427Y0410138D01*
X0256918Y0409154D02*
X0255934Y0410138D01*
X0253965Y0410138D01*
X0252981Y0409154D01*
X0252981Y0407186D01*
X0253965Y0406202D01*
X0255934Y0406202D01*
X0256918Y0407186D01*
X0256918Y0409154D01*
X0250472Y0410138D02*
X0247520Y0410138D01*
X0246536Y0409154D01*
X0246536Y0407186D01*
X0247520Y0406202D01*
X0250472Y0406202D01*
X0244027Y0407186D02*
X0243043Y0408170D01*
X0241074Y0408170D01*
X0240090Y0409154D01*
X0241074Y0410138D01*
X0244027Y0410138D01*
X0244027Y0407186D02*
X0243043Y0406202D01*
X0240090Y0406202D01*
X0237581Y0409154D02*
X0233645Y0409154D01*
X0231136Y0410138D02*
X0229167Y0406202D01*
X0227199Y0410138D01*
X0056813Y0409154D02*
X0056813Y0408170D01*
X0052877Y0408170D01*
X0052877Y0409154D02*
X0053861Y0410138D01*
X0055829Y0410138D01*
X0056813Y0409154D01*
X0055829Y0406202D02*
X0053861Y0406202D01*
X0052877Y0407186D01*
X0052877Y0409154D01*
X0050458Y0410138D02*
X0049474Y0410138D01*
X0047505Y0408170D01*
X0047505Y0406202D02*
X0047505Y0410138D01*
X0044997Y0409154D02*
X0044997Y0407186D01*
X0044012Y0406202D01*
X0042044Y0406202D01*
X0041060Y0407186D01*
X0041060Y0409154D01*
X0042044Y0410138D01*
X0044012Y0410138D01*
X0044997Y0409154D01*
X0038551Y0410138D02*
X0035599Y0410138D01*
X0034614Y0409154D01*
X0034614Y0407186D01*
X0035599Y0406202D01*
X0038551Y0406202D01*
X0032106Y0407186D02*
X0031121Y0408170D01*
X0029153Y0408170D01*
X0028169Y0409154D01*
X0029153Y0410138D01*
X0032106Y0410138D01*
X0032106Y0407186D02*
X0031121Y0406202D01*
X0028169Y0406202D01*
X0025660Y0409154D02*
X0021723Y0409154D01*
X0019215Y0410138D02*
X0017246Y0406202D01*
X0015278Y0410138D01*
X0520120Y0189437D02*
X0522089Y0185501D01*
X0524057Y0189437D01*
X0526566Y0188453D02*
X0530503Y0188453D01*
X0533011Y0188453D02*
X0533996Y0189437D01*
X0536948Y0189437D01*
X0535964Y0187469D02*
X0533996Y0187469D01*
X0533011Y0188453D01*
X0533011Y0185501D02*
X0535964Y0185501D01*
X0536948Y0186485D01*
X0535964Y0187469D01*
X0539457Y0186485D02*
X0540441Y0185501D01*
X0543394Y0185501D01*
X0545902Y0186485D02*
X0545902Y0188453D01*
X0546887Y0189437D01*
X0548855Y0189437D01*
X0549839Y0188453D01*
X0549839Y0186485D01*
X0548855Y0185501D01*
X0546887Y0185501D01*
X0545902Y0186485D01*
X0543394Y0189437D02*
X0540441Y0189437D01*
X0539457Y0188453D01*
X0539457Y0186485D01*
X0552348Y0187469D02*
X0554316Y0189437D01*
X0555300Y0189437D01*
X0557719Y0188453D02*
X0557719Y0186485D01*
X0558703Y0185501D01*
X0560672Y0185501D01*
X0561656Y0187469D02*
X0557719Y0187469D01*
X0557719Y0188453D02*
X0558703Y0189437D01*
X0560672Y0189437D01*
X0561656Y0188453D01*
X0561656Y0187469D01*
X0552348Y0185501D02*
X0552348Y0189437D01*
X0552348Y0110138D02*
X0552348Y0106202D01*
X0552348Y0108170D02*
X0554316Y0110138D01*
X0555300Y0110138D01*
X0557719Y0109154D02*
X0557719Y0107186D01*
X0558703Y0106202D01*
X0560672Y0106202D01*
X0561656Y0108170D02*
X0557719Y0108170D01*
X0557719Y0109154D02*
X0558703Y0110138D01*
X0560672Y0110138D01*
X0561656Y0109154D01*
X0561656Y0108170D01*
X0549839Y0107186D02*
X0549839Y0109154D01*
X0548855Y0110138D01*
X0546887Y0110138D01*
X0545902Y0109154D01*
X0545902Y0107186D01*
X0546887Y0106202D01*
X0548855Y0106202D01*
X0549839Y0107186D01*
X0543394Y0106202D02*
X0540441Y0106202D01*
X0539457Y0107186D01*
X0539457Y0109154D01*
X0540441Y0110138D01*
X0543394Y0110138D01*
X0536948Y0110138D02*
X0533996Y0110138D01*
X0533011Y0109154D01*
X0533996Y0108170D01*
X0535964Y0108170D01*
X0536948Y0107186D01*
X0535964Y0106202D01*
X0533011Y0106202D01*
X0530503Y0109154D02*
X0526566Y0109154D01*
X0524057Y0110138D02*
X0522089Y0106202D01*
X0520120Y0110138D01*
X0520120Y0028737D02*
X0522089Y0024800D01*
X0524057Y0028737D01*
X0526566Y0027753D02*
X0530503Y0027753D01*
X0533011Y0027753D02*
X0533996Y0028737D01*
X0536948Y0028737D01*
X0535964Y0026768D02*
X0533996Y0026768D01*
X0533011Y0027753D01*
X0533011Y0024800D02*
X0535964Y0024800D01*
X0536948Y0025784D01*
X0535964Y0026768D01*
X0539457Y0025784D02*
X0540441Y0024800D01*
X0543394Y0024800D01*
X0545902Y0025784D02*
X0546887Y0024800D01*
X0548855Y0024800D01*
X0549839Y0025784D01*
X0549839Y0027753D01*
X0548855Y0028737D01*
X0546887Y0028737D01*
X0545902Y0027753D01*
X0545902Y0025784D01*
X0543394Y0028737D02*
X0540441Y0028737D01*
X0539457Y0027753D01*
X0539457Y0025784D01*
X0552348Y0024800D02*
X0552348Y0028737D01*
X0554316Y0028737D02*
X0555300Y0028737D01*
X0554316Y0028737D02*
X0552348Y0026768D01*
X0557719Y0026768D02*
X0561656Y0026768D01*
X0561656Y0027753D01*
X0560672Y0028737D01*
X0558703Y0028737D01*
X0557719Y0027753D01*
X0557719Y0025784D01*
X0558703Y0024800D01*
X0560672Y0024800D01*
D13*
X0010750Y0026750D02*
X0010750Y0001750D01*
X0486592Y0001750D01*
X0486592Y0026750D01*
X0010750Y0026750D01*
X0010750Y0028750D02*
X0010750Y0348152D01*
X0035750Y0348152D01*
X0035750Y0028750D01*
X0010750Y0028750D01*
X0010750Y0350152D02*
X0010750Y0375152D01*
X0486592Y0375152D01*
X0486592Y0350152D01*
X0010750Y0350152D01*
X0461592Y0348152D02*
X0461592Y0028750D01*
X0486592Y0028750D01*
X0486592Y0348152D01*
X0461592Y0348152D01*
D14*
X0443171Y0279451D02*
X0443173Y0279612D01*
X0443179Y0279772D01*
X0443189Y0279933D01*
X0443203Y0280093D01*
X0443221Y0280253D01*
X0443242Y0280412D01*
X0443268Y0280571D01*
X0443298Y0280729D01*
X0443331Y0280886D01*
X0443369Y0281043D01*
X0443410Y0281198D01*
X0443455Y0281352D01*
X0443504Y0281505D01*
X0443557Y0281657D01*
X0443613Y0281808D01*
X0443674Y0281957D01*
X0443737Y0282105D01*
X0443805Y0282251D01*
X0443876Y0282395D01*
X0443950Y0282537D01*
X0444028Y0282678D01*
X0444110Y0282816D01*
X0444195Y0282953D01*
X0444283Y0283087D01*
X0444375Y0283219D01*
X0444470Y0283349D01*
X0444568Y0283477D01*
X0444669Y0283602D01*
X0444773Y0283724D01*
X0444880Y0283844D01*
X0444990Y0283961D01*
X0445103Y0284076D01*
X0445219Y0284187D01*
X0445338Y0284296D01*
X0445459Y0284401D01*
X0445583Y0284504D01*
X0445709Y0284604D01*
X0445837Y0284700D01*
X0445968Y0284793D01*
X0446102Y0284883D01*
X0446237Y0284970D01*
X0446375Y0285053D01*
X0446514Y0285133D01*
X0446656Y0285209D01*
X0446799Y0285282D01*
X0446944Y0285351D01*
X0447091Y0285417D01*
X0447239Y0285479D01*
X0447389Y0285537D01*
X0447540Y0285592D01*
X0447693Y0285643D01*
X0447847Y0285690D01*
X0448002Y0285733D01*
X0448158Y0285772D01*
X0448314Y0285808D01*
X0448472Y0285839D01*
X0448630Y0285867D01*
X0448789Y0285891D01*
X0448949Y0285911D01*
X0449109Y0285927D01*
X0449269Y0285939D01*
X0449430Y0285947D01*
X0449591Y0285951D01*
X0449751Y0285951D01*
X0449912Y0285947D01*
X0450073Y0285939D01*
X0450233Y0285927D01*
X0450393Y0285911D01*
X0450553Y0285891D01*
X0450712Y0285867D01*
X0450870Y0285839D01*
X0451028Y0285808D01*
X0451184Y0285772D01*
X0451340Y0285733D01*
X0451495Y0285690D01*
X0451649Y0285643D01*
X0451802Y0285592D01*
X0451953Y0285537D01*
X0452103Y0285479D01*
X0452251Y0285417D01*
X0452398Y0285351D01*
X0452543Y0285282D01*
X0452686Y0285209D01*
X0452828Y0285133D01*
X0452967Y0285053D01*
X0453105Y0284970D01*
X0453240Y0284883D01*
X0453374Y0284793D01*
X0453505Y0284700D01*
X0453633Y0284604D01*
X0453759Y0284504D01*
X0453883Y0284401D01*
X0454004Y0284296D01*
X0454123Y0284187D01*
X0454239Y0284076D01*
X0454352Y0283961D01*
X0454462Y0283844D01*
X0454569Y0283724D01*
X0454673Y0283602D01*
X0454774Y0283477D01*
X0454872Y0283349D01*
X0454967Y0283219D01*
X0455059Y0283087D01*
X0455147Y0282953D01*
X0455232Y0282816D01*
X0455314Y0282678D01*
X0455392Y0282537D01*
X0455466Y0282395D01*
X0455537Y0282251D01*
X0455605Y0282105D01*
X0455668Y0281957D01*
X0455729Y0281808D01*
X0455785Y0281657D01*
X0455838Y0281505D01*
X0455887Y0281352D01*
X0455932Y0281198D01*
X0455973Y0281043D01*
X0456011Y0280886D01*
X0456044Y0280729D01*
X0456074Y0280571D01*
X0456100Y0280412D01*
X0456121Y0280253D01*
X0456139Y0280093D01*
X0456153Y0279933D01*
X0456163Y0279772D01*
X0456169Y0279612D01*
X0456171Y0279451D01*
X0456169Y0279290D01*
X0456163Y0279130D01*
X0456153Y0278969D01*
X0456139Y0278809D01*
X0456121Y0278649D01*
X0456100Y0278490D01*
X0456074Y0278331D01*
X0456044Y0278173D01*
X0456011Y0278016D01*
X0455973Y0277859D01*
X0455932Y0277704D01*
X0455887Y0277550D01*
X0455838Y0277397D01*
X0455785Y0277245D01*
X0455729Y0277094D01*
X0455668Y0276945D01*
X0455605Y0276797D01*
X0455537Y0276651D01*
X0455466Y0276507D01*
X0455392Y0276365D01*
X0455314Y0276224D01*
X0455232Y0276086D01*
X0455147Y0275949D01*
X0455059Y0275815D01*
X0454967Y0275683D01*
X0454872Y0275553D01*
X0454774Y0275425D01*
X0454673Y0275300D01*
X0454569Y0275178D01*
X0454462Y0275058D01*
X0454352Y0274941D01*
X0454239Y0274826D01*
X0454123Y0274715D01*
X0454004Y0274606D01*
X0453883Y0274501D01*
X0453759Y0274398D01*
X0453633Y0274298D01*
X0453505Y0274202D01*
X0453374Y0274109D01*
X0453240Y0274019D01*
X0453105Y0273932D01*
X0452967Y0273849D01*
X0452828Y0273769D01*
X0452686Y0273693D01*
X0452543Y0273620D01*
X0452398Y0273551D01*
X0452251Y0273485D01*
X0452103Y0273423D01*
X0451953Y0273365D01*
X0451802Y0273310D01*
X0451649Y0273259D01*
X0451495Y0273212D01*
X0451340Y0273169D01*
X0451184Y0273130D01*
X0451028Y0273094D01*
X0450870Y0273063D01*
X0450712Y0273035D01*
X0450553Y0273011D01*
X0450393Y0272991D01*
X0450233Y0272975D01*
X0450073Y0272963D01*
X0449912Y0272955D01*
X0449751Y0272951D01*
X0449591Y0272951D01*
X0449430Y0272955D01*
X0449269Y0272963D01*
X0449109Y0272975D01*
X0448949Y0272991D01*
X0448789Y0273011D01*
X0448630Y0273035D01*
X0448472Y0273063D01*
X0448314Y0273094D01*
X0448158Y0273130D01*
X0448002Y0273169D01*
X0447847Y0273212D01*
X0447693Y0273259D01*
X0447540Y0273310D01*
X0447389Y0273365D01*
X0447239Y0273423D01*
X0447091Y0273485D01*
X0446944Y0273551D01*
X0446799Y0273620D01*
X0446656Y0273693D01*
X0446514Y0273769D01*
X0446375Y0273849D01*
X0446237Y0273932D01*
X0446102Y0274019D01*
X0445968Y0274109D01*
X0445837Y0274202D01*
X0445709Y0274298D01*
X0445583Y0274398D01*
X0445459Y0274501D01*
X0445338Y0274606D01*
X0445219Y0274715D01*
X0445103Y0274826D01*
X0444990Y0274941D01*
X0444880Y0275058D01*
X0444773Y0275178D01*
X0444669Y0275300D01*
X0444568Y0275425D01*
X0444470Y0275553D01*
X0444375Y0275683D01*
X0444283Y0275815D01*
X0444195Y0275949D01*
X0444110Y0276086D01*
X0444028Y0276224D01*
X0443950Y0276365D01*
X0443876Y0276507D01*
X0443805Y0276651D01*
X0443737Y0276797D01*
X0443674Y0276945D01*
X0443613Y0277094D01*
X0443557Y0277245D01*
X0443504Y0277397D01*
X0443455Y0277550D01*
X0443410Y0277704D01*
X0443369Y0277859D01*
X0443331Y0278016D01*
X0443298Y0278173D01*
X0443268Y0278331D01*
X0443242Y0278490D01*
X0443221Y0278649D01*
X0443203Y0278809D01*
X0443189Y0278969D01*
X0443179Y0279130D01*
X0443173Y0279290D01*
X0443171Y0279451D01*
X0443171Y0199451D02*
X0443173Y0199612D01*
X0443179Y0199772D01*
X0443189Y0199933D01*
X0443203Y0200093D01*
X0443221Y0200253D01*
X0443242Y0200412D01*
X0443268Y0200571D01*
X0443298Y0200729D01*
X0443331Y0200886D01*
X0443369Y0201043D01*
X0443410Y0201198D01*
X0443455Y0201352D01*
X0443504Y0201505D01*
X0443557Y0201657D01*
X0443613Y0201808D01*
X0443674Y0201957D01*
X0443737Y0202105D01*
X0443805Y0202251D01*
X0443876Y0202395D01*
X0443950Y0202537D01*
X0444028Y0202678D01*
X0444110Y0202816D01*
X0444195Y0202953D01*
X0444283Y0203087D01*
X0444375Y0203219D01*
X0444470Y0203349D01*
X0444568Y0203477D01*
X0444669Y0203602D01*
X0444773Y0203724D01*
X0444880Y0203844D01*
X0444990Y0203961D01*
X0445103Y0204076D01*
X0445219Y0204187D01*
X0445338Y0204296D01*
X0445459Y0204401D01*
X0445583Y0204504D01*
X0445709Y0204604D01*
X0445837Y0204700D01*
X0445968Y0204793D01*
X0446102Y0204883D01*
X0446237Y0204970D01*
X0446375Y0205053D01*
X0446514Y0205133D01*
X0446656Y0205209D01*
X0446799Y0205282D01*
X0446944Y0205351D01*
X0447091Y0205417D01*
X0447239Y0205479D01*
X0447389Y0205537D01*
X0447540Y0205592D01*
X0447693Y0205643D01*
X0447847Y0205690D01*
X0448002Y0205733D01*
X0448158Y0205772D01*
X0448314Y0205808D01*
X0448472Y0205839D01*
X0448630Y0205867D01*
X0448789Y0205891D01*
X0448949Y0205911D01*
X0449109Y0205927D01*
X0449269Y0205939D01*
X0449430Y0205947D01*
X0449591Y0205951D01*
X0449751Y0205951D01*
X0449912Y0205947D01*
X0450073Y0205939D01*
X0450233Y0205927D01*
X0450393Y0205911D01*
X0450553Y0205891D01*
X0450712Y0205867D01*
X0450870Y0205839D01*
X0451028Y0205808D01*
X0451184Y0205772D01*
X0451340Y0205733D01*
X0451495Y0205690D01*
X0451649Y0205643D01*
X0451802Y0205592D01*
X0451953Y0205537D01*
X0452103Y0205479D01*
X0452251Y0205417D01*
X0452398Y0205351D01*
X0452543Y0205282D01*
X0452686Y0205209D01*
X0452828Y0205133D01*
X0452967Y0205053D01*
X0453105Y0204970D01*
X0453240Y0204883D01*
X0453374Y0204793D01*
X0453505Y0204700D01*
X0453633Y0204604D01*
X0453759Y0204504D01*
X0453883Y0204401D01*
X0454004Y0204296D01*
X0454123Y0204187D01*
X0454239Y0204076D01*
X0454352Y0203961D01*
X0454462Y0203844D01*
X0454569Y0203724D01*
X0454673Y0203602D01*
X0454774Y0203477D01*
X0454872Y0203349D01*
X0454967Y0203219D01*
X0455059Y0203087D01*
X0455147Y0202953D01*
X0455232Y0202816D01*
X0455314Y0202678D01*
X0455392Y0202537D01*
X0455466Y0202395D01*
X0455537Y0202251D01*
X0455605Y0202105D01*
X0455668Y0201957D01*
X0455729Y0201808D01*
X0455785Y0201657D01*
X0455838Y0201505D01*
X0455887Y0201352D01*
X0455932Y0201198D01*
X0455973Y0201043D01*
X0456011Y0200886D01*
X0456044Y0200729D01*
X0456074Y0200571D01*
X0456100Y0200412D01*
X0456121Y0200253D01*
X0456139Y0200093D01*
X0456153Y0199933D01*
X0456163Y0199772D01*
X0456169Y0199612D01*
X0456171Y0199451D01*
X0456169Y0199290D01*
X0456163Y0199130D01*
X0456153Y0198969D01*
X0456139Y0198809D01*
X0456121Y0198649D01*
X0456100Y0198490D01*
X0456074Y0198331D01*
X0456044Y0198173D01*
X0456011Y0198016D01*
X0455973Y0197859D01*
X0455932Y0197704D01*
X0455887Y0197550D01*
X0455838Y0197397D01*
X0455785Y0197245D01*
X0455729Y0197094D01*
X0455668Y0196945D01*
X0455605Y0196797D01*
X0455537Y0196651D01*
X0455466Y0196507D01*
X0455392Y0196365D01*
X0455314Y0196224D01*
X0455232Y0196086D01*
X0455147Y0195949D01*
X0455059Y0195815D01*
X0454967Y0195683D01*
X0454872Y0195553D01*
X0454774Y0195425D01*
X0454673Y0195300D01*
X0454569Y0195178D01*
X0454462Y0195058D01*
X0454352Y0194941D01*
X0454239Y0194826D01*
X0454123Y0194715D01*
X0454004Y0194606D01*
X0453883Y0194501D01*
X0453759Y0194398D01*
X0453633Y0194298D01*
X0453505Y0194202D01*
X0453374Y0194109D01*
X0453240Y0194019D01*
X0453105Y0193932D01*
X0452967Y0193849D01*
X0452828Y0193769D01*
X0452686Y0193693D01*
X0452543Y0193620D01*
X0452398Y0193551D01*
X0452251Y0193485D01*
X0452103Y0193423D01*
X0451953Y0193365D01*
X0451802Y0193310D01*
X0451649Y0193259D01*
X0451495Y0193212D01*
X0451340Y0193169D01*
X0451184Y0193130D01*
X0451028Y0193094D01*
X0450870Y0193063D01*
X0450712Y0193035D01*
X0450553Y0193011D01*
X0450393Y0192991D01*
X0450233Y0192975D01*
X0450073Y0192963D01*
X0449912Y0192955D01*
X0449751Y0192951D01*
X0449591Y0192951D01*
X0449430Y0192955D01*
X0449269Y0192963D01*
X0449109Y0192975D01*
X0448949Y0192991D01*
X0448789Y0193011D01*
X0448630Y0193035D01*
X0448472Y0193063D01*
X0448314Y0193094D01*
X0448158Y0193130D01*
X0448002Y0193169D01*
X0447847Y0193212D01*
X0447693Y0193259D01*
X0447540Y0193310D01*
X0447389Y0193365D01*
X0447239Y0193423D01*
X0447091Y0193485D01*
X0446944Y0193551D01*
X0446799Y0193620D01*
X0446656Y0193693D01*
X0446514Y0193769D01*
X0446375Y0193849D01*
X0446237Y0193932D01*
X0446102Y0194019D01*
X0445968Y0194109D01*
X0445837Y0194202D01*
X0445709Y0194298D01*
X0445583Y0194398D01*
X0445459Y0194501D01*
X0445338Y0194606D01*
X0445219Y0194715D01*
X0445103Y0194826D01*
X0444990Y0194941D01*
X0444880Y0195058D01*
X0444773Y0195178D01*
X0444669Y0195300D01*
X0444568Y0195425D01*
X0444470Y0195553D01*
X0444375Y0195683D01*
X0444283Y0195815D01*
X0444195Y0195949D01*
X0444110Y0196086D01*
X0444028Y0196224D01*
X0443950Y0196365D01*
X0443876Y0196507D01*
X0443805Y0196651D01*
X0443737Y0196797D01*
X0443674Y0196945D01*
X0443613Y0197094D01*
X0443557Y0197245D01*
X0443504Y0197397D01*
X0443455Y0197550D01*
X0443410Y0197704D01*
X0443369Y0197859D01*
X0443331Y0198016D01*
X0443298Y0198173D01*
X0443268Y0198331D01*
X0443242Y0198490D01*
X0443221Y0198649D01*
X0443203Y0198809D01*
X0443189Y0198969D01*
X0443179Y0199130D01*
X0443173Y0199290D01*
X0443171Y0199451D01*
X0443171Y0118750D02*
X0443173Y0118911D01*
X0443179Y0119071D01*
X0443189Y0119232D01*
X0443203Y0119392D01*
X0443221Y0119552D01*
X0443242Y0119711D01*
X0443268Y0119870D01*
X0443298Y0120028D01*
X0443331Y0120185D01*
X0443369Y0120342D01*
X0443410Y0120497D01*
X0443455Y0120651D01*
X0443504Y0120804D01*
X0443557Y0120956D01*
X0443613Y0121107D01*
X0443674Y0121256D01*
X0443737Y0121404D01*
X0443805Y0121550D01*
X0443876Y0121694D01*
X0443950Y0121836D01*
X0444028Y0121977D01*
X0444110Y0122115D01*
X0444195Y0122252D01*
X0444283Y0122386D01*
X0444375Y0122518D01*
X0444470Y0122648D01*
X0444568Y0122776D01*
X0444669Y0122901D01*
X0444773Y0123023D01*
X0444880Y0123143D01*
X0444990Y0123260D01*
X0445103Y0123375D01*
X0445219Y0123486D01*
X0445338Y0123595D01*
X0445459Y0123700D01*
X0445583Y0123803D01*
X0445709Y0123903D01*
X0445837Y0123999D01*
X0445968Y0124092D01*
X0446102Y0124182D01*
X0446237Y0124269D01*
X0446375Y0124352D01*
X0446514Y0124432D01*
X0446656Y0124508D01*
X0446799Y0124581D01*
X0446944Y0124650D01*
X0447091Y0124716D01*
X0447239Y0124778D01*
X0447389Y0124836D01*
X0447540Y0124891D01*
X0447693Y0124942D01*
X0447847Y0124989D01*
X0448002Y0125032D01*
X0448158Y0125071D01*
X0448314Y0125107D01*
X0448472Y0125138D01*
X0448630Y0125166D01*
X0448789Y0125190D01*
X0448949Y0125210D01*
X0449109Y0125226D01*
X0449269Y0125238D01*
X0449430Y0125246D01*
X0449591Y0125250D01*
X0449751Y0125250D01*
X0449912Y0125246D01*
X0450073Y0125238D01*
X0450233Y0125226D01*
X0450393Y0125210D01*
X0450553Y0125190D01*
X0450712Y0125166D01*
X0450870Y0125138D01*
X0451028Y0125107D01*
X0451184Y0125071D01*
X0451340Y0125032D01*
X0451495Y0124989D01*
X0451649Y0124942D01*
X0451802Y0124891D01*
X0451953Y0124836D01*
X0452103Y0124778D01*
X0452251Y0124716D01*
X0452398Y0124650D01*
X0452543Y0124581D01*
X0452686Y0124508D01*
X0452828Y0124432D01*
X0452967Y0124352D01*
X0453105Y0124269D01*
X0453240Y0124182D01*
X0453374Y0124092D01*
X0453505Y0123999D01*
X0453633Y0123903D01*
X0453759Y0123803D01*
X0453883Y0123700D01*
X0454004Y0123595D01*
X0454123Y0123486D01*
X0454239Y0123375D01*
X0454352Y0123260D01*
X0454462Y0123143D01*
X0454569Y0123023D01*
X0454673Y0122901D01*
X0454774Y0122776D01*
X0454872Y0122648D01*
X0454967Y0122518D01*
X0455059Y0122386D01*
X0455147Y0122252D01*
X0455232Y0122115D01*
X0455314Y0121977D01*
X0455392Y0121836D01*
X0455466Y0121694D01*
X0455537Y0121550D01*
X0455605Y0121404D01*
X0455668Y0121256D01*
X0455729Y0121107D01*
X0455785Y0120956D01*
X0455838Y0120804D01*
X0455887Y0120651D01*
X0455932Y0120497D01*
X0455973Y0120342D01*
X0456011Y0120185D01*
X0456044Y0120028D01*
X0456074Y0119870D01*
X0456100Y0119711D01*
X0456121Y0119552D01*
X0456139Y0119392D01*
X0456153Y0119232D01*
X0456163Y0119071D01*
X0456169Y0118911D01*
X0456171Y0118750D01*
X0456169Y0118589D01*
X0456163Y0118429D01*
X0456153Y0118268D01*
X0456139Y0118108D01*
X0456121Y0117948D01*
X0456100Y0117789D01*
X0456074Y0117630D01*
X0456044Y0117472D01*
X0456011Y0117315D01*
X0455973Y0117158D01*
X0455932Y0117003D01*
X0455887Y0116849D01*
X0455838Y0116696D01*
X0455785Y0116544D01*
X0455729Y0116393D01*
X0455668Y0116244D01*
X0455605Y0116096D01*
X0455537Y0115950D01*
X0455466Y0115806D01*
X0455392Y0115664D01*
X0455314Y0115523D01*
X0455232Y0115385D01*
X0455147Y0115248D01*
X0455059Y0115114D01*
X0454967Y0114982D01*
X0454872Y0114852D01*
X0454774Y0114724D01*
X0454673Y0114599D01*
X0454569Y0114477D01*
X0454462Y0114357D01*
X0454352Y0114240D01*
X0454239Y0114125D01*
X0454123Y0114014D01*
X0454004Y0113905D01*
X0453883Y0113800D01*
X0453759Y0113697D01*
X0453633Y0113597D01*
X0453505Y0113501D01*
X0453374Y0113408D01*
X0453240Y0113318D01*
X0453105Y0113231D01*
X0452967Y0113148D01*
X0452828Y0113068D01*
X0452686Y0112992D01*
X0452543Y0112919D01*
X0452398Y0112850D01*
X0452251Y0112784D01*
X0452103Y0112722D01*
X0451953Y0112664D01*
X0451802Y0112609D01*
X0451649Y0112558D01*
X0451495Y0112511D01*
X0451340Y0112468D01*
X0451184Y0112429D01*
X0451028Y0112393D01*
X0450870Y0112362D01*
X0450712Y0112334D01*
X0450553Y0112310D01*
X0450393Y0112290D01*
X0450233Y0112274D01*
X0450073Y0112262D01*
X0449912Y0112254D01*
X0449751Y0112250D01*
X0449591Y0112250D01*
X0449430Y0112254D01*
X0449269Y0112262D01*
X0449109Y0112274D01*
X0448949Y0112290D01*
X0448789Y0112310D01*
X0448630Y0112334D01*
X0448472Y0112362D01*
X0448314Y0112393D01*
X0448158Y0112429D01*
X0448002Y0112468D01*
X0447847Y0112511D01*
X0447693Y0112558D01*
X0447540Y0112609D01*
X0447389Y0112664D01*
X0447239Y0112722D01*
X0447091Y0112784D01*
X0446944Y0112850D01*
X0446799Y0112919D01*
X0446656Y0112992D01*
X0446514Y0113068D01*
X0446375Y0113148D01*
X0446237Y0113231D01*
X0446102Y0113318D01*
X0445968Y0113408D01*
X0445837Y0113501D01*
X0445709Y0113597D01*
X0445583Y0113697D01*
X0445459Y0113800D01*
X0445338Y0113905D01*
X0445219Y0114014D01*
X0445103Y0114125D01*
X0444990Y0114240D01*
X0444880Y0114357D01*
X0444773Y0114477D01*
X0444669Y0114599D01*
X0444568Y0114724D01*
X0444470Y0114852D01*
X0444375Y0114982D01*
X0444283Y0115114D01*
X0444195Y0115248D01*
X0444110Y0115385D01*
X0444028Y0115523D01*
X0443950Y0115664D01*
X0443876Y0115806D01*
X0443805Y0115950D01*
X0443737Y0116096D01*
X0443674Y0116244D01*
X0443613Y0116393D01*
X0443557Y0116544D01*
X0443504Y0116696D01*
X0443455Y0116849D01*
X0443410Y0117003D01*
X0443369Y0117158D01*
X0443331Y0117315D01*
X0443298Y0117472D01*
X0443268Y0117630D01*
X0443242Y0117789D01*
X0443221Y0117948D01*
X0443203Y0118108D01*
X0443189Y0118268D01*
X0443179Y0118429D01*
X0443173Y0118589D01*
X0443171Y0118750D01*
X0443171Y0038750D02*
X0443173Y0038911D01*
X0443179Y0039071D01*
X0443189Y0039232D01*
X0443203Y0039392D01*
X0443221Y0039552D01*
X0443242Y0039711D01*
X0443268Y0039870D01*
X0443298Y0040028D01*
X0443331Y0040185D01*
X0443369Y0040342D01*
X0443410Y0040497D01*
X0443455Y0040651D01*
X0443504Y0040804D01*
X0443557Y0040956D01*
X0443613Y0041107D01*
X0443674Y0041256D01*
X0443737Y0041404D01*
X0443805Y0041550D01*
X0443876Y0041694D01*
X0443950Y0041836D01*
X0444028Y0041977D01*
X0444110Y0042115D01*
X0444195Y0042252D01*
X0444283Y0042386D01*
X0444375Y0042518D01*
X0444470Y0042648D01*
X0444568Y0042776D01*
X0444669Y0042901D01*
X0444773Y0043023D01*
X0444880Y0043143D01*
X0444990Y0043260D01*
X0445103Y0043375D01*
X0445219Y0043486D01*
X0445338Y0043595D01*
X0445459Y0043700D01*
X0445583Y0043803D01*
X0445709Y0043903D01*
X0445837Y0043999D01*
X0445968Y0044092D01*
X0446102Y0044182D01*
X0446237Y0044269D01*
X0446375Y0044352D01*
X0446514Y0044432D01*
X0446656Y0044508D01*
X0446799Y0044581D01*
X0446944Y0044650D01*
X0447091Y0044716D01*
X0447239Y0044778D01*
X0447389Y0044836D01*
X0447540Y0044891D01*
X0447693Y0044942D01*
X0447847Y0044989D01*
X0448002Y0045032D01*
X0448158Y0045071D01*
X0448314Y0045107D01*
X0448472Y0045138D01*
X0448630Y0045166D01*
X0448789Y0045190D01*
X0448949Y0045210D01*
X0449109Y0045226D01*
X0449269Y0045238D01*
X0449430Y0045246D01*
X0449591Y0045250D01*
X0449751Y0045250D01*
X0449912Y0045246D01*
X0450073Y0045238D01*
X0450233Y0045226D01*
X0450393Y0045210D01*
X0450553Y0045190D01*
X0450712Y0045166D01*
X0450870Y0045138D01*
X0451028Y0045107D01*
X0451184Y0045071D01*
X0451340Y0045032D01*
X0451495Y0044989D01*
X0451649Y0044942D01*
X0451802Y0044891D01*
X0451953Y0044836D01*
X0452103Y0044778D01*
X0452251Y0044716D01*
X0452398Y0044650D01*
X0452543Y0044581D01*
X0452686Y0044508D01*
X0452828Y0044432D01*
X0452967Y0044352D01*
X0453105Y0044269D01*
X0453240Y0044182D01*
X0453374Y0044092D01*
X0453505Y0043999D01*
X0453633Y0043903D01*
X0453759Y0043803D01*
X0453883Y0043700D01*
X0454004Y0043595D01*
X0454123Y0043486D01*
X0454239Y0043375D01*
X0454352Y0043260D01*
X0454462Y0043143D01*
X0454569Y0043023D01*
X0454673Y0042901D01*
X0454774Y0042776D01*
X0454872Y0042648D01*
X0454967Y0042518D01*
X0455059Y0042386D01*
X0455147Y0042252D01*
X0455232Y0042115D01*
X0455314Y0041977D01*
X0455392Y0041836D01*
X0455466Y0041694D01*
X0455537Y0041550D01*
X0455605Y0041404D01*
X0455668Y0041256D01*
X0455729Y0041107D01*
X0455785Y0040956D01*
X0455838Y0040804D01*
X0455887Y0040651D01*
X0455932Y0040497D01*
X0455973Y0040342D01*
X0456011Y0040185D01*
X0456044Y0040028D01*
X0456074Y0039870D01*
X0456100Y0039711D01*
X0456121Y0039552D01*
X0456139Y0039392D01*
X0456153Y0039232D01*
X0456163Y0039071D01*
X0456169Y0038911D01*
X0456171Y0038750D01*
X0456169Y0038589D01*
X0456163Y0038429D01*
X0456153Y0038268D01*
X0456139Y0038108D01*
X0456121Y0037948D01*
X0456100Y0037789D01*
X0456074Y0037630D01*
X0456044Y0037472D01*
X0456011Y0037315D01*
X0455973Y0037158D01*
X0455932Y0037003D01*
X0455887Y0036849D01*
X0455838Y0036696D01*
X0455785Y0036544D01*
X0455729Y0036393D01*
X0455668Y0036244D01*
X0455605Y0036096D01*
X0455537Y0035950D01*
X0455466Y0035806D01*
X0455392Y0035664D01*
X0455314Y0035523D01*
X0455232Y0035385D01*
X0455147Y0035248D01*
X0455059Y0035114D01*
X0454967Y0034982D01*
X0454872Y0034852D01*
X0454774Y0034724D01*
X0454673Y0034599D01*
X0454569Y0034477D01*
X0454462Y0034357D01*
X0454352Y0034240D01*
X0454239Y0034125D01*
X0454123Y0034014D01*
X0454004Y0033905D01*
X0453883Y0033800D01*
X0453759Y0033697D01*
X0453633Y0033597D01*
X0453505Y0033501D01*
X0453374Y0033408D01*
X0453240Y0033318D01*
X0453105Y0033231D01*
X0452967Y0033148D01*
X0452828Y0033068D01*
X0452686Y0032992D01*
X0452543Y0032919D01*
X0452398Y0032850D01*
X0452251Y0032784D01*
X0452103Y0032722D01*
X0451953Y0032664D01*
X0451802Y0032609D01*
X0451649Y0032558D01*
X0451495Y0032511D01*
X0451340Y0032468D01*
X0451184Y0032429D01*
X0451028Y0032393D01*
X0450870Y0032362D01*
X0450712Y0032334D01*
X0450553Y0032310D01*
X0450393Y0032290D01*
X0450233Y0032274D01*
X0450073Y0032262D01*
X0449912Y0032254D01*
X0449751Y0032250D01*
X0449591Y0032250D01*
X0449430Y0032254D01*
X0449269Y0032262D01*
X0449109Y0032274D01*
X0448949Y0032290D01*
X0448789Y0032310D01*
X0448630Y0032334D01*
X0448472Y0032362D01*
X0448314Y0032393D01*
X0448158Y0032429D01*
X0448002Y0032468D01*
X0447847Y0032511D01*
X0447693Y0032558D01*
X0447540Y0032609D01*
X0447389Y0032664D01*
X0447239Y0032722D01*
X0447091Y0032784D01*
X0446944Y0032850D01*
X0446799Y0032919D01*
X0446656Y0032992D01*
X0446514Y0033068D01*
X0446375Y0033148D01*
X0446237Y0033231D01*
X0446102Y0033318D01*
X0445968Y0033408D01*
X0445837Y0033501D01*
X0445709Y0033597D01*
X0445583Y0033697D01*
X0445459Y0033800D01*
X0445338Y0033905D01*
X0445219Y0034014D01*
X0445103Y0034125D01*
X0444990Y0034240D01*
X0444880Y0034357D01*
X0444773Y0034477D01*
X0444669Y0034599D01*
X0444568Y0034724D01*
X0444470Y0034852D01*
X0444375Y0034982D01*
X0444283Y0035114D01*
X0444195Y0035248D01*
X0444110Y0035385D01*
X0444028Y0035523D01*
X0443950Y0035664D01*
X0443876Y0035806D01*
X0443805Y0035950D01*
X0443737Y0036096D01*
X0443674Y0036244D01*
X0443613Y0036393D01*
X0443557Y0036544D01*
X0443504Y0036696D01*
X0443455Y0036849D01*
X0443410Y0037003D01*
X0443369Y0037158D01*
X0443331Y0037315D01*
X0443298Y0037472D01*
X0443268Y0037630D01*
X0443242Y0037789D01*
X0443221Y0037948D01*
X0443203Y0038108D01*
X0443189Y0038268D01*
X0443179Y0038429D01*
X0443173Y0038589D01*
X0443171Y0038750D01*
X0253171Y0043750D02*
X0253173Y0043911D01*
X0253179Y0044071D01*
X0253189Y0044232D01*
X0253203Y0044392D01*
X0253221Y0044552D01*
X0253242Y0044711D01*
X0253268Y0044870D01*
X0253298Y0045028D01*
X0253331Y0045185D01*
X0253369Y0045342D01*
X0253410Y0045497D01*
X0253455Y0045651D01*
X0253504Y0045804D01*
X0253557Y0045956D01*
X0253613Y0046107D01*
X0253674Y0046256D01*
X0253737Y0046404D01*
X0253805Y0046550D01*
X0253876Y0046694D01*
X0253950Y0046836D01*
X0254028Y0046977D01*
X0254110Y0047115D01*
X0254195Y0047252D01*
X0254283Y0047386D01*
X0254375Y0047518D01*
X0254470Y0047648D01*
X0254568Y0047776D01*
X0254669Y0047901D01*
X0254773Y0048023D01*
X0254880Y0048143D01*
X0254990Y0048260D01*
X0255103Y0048375D01*
X0255219Y0048486D01*
X0255338Y0048595D01*
X0255459Y0048700D01*
X0255583Y0048803D01*
X0255709Y0048903D01*
X0255837Y0048999D01*
X0255968Y0049092D01*
X0256102Y0049182D01*
X0256237Y0049269D01*
X0256375Y0049352D01*
X0256514Y0049432D01*
X0256656Y0049508D01*
X0256799Y0049581D01*
X0256944Y0049650D01*
X0257091Y0049716D01*
X0257239Y0049778D01*
X0257389Y0049836D01*
X0257540Y0049891D01*
X0257693Y0049942D01*
X0257847Y0049989D01*
X0258002Y0050032D01*
X0258158Y0050071D01*
X0258314Y0050107D01*
X0258472Y0050138D01*
X0258630Y0050166D01*
X0258789Y0050190D01*
X0258949Y0050210D01*
X0259109Y0050226D01*
X0259269Y0050238D01*
X0259430Y0050246D01*
X0259591Y0050250D01*
X0259751Y0050250D01*
X0259912Y0050246D01*
X0260073Y0050238D01*
X0260233Y0050226D01*
X0260393Y0050210D01*
X0260553Y0050190D01*
X0260712Y0050166D01*
X0260870Y0050138D01*
X0261028Y0050107D01*
X0261184Y0050071D01*
X0261340Y0050032D01*
X0261495Y0049989D01*
X0261649Y0049942D01*
X0261802Y0049891D01*
X0261953Y0049836D01*
X0262103Y0049778D01*
X0262251Y0049716D01*
X0262398Y0049650D01*
X0262543Y0049581D01*
X0262686Y0049508D01*
X0262828Y0049432D01*
X0262967Y0049352D01*
X0263105Y0049269D01*
X0263240Y0049182D01*
X0263374Y0049092D01*
X0263505Y0048999D01*
X0263633Y0048903D01*
X0263759Y0048803D01*
X0263883Y0048700D01*
X0264004Y0048595D01*
X0264123Y0048486D01*
X0264239Y0048375D01*
X0264352Y0048260D01*
X0264462Y0048143D01*
X0264569Y0048023D01*
X0264673Y0047901D01*
X0264774Y0047776D01*
X0264872Y0047648D01*
X0264967Y0047518D01*
X0265059Y0047386D01*
X0265147Y0047252D01*
X0265232Y0047115D01*
X0265314Y0046977D01*
X0265392Y0046836D01*
X0265466Y0046694D01*
X0265537Y0046550D01*
X0265605Y0046404D01*
X0265668Y0046256D01*
X0265729Y0046107D01*
X0265785Y0045956D01*
X0265838Y0045804D01*
X0265887Y0045651D01*
X0265932Y0045497D01*
X0265973Y0045342D01*
X0266011Y0045185D01*
X0266044Y0045028D01*
X0266074Y0044870D01*
X0266100Y0044711D01*
X0266121Y0044552D01*
X0266139Y0044392D01*
X0266153Y0044232D01*
X0266163Y0044071D01*
X0266169Y0043911D01*
X0266171Y0043750D01*
X0266169Y0043589D01*
X0266163Y0043429D01*
X0266153Y0043268D01*
X0266139Y0043108D01*
X0266121Y0042948D01*
X0266100Y0042789D01*
X0266074Y0042630D01*
X0266044Y0042472D01*
X0266011Y0042315D01*
X0265973Y0042158D01*
X0265932Y0042003D01*
X0265887Y0041849D01*
X0265838Y0041696D01*
X0265785Y0041544D01*
X0265729Y0041393D01*
X0265668Y0041244D01*
X0265605Y0041096D01*
X0265537Y0040950D01*
X0265466Y0040806D01*
X0265392Y0040664D01*
X0265314Y0040523D01*
X0265232Y0040385D01*
X0265147Y0040248D01*
X0265059Y0040114D01*
X0264967Y0039982D01*
X0264872Y0039852D01*
X0264774Y0039724D01*
X0264673Y0039599D01*
X0264569Y0039477D01*
X0264462Y0039357D01*
X0264352Y0039240D01*
X0264239Y0039125D01*
X0264123Y0039014D01*
X0264004Y0038905D01*
X0263883Y0038800D01*
X0263759Y0038697D01*
X0263633Y0038597D01*
X0263505Y0038501D01*
X0263374Y0038408D01*
X0263240Y0038318D01*
X0263105Y0038231D01*
X0262967Y0038148D01*
X0262828Y0038068D01*
X0262686Y0037992D01*
X0262543Y0037919D01*
X0262398Y0037850D01*
X0262251Y0037784D01*
X0262103Y0037722D01*
X0261953Y0037664D01*
X0261802Y0037609D01*
X0261649Y0037558D01*
X0261495Y0037511D01*
X0261340Y0037468D01*
X0261184Y0037429D01*
X0261028Y0037393D01*
X0260870Y0037362D01*
X0260712Y0037334D01*
X0260553Y0037310D01*
X0260393Y0037290D01*
X0260233Y0037274D01*
X0260073Y0037262D01*
X0259912Y0037254D01*
X0259751Y0037250D01*
X0259591Y0037250D01*
X0259430Y0037254D01*
X0259269Y0037262D01*
X0259109Y0037274D01*
X0258949Y0037290D01*
X0258789Y0037310D01*
X0258630Y0037334D01*
X0258472Y0037362D01*
X0258314Y0037393D01*
X0258158Y0037429D01*
X0258002Y0037468D01*
X0257847Y0037511D01*
X0257693Y0037558D01*
X0257540Y0037609D01*
X0257389Y0037664D01*
X0257239Y0037722D01*
X0257091Y0037784D01*
X0256944Y0037850D01*
X0256799Y0037919D01*
X0256656Y0037992D01*
X0256514Y0038068D01*
X0256375Y0038148D01*
X0256237Y0038231D01*
X0256102Y0038318D01*
X0255968Y0038408D01*
X0255837Y0038501D01*
X0255709Y0038597D01*
X0255583Y0038697D01*
X0255459Y0038800D01*
X0255338Y0038905D01*
X0255219Y0039014D01*
X0255103Y0039125D01*
X0254990Y0039240D01*
X0254880Y0039357D01*
X0254773Y0039477D01*
X0254669Y0039599D01*
X0254568Y0039724D01*
X0254470Y0039852D01*
X0254375Y0039982D01*
X0254283Y0040114D01*
X0254195Y0040248D01*
X0254110Y0040385D01*
X0254028Y0040523D01*
X0253950Y0040664D01*
X0253876Y0040806D01*
X0253805Y0040950D01*
X0253737Y0041096D01*
X0253674Y0041244D01*
X0253613Y0041393D01*
X0253557Y0041544D01*
X0253504Y0041696D01*
X0253455Y0041849D01*
X0253410Y0042003D01*
X0253369Y0042158D01*
X0253331Y0042315D01*
X0253298Y0042472D01*
X0253268Y0042630D01*
X0253242Y0042789D01*
X0253221Y0042948D01*
X0253203Y0043108D01*
X0253189Y0043268D01*
X0253179Y0043429D01*
X0253173Y0043589D01*
X0253171Y0043750D01*
X0231250Y0038750D02*
X0231252Y0038911D01*
X0231258Y0039071D01*
X0231268Y0039232D01*
X0231282Y0039392D01*
X0231300Y0039552D01*
X0231321Y0039711D01*
X0231347Y0039870D01*
X0231377Y0040028D01*
X0231410Y0040185D01*
X0231448Y0040342D01*
X0231489Y0040497D01*
X0231534Y0040651D01*
X0231583Y0040804D01*
X0231636Y0040956D01*
X0231692Y0041107D01*
X0231753Y0041256D01*
X0231816Y0041404D01*
X0231884Y0041550D01*
X0231955Y0041694D01*
X0232029Y0041836D01*
X0232107Y0041977D01*
X0232189Y0042115D01*
X0232274Y0042252D01*
X0232362Y0042386D01*
X0232454Y0042518D01*
X0232549Y0042648D01*
X0232647Y0042776D01*
X0232748Y0042901D01*
X0232852Y0043023D01*
X0232959Y0043143D01*
X0233069Y0043260D01*
X0233182Y0043375D01*
X0233298Y0043486D01*
X0233417Y0043595D01*
X0233538Y0043700D01*
X0233662Y0043803D01*
X0233788Y0043903D01*
X0233916Y0043999D01*
X0234047Y0044092D01*
X0234181Y0044182D01*
X0234316Y0044269D01*
X0234454Y0044352D01*
X0234593Y0044432D01*
X0234735Y0044508D01*
X0234878Y0044581D01*
X0235023Y0044650D01*
X0235170Y0044716D01*
X0235318Y0044778D01*
X0235468Y0044836D01*
X0235619Y0044891D01*
X0235772Y0044942D01*
X0235926Y0044989D01*
X0236081Y0045032D01*
X0236237Y0045071D01*
X0236393Y0045107D01*
X0236551Y0045138D01*
X0236709Y0045166D01*
X0236868Y0045190D01*
X0237028Y0045210D01*
X0237188Y0045226D01*
X0237348Y0045238D01*
X0237509Y0045246D01*
X0237670Y0045250D01*
X0237830Y0045250D01*
X0237991Y0045246D01*
X0238152Y0045238D01*
X0238312Y0045226D01*
X0238472Y0045210D01*
X0238632Y0045190D01*
X0238791Y0045166D01*
X0238949Y0045138D01*
X0239107Y0045107D01*
X0239263Y0045071D01*
X0239419Y0045032D01*
X0239574Y0044989D01*
X0239728Y0044942D01*
X0239881Y0044891D01*
X0240032Y0044836D01*
X0240182Y0044778D01*
X0240330Y0044716D01*
X0240477Y0044650D01*
X0240622Y0044581D01*
X0240765Y0044508D01*
X0240907Y0044432D01*
X0241046Y0044352D01*
X0241184Y0044269D01*
X0241319Y0044182D01*
X0241453Y0044092D01*
X0241584Y0043999D01*
X0241712Y0043903D01*
X0241838Y0043803D01*
X0241962Y0043700D01*
X0242083Y0043595D01*
X0242202Y0043486D01*
X0242318Y0043375D01*
X0242431Y0043260D01*
X0242541Y0043143D01*
X0242648Y0043023D01*
X0242752Y0042901D01*
X0242853Y0042776D01*
X0242951Y0042648D01*
X0243046Y0042518D01*
X0243138Y0042386D01*
X0243226Y0042252D01*
X0243311Y0042115D01*
X0243393Y0041977D01*
X0243471Y0041836D01*
X0243545Y0041694D01*
X0243616Y0041550D01*
X0243684Y0041404D01*
X0243747Y0041256D01*
X0243808Y0041107D01*
X0243864Y0040956D01*
X0243917Y0040804D01*
X0243966Y0040651D01*
X0244011Y0040497D01*
X0244052Y0040342D01*
X0244090Y0040185D01*
X0244123Y0040028D01*
X0244153Y0039870D01*
X0244179Y0039711D01*
X0244200Y0039552D01*
X0244218Y0039392D01*
X0244232Y0039232D01*
X0244242Y0039071D01*
X0244248Y0038911D01*
X0244250Y0038750D01*
X0244248Y0038589D01*
X0244242Y0038429D01*
X0244232Y0038268D01*
X0244218Y0038108D01*
X0244200Y0037948D01*
X0244179Y0037789D01*
X0244153Y0037630D01*
X0244123Y0037472D01*
X0244090Y0037315D01*
X0244052Y0037158D01*
X0244011Y0037003D01*
X0243966Y0036849D01*
X0243917Y0036696D01*
X0243864Y0036544D01*
X0243808Y0036393D01*
X0243747Y0036244D01*
X0243684Y0036096D01*
X0243616Y0035950D01*
X0243545Y0035806D01*
X0243471Y0035664D01*
X0243393Y0035523D01*
X0243311Y0035385D01*
X0243226Y0035248D01*
X0243138Y0035114D01*
X0243046Y0034982D01*
X0242951Y0034852D01*
X0242853Y0034724D01*
X0242752Y0034599D01*
X0242648Y0034477D01*
X0242541Y0034357D01*
X0242431Y0034240D01*
X0242318Y0034125D01*
X0242202Y0034014D01*
X0242083Y0033905D01*
X0241962Y0033800D01*
X0241838Y0033697D01*
X0241712Y0033597D01*
X0241584Y0033501D01*
X0241453Y0033408D01*
X0241319Y0033318D01*
X0241184Y0033231D01*
X0241046Y0033148D01*
X0240907Y0033068D01*
X0240765Y0032992D01*
X0240622Y0032919D01*
X0240477Y0032850D01*
X0240330Y0032784D01*
X0240182Y0032722D01*
X0240032Y0032664D01*
X0239881Y0032609D01*
X0239728Y0032558D01*
X0239574Y0032511D01*
X0239419Y0032468D01*
X0239263Y0032429D01*
X0239107Y0032393D01*
X0238949Y0032362D01*
X0238791Y0032334D01*
X0238632Y0032310D01*
X0238472Y0032290D01*
X0238312Y0032274D01*
X0238152Y0032262D01*
X0237991Y0032254D01*
X0237830Y0032250D01*
X0237670Y0032250D01*
X0237509Y0032254D01*
X0237348Y0032262D01*
X0237188Y0032274D01*
X0237028Y0032290D01*
X0236868Y0032310D01*
X0236709Y0032334D01*
X0236551Y0032362D01*
X0236393Y0032393D01*
X0236237Y0032429D01*
X0236081Y0032468D01*
X0235926Y0032511D01*
X0235772Y0032558D01*
X0235619Y0032609D01*
X0235468Y0032664D01*
X0235318Y0032722D01*
X0235170Y0032784D01*
X0235023Y0032850D01*
X0234878Y0032919D01*
X0234735Y0032992D01*
X0234593Y0033068D01*
X0234454Y0033148D01*
X0234316Y0033231D01*
X0234181Y0033318D01*
X0234047Y0033408D01*
X0233916Y0033501D01*
X0233788Y0033597D01*
X0233662Y0033697D01*
X0233538Y0033800D01*
X0233417Y0033905D01*
X0233298Y0034014D01*
X0233182Y0034125D01*
X0233069Y0034240D01*
X0232959Y0034357D01*
X0232852Y0034477D01*
X0232748Y0034599D01*
X0232647Y0034724D01*
X0232549Y0034852D01*
X0232454Y0034982D01*
X0232362Y0035114D01*
X0232274Y0035248D01*
X0232189Y0035385D01*
X0232107Y0035523D01*
X0232029Y0035664D01*
X0231955Y0035806D01*
X0231884Y0035950D01*
X0231816Y0036096D01*
X0231753Y0036244D01*
X0231692Y0036393D01*
X0231636Y0036544D01*
X0231583Y0036696D01*
X0231534Y0036849D01*
X0231489Y0037003D01*
X0231448Y0037158D01*
X0231410Y0037315D01*
X0231377Y0037472D01*
X0231347Y0037630D01*
X0231321Y0037789D01*
X0231300Y0037948D01*
X0231282Y0038108D01*
X0231268Y0038268D01*
X0231258Y0038429D01*
X0231252Y0038589D01*
X0231250Y0038750D01*
X0231250Y0118750D02*
X0231252Y0118911D01*
X0231258Y0119071D01*
X0231268Y0119232D01*
X0231282Y0119392D01*
X0231300Y0119552D01*
X0231321Y0119711D01*
X0231347Y0119870D01*
X0231377Y0120028D01*
X0231410Y0120185D01*
X0231448Y0120342D01*
X0231489Y0120497D01*
X0231534Y0120651D01*
X0231583Y0120804D01*
X0231636Y0120956D01*
X0231692Y0121107D01*
X0231753Y0121256D01*
X0231816Y0121404D01*
X0231884Y0121550D01*
X0231955Y0121694D01*
X0232029Y0121836D01*
X0232107Y0121977D01*
X0232189Y0122115D01*
X0232274Y0122252D01*
X0232362Y0122386D01*
X0232454Y0122518D01*
X0232549Y0122648D01*
X0232647Y0122776D01*
X0232748Y0122901D01*
X0232852Y0123023D01*
X0232959Y0123143D01*
X0233069Y0123260D01*
X0233182Y0123375D01*
X0233298Y0123486D01*
X0233417Y0123595D01*
X0233538Y0123700D01*
X0233662Y0123803D01*
X0233788Y0123903D01*
X0233916Y0123999D01*
X0234047Y0124092D01*
X0234181Y0124182D01*
X0234316Y0124269D01*
X0234454Y0124352D01*
X0234593Y0124432D01*
X0234735Y0124508D01*
X0234878Y0124581D01*
X0235023Y0124650D01*
X0235170Y0124716D01*
X0235318Y0124778D01*
X0235468Y0124836D01*
X0235619Y0124891D01*
X0235772Y0124942D01*
X0235926Y0124989D01*
X0236081Y0125032D01*
X0236237Y0125071D01*
X0236393Y0125107D01*
X0236551Y0125138D01*
X0236709Y0125166D01*
X0236868Y0125190D01*
X0237028Y0125210D01*
X0237188Y0125226D01*
X0237348Y0125238D01*
X0237509Y0125246D01*
X0237670Y0125250D01*
X0237830Y0125250D01*
X0237991Y0125246D01*
X0238152Y0125238D01*
X0238312Y0125226D01*
X0238472Y0125210D01*
X0238632Y0125190D01*
X0238791Y0125166D01*
X0238949Y0125138D01*
X0239107Y0125107D01*
X0239263Y0125071D01*
X0239419Y0125032D01*
X0239574Y0124989D01*
X0239728Y0124942D01*
X0239881Y0124891D01*
X0240032Y0124836D01*
X0240182Y0124778D01*
X0240330Y0124716D01*
X0240477Y0124650D01*
X0240622Y0124581D01*
X0240765Y0124508D01*
X0240907Y0124432D01*
X0241046Y0124352D01*
X0241184Y0124269D01*
X0241319Y0124182D01*
X0241453Y0124092D01*
X0241584Y0123999D01*
X0241712Y0123903D01*
X0241838Y0123803D01*
X0241962Y0123700D01*
X0242083Y0123595D01*
X0242202Y0123486D01*
X0242318Y0123375D01*
X0242431Y0123260D01*
X0242541Y0123143D01*
X0242648Y0123023D01*
X0242752Y0122901D01*
X0242853Y0122776D01*
X0242951Y0122648D01*
X0243046Y0122518D01*
X0243138Y0122386D01*
X0243226Y0122252D01*
X0243311Y0122115D01*
X0243393Y0121977D01*
X0243471Y0121836D01*
X0243545Y0121694D01*
X0243616Y0121550D01*
X0243684Y0121404D01*
X0243747Y0121256D01*
X0243808Y0121107D01*
X0243864Y0120956D01*
X0243917Y0120804D01*
X0243966Y0120651D01*
X0244011Y0120497D01*
X0244052Y0120342D01*
X0244090Y0120185D01*
X0244123Y0120028D01*
X0244153Y0119870D01*
X0244179Y0119711D01*
X0244200Y0119552D01*
X0244218Y0119392D01*
X0244232Y0119232D01*
X0244242Y0119071D01*
X0244248Y0118911D01*
X0244250Y0118750D01*
X0244248Y0118589D01*
X0244242Y0118429D01*
X0244232Y0118268D01*
X0244218Y0118108D01*
X0244200Y0117948D01*
X0244179Y0117789D01*
X0244153Y0117630D01*
X0244123Y0117472D01*
X0244090Y0117315D01*
X0244052Y0117158D01*
X0244011Y0117003D01*
X0243966Y0116849D01*
X0243917Y0116696D01*
X0243864Y0116544D01*
X0243808Y0116393D01*
X0243747Y0116244D01*
X0243684Y0116096D01*
X0243616Y0115950D01*
X0243545Y0115806D01*
X0243471Y0115664D01*
X0243393Y0115523D01*
X0243311Y0115385D01*
X0243226Y0115248D01*
X0243138Y0115114D01*
X0243046Y0114982D01*
X0242951Y0114852D01*
X0242853Y0114724D01*
X0242752Y0114599D01*
X0242648Y0114477D01*
X0242541Y0114357D01*
X0242431Y0114240D01*
X0242318Y0114125D01*
X0242202Y0114014D01*
X0242083Y0113905D01*
X0241962Y0113800D01*
X0241838Y0113697D01*
X0241712Y0113597D01*
X0241584Y0113501D01*
X0241453Y0113408D01*
X0241319Y0113318D01*
X0241184Y0113231D01*
X0241046Y0113148D01*
X0240907Y0113068D01*
X0240765Y0112992D01*
X0240622Y0112919D01*
X0240477Y0112850D01*
X0240330Y0112784D01*
X0240182Y0112722D01*
X0240032Y0112664D01*
X0239881Y0112609D01*
X0239728Y0112558D01*
X0239574Y0112511D01*
X0239419Y0112468D01*
X0239263Y0112429D01*
X0239107Y0112393D01*
X0238949Y0112362D01*
X0238791Y0112334D01*
X0238632Y0112310D01*
X0238472Y0112290D01*
X0238312Y0112274D01*
X0238152Y0112262D01*
X0237991Y0112254D01*
X0237830Y0112250D01*
X0237670Y0112250D01*
X0237509Y0112254D01*
X0237348Y0112262D01*
X0237188Y0112274D01*
X0237028Y0112290D01*
X0236868Y0112310D01*
X0236709Y0112334D01*
X0236551Y0112362D01*
X0236393Y0112393D01*
X0236237Y0112429D01*
X0236081Y0112468D01*
X0235926Y0112511D01*
X0235772Y0112558D01*
X0235619Y0112609D01*
X0235468Y0112664D01*
X0235318Y0112722D01*
X0235170Y0112784D01*
X0235023Y0112850D01*
X0234878Y0112919D01*
X0234735Y0112992D01*
X0234593Y0113068D01*
X0234454Y0113148D01*
X0234316Y0113231D01*
X0234181Y0113318D01*
X0234047Y0113408D01*
X0233916Y0113501D01*
X0233788Y0113597D01*
X0233662Y0113697D01*
X0233538Y0113800D01*
X0233417Y0113905D01*
X0233298Y0114014D01*
X0233182Y0114125D01*
X0233069Y0114240D01*
X0232959Y0114357D01*
X0232852Y0114477D01*
X0232748Y0114599D01*
X0232647Y0114724D01*
X0232549Y0114852D01*
X0232454Y0114982D01*
X0232362Y0115114D01*
X0232274Y0115248D01*
X0232189Y0115385D01*
X0232107Y0115523D01*
X0232029Y0115664D01*
X0231955Y0115806D01*
X0231884Y0115950D01*
X0231816Y0116096D01*
X0231753Y0116244D01*
X0231692Y0116393D01*
X0231636Y0116544D01*
X0231583Y0116696D01*
X0231534Y0116849D01*
X0231489Y0117003D01*
X0231448Y0117158D01*
X0231410Y0117315D01*
X0231377Y0117472D01*
X0231347Y0117630D01*
X0231321Y0117789D01*
X0231300Y0117948D01*
X0231282Y0118108D01*
X0231268Y0118268D01*
X0231258Y0118429D01*
X0231252Y0118589D01*
X0231250Y0118750D01*
X0253171Y0123750D02*
X0253173Y0123911D01*
X0253179Y0124071D01*
X0253189Y0124232D01*
X0253203Y0124392D01*
X0253221Y0124552D01*
X0253242Y0124711D01*
X0253268Y0124870D01*
X0253298Y0125028D01*
X0253331Y0125185D01*
X0253369Y0125342D01*
X0253410Y0125497D01*
X0253455Y0125651D01*
X0253504Y0125804D01*
X0253557Y0125956D01*
X0253613Y0126107D01*
X0253674Y0126256D01*
X0253737Y0126404D01*
X0253805Y0126550D01*
X0253876Y0126694D01*
X0253950Y0126836D01*
X0254028Y0126977D01*
X0254110Y0127115D01*
X0254195Y0127252D01*
X0254283Y0127386D01*
X0254375Y0127518D01*
X0254470Y0127648D01*
X0254568Y0127776D01*
X0254669Y0127901D01*
X0254773Y0128023D01*
X0254880Y0128143D01*
X0254990Y0128260D01*
X0255103Y0128375D01*
X0255219Y0128486D01*
X0255338Y0128595D01*
X0255459Y0128700D01*
X0255583Y0128803D01*
X0255709Y0128903D01*
X0255837Y0128999D01*
X0255968Y0129092D01*
X0256102Y0129182D01*
X0256237Y0129269D01*
X0256375Y0129352D01*
X0256514Y0129432D01*
X0256656Y0129508D01*
X0256799Y0129581D01*
X0256944Y0129650D01*
X0257091Y0129716D01*
X0257239Y0129778D01*
X0257389Y0129836D01*
X0257540Y0129891D01*
X0257693Y0129942D01*
X0257847Y0129989D01*
X0258002Y0130032D01*
X0258158Y0130071D01*
X0258314Y0130107D01*
X0258472Y0130138D01*
X0258630Y0130166D01*
X0258789Y0130190D01*
X0258949Y0130210D01*
X0259109Y0130226D01*
X0259269Y0130238D01*
X0259430Y0130246D01*
X0259591Y0130250D01*
X0259751Y0130250D01*
X0259912Y0130246D01*
X0260073Y0130238D01*
X0260233Y0130226D01*
X0260393Y0130210D01*
X0260553Y0130190D01*
X0260712Y0130166D01*
X0260870Y0130138D01*
X0261028Y0130107D01*
X0261184Y0130071D01*
X0261340Y0130032D01*
X0261495Y0129989D01*
X0261649Y0129942D01*
X0261802Y0129891D01*
X0261953Y0129836D01*
X0262103Y0129778D01*
X0262251Y0129716D01*
X0262398Y0129650D01*
X0262543Y0129581D01*
X0262686Y0129508D01*
X0262828Y0129432D01*
X0262967Y0129352D01*
X0263105Y0129269D01*
X0263240Y0129182D01*
X0263374Y0129092D01*
X0263505Y0128999D01*
X0263633Y0128903D01*
X0263759Y0128803D01*
X0263883Y0128700D01*
X0264004Y0128595D01*
X0264123Y0128486D01*
X0264239Y0128375D01*
X0264352Y0128260D01*
X0264462Y0128143D01*
X0264569Y0128023D01*
X0264673Y0127901D01*
X0264774Y0127776D01*
X0264872Y0127648D01*
X0264967Y0127518D01*
X0265059Y0127386D01*
X0265147Y0127252D01*
X0265232Y0127115D01*
X0265314Y0126977D01*
X0265392Y0126836D01*
X0265466Y0126694D01*
X0265537Y0126550D01*
X0265605Y0126404D01*
X0265668Y0126256D01*
X0265729Y0126107D01*
X0265785Y0125956D01*
X0265838Y0125804D01*
X0265887Y0125651D01*
X0265932Y0125497D01*
X0265973Y0125342D01*
X0266011Y0125185D01*
X0266044Y0125028D01*
X0266074Y0124870D01*
X0266100Y0124711D01*
X0266121Y0124552D01*
X0266139Y0124392D01*
X0266153Y0124232D01*
X0266163Y0124071D01*
X0266169Y0123911D01*
X0266171Y0123750D01*
X0266169Y0123589D01*
X0266163Y0123429D01*
X0266153Y0123268D01*
X0266139Y0123108D01*
X0266121Y0122948D01*
X0266100Y0122789D01*
X0266074Y0122630D01*
X0266044Y0122472D01*
X0266011Y0122315D01*
X0265973Y0122158D01*
X0265932Y0122003D01*
X0265887Y0121849D01*
X0265838Y0121696D01*
X0265785Y0121544D01*
X0265729Y0121393D01*
X0265668Y0121244D01*
X0265605Y0121096D01*
X0265537Y0120950D01*
X0265466Y0120806D01*
X0265392Y0120664D01*
X0265314Y0120523D01*
X0265232Y0120385D01*
X0265147Y0120248D01*
X0265059Y0120114D01*
X0264967Y0119982D01*
X0264872Y0119852D01*
X0264774Y0119724D01*
X0264673Y0119599D01*
X0264569Y0119477D01*
X0264462Y0119357D01*
X0264352Y0119240D01*
X0264239Y0119125D01*
X0264123Y0119014D01*
X0264004Y0118905D01*
X0263883Y0118800D01*
X0263759Y0118697D01*
X0263633Y0118597D01*
X0263505Y0118501D01*
X0263374Y0118408D01*
X0263240Y0118318D01*
X0263105Y0118231D01*
X0262967Y0118148D01*
X0262828Y0118068D01*
X0262686Y0117992D01*
X0262543Y0117919D01*
X0262398Y0117850D01*
X0262251Y0117784D01*
X0262103Y0117722D01*
X0261953Y0117664D01*
X0261802Y0117609D01*
X0261649Y0117558D01*
X0261495Y0117511D01*
X0261340Y0117468D01*
X0261184Y0117429D01*
X0261028Y0117393D01*
X0260870Y0117362D01*
X0260712Y0117334D01*
X0260553Y0117310D01*
X0260393Y0117290D01*
X0260233Y0117274D01*
X0260073Y0117262D01*
X0259912Y0117254D01*
X0259751Y0117250D01*
X0259591Y0117250D01*
X0259430Y0117254D01*
X0259269Y0117262D01*
X0259109Y0117274D01*
X0258949Y0117290D01*
X0258789Y0117310D01*
X0258630Y0117334D01*
X0258472Y0117362D01*
X0258314Y0117393D01*
X0258158Y0117429D01*
X0258002Y0117468D01*
X0257847Y0117511D01*
X0257693Y0117558D01*
X0257540Y0117609D01*
X0257389Y0117664D01*
X0257239Y0117722D01*
X0257091Y0117784D01*
X0256944Y0117850D01*
X0256799Y0117919D01*
X0256656Y0117992D01*
X0256514Y0118068D01*
X0256375Y0118148D01*
X0256237Y0118231D01*
X0256102Y0118318D01*
X0255968Y0118408D01*
X0255837Y0118501D01*
X0255709Y0118597D01*
X0255583Y0118697D01*
X0255459Y0118800D01*
X0255338Y0118905D01*
X0255219Y0119014D01*
X0255103Y0119125D01*
X0254990Y0119240D01*
X0254880Y0119357D01*
X0254773Y0119477D01*
X0254669Y0119599D01*
X0254568Y0119724D01*
X0254470Y0119852D01*
X0254375Y0119982D01*
X0254283Y0120114D01*
X0254195Y0120248D01*
X0254110Y0120385D01*
X0254028Y0120523D01*
X0253950Y0120664D01*
X0253876Y0120806D01*
X0253805Y0120950D01*
X0253737Y0121096D01*
X0253674Y0121244D01*
X0253613Y0121393D01*
X0253557Y0121544D01*
X0253504Y0121696D01*
X0253455Y0121849D01*
X0253410Y0122003D01*
X0253369Y0122158D01*
X0253331Y0122315D01*
X0253298Y0122472D01*
X0253268Y0122630D01*
X0253242Y0122789D01*
X0253221Y0122948D01*
X0253203Y0123108D01*
X0253189Y0123268D01*
X0253179Y0123429D01*
X0253173Y0123589D01*
X0253171Y0123750D01*
X0231250Y0199451D02*
X0231252Y0199612D01*
X0231258Y0199772D01*
X0231268Y0199933D01*
X0231282Y0200093D01*
X0231300Y0200253D01*
X0231321Y0200412D01*
X0231347Y0200571D01*
X0231377Y0200729D01*
X0231410Y0200886D01*
X0231448Y0201043D01*
X0231489Y0201198D01*
X0231534Y0201352D01*
X0231583Y0201505D01*
X0231636Y0201657D01*
X0231692Y0201808D01*
X0231753Y0201957D01*
X0231816Y0202105D01*
X0231884Y0202251D01*
X0231955Y0202395D01*
X0232029Y0202537D01*
X0232107Y0202678D01*
X0232189Y0202816D01*
X0232274Y0202953D01*
X0232362Y0203087D01*
X0232454Y0203219D01*
X0232549Y0203349D01*
X0232647Y0203477D01*
X0232748Y0203602D01*
X0232852Y0203724D01*
X0232959Y0203844D01*
X0233069Y0203961D01*
X0233182Y0204076D01*
X0233298Y0204187D01*
X0233417Y0204296D01*
X0233538Y0204401D01*
X0233662Y0204504D01*
X0233788Y0204604D01*
X0233916Y0204700D01*
X0234047Y0204793D01*
X0234181Y0204883D01*
X0234316Y0204970D01*
X0234454Y0205053D01*
X0234593Y0205133D01*
X0234735Y0205209D01*
X0234878Y0205282D01*
X0235023Y0205351D01*
X0235170Y0205417D01*
X0235318Y0205479D01*
X0235468Y0205537D01*
X0235619Y0205592D01*
X0235772Y0205643D01*
X0235926Y0205690D01*
X0236081Y0205733D01*
X0236237Y0205772D01*
X0236393Y0205808D01*
X0236551Y0205839D01*
X0236709Y0205867D01*
X0236868Y0205891D01*
X0237028Y0205911D01*
X0237188Y0205927D01*
X0237348Y0205939D01*
X0237509Y0205947D01*
X0237670Y0205951D01*
X0237830Y0205951D01*
X0237991Y0205947D01*
X0238152Y0205939D01*
X0238312Y0205927D01*
X0238472Y0205911D01*
X0238632Y0205891D01*
X0238791Y0205867D01*
X0238949Y0205839D01*
X0239107Y0205808D01*
X0239263Y0205772D01*
X0239419Y0205733D01*
X0239574Y0205690D01*
X0239728Y0205643D01*
X0239881Y0205592D01*
X0240032Y0205537D01*
X0240182Y0205479D01*
X0240330Y0205417D01*
X0240477Y0205351D01*
X0240622Y0205282D01*
X0240765Y0205209D01*
X0240907Y0205133D01*
X0241046Y0205053D01*
X0241184Y0204970D01*
X0241319Y0204883D01*
X0241453Y0204793D01*
X0241584Y0204700D01*
X0241712Y0204604D01*
X0241838Y0204504D01*
X0241962Y0204401D01*
X0242083Y0204296D01*
X0242202Y0204187D01*
X0242318Y0204076D01*
X0242431Y0203961D01*
X0242541Y0203844D01*
X0242648Y0203724D01*
X0242752Y0203602D01*
X0242853Y0203477D01*
X0242951Y0203349D01*
X0243046Y0203219D01*
X0243138Y0203087D01*
X0243226Y0202953D01*
X0243311Y0202816D01*
X0243393Y0202678D01*
X0243471Y0202537D01*
X0243545Y0202395D01*
X0243616Y0202251D01*
X0243684Y0202105D01*
X0243747Y0201957D01*
X0243808Y0201808D01*
X0243864Y0201657D01*
X0243917Y0201505D01*
X0243966Y0201352D01*
X0244011Y0201198D01*
X0244052Y0201043D01*
X0244090Y0200886D01*
X0244123Y0200729D01*
X0244153Y0200571D01*
X0244179Y0200412D01*
X0244200Y0200253D01*
X0244218Y0200093D01*
X0244232Y0199933D01*
X0244242Y0199772D01*
X0244248Y0199612D01*
X0244250Y0199451D01*
X0244248Y0199290D01*
X0244242Y0199130D01*
X0244232Y0198969D01*
X0244218Y0198809D01*
X0244200Y0198649D01*
X0244179Y0198490D01*
X0244153Y0198331D01*
X0244123Y0198173D01*
X0244090Y0198016D01*
X0244052Y0197859D01*
X0244011Y0197704D01*
X0243966Y0197550D01*
X0243917Y0197397D01*
X0243864Y0197245D01*
X0243808Y0197094D01*
X0243747Y0196945D01*
X0243684Y0196797D01*
X0243616Y0196651D01*
X0243545Y0196507D01*
X0243471Y0196365D01*
X0243393Y0196224D01*
X0243311Y0196086D01*
X0243226Y0195949D01*
X0243138Y0195815D01*
X0243046Y0195683D01*
X0242951Y0195553D01*
X0242853Y0195425D01*
X0242752Y0195300D01*
X0242648Y0195178D01*
X0242541Y0195058D01*
X0242431Y0194941D01*
X0242318Y0194826D01*
X0242202Y0194715D01*
X0242083Y0194606D01*
X0241962Y0194501D01*
X0241838Y0194398D01*
X0241712Y0194298D01*
X0241584Y0194202D01*
X0241453Y0194109D01*
X0241319Y0194019D01*
X0241184Y0193932D01*
X0241046Y0193849D01*
X0240907Y0193769D01*
X0240765Y0193693D01*
X0240622Y0193620D01*
X0240477Y0193551D01*
X0240330Y0193485D01*
X0240182Y0193423D01*
X0240032Y0193365D01*
X0239881Y0193310D01*
X0239728Y0193259D01*
X0239574Y0193212D01*
X0239419Y0193169D01*
X0239263Y0193130D01*
X0239107Y0193094D01*
X0238949Y0193063D01*
X0238791Y0193035D01*
X0238632Y0193011D01*
X0238472Y0192991D01*
X0238312Y0192975D01*
X0238152Y0192963D01*
X0237991Y0192955D01*
X0237830Y0192951D01*
X0237670Y0192951D01*
X0237509Y0192955D01*
X0237348Y0192963D01*
X0237188Y0192975D01*
X0237028Y0192991D01*
X0236868Y0193011D01*
X0236709Y0193035D01*
X0236551Y0193063D01*
X0236393Y0193094D01*
X0236237Y0193130D01*
X0236081Y0193169D01*
X0235926Y0193212D01*
X0235772Y0193259D01*
X0235619Y0193310D01*
X0235468Y0193365D01*
X0235318Y0193423D01*
X0235170Y0193485D01*
X0235023Y0193551D01*
X0234878Y0193620D01*
X0234735Y0193693D01*
X0234593Y0193769D01*
X0234454Y0193849D01*
X0234316Y0193932D01*
X0234181Y0194019D01*
X0234047Y0194109D01*
X0233916Y0194202D01*
X0233788Y0194298D01*
X0233662Y0194398D01*
X0233538Y0194501D01*
X0233417Y0194606D01*
X0233298Y0194715D01*
X0233182Y0194826D01*
X0233069Y0194941D01*
X0232959Y0195058D01*
X0232852Y0195178D01*
X0232748Y0195300D01*
X0232647Y0195425D01*
X0232549Y0195553D01*
X0232454Y0195683D01*
X0232362Y0195815D01*
X0232274Y0195949D01*
X0232189Y0196086D01*
X0232107Y0196224D01*
X0232029Y0196365D01*
X0231955Y0196507D01*
X0231884Y0196651D01*
X0231816Y0196797D01*
X0231753Y0196945D01*
X0231692Y0197094D01*
X0231636Y0197245D01*
X0231583Y0197397D01*
X0231534Y0197550D01*
X0231489Y0197704D01*
X0231448Y0197859D01*
X0231410Y0198016D01*
X0231377Y0198173D01*
X0231347Y0198331D01*
X0231321Y0198490D01*
X0231300Y0198649D01*
X0231282Y0198809D01*
X0231268Y0198969D01*
X0231258Y0199130D01*
X0231252Y0199290D01*
X0231250Y0199451D01*
X0253171Y0204451D02*
X0253173Y0204612D01*
X0253179Y0204772D01*
X0253189Y0204933D01*
X0253203Y0205093D01*
X0253221Y0205253D01*
X0253242Y0205412D01*
X0253268Y0205571D01*
X0253298Y0205729D01*
X0253331Y0205886D01*
X0253369Y0206043D01*
X0253410Y0206198D01*
X0253455Y0206352D01*
X0253504Y0206505D01*
X0253557Y0206657D01*
X0253613Y0206808D01*
X0253674Y0206957D01*
X0253737Y0207105D01*
X0253805Y0207251D01*
X0253876Y0207395D01*
X0253950Y0207537D01*
X0254028Y0207678D01*
X0254110Y0207816D01*
X0254195Y0207953D01*
X0254283Y0208087D01*
X0254375Y0208219D01*
X0254470Y0208349D01*
X0254568Y0208477D01*
X0254669Y0208602D01*
X0254773Y0208724D01*
X0254880Y0208844D01*
X0254990Y0208961D01*
X0255103Y0209076D01*
X0255219Y0209187D01*
X0255338Y0209296D01*
X0255459Y0209401D01*
X0255583Y0209504D01*
X0255709Y0209604D01*
X0255837Y0209700D01*
X0255968Y0209793D01*
X0256102Y0209883D01*
X0256237Y0209970D01*
X0256375Y0210053D01*
X0256514Y0210133D01*
X0256656Y0210209D01*
X0256799Y0210282D01*
X0256944Y0210351D01*
X0257091Y0210417D01*
X0257239Y0210479D01*
X0257389Y0210537D01*
X0257540Y0210592D01*
X0257693Y0210643D01*
X0257847Y0210690D01*
X0258002Y0210733D01*
X0258158Y0210772D01*
X0258314Y0210808D01*
X0258472Y0210839D01*
X0258630Y0210867D01*
X0258789Y0210891D01*
X0258949Y0210911D01*
X0259109Y0210927D01*
X0259269Y0210939D01*
X0259430Y0210947D01*
X0259591Y0210951D01*
X0259751Y0210951D01*
X0259912Y0210947D01*
X0260073Y0210939D01*
X0260233Y0210927D01*
X0260393Y0210911D01*
X0260553Y0210891D01*
X0260712Y0210867D01*
X0260870Y0210839D01*
X0261028Y0210808D01*
X0261184Y0210772D01*
X0261340Y0210733D01*
X0261495Y0210690D01*
X0261649Y0210643D01*
X0261802Y0210592D01*
X0261953Y0210537D01*
X0262103Y0210479D01*
X0262251Y0210417D01*
X0262398Y0210351D01*
X0262543Y0210282D01*
X0262686Y0210209D01*
X0262828Y0210133D01*
X0262967Y0210053D01*
X0263105Y0209970D01*
X0263240Y0209883D01*
X0263374Y0209793D01*
X0263505Y0209700D01*
X0263633Y0209604D01*
X0263759Y0209504D01*
X0263883Y0209401D01*
X0264004Y0209296D01*
X0264123Y0209187D01*
X0264239Y0209076D01*
X0264352Y0208961D01*
X0264462Y0208844D01*
X0264569Y0208724D01*
X0264673Y0208602D01*
X0264774Y0208477D01*
X0264872Y0208349D01*
X0264967Y0208219D01*
X0265059Y0208087D01*
X0265147Y0207953D01*
X0265232Y0207816D01*
X0265314Y0207678D01*
X0265392Y0207537D01*
X0265466Y0207395D01*
X0265537Y0207251D01*
X0265605Y0207105D01*
X0265668Y0206957D01*
X0265729Y0206808D01*
X0265785Y0206657D01*
X0265838Y0206505D01*
X0265887Y0206352D01*
X0265932Y0206198D01*
X0265973Y0206043D01*
X0266011Y0205886D01*
X0266044Y0205729D01*
X0266074Y0205571D01*
X0266100Y0205412D01*
X0266121Y0205253D01*
X0266139Y0205093D01*
X0266153Y0204933D01*
X0266163Y0204772D01*
X0266169Y0204612D01*
X0266171Y0204451D01*
X0266169Y0204290D01*
X0266163Y0204130D01*
X0266153Y0203969D01*
X0266139Y0203809D01*
X0266121Y0203649D01*
X0266100Y0203490D01*
X0266074Y0203331D01*
X0266044Y0203173D01*
X0266011Y0203016D01*
X0265973Y0202859D01*
X0265932Y0202704D01*
X0265887Y0202550D01*
X0265838Y0202397D01*
X0265785Y0202245D01*
X0265729Y0202094D01*
X0265668Y0201945D01*
X0265605Y0201797D01*
X0265537Y0201651D01*
X0265466Y0201507D01*
X0265392Y0201365D01*
X0265314Y0201224D01*
X0265232Y0201086D01*
X0265147Y0200949D01*
X0265059Y0200815D01*
X0264967Y0200683D01*
X0264872Y0200553D01*
X0264774Y0200425D01*
X0264673Y0200300D01*
X0264569Y0200178D01*
X0264462Y0200058D01*
X0264352Y0199941D01*
X0264239Y0199826D01*
X0264123Y0199715D01*
X0264004Y0199606D01*
X0263883Y0199501D01*
X0263759Y0199398D01*
X0263633Y0199298D01*
X0263505Y0199202D01*
X0263374Y0199109D01*
X0263240Y0199019D01*
X0263105Y0198932D01*
X0262967Y0198849D01*
X0262828Y0198769D01*
X0262686Y0198693D01*
X0262543Y0198620D01*
X0262398Y0198551D01*
X0262251Y0198485D01*
X0262103Y0198423D01*
X0261953Y0198365D01*
X0261802Y0198310D01*
X0261649Y0198259D01*
X0261495Y0198212D01*
X0261340Y0198169D01*
X0261184Y0198130D01*
X0261028Y0198094D01*
X0260870Y0198063D01*
X0260712Y0198035D01*
X0260553Y0198011D01*
X0260393Y0197991D01*
X0260233Y0197975D01*
X0260073Y0197963D01*
X0259912Y0197955D01*
X0259751Y0197951D01*
X0259591Y0197951D01*
X0259430Y0197955D01*
X0259269Y0197963D01*
X0259109Y0197975D01*
X0258949Y0197991D01*
X0258789Y0198011D01*
X0258630Y0198035D01*
X0258472Y0198063D01*
X0258314Y0198094D01*
X0258158Y0198130D01*
X0258002Y0198169D01*
X0257847Y0198212D01*
X0257693Y0198259D01*
X0257540Y0198310D01*
X0257389Y0198365D01*
X0257239Y0198423D01*
X0257091Y0198485D01*
X0256944Y0198551D01*
X0256799Y0198620D01*
X0256656Y0198693D01*
X0256514Y0198769D01*
X0256375Y0198849D01*
X0256237Y0198932D01*
X0256102Y0199019D01*
X0255968Y0199109D01*
X0255837Y0199202D01*
X0255709Y0199298D01*
X0255583Y0199398D01*
X0255459Y0199501D01*
X0255338Y0199606D01*
X0255219Y0199715D01*
X0255103Y0199826D01*
X0254990Y0199941D01*
X0254880Y0200058D01*
X0254773Y0200178D01*
X0254669Y0200300D01*
X0254568Y0200425D01*
X0254470Y0200553D01*
X0254375Y0200683D01*
X0254283Y0200815D01*
X0254195Y0200949D01*
X0254110Y0201086D01*
X0254028Y0201224D01*
X0253950Y0201365D01*
X0253876Y0201507D01*
X0253805Y0201651D01*
X0253737Y0201797D01*
X0253674Y0201945D01*
X0253613Y0202094D01*
X0253557Y0202245D01*
X0253504Y0202397D01*
X0253455Y0202550D01*
X0253410Y0202704D01*
X0253369Y0202859D01*
X0253331Y0203016D01*
X0253298Y0203173D01*
X0253268Y0203331D01*
X0253242Y0203490D01*
X0253221Y0203649D01*
X0253203Y0203809D01*
X0253189Y0203969D01*
X0253179Y0204130D01*
X0253173Y0204290D01*
X0253171Y0204451D01*
X0231250Y0279451D02*
X0231252Y0279612D01*
X0231258Y0279772D01*
X0231268Y0279933D01*
X0231282Y0280093D01*
X0231300Y0280253D01*
X0231321Y0280412D01*
X0231347Y0280571D01*
X0231377Y0280729D01*
X0231410Y0280886D01*
X0231448Y0281043D01*
X0231489Y0281198D01*
X0231534Y0281352D01*
X0231583Y0281505D01*
X0231636Y0281657D01*
X0231692Y0281808D01*
X0231753Y0281957D01*
X0231816Y0282105D01*
X0231884Y0282251D01*
X0231955Y0282395D01*
X0232029Y0282537D01*
X0232107Y0282678D01*
X0232189Y0282816D01*
X0232274Y0282953D01*
X0232362Y0283087D01*
X0232454Y0283219D01*
X0232549Y0283349D01*
X0232647Y0283477D01*
X0232748Y0283602D01*
X0232852Y0283724D01*
X0232959Y0283844D01*
X0233069Y0283961D01*
X0233182Y0284076D01*
X0233298Y0284187D01*
X0233417Y0284296D01*
X0233538Y0284401D01*
X0233662Y0284504D01*
X0233788Y0284604D01*
X0233916Y0284700D01*
X0234047Y0284793D01*
X0234181Y0284883D01*
X0234316Y0284970D01*
X0234454Y0285053D01*
X0234593Y0285133D01*
X0234735Y0285209D01*
X0234878Y0285282D01*
X0235023Y0285351D01*
X0235170Y0285417D01*
X0235318Y0285479D01*
X0235468Y0285537D01*
X0235619Y0285592D01*
X0235772Y0285643D01*
X0235926Y0285690D01*
X0236081Y0285733D01*
X0236237Y0285772D01*
X0236393Y0285808D01*
X0236551Y0285839D01*
X0236709Y0285867D01*
X0236868Y0285891D01*
X0237028Y0285911D01*
X0237188Y0285927D01*
X0237348Y0285939D01*
X0237509Y0285947D01*
X0237670Y0285951D01*
X0237830Y0285951D01*
X0237991Y0285947D01*
X0238152Y0285939D01*
X0238312Y0285927D01*
X0238472Y0285911D01*
X0238632Y0285891D01*
X0238791Y0285867D01*
X0238949Y0285839D01*
X0239107Y0285808D01*
X0239263Y0285772D01*
X0239419Y0285733D01*
X0239574Y0285690D01*
X0239728Y0285643D01*
X0239881Y0285592D01*
X0240032Y0285537D01*
X0240182Y0285479D01*
X0240330Y0285417D01*
X0240477Y0285351D01*
X0240622Y0285282D01*
X0240765Y0285209D01*
X0240907Y0285133D01*
X0241046Y0285053D01*
X0241184Y0284970D01*
X0241319Y0284883D01*
X0241453Y0284793D01*
X0241584Y0284700D01*
X0241712Y0284604D01*
X0241838Y0284504D01*
X0241962Y0284401D01*
X0242083Y0284296D01*
X0242202Y0284187D01*
X0242318Y0284076D01*
X0242431Y0283961D01*
X0242541Y0283844D01*
X0242648Y0283724D01*
X0242752Y0283602D01*
X0242853Y0283477D01*
X0242951Y0283349D01*
X0243046Y0283219D01*
X0243138Y0283087D01*
X0243226Y0282953D01*
X0243311Y0282816D01*
X0243393Y0282678D01*
X0243471Y0282537D01*
X0243545Y0282395D01*
X0243616Y0282251D01*
X0243684Y0282105D01*
X0243747Y0281957D01*
X0243808Y0281808D01*
X0243864Y0281657D01*
X0243917Y0281505D01*
X0243966Y0281352D01*
X0244011Y0281198D01*
X0244052Y0281043D01*
X0244090Y0280886D01*
X0244123Y0280729D01*
X0244153Y0280571D01*
X0244179Y0280412D01*
X0244200Y0280253D01*
X0244218Y0280093D01*
X0244232Y0279933D01*
X0244242Y0279772D01*
X0244248Y0279612D01*
X0244250Y0279451D01*
X0244248Y0279290D01*
X0244242Y0279130D01*
X0244232Y0278969D01*
X0244218Y0278809D01*
X0244200Y0278649D01*
X0244179Y0278490D01*
X0244153Y0278331D01*
X0244123Y0278173D01*
X0244090Y0278016D01*
X0244052Y0277859D01*
X0244011Y0277704D01*
X0243966Y0277550D01*
X0243917Y0277397D01*
X0243864Y0277245D01*
X0243808Y0277094D01*
X0243747Y0276945D01*
X0243684Y0276797D01*
X0243616Y0276651D01*
X0243545Y0276507D01*
X0243471Y0276365D01*
X0243393Y0276224D01*
X0243311Y0276086D01*
X0243226Y0275949D01*
X0243138Y0275815D01*
X0243046Y0275683D01*
X0242951Y0275553D01*
X0242853Y0275425D01*
X0242752Y0275300D01*
X0242648Y0275178D01*
X0242541Y0275058D01*
X0242431Y0274941D01*
X0242318Y0274826D01*
X0242202Y0274715D01*
X0242083Y0274606D01*
X0241962Y0274501D01*
X0241838Y0274398D01*
X0241712Y0274298D01*
X0241584Y0274202D01*
X0241453Y0274109D01*
X0241319Y0274019D01*
X0241184Y0273932D01*
X0241046Y0273849D01*
X0240907Y0273769D01*
X0240765Y0273693D01*
X0240622Y0273620D01*
X0240477Y0273551D01*
X0240330Y0273485D01*
X0240182Y0273423D01*
X0240032Y0273365D01*
X0239881Y0273310D01*
X0239728Y0273259D01*
X0239574Y0273212D01*
X0239419Y0273169D01*
X0239263Y0273130D01*
X0239107Y0273094D01*
X0238949Y0273063D01*
X0238791Y0273035D01*
X0238632Y0273011D01*
X0238472Y0272991D01*
X0238312Y0272975D01*
X0238152Y0272963D01*
X0237991Y0272955D01*
X0237830Y0272951D01*
X0237670Y0272951D01*
X0237509Y0272955D01*
X0237348Y0272963D01*
X0237188Y0272975D01*
X0237028Y0272991D01*
X0236868Y0273011D01*
X0236709Y0273035D01*
X0236551Y0273063D01*
X0236393Y0273094D01*
X0236237Y0273130D01*
X0236081Y0273169D01*
X0235926Y0273212D01*
X0235772Y0273259D01*
X0235619Y0273310D01*
X0235468Y0273365D01*
X0235318Y0273423D01*
X0235170Y0273485D01*
X0235023Y0273551D01*
X0234878Y0273620D01*
X0234735Y0273693D01*
X0234593Y0273769D01*
X0234454Y0273849D01*
X0234316Y0273932D01*
X0234181Y0274019D01*
X0234047Y0274109D01*
X0233916Y0274202D01*
X0233788Y0274298D01*
X0233662Y0274398D01*
X0233538Y0274501D01*
X0233417Y0274606D01*
X0233298Y0274715D01*
X0233182Y0274826D01*
X0233069Y0274941D01*
X0232959Y0275058D01*
X0232852Y0275178D01*
X0232748Y0275300D01*
X0232647Y0275425D01*
X0232549Y0275553D01*
X0232454Y0275683D01*
X0232362Y0275815D01*
X0232274Y0275949D01*
X0232189Y0276086D01*
X0232107Y0276224D01*
X0232029Y0276365D01*
X0231955Y0276507D01*
X0231884Y0276651D01*
X0231816Y0276797D01*
X0231753Y0276945D01*
X0231692Y0277094D01*
X0231636Y0277245D01*
X0231583Y0277397D01*
X0231534Y0277550D01*
X0231489Y0277704D01*
X0231448Y0277859D01*
X0231410Y0278016D01*
X0231377Y0278173D01*
X0231347Y0278331D01*
X0231321Y0278490D01*
X0231300Y0278649D01*
X0231282Y0278809D01*
X0231268Y0278969D01*
X0231258Y0279130D01*
X0231252Y0279290D01*
X0231250Y0279451D01*
X0253171Y0284451D02*
X0253173Y0284612D01*
X0253179Y0284772D01*
X0253189Y0284933D01*
X0253203Y0285093D01*
X0253221Y0285253D01*
X0253242Y0285412D01*
X0253268Y0285571D01*
X0253298Y0285729D01*
X0253331Y0285886D01*
X0253369Y0286043D01*
X0253410Y0286198D01*
X0253455Y0286352D01*
X0253504Y0286505D01*
X0253557Y0286657D01*
X0253613Y0286808D01*
X0253674Y0286957D01*
X0253737Y0287105D01*
X0253805Y0287251D01*
X0253876Y0287395D01*
X0253950Y0287537D01*
X0254028Y0287678D01*
X0254110Y0287816D01*
X0254195Y0287953D01*
X0254283Y0288087D01*
X0254375Y0288219D01*
X0254470Y0288349D01*
X0254568Y0288477D01*
X0254669Y0288602D01*
X0254773Y0288724D01*
X0254880Y0288844D01*
X0254990Y0288961D01*
X0255103Y0289076D01*
X0255219Y0289187D01*
X0255338Y0289296D01*
X0255459Y0289401D01*
X0255583Y0289504D01*
X0255709Y0289604D01*
X0255837Y0289700D01*
X0255968Y0289793D01*
X0256102Y0289883D01*
X0256237Y0289970D01*
X0256375Y0290053D01*
X0256514Y0290133D01*
X0256656Y0290209D01*
X0256799Y0290282D01*
X0256944Y0290351D01*
X0257091Y0290417D01*
X0257239Y0290479D01*
X0257389Y0290537D01*
X0257540Y0290592D01*
X0257693Y0290643D01*
X0257847Y0290690D01*
X0258002Y0290733D01*
X0258158Y0290772D01*
X0258314Y0290808D01*
X0258472Y0290839D01*
X0258630Y0290867D01*
X0258789Y0290891D01*
X0258949Y0290911D01*
X0259109Y0290927D01*
X0259269Y0290939D01*
X0259430Y0290947D01*
X0259591Y0290951D01*
X0259751Y0290951D01*
X0259912Y0290947D01*
X0260073Y0290939D01*
X0260233Y0290927D01*
X0260393Y0290911D01*
X0260553Y0290891D01*
X0260712Y0290867D01*
X0260870Y0290839D01*
X0261028Y0290808D01*
X0261184Y0290772D01*
X0261340Y0290733D01*
X0261495Y0290690D01*
X0261649Y0290643D01*
X0261802Y0290592D01*
X0261953Y0290537D01*
X0262103Y0290479D01*
X0262251Y0290417D01*
X0262398Y0290351D01*
X0262543Y0290282D01*
X0262686Y0290209D01*
X0262828Y0290133D01*
X0262967Y0290053D01*
X0263105Y0289970D01*
X0263240Y0289883D01*
X0263374Y0289793D01*
X0263505Y0289700D01*
X0263633Y0289604D01*
X0263759Y0289504D01*
X0263883Y0289401D01*
X0264004Y0289296D01*
X0264123Y0289187D01*
X0264239Y0289076D01*
X0264352Y0288961D01*
X0264462Y0288844D01*
X0264569Y0288724D01*
X0264673Y0288602D01*
X0264774Y0288477D01*
X0264872Y0288349D01*
X0264967Y0288219D01*
X0265059Y0288087D01*
X0265147Y0287953D01*
X0265232Y0287816D01*
X0265314Y0287678D01*
X0265392Y0287537D01*
X0265466Y0287395D01*
X0265537Y0287251D01*
X0265605Y0287105D01*
X0265668Y0286957D01*
X0265729Y0286808D01*
X0265785Y0286657D01*
X0265838Y0286505D01*
X0265887Y0286352D01*
X0265932Y0286198D01*
X0265973Y0286043D01*
X0266011Y0285886D01*
X0266044Y0285729D01*
X0266074Y0285571D01*
X0266100Y0285412D01*
X0266121Y0285253D01*
X0266139Y0285093D01*
X0266153Y0284933D01*
X0266163Y0284772D01*
X0266169Y0284612D01*
X0266171Y0284451D01*
X0266169Y0284290D01*
X0266163Y0284130D01*
X0266153Y0283969D01*
X0266139Y0283809D01*
X0266121Y0283649D01*
X0266100Y0283490D01*
X0266074Y0283331D01*
X0266044Y0283173D01*
X0266011Y0283016D01*
X0265973Y0282859D01*
X0265932Y0282704D01*
X0265887Y0282550D01*
X0265838Y0282397D01*
X0265785Y0282245D01*
X0265729Y0282094D01*
X0265668Y0281945D01*
X0265605Y0281797D01*
X0265537Y0281651D01*
X0265466Y0281507D01*
X0265392Y0281365D01*
X0265314Y0281224D01*
X0265232Y0281086D01*
X0265147Y0280949D01*
X0265059Y0280815D01*
X0264967Y0280683D01*
X0264872Y0280553D01*
X0264774Y0280425D01*
X0264673Y0280300D01*
X0264569Y0280178D01*
X0264462Y0280058D01*
X0264352Y0279941D01*
X0264239Y0279826D01*
X0264123Y0279715D01*
X0264004Y0279606D01*
X0263883Y0279501D01*
X0263759Y0279398D01*
X0263633Y0279298D01*
X0263505Y0279202D01*
X0263374Y0279109D01*
X0263240Y0279019D01*
X0263105Y0278932D01*
X0262967Y0278849D01*
X0262828Y0278769D01*
X0262686Y0278693D01*
X0262543Y0278620D01*
X0262398Y0278551D01*
X0262251Y0278485D01*
X0262103Y0278423D01*
X0261953Y0278365D01*
X0261802Y0278310D01*
X0261649Y0278259D01*
X0261495Y0278212D01*
X0261340Y0278169D01*
X0261184Y0278130D01*
X0261028Y0278094D01*
X0260870Y0278063D01*
X0260712Y0278035D01*
X0260553Y0278011D01*
X0260393Y0277991D01*
X0260233Y0277975D01*
X0260073Y0277963D01*
X0259912Y0277955D01*
X0259751Y0277951D01*
X0259591Y0277951D01*
X0259430Y0277955D01*
X0259269Y0277963D01*
X0259109Y0277975D01*
X0258949Y0277991D01*
X0258789Y0278011D01*
X0258630Y0278035D01*
X0258472Y0278063D01*
X0258314Y0278094D01*
X0258158Y0278130D01*
X0258002Y0278169D01*
X0257847Y0278212D01*
X0257693Y0278259D01*
X0257540Y0278310D01*
X0257389Y0278365D01*
X0257239Y0278423D01*
X0257091Y0278485D01*
X0256944Y0278551D01*
X0256799Y0278620D01*
X0256656Y0278693D01*
X0256514Y0278769D01*
X0256375Y0278849D01*
X0256237Y0278932D01*
X0256102Y0279019D01*
X0255968Y0279109D01*
X0255837Y0279202D01*
X0255709Y0279298D01*
X0255583Y0279398D01*
X0255459Y0279501D01*
X0255338Y0279606D01*
X0255219Y0279715D01*
X0255103Y0279826D01*
X0254990Y0279941D01*
X0254880Y0280058D01*
X0254773Y0280178D01*
X0254669Y0280300D01*
X0254568Y0280425D01*
X0254470Y0280553D01*
X0254375Y0280683D01*
X0254283Y0280815D01*
X0254195Y0280949D01*
X0254110Y0281086D01*
X0254028Y0281224D01*
X0253950Y0281365D01*
X0253876Y0281507D01*
X0253805Y0281651D01*
X0253737Y0281797D01*
X0253674Y0281945D01*
X0253613Y0282094D01*
X0253557Y0282245D01*
X0253504Y0282397D01*
X0253455Y0282550D01*
X0253410Y0282704D01*
X0253369Y0282859D01*
X0253331Y0283016D01*
X0253298Y0283173D01*
X0253268Y0283331D01*
X0253242Y0283490D01*
X0253221Y0283649D01*
X0253203Y0283809D01*
X0253189Y0283969D01*
X0253179Y0284130D01*
X0253173Y0284290D01*
X0253171Y0284451D01*
X0041250Y0284451D02*
X0041252Y0284612D01*
X0041258Y0284772D01*
X0041268Y0284933D01*
X0041282Y0285093D01*
X0041300Y0285253D01*
X0041321Y0285412D01*
X0041347Y0285571D01*
X0041377Y0285729D01*
X0041410Y0285886D01*
X0041448Y0286043D01*
X0041489Y0286198D01*
X0041534Y0286352D01*
X0041583Y0286505D01*
X0041636Y0286657D01*
X0041692Y0286808D01*
X0041753Y0286957D01*
X0041816Y0287105D01*
X0041884Y0287251D01*
X0041955Y0287395D01*
X0042029Y0287537D01*
X0042107Y0287678D01*
X0042189Y0287816D01*
X0042274Y0287953D01*
X0042362Y0288087D01*
X0042454Y0288219D01*
X0042549Y0288349D01*
X0042647Y0288477D01*
X0042748Y0288602D01*
X0042852Y0288724D01*
X0042959Y0288844D01*
X0043069Y0288961D01*
X0043182Y0289076D01*
X0043298Y0289187D01*
X0043417Y0289296D01*
X0043538Y0289401D01*
X0043662Y0289504D01*
X0043788Y0289604D01*
X0043916Y0289700D01*
X0044047Y0289793D01*
X0044181Y0289883D01*
X0044316Y0289970D01*
X0044454Y0290053D01*
X0044593Y0290133D01*
X0044735Y0290209D01*
X0044878Y0290282D01*
X0045023Y0290351D01*
X0045170Y0290417D01*
X0045318Y0290479D01*
X0045468Y0290537D01*
X0045619Y0290592D01*
X0045772Y0290643D01*
X0045926Y0290690D01*
X0046081Y0290733D01*
X0046237Y0290772D01*
X0046393Y0290808D01*
X0046551Y0290839D01*
X0046709Y0290867D01*
X0046868Y0290891D01*
X0047028Y0290911D01*
X0047188Y0290927D01*
X0047348Y0290939D01*
X0047509Y0290947D01*
X0047670Y0290951D01*
X0047830Y0290951D01*
X0047991Y0290947D01*
X0048152Y0290939D01*
X0048312Y0290927D01*
X0048472Y0290911D01*
X0048632Y0290891D01*
X0048791Y0290867D01*
X0048949Y0290839D01*
X0049107Y0290808D01*
X0049263Y0290772D01*
X0049419Y0290733D01*
X0049574Y0290690D01*
X0049728Y0290643D01*
X0049881Y0290592D01*
X0050032Y0290537D01*
X0050182Y0290479D01*
X0050330Y0290417D01*
X0050477Y0290351D01*
X0050622Y0290282D01*
X0050765Y0290209D01*
X0050907Y0290133D01*
X0051046Y0290053D01*
X0051184Y0289970D01*
X0051319Y0289883D01*
X0051453Y0289793D01*
X0051584Y0289700D01*
X0051712Y0289604D01*
X0051838Y0289504D01*
X0051962Y0289401D01*
X0052083Y0289296D01*
X0052202Y0289187D01*
X0052318Y0289076D01*
X0052431Y0288961D01*
X0052541Y0288844D01*
X0052648Y0288724D01*
X0052752Y0288602D01*
X0052853Y0288477D01*
X0052951Y0288349D01*
X0053046Y0288219D01*
X0053138Y0288087D01*
X0053226Y0287953D01*
X0053311Y0287816D01*
X0053393Y0287678D01*
X0053471Y0287537D01*
X0053545Y0287395D01*
X0053616Y0287251D01*
X0053684Y0287105D01*
X0053747Y0286957D01*
X0053808Y0286808D01*
X0053864Y0286657D01*
X0053917Y0286505D01*
X0053966Y0286352D01*
X0054011Y0286198D01*
X0054052Y0286043D01*
X0054090Y0285886D01*
X0054123Y0285729D01*
X0054153Y0285571D01*
X0054179Y0285412D01*
X0054200Y0285253D01*
X0054218Y0285093D01*
X0054232Y0284933D01*
X0054242Y0284772D01*
X0054248Y0284612D01*
X0054250Y0284451D01*
X0054248Y0284290D01*
X0054242Y0284130D01*
X0054232Y0283969D01*
X0054218Y0283809D01*
X0054200Y0283649D01*
X0054179Y0283490D01*
X0054153Y0283331D01*
X0054123Y0283173D01*
X0054090Y0283016D01*
X0054052Y0282859D01*
X0054011Y0282704D01*
X0053966Y0282550D01*
X0053917Y0282397D01*
X0053864Y0282245D01*
X0053808Y0282094D01*
X0053747Y0281945D01*
X0053684Y0281797D01*
X0053616Y0281651D01*
X0053545Y0281507D01*
X0053471Y0281365D01*
X0053393Y0281224D01*
X0053311Y0281086D01*
X0053226Y0280949D01*
X0053138Y0280815D01*
X0053046Y0280683D01*
X0052951Y0280553D01*
X0052853Y0280425D01*
X0052752Y0280300D01*
X0052648Y0280178D01*
X0052541Y0280058D01*
X0052431Y0279941D01*
X0052318Y0279826D01*
X0052202Y0279715D01*
X0052083Y0279606D01*
X0051962Y0279501D01*
X0051838Y0279398D01*
X0051712Y0279298D01*
X0051584Y0279202D01*
X0051453Y0279109D01*
X0051319Y0279019D01*
X0051184Y0278932D01*
X0051046Y0278849D01*
X0050907Y0278769D01*
X0050765Y0278693D01*
X0050622Y0278620D01*
X0050477Y0278551D01*
X0050330Y0278485D01*
X0050182Y0278423D01*
X0050032Y0278365D01*
X0049881Y0278310D01*
X0049728Y0278259D01*
X0049574Y0278212D01*
X0049419Y0278169D01*
X0049263Y0278130D01*
X0049107Y0278094D01*
X0048949Y0278063D01*
X0048791Y0278035D01*
X0048632Y0278011D01*
X0048472Y0277991D01*
X0048312Y0277975D01*
X0048152Y0277963D01*
X0047991Y0277955D01*
X0047830Y0277951D01*
X0047670Y0277951D01*
X0047509Y0277955D01*
X0047348Y0277963D01*
X0047188Y0277975D01*
X0047028Y0277991D01*
X0046868Y0278011D01*
X0046709Y0278035D01*
X0046551Y0278063D01*
X0046393Y0278094D01*
X0046237Y0278130D01*
X0046081Y0278169D01*
X0045926Y0278212D01*
X0045772Y0278259D01*
X0045619Y0278310D01*
X0045468Y0278365D01*
X0045318Y0278423D01*
X0045170Y0278485D01*
X0045023Y0278551D01*
X0044878Y0278620D01*
X0044735Y0278693D01*
X0044593Y0278769D01*
X0044454Y0278849D01*
X0044316Y0278932D01*
X0044181Y0279019D01*
X0044047Y0279109D01*
X0043916Y0279202D01*
X0043788Y0279298D01*
X0043662Y0279398D01*
X0043538Y0279501D01*
X0043417Y0279606D01*
X0043298Y0279715D01*
X0043182Y0279826D01*
X0043069Y0279941D01*
X0042959Y0280058D01*
X0042852Y0280178D01*
X0042748Y0280300D01*
X0042647Y0280425D01*
X0042549Y0280553D01*
X0042454Y0280683D01*
X0042362Y0280815D01*
X0042274Y0280949D01*
X0042189Y0281086D01*
X0042107Y0281224D01*
X0042029Y0281365D01*
X0041955Y0281507D01*
X0041884Y0281651D01*
X0041816Y0281797D01*
X0041753Y0281945D01*
X0041692Y0282094D01*
X0041636Y0282245D01*
X0041583Y0282397D01*
X0041534Y0282550D01*
X0041489Y0282704D01*
X0041448Y0282859D01*
X0041410Y0283016D01*
X0041377Y0283173D01*
X0041347Y0283331D01*
X0041321Y0283490D01*
X0041300Y0283649D01*
X0041282Y0283809D01*
X0041268Y0283969D01*
X0041258Y0284130D01*
X0041252Y0284290D01*
X0041250Y0284451D01*
X0041250Y0204451D02*
X0041252Y0204612D01*
X0041258Y0204772D01*
X0041268Y0204933D01*
X0041282Y0205093D01*
X0041300Y0205253D01*
X0041321Y0205412D01*
X0041347Y0205571D01*
X0041377Y0205729D01*
X0041410Y0205886D01*
X0041448Y0206043D01*
X0041489Y0206198D01*
X0041534Y0206352D01*
X0041583Y0206505D01*
X0041636Y0206657D01*
X0041692Y0206808D01*
X0041753Y0206957D01*
X0041816Y0207105D01*
X0041884Y0207251D01*
X0041955Y0207395D01*
X0042029Y0207537D01*
X0042107Y0207678D01*
X0042189Y0207816D01*
X0042274Y0207953D01*
X0042362Y0208087D01*
X0042454Y0208219D01*
X0042549Y0208349D01*
X0042647Y0208477D01*
X0042748Y0208602D01*
X0042852Y0208724D01*
X0042959Y0208844D01*
X0043069Y0208961D01*
X0043182Y0209076D01*
X0043298Y0209187D01*
X0043417Y0209296D01*
X0043538Y0209401D01*
X0043662Y0209504D01*
X0043788Y0209604D01*
X0043916Y0209700D01*
X0044047Y0209793D01*
X0044181Y0209883D01*
X0044316Y0209970D01*
X0044454Y0210053D01*
X0044593Y0210133D01*
X0044735Y0210209D01*
X0044878Y0210282D01*
X0045023Y0210351D01*
X0045170Y0210417D01*
X0045318Y0210479D01*
X0045468Y0210537D01*
X0045619Y0210592D01*
X0045772Y0210643D01*
X0045926Y0210690D01*
X0046081Y0210733D01*
X0046237Y0210772D01*
X0046393Y0210808D01*
X0046551Y0210839D01*
X0046709Y0210867D01*
X0046868Y0210891D01*
X0047028Y0210911D01*
X0047188Y0210927D01*
X0047348Y0210939D01*
X0047509Y0210947D01*
X0047670Y0210951D01*
X0047830Y0210951D01*
X0047991Y0210947D01*
X0048152Y0210939D01*
X0048312Y0210927D01*
X0048472Y0210911D01*
X0048632Y0210891D01*
X0048791Y0210867D01*
X0048949Y0210839D01*
X0049107Y0210808D01*
X0049263Y0210772D01*
X0049419Y0210733D01*
X0049574Y0210690D01*
X0049728Y0210643D01*
X0049881Y0210592D01*
X0050032Y0210537D01*
X0050182Y0210479D01*
X0050330Y0210417D01*
X0050477Y0210351D01*
X0050622Y0210282D01*
X0050765Y0210209D01*
X0050907Y0210133D01*
X0051046Y0210053D01*
X0051184Y0209970D01*
X0051319Y0209883D01*
X0051453Y0209793D01*
X0051584Y0209700D01*
X0051712Y0209604D01*
X0051838Y0209504D01*
X0051962Y0209401D01*
X0052083Y0209296D01*
X0052202Y0209187D01*
X0052318Y0209076D01*
X0052431Y0208961D01*
X0052541Y0208844D01*
X0052648Y0208724D01*
X0052752Y0208602D01*
X0052853Y0208477D01*
X0052951Y0208349D01*
X0053046Y0208219D01*
X0053138Y0208087D01*
X0053226Y0207953D01*
X0053311Y0207816D01*
X0053393Y0207678D01*
X0053471Y0207537D01*
X0053545Y0207395D01*
X0053616Y0207251D01*
X0053684Y0207105D01*
X0053747Y0206957D01*
X0053808Y0206808D01*
X0053864Y0206657D01*
X0053917Y0206505D01*
X0053966Y0206352D01*
X0054011Y0206198D01*
X0054052Y0206043D01*
X0054090Y0205886D01*
X0054123Y0205729D01*
X0054153Y0205571D01*
X0054179Y0205412D01*
X0054200Y0205253D01*
X0054218Y0205093D01*
X0054232Y0204933D01*
X0054242Y0204772D01*
X0054248Y0204612D01*
X0054250Y0204451D01*
X0054248Y0204290D01*
X0054242Y0204130D01*
X0054232Y0203969D01*
X0054218Y0203809D01*
X0054200Y0203649D01*
X0054179Y0203490D01*
X0054153Y0203331D01*
X0054123Y0203173D01*
X0054090Y0203016D01*
X0054052Y0202859D01*
X0054011Y0202704D01*
X0053966Y0202550D01*
X0053917Y0202397D01*
X0053864Y0202245D01*
X0053808Y0202094D01*
X0053747Y0201945D01*
X0053684Y0201797D01*
X0053616Y0201651D01*
X0053545Y0201507D01*
X0053471Y0201365D01*
X0053393Y0201224D01*
X0053311Y0201086D01*
X0053226Y0200949D01*
X0053138Y0200815D01*
X0053046Y0200683D01*
X0052951Y0200553D01*
X0052853Y0200425D01*
X0052752Y0200300D01*
X0052648Y0200178D01*
X0052541Y0200058D01*
X0052431Y0199941D01*
X0052318Y0199826D01*
X0052202Y0199715D01*
X0052083Y0199606D01*
X0051962Y0199501D01*
X0051838Y0199398D01*
X0051712Y0199298D01*
X0051584Y0199202D01*
X0051453Y0199109D01*
X0051319Y0199019D01*
X0051184Y0198932D01*
X0051046Y0198849D01*
X0050907Y0198769D01*
X0050765Y0198693D01*
X0050622Y0198620D01*
X0050477Y0198551D01*
X0050330Y0198485D01*
X0050182Y0198423D01*
X0050032Y0198365D01*
X0049881Y0198310D01*
X0049728Y0198259D01*
X0049574Y0198212D01*
X0049419Y0198169D01*
X0049263Y0198130D01*
X0049107Y0198094D01*
X0048949Y0198063D01*
X0048791Y0198035D01*
X0048632Y0198011D01*
X0048472Y0197991D01*
X0048312Y0197975D01*
X0048152Y0197963D01*
X0047991Y0197955D01*
X0047830Y0197951D01*
X0047670Y0197951D01*
X0047509Y0197955D01*
X0047348Y0197963D01*
X0047188Y0197975D01*
X0047028Y0197991D01*
X0046868Y0198011D01*
X0046709Y0198035D01*
X0046551Y0198063D01*
X0046393Y0198094D01*
X0046237Y0198130D01*
X0046081Y0198169D01*
X0045926Y0198212D01*
X0045772Y0198259D01*
X0045619Y0198310D01*
X0045468Y0198365D01*
X0045318Y0198423D01*
X0045170Y0198485D01*
X0045023Y0198551D01*
X0044878Y0198620D01*
X0044735Y0198693D01*
X0044593Y0198769D01*
X0044454Y0198849D01*
X0044316Y0198932D01*
X0044181Y0199019D01*
X0044047Y0199109D01*
X0043916Y0199202D01*
X0043788Y0199298D01*
X0043662Y0199398D01*
X0043538Y0199501D01*
X0043417Y0199606D01*
X0043298Y0199715D01*
X0043182Y0199826D01*
X0043069Y0199941D01*
X0042959Y0200058D01*
X0042852Y0200178D01*
X0042748Y0200300D01*
X0042647Y0200425D01*
X0042549Y0200553D01*
X0042454Y0200683D01*
X0042362Y0200815D01*
X0042274Y0200949D01*
X0042189Y0201086D01*
X0042107Y0201224D01*
X0042029Y0201365D01*
X0041955Y0201507D01*
X0041884Y0201651D01*
X0041816Y0201797D01*
X0041753Y0201945D01*
X0041692Y0202094D01*
X0041636Y0202245D01*
X0041583Y0202397D01*
X0041534Y0202550D01*
X0041489Y0202704D01*
X0041448Y0202859D01*
X0041410Y0203016D01*
X0041377Y0203173D01*
X0041347Y0203331D01*
X0041321Y0203490D01*
X0041300Y0203649D01*
X0041282Y0203809D01*
X0041268Y0203969D01*
X0041258Y0204130D01*
X0041252Y0204290D01*
X0041250Y0204451D01*
X0041250Y0123750D02*
X0041252Y0123911D01*
X0041258Y0124071D01*
X0041268Y0124232D01*
X0041282Y0124392D01*
X0041300Y0124552D01*
X0041321Y0124711D01*
X0041347Y0124870D01*
X0041377Y0125028D01*
X0041410Y0125185D01*
X0041448Y0125342D01*
X0041489Y0125497D01*
X0041534Y0125651D01*
X0041583Y0125804D01*
X0041636Y0125956D01*
X0041692Y0126107D01*
X0041753Y0126256D01*
X0041816Y0126404D01*
X0041884Y0126550D01*
X0041955Y0126694D01*
X0042029Y0126836D01*
X0042107Y0126977D01*
X0042189Y0127115D01*
X0042274Y0127252D01*
X0042362Y0127386D01*
X0042454Y0127518D01*
X0042549Y0127648D01*
X0042647Y0127776D01*
X0042748Y0127901D01*
X0042852Y0128023D01*
X0042959Y0128143D01*
X0043069Y0128260D01*
X0043182Y0128375D01*
X0043298Y0128486D01*
X0043417Y0128595D01*
X0043538Y0128700D01*
X0043662Y0128803D01*
X0043788Y0128903D01*
X0043916Y0128999D01*
X0044047Y0129092D01*
X0044181Y0129182D01*
X0044316Y0129269D01*
X0044454Y0129352D01*
X0044593Y0129432D01*
X0044735Y0129508D01*
X0044878Y0129581D01*
X0045023Y0129650D01*
X0045170Y0129716D01*
X0045318Y0129778D01*
X0045468Y0129836D01*
X0045619Y0129891D01*
X0045772Y0129942D01*
X0045926Y0129989D01*
X0046081Y0130032D01*
X0046237Y0130071D01*
X0046393Y0130107D01*
X0046551Y0130138D01*
X0046709Y0130166D01*
X0046868Y0130190D01*
X0047028Y0130210D01*
X0047188Y0130226D01*
X0047348Y0130238D01*
X0047509Y0130246D01*
X0047670Y0130250D01*
X0047830Y0130250D01*
X0047991Y0130246D01*
X0048152Y0130238D01*
X0048312Y0130226D01*
X0048472Y0130210D01*
X0048632Y0130190D01*
X0048791Y0130166D01*
X0048949Y0130138D01*
X0049107Y0130107D01*
X0049263Y0130071D01*
X0049419Y0130032D01*
X0049574Y0129989D01*
X0049728Y0129942D01*
X0049881Y0129891D01*
X0050032Y0129836D01*
X0050182Y0129778D01*
X0050330Y0129716D01*
X0050477Y0129650D01*
X0050622Y0129581D01*
X0050765Y0129508D01*
X0050907Y0129432D01*
X0051046Y0129352D01*
X0051184Y0129269D01*
X0051319Y0129182D01*
X0051453Y0129092D01*
X0051584Y0128999D01*
X0051712Y0128903D01*
X0051838Y0128803D01*
X0051962Y0128700D01*
X0052083Y0128595D01*
X0052202Y0128486D01*
X0052318Y0128375D01*
X0052431Y0128260D01*
X0052541Y0128143D01*
X0052648Y0128023D01*
X0052752Y0127901D01*
X0052853Y0127776D01*
X0052951Y0127648D01*
X0053046Y0127518D01*
X0053138Y0127386D01*
X0053226Y0127252D01*
X0053311Y0127115D01*
X0053393Y0126977D01*
X0053471Y0126836D01*
X0053545Y0126694D01*
X0053616Y0126550D01*
X0053684Y0126404D01*
X0053747Y0126256D01*
X0053808Y0126107D01*
X0053864Y0125956D01*
X0053917Y0125804D01*
X0053966Y0125651D01*
X0054011Y0125497D01*
X0054052Y0125342D01*
X0054090Y0125185D01*
X0054123Y0125028D01*
X0054153Y0124870D01*
X0054179Y0124711D01*
X0054200Y0124552D01*
X0054218Y0124392D01*
X0054232Y0124232D01*
X0054242Y0124071D01*
X0054248Y0123911D01*
X0054250Y0123750D01*
X0054248Y0123589D01*
X0054242Y0123429D01*
X0054232Y0123268D01*
X0054218Y0123108D01*
X0054200Y0122948D01*
X0054179Y0122789D01*
X0054153Y0122630D01*
X0054123Y0122472D01*
X0054090Y0122315D01*
X0054052Y0122158D01*
X0054011Y0122003D01*
X0053966Y0121849D01*
X0053917Y0121696D01*
X0053864Y0121544D01*
X0053808Y0121393D01*
X0053747Y0121244D01*
X0053684Y0121096D01*
X0053616Y0120950D01*
X0053545Y0120806D01*
X0053471Y0120664D01*
X0053393Y0120523D01*
X0053311Y0120385D01*
X0053226Y0120248D01*
X0053138Y0120114D01*
X0053046Y0119982D01*
X0052951Y0119852D01*
X0052853Y0119724D01*
X0052752Y0119599D01*
X0052648Y0119477D01*
X0052541Y0119357D01*
X0052431Y0119240D01*
X0052318Y0119125D01*
X0052202Y0119014D01*
X0052083Y0118905D01*
X0051962Y0118800D01*
X0051838Y0118697D01*
X0051712Y0118597D01*
X0051584Y0118501D01*
X0051453Y0118408D01*
X0051319Y0118318D01*
X0051184Y0118231D01*
X0051046Y0118148D01*
X0050907Y0118068D01*
X0050765Y0117992D01*
X0050622Y0117919D01*
X0050477Y0117850D01*
X0050330Y0117784D01*
X0050182Y0117722D01*
X0050032Y0117664D01*
X0049881Y0117609D01*
X0049728Y0117558D01*
X0049574Y0117511D01*
X0049419Y0117468D01*
X0049263Y0117429D01*
X0049107Y0117393D01*
X0048949Y0117362D01*
X0048791Y0117334D01*
X0048632Y0117310D01*
X0048472Y0117290D01*
X0048312Y0117274D01*
X0048152Y0117262D01*
X0047991Y0117254D01*
X0047830Y0117250D01*
X0047670Y0117250D01*
X0047509Y0117254D01*
X0047348Y0117262D01*
X0047188Y0117274D01*
X0047028Y0117290D01*
X0046868Y0117310D01*
X0046709Y0117334D01*
X0046551Y0117362D01*
X0046393Y0117393D01*
X0046237Y0117429D01*
X0046081Y0117468D01*
X0045926Y0117511D01*
X0045772Y0117558D01*
X0045619Y0117609D01*
X0045468Y0117664D01*
X0045318Y0117722D01*
X0045170Y0117784D01*
X0045023Y0117850D01*
X0044878Y0117919D01*
X0044735Y0117992D01*
X0044593Y0118068D01*
X0044454Y0118148D01*
X0044316Y0118231D01*
X0044181Y0118318D01*
X0044047Y0118408D01*
X0043916Y0118501D01*
X0043788Y0118597D01*
X0043662Y0118697D01*
X0043538Y0118800D01*
X0043417Y0118905D01*
X0043298Y0119014D01*
X0043182Y0119125D01*
X0043069Y0119240D01*
X0042959Y0119357D01*
X0042852Y0119477D01*
X0042748Y0119599D01*
X0042647Y0119724D01*
X0042549Y0119852D01*
X0042454Y0119982D01*
X0042362Y0120114D01*
X0042274Y0120248D01*
X0042189Y0120385D01*
X0042107Y0120523D01*
X0042029Y0120664D01*
X0041955Y0120806D01*
X0041884Y0120950D01*
X0041816Y0121096D01*
X0041753Y0121244D01*
X0041692Y0121393D01*
X0041636Y0121544D01*
X0041583Y0121696D01*
X0041534Y0121849D01*
X0041489Y0122003D01*
X0041448Y0122158D01*
X0041410Y0122315D01*
X0041377Y0122472D01*
X0041347Y0122630D01*
X0041321Y0122789D01*
X0041300Y0122948D01*
X0041282Y0123108D01*
X0041268Y0123268D01*
X0041258Y0123429D01*
X0041252Y0123589D01*
X0041250Y0123750D01*
X0041250Y0043750D02*
X0041252Y0043911D01*
X0041258Y0044071D01*
X0041268Y0044232D01*
X0041282Y0044392D01*
X0041300Y0044552D01*
X0041321Y0044711D01*
X0041347Y0044870D01*
X0041377Y0045028D01*
X0041410Y0045185D01*
X0041448Y0045342D01*
X0041489Y0045497D01*
X0041534Y0045651D01*
X0041583Y0045804D01*
X0041636Y0045956D01*
X0041692Y0046107D01*
X0041753Y0046256D01*
X0041816Y0046404D01*
X0041884Y0046550D01*
X0041955Y0046694D01*
X0042029Y0046836D01*
X0042107Y0046977D01*
X0042189Y0047115D01*
X0042274Y0047252D01*
X0042362Y0047386D01*
X0042454Y0047518D01*
X0042549Y0047648D01*
X0042647Y0047776D01*
X0042748Y0047901D01*
X0042852Y0048023D01*
X0042959Y0048143D01*
X0043069Y0048260D01*
X0043182Y0048375D01*
X0043298Y0048486D01*
X0043417Y0048595D01*
X0043538Y0048700D01*
X0043662Y0048803D01*
X0043788Y0048903D01*
X0043916Y0048999D01*
X0044047Y0049092D01*
X0044181Y0049182D01*
X0044316Y0049269D01*
X0044454Y0049352D01*
X0044593Y0049432D01*
X0044735Y0049508D01*
X0044878Y0049581D01*
X0045023Y0049650D01*
X0045170Y0049716D01*
X0045318Y0049778D01*
X0045468Y0049836D01*
X0045619Y0049891D01*
X0045772Y0049942D01*
X0045926Y0049989D01*
X0046081Y0050032D01*
X0046237Y0050071D01*
X0046393Y0050107D01*
X0046551Y0050138D01*
X0046709Y0050166D01*
X0046868Y0050190D01*
X0047028Y0050210D01*
X0047188Y0050226D01*
X0047348Y0050238D01*
X0047509Y0050246D01*
X0047670Y0050250D01*
X0047830Y0050250D01*
X0047991Y0050246D01*
X0048152Y0050238D01*
X0048312Y0050226D01*
X0048472Y0050210D01*
X0048632Y0050190D01*
X0048791Y0050166D01*
X0048949Y0050138D01*
X0049107Y0050107D01*
X0049263Y0050071D01*
X0049419Y0050032D01*
X0049574Y0049989D01*
X0049728Y0049942D01*
X0049881Y0049891D01*
X0050032Y0049836D01*
X0050182Y0049778D01*
X0050330Y0049716D01*
X0050477Y0049650D01*
X0050622Y0049581D01*
X0050765Y0049508D01*
X0050907Y0049432D01*
X0051046Y0049352D01*
X0051184Y0049269D01*
X0051319Y0049182D01*
X0051453Y0049092D01*
X0051584Y0048999D01*
X0051712Y0048903D01*
X0051838Y0048803D01*
X0051962Y0048700D01*
X0052083Y0048595D01*
X0052202Y0048486D01*
X0052318Y0048375D01*
X0052431Y0048260D01*
X0052541Y0048143D01*
X0052648Y0048023D01*
X0052752Y0047901D01*
X0052853Y0047776D01*
X0052951Y0047648D01*
X0053046Y0047518D01*
X0053138Y0047386D01*
X0053226Y0047252D01*
X0053311Y0047115D01*
X0053393Y0046977D01*
X0053471Y0046836D01*
X0053545Y0046694D01*
X0053616Y0046550D01*
X0053684Y0046404D01*
X0053747Y0046256D01*
X0053808Y0046107D01*
X0053864Y0045956D01*
X0053917Y0045804D01*
X0053966Y0045651D01*
X0054011Y0045497D01*
X0054052Y0045342D01*
X0054090Y0045185D01*
X0054123Y0045028D01*
X0054153Y0044870D01*
X0054179Y0044711D01*
X0054200Y0044552D01*
X0054218Y0044392D01*
X0054232Y0044232D01*
X0054242Y0044071D01*
X0054248Y0043911D01*
X0054250Y0043750D01*
X0054248Y0043589D01*
X0054242Y0043429D01*
X0054232Y0043268D01*
X0054218Y0043108D01*
X0054200Y0042948D01*
X0054179Y0042789D01*
X0054153Y0042630D01*
X0054123Y0042472D01*
X0054090Y0042315D01*
X0054052Y0042158D01*
X0054011Y0042003D01*
X0053966Y0041849D01*
X0053917Y0041696D01*
X0053864Y0041544D01*
X0053808Y0041393D01*
X0053747Y0041244D01*
X0053684Y0041096D01*
X0053616Y0040950D01*
X0053545Y0040806D01*
X0053471Y0040664D01*
X0053393Y0040523D01*
X0053311Y0040385D01*
X0053226Y0040248D01*
X0053138Y0040114D01*
X0053046Y0039982D01*
X0052951Y0039852D01*
X0052853Y0039724D01*
X0052752Y0039599D01*
X0052648Y0039477D01*
X0052541Y0039357D01*
X0052431Y0039240D01*
X0052318Y0039125D01*
X0052202Y0039014D01*
X0052083Y0038905D01*
X0051962Y0038800D01*
X0051838Y0038697D01*
X0051712Y0038597D01*
X0051584Y0038501D01*
X0051453Y0038408D01*
X0051319Y0038318D01*
X0051184Y0038231D01*
X0051046Y0038148D01*
X0050907Y0038068D01*
X0050765Y0037992D01*
X0050622Y0037919D01*
X0050477Y0037850D01*
X0050330Y0037784D01*
X0050182Y0037722D01*
X0050032Y0037664D01*
X0049881Y0037609D01*
X0049728Y0037558D01*
X0049574Y0037511D01*
X0049419Y0037468D01*
X0049263Y0037429D01*
X0049107Y0037393D01*
X0048949Y0037362D01*
X0048791Y0037334D01*
X0048632Y0037310D01*
X0048472Y0037290D01*
X0048312Y0037274D01*
X0048152Y0037262D01*
X0047991Y0037254D01*
X0047830Y0037250D01*
X0047670Y0037250D01*
X0047509Y0037254D01*
X0047348Y0037262D01*
X0047188Y0037274D01*
X0047028Y0037290D01*
X0046868Y0037310D01*
X0046709Y0037334D01*
X0046551Y0037362D01*
X0046393Y0037393D01*
X0046237Y0037429D01*
X0046081Y0037468D01*
X0045926Y0037511D01*
X0045772Y0037558D01*
X0045619Y0037609D01*
X0045468Y0037664D01*
X0045318Y0037722D01*
X0045170Y0037784D01*
X0045023Y0037850D01*
X0044878Y0037919D01*
X0044735Y0037992D01*
X0044593Y0038068D01*
X0044454Y0038148D01*
X0044316Y0038231D01*
X0044181Y0038318D01*
X0044047Y0038408D01*
X0043916Y0038501D01*
X0043788Y0038597D01*
X0043662Y0038697D01*
X0043538Y0038800D01*
X0043417Y0038905D01*
X0043298Y0039014D01*
X0043182Y0039125D01*
X0043069Y0039240D01*
X0042959Y0039357D01*
X0042852Y0039477D01*
X0042748Y0039599D01*
X0042647Y0039724D01*
X0042549Y0039852D01*
X0042454Y0039982D01*
X0042362Y0040114D01*
X0042274Y0040248D01*
X0042189Y0040385D01*
X0042107Y0040523D01*
X0042029Y0040664D01*
X0041955Y0040806D01*
X0041884Y0040950D01*
X0041816Y0041096D01*
X0041753Y0041244D01*
X0041692Y0041393D01*
X0041636Y0041544D01*
X0041583Y0041696D01*
X0041534Y0041849D01*
X0041489Y0042003D01*
X0041448Y0042158D01*
X0041410Y0042315D01*
X0041377Y0042472D01*
X0041347Y0042630D01*
X0041321Y0042789D01*
X0041300Y0042948D01*
X0041282Y0043108D01*
X0041268Y0043268D01*
X0041258Y0043429D01*
X0041252Y0043589D01*
X0041250Y0043750D01*
M02*
