G75*
%MOIN*%
%OFA0B0*%
%FSLAX25Y25*%
%IPPOS*%
%LPD*%
%AMOC8*
5,1,8,0,0,1.08239X$1,22.5*
%
%ADD10C,0.01181*%
%ADD11R,0.07874X0.04724*%
%ADD12R,0.05315X0.02362*%
%ADD13R,0.03346X0.08661*%
%ADD14R,0.03937X0.04134*%
%ADD15R,0.04331X0.03937*%
%ADD16R,0.09055X0.06299*%
%ADD17R,0.03937X0.07874*%
%ADD18R,0.07874X0.07874*%
%ADD19R,0.02200X0.05000*%
%ADD20R,0.05000X0.02200*%
%ADD21C,0.01772*%
%ADD22R,0.03937X0.04331*%
%ADD23R,0.11811X0.03937*%
D10*
X0195675Y0062372D02*
X0195675Y0065128D01*
X0195675Y0062372D02*
X0192919Y0062372D01*
X0192919Y0065128D01*
X0195675Y0065128D01*
X0195675Y0063552D02*
X0192919Y0063552D01*
X0192919Y0064732D02*
X0195675Y0064732D01*
X0202581Y0065128D02*
X0202581Y0062372D01*
X0199825Y0062372D01*
X0199825Y0065128D01*
X0202581Y0065128D01*
X0202581Y0063552D02*
X0199825Y0063552D01*
X0199825Y0064732D02*
X0202581Y0064732D01*
X0202581Y0077372D02*
X0202581Y0080128D01*
X0202581Y0077372D02*
X0199825Y0077372D01*
X0199825Y0080128D01*
X0202581Y0080128D01*
X0202581Y0078552D02*
X0199825Y0078552D01*
X0199825Y0079732D02*
X0202581Y0079732D01*
X0195675Y0080128D02*
X0195675Y0077372D01*
X0192919Y0077372D01*
X0192919Y0080128D01*
X0195675Y0080128D01*
X0195675Y0078552D02*
X0192919Y0078552D01*
X0192919Y0079732D02*
X0195675Y0079732D01*
X0195675Y0223073D02*
X0195675Y0225829D01*
X0195675Y0223073D02*
X0192919Y0223073D01*
X0192919Y0225829D01*
X0195675Y0225829D01*
X0195675Y0224253D02*
X0192919Y0224253D01*
X0192919Y0225433D02*
X0195675Y0225433D01*
X0202581Y0225829D02*
X0202581Y0223073D01*
X0199825Y0223073D01*
X0199825Y0225829D01*
X0202581Y0225829D01*
X0202581Y0224253D02*
X0199825Y0224253D01*
X0199825Y0225433D02*
X0202581Y0225433D01*
X0202581Y0238073D02*
X0202581Y0240829D01*
X0202581Y0238073D02*
X0199825Y0238073D01*
X0199825Y0240829D01*
X0202581Y0240829D01*
X0202581Y0239253D02*
X0199825Y0239253D01*
X0199825Y0240433D02*
X0202581Y0240433D01*
X0195675Y0240829D02*
X0195675Y0238073D01*
X0192919Y0238073D01*
X0192919Y0240829D01*
X0195675Y0240829D01*
X0195675Y0239253D02*
X0192919Y0239253D01*
X0192919Y0240433D02*
X0195675Y0240433D01*
X0407597Y0240829D02*
X0407597Y0238073D01*
X0404841Y0238073D01*
X0404841Y0240829D01*
X0407597Y0240829D01*
X0407597Y0239253D02*
X0404841Y0239253D01*
X0404841Y0240433D02*
X0407597Y0240433D01*
X0414502Y0240829D02*
X0414502Y0238073D01*
X0411746Y0238073D01*
X0411746Y0240829D01*
X0414502Y0240829D01*
X0414502Y0239253D02*
X0411746Y0239253D01*
X0411746Y0240433D02*
X0414502Y0240433D01*
X0414502Y0225829D02*
X0414502Y0223073D01*
X0411746Y0223073D01*
X0411746Y0225829D01*
X0414502Y0225829D01*
X0414502Y0224253D02*
X0411746Y0224253D01*
X0411746Y0225433D02*
X0414502Y0225433D01*
X0407597Y0225829D02*
X0407597Y0223073D01*
X0404841Y0223073D01*
X0404841Y0225829D01*
X0407597Y0225829D01*
X0407597Y0224253D02*
X0404841Y0224253D01*
X0404841Y0225433D02*
X0407597Y0225433D01*
X0407597Y0080128D02*
X0407597Y0077372D01*
X0404841Y0077372D01*
X0404841Y0080128D01*
X0407597Y0080128D01*
X0407597Y0078552D02*
X0404841Y0078552D01*
X0404841Y0079732D02*
X0407597Y0079732D01*
X0414502Y0080128D02*
X0414502Y0077372D01*
X0411746Y0077372D01*
X0411746Y0080128D01*
X0414502Y0080128D01*
X0414502Y0078552D02*
X0411746Y0078552D01*
X0411746Y0079732D02*
X0414502Y0079732D01*
X0414502Y0065128D02*
X0414502Y0062372D01*
X0411746Y0062372D01*
X0411746Y0065128D01*
X0414502Y0065128D01*
X0414502Y0063552D02*
X0411746Y0063552D01*
X0411746Y0064732D02*
X0414502Y0064732D01*
X0407597Y0065128D02*
X0407597Y0062372D01*
X0404841Y0062372D01*
X0404841Y0065128D01*
X0407597Y0065128D01*
X0407597Y0063552D02*
X0404841Y0063552D01*
X0404841Y0064732D02*
X0407597Y0064732D01*
D11*
X0454140Y0074774D03*
X0454140Y0082726D03*
X0454140Y0104774D03*
X0454140Y0052726D03*
X0242219Y0052726D03*
X0242219Y0074774D03*
X0242219Y0082726D03*
X0242219Y0104774D03*
X0242219Y0213427D03*
X0242219Y0235474D03*
X0242219Y0243427D03*
X0242219Y0265474D03*
X0454140Y0265474D03*
X0454140Y0243427D03*
X0454140Y0235474D03*
X0454140Y0213427D03*
D12*
X0439671Y0218545D03*
X0439671Y0222482D03*
X0439671Y0226419D03*
X0439671Y0230356D03*
X0439671Y0248545D03*
X0439671Y0252482D03*
X0439671Y0256419D03*
X0439671Y0260356D03*
X0227750Y0260356D03*
X0227750Y0256419D03*
X0227750Y0252482D03*
X0227750Y0248545D03*
X0227750Y0230356D03*
X0227750Y0226419D03*
X0227750Y0222482D03*
X0227750Y0218545D03*
X0227750Y0099656D03*
X0227750Y0095719D03*
X0227750Y0091781D03*
X0227750Y0087844D03*
X0227750Y0069656D03*
X0227750Y0065719D03*
X0227750Y0061781D03*
X0227750Y0057844D03*
X0439671Y0057844D03*
X0439671Y0061781D03*
X0439671Y0065719D03*
X0439671Y0069656D03*
X0439671Y0087844D03*
X0439671Y0091781D03*
X0439671Y0095719D03*
X0439671Y0099656D03*
D13*
X0269585Y0079750D03*
X0258758Y0079750D03*
X0057663Y0079750D03*
X0046837Y0079750D03*
X0046837Y0240451D03*
X0057663Y0240451D03*
X0258758Y0240451D03*
X0269585Y0240451D03*
D14*
X0264171Y0234447D03*
X0264171Y0246455D03*
X0052250Y0246455D03*
X0052250Y0234447D03*
X0052250Y0085754D03*
X0052250Y0073746D03*
X0264171Y0073746D03*
X0264171Y0085754D03*
D15*
X0269325Y0091250D03*
X0276018Y0091250D03*
X0277518Y0059750D03*
X0270825Y0059750D03*
X0216096Y0088750D03*
X0216096Y0093750D03*
X0209404Y0093750D03*
X0209404Y0088750D03*
X0201096Y0088750D03*
X0201096Y0093750D03*
X0201096Y0098750D03*
X0194404Y0098750D03*
X0194404Y0093750D03*
X0194404Y0088750D03*
X0194404Y0073750D03*
X0201096Y0073750D03*
X0201096Y0058750D03*
X0194404Y0058750D03*
X0065596Y0059750D03*
X0058904Y0059750D03*
X0057404Y0091250D03*
X0064096Y0091250D03*
X0065596Y0220451D03*
X0058904Y0220451D03*
X0057404Y0251951D03*
X0064096Y0251951D03*
X0194404Y0254451D03*
X0194404Y0259451D03*
X0201096Y0259451D03*
X0201096Y0254451D03*
X0209404Y0254451D03*
X0209404Y0249451D03*
X0201096Y0249451D03*
X0194404Y0249451D03*
X0194404Y0234451D03*
X0201096Y0234451D03*
X0216096Y0249451D03*
X0216096Y0254451D03*
X0201096Y0219451D03*
X0194404Y0219451D03*
X0270825Y0220451D03*
X0277518Y0220451D03*
X0276018Y0251951D03*
X0269325Y0251951D03*
X0406325Y0254451D03*
X0406325Y0259451D03*
X0413018Y0259451D03*
X0413018Y0254451D03*
X0413018Y0249451D03*
X0406325Y0249451D03*
X0421325Y0249451D03*
X0428018Y0249451D03*
X0428018Y0254451D03*
X0421325Y0254451D03*
X0413018Y0234451D03*
X0406325Y0234451D03*
X0406325Y0219451D03*
X0413018Y0219451D03*
X0413018Y0098750D03*
X0413018Y0093750D03*
X0413018Y0088750D03*
X0406325Y0088750D03*
X0406325Y0093750D03*
X0406325Y0098750D03*
X0421325Y0093750D03*
X0421325Y0088750D03*
X0428018Y0088750D03*
X0428018Y0093750D03*
X0413018Y0073750D03*
X0406325Y0073750D03*
X0406325Y0058750D03*
X0413018Y0058750D03*
D16*
X0409770Y0038250D03*
X0434573Y0038250D03*
X0222652Y0038250D03*
X0197848Y0038250D03*
X0197848Y0198951D03*
X0222652Y0198951D03*
X0409770Y0198951D03*
X0434573Y0198951D03*
D17*
X0282703Y0272325D03*
X0070781Y0272325D03*
X0070781Y0111624D03*
X0282703Y0111624D03*
D18*
X0308293Y0111624D03*
X0096372Y0111624D03*
X0096372Y0272325D03*
X0308293Y0272325D03*
D19*
X0363648Y0251351D03*
X0366797Y0251351D03*
X0369947Y0251351D03*
X0373096Y0251351D03*
X0376246Y0251351D03*
X0379396Y0251351D03*
X0382545Y0251351D03*
X0385695Y0251351D03*
X0385695Y0217551D03*
X0382545Y0217551D03*
X0379396Y0217551D03*
X0376246Y0217551D03*
X0373096Y0217551D03*
X0369947Y0217551D03*
X0366797Y0217551D03*
X0363648Y0217551D03*
X0363648Y0090650D03*
X0366797Y0090650D03*
X0369947Y0090650D03*
X0373096Y0090650D03*
X0376246Y0090650D03*
X0379396Y0090650D03*
X0382545Y0090650D03*
X0385695Y0090650D03*
X0385695Y0056850D03*
X0382545Y0056850D03*
X0379396Y0056850D03*
X0376246Y0056850D03*
X0373096Y0056850D03*
X0369947Y0056850D03*
X0366797Y0056850D03*
X0363648Y0056850D03*
X0173774Y0056850D03*
X0170624Y0056850D03*
X0167474Y0056850D03*
X0164325Y0056850D03*
X0161175Y0056850D03*
X0158026Y0056850D03*
X0154876Y0056850D03*
X0151726Y0056850D03*
X0151726Y0090650D03*
X0154876Y0090650D03*
X0158026Y0090650D03*
X0161175Y0090650D03*
X0164325Y0090650D03*
X0167474Y0090650D03*
X0170624Y0090650D03*
X0173774Y0090650D03*
X0173774Y0217551D03*
X0170624Y0217551D03*
X0167474Y0217551D03*
X0164325Y0217551D03*
X0161175Y0217551D03*
X0158026Y0217551D03*
X0154876Y0217551D03*
X0151726Y0217551D03*
X0151726Y0251351D03*
X0154876Y0251351D03*
X0158026Y0251351D03*
X0161175Y0251351D03*
X0164325Y0251351D03*
X0167474Y0251351D03*
X0170624Y0251351D03*
X0173774Y0251351D03*
D20*
X0179650Y0245474D03*
X0179650Y0242325D03*
X0179650Y0239175D03*
X0179650Y0236026D03*
X0179650Y0232876D03*
X0179650Y0229726D03*
X0179650Y0226577D03*
X0179650Y0223427D03*
X0145850Y0223427D03*
X0145850Y0226577D03*
X0145850Y0229726D03*
X0145850Y0232876D03*
X0145850Y0236026D03*
X0145850Y0239175D03*
X0145850Y0242325D03*
X0145850Y0245474D03*
X0357771Y0245474D03*
X0357771Y0242325D03*
X0357771Y0239175D03*
X0357771Y0236026D03*
X0357771Y0232876D03*
X0357771Y0229726D03*
X0357771Y0226577D03*
X0357771Y0223427D03*
X0391571Y0223427D03*
X0391571Y0226577D03*
X0391571Y0229726D03*
X0391571Y0232876D03*
X0391571Y0236026D03*
X0391571Y0239175D03*
X0391571Y0242325D03*
X0391571Y0245474D03*
X0391571Y0084774D03*
X0391571Y0081624D03*
X0391571Y0078474D03*
X0391571Y0075325D03*
X0391571Y0072175D03*
X0391571Y0069026D03*
X0391571Y0065876D03*
X0391571Y0062726D03*
X0357771Y0062726D03*
X0357771Y0065876D03*
X0357771Y0069026D03*
X0357771Y0072175D03*
X0357771Y0075325D03*
X0357771Y0078474D03*
X0357771Y0081624D03*
X0357771Y0084774D03*
X0179650Y0084774D03*
X0179650Y0081624D03*
X0179650Y0078474D03*
X0179650Y0075325D03*
X0179650Y0072175D03*
X0179650Y0069026D03*
X0179650Y0065876D03*
X0179650Y0062726D03*
X0145850Y0062726D03*
X0145850Y0065876D03*
X0145850Y0069026D03*
X0145850Y0072175D03*
X0145850Y0075325D03*
X0145850Y0078474D03*
X0145850Y0081624D03*
X0145850Y0084774D03*
D21*
X0153526Y0098386D02*
X0153526Y0104114D01*
X0158250Y0104114D02*
X0158250Y0098386D01*
X0162974Y0098386D02*
X0162974Y0104114D01*
X0365447Y0104114D02*
X0365447Y0098386D01*
X0370171Y0098386D02*
X0370171Y0104114D01*
X0374896Y0104114D02*
X0374896Y0098386D01*
X0374896Y0259087D02*
X0374896Y0264815D01*
X0370171Y0264815D02*
X0370171Y0259087D01*
X0365447Y0259087D02*
X0365447Y0264815D01*
X0162974Y0264815D02*
X0162974Y0259087D01*
X0158250Y0259087D02*
X0158250Y0264815D01*
X0153526Y0264815D02*
X0153526Y0259087D01*
D22*
X0147750Y0266104D03*
X0147750Y0272797D03*
X0199250Y0272797D03*
X0199250Y0266104D03*
X0276171Y0258797D03*
X0282671Y0266104D03*
X0282671Y0272797D03*
X0276171Y0252104D03*
X0308171Y0266104D03*
X0308171Y0272797D03*
X0359671Y0272797D03*
X0359671Y0266104D03*
X0411171Y0266104D03*
X0411171Y0272797D03*
X0411171Y0112096D03*
X0411171Y0105404D03*
X0359671Y0105404D03*
X0359671Y0112096D03*
X0308171Y0112096D03*
X0308171Y0105404D03*
X0282671Y0105404D03*
X0282671Y0112096D03*
X0276171Y0098096D03*
X0276171Y0091404D03*
X0199250Y0105404D03*
X0199250Y0112096D03*
X0147750Y0112096D03*
X0147750Y0105404D03*
X0096250Y0105404D03*
X0096250Y0112096D03*
X0070750Y0112096D03*
X0070750Y0105404D03*
X0064250Y0098096D03*
X0064250Y0091404D03*
X0064250Y0252104D03*
X0064250Y0258797D03*
X0070750Y0266104D03*
X0070750Y0272797D03*
X0096250Y0272797D03*
X0096250Y0266104D03*
D23*
X0075222Y0036191D03*
X0075222Y0044065D03*
X0075222Y0051939D03*
X0075222Y0059813D03*
X0075222Y0067687D03*
X0075222Y0075561D03*
X0075222Y0083435D03*
X0075222Y0091309D03*
X0134278Y0091309D03*
X0134278Y0083435D03*
X0134278Y0075561D03*
X0134278Y0067687D03*
X0134278Y0059813D03*
X0134278Y0051939D03*
X0134278Y0044065D03*
X0134278Y0036191D03*
X0287144Y0036191D03*
X0287144Y0044065D03*
X0287144Y0051939D03*
X0287144Y0059813D03*
X0287144Y0067687D03*
X0287144Y0075561D03*
X0287144Y0083435D03*
X0287144Y0091309D03*
X0346199Y0091309D03*
X0346199Y0083435D03*
X0346199Y0075561D03*
X0346199Y0067687D03*
X0346199Y0059813D03*
X0346199Y0051939D03*
X0346199Y0044065D03*
X0346199Y0036191D03*
X0346199Y0196892D03*
X0346199Y0204766D03*
X0346199Y0212640D03*
X0346199Y0220514D03*
X0346199Y0228388D03*
X0346199Y0236262D03*
X0346199Y0244136D03*
X0346199Y0252010D03*
X0287144Y0252010D03*
X0287144Y0244136D03*
X0287144Y0236262D03*
X0287144Y0228388D03*
X0287144Y0220514D03*
X0287144Y0212640D03*
X0287144Y0204766D03*
X0287144Y0196892D03*
X0134278Y0196892D03*
X0134278Y0204766D03*
X0134278Y0212640D03*
X0134278Y0220514D03*
X0134278Y0228388D03*
X0134278Y0236262D03*
X0134278Y0244136D03*
X0134278Y0252010D03*
X0075222Y0252010D03*
X0075222Y0244136D03*
X0075222Y0236262D03*
X0075222Y0228388D03*
X0075222Y0220514D03*
X0075222Y0212640D03*
X0075222Y0204766D03*
X0075222Y0196892D03*
M02*
