%
M48
M72
T01C0.0120
T02C0.0200
T03C0.0400
T04C0.1300
%
T01
X14500Y25140
X14500Y25740
X13700Y25640
X13000Y25990
X12950Y26440
X13500Y28640
X14500Y29140
X13750Y30290
X14900Y31290
X15500Y30890
X16250Y29790
X17000Y29140
X17000Y28440
X17000Y27990
X15500Y27640
X15500Y25140
X16500Y25340
X17450Y25240
X20000Y26640
X21500Y26940
X20000Y28140
X19500Y28440
X19150Y28140
X20000Y29140
X20400Y28640
X21200Y29140
X20400Y30490
X18850Y30690
X18500Y31990
X17800Y31990
X13350Y31990
X12650Y31990
X10500Y26740
X6700Y26340
X14500Y41210
X14500Y41810
X13700Y41710
X13000Y42060
X12950Y42510
X13500Y44710
X14500Y45210
X13750Y46360
X14900Y47360
X15500Y46960
X16250Y45860
X17000Y45210
X17000Y44510
X17000Y44060
X15500Y43710
X15500Y41210
X16500Y41410
X17450Y41310
X19150Y44210
X19500Y44510
X20000Y44210
X20400Y44710
X20000Y45210
X21200Y45210
X20400Y46560
X18850Y46760
X18500Y48060
X17800Y48060
X13350Y48060
X12650Y48060
X10500Y42810
X6700Y42410
X20000Y42710
X21500Y43010
X26892Y42410
X30692Y42810
X33142Y42510
X33192Y42060
X33892Y41710
X34692Y41810
X34692Y41210
X35692Y41210
X36692Y41410
X37642Y41310
X37192Y44060
X37192Y44510
X37192Y45210
X36442Y45860
X35692Y46960
X35092Y47360
X33942Y46360
X34692Y45210
X33692Y44710
X35692Y43710
X39342Y44210
X39692Y44510
X40192Y44210
X40592Y44710
X40192Y45210
X41392Y45210
X40592Y46560
X39042Y46760
X38692Y48060
X37992Y48060
X33542Y48060
X32842Y48060
X40192Y42710
X41692Y43010
X38692Y31990
X37992Y31990
X39042Y30690
X40592Y30490
X40192Y29140
X40592Y28640
X40192Y28140
X39692Y28440
X39342Y28140
X40192Y26640
X41692Y26940
X41392Y29140
X37642Y25240
X36692Y25340
X35692Y25140
X34692Y25140
X34692Y25740
X33892Y25640
X33192Y25990
X33142Y26440
X33692Y28640
X34692Y29140
X33942Y30290
X35092Y31290
X35692Y30890
X36442Y29790
X37192Y29140
X37192Y28440
X37192Y27990
X35692Y27640
X33542Y31990
X32842Y31990
X30692Y26740
X26892Y26340
T02
X34192Y27140
X34192Y28140
X34192Y29140
X35192Y29140
X35192Y28140
X35192Y27140
X35192Y43210
X35192Y44210
X34192Y44210
X34192Y43210
X34192Y45210
X35192Y45210
X15000Y45210
X15000Y44210
X15000Y43210
X14000Y43210
X14000Y44210
X14000Y45210
X14000Y29140
X14000Y28140
X14000Y27140
X15000Y27140
X15000Y28140
X15000Y29140
T03
X13000Y24140
X14000Y24140
X15000Y24140
X16000Y24140
X17000Y24140
X17000Y40210
X16000Y40210
X15000Y40210
X14000Y40210
X13000Y40210
X33192Y40210
X34192Y40210
X35192Y40210
X36192Y40210
X37192Y40210
X37192Y24140
X36192Y24140
X35192Y24140
X34192Y24140
X33192Y24140
T04
X24192Y24640
X22000Y24640
X22000Y32640
X24192Y32640
X24192Y40710
X22000Y40710
X22000Y48710
X24192Y48710
X42192Y48710
X42192Y40710
X42192Y32640
X42192Y24640
X4000Y24640
X4000Y32640
X4000Y40710
X4000Y48710
M30
