G75*
%MOIN*%
%OFA0B0*%
%FSLAX25Y25*%
%IPPOS*%
%LPD*%
%AMOC8*
5,1,8,0,0,1.08239X$1,22.5*
%
%ADD10C,0.01421*%
%ADD11C,0.13800*%
%ADD12R,0.08674X0.05524*%
%ADD13R,0.06115X0.03162*%
%ADD14R,0.04146X0.09461*%
%ADD15R,0.04737X0.04934*%
%ADD16R,0.05131X0.04737*%
%ADD17R,0.09855X0.07099*%
%ADD18R,0.04737X0.08674*%
%ADD19R,0.08674X0.08674*%
%ADD20R,0.03000X0.05800*%
%ADD21R,0.05800X0.03000*%
%ADD22C,0.02572*%
%ADD23R,0.13760X0.06040*%
%ADD24R,0.04737X0.05131*%
%ADD25C,0.08200*%
%ADD26R,0.12611X0.04737*%
%ADD27C,0.03800*%
%ADD28C,0.04737*%
%ADD29C,0.05000*%
%ADD30C,0.06706*%
D10*
X0236205Y0104342D02*
X0236205Y0107658D01*
X0236205Y0104342D02*
X0232889Y0104342D01*
X0232889Y0107658D01*
X0236205Y0107658D01*
X0236205Y0105762D02*
X0232889Y0105762D01*
X0232889Y0107182D02*
X0236205Y0107182D01*
X0243111Y0107658D02*
X0243111Y0104342D01*
X0239795Y0104342D01*
X0239795Y0107658D01*
X0243111Y0107658D01*
X0243111Y0105762D02*
X0239795Y0105762D01*
X0239795Y0107182D02*
X0243111Y0107182D01*
X0243111Y0119342D02*
X0243111Y0122658D01*
X0243111Y0119342D02*
X0239795Y0119342D01*
X0239795Y0122658D01*
X0243111Y0122658D01*
X0243111Y0120762D02*
X0239795Y0120762D01*
X0239795Y0122182D02*
X0243111Y0122182D01*
X0236205Y0122658D02*
X0236205Y0119342D01*
X0232889Y0119342D01*
X0232889Y0122658D01*
X0236205Y0122658D01*
X0236205Y0120762D02*
X0232889Y0120762D01*
X0232889Y0122182D02*
X0236205Y0122182D01*
X0236205Y0265043D02*
X0236205Y0268359D01*
X0236205Y0265043D02*
X0232889Y0265043D01*
X0232889Y0268359D01*
X0236205Y0268359D01*
X0236205Y0266463D02*
X0232889Y0266463D01*
X0232889Y0267883D02*
X0236205Y0267883D01*
X0243111Y0268359D02*
X0243111Y0265043D01*
X0239795Y0265043D01*
X0239795Y0268359D01*
X0243111Y0268359D01*
X0243111Y0266463D02*
X0239795Y0266463D01*
X0239795Y0267883D02*
X0243111Y0267883D01*
X0243111Y0280043D02*
X0243111Y0283359D01*
X0243111Y0280043D02*
X0239795Y0280043D01*
X0239795Y0283359D01*
X0243111Y0283359D01*
X0243111Y0281463D02*
X0239795Y0281463D01*
X0239795Y0282883D02*
X0243111Y0282883D01*
X0236205Y0283359D02*
X0236205Y0280043D01*
X0232889Y0280043D01*
X0232889Y0283359D01*
X0236205Y0283359D01*
X0236205Y0281463D02*
X0232889Y0281463D01*
X0232889Y0282883D02*
X0236205Y0282883D01*
X0448127Y0283359D02*
X0448127Y0280043D01*
X0444811Y0280043D01*
X0444811Y0283359D01*
X0448127Y0283359D01*
X0448127Y0281463D02*
X0444811Y0281463D01*
X0444811Y0282883D02*
X0448127Y0282883D01*
X0455032Y0283359D02*
X0455032Y0280043D01*
X0451716Y0280043D01*
X0451716Y0283359D01*
X0455032Y0283359D01*
X0455032Y0281463D02*
X0451716Y0281463D01*
X0451716Y0282883D02*
X0455032Y0282883D01*
X0455032Y0268359D02*
X0455032Y0265043D01*
X0451716Y0265043D01*
X0451716Y0268359D01*
X0455032Y0268359D01*
X0455032Y0266463D02*
X0451716Y0266463D01*
X0451716Y0267883D02*
X0455032Y0267883D01*
X0448127Y0268359D02*
X0448127Y0265043D01*
X0444811Y0265043D01*
X0444811Y0268359D01*
X0448127Y0268359D01*
X0448127Y0266463D02*
X0444811Y0266463D01*
X0444811Y0267883D02*
X0448127Y0267883D01*
X0448127Y0122658D02*
X0448127Y0119342D01*
X0444811Y0119342D01*
X0444811Y0122658D01*
X0448127Y0122658D01*
X0448127Y0120762D02*
X0444811Y0120762D01*
X0444811Y0122182D02*
X0448127Y0122182D01*
X0455032Y0122658D02*
X0455032Y0119342D01*
X0451716Y0119342D01*
X0451716Y0122658D01*
X0455032Y0122658D01*
X0455032Y0120762D02*
X0451716Y0120762D01*
X0451716Y0122182D02*
X0455032Y0122182D01*
X0455032Y0107658D02*
X0455032Y0104342D01*
X0451716Y0104342D01*
X0451716Y0107658D01*
X0455032Y0107658D01*
X0455032Y0105762D02*
X0451716Y0105762D01*
X0451716Y0107182D02*
X0455032Y0107182D01*
X0448127Y0107658D02*
X0448127Y0104342D01*
X0444811Y0104342D01*
X0444811Y0107658D01*
X0448127Y0107658D01*
X0448127Y0105762D02*
X0444811Y0105762D01*
X0444811Y0107182D02*
X0448127Y0107182D01*
D11*
X0088000Y0086000D03*
X0088000Y0166000D03*
X0088000Y0246701D03*
X0088000Y0326701D03*
X0278000Y0321701D03*
X0299921Y0326701D03*
X0299921Y0246701D03*
X0278000Y0241701D03*
X0299921Y0166000D03*
X0278000Y0161000D03*
X0299921Y0086000D03*
X0278000Y0081000D03*
X0489921Y0081000D03*
X0489921Y0161000D03*
X0489921Y0241701D03*
X0489921Y0321701D03*
D12*
X0494390Y0307724D03*
X0494390Y0285677D03*
X0494390Y0277724D03*
X0494390Y0255677D03*
X0494390Y0147024D03*
X0494390Y0124976D03*
X0494390Y0117024D03*
X0494390Y0094976D03*
X0282469Y0094976D03*
X0282469Y0117024D03*
X0282469Y0124976D03*
X0282469Y0147024D03*
X0282469Y0255677D03*
X0282469Y0277724D03*
X0282469Y0285677D03*
X0282469Y0307724D03*
D13*
X0268000Y0302606D03*
X0268000Y0298669D03*
X0268000Y0294732D03*
X0268000Y0290795D03*
X0268000Y0272606D03*
X0268000Y0268669D03*
X0268000Y0264732D03*
X0268000Y0260795D03*
X0268000Y0141906D03*
X0268000Y0137969D03*
X0268000Y0134031D03*
X0268000Y0130094D03*
X0268000Y0111906D03*
X0268000Y0107969D03*
X0268000Y0104031D03*
X0268000Y0100094D03*
X0479921Y0100094D03*
X0479921Y0104031D03*
X0479921Y0107969D03*
X0479921Y0111906D03*
X0479921Y0130094D03*
X0479921Y0134031D03*
X0479921Y0137969D03*
X0479921Y0141906D03*
X0479921Y0260795D03*
X0479921Y0264732D03*
X0479921Y0268669D03*
X0479921Y0272606D03*
X0479921Y0290795D03*
X0479921Y0294732D03*
X0479921Y0298669D03*
X0479921Y0302606D03*
D14*
X0309835Y0282701D03*
X0299008Y0282701D03*
X0097913Y0282701D03*
X0087087Y0282701D03*
X0087087Y0122000D03*
X0097913Y0122000D03*
X0299008Y0122000D03*
X0309835Y0122000D03*
D15*
X0304421Y0115996D03*
X0304421Y0128004D03*
X0304421Y0276697D03*
X0304421Y0288705D03*
X0092500Y0288705D03*
X0092500Y0276697D03*
X0092500Y0128004D03*
X0092500Y0115996D03*
D16*
X0099154Y0108000D03*
X0099154Y0102000D03*
X0105846Y0102000D03*
X0105846Y0108000D03*
X0104346Y0133500D03*
X0097654Y0133500D03*
X0234654Y0131000D03*
X0234654Y0136000D03*
X0234654Y0141000D03*
X0241346Y0141000D03*
X0241346Y0136000D03*
X0241346Y0131000D03*
X0249654Y0131000D03*
X0249654Y0136000D03*
X0256346Y0136000D03*
X0256346Y0131000D03*
X0241346Y0116000D03*
X0234654Y0116000D03*
X0234654Y0101000D03*
X0241346Y0101000D03*
X0311075Y0102000D03*
X0311075Y0108000D03*
X0317768Y0108000D03*
X0317768Y0102000D03*
X0316268Y0133500D03*
X0309575Y0133500D03*
X0446575Y0131000D03*
X0446575Y0136000D03*
X0446575Y0141000D03*
X0453268Y0141000D03*
X0453268Y0136000D03*
X0453268Y0131000D03*
X0461575Y0131000D03*
X0461575Y0136000D03*
X0468268Y0136000D03*
X0468268Y0131000D03*
X0453268Y0116000D03*
X0446575Y0116000D03*
X0446575Y0101000D03*
X0453268Y0101000D03*
X0453268Y0261701D03*
X0446575Y0261701D03*
X0446575Y0276701D03*
X0453268Y0276701D03*
X0453268Y0291701D03*
X0453268Y0296701D03*
X0453268Y0301701D03*
X0446575Y0301701D03*
X0446575Y0296701D03*
X0446575Y0291701D03*
X0461575Y0291701D03*
X0461575Y0296701D03*
X0468268Y0296701D03*
X0468268Y0291701D03*
X0316268Y0294201D03*
X0309575Y0294201D03*
X0311075Y0268701D03*
X0311075Y0262701D03*
X0317768Y0262701D03*
X0317768Y0268701D03*
X0256346Y0291701D03*
X0256346Y0296701D03*
X0249654Y0296701D03*
X0249654Y0291701D03*
X0241346Y0291701D03*
X0241346Y0296701D03*
X0241346Y0301701D03*
X0234654Y0301701D03*
X0234654Y0296701D03*
X0234654Y0291701D03*
X0234654Y0276701D03*
X0241346Y0276701D03*
X0241346Y0261701D03*
X0234654Y0261701D03*
X0105846Y0262701D03*
X0105846Y0268701D03*
X0099154Y0268701D03*
X0099154Y0262701D03*
X0097654Y0294201D03*
X0104346Y0294201D03*
D17*
X0238098Y0241201D03*
X0262902Y0241201D03*
X0450020Y0241201D03*
X0474823Y0241201D03*
X0474823Y0080500D03*
X0450020Y0080500D03*
X0262902Y0080500D03*
X0238098Y0080500D03*
D18*
X0322953Y0153874D03*
X0322953Y0314575D03*
X0111031Y0314575D03*
X0111031Y0153874D03*
D19*
X0136622Y0153874D03*
X0136622Y0314575D03*
X0348543Y0314575D03*
X0348543Y0153874D03*
D20*
X0403898Y0132900D03*
X0407047Y0132900D03*
X0410197Y0132900D03*
X0413346Y0132900D03*
X0416496Y0132900D03*
X0419646Y0132900D03*
X0422795Y0132900D03*
X0425945Y0132900D03*
X0425945Y0099100D03*
X0422795Y0099100D03*
X0419646Y0099100D03*
X0416496Y0099100D03*
X0413346Y0099100D03*
X0410197Y0099100D03*
X0407047Y0099100D03*
X0403898Y0099100D03*
X0214024Y0099100D03*
X0210874Y0099100D03*
X0207724Y0099100D03*
X0204575Y0099100D03*
X0201425Y0099100D03*
X0198276Y0099100D03*
X0195126Y0099100D03*
X0191976Y0099100D03*
X0191976Y0132900D03*
X0195126Y0132900D03*
X0198276Y0132900D03*
X0201425Y0132900D03*
X0204575Y0132900D03*
X0207724Y0132900D03*
X0210874Y0132900D03*
X0214024Y0132900D03*
X0214024Y0259801D03*
X0210874Y0259801D03*
X0207724Y0259801D03*
X0204575Y0259801D03*
X0201425Y0259801D03*
X0198276Y0259801D03*
X0195126Y0259801D03*
X0191976Y0259801D03*
X0191976Y0293601D03*
X0195126Y0293601D03*
X0198276Y0293601D03*
X0201425Y0293601D03*
X0204575Y0293601D03*
X0207724Y0293601D03*
X0210874Y0293601D03*
X0214024Y0293601D03*
X0403898Y0293601D03*
X0407047Y0293601D03*
X0410197Y0293601D03*
X0413346Y0293601D03*
X0416496Y0293601D03*
X0419646Y0293601D03*
X0422795Y0293601D03*
X0425945Y0293601D03*
X0425945Y0259801D03*
X0422795Y0259801D03*
X0419646Y0259801D03*
X0416496Y0259801D03*
X0413346Y0259801D03*
X0410197Y0259801D03*
X0407047Y0259801D03*
X0403898Y0259801D03*
D21*
X0398021Y0265677D03*
X0398021Y0268827D03*
X0398021Y0271976D03*
X0398021Y0275126D03*
X0398021Y0278276D03*
X0398021Y0281425D03*
X0398021Y0284575D03*
X0398021Y0287724D03*
X0431821Y0287724D03*
X0431821Y0284575D03*
X0431821Y0281425D03*
X0431821Y0278276D03*
X0431821Y0275126D03*
X0431821Y0271976D03*
X0431821Y0268827D03*
X0431821Y0265677D03*
X0431821Y0127024D03*
X0431821Y0123874D03*
X0431821Y0120724D03*
X0431821Y0117575D03*
X0431821Y0114425D03*
X0431821Y0111276D03*
X0431821Y0108126D03*
X0431821Y0104976D03*
X0398021Y0104976D03*
X0398021Y0108126D03*
X0398021Y0111276D03*
X0398021Y0114425D03*
X0398021Y0117575D03*
X0398021Y0120724D03*
X0398021Y0123874D03*
X0398021Y0127024D03*
X0219900Y0127024D03*
X0219900Y0123874D03*
X0219900Y0120724D03*
X0219900Y0117575D03*
X0219900Y0114425D03*
X0219900Y0111276D03*
X0219900Y0108126D03*
X0219900Y0104976D03*
X0186100Y0104976D03*
X0186100Y0108126D03*
X0186100Y0111276D03*
X0186100Y0114425D03*
X0186100Y0117575D03*
X0186100Y0120724D03*
X0186100Y0123874D03*
X0186100Y0127024D03*
X0186100Y0265677D03*
X0186100Y0268827D03*
X0186100Y0271976D03*
X0186100Y0275126D03*
X0186100Y0278276D03*
X0186100Y0281425D03*
X0186100Y0284575D03*
X0186100Y0287724D03*
X0219900Y0287724D03*
X0219900Y0284575D03*
X0219900Y0281425D03*
X0219900Y0278276D03*
X0219900Y0275126D03*
X0219900Y0271976D03*
X0219900Y0268827D03*
X0219900Y0265677D03*
D22*
X0203224Y0301337D02*
X0203224Y0307065D01*
X0198500Y0307065D02*
X0198500Y0301337D01*
X0193776Y0301337D02*
X0193776Y0307065D01*
X0193776Y0146364D02*
X0193776Y0140636D01*
X0198500Y0140636D02*
X0198500Y0146364D01*
X0203224Y0146364D02*
X0203224Y0140636D01*
X0405697Y0140636D02*
X0405697Y0146364D01*
X0410421Y0146364D02*
X0410421Y0140636D01*
X0415146Y0140636D02*
X0415146Y0146364D01*
X0415146Y0301337D02*
X0415146Y0307065D01*
X0410421Y0307065D02*
X0410421Y0301337D01*
X0405697Y0301337D02*
X0405697Y0307065D01*
D23*
X0410431Y0304211D03*
X0410431Y0143510D03*
X0198510Y0143510D03*
X0198510Y0304211D03*
D24*
X0188000Y0308354D03*
X0188000Y0315047D03*
X0136500Y0315047D03*
X0136500Y0308354D03*
X0111000Y0308354D03*
X0111000Y0315047D03*
X0104500Y0301047D03*
X0104500Y0294354D03*
X0239500Y0308354D03*
X0239500Y0315047D03*
X0316421Y0301047D03*
X0316421Y0294354D03*
X0322921Y0308354D03*
X0322921Y0315047D03*
X0348421Y0315047D03*
X0348421Y0308354D03*
X0399921Y0308354D03*
X0399921Y0315047D03*
X0451421Y0315047D03*
X0451421Y0308354D03*
X0451421Y0154346D03*
X0451421Y0147654D03*
X0399921Y0147654D03*
X0399921Y0154346D03*
X0348421Y0154346D03*
X0348421Y0147654D03*
X0322921Y0147654D03*
X0322921Y0154346D03*
X0316421Y0140346D03*
X0316421Y0133654D03*
X0239500Y0147654D03*
X0239500Y0154346D03*
X0188000Y0154346D03*
X0188000Y0147654D03*
X0136500Y0147654D03*
X0136500Y0154346D03*
X0111000Y0154346D03*
X0111000Y0147654D03*
X0104500Y0140346D03*
X0104500Y0133654D03*
D25*
X0188000Y0076000D03*
X0198000Y0076000D03*
X0208000Y0076000D03*
X0218000Y0076000D03*
X0228000Y0076000D03*
X0399921Y0076000D03*
X0409921Y0076000D03*
X0419921Y0076000D03*
X0429921Y0076000D03*
X0439921Y0076000D03*
X0439921Y0236701D03*
X0429921Y0236701D03*
X0419921Y0236701D03*
X0409921Y0236701D03*
X0399921Y0236701D03*
X0228000Y0236701D03*
X0218000Y0236701D03*
X0208000Y0236701D03*
X0198000Y0236701D03*
X0188000Y0236701D03*
D26*
X0174528Y0239142D03*
X0174528Y0247016D03*
X0174528Y0254890D03*
X0174528Y0262764D03*
X0174528Y0270638D03*
X0174528Y0278512D03*
X0174528Y0286386D03*
X0174528Y0294260D03*
X0115472Y0294260D03*
X0115472Y0286386D03*
X0115472Y0278512D03*
X0115472Y0270638D03*
X0115472Y0262764D03*
X0115472Y0254890D03*
X0115472Y0247016D03*
X0115472Y0239142D03*
X0115472Y0133559D03*
X0115472Y0125685D03*
X0115472Y0117811D03*
X0115472Y0109937D03*
X0115472Y0102063D03*
X0115472Y0094189D03*
X0115472Y0086315D03*
X0115472Y0078441D03*
X0174528Y0078441D03*
X0174528Y0086315D03*
X0174528Y0094189D03*
X0174528Y0102063D03*
X0174528Y0109937D03*
X0174528Y0117811D03*
X0174528Y0125685D03*
X0174528Y0133559D03*
X0327394Y0133559D03*
X0327394Y0125685D03*
X0327394Y0117811D03*
X0327394Y0109937D03*
X0327394Y0102063D03*
X0327394Y0094189D03*
X0327394Y0086315D03*
X0327394Y0078441D03*
X0386449Y0078441D03*
X0386449Y0086315D03*
X0386449Y0094189D03*
X0386449Y0102063D03*
X0386449Y0109937D03*
X0386449Y0117811D03*
X0386449Y0125685D03*
X0386449Y0133559D03*
X0386449Y0239142D03*
X0386449Y0247016D03*
X0386449Y0254890D03*
X0386449Y0262764D03*
X0386449Y0270638D03*
X0386449Y0278512D03*
X0386449Y0286386D03*
X0386449Y0294260D03*
X0327394Y0294260D03*
X0327394Y0286386D03*
X0327394Y0278512D03*
X0327394Y0270638D03*
X0327394Y0262764D03*
X0327394Y0254890D03*
X0327394Y0247016D03*
X0327394Y0239142D03*
D27*
X0229000Y0304201D03*
X0224000Y0304201D03*
X0219000Y0304201D03*
X0219000Y0143500D03*
X0224000Y0143500D03*
X0229000Y0143500D03*
X0430921Y0143500D03*
X0435921Y0143500D03*
X0440921Y0143500D03*
X0440921Y0304201D03*
X0435921Y0304201D03*
X0430921Y0304201D03*
D28*
X0490842Y0398652D03*
X0141000Y0398652D03*
D29*
X0137435Y0062750D02*
X0137437Y0062869D01*
X0137443Y0062988D01*
X0137453Y0063107D01*
X0137467Y0063225D01*
X0137485Y0063343D01*
X0137506Y0063460D01*
X0137532Y0063576D01*
X0137562Y0063692D01*
X0137595Y0063806D01*
X0137632Y0063919D01*
X0137673Y0064031D01*
X0137718Y0064142D01*
X0137766Y0064251D01*
X0137818Y0064358D01*
X0137874Y0064463D01*
X0137933Y0064567D01*
X0137995Y0064668D01*
X0138061Y0064768D01*
X0138130Y0064865D01*
X0138202Y0064959D01*
X0138278Y0065052D01*
X0138356Y0065141D01*
X0138437Y0065228D01*
X0138522Y0065313D01*
X0138609Y0065394D01*
X0138698Y0065472D01*
X0138791Y0065548D01*
X0138885Y0065620D01*
X0138982Y0065689D01*
X0139082Y0065755D01*
X0139183Y0065817D01*
X0139287Y0065876D01*
X0139392Y0065932D01*
X0139499Y0065984D01*
X0139608Y0066032D01*
X0139719Y0066077D01*
X0139831Y0066118D01*
X0139944Y0066155D01*
X0140058Y0066188D01*
X0140174Y0066218D01*
X0140290Y0066244D01*
X0140407Y0066265D01*
X0140525Y0066283D01*
X0140643Y0066297D01*
X0140762Y0066307D01*
X0140881Y0066313D01*
X0141000Y0066315D01*
X0141119Y0066313D01*
X0141238Y0066307D01*
X0141357Y0066297D01*
X0141475Y0066283D01*
X0141593Y0066265D01*
X0141710Y0066244D01*
X0141826Y0066218D01*
X0141942Y0066188D01*
X0142056Y0066155D01*
X0142169Y0066118D01*
X0142281Y0066077D01*
X0142392Y0066032D01*
X0142501Y0065984D01*
X0142608Y0065932D01*
X0142713Y0065876D01*
X0142817Y0065817D01*
X0142918Y0065755D01*
X0143018Y0065689D01*
X0143115Y0065620D01*
X0143209Y0065548D01*
X0143302Y0065472D01*
X0143391Y0065394D01*
X0143478Y0065313D01*
X0143563Y0065228D01*
X0143644Y0065141D01*
X0143722Y0065052D01*
X0143798Y0064959D01*
X0143870Y0064865D01*
X0143939Y0064768D01*
X0144005Y0064668D01*
X0144067Y0064567D01*
X0144126Y0064463D01*
X0144182Y0064358D01*
X0144234Y0064251D01*
X0144282Y0064142D01*
X0144327Y0064031D01*
X0144368Y0063919D01*
X0144405Y0063806D01*
X0144438Y0063692D01*
X0144468Y0063576D01*
X0144494Y0063460D01*
X0144515Y0063343D01*
X0144533Y0063225D01*
X0144547Y0063107D01*
X0144557Y0062988D01*
X0144563Y0062869D01*
X0144565Y0062750D01*
X0144563Y0062631D01*
X0144557Y0062512D01*
X0144547Y0062393D01*
X0144533Y0062275D01*
X0144515Y0062157D01*
X0144494Y0062040D01*
X0144468Y0061924D01*
X0144438Y0061808D01*
X0144405Y0061694D01*
X0144368Y0061581D01*
X0144327Y0061469D01*
X0144282Y0061358D01*
X0144234Y0061249D01*
X0144182Y0061142D01*
X0144126Y0061037D01*
X0144067Y0060933D01*
X0144005Y0060832D01*
X0143939Y0060732D01*
X0143870Y0060635D01*
X0143798Y0060541D01*
X0143722Y0060448D01*
X0143644Y0060359D01*
X0143563Y0060272D01*
X0143478Y0060187D01*
X0143391Y0060106D01*
X0143302Y0060028D01*
X0143209Y0059952D01*
X0143115Y0059880D01*
X0143018Y0059811D01*
X0142918Y0059745D01*
X0142817Y0059683D01*
X0142713Y0059624D01*
X0142608Y0059568D01*
X0142501Y0059516D01*
X0142392Y0059468D01*
X0142281Y0059423D01*
X0142169Y0059382D01*
X0142056Y0059345D01*
X0141942Y0059312D01*
X0141826Y0059282D01*
X0141710Y0059256D01*
X0141593Y0059235D01*
X0141475Y0059217D01*
X0141357Y0059203D01*
X0141238Y0059193D01*
X0141119Y0059187D01*
X0141000Y0059185D01*
X0140881Y0059187D01*
X0140762Y0059193D01*
X0140643Y0059203D01*
X0140525Y0059217D01*
X0140407Y0059235D01*
X0140290Y0059256D01*
X0140174Y0059282D01*
X0140058Y0059312D01*
X0139944Y0059345D01*
X0139831Y0059382D01*
X0139719Y0059423D01*
X0139608Y0059468D01*
X0139499Y0059516D01*
X0139392Y0059568D01*
X0139287Y0059624D01*
X0139183Y0059683D01*
X0139082Y0059745D01*
X0138982Y0059811D01*
X0138885Y0059880D01*
X0138791Y0059952D01*
X0138698Y0060028D01*
X0138609Y0060106D01*
X0138522Y0060187D01*
X0138437Y0060272D01*
X0138356Y0060359D01*
X0138278Y0060448D01*
X0138202Y0060541D01*
X0138130Y0060635D01*
X0138061Y0060732D01*
X0137995Y0060832D01*
X0137933Y0060933D01*
X0137874Y0061037D01*
X0137818Y0061142D01*
X0137766Y0061249D01*
X0137718Y0061358D01*
X0137673Y0061469D01*
X0137632Y0061581D01*
X0137595Y0061694D01*
X0137562Y0061808D01*
X0137532Y0061924D01*
X0137506Y0062040D01*
X0137485Y0062157D01*
X0137467Y0062275D01*
X0137453Y0062393D01*
X0137443Y0062512D01*
X0137437Y0062631D01*
X0137435Y0062750D01*
D30*
X0141000Y0062750D03*
M02*
